%TF.GenerationSoftware,KiCad,Pcbnew,9.0.0*%
%TF.CreationDate,2025-05-09T17:06:20-07:00*%
%TF.ProjectId,Motor_Controller_Board_v1,4d6f746f-725f-4436-9f6e-74726f6c6c65,v1*%
%TF.SameCoordinates,Original*%
%TF.FileFunction,Copper,L2,Bot*%
%TF.FilePolarity,Positive*%
%FSLAX46Y46*%
G04 Gerber Fmt 4.6, Leading zero omitted, Abs format (unit mm)*
G04 Created by KiCad (PCBNEW 9.0.0) date 2025-05-09 17:06:20*
%MOMM*%
%LPD*%
G01*
G04 APERTURE LIST*
%TA.AperFunction,ComponentPad*%
%ADD10C,3.000000*%
%TD*%
%TA.AperFunction,ComponentPad*%
%ADD11R,3.000000X3.000000*%
%TD*%
%TA.AperFunction,ComponentPad*%
%ADD12O,1.700000X1.700000*%
%TD*%
%TA.AperFunction,ComponentPad*%
%ADD13R,1.700000X1.700000*%
%TD*%
%TA.AperFunction,HeatsinkPad*%
%ADD14C,0.500000*%
%TD*%
%TA.AperFunction,HeatsinkPad*%
%ADD15R,2.500000X2.500000*%
%TD*%
%TA.AperFunction,HeatsinkPad*%
%ADD16O,1.200000X1.900000*%
%TD*%
%TA.AperFunction,HeatsinkPad*%
%ADD17C,1.450000*%
%TD*%
%TA.AperFunction,ComponentPad*%
%ADD18C,3.800000*%
%TD*%
%TA.AperFunction,ViaPad*%
%ADD19C,0.600000*%
%TD*%
%TA.AperFunction,ViaPad*%
%ADD20C,0.700000*%
%TD*%
%TA.AperFunction,Conductor*%
%ADD21C,0.250000*%
%TD*%
%TA.AperFunction,Conductor*%
%ADD22C,0.300000*%
%TD*%
%TA.AperFunction,Conductor*%
%ADD23C,2.000000*%
%TD*%
G04 APERTURE END LIST*
D10*
%TO.P,J401,4,Pin_4*%
%TO.N,/Stepper Drivers/AGITATE_2B*%
X175480000Y-84930000D03*
%TO.P,J401,3,Pin_3*%
%TO.N,/Stepper Drivers/AGITATE_2A*%
X180560000Y-84930000D03*
%TO.P,J401,2,Pin_2*%
%TO.N,/Stepper Drivers/AGITATE_1A*%
X185640000Y-84930000D03*
D11*
%TO.P,J401,1,Pin_1*%
%TO.N,/Stepper Drivers/AGITATE_1B*%
X190720000Y-84930000D03*
%TD*%
D12*
%TO.P,J202,2,Pin_2*%
%TO.N,GND*%
X137130000Y-145380000D03*
D13*
%TO.P,J202,1,Pin_1*%
%TO.N,+5V*%
X139670000Y-145380000D03*
%TD*%
D12*
%TO.P,J304,2,Pin_2*%
%TO.N,+3.3V*%
X152810000Y-145205000D03*
D13*
%TO.P,J304,1,Pin_1*%
%TO.N,/Microcontroller/VERTICAL_SWITCH*%
X155350000Y-145205000D03*
%TD*%
D12*
%TO.P,J206,2,Pin_2*%
%TO.N,GND*%
X121530000Y-145330000D03*
D13*
%TO.P,J206,1,Pin_1*%
%TO.N,/Power Supply/DIGITAL_POWER_+24V*%
X124070000Y-145330000D03*
%TD*%
D12*
%TO.P,J305,2,Pin_2*%
%TO.N,+3.3V*%
X145810000Y-145205000D03*
D13*
%TO.P,J305,1,Pin_1*%
%TO.N,/Microcontroller/HORIZONTAL_SWITCH*%
X148350000Y-145205000D03*
%TD*%
D12*
%TO.P,J303,2,Pin_2*%
%TO.N,/Microcontroller/AGITATION_SWITCH*%
X170770000Y-145205000D03*
D13*
%TO.P,J303,1,Pin_1*%
%TO.N,+3.3V*%
X173310000Y-145205000D03*
%TD*%
D14*
%TO.P,U401,29,GND*%
%TO.N,GND*%
X183850000Y-109330000D03*
X183850000Y-108330000D03*
X183850000Y-107330000D03*
X182850000Y-109330000D03*
D15*
X182850000Y-108330000D03*
D14*
X182850000Y-108330000D03*
X182850000Y-107330000D03*
X181850000Y-109330000D03*
X181850000Y-108330000D03*
X181850000Y-107330000D03*
%TD*%
D12*
%TO.P,J207,2,Pin_2*%
%TO.N,GND*%
X115305000Y-145330000D03*
D13*
%TO.P,J207,1,Pin_1*%
%TO.N,/Power Supply/DIGITAL_POWER_+24V*%
X117845000Y-145330000D03*
%TD*%
D16*
%TO.P,J302,6,Shield*%
%TO.N,unconnected-(J302-Shield-Pad6)*%
X167170000Y-145205000D03*
D17*
%TO.N,unconnected-(J302-Shield-Pad6)_1*%
X166170000Y-142505000D03*
%TO.N,unconnected-(J302-Shield-Pad6)_4*%
X161170000Y-142505000D03*
D16*
%TO.N,unconnected-(J302-Shield-Pad6)_6*%
X160170000Y-145205000D03*
%TD*%
D10*
%TO.P,J203,2,Pin_2*%
%TO.N,+24V*%
X112670000Y-114990000D03*
D11*
%TO.P,J203,1,Pin_1*%
%TO.N,GND*%
X112670000Y-120070000D03*
%TD*%
D14*
%TO.P,U403,29,GND*%
%TO.N,GND*%
X155220000Y-109330000D03*
X155220000Y-108330000D03*
X155220000Y-107330000D03*
X154220000Y-109330000D03*
D15*
X154220000Y-108330000D03*
D14*
X154220000Y-108330000D03*
X154220000Y-107330000D03*
X153220000Y-109330000D03*
X153220000Y-108330000D03*
X153220000Y-107330000D03*
%TD*%
%TO.P,U402,29,GND*%
%TO.N,GND*%
X125970000Y-109430000D03*
X125970000Y-108430000D03*
X125970000Y-107430000D03*
X124970000Y-109430000D03*
D15*
X124970000Y-108430000D03*
D14*
X124970000Y-108430000D03*
X124970000Y-107430000D03*
X123970000Y-109430000D03*
X123970000Y-108430000D03*
X123970000Y-107430000D03*
%TD*%
D10*
%TO.P,J402,4,Pin_4*%
%TO.N,/Stepper Drivers/HORIZONTAL_2B*%
X117470000Y-84930000D03*
%TO.P,J402,3,Pin_3*%
%TO.N,/Stepper Drivers/HORIZONTAL_2A*%
X122550000Y-84930000D03*
%TO.P,J402,2,Pin_2*%
%TO.N,/Stepper Drivers/HORIZONTAL_1A*%
X127630000Y-84930000D03*
D11*
%TO.P,J402,1,Pin_1*%
%TO.N,/Stepper Drivers/HORIZONTAL_1B*%
X132710000Y-84930000D03*
%TD*%
D18*
%TO.P,H202,1,1*%
%TO.N,GND*%
X192970000Y-146430000D03*
%TD*%
D10*
%TO.P,J201,2,Pin_2*%
%TO.N,/Power Supply/DIGITAL_POWER_+24V*%
X112670000Y-125550000D03*
D11*
%TO.P,J201,1,Pin_1*%
%TO.N,GND*%
X112670000Y-130630000D03*
%TD*%
D18*
%TO.P,H201,1,1*%
%TO.N,GND*%
X192970000Y-77430000D03*
%TD*%
%TO.P,H204,1,1*%
%TO.N,GND*%
X108970000Y-77350000D03*
%TD*%
%TO.P,H203,1,1*%
%TO.N,GND*%
X108970000Y-146430000D03*
%TD*%
D10*
%TO.P,J403,4,Pin_4*%
%TO.N,/Stepper Drivers/VERTICAL_2B*%
X146480000Y-84930000D03*
%TO.P,J403,3,Pin_3*%
%TO.N,/Stepper Drivers/VERTICAL_2A*%
X151560000Y-84930000D03*
%TO.P,J403,2,Pin_2*%
%TO.N,/Stepper Drivers/VERTICAL_1A*%
X156640000Y-84930000D03*
D11*
%TO.P,J403,1,Pin_1*%
%TO.N,/Stepper Drivers/VERTICAL_1B*%
X161720000Y-84930000D03*
%TD*%
D12*
%TO.P,J301,4,Pin_4*%
%TO.N,unconnected-(J301-Pin_4-Pad4)*%
X177770000Y-145205000D03*
%TO.P,J301,3,Pin_3*%
%TO.N,/Microcontroller/TXD*%
X180310000Y-145205000D03*
%TO.P,J301,2,Pin_2*%
%TO.N,/Microcontroller/RXD*%
X182850000Y-145205000D03*
D13*
%TO.P,J301,1,Pin_1*%
%TO.N,unconnected-(J301-Pin_1-Pad1)*%
X185390000Y-145205000D03*
%TD*%
D19*
%TO.N,AGITATION_DIR*%
X175250000Y-133650000D03*
D20*
%TO.N,DRIVER_ENABLE*%
X121370000Y-107730000D03*
X179270000Y-107530000D03*
D19*
%TO.N,AGITATION_DIR*%
X188000000Y-117860000D03*
D20*
%TO.N,DRIVER_ENABLE*%
X143770000Y-114630000D03*
X171070000Y-130330000D03*
%TO.N,+3.3V*%
X145800000Y-134000000D03*
%TO.N,DRIVER_ENABLE*%
X133370000Y-114630000D03*
X175170000Y-126130000D03*
X150836995Y-107622587D03*
X158370000Y-116630000D03*
X158446000Y-114400000D03*
X162300000Y-114400000D03*
%TO.N,VERTICAL_DIR*%
X160220000Y-125680000D03*
%TO.N,AGITATION_DIR*%
X187270000Y-107830000D03*
%TO.N,+3.3V*%
X145800000Y-136400000D03*
D19*
%TO.N,AGITATION_DIR*%
X179300000Y-129570000D03*
D20*
%TO.N,DRIVER_ENABLE*%
X178070000Y-117530000D03*
%TO.N,GND*%
X132470000Y-106230000D03*
X121670000Y-135030000D03*
X178200000Y-92650000D03*
D19*
X125040000Y-89200000D03*
D20*
X154200000Y-96200000D03*
X119500000Y-98000000D03*
D19*
X189260000Y-111970000D03*
D20*
X125070000Y-93230000D03*
X154200000Y-89700000D03*
X191720000Y-125930000D03*
X158900000Y-95100000D03*
X140220000Y-122430000D03*
X178300000Y-95400000D03*
X170810000Y-94555000D03*
X150470000Y-141830000D03*
X148125000Y-121825000D03*
X178170000Y-123030000D03*
X177600000Y-97700000D03*
D19*
X160670000Y-140500000D03*
D20*
X120070000Y-93030000D03*
D19*
X178126000Y-88946000D03*
D20*
%TO.N,+5V*%
X151570000Y-116430000D03*
%TO.N,GND*%
X137400000Y-86400000D03*
%TO.N,/Microcontroller/EN*%
X158770000Y-130980000D03*
X161645000Y-121800000D03*
%TO.N,+5V*%
X147770000Y-117930000D03*
D19*
%TO.N,GND*%
X187800000Y-88900000D03*
X130120000Y-89200000D03*
D20*
X119720000Y-112930000D03*
X157400000Y-97900000D03*
X140970000Y-110730000D03*
X161720000Y-132680000D03*
D19*
X155470000Y-116460000D03*
%TO.N,AGITATION_STEP*%
X186990000Y-117790000D03*
D20*
%TO.N,/Stepper Drivers/A_VREF*%
X186670000Y-108630000D03*
%TO.N,VERTICAL_STEP*%
X158470000Y-109430000D03*
D19*
%TO.N,HORIZONTAL_DIR*%
X156220000Y-122430000D03*
D20*
%TO.N,VERTICAL_STEP*%
X159220000Y-113180000D03*
X159220000Y-125430000D03*
%TO.N,/Stepper Drivers/A_VREF*%
X187470000Y-106630000D03*
%TO.N,HORIZONTAL_STEP*%
X156470000Y-132630000D03*
D19*
%TO.N,/Microcontroller/AGITATION_SWITCH*%
X166230000Y-135180002D03*
D20*
%TO.N,HORIZONTAL_DIR*%
X156420000Y-131480000D03*
D19*
%TO.N,AGITATION_STEP*%
X173080000Y-131690000D03*
D20*
%TO.N,HORIZONTAL_DIR*%
X129720000Y-107930000D03*
%TO.N,VERTICAL_STEP*%
X159220000Y-123180000D03*
%TO.N,HORIZONTAL_STEP*%
X129470000Y-109430000D03*
D19*
%TO.N,AGITATION_STEP*%
X177300000Y-127480000D03*
X186160000Y-109430000D03*
%TO.N,HORIZONTAL_STEP*%
X155785000Y-124495000D03*
D20*
X132970000Y-112930000D03*
%TO.N,VERTICAL_DIR*%
X160220000Y-123430000D03*
%TO.N,/Microcontroller/HORIZONTAL_SWITCH*%
X161400000Y-135800000D03*
%TO.N,HORIZONTAL_DIR*%
X135720000Y-108430000D03*
D19*
%TO.N,/Microcontroller/AGITATION_SWITCH*%
X168820000Y-140000000D03*
D20*
%TO.N,VERTICAL_DIR*%
X158720000Y-107930000D03*
X160970000Y-111430000D03*
D19*
%TO.N,/Microcontroller/HORIZONTAL_SWITCH*%
X154810000Y-140020000D03*
D20*
%TO.N,/Microcontroller/VERTICAL_SWITCH*%
X159550000Y-138910000D03*
%TO.N,GND*%
X137170000Y-117230000D03*
X158900000Y-92300000D03*
D19*
X179400000Y-114120000D03*
X159838000Y-89454000D03*
D20*
X167220000Y-129430000D03*
X186170000Y-128490000D03*
X126470000Y-116930000D03*
X130900000Y-97900000D03*
X193170000Y-109530000D03*
X115670000Y-93280000D03*
X150720000Y-124430000D03*
D19*
X131250000Y-125680000D03*
D20*
X168270000Y-94080000D03*
D19*
X145614000Y-89454000D03*
D20*
X165970000Y-136180000D03*
X175470000Y-138030000D03*
X187900000Y-97700000D03*
X172570000Y-112230000D03*
X150000000Y-94200000D03*
X117670000Y-105730000D03*
D19*
X107271000Y-101900000D03*
D20*
X179800000Y-97700000D03*
X169520000Y-111130000D03*
X165720000Y-125930000D03*
X137270000Y-110730000D03*
X130850000Y-112950000D03*
D19*
X173000000Y-88950000D03*
D20*
X118570000Y-135230000D03*
X170300000Y-86800000D03*
X110700000Y-85900000D03*
D19*
X116150000Y-89200000D03*
X158314000Y-89454000D03*
D20*
X168500000Y-86800000D03*
X129370000Y-112240000D03*
X159500000Y-97900000D03*
X129000000Y-97900000D03*
X150370000Y-138830000D03*
X161720000Y-125930000D03*
D19*
X150000000Y-89500000D03*
D20*
X185170000Y-141730000D03*
D19*
X120070000Y-89200000D03*
D20*
X185300000Y-97700000D03*
X160470000Y-133180000D03*
X192545000Y-132930000D03*
D19*
X164970000Y-141350000D03*
X155266000Y-133142000D03*
D20*
X124970000Y-97030000D03*
X191470000Y-143680000D03*
X157720000Y-123430000D03*
X188300000Y-92800000D03*
D19*
X157170000Y-142940000D03*
X131320000Y-124430000D03*
D20*
X183100000Y-93100000D03*
X120800000Y-98000000D03*
D19*
X189250000Y-88900000D03*
D20*
X139470000Y-97930000D03*
D19*
X158070000Y-112100000D03*
%TO.N,+24V*%
X130470000Y-102480000D03*
D20*
X143050000Y-101150000D03*
D19*
X159838000Y-102662000D03*
%TO.N,GND*%
X126080000Y-123190000D03*
D20*
%TO.N,+24V*%
X116270000Y-107030000D03*
X179000000Y-103800000D03*
X170950000Y-100300000D03*
%TO.N,GND*%
X186170000Y-138105000D03*
%TO.N,+24V*%
X177200000Y-103800000D03*
%TO.N,GND*%
X145470000Y-93705000D03*
X166800000Y-86800000D03*
X162070000Y-106030000D03*
%TO.N,+24V*%
X120300000Y-104100000D03*
%TO.N,GND*%
X108700000Y-85900000D03*
X141300000Y-86400000D03*
X149800000Y-98000000D03*
X130070000Y-93330000D03*
X153800000Y-124400000D03*
X146720000Y-119180000D03*
X191545000Y-135505000D03*
X157720000Y-135680000D03*
X181870000Y-124930000D03*
%TO.N,+24V*%
X145470000Y-103930000D03*
X115195000Y-103880000D03*
X170000000Y-99500000D03*
D19*
X188286000Y-101138000D03*
D20*
X144050000Y-102100000D03*
D19*
X130470000Y-101646000D03*
D20*
X116220000Y-103855000D03*
X172965000Y-103380000D03*
X115270000Y-108230000D03*
X150050000Y-104050000D03*
X116270000Y-108155000D03*
%TO.N,GND*%
X112600000Y-85900000D03*
X174470000Y-114830000D03*
X154200000Y-93300000D03*
D19*
%TO.N,+24V*%
X188286000Y-102154000D03*
X159280000Y-103120000D03*
D20*
X115270000Y-107030000D03*
%TO.N,GND*%
X128970000Y-121430000D03*
X165420000Y-94230000D03*
X139400000Y-86400000D03*
D19*
X107925000Y-101930000D03*
D20*
X163720000Y-132680000D03*
X163720000Y-125930000D03*
X183070000Y-129630000D03*
X183100000Y-89000000D03*
X151300000Y-98000000D03*
X170830000Y-134330000D03*
D19*
X150320000Y-114460000D03*
D20*
X167220000Y-131430000D03*
D19*
X184950000Y-117170000D03*
%TD*%
D21*
%TO.N,/Stepper Drivers/A_VREF*%
X186594000Y-107506000D02*
X187470000Y-106630000D01*
X186594000Y-108554000D02*
X186594000Y-107506000D01*
X186670000Y-108630000D02*
X186594000Y-108554000D01*
%TO.N,VERTICAL_STEP*%
X159220000Y-113180000D02*
X159220000Y-110180000D01*
D22*
%TO.N,HORIZONTAL_DIR*%
X135220000Y-107930000D02*
X135720000Y-108430000D01*
D21*
%TO.N,VERTICAL_STEP*%
X159220000Y-125430000D02*
X159220000Y-123180000D01*
%TO.N,HORIZONTAL_DIR*%
X156420000Y-122630000D02*
X156220000Y-122430000D01*
%TO.N,VERTICAL_STEP*%
X159220000Y-110180000D02*
X158470000Y-109430000D01*
D22*
%TO.N,AGITATION_STEP*%
X177290000Y-127480000D02*
X173080000Y-131690000D01*
D21*
X186890000Y-109430000D02*
X186890000Y-117690000D01*
%TO.N,HORIZONTAL_DIR*%
X156420000Y-131480000D02*
X156420000Y-122630000D01*
%TO.N,AGITATION_STEP*%
X186890000Y-117690000D02*
X186990000Y-117790000D01*
X186160000Y-109430000D02*
X186890000Y-109430000D01*
D22*
X177300000Y-127480000D02*
X177290000Y-127480000D01*
%TO.N,HORIZONTAL_DIR*%
X129720000Y-107930000D02*
X135220000Y-107930000D01*
D21*
%TO.N,VERTICAL_DIR*%
X160970000Y-111430000D02*
X160970000Y-110180000D01*
X160220000Y-125680000D02*
X160220000Y-123430000D01*
X160970000Y-110180000D02*
X158720000Y-107930000D01*
%TO.N,+3.3V*%
X145800000Y-134000000D02*
X145800000Y-136400000D01*
D22*
%TO.N,AGITATION_DIR*%
X179300000Y-129600000D02*
X175250000Y-133650000D01*
%TO.N,HORIZONTAL_STEP*%
X129470000Y-109430000D02*
X132970000Y-112930000D01*
D21*
X155656000Y-132385298D02*
X155656000Y-124624000D01*
X156035351Y-132764649D02*
X155656000Y-132385298D01*
D22*
%TO.N,AGITATION_DIR*%
X188000000Y-108560000D02*
X188000000Y-117860000D01*
D21*
%TO.N,HORIZONTAL_STEP*%
X155656000Y-124624000D02*
X155785000Y-124495000D01*
D22*
%TO.N,AGITATION_DIR*%
X187270000Y-107830000D02*
X188000000Y-108560000D01*
D21*
%TO.N,HORIZONTAL_STEP*%
X156335351Y-132764649D02*
X156035351Y-132764649D01*
D22*
%TO.N,AGITATION_DIR*%
X179300000Y-129570000D02*
X179300000Y-129600000D01*
D21*
%TO.N,HORIZONTAL_STEP*%
X156470000Y-132630000D02*
X156335351Y-132764649D01*
%TO.N,DRIVER_ENABLE*%
X171070000Y-130330000D02*
X171070000Y-130230000D01*
X150836995Y-107622587D02*
X150836995Y-108098995D01*
X157138000Y-114400000D02*
X158446000Y-114400000D01*
X178070000Y-117530000D02*
X178070000Y-108730000D01*
X121370000Y-107982000D02*
X128018000Y-114630000D01*
X158470000Y-116530000D02*
X158370000Y-116630000D01*
X178070000Y-108730000D02*
X179270000Y-107530000D01*
X150836995Y-108098995D02*
X157138000Y-114400000D01*
X143770000Y-114630000D02*
X150777413Y-107622587D01*
X121370000Y-107730000D02*
X121370000Y-107982000D01*
X171070000Y-130230000D02*
X175170000Y-126130000D01*
X158446000Y-114400000D02*
X162300000Y-114400000D01*
X128018000Y-114630000D02*
X133370000Y-114630000D01*
X150777413Y-107622587D02*
X150836995Y-107622587D01*
D23*
%TO.N,+24V*%
X115670000Y-103430000D02*
X115670000Y-107030000D01*
X115645000Y-108180000D02*
X115670000Y-108155000D01*
X115670000Y-107030000D02*
X115670000Y-108155000D01*
D21*
%TO.N,+5V*%
X151570000Y-116430000D02*
X149270000Y-116430000D01*
%TO.N,/Microcontroller/EN*%
X157644000Y-121800000D02*
X157044000Y-122400000D01*
%TO.N,+5V*%
X149270000Y-116430000D02*
X147770000Y-117930000D01*
%TO.N,/Microcontroller/EN*%
X161645000Y-121800000D02*
X157644000Y-121800000D01*
X157044000Y-129254000D02*
X158770000Y-130980000D01*
X157044000Y-122400000D02*
X157044000Y-129254000D01*
%TO.N,/Microcontroller/HORIZONTAL_SWITCH*%
X159030000Y-135800000D02*
X154810000Y-140020000D01*
X161400000Y-135800000D02*
X159030000Y-135800000D01*
%TO.N,/Microcontroller/AGITATION_SWITCH*%
X168820000Y-140000000D02*
X168820000Y-137650000D01*
X168820000Y-137650000D02*
X166230000Y-135060000D01*
X166230000Y-135060000D02*
X166230000Y-135180002D01*
%TO.N,/Microcontroller/VERTICAL_SWITCH*%
X155350000Y-143110000D02*
X155350000Y-145205000D01*
X159550000Y-138910000D02*
X155350000Y-143110000D01*
%TD*%
%TA.AperFunction,Conductor*%
%TO.N,+24V*%
G36*
X192452580Y-98755427D02*
G01*
X192498524Y-98808067D01*
X192509892Y-98862335D01*
X192409361Y-104156877D01*
X192388407Y-104223531D01*
X192334744Y-104268275D01*
X192285948Y-104278522D01*
X117192081Y-104620715D01*
X117192070Y-104620715D01*
X117106826Y-104630176D01*
X117106822Y-104630176D01*
X117055898Y-104641377D01*
X117055884Y-104641380D01*
X116985142Y-104663898D01*
X116985136Y-104663901D01*
X116877446Y-104730956D01*
X116877443Y-104730959D01*
X116860156Y-104745937D01*
X116796602Y-104774962D01*
X116779162Y-104776224D01*
X114550196Y-104779946D01*
X114483124Y-104760373D01*
X114467879Y-104748865D01*
X114439423Y-104723719D01*
X114439422Y-104723718D01*
X114324537Y-104669894D01*
X114324535Y-104669893D01*
X114324530Y-104669891D01*
X114324527Y-104669890D01*
X114257426Y-104650518D01*
X114257412Y-104650515D01*
X114143090Y-104634608D01*
X114143087Y-104634608D01*
X109060065Y-104657769D01*
X108992937Y-104638390D01*
X108946942Y-104585795D01*
X108935500Y-104533770D01*
X108935500Y-99157610D01*
X108955185Y-99090571D01*
X109007989Y-99044816D01*
X109059053Y-99033611D01*
X192385472Y-98735982D01*
X192452580Y-98755427D01*
G37*
%TD.AperFunction*%
%TD*%
%TA.AperFunction,Conductor*%
%TO.N,GND*%
G36*
X108530000Y-105075000D02*
G01*
X106970500Y-105075000D01*
X106970500Y-89835000D01*
X108530000Y-89835000D01*
X108530000Y-105075000D01*
G37*
%TD.AperFunction*%
%TD*%
%TA.AperFunction,Conductor*%
%TO.N,GND*%
G36*
X191402353Y-75450185D02*
G01*
X191448108Y-75502989D01*
X191459119Y-75561453D01*
X191458900Y-75565346D01*
X192387263Y-76493709D01*
X192253398Y-76590967D01*
X192130967Y-76713398D01*
X192033709Y-76847262D01*
X191105345Y-75918899D01*
X191009568Y-76039001D01*
X190866152Y-76267247D01*
X190749198Y-76510104D01*
X190749192Y-76510118D01*
X190660167Y-76764536D01*
X190660163Y-76764548D01*
X190600181Y-77027348D01*
X190600178Y-77027366D01*
X190570000Y-77295212D01*
X190570000Y-77564787D01*
X190600178Y-77832633D01*
X190600181Y-77832651D01*
X190660163Y-78095451D01*
X190660167Y-78095463D01*
X190749192Y-78349881D01*
X190749198Y-78349895D01*
X190866152Y-78592752D01*
X191009568Y-78820998D01*
X191105346Y-78941099D01*
X192033708Y-78012736D01*
X192130967Y-78146602D01*
X192253398Y-78269033D01*
X192387262Y-78366290D01*
X191458899Y-79294652D01*
X191458900Y-79294653D01*
X191578993Y-79390427D01*
X191578997Y-79390429D01*
X191807247Y-79533847D01*
X192050104Y-79650801D01*
X192050118Y-79650807D01*
X192304536Y-79739832D01*
X192304548Y-79739836D01*
X192567348Y-79799818D01*
X192567366Y-79799821D01*
X192835212Y-79829999D01*
X192835216Y-79830000D01*
X193104784Y-79830000D01*
X193104787Y-79829999D01*
X193372633Y-79799821D01*
X193372651Y-79799818D01*
X193635451Y-79739836D01*
X193635463Y-79739832D01*
X193889881Y-79650807D01*
X193889895Y-79650801D01*
X194132752Y-79533847D01*
X194360999Y-79390431D01*
X194481098Y-79294653D01*
X194481099Y-79294652D01*
X193552737Y-78366290D01*
X193686602Y-78269033D01*
X193809033Y-78146602D01*
X193906290Y-78012737D01*
X194834651Y-78941098D01*
X194838547Y-78940880D01*
X194906585Y-78956775D01*
X194955229Y-79006930D01*
X194969500Y-79064685D01*
X194969500Y-144795313D01*
X194949815Y-144862352D01*
X194897011Y-144908107D01*
X194838549Y-144919118D01*
X194834652Y-144918899D01*
X193906290Y-145847262D01*
X193809033Y-145713398D01*
X193686602Y-145590967D01*
X193552736Y-145493709D01*
X194481099Y-144565346D01*
X194360998Y-144469568D01*
X194132752Y-144326152D01*
X193889895Y-144209198D01*
X193889881Y-144209192D01*
X193635463Y-144120167D01*
X193635451Y-144120163D01*
X193372651Y-144060181D01*
X193372633Y-144060178D01*
X193104787Y-144030000D01*
X192835212Y-144030000D01*
X192567366Y-144060178D01*
X192567348Y-144060181D01*
X192304548Y-144120163D01*
X192304536Y-144120167D01*
X192050118Y-144209192D01*
X192050104Y-144209198D01*
X191807247Y-144326152D01*
X191579001Y-144469568D01*
X191458899Y-144565345D01*
X192387263Y-145493709D01*
X192253398Y-145590967D01*
X192130967Y-145713398D01*
X192033709Y-145847262D01*
X191105345Y-144918899D01*
X191009568Y-145039001D01*
X190866152Y-145267247D01*
X190749198Y-145510104D01*
X190749192Y-145510118D01*
X190660167Y-145764536D01*
X190660163Y-145764548D01*
X190600181Y-146027348D01*
X190600178Y-146027366D01*
X190570000Y-146295212D01*
X190570000Y-146564787D01*
X190600178Y-146832633D01*
X190600181Y-146832651D01*
X190660163Y-147095451D01*
X190660167Y-147095463D01*
X190749192Y-147349881D01*
X190749198Y-147349895D01*
X190866152Y-147592752D01*
X191009568Y-147820998D01*
X191105346Y-147941099D01*
X192033708Y-147012736D01*
X192130967Y-147146602D01*
X192253398Y-147269033D01*
X192387262Y-147366290D01*
X191458900Y-148294651D01*
X191459119Y-148298547D01*
X191443224Y-148366585D01*
X191393069Y-148415229D01*
X191335314Y-148429500D01*
X110604685Y-148429500D01*
X110537646Y-148409815D01*
X110491891Y-148357011D01*
X110480880Y-148298547D01*
X110481098Y-148294651D01*
X109552737Y-147366290D01*
X109686602Y-147269033D01*
X109809033Y-147146602D01*
X109906290Y-147012737D01*
X110834652Y-147941099D01*
X110834653Y-147941098D01*
X110930431Y-147820999D01*
X111073847Y-147592752D01*
X111190801Y-147349895D01*
X111190807Y-147349881D01*
X111279832Y-147095463D01*
X111279836Y-147095451D01*
X111339818Y-146832651D01*
X111339821Y-146832633D01*
X111369999Y-146564787D01*
X111370000Y-146564783D01*
X111370000Y-146295216D01*
X111369999Y-146295212D01*
X111339821Y-146027366D01*
X111339818Y-146027348D01*
X111279836Y-145764548D01*
X111279832Y-145764536D01*
X111216622Y-145583891D01*
X111190807Y-145510118D01*
X111190801Y-145510104D01*
X111073847Y-145267247D01*
X111020934Y-145183036D01*
X110956193Y-145080000D01*
X113977769Y-145080000D01*
X114871988Y-145080000D01*
X114839075Y-145137007D01*
X114805000Y-145264174D01*
X114805000Y-145395826D01*
X114839075Y-145522993D01*
X114871988Y-145580000D01*
X113977769Y-145580000D01*
X113988242Y-145646126D01*
X113988242Y-145646129D01*
X114053904Y-145848217D01*
X114150379Y-146037557D01*
X114275272Y-146209459D01*
X114275276Y-146209464D01*
X114425535Y-146359723D01*
X114425540Y-146359727D01*
X114597442Y-146484620D01*
X114786782Y-146581095D01*
X114988871Y-146646757D01*
X115055000Y-146657231D01*
X115055000Y-145763012D01*
X115112007Y-145795925D01*
X115239174Y-145830000D01*
X115370826Y-145830000D01*
X115497993Y-145795925D01*
X115555000Y-145763012D01*
X115555000Y-146657230D01*
X115621126Y-146646757D01*
X115621129Y-146646757D01*
X115823217Y-146581095D01*
X116012557Y-146484620D01*
X116184459Y-146359727D01*
X116184464Y-146359723D01*
X116334725Y-146209462D01*
X116371776Y-146158465D01*
X116427105Y-146115798D01*
X116496719Y-146109818D01*
X116558514Y-146142423D01*
X116592872Y-146203262D01*
X116594568Y-146211951D01*
X116609352Y-146305300D01*
X116609353Y-146305303D01*
X116609354Y-146305304D01*
X116666950Y-146418342D01*
X116666952Y-146418344D01*
X116666954Y-146418347D01*
X116756652Y-146508045D01*
X116756654Y-146508046D01*
X116756658Y-146508050D01*
X116868002Y-146564783D01*
X116869698Y-146565647D01*
X116963475Y-146580499D01*
X116963481Y-146580500D01*
X118726518Y-146580499D01*
X118820304Y-146565646D01*
X118933342Y-146508050D01*
X119023050Y-146418342D01*
X119080646Y-146305304D01*
X119080646Y-146305302D01*
X119080647Y-146305301D01*
X119091711Y-146235444D01*
X119095500Y-146211519D01*
X119095499Y-145080000D01*
X120202769Y-145080000D01*
X121096988Y-145080000D01*
X121064075Y-145137007D01*
X121030000Y-145264174D01*
X121030000Y-145395826D01*
X121064075Y-145522993D01*
X121096988Y-145580000D01*
X120202769Y-145580000D01*
X120213242Y-145646126D01*
X120213242Y-145646129D01*
X120278904Y-145848217D01*
X120375379Y-146037557D01*
X120500272Y-146209459D01*
X120500276Y-146209464D01*
X120650535Y-146359723D01*
X120650540Y-146359727D01*
X120822442Y-146484620D01*
X121011782Y-146581095D01*
X121213871Y-146646757D01*
X121280000Y-146657231D01*
X121280000Y-145763012D01*
X121337007Y-145795925D01*
X121464174Y-145830000D01*
X121595826Y-145830000D01*
X121722993Y-145795925D01*
X121780000Y-145763012D01*
X121780000Y-146657230D01*
X121846126Y-146646757D01*
X121846129Y-146646757D01*
X122048217Y-146581095D01*
X122237557Y-146484620D01*
X122409459Y-146359727D01*
X122409464Y-146359723D01*
X122559725Y-146209462D01*
X122596776Y-146158465D01*
X122652105Y-146115798D01*
X122721719Y-146109818D01*
X122783514Y-146142423D01*
X122817872Y-146203262D01*
X122819568Y-146211951D01*
X122834352Y-146305300D01*
X122834353Y-146305303D01*
X122834354Y-146305304D01*
X122891950Y-146418342D01*
X122891952Y-146418344D01*
X122891954Y-146418347D01*
X122981652Y-146508045D01*
X122981654Y-146508046D01*
X122981658Y-146508050D01*
X123093002Y-146564783D01*
X123094698Y-146565647D01*
X123188475Y-146580499D01*
X123188481Y-146580500D01*
X124951518Y-146580499D01*
X125045304Y-146565646D01*
X125158342Y-146508050D01*
X125248050Y-146418342D01*
X125305646Y-146305304D01*
X125305646Y-146305302D01*
X125305647Y-146305301D01*
X125316711Y-146235444D01*
X125320500Y-146211519D01*
X125320499Y-145130000D01*
X135802769Y-145130000D01*
X136696988Y-145130000D01*
X136664075Y-145187007D01*
X136630000Y-145314174D01*
X136630000Y-145445826D01*
X136664075Y-145572993D01*
X136696988Y-145630000D01*
X135802769Y-145630000D01*
X135813242Y-145696126D01*
X135813242Y-145696129D01*
X135878904Y-145898217D01*
X135975379Y-146087557D01*
X136100272Y-146259459D01*
X136100276Y-146259464D01*
X136250535Y-146409723D01*
X136250540Y-146409727D01*
X136422442Y-146534620D01*
X136611782Y-146631095D01*
X136813871Y-146696757D01*
X136880000Y-146707231D01*
X136880000Y-145813012D01*
X136937007Y-145845925D01*
X137064174Y-145880000D01*
X137195826Y-145880000D01*
X137322993Y-145845925D01*
X137380000Y-145813012D01*
X137380000Y-146707230D01*
X137446126Y-146696757D01*
X137446129Y-146696757D01*
X137648217Y-146631095D01*
X137837557Y-146534620D01*
X138009459Y-146409727D01*
X138009464Y-146409723D01*
X138159725Y-146259462D01*
X138196776Y-146208465D01*
X138252105Y-146165798D01*
X138321719Y-146159818D01*
X138383514Y-146192423D01*
X138417872Y-146253262D01*
X138419568Y-146261951D01*
X138434352Y-146355300D01*
X138434353Y-146355303D01*
X138434354Y-146355304D01*
X138491950Y-146468342D01*
X138491952Y-146468344D01*
X138491954Y-146468347D01*
X138581652Y-146558045D01*
X138581654Y-146558046D01*
X138581658Y-146558050D01*
X138677290Y-146606777D01*
X138694698Y-146615647D01*
X138788475Y-146630499D01*
X138788481Y-146630500D01*
X140551518Y-146630499D01*
X140645304Y-146615646D01*
X140758342Y-146558050D01*
X140848050Y-146468342D01*
X140905646Y-146355304D01*
X140905646Y-146355302D01*
X140905647Y-146355301D01*
X140918440Y-146274523D01*
X140920500Y-146261519D01*
X140920499Y-145106577D01*
X144559500Y-145106577D01*
X144559500Y-145303422D01*
X144590290Y-145497826D01*
X144651117Y-145685029D01*
X144721781Y-145823714D01*
X144740476Y-145860405D01*
X144856172Y-146019646D01*
X144995354Y-146158828D01*
X145154595Y-146274524D01*
X145195198Y-146295212D01*
X145329970Y-146363882D01*
X145329972Y-146363882D01*
X145329975Y-146363884D01*
X145388962Y-146383050D01*
X145517173Y-146424709D01*
X145711578Y-146455500D01*
X145711583Y-146455500D01*
X145908422Y-146455500D01*
X146102826Y-146424709D01*
X146122421Y-146418342D01*
X146290025Y-146363884D01*
X146465405Y-146274524D01*
X146624646Y-146158828D01*
X146763828Y-146019646D01*
X146875184Y-145866378D01*
X146930512Y-145823714D01*
X147000125Y-145817735D01*
X147061920Y-145850341D01*
X147096277Y-145911179D01*
X147099500Y-145939264D01*
X147099500Y-146086517D01*
X147104138Y-146115798D01*
X147114354Y-146180304D01*
X147171950Y-146293342D01*
X147171952Y-146293344D01*
X147171954Y-146293347D01*
X147261652Y-146383045D01*
X147261654Y-146383046D01*
X147261658Y-146383050D01*
X147374694Y-146440645D01*
X147374698Y-146440647D01*
X147468475Y-146455499D01*
X147468481Y-146455500D01*
X149231518Y-146455499D01*
X149325304Y-146440646D01*
X149438342Y-146383050D01*
X149528050Y-146293342D01*
X149585646Y-146180304D01*
X149585646Y-146180302D01*
X149585647Y-146180301D01*
X149596810Y-146109818D01*
X149600500Y-146086519D01*
X149600499Y-145106577D01*
X151559500Y-145106577D01*
X151559500Y-145303422D01*
X151590290Y-145497826D01*
X151651117Y-145685029D01*
X151721781Y-145823714D01*
X151740476Y-145860405D01*
X151856172Y-146019646D01*
X151995354Y-146158828D01*
X152154595Y-146274524D01*
X152195198Y-146295212D01*
X152329970Y-146363882D01*
X152329972Y-146363882D01*
X152329975Y-146363884D01*
X152388962Y-146383050D01*
X152517173Y-146424709D01*
X152711578Y-146455500D01*
X152711583Y-146455500D01*
X152908422Y-146455500D01*
X153102826Y-146424709D01*
X153122421Y-146418342D01*
X153290025Y-146363884D01*
X153465405Y-146274524D01*
X153624646Y-146158828D01*
X153763828Y-146019646D01*
X153875184Y-145866378D01*
X153930512Y-145823714D01*
X154000125Y-145817735D01*
X154061920Y-145850341D01*
X154096277Y-145911179D01*
X154099500Y-145939264D01*
X154099500Y-146086517D01*
X154104138Y-146115798D01*
X154114354Y-146180304D01*
X154171950Y-146293342D01*
X154171952Y-146293344D01*
X154171954Y-146293347D01*
X154261652Y-146383045D01*
X154261654Y-146383046D01*
X154261658Y-146383050D01*
X154374694Y-146440645D01*
X154374698Y-146440647D01*
X154468475Y-146455499D01*
X154468481Y-146455500D01*
X156231518Y-146455499D01*
X156325304Y-146440646D01*
X156438342Y-146383050D01*
X156528050Y-146293342D01*
X156585646Y-146180304D01*
X156585646Y-146180302D01*
X156585647Y-146180301D01*
X156596810Y-146109818D01*
X156600500Y-146086519D01*
X156600500Y-145653543D01*
X159169499Y-145653543D01*
X159207947Y-145846829D01*
X159207950Y-145846839D01*
X159283364Y-146028907D01*
X159283371Y-146028920D01*
X159392860Y-146192781D01*
X159392863Y-146192785D01*
X159532214Y-146332136D01*
X159532218Y-146332139D01*
X159696079Y-146441628D01*
X159696092Y-146441635D01*
X159878160Y-146517049D01*
X159878165Y-146517051D01*
X159878169Y-146517051D01*
X159878170Y-146517052D01*
X160071456Y-146555500D01*
X160071459Y-146555500D01*
X160268543Y-146555500D01*
X160398582Y-146529632D01*
X160461835Y-146517051D01*
X160643914Y-146441632D01*
X160807782Y-146332139D01*
X160947139Y-146192782D01*
X161056632Y-146028914D01*
X161060471Y-146019647D01*
X161110768Y-145898217D01*
X161132051Y-145846835D01*
X161148419Y-145764548D01*
X161170500Y-145653543D01*
X166169499Y-145653543D01*
X166207947Y-145846829D01*
X166207950Y-145846839D01*
X166283364Y-146028907D01*
X166283371Y-146028920D01*
X166392860Y-146192781D01*
X166392863Y-146192785D01*
X166532214Y-146332136D01*
X166532218Y-146332139D01*
X166696079Y-146441628D01*
X166696092Y-146441635D01*
X166878160Y-146517049D01*
X166878165Y-146517051D01*
X166878169Y-146517051D01*
X166878170Y-146517052D01*
X167071456Y-146555500D01*
X167071459Y-146555500D01*
X167268543Y-146555500D01*
X167398582Y-146529632D01*
X167461835Y-146517051D01*
X167643914Y-146441632D01*
X167807782Y-146332139D01*
X167947139Y-146192782D01*
X168056632Y-146028914D01*
X168060471Y-146019647D01*
X168110768Y-145898217D01*
X168132051Y-145846835D01*
X168148419Y-145764548D01*
X168170500Y-145653543D01*
X168170500Y-145106577D01*
X169519500Y-145106577D01*
X169519500Y-145303422D01*
X169550290Y-145497826D01*
X169611117Y-145685029D01*
X169681781Y-145823714D01*
X169700476Y-145860405D01*
X169816172Y-146019646D01*
X169955354Y-146158828D01*
X170114595Y-146274524D01*
X170155198Y-146295212D01*
X170289970Y-146363882D01*
X170289972Y-146363882D01*
X170289975Y-146363884D01*
X170348962Y-146383050D01*
X170477173Y-146424709D01*
X170671578Y-146455500D01*
X170671583Y-146455500D01*
X170868422Y-146455500D01*
X171062826Y-146424709D01*
X171082421Y-146418342D01*
X171250025Y-146363884D01*
X171425405Y-146274524D01*
X171584646Y-146158828D01*
X171723828Y-146019646D01*
X171835184Y-145866378D01*
X171890512Y-145823714D01*
X171960125Y-145817735D01*
X172021920Y-145850341D01*
X172056277Y-145911179D01*
X172059500Y-145939264D01*
X172059500Y-146086517D01*
X172064138Y-146115798D01*
X172074354Y-146180304D01*
X172131950Y-146293342D01*
X172131952Y-146293344D01*
X172131954Y-146293347D01*
X172221652Y-146383045D01*
X172221654Y-146383046D01*
X172221658Y-146383050D01*
X172334694Y-146440645D01*
X172334698Y-146440647D01*
X172428475Y-146455499D01*
X172428481Y-146455500D01*
X174191518Y-146455499D01*
X174285304Y-146440646D01*
X174398342Y-146383050D01*
X174488050Y-146293342D01*
X174545646Y-146180304D01*
X174545646Y-146180302D01*
X174545647Y-146180301D01*
X174556810Y-146109818D01*
X174560500Y-146086519D01*
X174560499Y-145106577D01*
X176519500Y-145106577D01*
X176519500Y-145303422D01*
X176550290Y-145497826D01*
X176611117Y-145685029D01*
X176681781Y-145823714D01*
X176700476Y-145860405D01*
X176816172Y-146019646D01*
X176955354Y-146158828D01*
X177114595Y-146274524D01*
X177155198Y-146295212D01*
X177289970Y-146363882D01*
X177289972Y-146363882D01*
X177289975Y-146363884D01*
X177348962Y-146383050D01*
X177477173Y-146424709D01*
X177671578Y-146455500D01*
X177671583Y-146455500D01*
X177868422Y-146455500D01*
X178062826Y-146424709D01*
X178082421Y-146418342D01*
X178250025Y-146363884D01*
X178425405Y-146274524D01*
X178584646Y-146158828D01*
X178723828Y-146019646D01*
X178839524Y-145860405D01*
X178905918Y-145730099D01*
X178929515Y-145683787D01*
X178977489Y-145632990D01*
X179045310Y-145616195D01*
X179111445Y-145638732D01*
X179150485Y-145683787D01*
X179240474Y-145860403D01*
X179267948Y-145898217D01*
X179356172Y-146019646D01*
X179495354Y-146158828D01*
X179654595Y-146274524D01*
X179695198Y-146295212D01*
X179829970Y-146363882D01*
X179829972Y-146363882D01*
X179829975Y-146363884D01*
X179888962Y-146383050D01*
X180017173Y-146424709D01*
X180211578Y-146455500D01*
X180211583Y-146455500D01*
X180408422Y-146455500D01*
X180602826Y-146424709D01*
X180622421Y-146418342D01*
X180790025Y-146363884D01*
X180965405Y-146274524D01*
X181124646Y-146158828D01*
X181263828Y-146019646D01*
X181379524Y-145860405D01*
X181445918Y-145730099D01*
X181469515Y-145683787D01*
X181517489Y-145632990D01*
X181585310Y-145616195D01*
X181651445Y-145638732D01*
X181690485Y-145683787D01*
X181780474Y-145860403D01*
X181807948Y-145898217D01*
X181896172Y-146019646D01*
X182035354Y-146158828D01*
X182194595Y-146274524D01*
X182235198Y-146295212D01*
X182369970Y-146363882D01*
X182369972Y-146363882D01*
X182369975Y-146363884D01*
X182428962Y-146383050D01*
X182557173Y-146424709D01*
X182751578Y-146455500D01*
X182751583Y-146455500D01*
X182948422Y-146455500D01*
X183142826Y-146424709D01*
X183162421Y-146418342D01*
X183330025Y-146363884D01*
X183505405Y-146274524D01*
X183664646Y-146158828D01*
X183803828Y-146019646D01*
X183915184Y-145866378D01*
X183970512Y-145823714D01*
X184040125Y-145817735D01*
X184101920Y-145850341D01*
X184136277Y-145911179D01*
X184139500Y-145939264D01*
X184139500Y-146086517D01*
X184144138Y-146115798D01*
X184154354Y-146180304D01*
X184211950Y-146293342D01*
X184211952Y-146293344D01*
X184211954Y-146293347D01*
X184301652Y-146383045D01*
X184301654Y-146383046D01*
X184301658Y-146383050D01*
X184414694Y-146440645D01*
X184414698Y-146440647D01*
X184508475Y-146455499D01*
X184508481Y-146455500D01*
X186271518Y-146455499D01*
X186365304Y-146440646D01*
X186478342Y-146383050D01*
X186568050Y-146293342D01*
X186625646Y-146180304D01*
X186625646Y-146180302D01*
X186625647Y-146180301D01*
X186636810Y-146109818D01*
X186640500Y-146086519D01*
X186640499Y-144323482D01*
X186625646Y-144229696D01*
X186568050Y-144116658D01*
X186568046Y-144116654D01*
X186568045Y-144116652D01*
X186478347Y-144026954D01*
X186478344Y-144026952D01*
X186478342Y-144026950D01*
X186396580Y-143985290D01*
X186365301Y-143969352D01*
X186271524Y-143954500D01*
X184508482Y-143954500D01*
X184427519Y-143967323D01*
X184414696Y-143969354D01*
X184301658Y-144026950D01*
X184301657Y-144026951D01*
X184301652Y-144026954D01*
X184211954Y-144116652D01*
X184211951Y-144116657D01*
X184211950Y-144116658D01*
X184205711Y-144128903D01*
X184154352Y-144229698D01*
X184139500Y-144323475D01*
X184139500Y-144470733D01*
X184119815Y-144537772D01*
X184067011Y-144583527D01*
X183997853Y-144593471D01*
X183934297Y-144564446D01*
X183915182Y-144543619D01*
X183883883Y-144500540D01*
X183803828Y-144390354D01*
X183664646Y-144251172D01*
X183505405Y-144135476D01*
X183493678Y-144129501D01*
X183330029Y-144046117D01*
X183142826Y-143985290D01*
X182948422Y-143954500D01*
X182948417Y-143954500D01*
X182751583Y-143954500D01*
X182751578Y-143954500D01*
X182557173Y-143985290D01*
X182369970Y-144046117D01*
X182194594Y-144135476D01*
X182103741Y-144201485D01*
X182035354Y-144251172D01*
X182035352Y-144251174D01*
X182035351Y-144251174D01*
X181896174Y-144390351D01*
X181896174Y-144390352D01*
X181896172Y-144390354D01*
X181854255Y-144448048D01*
X181780476Y-144549594D01*
X181690485Y-144726213D01*
X181642511Y-144777009D01*
X181574690Y-144793804D01*
X181508555Y-144771267D01*
X181469515Y-144726213D01*
X181403736Y-144597115D01*
X181379524Y-144549595D01*
X181263828Y-144390354D01*
X181124646Y-144251172D01*
X180965405Y-144135476D01*
X180953678Y-144129501D01*
X180790029Y-144046117D01*
X180602826Y-143985290D01*
X180408422Y-143954500D01*
X180408417Y-143954500D01*
X180211583Y-143954500D01*
X180211578Y-143954500D01*
X180017173Y-143985290D01*
X179829970Y-144046117D01*
X179654594Y-144135476D01*
X179563741Y-144201485D01*
X179495354Y-144251172D01*
X179495352Y-144251174D01*
X179495351Y-144251174D01*
X179356174Y-144390351D01*
X179356174Y-144390352D01*
X179356172Y-144390354D01*
X179314255Y-144448048D01*
X179240476Y-144549594D01*
X179150485Y-144726213D01*
X179102511Y-144777009D01*
X179034690Y-144793804D01*
X178968555Y-144771267D01*
X178929515Y-144726213D01*
X178863736Y-144597115D01*
X178839524Y-144549595D01*
X178723828Y-144390354D01*
X178584646Y-144251172D01*
X178425405Y-144135476D01*
X178413678Y-144129501D01*
X178250029Y-144046117D01*
X178062826Y-143985290D01*
X177868422Y-143954500D01*
X177868417Y-143954500D01*
X177671583Y-143954500D01*
X177671578Y-143954500D01*
X177477173Y-143985290D01*
X177289970Y-144046117D01*
X177114594Y-144135476D01*
X177023741Y-144201485D01*
X176955354Y-144251172D01*
X176955352Y-144251174D01*
X176955351Y-144251174D01*
X176816174Y-144390351D01*
X176816174Y-144390352D01*
X176816172Y-144390354D01*
X176774255Y-144448048D01*
X176700476Y-144549594D01*
X176611117Y-144724970D01*
X176550290Y-144912173D01*
X176519500Y-145106577D01*
X174560499Y-145106577D01*
X174560499Y-144323482D01*
X174545646Y-144229696D01*
X174488050Y-144116658D01*
X174488046Y-144116654D01*
X174488045Y-144116652D01*
X174398347Y-144026954D01*
X174398344Y-144026952D01*
X174398342Y-144026950D01*
X174316580Y-143985290D01*
X174285301Y-143969352D01*
X174191524Y-143954500D01*
X172428482Y-143954500D01*
X172347519Y-143967323D01*
X172334696Y-143969354D01*
X172221658Y-144026950D01*
X172221657Y-144026951D01*
X172221652Y-144026954D01*
X172131954Y-144116652D01*
X172131951Y-144116657D01*
X172131950Y-144116658D01*
X172125711Y-144128903D01*
X172074352Y-144229698D01*
X172059500Y-144323475D01*
X172059500Y-144470733D01*
X172039815Y-144537772D01*
X171987011Y-144583527D01*
X171917853Y-144593471D01*
X171854297Y-144564446D01*
X171835182Y-144543619D01*
X171803883Y-144500540D01*
X171723828Y-144390354D01*
X171584646Y-144251172D01*
X171425405Y-144135476D01*
X171413678Y-144129501D01*
X171250029Y-144046117D01*
X171062826Y-143985290D01*
X170868422Y-143954500D01*
X170868417Y-143954500D01*
X170671583Y-143954500D01*
X170671578Y-143954500D01*
X170477173Y-143985290D01*
X170289970Y-144046117D01*
X170114594Y-144135476D01*
X170023741Y-144201485D01*
X169955354Y-144251172D01*
X169955352Y-144251174D01*
X169955351Y-144251174D01*
X169816174Y-144390351D01*
X169816174Y-144390352D01*
X169816172Y-144390354D01*
X169774255Y-144448048D01*
X169700476Y-144549594D01*
X169611117Y-144724970D01*
X169550290Y-144912173D01*
X169519500Y-145106577D01*
X168170500Y-145106577D01*
X168170500Y-144756456D01*
X168132052Y-144563170D01*
X168132051Y-144563169D01*
X168132051Y-144563165D01*
X168105079Y-144498048D01*
X168056635Y-144381092D01*
X168056628Y-144381079D01*
X167947139Y-144217218D01*
X167947136Y-144217214D01*
X167807785Y-144077863D01*
X167807781Y-144077860D01*
X167643920Y-143968371D01*
X167643907Y-143968364D01*
X167461839Y-143892950D01*
X167461829Y-143892947D01*
X167268543Y-143854500D01*
X167268541Y-143854500D01*
X167071459Y-143854500D01*
X167071457Y-143854500D01*
X166878170Y-143892947D01*
X166878160Y-143892950D01*
X166696092Y-143968364D01*
X166696079Y-143968371D01*
X166532218Y-144077860D01*
X166532214Y-144077863D01*
X166392863Y-144217214D01*
X166392860Y-144217218D01*
X166283371Y-144381079D01*
X166283364Y-144381092D01*
X166207950Y-144563160D01*
X166207947Y-144563170D01*
X166169500Y-144756456D01*
X166169500Y-144756459D01*
X166169500Y-145653541D01*
X166169500Y-145653543D01*
X166169499Y-145653543D01*
X161170500Y-145653543D01*
X161170500Y-144756456D01*
X161132052Y-144563170D01*
X161132051Y-144563169D01*
X161132051Y-144563165D01*
X161105079Y-144498048D01*
X161056635Y-144381092D01*
X161056628Y-144381079D01*
X160947139Y-144217218D01*
X160947136Y-144217214D01*
X160807785Y-144077863D01*
X160807781Y-144077860D01*
X160643920Y-143968371D01*
X160643907Y-143968364D01*
X160461839Y-143892950D01*
X160461829Y-143892947D01*
X160268543Y-143854500D01*
X160268541Y-143854500D01*
X160071459Y-143854500D01*
X160071457Y-143854500D01*
X159878170Y-143892947D01*
X159878160Y-143892950D01*
X159696092Y-143968364D01*
X159696079Y-143968371D01*
X159532218Y-144077860D01*
X159532214Y-144077863D01*
X159392863Y-144217214D01*
X159392860Y-144217218D01*
X159283371Y-144381079D01*
X159283364Y-144381092D01*
X159207950Y-144563160D01*
X159207947Y-144563170D01*
X159169500Y-144756456D01*
X159169500Y-144756459D01*
X159169500Y-145653541D01*
X159169500Y-145653543D01*
X159169499Y-145653543D01*
X156600500Y-145653543D01*
X156600499Y-144323482D01*
X156585646Y-144229696D01*
X156528050Y-144116658D01*
X156528046Y-144116654D01*
X156528045Y-144116652D01*
X156438347Y-144026954D01*
X156438344Y-144026952D01*
X156438342Y-144026950D01*
X156356580Y-143985290D01*
X156325301Y-143969352D01*
X156231524Y-143954500D01*
X156231519Y-143954500D01*
X155999500Y-143954500D01*
X155932461Y-143934815D01*
X155886706Y-143882011D01*
X155875500Y-143830500D01*
X155875500Y-143379031D01*
X155895185Y-143311992D01*
X155911819Y-143291350D01*
X156786748Y-142416421D01*
X160044500Y-142416421D01*
X160044500Y-142593578D01*
X160072214Y-142768556D01*
X160126956Y-142937039D01*
X160126957Y-142937042D01*
X160207386Y-143094890D01*
X160311517Y-143238214D01*
X160436786Y-143363483D01*
X160580110Y-143467614D01*
X160657529Y-143507061D01*
X160737957Y-143548042D01*
X160737960Y-143548043D01*
X160822201Y-143575414D01*
X160906445Y-143602786D01*
X161081421Y-143630500D01*
X161081422Y-143630500D01*
X161258578Y-143630500D01*
X161258579Y-143630500D01*
X161433555Y-143602786D01*
X161602042Y-143548042D01*
X161759890Y-143467614D01*
X161903214Y-143363483D01*
X162028483Y-143238214D01*
X162132614Y-143094890D01*
X162213042Y-142937042D01*
X162267786Y-142768555D01*
X162295500Y-142593579D01*
X162295500Y-142416421D01*
X165044500Y-142416421D01*
X165044500Y-142593578D01*
X165072214Y-142768556D01*
X165126956Y-142937039D01*
X165126957Y-142937042D01*
X165207386Y-143094890D01*
X165311517Y-143238214D01*
X165436786Y-143363483D01*
X165580110Y-143467614D01*
X165657529Y-143507061D01*
X165737957Y-143548042D01*
X165737960Y-143548043D01*
X165822201Y-143575414D01*
X165906445Y-143602786D01*
X166081421Y-143630500D01*
X166081422Y-143630500D01*
X166258578Y-143630500D01*
X166258579Y-143630500D01*
X166433555Y-143602786D01*
X166602042Y-143548042D01*
X166759890Y-143467614D01*
X166903214Y-143363483D01*
X167028483Y-143238214D01*
X167132614Y-143094890D01*
X167213042Y-142937042D01*
X167267786Y-142768555D01*
X167295500Y-142593579D01*
X167295500Y-142416421D01*
X167267786Y-142241445D01*
X167213042Y-142072958D01*
X167213042Y-142072957D01*
X167132613Y-141915109D01*
X167028483Y-141771786D01*
X166903214Y-141646517D01*
X166759890Y-141542386D01*
X166602042Y-141461957D01*
X166602039Y-141461956D01*
X166433556Y-141407214D01*
X166346067Y-141393357D01*
X166258579Y-141379500D01*
X166081421Y-141379500D01*
X166023095Y-141388738D01*
X165906443Y-141407214D01*
X165737960Y-141461956D01*
X165737957Y-141461957D01*
X165580109Y-141542386D01*
X165498338Y-141601796D01*
X165436786Y-141646517D01*
X165436784Y-141646519D01*
X165436783Y-141646519D01*
X165311519Y-141771783D01*
X165311519Y-141771784D01*
X165311517Y-141771786D01*
X165266796Y-141833338D01*
X165207386Y-141915109D01*
X165126957Y-142072957D01*
X165126956Y-142072960D01*
X165072214Y-142241443D01*
X165044500Y-142416421D01*
X162295500Y-142416421D01*
X162267786Y-142241445D01*
X162213042Y-142072958D01*
X162213042Y-142072957D01*
X162132613Y-141915109D01*
X162028483Y-141771786D01*
X161903214Y-141646517D01*
X161759890Y-141542386D01*
X161602042Y-141461957D01*
X161602039Y-141461956D01*
X161433556Y-141407214D01*
X161346067Y-141393357D01*
X161258579Y-141379500D01*
X161081421Y-141379500D01*
X161023095Y-141388738D01*
X160906443Y-141407214D01*
X160737960Y-141461956D01*
X160737957Y-141461957D01*
X160580109Y-141542386D01*
X160498338Y-141601796D01*
X160436786Y-141646517D01*
X160436784Y-141646519D01*
X160436783Y-141646519D01*
X160311519Y-141771783D01*
X160311519Y-141771784D01*
X160311517Y-141771786D01*
X160266796Y-141833338D01*
X160207386Y-141915109D01*
X160126957Y-142072957D01*
X160126956Y-142072960D01*
X160072214Y-142241443D01*
X160044500Y-142416421D01*
X156786748Y-142416421D01*
X159506350Y-139696819D01*
X159567673Y-139663334D01*
X159594031Y-139660500D01*
X159623920Y-139660500D01*
X159721462Y-139641096D01*
X159768913Y-139631658D01*
X159905495Y-139575084D01*
X160028416Y-139492951D01*
X160132951Y-139388416D01*
X160215084Y-139265495D01*
X160271658Y-139128913D01*
X160300500Y-138983918D01*
X160300500Y-138836082D01*
X160300500Y-138836079D01*
X160271659Y-138691092D01*
X160271658Y-138691091D01*
X160271658Y-138691087D01*
X160271656Y-138691082D01*
X160215087Y-138554511D01*
X160215080Y-138554498D01*
X160132951Y-138431584D01*
X160132948Y-138431580D01*
X160028419Y-138327051D01*
X160028415Y-138327048D01*
X159905501Y-138244919D01*
X159905488Y-138244912D01*
X159768917Y-138188343D01*
X159768907Y-138188340D01*
X159623920Y-138159500D01*
X159623918Y-138159500D01*
X159476082Y-138159500D01*
X159476080Y-138159500D01*
X159331092Y-138188340D01*
X159331082Y-138188343D01*
X159194511Y-138244912D01*
X159194498Y-138244919D01*
X159071584Y-138327048D01*
X159071580Y-138327051D01*
X158967051Y-138431580D01*
X158967048Y-138431584D01*
X158884919Y-138554498D01*
X158884912Y-138554511D01*
X158828343Y-138691082D01*
X158828340Y-138691092D01*
X158799500Y-138836079D01*
X158799500Y-138865968D01*
X158779815Y-138933007D01*
X158763181Y-138953649D01*
X154929496Y-142787333D01*
X154929492Y-142787338D01*
X154860311Y-142907163D01*
X154860312Y-142907163D01*
X154860312Y-142907165D01*
X154824499Y-143040818D01*
X154824499Y-143189172D01*
X154824500Y-143189185D01*
X154824500Y-143830500D01*
X154804815Y-143897539D01*
X154752011Y-143943294D01*
X154700501Y-143954500D01*
X154468482Y-143954500D01*
X154387519Y-143967323D01*
X154374696Y-143969354D01*
X154261658Y-144026950D01*
X154261657Y-144026951D01*
X154261652Y-144026954D01*
X154171954Y-144116652D01*
X154171951Y-144116657D01*
X154171950Y-144116658D01*
X154165711Y-144128903D01*
X154114352Y-144229698D01*
X154099500Y-144323475D01*
X154099500Y-144470733D01*
X154079815Y-144537772D01*
X154027011Y-144583527D01*
X153957853Y-144593471D01*
X153894297Y-144564446D01*
X153875182Y-144543619D01*
X153843883Y-144500540D01*
X153763828Y-144390354D01*
X153624646Y-144251172D01*
X153465405Y-144135476D01*
X153453678Y-144129501D01*
X153290029Y-144046117D01*
X153102826Y-143985290D01*
X152908422Y-143954500D01*
X152908417Y-143954500D01*
X152711583Y-143954500D01*
X152711578Y-143954500D01*
X152517173Y-143985290D01*
X152329970Y-144046117D01*
X152154594Y-144135476D01*
X152063741Y-144201485D01*
X151995354Y-144251172D01*
X151995352Y-144251174D01*
X151995351Y-144251174D01*
X151856174Y-144390351D01*
X151856174Y-144390352D01*
X151856172Y-144390354D01*
X151814255Y-144448048D01*
X151740476Y-144549594D01*
X151651117Y-144724970D01*
X151590290Y-144912173D01*
X151559500Y-145106577D01*
X149600499Y-145106577D01*
X149600499Y-144323482D01*
X149585646Y-144229696D01*
X149528050Y-144116658D01*
X149528046Y-144116654D01*
X149528045Y-144116652D01*
X149438347Y-144026954D01*
X149438344Y-144026952D01*
X149438342Y-144026950D01*
X149356580Y-143985290D01*
X149325301Y-143969352D01*
X149231524Y-143954500D01*
X147468482Y-143954500D01*
X147387519Y-143967323D01*
X147374696Y-143969354D01*
X147261658Y-144026950D01*
X147261657Y-144026951D01*
X147261652Y-144026954D01*
X147171954Y-144116652D01*
X147171951Y-144116657D01*
X147171950Y-144116658D01*
X147165711Y-144128903D01*
X147114352Y-144229698D01*
X147099500Y-144323475D01*
X147099500Y-144470733D01*
X147079815Y-144537772D01*
X147027011Y-144583527D01*
X146957853Y-144593471D01*
X146894297Y-144564446D01*
X146875182Y-144543619D01*
X146843883Y-144500540D01*
X146763828Y-144390354D01*
X146624646Y-144251172D01*
X146465405Y-144135476D01*
X146453678Y-144129501D01*
X146290029Y-144046117D01*
X146102826Y-143985290D01*
X145908422Y-143954500D01*
X145908417Y-143954500D01*
X145711583Y-143954500D01*
X145711578Y-143954500D01*
X145517173Y-143985290D01*
X145329970Y-144046117D01*
X145154594Y-144135476D01*
X145063741Y-144201485D01*
X144995354Y-144251172D01*
X144995352Y-144251174D01*
X144995351Y-144251174D01*
X144856174Y-144390351D01*
X144856174Y-144390352D01*
X144856172Y-144390354D01*
X144814255Y-144448048D01*
X144740476Y-144549594D01*
X144651117Y-144724970D01*
X144590290Y-144912173D01*
X144559500Y-145106577D01*
X140920499Y-145106577D01*
X140920499Y-144498482D01*
X140905646Y-144404696D01*
X140848050Y-144291658D01*
X140848046Y-144291654D01*
X140848045Y-144291652D01*
X140758347Y-144201954D01*
X140758344Y-144201952D01*
X140758342Y-144201950D01*
X140660212Y-144151950D01*
X140645301Y-144144352D01*
X140551524Y-144129500D01*
X138788482Y-144129500D01*
X138707519Y-144142323D01*
X138694696Y-144144354D01*
X138581658Y-144201950D01*
X138581657Y-144201951D01*
X138581652Y-144201954D01*
X138491954Y-144291652D01*
X138491951Y-144291657D01*
X138434352Y-144404698D01*
X138419567Y-144498048D01*
X138389637Y-144561182D01*
X138330325Y-144598113D01*
X138260463Y-144597115D01*
X138202230Y-144558504D01*
X138196775Y-144551534D01*
X138159721Y-144500533D01*
X138009464Y-144350276D01*
X138009459Y-144350272D01*
X137837557Y-144225379D01*
X137648215Y-144128903D01*
X137446124Y-144063241D01*
X137380000Y-144052768D01*
X137380000Y-144946988D01*
X137322993Y-144914075D01*
X137195826Y-144880000D01*
X137064174Y-144880000D01*
X136937007Y-144914075D01*
X136880000Y-144946988D01*
X136880000Y-144052768D01*
X136879999Y-144052768D01*
X136813875Y-144063241D01*
X136611784Y-144128903D01*
X136422442Y-144225379D01*
X136250540Y-144350272D01*
X136250535Y-144350276D01*
X136100276Y-144500535D01*
X136100272Y-144500540D01*
X135975379Y-144672442D01*
X135878904Y-144861782D01*
X135813242Y-145063870D01*
X135813242Y-145063873D01*
X135802769Y-145130000D01*
X125320499Y-145130000D01*
X125320499Y-144448482D01*
X125305646Y-144354696D01*
X125248050Y-144241658D01*
X125248046Y-144241654D01*
X125248045Y-144241652D01*
X125158347Y-144151954D01*
X125158344Y-144151952D01*
X125158342Y-144151950D01*
X125081517Y-144112805D01*
X125045301Y-144094352D01*
X124951524Y-144079500D01*
X123188482Y-144079500D01*
X123107519Y-144092323D01*
X123094696Y-144094354D01*
X122981658Y-144151950D01*
X122981657Y-144151951D01*
X122981652Y-144151954D01*
X122891954Y-144241652D01*
X122891951Y-144241657D01*
X122891950Y-144241658D01*
X122872751Y-144279337D01*
X122834352Y-144354698D01*
X122819567Y-144448048D01*
X122789637Y-144511182D01*
X122730325Y-144548113D01*
X122660463Y-144547115D01*
X122602230Y-144508504D01*
X122596775Y-144501534D01*
X122559721Y-144450533D01*
X122409464Y-144300276D01*
X122409459Y-144300272D01*
X122237557Y-144175379D01*
X122048215Y-144078903D01*
X121846124Y-144013241D01*
X121780000Y-144002768D01*
X121780000Y-144896988D01*
X121722993Y-144864075D01*
X121595826Y-144830000D01*
X121464174Y-144830000D01*
X121337007Y-144864075D01*
X121280000Y-144896988D01*
X121280000Y-144002768D01*
X121279999Y-144002768D01*
X121213875Y-144013241D01*
X121011784Y-144078903D01*
X120822442Y-144175379D01*
X120650540Y-144300272D01*
X120650535Y-144300276D01*
X120500276Y-144450535D01*
X120500272Y-144450540D01*
X120375379Y-144622442D01*
X120278904Y-144811782D01*
X120213242Y-145013870D01*
X120213242Y-145013873D01*
X120202769Y-145080000D01*
X119095499Y-145080000D01*
X119095499Y-144448482D01*
X119080646Y-144354696D01*
X119023050Y-144241658D01*
X119023046Y-144241654D01*
X119023045Y-144241652D01*
X118933347Y-144151954D01*
X118933344Y-144151952D01*
X118933342Y-144151950D01*
X118856517Y-144112805D01*
X118820301Y-144094352D01*
X118726524Y-144079500D01*
X116963482Y-144079500D01*
X116882519Y-144092323D01*
X116869696Y-144094354D01*
X116756658Y-144151950D01*
X116756657Y-144151951D01*
X116756652Y-144151954D01*
X116666954Y-144241652D01*
X116666951Y-144241657D01*
X116666950Y-144241658D01*
X116647751Y-144279337D01*
X116609352Y-144354698D01*
X116594567Y-144448048D01*
X116564637Y-144511182D01*
X116505325Y-144548113D01*
X116435463Y-144547115D01*
X116377230Y-144508504D01*
X116371775Y-144501534D01*
X116334721Y-144450533D01*
X116184464Y-144300276D01*
X116184459Y-144300272D01*
X116012557Y-144175379D01*
X115823215Y-144078903D01*
X115621124Y-144013241D01*
X115555000Y-144002768D01*
X115555000Y-144896988D01*
X115497993Y-144864075D01*
X115370826Y-144830000D01*
X115239174Y-144830000D01*
X115112007Y-144864075D01*
X115055000Y-144896988D01*
X115055000Y-144002768D01*
X115054999Y-144002768D01*
X114988875Y-144013241D01*
X114786784Y-144078903D01*
X114597442Y-144175379D01*
X114425540Y-144300272D01*
X114425535Y-144300276D01*
X114275276Y-144450535D01*
X114275272Y-144450540D01*
X114150379Y-144622442D01*
X114053904Y-144811782D01*
X113988242Y-145013870D01*
X113988242Y-145013873D01*
X113977769Y-145080000D01*
X110956193Y-145080000D01*
X110930429Y-145038997D01*
X110930427Y-145038993D01*
X110834653Y-144918900D01*
X110834652Y-144918899D01*
X109906290Y-145847262D01*
X109809033Y-145713398D01*
X109686602Y-145590967D01*
X109552736Y-145493708D01*
X110481099Y-144565346D01*
X110360998Y-144469568D01*
X110132752Y-144326152D01*
X109889895Y-144209198D01*
X109889881Y-144209192D01*
X109635463Y-144120167D01*
X109635451Y-144120163D01*
X109372651Y-144060181D01*
X109372633Y-144060178D01*
X109104787Y-144030000D01*
X108835212Y-144030000D01*
X108567366Y-144060178D01*
X108567348Y-144060181D01*
X108304548Y-144120163D01*
X108304536Y-144120167D01*
X108050118Y-144209192D01*
X108050104Y-144209198D01*
X107807243Y-144326154D01*
X107807242Y-144326155D01*
X107591282Y-144461850D01*
X107524045Y-144480850D01*
X107457210Y-144460482D01*
X107411997Y-144407214D01*
X107401346Y-144359746D01*
X107301969Y-140088995D01*
X154109499Y-140088995D01*
X154136418Y-140224322D01*
X154136421Y-140224332D01*
X154189221Y-140351804D01*
X154189228Y-140351817D01*
X154265885Y-140466541D01*
X154265888Y-140466545D01*
X154363454Y-140564111D01*
X154363458Y-140564114D01*
X154478182Y-140640771D01*
X154478195Y-140640778D01*
X154605667Y-140693578D01*
X154605672Y-140693580D01*
X154605676Y-140693580D01*
X154605677Y-140693581D01*
X154741004Y-140720500D01*
X154741007Y-140720500D01*
X154878995Y-140720500D01*
X154979539Y-140700500D01*
X155014328Y-140693580D01*
X155141811Y-140640775D01*
X155256542Y-140564114D01*
X155354114Y-140466542D01*
X155430775Y-140351811D01*
X155483580Y-140224328D01*
X155509698Y-140093023D01*
X155542082Y-140031113D01*
X155543576Y-140029592D01*
X159211350Y-136361819D01*
X159272673Y-136328334D01*
X159299031Y-136325500D01*
X160812770Y-136325500D01*
X160879809Y-136345185D01*
X160900451Y-136361819D01*
X160921580Y-136382948D01*
X160921584Y-136382951D01*
X161044498Y-136465080D01*
X161044511Y-136465087D01*
X161181082Y-136521656D01*
X161181087Y-136521658D01*
X161181091Y-136521658D01*
X161181092Y-136521659D01*
X161326079Y-136550500D01*
X161326082Y-136550500D01*
X161473920Y-136550500D01*
X161571462Y-136531096D01*
X161618913Y-136521658D01*
X161755495Y-136465084D01*
X161878416Y-136382951D01*
X161982951Y-136278416D01*
X162065084Y-136155495D01*
X162121658Y-136018913D01*
X162131096Y-135971462D01*
X162150500Y-135873920D01*
X162150500Y-135726079D01*
X162121659Y-135581092D01*
X162121658Y-135581091D01*
X162121658Y-135581087D01*
X162121656Y-135581082D01*
X162065087Y-135444511D01*
X162065080Y-135444498D01*
X161982951Y-135321584D01*
X161982948Y-135321580D01*
X161910365Y-135248997D01*
X165529499Y-135248997D01*
X165556418Y-135384324D01*
X165556421Y-135384334D01*
X165609221Y-135511806D01*
X165609228Y-135511819D01*
X165685885Y-135626543D01*
X165685888Y-135626547D01*
X165783454Y-135724113D01*
X165783458Y-135724116D01*
X165898182Y-135800773D01*
X165898195Y-135800780D01*
X166025667Y-135853580D01*
X166025672Y-135853582D01*
X166025676Y-135853582D01*
X166025677Y-135853583D01*
X166161004Y-135880502D01*
X166255971Y-135880502D01*
X166323010Y-135900187D01*
X166343652Y-135916821D01*
X168258181Y-137831350D01*
X168291666Y-137892673D01*
X168294500Y-137919031D01*
X168294500Y-139487984D01*
X168274815Y-139555023D01*
X168273602Y-139556875D01*
X168199228Y-139668182D01*
X168199221Y-139668195D01*
X168146421Y-139795667D01*
X168146418Y-139795677D01*
X168119500Y-139931004D01*
X168119500Y-139931007D01*
X168119500Y-140068993D01*
X168119500Y-140068995D01*
X168119499Y-140068995D01*
X168146418Y-140204322D01*
X168146421Y-140204332D01*
X168199221Y-140331804D01*
X168199228Y-140331817D01*
X168275885Y-140446541D01*
X168275888Y-140446545D01*
X168373454Y-140544111D01*
X168373458Y-140544114D01*
X168488182Y-140620771D01*
X168488195Y-140620778D01*
X168615667Y-140673578D01*
X168615672Y-140673580D01*
X168615676Y-140673580D01*
X168615677Y-140673581D01*
X168751004Y-140700500D01*
X168751007Y-140700500D01*
X168888995Y-140700500D01*
X168980041Y-140682389D01*
X169024328Y-140673580D01*
X169151811Y-140620775D01*
X169266542Y-140544114D01*
X169364114Y-140446542D01*
X169440775Y-140331811D01*
X169493580Y-140204328D01*
X169515720Y-140093024D01*
X169520500Y-140068995D01*
X169520500Y-139931004D01*
X169493581Y-139795677D01*
X169493580Y-139795676D01*
X169493580Y-139795672D01*
X169449062Y-139688195D01*
X169440778Y-139668195D01*
X169440771Y-139668182D01*
X169366398Y-139556875D01*
X169345520Y-139490197D01*
X169345500Y-139487984D01*
X169345500Y-137580819D01*
X169345500Y-137580817D01*
X169309688Y-137447164D01*
X169240505Y-137327335D01*
X169142665Y-137229495D01*
X169142664Y-137229494D01*
X169138334Y-137225164D01*
X169138323Y-137225154D01*
X166931441Y-135018272D01*
X166904561Y-134978043D01*
X166850778Y-134848197D01*
X166850771Y-134848184D01*
X166774114Y-134733460D01*
X166774111Y-134733456D01*
X166676545Y-134635890D01*
X166676541Y-134635887D01*
X166561817Y-134559230D01*
X166561804Y-134559223D01*
X166434332Y-134506423D01*
X166434322Y-134506420D01*
X166298995Y-134479502D01*
X166298993Y-134479502D01*
X166161007Y-134479502D01*
X166161005Y-134479502D01*
X166025677Y-134506420D01*
X166025667Y-134506423D01*
X165898195Y-134559223D01*
X165898182Y-134559230D01*
X165783458Y-134635887D01*
X165783454Y-134635890D01*
X165685888Y-134733456D01*
X165685885Y-134733460D01*
X165609228Y-134848184D01*
X165609221Y-134848197D01*
X165556421Y-134975669D01*
X165556418Y-134975679D01*
X165529500Y-135111006D01*
X165529500Y-135111009D01*
X165529500Y-135248995D01*
X165529500Y-135248997D01*
X165529499Y-135248997D01*
X161910365Y-135248997D01*
X161878419Y-135217051D01*
X161878411Y-135217045D01*
X161864952Y-135208052D01*
X161864902Y-135208019D01*
X161755501Y-135134919D01*
X161755488Y-135134912D01*
X161618917Y-135078343D01*
X161618907Y-135078340D01*
X161473920Y-135049500D01*
X161473918Y-135049500D01*
X161326082Y-135049500D01*
X161326080Y-135049500D01*
X161181092Y-135078340D01*
X161181082Y-135078343D01*
X161044511Y-135134912D01*
X161044498Y-135134919D01*
X160921584Y-135217048D01*
X160921580Y-135217051D01*
X160900451Y-135238181D01*
X160839128Y-135271666D01*
X160812770Y-135274500D01*
X158960817Y-135274500D01*
X158827164Y-135310312D01*
X158827161Y-135310313D01*
X158707338Y-135379492D01*
X158707333Y-135379496D01*
X154800465Y-139286365D01*
X154739142Y-139319850D01*
X154736976Y-139320301D01*
X154605677Y-139346418D01*
X154605667Y-139346421D01*
X154478195Y-139399221D01*
X154478182Y-139399228D01*
X154363458Y-139475885D01*
X154363454Y-139475888D01*
X154265888Y-139573454D01*
X154265885Y-139573458D01*
X154189228Y-139688182D01*
X154189221Y-139688195D01*
X154136421Y-139815667D01*
X154136418Y-139815677D01*
X154109500Y-139951004D01*
X154109500Y-139951007D01*
X154109500Y-140088993D01*
X154109500Y-140088995D01*
X154109499Y-140088995D01*
X107301969Y-140088995D01*
X107162003Y-134073920D01*
X145049499Y-134073920D01*
X145078340Y-134218907D01*
X145078343Y-134218917D01*
X145134912Y-134355488D01*
X145134919Y-134355501D01*
X145217047Y-134478414D01*
X145217048Y-134478415D01*
X145217049Y-134478416D01*
X145238181Y-134499548D01*
X145271666Y-134560869D01*
X145274500Y-134587229D01*
X145274500Y-135812770D01*
X145254815Y-135879809D01*
X145238181Y-135900451D01*
X145217051Y-135921580D01*
X145217048Y-135921584D01*
X145134919Y-136044498D01*
X145134912Y-136044511D01*
X145078343Y-136181082D01*
X145078340Y-136181092D01*
X145049500Y-136326079D01*
X145049500Y-136326082D01*
X145049500Y-136473918D01*
X145049500Y-136473920D01*
X145049499Y-136473920D01*
X145078340Y-136618907D01*
X145078343Y-136618917D01*
X145134912Y-136755488D01*
X145134919Y-136755501D01*
X145217048Y-136878415D01*
X145217051Y-136878419D01*
X145321580Y-136982948D01*
X145321584Y-136982951D01*
X145444498Y-137065080D01*
X145444511Y-137065087D01*
X145581082Y-137121656D01*
X145581087Y-137121658D01*
X145581091Y-137121658D01*
X145581092Y-137121659D01*
X145726079Y-137150500D01*
X145726082Y-137150500D01*
X145873920Y-137150500D01*
X145971462Y-137131096D01*
X146018913Y-137121658D01*
X146155495Y-137065084D01*
X146278416Y-136982951D01*
X146382951Y-136878416D01*
X146465084Y-136755495D01*
X146521658Y-136618913D01*
X146535267Y-136550500D01*
X146550500Y-136473920D01*
X146550500Y-136326079D01*
X146521659Y-136181092D01*
X146521658Y-136181091D01*
X146521658Y-136181087D01*
X146511060Y-136155501D01*
X146465087Y-136044511D01*
X146465080Y-136044498D01*
X146382951Y-135921584D01*
X146382948Y-135921580D01*
X146361819Y-135900451D01*
X146328334Y-135839128D01*
X146325500Y-135812770D01*
X146325500Y-134587229D01*
X146345185Y-134520190D01*
X146361815Y-134499551D01*
X146382951Y-134478416D01*
X146465084Y-134355495D01*
X146521658Y-134218913D01*
X146550500Y-134073918D01*
X146550500Y-133926082D01*
X146550500Y-133926079D01*
X146521659Y-133781092D01*
X146521658Y-133781091D01*
X146521658Y-133781087D01*
X146495939Y-133718995D01*
X174549499Y-133718995D01*
X174576418Y-133854322D01*
X174576421Y-133854332D01*
X174629221Y-133981804D01*
X174629228Y-133981817D01*
X174705885Y-134096541D01*
X174705888Y-134096545D01*
X174803454Y-134194111D01*
X174803458Y-134194114D01*
X174918182Y-134270771D01*
X174918195Y-134270778D01*
X175045667Y-134323578D01*
X175045672Y-134323580D01*
X175045676Y-134323580D01*
X175045677Y-134323581D01*
X175181004Y-134350500D01*
X175181007Y-134350500D01*
X175318995Y-134350500D01*
X175410041Y-134332389D01*
X175454328Y-134323580D01*
X175581811Y-134270775D01*
X175696542Y-134194114D01*
X175794114Y-134096542D01*
X175870775Y-133981811D01*
X175923580Y-133854328D01*
X175940919Y-133767156D01*
X175973301Y-133705249D01*
X175974796Y-133703727D01*
X179391119Y-130287404D01*
X179452440Y-130253921D01*
X179454523Y-130253486D01*
X179504328Y-130243580D01*
X179614293Y-130198031D01*
X179631804Y-130190778D01*
X179631804Y-130190777D01*
X179631811Y-130190775D01*
X179746542Y-130114114D01*
X179844114Y-130016542D01*
X179920775Y-129901811D01*
X179922077Y-129898669D01*
X179932740Y-129872924D01*
X179973580Y-129774328D01*
X179995344Y-129664916D01*
X180000500Y-129638995D01*
X180000500Y-129501004D01*
X179973581Y-129365677D01*
X179973580Y-129365676D01*
X179973580Y-129365672D01*
X179973578Y-129365667D01*
X179920778Y-129238195D01*
X179920771Y-129238182D01*
X179844114Y-129123458D01*
X179844111Y-129123454D01*
X179746545Y-129025888D01*
X179746541Y-129025885D01*
X179631817Y-128949228D01*
X179631804Y-128949221D01*
X179504332Y-128896421D01*
X179504322Y-128896418D01*
X179368995Y-128869500D01*
X179368993Y-128869500D01*
X179231007Y-128869500D01*
X179231005Y-128869500D01*
X179095677Y-128896418D01*
X179095667Y-128896421D01*
X178968195Y-128949221D01*
X178968182Y-128949228D01*
X178853458Y-129025885D01*
X178853454Y-129025888D01*
X178755888Y-129123454D01*
X178755885Y-129123458D01*
X178679228Y-129238182D01*
X178679221Y-129238195D01*
X178626421Y-129365667D01*
X178626418Y-129365677D01*
X178601631Y-129490290D01*
X178569246Y-129552201D01*
X178567695Y-129553779D01*
X175196329Y-132925144D01*
X175135006Y-132958629D01*
X175132840Y-132959080D01*
X175045677Y-132976418D01*
X175045667Y-132976421D01*
X174918195Y-133029221D01*
X174918182Y-133029228D01*
X174803458Y-133105885D01*
X174803454Y-133105888D01*
X174705888Y-133203454D01*
X174705885Y-133203458D01*
X174629228Y-133318182D01*
X174629221Y-133318195D01*
X174576421Y-133445667D01*
X174576418Y-133445677D01*
X174549500Y-133581004D01*
X174549500Y-133581007D01*
X174549500Y-133718993D01*
X174549500Y-133718995D01*
X174549499Y-133718995D01*
X146495939Y-133718995D01*
X146490245Y-133705249D01*
X146465087Y-133644511D01*
X146465077Y-133644493D01*
X146464615Y-133643801D01*
X146382951Y-133521584D01*
X146382948Y-133521580D01*
X146278419Y-133417051D01*
X146278415Y-133417048D01*
X146155501Y-133334919D01*
X146155488Y-133334912D01*
X146018917Y-133278343D01*
X146018907Y-133278340D01*
X145873920Y-133249500D01*
X145873918Y-133249500D01*
X145726082Y-133249500D01*
X145726080Y-133249500D01*
X145581092Y-133278340D01*
X145581082Y-133278343D01*
X145444511Y-133334912D01*
X145444498Y-133334919D01*
X145321584Y-133417048D01*
X145321580Y-133417051D01*
X145217051Y-133521580D01*
X145217048Y-133521584D01*
X145134919Y-133644498D01*
X145134912Y-133644511D01*
X145078343Y-133781082D01*
X145078340Y-133781092D01*
X145049500Y-133926079D01*
X145049500Y-133926082D01*
X145049500Y-134073918D01*
X145049500Y-134073920D01*
X145049499Y-134073920D01*
X107162003Y-134073920D01*
X107045848Y-129082155D01*
X110670000Y-129082155D01*
X110670000Y-130380000D01*
X111950936Y-130380000D01*
X111939207Y-130408316D01*
X111910000Y-130555147D01*
X111910000Y-130704853D01*
X111939207Y-130851684D01*
X111950936Y-130880000D01*
X110670000Y-130880000D01*
X110670000Y-132177844D01*
X110676401Y-132237372D01*
X110676403Y-132237379D01*
X110726645Y-132372086D01*
X110726649Y-132372093D01*
X110812809Y-132487187D01*
X110812812Y-132487190D01*
X110927906Y-132573350D01*
X110927913Y-132573354D01*
X111062620Y-132623596D01*
X111062627Y-132623598D01*
X111122155Y-132629999D01*
X111122172Y-132630000D01*
X112420000Y-132630000D01*
X112420000Y-131349064D01*
X112448316Y-131360793D01*
X112595147Y-131390000D01*
X112744853Y-131390000D01*
X112891684Y-131360793D01*
X112920000Y-131349064D01*
X112920000Y-132630000D01*
X114217828Y-132630000D01*
X114217844Y-132629999D01*
X114277372Y-132623598D01*
X114277379Y-132623596D01*
X114412086Y-132573354D01*
X114412093Y-132573350D01*
X114527187Y-132487190D01*
X114527190Y-132487187D01*
X114613350Y-132372093D01*
X114613354Y-132372086D01*
X114663596Y-132237379D01*
X114663598Y-132237372D01*
X114669999Y-132177844D01*
X114670000Y-132177827D01*
X114670000Y-130880000D01*
X113389064Y-130880000D01*
X113400793Y-130851684D01*
X113430000Y-130704853D01*
X113430000Y-130555147D01*
X113400793Y-130408316D01*
X113389064Y-130380000D01*
X114670000Y-130380000D01*
X114670000Y-129082172D01*
X114669999Y-129082155D01*
X114663598Y-129022627D01*
X114663596Y-129022620D01*
X114613354Y-128887913D01*
X114613350Y-128887906D01*
X114527190Y-128772812D01*
X114527187Y-128772809D01*
X114412093Y-128686649D01*
X114412086Y-128686645D01*
X114277379Y-128636403D01*
X114277372Y-128636401D01*
X114217844Y-128630000D01*
X112920000Y-128630000D01*
X112920000Y-129910935D01*
X112891684Y-129899207D01*
X112744853Y-129870000D01*
X112595147Y-129870000D01*
X112448316Y-129899207D01*
X112420000Y-129910935D01*
X112420000Y-128630000D01*
X111122155Y-128630000D01*
X111062627Y-128636401D01*
X111062620Y-128636403D01*
X110927913Y-128686645D01*
X110927906Y-128686649D01*
X110812812Y-128772809D01*
X110812809Y-128772812D01*
X110726649Y-128887906D01*
X110726645Y-128887913D01*
X110676403Y-129022620D01*
X110676401Y-129022627D01*
X110670000Y-129082155D01*
X107045848Y-129082155D01*
X106970533Y-125845454D01*
X106970500Y-125842601D01*
X106970500Y-125425441D01*
X110769500Y-125425441D01*
X110769500Y-125674558D01*
X110769501Y-125674575D01*
X110802017Y-125921561D01*
X110866498Y-126162207D01*
X110961830Y-126392361D01*
X110961837Y-126392376D01*
X111086400Y-126608126D01*
X111238060Y-126805774D01*
X111238066Y-126805781D01*
X111414218Y-126981933D01*
X111414225Y-126981939D01*
X111611873Y-127133599D01*
X111827623Y-127258162D01*
X111827638Y-127258169D01*
X111926825Y-127299253D01*
X112057793Y-127353502D01*
X112298435Y-127417982D01*
X112545435Y-127450500D01*
X112545442Y-127450500D01*
X112794558Y-127450500D01*
X112794565Y-127450500D01*
X113041565Y-127417982D01*
X113282207Y-127353502D01*
X113512373Y-127258164D01*
X113728127Y-127133599D01*
X113925776Y-126981938D01*
X114101938Y-126805776D01*
X114253599Y-126608127D01*
X114378164Y-126392373D01*
X114473502Y-126162207D01*
X114537982Y-125921565D01*
X114570500Y-125674565D01*
X114570500Y-125425435D01*
X114537982Y-125178435D01*
X114473502Y-124937793D01*
X114404023Y-124770056D01*
X114378169Y-124707638D01*
X114378162Y-124707623D01*
X114295239Y-124563995D01*
X155084499Y-124563995D01*
X155111418Y-124699322D01*
X155111420Y-124699328D01*
X155121061Y-124722603D01*
X155130500Y-124770056D01*
X155130500Y-132308502D01*
X155130499Y-132308520D01*
X155130499Y-132454483D01*
X155157723Y-132556078D01*
X155157723Y-132556083D01*
X155157724Y-132556083D01*
X155162351Y-132573350D01*
X155166312Y-132588135D01*
X155235492Y-132707959D01*
X155235496Y-132707964D01*
X155340400Y-132812868D01*
X155340406Y-132812873D01*
X155610505Y-133082972D01*
X155610515Y-133082983D01*
X155614845Y-133087313D01*
X155614846Y-133087314D01*
X155712686Y-133185154D01*
X155712688Y-133185155D01*
X155712689Y-133185156D01*
X155760827Y-133212948D01*
X155832515Y-133254337D01*
X155899341Y-133272243D01*
X155899340Y-133272243D01*
X155913462Y-133276026D01*
X155966167Y-133290149D01*
X155966168Y-133290149D01*
X156077926Y-133290149D01*
X156125378Y-133299587D01*
X156251087Y-133351658D01*
X156251091Y-133351658D01*
X156251092Y-133351659D01*
X156396079Y-133380500D01*
X156396082Y-133380500D01*
X156543920Y-133380500D01*
X156641462Y-133361096D01*
X156688913Y-133351658D01*
X156794547Y-133307902D01*
X156825488Y-133295087D01*
X156825488Y-133295086D01*
X156825495Y-133295084D01*
X156948416Y-133212951D01*
X157052951Y-133108416D01*
X157135084Y-132985495D01*
X157191658Y-132848913D01*
X157201096Y-132801462D01*
X157220500Y-132703920D01*
X157220500Y-132556078D01*
X157191659Y-132411092D01*
X157191658Y-132411091D01*
X157191658Y-132411087D01*
X157175503Y-132372086D01*
X157135087Y-132274511D01*
X157135080Y-132274498D01*
X157052951Y-132151584D01*
X157052948Y-132151580D01*
X157017564Y-132116196D01*
X156984079Y-132054873D01*
X156989063Y-131985181D01*
X157002143Y-131959624D01*
X157002948Y-131958418D01*
X157002951Y-131958416D01*
X157085084Y-131835495D01*
X157116771Y-131758995D01*
X172379499Y-131758995D01*
X172406418Y-131894322D01*
X172406421Y-131894332D01*
X172459221Y-132021804D01*
X172459228Y-132021817D01*
X172535885Y-132136541D01*
X172535888Y-132136545D01*
X172633454Y-132234111D01*
X172633458Y-132234114D01*
X172748182Y-132310771D01*
X172748195Y-132310778D01*
X172875667Y-132363578D01*
X172875672Y-132363580D01*
X172875676Y-132363580D01*
X172875677Y-132363581D01*
X173011004Y-132390500D01*
X173011007Y-132390500D01*
X173148995Y-132390500D01*
X173241566Y-132372086D01*
X173284328Y-132363580D01*
X173411811Y-132310775D01*
X173526542Y-132234114D01*
X173624114Y-132136542D01*
X173700775Y-132021811D01*
X173753580Y-131894328D01*
X173770919Y-131807156D01*
X173803301Y-131745249D01*
X173804796Y-131743727D01*
X177341188Y-128207336D01*
X177402509Y-128173853D01*
X177404658Y-128173405D01*
X177504328Y-128153580D01*
X177631811Y-128100775D01*
X177746542Y-128024114D01*
X177844114Y-127926542D01*
X177920775Y-127811811D01*
X177973580Y-127684328D01*
X178000500Y-127548993D01*
X178000500Y-127411007D01*
X178000500Y-127411004D01*
X177973581Y-127275677D01*
X177973580Y-127275676D01*
X177973580Y-127275672D01*
X177966327Y-127258162D01*
X177920778Y-127148195D01*
X177920771Y-127148182D01*
X177844114Y-127033458D01*
X177844111Y-127033454D01*
X177746545Y-126935888D01*
X177746541Y-126935885D01*
X177631817Y-126859228D01*
X177631804Y-126859221D01*
X177504332Y-126806421D01*
X177504322Y-126806418D01*
X177368995Y-126779500D01*
X177368993Y-126779500D01*
X177231007Y-126779500D01*
X177231005Y-126779500D01*
X177095677Y-126806418D01*
X177095667Y-126806421D01*
X176968195Y-126859221D01*
X176968182Y-126859228D01*
X176853458Y-126935885D01*
X176853454Y-126935888D01*
X176755888Y-127033454D01*
X176755885Y-127033458D01*
X176679228Y-127148182D01*
X176679221Y-127148195D01*
X176626420Y-127275669D01*
X176626418Y-127275677D01*
X176611563Y-127350357D01*
X176579178Y-127412268D01*
X176577627Y-127413846D01*
X173026329Y-130965144D01*
X172965006Y-130998629D01*
X172962840Y-130999080D01*
X172875677Y-131016418D01*
X172875667Y-131016421D01*
X172748195Y-131069221D01*
X172748182Y-131069228D01*
X172633458Y-131145885D01*
X172633454Y-131145888D01*
X172535888Y-131243454D01*
X172535885Y-131243458D01*
X172459228Y-131358182D01*
X172459221Y-131358195D01*
X172406421Y-131485667D01*
X172406418Y-131485677D01*
X172379500Y-131621004D01*
X172379500Y-131621007D01*
X172379500Y-131758993D01*
X172379500Y-131758995D01*
X172379499Y-131758995D01*
X157116771Y-131758995D01*
X157141658Y-131698913D01*
X157157155Y-131621007D01*
X157170500Y-131553920D01*
X157170500Y-131406079D01*
X157141659Y-131261092D01*
X157141658Y-131261091D01*
X157141658Y-131261087D01*
X157124776Y-131220330D01*
X157085087Y-131124511D01*
X157085080Y-131124498D01*
X157002951Y-131001584D01*
X157002948Y-131001580D01*
X156981819Y-130980451D01*
X156948334Y-130919128D01*
X156945500Y-130892770D01*
X156945500Y-130198031D01*
X156965185Y-130130992D01*
X157017989Y-130085237D01*
X157087147Y-130075293D01*
X157150703Y-130104318D01*
X157157181Y-130110350D01*
X157983181Y-130936350D01*
X158016666Y-130997673D01*
X158019500Y-131024031D01*
X158019500Y-131053918D01*
X158019500Y-131053920D01*
X158019499Y-131053920D01*
X158048340Y-131198907D01*
X158048343Y-131198917D01*
X158104912Y-131335488D01*
X158104919Y-131335501D01*
X158187048Y-131458415D01*
X158187051Y-131458419D01*
X158291580Y-131562948D01*
X158291584Y-131562951D01*
X158414498Y-131645080D01*
X158414511Y-131645087D01*
X158551082Y-131701656D01*
X158551087Y-131701658D01*
X158551091Y-131701658D01*
X158551092Y-131701659D01*
X158696079Y-131730500D01*
X158696082Y-131730500D01*
X158843920Y-131730500D01*
X158941462Y-131711096D01*
X158988913Y-131701658D01*
X159125495Y-131645084D01*
X159248416Y-131562951D01*
X159257449Y-131553918D01*
X159284134Y-131527234D01*
X159352948Y-131458419D01*
X159352951Y-131458416D01*
X159435084Y-131335495D01*
X159491658Y-131198913D01*
X159506459Y-131124505D01*
X159520500Y-131053920D01*
X159520500Y-130906079D01*
X159491659Y-130761092D01*
X159491658Y-130761091D01*
X159491658Y-130761087D01*
X159468365Y-130704853D01*
X159435087Y-130624511D01*
X159435080Y-130624498D01*
X159352951Y-130501584D01*
X159352948Y-130501580D01*
X159255288Y-130403920D01*
X170319499Y-130403920D01*
X170348340Y-130548907D01*
X170348343Y-130548917D01*
X170404912Y-130685488D01*
X170404919Y-130685501D01*
X170487048Y-130808415D01*
X170487051Y-130808419D01*
X170591580Y-130912948D01*
X170591584Y-130912951D01*
X170714498Y-130995080D01*
X170714511Y-130995087D01*
X170784389Y-131024031D01*
X170851087Y-131051658D01*
X170851091Y-131051658D01*
X170851092Y-131051659D01*
X170996079Y-131080500D01*
X170996082Y-131080500D01*
X171143920Y-131080500D01*
X171277551Y-131053918D01*
X171288913Y-131051658D01*
X171425495Y-130995084D01*
X171548416Y-130912951D01*
X171652951Y-130808416D01*
X171735084Y-130685495D01*
X171791658Y-130548913D01*
X171801096Y-130501462D01*
X171820500Y-130403920D01*
X171820500Y-130274030D01*
X171840185Y-130206991D01*
X171856819Y-130186349D01*
X175126351Y-126916819D01*
X175187674Y-126883334D01*
X175214032Y-126880500D01*
X175243920Y-126880500D01*
X175350892Y-126859221D01*
X175388913Y-126851658D01*
X175525495Y-126795084D01*
X175648416Y-126712951D01*
X175752951Y-126608416D01*
X175835084Y-126485495D01*
X175891658Y-126348913D01*
X175920500Y-126203918D01*
X175920500Y-126056082D01*
X175920500Y-126056079D01*
X175891659Y-125911092D01*
X175891658Y-125911091D01*
X175891658Y-125911087D01*
X175864472Y-125845454D01*
X175835087Y-125774511D01*
X175835080Y-125774498D01*
X175752951Y-125651584D01*
X175752948Y-125651580D01*
X175648419Y-125547051D01*
X175648415Y-125547048D01*
X175525501Y-125464919D01*
X175525488Y-125464912D01*
X175388917Y-125408343D01*
X175388907Y-125408340D01*
X175243920Y-125379500D01*
X175243918Y-125379500D01*
X175096082Y-125379500D01*
X175096080Y-125379500D01*
X174951092Y-125408340D01*
X174951082Y-125408343D01*
X174814511Y-125464912D01*
X174814498Y-125464919D01*
X174691584Y-125547048D01*
X174691580Y-125547051D01*
X174587051Y-125651580D01*
X174587048Y-125651584D01*
X174504919Y-125774498D01*
X174504912Y-125774511D01*
X174448343Y-125911082D01*
X174448340Y-125911092D01*
X174419500Y-126056079D01*
X174419500Y-126085968D01*
X174399815Y-126153007D01*
X174383181Y-126173649D01*
X170999271Y-129557558D01*
X170937948Y-129591043D01*
X170935782Y-129591494D01*
X170851092Y-129608340D01*
X170851082Y-129608343D01*
X170714511Y-129664912D01*
X170714498Y-129664919D01*
X170591584Y-129747048D01*
X170591580Y-129747051D01*
X170487051Y-129851580D01*
X170487048Y-129851584D01*
X170404919Y-129974498D01*
X170404912Y-129974511D01*
X170348343Y-130111082D01*
X170348340Y-130111092D01*
X170319500Y-130256079D01*
X170319500Y-130256082D01*
X170319500Y-130403918D01*
X170319500Y-130403920D01*
X170319499Y-130403920D01*
X159255288Y-130403920D01*
X159248416Y-130397048D01*
X159182630Y-130353092D01*
X159125501Y-130314919D01*
X159125488Y-130314912D01*
X158988917Y-130258343D01*
X158988907Y-130258340D01*
X158843920Y-130229500D01*
X158843918Y-130229500D01*
X158814032Y-130229500D01*
X158746993Y-130209815D01*
X158726351Y-130193181D01*
X157605819Y-129072649D01*
X157572334Y-129011326D01*
X157569500Y-128984968D01*
X157569500Y-122669031D01*
X157589185Y-122601992D01*
X157605819Y-122581350D01*
X157825350Y-122361819D01*
X157886673Y-122328334D01*
X157913031Y-122325500D01*
X158739212Y-122325500D01*
X158806251Y-122345185D01*
X158852006Y-122397989D01*
X158861950Y-122467147D01*
X158832925Y-122530703D01*
X158808103Y-122552602D01*
X158741584Y-122597048D01*
X158741580Y-122597051D01*
X158637051Y-122701580D01*
X158637048Y-122701584D01*
X158554919Y-122824498D01*
X158554912Y-122824511D01*
X158498343Y-122961082D01*
X158498340Y-122961092D01*
X158469500Y-123106079D01*
X158469500Y-123106082D01*
X158469500Y-123253918D01*
X158469500Y-123253920D01*
X158469499Y-123253920D01*
X158498340Y-123398907D01*
X158498343Y-123398917D01*
X158554912Y-123535488D01*
X158554919Y-123535501D01*
X158637047Y-123658414D01*
X158637048Y-123658415D01*
X158637049Y-123658416D01*
X158658181Y-123679548D01*
X158691666Y-123740869D01*
X158694500Y-123767229D01*
X158694500Y-124842770D01*
X158674815Y-124909809D01*
X158658181Y-124930451D01*
X158637051Y-124951580D01*
X158637048Y-124951584D01*
X158554919Y-125074498D01*
X158554912Y-125074511D01*
X158498343Y-125211082D01*
X158498340Y-125211092D01*
X158469500Y-125356079D01*
X158469500Y-125356082D01*
X158469500Y-125503918D01*
X158469500Y-125503920D01*
X158469499Y-125503920D01*
X158498340Y-125648907D01*
X158498343Y-125648917D01*
X158554912Y-125785488D01*
X158554919Y-125785501D01*
X158637048Y-125908415D01*
X158637051Y-125908419D01*
X158741580Y-126012948D01*
X158741584Y-126012951D01*
X158864498Y-126095080D01*
X158864511Y-126095087D01*
X158942310Y-126127312D01*
X159001087Y-126151658D01*
X159001091Y-126151658D01*
X159001092Y-126151659D01*
X159146079Y-126180500D01*
X159146082Y-126180500D01*
X159293920Y-126180500D01*
X159404944Y-126158415D01*
X159438913Y-126151658D01*
X159497690Y-126127311D01*
X159567157Y-126119842D01*
X159629637Y-126151116D01*
X159632823Y-126154191D01*
X159741580Y-126262948D01*
X159741584Y-126262951D01*
X159864498Y-126345080D01*
X159864511Y-126345087D01*
X159978642Y-126392361D01*
X160001087Y-126401658D01*
X160001091Y-126401658D01*
X160001092Y-126401659D01*
X160146079Y-126430500D01*
X160146082Y-126430500D01*
X160293920Y-126430500D01*
X160391462Y-126411096D01*
X160438913Y-126401658D01*
X160566251Y-126348913D01*
X160575488Y-126345087D01*
X160575488Y-126345086D01*
X160575495Y-126345084D01*
X160698416Y-126262951D01*
X160802951Y-126158416D01*
X160885084Y-126035495D01*
X160941658Y-125898913D01*
X160966405Y-125774505D01*
X160970500Y-125753920D01*
X160970500Y-125606079D01*
X160941659Y-125461092D01*
X160941658Y-125461091D01*
X160941658Y-125461087D01*
X160926893Y-125425441D01*
X160885087Y-125324511D01*
X160885080Y-125324498D01*
X160802951Y-125201584D01*
X160802948Y-125201580D01*
X160781819Y-125180451D01*
X160748334Y-125119128D01*
X160745500Y-125092770D01*
X160745500Y-124017229D01*
X160765185Y-123950190D01*
X160781815Y-123929551D01*
X160802951Y-123908416D01*
X160885084Y-123785495D01*
X160941658Y-123648913D01*
X160970500Y-123503918D01*
X160970500Y-123356082D01*
X160970500Y-123356079D01*
X160941659Y-123211092D01*
X160941658Y-123211091D01*
X160941658Y-123211087D01*
X160898164Y-123106082D01*
X160885087Y-123074511D01*
X160885080Y-123074498D01*
X160802951Y-122951584D01*
X160802948Y-122951580D01*
X160698419Y-122847051D01*
X160698415Y-122847048D01*
X160575501Y-122764919D01*
X160575488Y-122764912D01*
X160438917Y-122708343D01*
X160438907Y-122708340D01*
X160293920Y-122679500D01*
X160293918Y-122679500D01*
X160146082Y-122679500D01*
X160146080Y-122679500D01*
X160001092Y-122708340D01*
X160001082Y-122708343D01*
X159942309Y-122732688D01*
X159872840Y-122740157D01*
X159810361Y-122708881D01*
X159807176Y-122705808D01*
X159698419Y-122597051D01*
X159698415Y-122597048D01*
X159631897Y-122552602D01*
X159587092Y-122498990D01*
X159578385Y-122429665D01*
X159608539Y-122366637D01*
X159667982Y-122329918D01*
X159700788Y-122325500D01*
X161057770Y-122325500D01*
X161124809Y-122345185D01*
X161145451Y-122361819D01*
X161166580Y-122382948D01*
X161166584Y-122382951D01*
X161289498Y-122465080D01*
X161289511Y-122465087D01*
X161409810Y-122514916D01*
X161426087Y-122521658D01*
X161426091Y-122521658D01*
X161426092Y-122521659D01*
X161571079Y-122550500D01*
X161571082Y-122550500D01*
X161718920Y-122550500D01*
X161818442Y-122530703D01*
X161863913Y-122521658D01*
X161969547Y-122477902D01*
X162000488Y-122465087D01*
X162000488Y-122465086D01*
X162000495Y-122465084D01*
X162123416Y-122382951D01*
X162227951Y-122278416D01*
X162310084Y-122155495D01*
X162366658Y-122018913D01*
X162384904Y-121927187D01*
X162395500Y-121873920D01*
X162395500Y-121726079D01*
X162366659Y-121581092D01*
X162366658Y-121581091D01*
X162366658Y-121581087D01*
X162366656Y-121581082D01*
X162310087Y-121444511D01*
X162310080Y-121444498D01*
X162227951Y-121321584D01*
X162227948Y-121321580D01*
X162123419Y-121217051D01*
X162123415Y-121217048D01*
X162000501Y-121134919D01*
X162000488Y-121134912D01*
X161863917Y-121078343D01*
X161863907Y-121078340D01*
X161718920Y-121049500D01*
X161718918Y-121049500D01*
X161571082Y-121049500D01*
X161571080Y-121049500D01*
X161426092Y-121078340D01*
X161426082Y-121078343D01*
X161289511Y-121134912D01*
X161289498Y-121134919D01*
X161166584Y-121217048D01*
X161166580Y-121217051D01*
X161145451Y-121238181D01*
X161084128Y-121271666D01*
X161057770Y-121274500D01*
X157574817Y-121274500D01*
X157441164Y-121310312D01*
X157441161Y-121310313D01*
X157321338Y-121379492D01*
X157321333Y-121379496D01*
X157223493Y-121477337D01*
X156827460Y-121873369D01*
X156766137Y-121906854D01*
X156696445Y-121901870D01*
X156670888Y-121888790D01*
X156666540Y-121885885D01*
X156646415Y-121872438D01*
X156551816Y-121809228D01*
X156551804Y-121809221D01*
X156424332Y-121756421D01*
X156424322Y-121756418D01*
X156288995Y-121729500D01*
X156288993Y-121729500D01*
X156151007Y-121729500D01*
X156151005Y-121729500D01*
X156015677Y-121756418D01*
X156015667Y-121756421D01*
X155888195Y-121809221D01*
X155888182Y-121809228D01*
X155773458Y-121885885D01*
X155773454Y-121885888D01*
X155675888Y-121983454D01*
X155675885Y-121983458D01*
X155599228Y-122098182D01*
X155599221Y-122098195D01*
X155546421Y-122225667D01*
X155546418Y-122225677D01*
X155519500Y-122361004D01*
X155519500Y-122498995D01*
X155546418Y-122634322D01*
X155546421Y-122634332D01*
X155599221Y-122761804D01*
X155599228Y-122761817D01*
X155675885Y-122876541D01*
X155675888Y-122876545D01*
X155773454Y-122974111D01*
X155773462Y-122974117D01*
X155839390Y-123018169D01*
X155884196Y-123071781D01*
X155894500Y-123121271D01*
X155894500Y-123670500D01*
X155874815Y-123737539D01*
X155822011Y-123783294D01*
X155770500Y-123794500D01*
X155716005Y-123794500D01*
X155580677Y-123821418D01*
X155580667Y-123821421D01*
X155453195Y-123874221D01*
X155453182Y-123874228D01*
X155338458Y-123950885D01*
X155338454Y-123950888D01*
X155240888Y-124048454D01*
X155240885Y-124048458D01*
X155164228Y-124163182D01*
X155164221Y-124163195D01*
X155111421Y-124290667D01*
X155111418Y-124290677D01*
X155084500Y-124426004D01*
X155084500Y-124426007D01*
X155084500Y-124563993D01*
X155084500Y-124563995D01*
X155084499Y-124563995D01*
X114295239Y-124563995D01*
X114253602Y-124491877D01*
X114253597Y-124491870D01*
X114101939Y-124294225D01*
X114101933Y-124294218D01*
X113925781Y-124118066D01*
X113925774Y-124118060D01*
X113728126Y-123966400D01*
X113512376Y-123841837D01*
X113512361Y-123841830D01*
X113282207Y-123746498D01*
X113041561Y-123682017D01*
X112794575Y-123649501D01*
X112794570Y-123649500D01*
X112794565Y-123649500D01*
X112545435Y-123649500D01*
X112545429Y-123649500D01*
X112545424Y-123649501D01*
X112298438Y-123682017D01*
X112057792Y-123746498D01*
X111827638Y-123841830D01*
X111827623Y-123841837D01*
X111611873Y-123966400D01*
X111414225Y-124118060D01*
X111414218Y-124118066D01*
X111238066Y-124294218D01*
X111238060Y-124294225D01*
X111086400Y-124491873D01*
X110961837Y-124707623D01*
X110961830Y-124707638D01*
X110866498Y-124937792D01*
X110802017Y-125178438D01*
X110769501Y-125425424D01*
X110769500Y-125425441D01*
X106970500Y-125425441D01*
X106970500Y-118522155D01*
X110670000Y-118522155D01*
X110670000Y-119820000D01*
X111950936Y-119820000D01*
X111939207Y-119848316D01*
X111910000Y-119995147D01*
X111910000Y-120144853D01*
X111939207Y-120291684D01*
X111950936Y-120320000D01*
X110670000Y-120320000D01*
X110670000Y-121617844D01*
X110676401Y-121677372D01*
X110676403Y-121677379D01*
X110726645Y-121812086D01*
X110726649Y-121812093D01*
X110812809Y-121927187D01*
X110812812Y-121927190D01*
X110927906Y-122013350D01*
X110927913Y-122013354D01*
X111062620Y-122063596D01*
X111062627Y-122063598D01*
X111122155Y-122069999D01*
X111122172Y-122070000D01*
X112420000Y-122070000D01*
X112420000Y-120789064D01*
X112448316Y-120800793D01*
X112595147Y-120830000D01*
X112744853Y-120830000D01*
X112891684Y-120800793D01*
X112920000Y-120789064D01*
X112920000Y-122070000D01*
X114217828Y-122070000D01*
X114217844Y-122069999D01*
X114277372Y-122063598D01*
X114277379Y-122063596D01*
X114412086Y-122013354D01*
X114412093Y-122013350D01*
X114527187Y-121927190D01*
X114527190Y-121927187D01*
X114613350Y-121812093D01*
X114613354Y-121812086D01*
X114663596Y-121677379D01*
X114663598Y-121677372D01*
X114669999Y-121617844D01*
X114670000Y-121617827D01*
X114670000Y-120320000D01*
X113389064Y-120320000D01*
X113400793Y-120291684D01*
X113430000Y-120144853D01*
X113430000Y-119995147D01*
X113400793Y-119848316D01*
X113389064Y-119820000D01*
X114670000Y-119820000D01*
X114670000Y-118522172D01*
X114669999Y-118522155D01*
X114663598Y-118462627D01*
X114663596Y-118462620D01*
X114613354Y-118327913D01*
X114613350Y-118327906D01*
X114527190Y-118212812D01*
X114527187Y-118212809D01*
X114412093Y-118126649D01*
X114412086Y-118126645D01*
X114277379Y-118076403D01*
X114277372Y-118076401D01*
X114217844Y-118070000D01*
X112920000Y-118070000D01*
X112920000Y-119350935D01*
X112891684Y-119339207D01*
X112744853Y-119310000D01*
X112595147Y-119310000D01*
X112448316Y-119339207D01*
X112420000Y-119350935D01*
X112420000Y-118070000D01*
X111122155Y-118070000D01*
X111062627Y-118076401D01*
X111062620Y-118076403D01*
X110927913Y-118126645D01*
X110927906Y-118126649D01*
X110812812Y-118212809D01*
X110812809Y-118212812D01*
X110726649Y-118327906D01*
X110726645Y-118327913D01*
X110676403Y-118462620D01*
X110676401Y-118462627D01*
X110670000Y-118522155D01*
X106970500Y-118522155D01*
X106970500Y-118003920D01*
X147019499Y-118003920D01*
X147048340Y-118148907D01*
X147048343Y-118148917D01*
X147104912Y-118285488D01*
X147104919Y-118285501D01*
X147187048Y-118408415D01*
X147187051Y-118408419D01*
X147291580Y-118512948D01*
X147291584Y-118512951D01*
X147414498Y-118595080D01*
X147414511Y-118595087D01*
X147551082Y-118651656D01*
X147551087Y-118651658D01*
X147551091Y-118651658D01*
X147551092Y-118651659D01*
X147696079Y-118680500D01*
X147696082Y-118680500D01*
X147843920Y-118680500D01*
X147941462Y-118661096D01*
X147988913Y-118651658D01*
X148125495Y-118595084D01*
X148248416Y-118512951D01*
X148352951Y-118408416D01*
X148435084Y-118285495D01*
X148491658Y-118148913D01*
X148501096Y-118101462D01*
X148520500Y-118003920D01*
X148520500Y-117974031D01*
X148540185Y-117906992D01*
X148556819Y-117886350D01*
X148839249Y-117603920D01*
X177319499Y-117603920D01*
X177348340Y-117748907D01*
X177348343Y-117748917D01*
X177404912Y-117885488D01*
X177404919Y-117885501D01*
X177487048Y-118008415D01*
X177487051Y-118008419D01*
X177591580Y-118112948D01*
X177591584Y-118112951D01*
X177714498Y-118195080D01*
X177714511Y-118195087D01*
X177851082Y-118251656D01*
X177851087Y-118251658D01*
X177851091Y-118251658D01*
X177851092Y-118251659D01*
X177996079Y-118280500D01*
X177996082Y-118280500D01*
X178143920Y-118280500D01*
X178241462Y-118261096D01*
X178288913Y-118251658D01*
X178425495Y-118195084D01*
X178548416Y-118112951D01*
X178652951Y-118008416D01*
X178735084Y-117885495D01*
X178791658Y-117748913D01*
X178820500Y-117603918D01*
X178820500Y-117456082D01*
X178820500Y-117456079D01*
X178791659Y-117311092D01*
X178791658Y-117311091D01*
X178791658Y-117311087D01*
X178772535Y-117264919D01*
X178735087Y-117174511D01*
X178735080Y-117174498D01*
X178652951Y-117051584D01*
X178652948Y-117051580D01*
X178631819Y-117030451D01*
X178598334Y-116969128D01*
X178595500Y-116942770D01*
X178595500Y-110007577D01*
X181525975Y-110007577D01*
X181631236Y-110051178D01*
X181631240Y-110051179D01*
X181776126Y-110079999D01*
X181776129Y-110080000D01*
X181923871Y-110080000D01*
X181923873Y-110079999D01*
X182068760Y-110051179D01*
X182068775Y-110051175D01*
X182174024Y-110007578D01*
X182174024Y-110007577D01*
X182525975Y-110007577D01*
X182631236Y-110051178D01*
X182631240Y-110051179D01*
X182776126Y-110079999D01*
X182776129Y-110080000D01*
X182923871Y-110080000D01*
X182923873Y-110079999D01*
X183068760Y-110051179D01*
X183068775Y-110051175D01*
X183174024Y-110007578D01*
X183174024Y-110007577D01*
X183525975Y-110007577D01*
X183631236Y-110051178D01*
X183631240Y-110051179D01*
X183776126Y-110079999D01*
X183776129Y-110080000D01*
X183923871Y-110080000D01*
X183923873Y-110079999D01*
X184068760Y-110051179D01*
X184068775Y-110051175D01*
X184174024Y-110007578D01*
X184174024Y-110007577D01*
X183850001Y-109683554D01*
X183850000Y-109683554D01*
X183525975Y-110007577D01*
X183174024Y-110007577D01*
X182850001Y-109683554D01*
X182850000Y-109683554D01*
X182525975Y-110007577D01*
X182174024Y-110007577D01*
X181850001Y-109683554D01*
X181850000Y-109683554D01*
X181525975Y-110007577D01*
X178595500Y-110007577D01*
X178595500Y-109256126D01*
X181100000Y-109256126D01*
X181100000Y-109403873D01*
X181128820Y-109548759D01*
X181128822Y-109548767D01*
X181172421Y-109654024D01*
X181496446Y-109330000D01*
X181496446Y-109329999D01*
X181476556Y-109310109D01*
X181750000Y-109310109D01*
X181750000Y-109349891D01*
X181765224Y-109386645D01*
X181793355Y-109414776D01*
X181830109Y-109430000D01*
X181869891Y-109430000D01*
X181906645Y-109414776D01*
X181934776Y-109386645D01*
X181950000Y-109349891D01*
X181950000Y-109330000D01*
X182203554Y-109330000D01*
X182350000Y-109476446D01*
X182496446Y-109330000D01*
X182476555Y-109310109D01*
X182750000Y-109310109D01*
X182750000Y-109349891D01*
X182765224Y-109386645D01*
X182793355Y-109414776D01*
X182830109Y-109430000D01*
X182869891Y-109430000D01*
X182906645Y-109414776D01*
X182934776Y-109386645D01*
X182950000Y-109349891D01*
X182950000Y-109330000D01*
X183203554Y-109330000D01*
X183350000Y-109476446D01*
X183496446Y-109330000D01*
X183476555Y-109310109D01*
X183750000Y-109310109D01*
X183750000Y-109349891D01*
X183765224Y-109386645D01*
X183793355Y-109414776D01*
X183830109Y-109430000D01*
X183869891Y-109430000D01*
X183906645Y-109414776D01*
X183934776Y-109386645D01*
X183950000Y-109349891D01*
X183950000Y-109329999D01*
X184203554Y-109329999D01*
X184203554Y-109330001D01*
X184527577Y-109654024D01*
X184527578Y-109654024D01*
X184571175Y-109548775D01*
X184571179Y-109548760D01*
X184581078Y-109498995D01*
X185459499Y-109498995D01*
X185486418Y-109634322D01*
X185486421Y-109634332D01*
X185539221Y-109761804D01*
X185539228Y-109761817D01*
X185615885Y-109876541D01*
X185615888Y-109876545D01*
X185713454Y-109974111D01*
X185713458Y-109974114D01*
X185828182Y-110050771D01*
X185828195Y-110050778D01*
X185935168Y-110095087D01*
X185955672Y-110103580D01*
X185955676Y-110103580D01*
X185955677Y-110103581D01*
X186091004Y-110130500D01*
X186235085Y-110130500D01*
X186235085Y-110131845D01*
X186296978Y-110143575D01*
X186347695Y-110191634D01*
X186364500Y-110253966D01*
X186364500Y-117444930D01*
X186355061Y-117492382D01*
X186316421Y-117585667D01*
X186316418Y-117585677D01*
X186289500Y-117721004D01*
X186289500Y-117721007D01*
X186289500Y-117858993D01*
X186289500Y-117858995D01*
X186289499Y-117858995D01*
X186316418Y-117994322D01*
X186316421Y-117994332D01*
X186369221Y-118121804D01*
X186369228Y-118121817D01*
X186445885Y-118236541D01*
X186445888Y-118236545D01*
X186543454Y-118334111D01*
X186543458Y-118334114D01*
X186658182Y-118410771D01*
X186658195Y-118410778D01*
X186783354Y-118462620D01*
X186785672Y-118463580D01*
X186785676Y-118463580D01*
X186785677Y-118463581D01*
X186921004Y-118490500D01*
X186921007Y-118490500D01*
X187058995Y-118490500D01*
X187150041Y-118472389D01*
X187194328Y-118463580D01*
X187321811Y-118410775D01*
X187380051Y-118371859D01*
X187446728Y-118350981D01*
X187514108Y-118369465D01*
X187536626Y-118387282D01*
X187553452Y-118404109D01*
X187553458Y-118404114D01*
X187668182Y-118480771D01*
X187668195Y-118480778D01*
X187795667Y-118533578D01*
X187795672Y-118533580D01*
X187795676Y-118533580D01*
X187795677Y-118533581D01*
X187931004Y-118560500D01*
X187931007Y-118560500D01*
X188068995Y-118560500D01*
X188160041Y-118542389D01*
X188204328Y-118533580D01*
X188331811Y-118480775D01*
X188446542Y-118404114D01*
X188446544Y-118404111D01*
X188446548Y-118404109D01*
X188544111Y-118306545D01*
X188544114Y-118306542D01*
X188620775Y-118191811D01*
X188673580Y-118064328D01*
X188687505Y-117994322D01*
X188700500Y-117928995D01*
X188700500Y-117791004D01*
X188673581Y-117655677D01*
X188673580Y-117655676D01*
X188673580Y-117655672D01*
X188652143Y-117603918D01*
X188620778Y-117528195D01*
X188620771Y-117528182D01*
X188571398Y-117454290D01*
X188550520Y-117387612D01*
X188550500Y-117385399D01*
X188550500Y-108487527D01*
X188550500Y-108487525D01*
X188512984Y-108347515D01*
X188510368Y-108342984D01*
X188440510Y-108221985D01*
X188056819Y-107838294D01*
X188023334Y-107776971D01*
X188021732Y-107762079D01*
X188021097Y-107762142D01*
X188020500Y-107756079D01*
X187991659Y-107611092D01*
X187991658Y-107611091D01*
X187991658Y-107611087D01*
X187988024Y-107602314D01*
X187935087Y-107474511D01*
X187935080Y-107474498D01*
X187887268Y-107402942D01*
X187866390Y-107336264D01*
X187884875Y-107268884D01*
X187921480Y-107230948D01*
X187948416Y-107212951D01*
X188052951Y-107108416D01*
X188135084Y-106985495D01*
X188191658Y-106848913D01*
X188201096Y-106801462D01*
X188220500Y-106703920D01*
X188220500Y-106556079D01*
X188191659Y-106411092D01*
X188191658Y-106411091D01*
X188191658Y-106411087D01*
X188191656Y-106411082D01*
X188135087Y-106274511D01*
X188135080Y-106274498D01*
X188052951Y-106151584D01*
X188052948Y-106151580D01*
X187948419Y-106047051D01*
X187948415Y-106047048D01*
X187825501Y-105964919D01*
X187825488Y-105964912D01*
X187688917Y-105908343D01*
X187688907Y-105908340D01*
X187543920Y-105879500D01*
X187543918Y-105879500D01*
X187396082Y-105879500D01*
X187396080Y-105879500D01*
X187251092Y-105908340D01*
X187251082Y-105908343D01*
X187114511Y-105964912D01*
X187114498Y-105964919D01*
X186991584Y-106047048D01*
X186991580Y-106047051D01*
X186887051Y-106151580D01*
X186887048Y-106151584D01*
X186804919Y-106274498D01*
X186804912Y-106274511D01*
X186748343Y-106411082D01*
X186748340Y-106411092D01*
X186719500Y-106556079D01*
X186719500Y-106585968D01*
X186699815Y-106653007D01*
X186683181Y-106673649D01*
X186173496Y-107183333D01*
X186173492Y-107183338D01*
X186104312Y-107303163D01*
X186100467Y-107317514D01*
X186091650Y-107350419D01*
X186070326Y-107430001D01*
X186068499Y-107436818D01*
X186068499Y-107585172D01*
X186068500Y-107585185D01*
X186068500Y-108141728D01*
X186048815Y-108208767D01*
X186047603Y-108210617D01*
X186004915Y-108274504D01*
X186004914Y-108274506D01*
X185948343Y-108411082D01*
X185948340Y-108411092D01*
X185919500Y-108556079D01*
X185919500Y-108688548D01*
X185899815Y-108755587D01*
X185847011Y-108801342D01*
X185842954Y-108803108D01*
X185828195Y-108809221D01*
X185828186Y-108809226D01*
X185713462Y-108885882D01*
X185713454Y-108885888D01*
X185615888Y-108983454D01*
X185615885Y-108983458D01*
X185539228Y-109098182D01*
X185539221Y-109098195D01*
X185486421Y-109225667D01*
X185486418Y-109225677D01*
X185459500Y-109361004D01*
X185459500Y-109361007D01*
X185459500Y-109498993D01*
X185459500Y-109498995D01*
X185459499Y-109498995D01*
X184581078Y-109498995D01*
X184599999Y-109403873D01*
X184600000Y-109403871D01*
X184600000Y-109256128D01*
X184599999Y-109256126D01*
X184571179Y-109111240D01*
X184571178Y-109111236D01*
X184527577Y-109005975D01*
X184203554Y-109329999D01*
X183950000Y-109329999D01*
X183950000Y-109310109D01*
X183934776Y-109273355D01*
X183906645Y-109245224D01*
X183869891Y-109230000D01*
X183830109Y-109230000D01*
X183793355Y-109245224D01*
X183765224Y-109273355D01*
X183750000Y-109310109D01*
X183476555Y-109310109D01*
X183350000Y-109183554D01*
X183203554Y-109330000D01*
X182950000Y-109330000D01*
X182950000Y-109310109D01*
X182934776Y-109273355D01*
X182906645Y-109245224D01*
X182869891Y-109230000D01*
X182830109Y-109230000D01*
X182793355Y-109245224D01*
X182765224Y-109273355D01*
X182750000Y-109310109D01*
X182476555Y-109310109D01*
X182350000Y-109183554D01*
X182203554Y-109330000D01*
X181950000Y-109330000D01*
X181950000Y-109310109D01*
X181934776Y-109273355D01*
X181906645Y-109245224D01*
X181869891Y-109230000D01*
X181830109Y-109230000D01*
X181793355Y-109245224D01*
X181765224Y-109273355D01*
X181750000Y-109310109D01*
X181476556Y-109310109D01*
X181172421Y-109005974D01*
X181172420Y-109005974D01*
X181128823Y-109111228D01*
X181128820Y-109111240D01*
X181100000Y-109256126D01*
X178595500Y-109256126D01*
X178595500Y-108999031D01*
X178615185Y-108931992D01*
X178631819Y-108911350D01*
X178713169Y-108830000D01*
X181703554Y-108830000D01*
X181850000Y-108976446D01*
X181996446Y-108830000D01*
X182703554Y-108830000D01*
X182850000Y-108976446D01*
X182996446Y-108830000D01*
X183703554Y-108830000D01*
X183850000Y-108976446D01*
X183996446Y-108830000D01*
X183850000Y-108683554D01*
X183703554Y-108830000D01*
X182996446Y-108830000D01*
X182850000Y-108683554D01*
X182703554Y-108830000D01*
X181996446Y-108830000D01*
X181850000Y-108683554D01*
X181703554Y-108830000D01*
X178713169Y-108830000D01*
X179226350Y-108316819D01*
X179287673Y-108283334D01*
X179314031Y-108280500D01*
X179343920Y-108280500D01*
X179466451Y-108256126D01*
X181100000Y-108256126D01*
X181100000Y-108403873D01*
X181128820Y-108548759D01*
X181128822Y-108548767D01*
X181172421Y-108654024D01*
X181496446Y-108330000D01*
X181496446Y-108329999D01*
X181476556Y-108310109D01*
X181750000Y-108310109D01*
X181750000Y-108349891D01*
X181765224Y-108386645D01*
X181793355Y-108414776D01*
X181830109Y-108430000D01*
X181869891Y-108430000D01*
X181906645Y-108414776D01*
X181934776Y-108386645D01*
X181950000Y-108349891D01*
X181950000Y-108330000D01*
X182203554Y-108330000D01*
X182350000Y-108476446D01*
X182496446Y-108330000D01*
X182476555Y-108310109D01*
X182750000Y-108310109D01*
X182750000Y-108349891D01*
X182765224Y-108386645D01*
X182793355Y-108414776D01*
X182830109Y-108430000D01*
X182869891Y-108430000D01*
X182906645Y-108414776D01*
X182934776Y-108386645D01*
X182950000Y-108349891D01*
X182950000Y-108330000D01*
X183203554Y-108330000D01*
X183350000Y-108476446D01*
X183496446Y-108330000D01*
X183476555Y-108310109D01*
X183750000Y-108310109D01*
X183750000Y-108349891D01*
X183765224Y-108386645D01*
X183793355Y-108414776D01*
X183830109Y-108430000D01*
X183869891Y-108430000D01*
X183906645Y-108414776D01*
X183934776Y-108386645D01*
X183950000Y-108349891D01*
X183950000Y-108329999D01*
X184203554Y-108329999D01*
X184203554Y-108330001D01*
X184527577Y-108654024D01*
X184527578Y-108654024D01*
X184571175Y-108548775D01*
X184571179Y-108548760D01*
X184599999Y-108403873D01*
X184600000Y-108403871D01*
X184600000Y-108256128D01*
X184599999Y-108256126D01*
X184571179Y-108111240D01*
X184571178Y-108111236D01*
X184527577Y-108005975D01*
X184203554Y-108329999D01*
X183950000Y-108329999D01*
X183950000Y-108310109D01*
X183934776Y-108273355D01*
X183906645Y-108245224D01*
X183869891Y-108230000D01*
X183830109Y-108230000D01*
X183793355Y-108245224D01*
X183765224Y-108273355D01*
X183750000Y-108310109D01*
X183476555Y-108310109D01*
X183350000Y-108183554D01*
X183203554Y-108330000D01*
X182950000Y-108330000D01*
X182950000Y-108310109D01*
X182934776Y-108273355D01*
X182906645Y-108245224D01*
X182869891Y-108230000D01*
X182830109Y-108230000D01*
X182793355Y-108245224D01*
X182765224Y-108273355D01*
X182750000Y-108310109D01*
X182476555Y-108310109D01*
X182350000Y-108183554D01*
X182203554Y-108330000D01*
X181950000Y-108330000D01*
X181950000Y-108310109D01*
X181934776Y-108273355D01*
X181906645Y-108245224D01*
X181869891Y-108230000D01*
X181830109Y-108230000D01*
X181793355Y-108245224D01*
X181765224Y-108273355D01*
X181750000Y-108310109D01*
X181476556Y-108310109D01*
X181172421Y-108005974D01*
X181172420Y-108005974D01*
X181128823Y-108111228D01*
X181128820Y-108111240D01*
X181100000Y-108256126D01*
X179466451Y-108256126D01*
X179488913Y-108251658D01*
X179625495Y-108195084D01*
X179649052Y-108179344D01*
X179697553Y-108146937D01*
X179719497Y-108132273D01*
X179748416Y-108112951D01*
X179852951Y-108008416D01*
X179935084Y-107885495D01*
X179958071Y-107830000D01*
X181703554Y-107830000D01*
X181850000Y-107976446D01*
X181996446Y-107830000D01*
X182703554Y-107830000D01*
X182850000Y-107976446D01*
X182996446Y-107830000D01*
X183703554Y-107830000D01*
X183850000Y-107976446D01*
X183996446Y-107830000D01*
X183850000Y-107683554D01*
X183703554Y-107830000D01*
X182996446Y-107830000D01*
X182850000Y-107683554D01*
X182703554Y-107830000D01*
X181996446Y-107830000D01*
X181850000Y-107683554D01*
X181703554Y-107830000D01*
X179958071Y-107830000D01*
X179991658Y-107748913D01*
X180004659Y-107683554D01*
X180020500Y-107603920D01*
X180020500Y-107456079D01*
X179991659Y-107311092D01*
X179991658Y-107311091D01*
X179991658Y-107311087D01*
X179968893Y-107256126D01*
X181100000Y-107256126D01*
X181100000Y-107403873D01*
X181128820Y-107548759D01*
X181128822Y-107548767D01*
X181172421Y-107654024D01*
X181496446Y-107330000D01*
X181496446Y-107329999D01*
X181476556Y-107310109D01*
X181750000Y-107310109D01*
X181750000Y-107349891D01*
X181765224Y-107386645D01*
X181793355Y-107414776D01*
X181830109Y-107430000D01*
X181869891Y-107430000D01*
X181906645Y-107414776D01*
X181934776Y-107386645D01*
X181950000Y-107349891D01*
X181950000Y-107330000D01*
X182203554Y-107330000D01*
X182350000Y-107476446D01*
X182496446Y-107330000D01*
X182476555Y-107310109D01*
X182750000Y-107310109D01*
X182750000Y-107349891D01*
X182765224Y-107386645D01*
X182793355Y-107414776D01*
X182830109Y-107430000D01*
X182869891Y-107430000D01*
X182906645Y-107414776D01*
X182934776Y-107386645D01*
X182950000Y-107349891D01*
X182950000Y-107330000D01*
X183203554Y-107330000D01*
X183350000Y-107476446D01*
X183496446Y-107330000D01*
X183476555Y-107310109D01*
X183750000Y-107310109D01*
X183750000Y-107349891D01*
X183765224Y-107386645D01*
X183793355Y-107414776D01*
X183830109Y-107430000D01*
X183869891Y-107430000D01*
X183906645Y-107414776D01*
X183934776Y-107386645D01*
X183950000Y-107349891D01*
X183950000Y-107329999D01*
X184203554Y-107329999D01*
X184203554Y-107330001D01*
X184527577Y-107654024D01*
X184527578Y-107654024D01*
X184571175Y-107548775D01*
X184571179Y-107548760D01*
X184599999Y-107403873D01*
X184600000Y-107403871D01*
X184600000Y-107256128D01*
X184599999Y-107256126D01*
X184571179Y-107111240D01*
X184571178Y-107111236D01*
X184527577Y-107005975D01*
X184203554Y-107329999D01*
X183950000Y-107329999D01*
X183950000Y-107310109D01*
X183934776Y-107273355D01*
X183906645Y-107245224D01*
X183869891Y-107230000D01*
X183830109Y-107230000D01*
X183793355Y-107245224D01*
X183765224Y-107273355D01*
X183750000Y-107310109D01*
X183476555Y-107310109D01*
X183350000Y-107183554D01*
X183203554Y-107330000D01*
X182950000Y-107330000D01*
X182950000Y-107310109D01*
X182934776Y-107273355D01*
X182906645Y-107245224D01*
X182869891Y-107230000D01*
X182830109Y-107230000D01*
X182793355Y-107245224D01*
X182765224Y-107273355D01*
X182750000Y-107310109D01*
X182476555Y-107310109D01*
X182350000Y-107183554D01*
X182203554Y-107330000D01*
X181950000Y-107330000D01*
X181950000Y-107310109D01*
X181934776Y-107273355D01*
X181906645Y-107245224D01*
X181869891Y-107230000D01*
X181830109Y-107230000D01*
X181793355Y-107245224D01*
X181765224Y-107273355D01*
X181750000Y-107310109D01*
X181476556Y-107310109D01*
X181172421Y-107005974D01*
X181172420Y-107005974D01*
X181128823Y-107111228D01*
X181128820Y-107111240D01*
X181100000Y-107256126D01*
X179968893Y-107256126D01*
X179938743Y-107183338D01*
X179935085Y-107174507D01*
X179935080Y-107174498D01*
X179852951Y-107051584D01*
X179852948Y-107051580D01*
X179748419Y-106947051D01*
X179748415Y-106947048D01*
X179625501Y-106864919D01*
X179625488Y-106864912D01*
X179488918Y-106808343D01*
X179488907Y-106808340D01*
X179343920Y-106779500D01*
X179343918Y-106779500D01*
X179196082Y-106779500D01*
X179196080Y-106779500D01*
X179051092Y-106808340D01*
X179051082Y-106808343D01*
X178914511Y-106864912D01*
X178914498Y-106864919D01*
X178791584Y-106947048D01*
X178791580Y-106947051D01*
X178687051Y-107051580D01*
X178687048Y-107051584D01*
X178604919Y-107174498D01*
X178604912Y-107174511D01*
X178548343Y-107311082D01*
X178548340Y-107311092D01*
X178519500Y-107456079D01*
X178519500Y-107485968D01*
X178499815Y-107553007D01*
X178483181Y-107573649D01*
X177649496Y-108407333D01*
X177649492Y-108407338D01*
X177580311Y-108527163D01*
X177580312Y-108527163D01*
X177580312Y-108527164D01*
X177580312Y-108527165D01*
X177547691Y-108648907D01*
X177544499Y-108660818D01*
X177544499Y-108809172D01*
X177544500Y-108809185D01*
X177544500Y-116942770D01*
X177524815Y-117009809D01*
X177508181Y-117030451D01*
X177487051Y-117051580D01*
X177487048Y-117051584D01*
X177404919Y-117174498D01*
X177404912Y-117174511D01*
X177348343Y-117311082D01*
X177348340Y-117311092D01*
X177319500Y-117456079D01*
X177319500Y-117456082D01*
X177319500Y-117603918D01*
X177319500Y-117603920D01*
X177319499Y-117603920D01*
X148839249Y-117603920D01*
X149451350Y-116991819D01*
X149512673Y-116958334D01*
X149539031Y-116955500D01*
X150982770Y-116955500D01*
X151049809Y-116975185D01*
X151070451Y-116991819D01*
X151091580Y-117012948D01*
X151091584Y-117012951D01*
X151214498Y-117095080D01*
X151214511Y-117095087D01*
X151351082Y-117151656D01*
X151351087Y-117151658D01*
X151351091Y-117151658D01*
X151351092Y-117151659D01*
X151496079Y-117180500D01*
X151496082Y-117180500D01*
X151643920Y-117180500D01*
X151741462Y-117161096D01*
X151788913Y-117151658D01*
X151925495Y-117095084D01*
X152048416Y-117012951D01*
X152152951Y-116908416D01*
X152235084Y-116785495D01*
X152268873Y-116703920D01*
X157619499Y-116703920D01*
X157648340Y-116848907D01*
X157648343Y-116848917D01*
X157704912Y-116985488D01*
X157704919Y-116985501D01*
X157787048Y-117108415D01*
X157787051Y-117108419D01*
X157891580Y-117212948D01*
X157891584Y-117212951D01*
X158014498Y-117295080D01*
X158014511Y-117295087D01*
X158151082Y-117351656D01*
X158151087Y-117351658D01*
X158151091Y-117351658D01*
X158151092Y-117351659D01*
X158296079Y-117380500D01*
X158296082Y-117380500D01*
X158443920Y-117380500D01*
X158541462Y-117361096D01*
X158588913Y-117351658D01*
X158725495Y-117295084D01*
X158848416Y-117212951D01*
X158952951Y-117108416D01*
X159035084Y-116985495D01*
X159091658Y-116848913D01*
X159120500Y-116703918D01*
X159120500Y-116556082D01*
X159120500Y-116556079D01*
X159091659Y-116411092D01*
X159091658Y-116411091D01*
X159091658Y-116411087D01*
X159068873Y-116356079D01*
X159035087Y-116274511D01*
X159035080Y-116274498D01*
X158952951Y-116151584D01*
X158952948Y-116151580D01*
X158848419Y-116047051D01*
X158848415Y-116047048D01*
X158725501Y-115964919D01*
X158725488Y-115964912D01*
X158588917Y-115908343D01*
X158588907Y-115908340D01*
X158443920Y-115879500D01*
X158443918Y-115879500D01*
X158296082Y-115879500D01*
X158296080Y-115879500D01*
X158151092Y-115908340D01*
X158151082Y-115908343D01*
X158014511Y-115964912D01*
X158014498Y-115964919D01*
X157891584Y-116047048D01*
X157891580Y-116047051D01*
X157787051Y-116151580D01*
X157787048Y-116151584D01*
X157704919Y-116274498D01*
X157704912Y-116274511D01*
X157648343Y-116411082D01*
X157648340Y-116411092D01*
X157619500Y-116556079D01*
X157619500Y-116556082D01*
X157619500Y-116703918D01*
X157619500Y-116703920D01*
X157619499Y-116703920D01*
X152268873Y-116703920D01*
X152291658Y-116648913D01*
X152320500Y-116503918D01*
X152320500Y-116356082D01*
X152320500Y-116356079D01*
X152291659Y-116211092D01*
X152291658Y-116211091D01*
X152291658Y-116211087D01*
X152267011Y-116151584D01*
X152235087Y-116074511D01*
X152235080Y-116074498D01*
X152152951Y-115951584D01*
X152152948Y-115951580D01*
X152048419Y-115847051D01*
X152048415Y-115847048D01*
X151925501Y-115764919D01*
X151925488Y-115764912D01*
X151788917Y-115708343D01*
X151788907Y-115708340D01*
X151643920Y-115679500D01*
X151643918Y-115679500D01*
X151496082Y-115679500D01*
X151496080Y-115679500D01*
X151351092Y-115708340D01*
X151351082Y-115708343D01*
X151214511Y-115764912D01*
X151214498Y-115764919D01*
X151091584Y-115847048D01*
X151091580Y-115847051D01*
X151070451Y-115868181D01*
X151009128Y-115901666D01*
X150982770Y-115904500D01*
X149339183Y-115904500D01*
X149200816Y-115904500D01*
X149188169Y-115907888D01*
X149186474Y-115908343D01*
X149186473Y-115908342D01*
X149067162Y-115940312D01*
X149067161Y-115940313D01*
X148947338Y-116009492D01*
X148947333Y-116009496D01*
X148849493Y-116107337D01*
X147813650Y-117143181D01*
X147752327Y-117176666D01*
X147725969Y-117179500D01*
X147696080Y-117179500D01*
X147551092Y-117208340D01*
X147551082Y-117208343D01*
X147414511Y-117264912D01*
X147414498Y-117264919D01*
X147291584Y-117347048D01*
X147291580Y-117347051D01*
X147187051Y-117451580D01*
X147187048Y-117451584D01*
X147104919Y-117574498D01*
X147104912Y-117574511D01*
X147048343Y-117711082D01*
X147048340Y-117711092D01*
X147019500Y-117856079D01*
X147019500Y-117856082D01*
X147019500Y-118003918D01*
X147019500Y-118003920D01*
X147019499Y-118003920D01*
X106970500Y-118003920D01*
X106970500Y-114865441D01*
X110769500Y-114865441D01*
X110769500Y-115114558D01*
X110769501Y-115114575D01*
X110802017Y-115361561D01*
X110866498Y-115602207D01*
X110961830Y-115832361D01*
X110961837Y-115832376D01*
X111086400Y-116048126D01*
X111238060Y-116245774D01*
X111238066Y-116245781D01*
X111414218Y-116421933D01*
X111414225Y-116421939D01*
X111611873Y-116573599D01*
X111827623Y-116698162D01*
X111827638Y-116698169D01*
X111926825Y-116739253D01*
X112057793Y-116793502D01*
X112298435Y-116857982D01*
X112545435Y-116890500D01*
X112545442Y-116890500D01*
X112794558Y-116890500D01*
X112794565Y-116890500D01*
X113041565Y-116857982D01*
X113282207Y-116793502D01*
X113512373Y-116698164D01*
X113728127Y-116573599D01*
X113925776Y-116421938D01*
X114101938Y-116245776D01*
X114253599Y-116048127D01*
X114378164Y-115832373D01*
X114473502Y-115602207D01*
X114537982Y-115361565D01*
X114570500Y-115114565D01*
X114570500Y-114865435D01*
X114537982Y-114618435D01*
X114473502Y-114377793D01*
X114379803Y-114151584D01*
X114378169Y-114147638D01*
X114378162Y-114147623D01*
X114253599Y-113931873D01*
X114101939Y-113734225D01*
X114101933Y-113734218D01*
X113925781Y-113558066D01*
X113925774Y-113558060D01*
X113728126Y-113406400D01*
X113512376Y-113281837D01*
X113512361Y-113281830D01*
X113282207Y-113186498D01*
X113041561Y-113122017D01*
X112794575Y-113089501D01*
X112794570Y-113089500D01*
X112794565Y-113089500D01*
X112545435Y-113089500D01*
X112545429Y-113089500D01*
X112545424Y-113089501D01*
X112298438Y-113122017D01*
X112057792Y-113186498D01*
X111827638Y-113281830D01*
X111827623Y-113281837D01*
X111611873Y-113406400D01*
X111414225Y-113558060D01*
X111414218Y-113558066D01*
X111238066Y-113734218D01*
X111238060Y-113734225D01*
X111086400Y-113931873D01*
X110961837Y-114147623D01*
X110961830Y-114147638D01*
X110866498Y-114377792D01*
X110802017Y-114618438D01*
X110769501Y-114865424D01*
X110769500Y-114865441D01*
X106970500Y-114865441D01*
X106970500Y-105075000D01*
X108530000Y-105075000D01*
X108530000Y-105065690D01*
X114144938Y-105040104D01*
X114212063Y-105059483D01*
X114258058Y-105112078D01*
X114269500Y-105164103D01*
X114269500Y-107902174D01*
X114267973Y-107921572D01*
X114262346Y-107957098D01*
X114244499Y-108069778D01*
X114244499Y-108290222D01*
X114263049Y-108407338D01*
X114278985Y-108507952D01*
X114347103Y-108717603D01*
X114347104Y-108717606D01*
X114413060Y-108847049D01*
X114447185Y-108914022D01*
X114576758Y-109092364D01*
X114732636Y-109248242D01*
X114910978Y-109377815D01*
X115007313Y-109426900D01*
X115107393Y-109477895D01*
X115107396Y-109477896D01*
X115172328Y-109498993D01*
X115317049Y-109546015D01*
X115534778Y-109580501D01*
X115534779Y-109580501D01*
X115755221Y-109580501D01*
X115755222Y-109580501D01*
X115972951Y-109546015D01*
X116182606Y-109477895D01*
X116379022Y-109377815D01*
X116557364Y-109248242D01*
X116575290Y-109230315D01*
X116575297Y-109230310D01*
X116653951Y-109151656D01*
X116738242Y-109067365D01*
X116867815Y-108889022D01*
X116967895Y-108692606D01*
X117036015Y-108482951D01*
X117070500Y-108265222D01*
X117070500Y-107803920D01*
X120619499Y-107803920D01*
X120648340Y-107948907D01*
X120648343Y-107948917D01*
X120704912Y-108085488D01*
X120704919Y-108085501D01*
X120787048Y-108208415D01*
X120787051Y-108208419D01*
X120891580Y-108312948D01*
X120891588Y-108312954D01*
X121014494Y-108395077D01*
X121014498Y-108395079D01*
X121014505Y-108395084D01*
X121035095Y-108403612D01*
X121075322Y-108430491D01*
X127695335Y-115050505D01*
X127695336Y-115050506D01*
X127695338Y-115050507D01*
X127815161Y-115119687D01*
X127815162Y-115119687D01*
X127815165Y-115119689D01*
X127948817Y-115155501D01*
X127948819Y-115155501D01*
X128094779Y-115155501D01*
X128094795Y-115155500D01*
X132782770Y-115155500D01*
X132849809Y-115175185D01*
X132870451Y-115191819D01*
X132891580Y-115212948D01*
X132891584Y-115212951D01*
X133014498Y-115295080D01*
X133014511Y-115295087D01*
X133151082Y-115351656D01*
X133151087Y-115351658D01*
X133151091Y-115351658D01*
X133151092Y-115351659D01*
X133296079Y-115380500D01*
X133296082Y-115380500D01*
X133443920Y-115380500D01*
X133541462Y-115361096D01*
X133588913Y-115351658D01*
X133725495Y-115295084D01*
X133848416Y-115212951D01*
X133952951Y-115108416D01*
X134035084Y-114985495D01*
X134091658Y-114848913D01*
X134110239Y-114755501D01*
X134120500Y-114703920D01*
X143019499Y-114703920D01*
X143048340Y-114848907D01*
X143048343Y-114848917D01*
X143104912Y-114985488D01*
X143104919Y-114985501D01*
X143187048Y-115108415D01*
X143187051Y-115108419D01*
X143291580Y-115212948D01*
X143291584Y-115212951D01*
X143414498Y-115295080D01*
X143414511Y-115295087D01*
X143551082Y-115351656D01*
X143551087Y-115351658D01*
X143551091Y-115351658D01*
X143551092Y-115351659D01*
X143696079Y-115380500D01*
X143696082Y-115380500D01*
X143843920Y-115380500D01*
X143941462Y-115361096D01*
X143988913Y-115351658D01*
X144125495Y-115295084D01*
X144248416Y-115212951D01*
X144352951Y-115108416D01*
X144435084Y-114985495D01*
X144491658Y-114848913D01*
X144510239Y-114755501D01*
X144520500Y-114703920D01*
X144520500Y-114674030D01*
X144540185Y-114606991D01*
X144556814Y-114586354D01*
X150481318Y-108661849D01*
X150542641Y-108628365D01*
X150612333Y-108633349D01*
X150656680Y-108661850D01*
X156815335Y-114820505D01*
X156815336Y-114820506D01*
X156815338Y-114820507D01*
X156935161Y-114889687D01*
X156935162Y-114889687D01*
X156935165Y-114889689D01*
X157068817Y-114925501D01*
X157068819Y-114925501D01*
X157214780Y-114925501D01*
X157214796Y-114925500D01*
X157858770Y-114925500D01*
X157925809Y-114945185D01*
X157946451Y-114961819D01*
X157967580Y-114982948D01*
X157967584Y-114982951D01*
X158090498Y-115065080D01*
X158090511Y-115065087D01*
X158222333Y-115119689D01*
X158227087Y-115121658D01*
X158227091Y-115121658D01*
X158227092Y-115121659D01*
X158372079Y-115150500D01*
X158372082Y-115150500D01*
X158519920Y-115150500D01*
X158617462Y-115131096D01*
X158664913Y-115121658D01*
X158801495Y-115065084D01*
X158924416Y-114982951D01*
X158924419Y-114982948D01*
X158945549Y-114961819D01*
X159006872Y-114928334D01*
X159033230Y-114925500D01*
X161712770Y-114925500D01*
X161779809Y-114945185D01*
X161800451Y-114961819D01*
X161821580Y-114982948D01*
X161821584Y-114982951D01*
X161944498Y-115065080D01*
X161944511Y-115065087D01*
X162076333Y-115119689D01*
X162081087Y-115121658D01*
X162081091Y-115121658D01*
X162081092Y-115121659D01*
X162226079Y-115150500D01*
X162226082Y-115150500D01*
X162373920Y-115150500D01*
X162471462Y-115131096D01*
X162518913Y-115121658D01*
X162655495Y-115065084D01*
X162778416Y-114982951D01*
X162882951Y-114878416D01*
X162965084Y-114755495D01*
X163021658Y-114618913D01*
X163050500Y-114473918D01*
X163050500Y-114326082D01*
X163050500Y-114326079D01*
X163021659Y-114181092D01*
X163021658Y-114181091D01*
X163021658Y-114181087D01*
X163021656Y-114181082D01*
X162965087Y-114044511D01*
X162965080Y-114044498D01*
X162882951Y-113921584D01*
X162882948Y-113921580D01*
X162778419Y-113817051D01*
X162778415Y-113817048D01*
X162655501Y-113734919D01*
X162655488Y-113734912D01*
X162518917Y-113678343D01*
X162518907Y-113678340D01*
X162373920Y-113649500D01*
X162373918Y-113649500D01*
X162226082Y-113649500D01*
X162226080Y-113649500D01*
X162081092Y-113678340D01*
X162081082Y-113678343D01*
X161944511Y-113734912D01*
X161944498Y-113734919D01*
X161821584Y-113817048D01*
X161821580Y-113817051D01*
X161800451Y-113838181D01*
X161739128Y-113871666D01*
X161712770Y-113874500D01*
X159886230Y-113874500D01*
X159819191Y-113854815D01*
X159773436Y-113802011D01*
X159763492Y-113732853D01*
X159792517Y-113669297D01*
X159798549Y-113662819D01*
X159802948Y-113658419D01*
X159802951Y-113658416D01*
X159885084Y-113535495D01*
X159941658Y-113398913D01*
X159964220Y-113285488D01*
X159970500Y-113253920D01*
X159970500Y-113106079D01*
X159941659Y-112961092D01*
X159941658Y-112961091D01*
X159941658Y-112961087D01*
X159898164Y-112856082D01*
X159885087Y-112824511D01*
X159885080Y-112824498D01*
X159802951Y-112701584D01*
X159802948Y-112701580D01*
X159781819Y-112680451D01*
X159748334Y-112619128D01*
X159745500Y-112592770D01*
X159745500Y-110110819D01*
X159745500Y-110110817D01*
X159714417Y-109994813D01*
X159716080Y-109924967D01*
X159755242Y-109867104D01*
X159819471Y-109839600D01*
X159888373Y-109851186D01*
X159921873Y-109875042D01*
X160408181Y-110361350D01*
X160441666Y-110422673D01*
X160444500Y-110449031D01*
X160444500Y-110842770D01*
X160424815Y-110909809D01*
X160408181Y-110930451D01*
X160387051Y-110951580D01*
X160387048Y-110951584D01*
X160304919Y-111074498D01*
X160304912Y-111074511D01*
X160248343Y-111211082D01*
X160248340Y-111211092D01*
X160219500Y-111356079D01*
X160219500Y-111356082D01*
X160219500Y-111503918D01*
X160219500Y-111503920D01*
X160219499Y-111503920D01*
X160248340Y-111648907D01*
X160248343Y-111648917D01*
X160304912Y-111785488D01*
X160304919Y-111785501D01*
X160387048Y-111908415D01*
X160387051Y-111908419D01*
X160491580Y-112012948D01*
X160491584Y-112012951D01*
X160614498Y-112095080D01*
X160614511Y-112095087D01*
X160751082Y-112151656D01*
X160751087Y-112151658D01*
X160751091Y-112151658D01*
X160751092Y-112151659D01*
X160896079Y-112180500D01*
X160896082Y-112180500D01*
X161043920Y-112180500D01*
X161147906Y-112159815D01*
X161188913Y-112151658D01*
X161325495Y-112095084D01*
X161448416Y-112012951D01*
X161552951Y-111908416D01*
X161635084Y-111785495D01*
X161691658Y-111648913D01*
X161720500Y-111503918D01*
X161720500Y-111356082D01*
X161720500Y-111356079D01*
X161691659Y-111211092D01*
X161691658Y-111211091D01*
X161691658Y-111211087D01*
X161691656Y-111211082D01*
X161635087Y-111074511D01*
X161635080Y-111074498D01*
X161552951Y-110951584D01*
X161552948Y-110951580D01*
X161531819Y-110930451D01*
X161498334Y-110869128D01*
X161495500Y-110842770D01*
X161495500Y-110259186D01*
X161495501Y-110259173D01*
X161495501Y-110110819D01*
X161495501Y-110110817D01*
X161459689Y-109977165D01*
X161429552Y-109924967D01*
X161390507Y-109857338D01*
X161390502Y-109857332D01*
X159506819Y-107973649D01*
X159473334Y-107912326D01*
X159470500Y-107885968D01*
X159470500Y-107856079D01*
X159441659Y-107711092D01*
X159441658Y-107711091D01*
X159441658Y-107711087D01*
X159435618Y-107696505D01*
X159385087Y-107574511D01*
X159385080Y-107574498D01*
X159302951Y-107451584D01*
X159302948Y-107451580D01*
X159198419Y-107347051D01*
X159198415Y-107347048D01*
X159075501Y-107264919D01*
X159075488Y-107264912D01*
X158938917Y-107208343D01*
X158938907Y-107208340D01*
X158793920Y-107179500D01*
X158793918Y-107179500D01*
X158646082Y-107179500D01*
X158646080Y-107179500D01*
X158501092Y-107208340D01*
X158501082Y-107208343D01*
X158364511Y-107264912D01*
X158364498Y-107264919D01*
X158241584Y-107347048D01*
X158241580Y-107347051D01*
X158137051Y-107451580D01*
X158137048Y-107451584D01*
X158054919Y-107574498D01*
X158054912Y-107574511D01*
X157998343Y-107711082D01*
X157998340Y-107711092D01*
X157969500Y-107856079D01*
X157969500Y-107856082D01*
X157969500Y-108003918D01*
X157969500Y-108003920D01*
X157969499Y-108003920D01*
X157998340Y-108148907D01*
X157998343Y-108148917D01*
X158054912Y-108285488D01*
X158054919Y-108285501D01*
X158137048Y-108408415D01*
X158137051Y-108408419D01*
X158241578Y-108512946D01*
X158243073Y-108514173D01*
X158243645Y-108515013D01*
X158245891Y-108517259D01*
X158245465Y-108517684D01*
X158282408Y-108571918D01*
X158284280Y-108641763D01*
X158248094Y-108701532D01*
X158211863Y-108724589D01*
X158114507Y-108764914D01*
X158114498Y-108764919D01*
X157991584Y-108847048D01*
X157991580Y-108847051D01*
X157887051Y-108951580D01*
X157887048Y-108951584D01*
X157804919Y-109074498D01*
X157804912Y-109074511D01*
X157748343Y-109211082D01*
X157748340Y-109211092D01*
X157719500Y-109356079D01*
X157719500Y-109356082D01*
X157719500Y-109503918D01*
X157719500Y-109503920D01*
X157719499Y-109503920D01*
X157748340Y-109648907D01*
X157748343Y-109648917D01*
X157804912Y-109785488D01*
X157804919Y-109785501D01*
X157887048Y-109908415D01*
X157887051Y-109908419D01*
X157991580Y-110012948D01*
X157991584Y-110012951D01*
X158114498Y-110095080D01*
X158114511Y-110095087D01*
X158251082Y-110151656D01*
X158251087Y-110151658D01*
X158251091Y-110151658D01*
X158251092Y-110151659D01*
X158396079Y-110180500D01*
X158396082Y-110180500D01*
X158425969Y-110180500D01*
X158455409Y-110189144D01*
X158485396Y-110195668D01*
X158490411Y-110199422D01*
X158493008Y-110200185D01*
X158513650Y-110216819D01*
X158658181Y-110361350D01*
X158691666Y-110422673D01*
X158694500Y-110449031D01*
X158694500Y-112592770D01*
X158674815Y-112659809D01*
X158658181Y-112680451D01*
X158637051Y-112701580D01*
X158637048Y-112701584D01*
X158554919Y-112824498D01*
X158554912Y-112824511D01*
X158498343Y-112961082D01*
X158498340Y-112961092D01*
X158469500Y-113106079D01*
X158469500Y-113106082D01*
X158469500Y-113253918D01*
X158469500Y-113253920D01*
X158469499Y-113253920D01*
X158498340Y-113398907D01*
X158498343Y-113398917D01*
X158531120Y-113478048D01*
X158538589Y-113547517D01*
X158507313Y-113609996D01*
X158447224Y-113645648D01*
X158416559Y-113649500D01*
X158372080Y-113649500D01*
X158227092Y-113678340D01*
X158227082Y-113678343D01*
X158090511Y-113734912D01*
X158090498Y-113734919D01*
X157967584Y-113817048D01*
X157967580Y-113817051D01*
X157946451Y-113838181D01*
X157885128Y-113871666D01*
X157858770Y-113874500D01*
X157407032Y-113874500D01*
X157339993Y-113854815D01*
X157319351Y-113838181D01*
X153581719Y-110100549D01*
X153548234Y-110039226D01*
X153547986Y-110011540D01*
X153544023Y-110007577D01*
X153895975Y-110007577D01*
X154001236Y-110051178D01*
X154001240Y-110051179D01*
X154146126Y-110079999D01*
X154146129Y-110080000D01*
X154293871Y-110080000D01*
X154293873Y-110079999D01*
X154438760Y-110051179D01*
X154438775Y-110051175D01*
X154544024Y-110007578D01*
X154544024Y-110007577D01*
X154895975Y-110007577D01*
X155001236Y-110051178D01*
X155001240Y-110051179D01*
X155146126Y-110079999D01*
X155146129Y-110080000D01*
X155293871Y-110080000D01*
X155293873Y-110079999D01*
X155438760Y-110051179D01*
X155438775Y-110051175D01*
X155544024Y-110007578D01*
X155544024Y-110007577D01*
X155220001Y-109683554D01*
X155220000Y-109683554D01*
X154895975Y-110007577D01*
X154544024Y-110007577D01*
X154220001Y-109683554D01*
X154220000Y-109683554D01*
X153895975Y-110007577D01*
X153544023Y-110007577D01*
X152846555Y-109310109D01*
X153120000Y-109310109D01*
X153120000Y-109349891D01*
X153135224Y-109386645D01*
X153163355Y-109414776D01*
X153200109Y-109430000D01*
X153239891Y-109430000D01*
X153276645Y-109414776D01*
X153304776Y-109386645D01*
X153320000Y-109349891D01*
X153320000Y-109330000D01*
X153573554Y-109330000D01*
X153720000Y-109476446D01*
X153866446Y-109330000D01*
X153846555Y-109310109D01*
X154120000Y-109310109D01*
X154120000Y-109349891D01*
X154135224Y-109386645D01*
X154163355Y-109414776D01*
X154200109Y-109430000D01*
X154239891Y-109430000D01*
X154276645Y-109414776D01*
X154304776Y-109386645D01*
X154320000Y-109349891D01*
X154320000Y-109330000D01*
X154573554Y-109330000D01*
X154720000Y-109476446D01*
X154866446Y-109330000D01*
X154846555Y-109310109D01*
X155120000Y-109310109D01*
X155120000Y-109349891D01*
X155135224Y-109386645D01*
X155163355Y-109414776D01*
X155200109Y-109430000D01*
X155239891Y-109430000D01*
X155276645Y-109414776D01*
X155304776Y-109386645D01*
X155320000Y-109349891D01*
X155320000Y-109329999D01*
X155573554Y-109329999D01*
X155573554Y-109330001D01*
X155897577Y-109654024D01*
X155897578Y-109654024D01*
X155941175Y-109548775D01*
X155941179Y-109548760D01*
X155969999Y-109403873D01*
X155970000Y-109403871D01*
X155970000Y-109256128D01*
X155969999Y-109256126D01*
X155941179Y-109111240D01*
X155941178Y-109111236D01*
X155897577Y-109005975D01*
X155573554Y-109329999D01*
X155320000Y-109329999D01*
X155320000Y-109310109D01*
X155304776Y-109273355D01*
X155276645Y-109245224D01*
X155239891Y-109230000D01*
X155200109Y-109230000D01*
X155163355Y-109245224D01*
X155135224Y-109273355D01*
X155120000Y-109310109D01*
X154846555Y-109310109D01*
X154720000Y-109183554D01*
X154573554Y-109330000D01*
X154320000Y-109330000D01*
X154320000Y-109310109D01*
X154304776Y-109273355D01*
X154276645Y-109245224D01*
X154239891Y-109230000D01*
X154200109Y-109230000D01*
X154163355Y-109245224D01*
X154135224Y-109273355D01*
X154120000Y-109310109D01*
X153846555Y-109310109D01*
X153720000Y-109183554D01*
X153573554Y-109330000D01*
X153320000Y-109330000D01*
X153320000Y-109310109D01*
X153304776Y-109273355D01*
X153276645Y-109245224D01*
X153239891Y-109230000D01*
X153200109Y-109230000D01*
X153163355Y-109245224D01*
X153135224Y-109273355D01*
X153120000Y-109310109D01*
X152846555Y-109310109D01*
X152536434Y-108999988D01*
X152491728Y-108995988D01*
X152449448Y-108968279D01*
X152311169Y-108830000D01*
X153073554Y-108830000D01*
X153220000Y-108976446D01*
X153366446Y-108830000D01*
X154073554Y-108830000D01*
X154220000Y-108976446D01*
X154366446Y-108830000D01*
X155073554Y-108830000D01*
X155220000Y-108976446D01*
X155366446Y-108830000D01*
X155220000Y-108683554D01*
X155073554Y-108830000D01*
X154366446Y-108830000D01*
X154220000Y-108683554D01*
X154073554Y-108830000D01*
X153366446Y-108830000D01*
X153220000Y-108683554D01*
X153073554Y-108830000D01*
X152311169Y-108830000D01*
X151737295Y-108256126D01*
X152470000Y-108256126D01*
X152470000Y-108403873D01*
X152498820Y-108548759D01*
X152498822Y-108548767D01*
X152542421Y-108654024D01*
X152866446Y-108330000D01*
X152866446Y-108329999D01*
X152846556Y-108310109D01*
X153120000Y-108310109D01*
X153120000Y-108349891D01*
X153135224Y-108386645D01*
X153163355Y-108414776D01*
X153200109Y-108430000D01*
X153239891Y-108430000D01*
X153276645Y-108414776D01*
X153304776Y-108386645D01*
X153320000Y-108349891D01*
X153320000Y-108330000D01*
X153573554Y-108330000D01*
X153720000Y-108476446D01*
X153866446Y-108330000D01*
X153846555Y-108310109D01*
X154120000Y-108310109D01*
X154120000Y-108349891D01*
X154135224Y-108386645D01*
X154163355Y-108414776D01*
X154200109Y-108430000D01*
X154239891Y-108430000D01*
X154276645Y-108414776D01*
X154304776Y-108386645D01*
X154320000Y-108349891D01*
X154320000Y-108330000D01*
X154573554Y-108330000D01*
X154720000Y-108476446D01*
X154866446Y-108330000D01*
X154846555Y-108310109D01*
X155120000Y-108310109D01*
X155120000Y-108349891D01*
X155135224Y-108386645D01*
X155163355Y-108414776D01*
X155200109Y-108430000D01*
X155239891Y-108430000D01*
X155276645Y-108414776D01*
X155304776Y-108386645D01*
X155320000Y-108349891D01*
X155320000Y-108329999D01*
X155573554Y-108329999D01*
X155573554Y-108330001D01*
X155897577Y-108654024D01*
X155897578Y-108654024D01*
X155941175Y-108548775D01*
X155941179Y-108548760D01*
X155969999Y-108403873D01*
X155970000Y-108403871D01*
X155970000Y-108256128D01*
X155969999Y-108256126D01*
X155941179Y-108111240D01*
X155941178Y-108111236D01*
X155897577Y-108005975D01*
X155573554Y-108329999D01*
X155320000Y-108329999D01*
X155320000Y-108310109D01*
X155304776Y-108273355D01*
X155276645Y-108245224D01*
X155239891Y-108230000D01*
X155200109Y-108230000D01*
X155163355Y-108245224D01*
X155135224Y-108273355D01*
X155120000Y-108310109D01*
X154846555Y-108310109D01*
X154720000Y-108183554D01*
X154573554Y-108330000D01*
X154320000Y-108330000D01*
X154320000Y-108310109D01*
X154304776Y-108273355D01*
X154276645Y-108245224D01*
X154239891Y-108230000D01*
X154200109Y-108230000D01*
X154163355Y-108245224D01*
X154135224Y-108273355D01*
X154120000Y-108310109D01*
X153846555Y-108310109D01*
X153720000Y-108183554D01*
X153573554Y-108330000D01*
X153320000Y-108330000D01*
X153320000Y-108310109D01*
X153304776Y-108273355D01*
X153276645Y-108245224D01*
X153239891Y-108230000D01*
X153200109Y-108230000D01*
X153163355Y-108245224D01*
X153135224Y-108273355D01*
X153120000Y-108310109D01*
X152846556Y-108310109D01*
X152542421Y-108005974D01*
X152542420Y-108005974D01*
X152498823Y-108111228D01*
X152498820Y-108111240D01*
X152470000Y-108256126D01*
X151737295Y-108256126D01*
X151548121Y-108066952D01*
X151514636Y-108005629D01*
X151519620Y-107935937D01*
X151521211Y-107931891D01*
X151558653Y-107841500D01*
X151560941Y-107830000D01*
X153073554Y-107830000D01*
X153220000Y-107976446D01*
X153366446Y-107830000D01*
X154073554Y-107830000D01*
X154220000Y-107976446D01*
X154366446Y-107830000D01*
X155073554Y-107830000D01*
X155220000Y-107976446D01*
X155366446Y-107830000D01*
X155220000Y-107683554D01*
X155073554Y-107830000D01*
X154366446Y-107830000D01*
X154220000Y-107683554D01*
X154073554Y-107830000D01*
X153366446Y-107830000D01*
X153220000Y-107683554D01*
X153073554Y-107830000D01*
X151560941Y-107830000D01*
X151575645Y-107756079D01*
X151587495Y-107696507D01*
X151587495Y-107548666D01*
X151558654Y-107403679D01*
X151558653Y-107403678D01*
X151558653Y-107403674D01*
X151508898Y-107283554D01*
X151502082Y-107267098D01*
X151502075Y-107267085D01*
X151494752Y-107256126D01*
X152470000Y-107256126D01*
X152470000Y-107403873D01*
X152498820Y-107548759D01*
X152498822Y-107548767D01*
X152542421Y-107654024D01*
X152866446Y-107330000D01*
X152866446Y-107329999D01*
X152846556Y-107310109D01*
X153120000Y-107310109D01*
X153120000Y-107349891D01*
X153135224Y-107386645D01*
X153163355Y-107414776D01*
X153200109Y-107430000D01*
X153239891Y-107430000D01*
X153276645Y-107414776D01*
X153304776Y-107386645D01*
X153320000Y-107349891D01*
X153320000Y-107330000D01*
X153573554Y-107330000D01*
X153720000Y-107476446D01*
X153866446Y-107330000D01*
X153846555Y-107310109D01*
X154120000Y-107310109D01*
X154120000Y-107349891D01*
X154135224Y-107386645D01*
X154163355Y-107414776D01*
X154200109Y-107430000D01*
X154239891Y-107430000D01*
X154276645Y-107414776D01*
X154304776Y-107386645D01*
X154320000Y-107349891D01*
X154320000Y-107330000D01*
X154573554Y-107330000D01*
X154720000Y-107476446D01*
X154866446Y-107330000D01*
X154846555Y-107310109D01*
X155120000Y-107310109D01*
X155120000Y-107349891D01*
X155135224Y-107386645D01*
X155163355Y-107414776D01*
X155200109Y-107430000D01*
X155239891Y-107430000D01*
X155276645Y-107414776D01*
X155304776Y-107386645D01*
X155320000Y-107349891D01*
X155320000Y-107329999D01*
X155573554Y-107329999D01*
X155573554Y-107330001D01*
X155897577Y-107654024D01*
X155897578Y-107654024D01*
X155941175Y-107548775D01*
X155941179Y-107548760D01*
X155969999Y-107403873D01*
X155970000Y-107403871D01*
X155970000Y-107256128D01*
X155969999Y-107256126D01*
X155941179Y-107111240D01*
X155941178Y-107111236D01*
X155897577Y-107005975D01*
X155573554Y-107329999D01*
X155320000Y-107329999D01*
X155320000Y-107310109D01*
X155304776Y-107273355D01*
X155276645Y-107245224D01*
X155239891Y-107230000D01*
X155200109Y-107230000D01*
X155163355Y-107245224D01*
X155135224Y-107273355D01*
X155120000Y-107310109D01*
X154846555Y-107310109D01*
X154720000Y-107183554D01*
X154573554Y-107330000D01*
X154320000Y-107330000D01*
X154320000Y-107310109D01*
X154304776Y-107273355D01*
X154276645Y-107245224D01*
X154239891Y-107230000D01*
X154200109Y-107230000D01*
X154163355Y-107245224D01*
X154135224Y-107273355D01*
X154120000Y-107310109D01*
X153846555Y-107310109D01*
X153720000Y-107183554D01*
X153573554Y-107330000D01*
X153320000Y-107330000D01*
X153320000Y-107310109D01*
X153304776Y-107273355D01*
X153276645Y-107245224D01*
X153239891Y-107230000D01*
X153200109Y-107230000D01*
X153163355Y-107245224D01*
X153135224Y-107273355D01*
X153120000Y-107310109D01*
X152846556Y-107310109D01*
X152542421Y-107005974D01*
X152542420Y-107005974D01*
X152498823Y-107111228D01*
X152498820Y-107111240D01*
X152470000Y-107256126D01*
X151494752Y-107256126D01*
X151419946Y-107144171D01*
X151419943Y-107144167D01*
X151315414Y-107039638D01*
X151315410Y-107039635D01*
X151192496Y-106957506D01*
X151192483Y-106957499D01*
X151055912Y-106900930D01*
X151055902Y-106900927D01*
X150910915Y-106872087D01*
X150910913Y-106872087D01*
X150763077Y-106872087D01*
X150763075Y-106872087D01*
X150618087Y-106900927D01*
X150618077Y-106900930D01*
X150481506Y-106957499D01*
X150481493Y-106957506D01*
X150358579Y-107039635D01*
X150358575Y-107039638D01*
X150254046Y-107144167D01*
X150254043Y-107144171D01*
X150171914Y-107267085D01*
X150171907Y-107267098D01*
X150115338Y-107403669D01*
X150115335Y-107403679D01*
X150088452Y-107538825D01*
X150056066Y-107600736D01*
X150054516Y-107602314D01*
X143813650Y-113843181D01*
X143752327Y-113876666D01*
X143725969Y-113879500D01*
X143696080Y-113879500D01*
X143551092Y-113908340D01*
X143551082Y-113908343D01*
X143414511Y-113964912D01*
X143414498Y-113964919D01*
X143291584Y-114047048D01*
X143291580Y-114047051D01*
X143187051Y-114151580D01*
X143187048Y-114151584D01*
X143104919Y-114274498D01*
X143104912Y-114274511D01*
X143048343Y-114411082D01*
X143048340Y-114411092D01*
X143019500Y-114556079D01*
X143019500Y-114556082D01*
X143019500Y-114703918D01*
X143019500Y-114703920D01*
X143019499Y-114703920D01*
X134120500Y-114703920D01*
X134120500Y-114556079D01*
X134091659Y-114411092D01*
X134091658Y-114411091D01*
X134091658Y-114411087D01*
X134056447Y-114326079D01*
X134035087Y-114274511D01*
X134035080Y-114274498D01*
X133952951Y-114151584D01*
X133952948Y-114151580D01*
X133848419Y-114047051D01*
X133848415Y-114047048D01*
X133725501Y-113964919D01*
X133725488Y-113964912D01*
X133588917Y-113908343D01*
X133588907Y-113908340D01*
X133443920Y-113879500D01*
X133443918Y-113879500D01*
X133296082Y-113879500D01*
X133267926Y-113885100D01*
X133267898Y-113885106D01*
X133151087Y-113908342D01*
X133135324Y-113914870D01*
X133135320Y-113914872D01*
X133014508Y-113964914D01*
X133014498Y-113964919D01*
X132891584Y-114047048D01*
X132891580Y-114047051D01*
X132870451Y-114068181D01*
X132809128Y-114101666D01*
X132782770Y-114104500D01*
X128287032Y-114104500D01*
X128219993Y-114084815D01*
X128199351Y-114068181D01*
X124331719Y-110200549D01*
X124298234Y-110139226D01*
X124297986Y-110111540D01*
X124294023Y-110107577D01*
X124645975Y-110107577D01*
X124751236Y-110151178D01*
X124751240Y-110151179D01*
X124896126Y-110179999D01*
X124896129Y-110180000D01*
X125043871Y-110180000D01*
X125043873Y-110179999D01*
X125188760Y-110151179D01*
X125188775Y-110151175D01*
X125294024Y-110107578D01*
X125294024Y-110107577D01*
X125645975Y-110107577D01*
X125751236Y-110151178D01*
X125751240Y-110151179D01*
X125896126Y-110179999D01*
X125896129Y-110180000D01*
X126043871Y-110180000D01*
X126043873Y-110179999D01*
X126188760Y-110151179D01*
X126188775Y-110151175D01*
X126294024Y-110107578D01*
X126294024Y-110107577D01*
X125970001Y-109783554D01*
X125970000Y-109783554D01*
X125645975Y-110107577D01*
X125294024Y-110107577D01*
X124970001Y-109783554D01*
X124970000Y-109783554D01*
X124645975Y-110107577D01*
X124294023Y-110107577D01*
X123596555Y-109410109D01*
X123870000Y-109410109D01*
X123870000Y-109449891D01*
X123885224Y-109486645D01*
X123913355Y-109514776D01*
X123950109Y-109530000D01*
X123989891Y-109530000D01*
X124026645Y-109514776D01*
X124054776Y-109486645D01*
X124070000Y-109449891D01*
X124070000Y-109430000D01*
X124323554Y-109430000D01*
X124470000Y-109576446D01*
X124616446Y-109430000D01*
X124596555Y-109410109D01*
X124870000Y-109410109D01*
X124870000Y-109449891D01*
X124885224Y-109486645D01*
X124913355Y-109514776D01*
X124950109Y-109530000D01*
X124989891Y-109530000D01*
X125026645Y-109514776D01*
X125054776Y-109486645D01*
X125070000Y-109449891D01*
X125070000Y-109430000D01*
X125323554Y-109430000D01*
X125470000Y-109576446D01*
X125616446Y-109430000D01*
X125596555Y-109410109D01*
X125870000Y-109410109D01*
X125870000Y-109449891D01*
X125885224Y-109486645D01*
X125913355Y-109514776D01*
X125950109Y-109530000D01*
X125989891Y-109530000D01*
X126026645Y-109514776D01*
X126054776Y-109486645D01*
X126070000Y-109449891D01*
X126070000Y-109429999D01*
X126323554Y-109429999D01*
X126323554Y-109430001D01*
X126647577Y-109754024D01*
X126647578Y-109754024D01*
X126691175Y-109648775D01*
X126691179Y-109648760D01*
X126719990Y-109503920D01*
X128719499Y-109503920D01*
X128748340Y-109648907D01*
X128748343Y-109648917D01*
X128804912Y-109785488D01*
X128804919Y-109785501D01*
X128887048Y-109908415D01*
X128887051Y-109908419D01*
X128991580Y-110012948D01*
X128991584Y-110012951D01*
X129114498Y-110095080D01*
X129114511Y-110095087D01*
X129251082Y-110151656D01*
X129251087Y-110151658D01*
X129251091Y-110151658D01*
X129251092Y-110151659D01*
X129396079Y-110180500D01*
X129402142Y-110181097D01*
X129401875Y-110183806D01*
X129457652Y-110200185D01*
X129478294Y-110216819D01*
X132183181Y-112921706D01*
X132216666Y-112983029D01*
X132218267Y-112997920D01*
X132218903Y-112997858D01*
X132219499Y-113003920D01*
X132248340Y-113148907D01*
X132248343Y-113148917D01*
X132304912Y-113285488D01*
X132304919Y-113285501D01*
X132387048Y-113408415D01*
X132387051Y-113408419D01*
X132491580Y-113512948D01*
X132491584Y-113512951D01*
X132614498Y-113595080D01*
X132614511Y-113595087D01*
X132745877Y-113649500D01*
X132751087Y-113651658D01*
X132751091Y-113651658D01*
X132751092Y-113651659D01*
X132896079Y-113680500D01*
X132896082Y-113680500D01*
X133043918Y-113680500D01*
X133188913Y-113651658D01*
X133289494Y-113609996D01*
X133325489Y-113595087D01*
X133325492Y-113595085D01*
X133325495Y-113595084D01*
X133448416Y-113512951D01*
X133552951Y-113408416D01*
X133635084Y-113285495D01*
X133691658Y-113148913D01*
X133720500Y-113003918D01*
X133720500Y-112856082D01*
X133720500Y-112856079D01*
X133691659Y-112711092D01*
X133691658Y-112711091D01*
X133691658Y-112711087D01*
X133663925Y-112644133D01*
X133635087Y-112574511D01*
X133635080Y-112574498D01*
X133552951Y-112451584D01*
X133552948Y-112451580D01*
X133448419Y-112347051D01*
X133448415Y-112347048D01*
X133325501Y-112264919D01*
X133325488Y-112264912D01*
X133188917Y-112208343D01*
X133188907Y-112208340D01*
X133043920Y-112179499D01*
X133037858Y-112178903D01*
X133038124Y-112176193D01*
X132982348Y-112159815D01*
X132961706Y-112143181D01*
X130256819Y-109438294D01*
X130223334Y-109376971D01*
X130221732Y-109362079D01*
X130221097Y-109362142D01*
X130220500Y-109356079D01*
X130191659Y-109211092D01*
X130191658Y-109211091D01*
X130191658Y-109211087D01*
X130191656Y-109211082D01*
X130135087Y-109074511D01*
X130135080Y-109074498D01*
X130052951Y-108951584D01*
X130052948Y-108951580D01*
X129948419Y-108847051D01*
X129946925Y-108845825D01*
X129946352Y-108844984D01*
X129944109Y-108842741D01*
X129944534Y-108842315D01*
X129907590Y-108788079D01*
X129905719Y-108718234D01*
X129941906Y-108658466D01*
X129978131Y-108635413D01*
X130075495Y-108595084D01*
X130198416Y-108512951D01*
X130198420Y-108512946D01*
X130203126Y-108509086D01*
X130204854Y-108511191D01*
X130255872Y-108483334D01*
X130282230Y-108480500D01*
X134863078Y-108480500D01*
X134930117Y-108500185D01*
X134975872Y-108552989D01*
X134984695Y-108580308D01*
X134998340Y-108648907D01*
X134998343Y-108648917D01*
X135054912Y-108785488D01*
X135054919Y-108785501D01*
X135137048Y-108908415D01*
X135137051Y-108908419D01*
X135241580Y-109012948D01*
X135241584Y-109012951D01*
X135364498Y-109095080D01*
X135364511Y-109095087D01*
X135501082Y-109151656D01*
X135501087Y-109151658D01*
X135501091Y-109151658D01*
X135501092Y-109151659D01*
X135646079Y-109180500D01*
X135646082Y-109180500D01*
X135793920Y-109180500D01*
X135891462Y-109161096D01*
X135938913Y-109151658D01*
X136063656Y-109099988D01*
X136075488Y-109095087D01*
X136075488Y-109095086D01*
X136075495Y-109095084D01*
X136198416Y-109012951D01*
X136302951Y-108908416D01*
X136385084Y-108785495D01*
X136441658Y-108648913D01*
X136461580Y-108548760D01*
X136470500Y-108503920D01*
X136470500Y-108356079D01*
X136441659Y-108211092D01*
X136441658Y-108211091D01*
X136441658Y-108211087D01*
X136435028Y-108195080D01*
X136385087Y-108074511D01*
X136385080Y-108074498D01*
X136302951Y-107951584D01*
X136302948Y-107951580D01*
X136198419Y-107847051D01*
X136198415Y-107847048D01*
X136075501Y-107764919D01*
X136075488Y-107764912D01*
X135938917Y-107708343D01*
X135938907Y-107708340D01*
X135793920Y-107679499D01*
X135787858Y-107678903D01*
X135788124Y-107676193D01*
X135732348Y-107659815D01*
X135711706Y-107643181D01*
X135558016Y-107489491D01*
X135558015Y-107489490D01*
X135432485Y-107417016D01*
X135432480Y-107417014D01*
X135385772Y-107404498D01*
X135385772Y-107404499D01*
X135319140Y-107386645D01*
X135292475Y-107379500D01*
X135292474Y-107379500D01*
X130282230Y-107379500D01*
X130215191Y-107359815D01*
X130203531Y-107350419D01*
X130203126Y-107350914D01*
X130198415Y-107347048D01*
X130075501Y-107264919D01*
X130075488Y-107264912D01*
X129938917Y-107208343D01*
X129938907Y-107208340D01*
X129793920Y-107179500D01*
X129793918Y-107179500D01*
X129646082Y-107179500D01*
X129646080Y-107179500D01*
X129501092Y-107208340D01*
X129501082Y-107208343D01*
X129364511Y-107264912D01*
X129364498Y-107264919D01*
X129241584Y-107347048D01*
X129241580Y-107347051D01*
X129137051Y-107451580D01*
X129137048Y-107451584D01*
X129054919Y-107574498D01*
X129054912Y-107574511D01*
X128998343Y-107711082D01*
X128998340Y-107711092D01*
X128969500Y-107856079D01*
X128969500Y-107856082D01*
X128969500Y-108003918D01*
X128969500Y-108003920D01*
X128969499Y-108003920D01*
X128998340Y-108148907D01*
X128998343Y-108148917D01*
X129054912Y-108285488D01*
X129054919Y-108285501D01*
X129137048Y-108408415D01*
X129137051Y-108408419D01*
X129241578Y-108512946D01*
X129243073Y-108514173D01*
X129243645Y-108515013D01*
X129245891Y-108517259D01*
X129245465Y-108517684D01*
X129282408Y-108571918D01*
X129284280Y-108641763D01*
X129248094Y-108701532D01*
X129211863Y-108724589D01*
X129114507Y-108764914D01*
X129114498Y-108764919D01*
X128991584Y-108847048D01*
X128991580Y-108847051D01*
X128887051Y-108951580D01*
X128887048Y-108951584D01*
X128804919Y-109074498D01*
X128804912Y-109074511D01*
X128748343Y-109211082D01*
X128748340Y-109211092D01*
X128719500Y-109356079D01*
X128719500Y-109356082D01*
X128719500Y-109503918D01*
X128719500Y-109503920D01*
X128719499Y-109503920D01*
X126719990Y-109503920D01*
X126719999Y-109503873D01*
X126720000Y-109503871D01*
X126720000Y-109356128D01*
X126719999Y-109356126D01*
X126691179Y-109211240D01*
X126691178Y-109211236D01*
X126647577Y-109105975D01*
X126323554Y-109429999D01*
X126070000Y-109429999D01*
X126070000Y-109410109D01*
X126054776Y-109373355D01*
X126026645Y-109345224D01*
X125989891Y-109330000D01*
X125950109Y-109330000D01*
X125913355Y-109345224D01*
X125885224Y-109373355D01*
X125870000Y-109410109D01*
X125596555Y-109410109D01*
X125470000Y-109283554D01*
X125323554Y-109430000D01*
X125070000Y-109430000D01*
X125070000Y-109410109D01*
X125054776Y-109373355D01*
X125026645Y-109345224D01*
X124989891Y-109330000D01*
X124950109Y-109330000D01*
X124913355Y-109345224D01*
X124885224Y-109373355D01*
X124870000Y-109410109D01*
X124596555Y-109410109D01*
X124470000Y-109283554D01*
X124323554Y-109430000D01*
X124070000Y-109430000D01*
X124070000Y-109410109D01*
X124054776Y-109373355D01*
X124026645Y-109345224D01*
X123989891Y-109330000D01*
X123950109Y-109330000D01*
X123913355Y-109345224D01*
X123885224Y-109373355D01*
X123870000Y-109410109D01*
X123596555Y-109410109D01*
X123286434Y-109099988D01*
X123241728Y-109095988D01*
X123199448Y-109068279D01*
X123061169Y-108930000D01*
X123823554Y-108930000D01*
X123970000Y-109076446D01*
X124116446Y-108930000D01*
X124823554Y-108930000D01*
X124970000Y-109076446D01*
X125116446Y-108930000D01*
X125823554Y-108930000D01*
X125970000Y-109076446D01*
X126116446Y-108930000D01*
X125970000Y-108783554D01*
X125823554Y-108930000D01*
X125116446Y-108930000D01*
X124970000Y-108783554D01*
X124823554Y-108930000D01*
X124116446Y-108930000D01*
X123970000Y-108783554D01*
X123823554Y-108930000D01*
X123061169Y-108930000D01*
X122487295Y-108356126D01*
X123220000Y-108356126D01*
X123220000Y-108503873D01*
X123248820Y-108648759D01*
X123248822Y-108648767D01*
X123292421Y-108754024D01*
X123616446Y-108430000D01*
X123616446Y-108429999D01*
X123596556Y-108410109D01*
X123870000Y-108410109D01*
X123870000Y-108449891D01*
X123885224Y-108486645D01*
X123913355Y-108514776D01*
X123950109Y-108530000D01*
X123989891Y-108530000D01*
X124026645Y-108514776D01*
X124054776Y-108486645D01*
X124070000Y-108449891D01*
X124070000Y-108430000D01*
X124323554Y-108430000D01*
X124470000Y-108576446D01*
X124616446Y-108430000D01*
X124596555Y-108410109D01*
X124870000Y-108410109D01*
X124870000Y-108449891D01*
X124885224Y-108486645D01*
X124913355Y-108514776D01*
X124950109Y-108530000D01*
X124989891Y-108530000D01*
X125026645Y-108514776D01*
X125054776Y-108486645D01*
X125070000Y-108449891D01*
X125070000Y-108430000D01*
X125323554Y-108430000D01*
X125470000Y-108576446D01*
X125616446Y-108430000D01*
X125596555Y-108410109D01*
X125870000Y-108410109D01*
X125870000Y-108449891D01*
X125885224Y-108486645D01*
X125913355Y-108514776D01*
X125950109Y-108530000D01*
X125989891Y-108530000D01*
X126026645Y-108514776D01*
X126054776Y-108486645D01*
X126070000Y-108449891D01*
X126070000Y-108429999D01*
X126323554Y-108429999D01*
X126323554Y-108430001D01*
X126647577Y-108754024D01*
X126647578Y-108754024D01*
X126691175Y-108648775D01*
X126691179Y-108648760D01*
X126719999Y-108503873D01*
X126720000Y-108503871D01*
X126720000Y-108356128D01*
X126719999Y-108356126D01*
X126691179Y-108211240D01*
X126691178Y-108211236D01*
X126647577Y-108105975D01*
X126323554Y-108429999D01*
X126070000Y-108429999D01*
X126070000Y-108410109D01*
X126054776Y-108373355D01*
X126026645Y-108345224D01*
X125989891Y-108330000D01*
X125950109Y-108330000D01*
X125913355Y-108345224D01*
X125885224Y-108373355D01*
X125870000Y-108410109D01*
X125596555Y-108410109D01*
X125470000Y-108283554D01*
X125323554Y-108430000D01*
X125070000Y-108430000D01*
X125070000Y-108410109D01*
X125054776Y-108373355D01*
X125026645Y-108345224D01*
X124989891Y-108330000D01*
X124950109Y-108330000D01*
X124913355Y-108345224D01*
X124885224Y-108373355D01*
X124870000Y-108410109D01*
X124596555Y-108410109D01*
X124470000Y-108283554D01*
X124323554Y-108430000D01*
X124070000Y-108430000D01*
X124070000Y-108410109D01*
X124054776Y-108373355D01*
X124026645Y-108345224D01*
X123989891Y-108330000D01*
X123950109Y-108330000D01*
X123913355Y-108345224D01*
X123885224Y-108373355D01*
X123870000Y-108410109D01*
X123596556Y-108410109D01*
X123292421Y-108105974D01*
X123292420Y-108105974D01*
X123248823Y-108211228D01*
X123248820Y-108211240D01*
X123220000Y-108356126D01*
X122487295Y-108356126D01*
X122136604Y-108005435D01*
X122103119Y-107944112D01*
X122102993Y-107930000D01*
X123823554Y-107930000D01*
X123970000Y-108076446D01*
X124116446Y-107930000D01*
X124823554Y-107930000D01*
X124970000Y-108076446D01*
X125116446Y-107930000D01*
X125823554Y-107930000D01*
X125970000Y-108076446D01*
X126116446Y-107930000D01*
X125970000Y-107783554D01*
X125823554Y-107930000D01*
X125116446Y-107930000D01*
X124970000Y-107783554D01*
X124823554Y-107930000D01*
X124116446Y-107930000D01*
X123970000Y-107783554D01*
X123823554Y-107930000D01*
X122102993Y-107930000D01*
X122102668Y-107893561D01*
X122104179Y-107885968D01*
X122120500Y-107803918D01*
X122120500Y-107656082D01*
X122120500Y-107656079D01*
X122091659Y-107511092D01*
X122091658Y-107511091D01*
X122091658Y-107511087D01*
X122081534Y-107486645D01*
X122044622Y-107397531D01*
X122044606Y-107397493D01*
X122043483Y-107394782D01*
X122035084Y-107374505D01*
X122035082Y-107374502D01*
X122035080Y-107374498D01*
X122022804Y-107356126D01*
X123220000Y-107356126D01*
X123220000Y-107503873D01*
X123248820Y-107648759D01*
X123248822Y-107648767D01*
X123292421Y-107754024D01*
X123616446Y-107430000D01*
X123616446Y-107429999D01*
X123596556Y-107410109D01*
X123870000Y-107410109D01*
X123870000Y-107449891D01*
X123885224Y-107486645D01*
X123913355Y-107514776D01*
X123950109Y-107530000D01*
X123989891Y-107530000D01*
X124026645Y-107514776D01*
X124054776Y-107486645D01*
X124070000Y-107449891D01*
X124070000Y-107430000D01*
X124323554Y-107430000D01*
X124470000Y-107576446D01*
X124616446Y-107430000D01*
X124596555Y-107410109D01*
X124870000Y-107410109D01*
X124870000Y-107449891D01*
X124885224Y-107486645D01*
X124913355Y-107514776D01*
X124950109Y-107530000D01*
X124989891Y-107530000D01*
X125026645Y-107514776D01*
X125054776Y-107486645D01*
X125070000Y-107449891D01*
X125070000Y-107430000D01*
X125323554Y-107430000D01*
X125470000Y-107576446D01*
X125616446Y-107430000D01*
X125596555Y-107410109D01*
X125870000Y-107410109D01*
X125870000Y-107449891D01*
X125885224Y-107486645D01*
X125913355Y-107514776D01*
X125950109Y-107530000D01*
X125989891Y-107530000D01*
X126026645Y-107514776D01*
X126054776Y-107486645D01*
X126070000Y-107449891D01*
X126070000Y-107429999D01*
X126323554Y-107429999D01*
X126323554Y-107430001D01*
X126647577Y-107754024D01*
X126647578Y-107754024D01*
X126691175Y-107648775D01*
X126691179Y-107648760D01*
X126719999Y-107503873D01*
X126720000Y-107503871D01*
X126720000Y-107356128D01*
X126719999Y-107356126D01*
X126691179Y-107211240D01*
X126691178Y-107211236D01*
X126647577Y-107105975D01*
X126323554Y-107429999D01*
X126070000Y-107429999D01*
X126070000Y-107410109D01*
X126054776Y-107373355D01*
X126026645Y-107345224D01*
X125989891Y-107330000D01*
X125950109Y-107330000D01*
X125913355Y-107345224D01*
X125885224Y-107373355D01*
X125870000Y-107410109D01*
X125596555Y-107410109D01*
X125470000Y-107283554D01*
X125323554Y-107430000D01*
X125070000Y-107430000D01*
X125070000Y-107410109D01*
X125054776Y-107373355D01*
X125026645Y-107345224D01*
X124989891Y-107330000D01*
X124950109Y-107330000D01*
X124913355Y-107345224D01*
X124885224Y-107373355D01*
X124870000Y-107410109D01*
X124596555Y-107410109D01*
X124470000Y-107283554D01*
X124323554Y-107430000D01*
X124070000Y-107430000D01*
X124070000Y-107410109D01*
X124054776Y-107373355D01*
X124026645Y-107345224D01*
X123989891Y-107330000D01*
X123950109Y-107330000D01*
X123913355Y-107345224D01*
X123885224Y-107373355D01*
X123870000Y-107410109D01*
X123596556Y-107410109D01*
X123292421Y-107105974D01*
X123292420Y-107105974D01*
X123248823Y-107211228D01*
X123248820Y-107211240D01*
X123220000Y-107356126D01*
X122022804Y-107356126D01*
X121952951Y-107251584D01*
X121952948Y-107251580D01*
X121848419Y-107147051D01*
X121848415Y-107147048D01*
X121725501Y-107064919D01*
X121725488Y-107064912D01*
X121588917Y-107008343D01*
X121588907Y-107008340D01*
X121443920Y-106979500D01*
X121443918Y-106979500D01*
X121296082Y-106979500D01*
X121296080Y-106979500D01*
X121151092Y-107008340D01*
X121151082Y-107008343D01*
X121014511Y-107064912D01*
X121014498Y-107064919D01*
X120891584Y-107147048D01*
X120891580Y-107147051D01*
X120787051Y-107251580D01*
X120787048Y-107251584D01*
X120704919Y-107374498D01*
X120704912Y-107374511D01*
X120648343Y-107511082D01*
X120648340Y-107511092D01*
X120619500Y-107656079D01*
X120619500Y-107656082D01*
X120619500Y-107803918D01*
X120619500Y-107803920D01*
X120619499Y-107803920D01*
X117070500Y-107803920D01*
X117070500Y-106919778D01*
X117070500Y-106752420D01*
X123645974Y-106752420D01*
X123645974Y-106752421D01*
X123970000Y-107076446D01*
X123970001Y-107076446D01*
X124294024Y-106752421D01*
X124294022Y-106752420D01*
X124645974Y-106752420D01*
X124645974Y-106752421D01*
X124970000Y-107076446D01*
X124970001Y-107076446D01*
X125294024Y-106752421D01*
X125294022Y-106752420D01*
X125645974Y-106752420D01*
X125645974Y-106752421D01*
X125970000Y-107076446D01*
X125970001Y-107076446D01*
X126294024Y-106752421D01*
X126188767Y-106708822D01*
X126188759Y-106708820D01*
X126043872Y-106680000D01*
X125896128Y-106680000D01*
X125751240Y-106708820D01*
X125751228Y-106708823D01*
X125645974Y-106752420D01*
X125294022Y-106752420D01*
X125188767Y-106708822D01*
X125188759Y-106708820D01*
X125043872Y-106680000D01*
X124896128Y-106680000D01*
X124751240Y-106708820D01*
X124751228Y-106708823D01*
X124645974Y-106752420D01*
X124294022Y-106752420D01*
X124188767Y-106708822D01*
X124188759Y-106708820D01*
X124043872Y-106680000D01*
X123896128Y-106680000D01*
X123751240Y-106708820D01*
X123751228Y-106708823D01*
X123645974Y-106752420D01*
X117070500Y-106752420D01*
X117070500Y-106652420D01*
X152895974Y-106652420D01*
X152895974Y-106652421D01*
X153220000Y-106976446D01*
X153220001Y-106976446D01*
X153544024Y-106652421D01*
X153544022Y-106652420D01*
X153895974Y-106652420D01*
X153895974Y-106652421D01*
X154220000Y-106976446D01*
X154220001Y-106976446D01*
X154544024Y-106652421D01*
X154544022Y-106652420D01*
X154895974Y-106652420D01*
X154895974Y-106652421D01*
X155220000Y-106976446D01*
X155220001Y-106976446D01*
X155544024Y-106652421D01*
X155544022Y-106652420D01*
X181525974Y-106652420D01*
X181525974Y-106652421D01*
X181850000Y-106976446D01*
X181850001Y-106976446D01*
X182174024Y-106652421D01*
X182174022Y-106652420D01*
X182525974Y-106652420D01*
X182525974Y-106652421D01*
X182850000Y-106976446D01*
X182850001Y-106976446D01*
X183174024Y-106652421D01*
X183174022Y-106652420D01*
X183525974Y-106652420D01*
X183525974Y-106652421D01*
X183850000Y-106976446D01*
X183850001Y-106976446D01*
X184174024Y-106652421D01*
X184068767Y-106608822D01*
X184068759Y-106608820D01*
X183923872Y-106580000D01*
X183776128Y-106580000D01*
X183631240Y-106608820D01*
X183631228Y-106608823D01*
X183525974Y-106652420D01*
X183174022Y-106652420D01*
X183068767Y-106608822D01*
X183068759Y-106608820D01*
X182923872Y-106580000D01*
X182776128Y-106580000D01*
X182631240Y-106608820D01*
X182631228Y-106608823D01*
X182525974Y-106652420D01*
X182174022Y-106652420D01*
X182068767Y-106608822D01*
X182068759Y-106608820D01*
X181923872Y-106580000D01*
X181776128Y-106580000D01*
X181631240Y-106608820D01*
X181631228Y-106608823D01*
X181525974Y-106652420D01*
X155544022Y-106652420D01*
X155438767Y-106608822D01*
X155438759Y-106608820D01*
X155293872Y-106580000D01*
X155146128Y-106580000D01*
X155001240Y-106608820D01*
X155001228Y-106608823D01*
X154895974Y-106652420D01*
X154544022Y-106652420D01*
X154438767Y-106608822D01*
X154438759Y-106608820D01*
X154293872Y-106580000D01*
X154146128Y-106580000D01*
X154001240Y-106608820D01*
X154001228Y-106608823D01*
X153895974Y-106652420D01*
X153544022Y-106652420D01*
X153438767Y-106608822D01*
X153438759Y-106608820D01*
X153293872Y-106580000D01*
X153146128Y-106580000D01*
X153001240Y-106608820D01*
X153001228Y-106608823D01*
X152895974Y-106652420D01*
X117070500Y-106652420D01*
X117070500Y-105150209D01*
X117090185Y-105083170D01*
X117142989Y-105037415D01*
X117193929Y-105026211D01*
X193170000Y-104680000D01*
X193120000Y-98330000D01*
X192519942Y-98330000D01*
X108530000Y-98630000D01*
X108530000Y-89835000D01*
X106970500Y-89835000D01*
X106970500Y-84805441D01*
X115569500Y-84805441D01*
X115569500Y-85054558D01*
X115569501Y-85054575D01*
X115602017Y-85301561D01*
X115666498Y-85542207D01*
X115761830Y-85772361D01*
X115761837Y-85772376D01*
X115886400Y-85988126D01*
X116038060Y-86185774D01*
X116038066Y-86185781D01*
X116214218Y-86361933D01*
X116214225Y-86361939D01*
X116411873Y-86513599D01*
X116627623Y-86638162D01*
X116627638Y-86638169D01*
X116700483Y-86668342D01*
X116857793Y-86733502D01*
X117098435Y-86797982D01*
X117345435Y-86830500D01*
X117345442Y-86830500D01*
X117594558Y-86830500D01*
X117594565Y-86830500D01*
X117841565Y-86797982D01*
X118082207Y-86733502D01*
X118312373Y-86638164D01*
X118528127Y-86513599D01*
X118725776Y-86361938D01*
X118901938Y-86185776D01*
X119053599Y-85988127D01*
X119178164Y-85772373D01*
X119273502Y-85542207D01*
X119337982Y-85301565D01*
X119370500Y-85054565D01*
X119370500Y-84805441D01*
X120649500Y-84805441D01*
X120649500Y-85054558D01*
X120649501Y-85054575D01*
X120682017Y-85301561D01*
X120746498Y-85542207D01*
X120841830Y-85772361D01*
X120841837Y-85772376D01*
X120966400Y-85988126D01*
X121118060Y-86185774D01*
X121118066Y-86185781D01*
X121294218Y-86361933D01*
X121294225Y-86361939D01*
X121491873Y-86513599D01*
X121707623Y-86638162D01*
X121707638Y-86638169D01*
X121780483Y-86668342D01*
X121937793Y-86733502D01*
X122178435Y-86797982D01*
X122425435Y-86830500D01*
X122425442Y-86830500D01*
X122674558Y-86830500D01*
X122674565Y-86830500D01*
X122921565Y-86797982D01*
X123162207Y-86733502D01*
X123392373Y-86638164D01*
X123608127Y-86513599D01*
X123805776Y-86361938D01*
X123981938Y-86185776D01*
X124133599Y-85988127D01*
X124258164Y-85772373D01*
X124353502Y-85542207D01*
X124417982Y-85301565D01*
X124450500Y-85054565D01*
X124450500Y-84805441D01*
X125729500Y-84805441D01*
X125729500Y-85054558D01*
X125729501Y-85054575D01*
X125762017Y-85301561D01*
X125826498Y-85542207D01*
X125921830Y-85772361D01*
X125921837Y-85772376D01*
X126046400Y-85988126D01*
X126198060Y-86185774D01*
X126198066Y-86185781D01*
X126374218Y-86361933D01*
X126374225Y-86361939D01*
X126571873Y-86513599D01*
X126787623Y-86638162D01*
X126787638Y-86638169D01*
X126860483Y-86668342D01*
X127017793Y-86733502D01*
X127258435Y-86797982D01*
X127505435Y-86830500D01*
X127505442Y-86830500D01*
X127754558Y-86830500D01*
X127754565Y-86830500D01*
X128001565Y-86797982D01*
X128242207Y-86733502D01*
X128472373Y-86638164D01*
X128688127Y-86513599D01*
X128885776Y-86361938D01*
X129061938Y-86185776D01*
X129213599Y-85988127D01*
X129338164Y-85772373D01*
X129433502Y-85542207D01*
X129497982Y-85301565D01*
X129530500Y-85054565D01*
X129530500Y-84805435D01*
X129497982Y-84558435D01*
X129433502Y-84317793D01*
X129338164Y-84087627D01*
X129213599Y-83871873D01*
X129061938Y-83674224D01*
X129061933Y-83674218D01*
X128885781Y-83498066D01*
X128885774Y-83498060D01*
X128877857Y-83491985D01*
X128755992Y-83398475D01*
X130809500Y-83398475D01*
X130809500Y-86461517D01*
X130817749Y-86513599D01*
X130824354Y-86555304D01*
X130881950Y-86668342D01*
X130881952Y-86668344D01*
X130881954Y-86668347D01*
X130971652Y-86758045D01*
X130971654Y-86758046D01*
X130971658Y-86758050D01*
X131084694Y-86815645D01*
X131084698Y-86815647D01*
X131172116Y-86829491D01*
X131178468Y-86830498D01*
X131178475Y-86830499D01*
X131178481Y-86830500D01*
X134241518Y-86830499D01*
X134335304Y-86815646D01*
X134448342Y-86758050D01*
X134538050Y-86668342D01*
X134595646Y-86555304D01*
X134595646Y-86555302D01*
X134595647Y-86555301D01*
X134610499Y-86461524D01*
X134610500Y-86461519D01*
X134610499Y-84805441D01*
X144579500Y-84805441D01*
X144579500Y-85054558D01*
X144579501Y-85054575D01*
X144612017Y-85301561D01*
X144676498Y-85542207D01*
X144771830Y-85772361D01*
X144771837Y-85772376D01*
X144896400Y-85988126D01*
X145048060Y-86185774D01*
X145048066Y-86185781D01*
X145224218Y-86361933D01*
X145224225Y-86361939D01*
X145421873Y-86513599D01*
X145637623Y-86638162D01*
X145637638Y-86638169D01*
X145710483Y-86668342D01*
X145867793Y-86733502D01*
X146108435Y-86797982D01*
X146355435Y-86830500D01*
X146355442Y-86830500D01*
X146604558Y-86830500D01*
X146604565Y-86830500D01*
X146851565Y-86797982D01*
X147092207Y-86733502D01*
X147322373Y-86638164D01*
X147538127Y-86513599D01*
X147735776Y-86361938D01*
X147911938Y-86185776D01*
X148063599Y-85988127D01*
X148188164Y-85772373D01*
X148283502Y-85542207D01*
X148347982Y-85301565D01*
X148380500Y-85054565D01*
X148380500Y-84805441D01*
X149659500Y-84805441D01*
X149659500Y-85054558D01*
X149659501Y-85054575D01*
X149692017Y-85301561D01*
X149756498Y-85542207D01*
X149851830Y-85772361D01*
X149851837Y-85772376D01*
X149976400Y-85988126D01*
X150128060Y-86185774D01*
X150128066Y-86185781D01*
X150304218Y-86361933D01*
X150304225Y-86361939D01*
X150501873Y-86513599D01*
X150717623Y-86638162D01*
X150717638Y-86638169D01*
X150790483Y-86668342D01*
X150947793Y-86733502D01*
X151188435Y-86797982D01*
X151435435Y-86830500D01*
X151435442Y-86830500D01*
X151684558Y-86830500D01*
X151684565Y-86830500D01*
X151931565Y-86797982D01*
X152172207Y-86733502D01*
X152402373Y-86638164D01*
X152618127Y-86513599D01*
X152815776Y-86361938D01*
X152991938Y-86185776D01*
X153143599Y-85988127D01*
X153268164Y-85772373D01*
X153363502Y-85542207D01*
X153427982Y-85301565D01*
X153460500Y-85054565D01*
X153460500Y-84805441D01*
X154739500Y-84805441D01*
X154739500Y-85054558D01*
X154739501Y-85054575D01*
X154772017Y-85301561D01*
X154836498Y-85542207D01*
X154931830Y-85772361D01*
X154931837Y-85772376D01*
X155056400Y-85988126D01*
X155208060Y-86185774D01*
X155208066Y-86185781D01*
X155384218Y-86361933D01*
X155384225Y-86361939D01*
X155581873Y-86513599D01*
X155797623Y-86638162D01*
X155797638Y-86638169D01*
X155870483Y-86668342D01*
X156027793Y-86733502D01*
X156268435Y-86797982D01*
X156515435Y-86830500D01*
X156515442Y-86830500D01*
X156764558Y-86830500D01*
X156764565Y-86830500D01*
X157011565Y-86797982D01*
X157252207Y-86733502D01*
X157482373Y-86638164D01*
X157698127Y-86513599D01*
X157895776Y-86361938D01*
X158071938Y-86185776D01*
X158223599Y-85988127D01*
X158348164Y-85772373D01*
X158443502Y-85542207D01*
X158507982Y-85301565D01*
X158540500Y-85054565D01*
X158540500Y-84805435D01*
X158507982Y-84558435D01*
X158443502Y-84317793D01*
X158348164Y-84087627D01*
X158223599Y-83871873D01*
X158071938Y-83674224D01*
X158071933Y-83674218D01*
X157895781Y-83498066D01*
X157895774Y-83498060D01*
X157887857Y-83491985D01*
X157765992Y-83398475D01*
X159819500Y-83398475D01*
X159819500Y-86461517D01*
X159827749Y-86513599D01*
X159834354Y-86555304D01*
X159891950Y-86668342D01*
X159891952Y-86668344D01*
X159891954Y-86668347D01*
X159981652Y-86758045D01*
X159981654Y-86758046D01*
X159981658Y-86758050D01*
X160094694Y-86815645D01*
X160094698Y-86815647D01*
X160182116Y-86829491D01*
X160188468Y-86830498D01*
X160188475Y-86830499D01*
X160188481Y-86830500D01*
X163251518Y-86830499D01*
X163345304Y-86815646D01*
X163458342Y-86758050D01*
X163548050Y-86668342D01*
X163605646Y-86555304D01*
X163605646Y-86555302D01*
X163605647Y-86555301D01*
X163620499Y-86461524D01*
X163620500Y-86461519D01*
X163620499Y-84805441D01*
X173579500Y-84805441D01*
X173579500Y-85054558D01*
X173579501Y-85054575D01*
X173612017Y-85301561D01*
X173676498Y-85542207D01*
X173771830Y-85772361D01*
X173771837Y-85772376D01*
X173896400Y-85988126D01*
X174048060Y-86185774D01*
X174048066Y-86185781D01*
X174224218Y-86361933D01*
X174224225Y-86361939D01*
X174421873Y-86513599D01*
X174637623Y-86638162D01*
X174637638Y-86638169D01*
X174710483Y-86668342D01*
X174867793Y-86733502D01*
X175108435Y-86797982D01*
X175355435Y-86830500D01*
X175355442Y-86830500D01*
X175604558Y-86830500D01*
X175604565Y-86830500D01*
X175851565Y-86797982D01*
X176092207Y-86733502D01*
X176322373Y-86638164D01*
X176538127Y-86513599D01*
X176735776Y-86361938D01*
X176911938Y-86185776D01*
X177063599Y-85988127D01*
X177188164Y-85772373D01*
X177283502Y-85542207D01*
X177347982Y-85301565D01*
X177380500Y-85054565D01*
X177380500Y-84805441D01*
X178659500Y-84805441D01*
X178659500Y-85054558D01*
X178659501Y-85054575D01*
X178692017Y-85301561D01*
X178756498Y-85542207D01*
X178851830Y-85772361D01*
X178851837Y-85772376D01*
X178976400Y-85988126D01*
X179128060Y-86185774D01*
X179128066Y-86185781D01*
X179304218Y-86361933D01*
X179304225Y-86361939D01*
X179501873Y-86513599D01*
X179717623Y-86638162D01*
X179717638Y-86638169D01*
X179790483Y-86668342D01*
X179947793Y-86733502D01*
X180188435Y-86797982D01*
X180435435Y-86830500D01*
X180435442Y-86830500D01*
X180684558Y-86830500D01*
X180684565Y-86830500D01*
X180931565Y-86797982D01*
X181172207Y-86733502D01*
X181402373Y-86638164D01*
X181618127Y-86513599D01*
X181815776Y-86361938D01*
X181991938Y-86185776D01*
X182143599Y-85988127D01*
X182268164Y-85772373D01*
X182363502Y-85542207D01*
X182427982Y-85301565D01*
X182460500Y-85054565D01*
X182460500Y-84805441D01*
X183739500Y-84805441D01*
X183739500Y-85054558D01*
X183739501Y-85054575D01*
X183772017Y-85301561D01*
X183836498Y-85542207D01*
X183931830Y-85772361D01*
X183931837Y-85772376D01*
X184056400Y-85988126D01*
X184208060Y-86185774D01*
X184208066Y-86185781D01*
X184384218Y-86361933D01*
X184384225Y-86361939D01*
X184581873Y-86513599D01*
X184797623Y-86638162D01*
X184797638Y-86638169D01*
X184870483Y-86668342D01*
X185027793Y-86733502D01*
X185268435Y-86797982D01*
X185515435Y-86830500D01*
X185515442Y-86830500D01*
X185764558Y-86830500D01*
X185764565Y-86830500D01*
X186011565Y-86797982D01*
X186252207Y-86733502D01*
X186482373Y-86638164D01*
X186698127Y-86513599D01*
X186895776Y-86361938D01*
X187071938Y-86185776D01*
X187223599Y-85988127D01*
X187348164Y-85772373D01*
X187443502Y-85542207D01*
X187507982Y-85301565D01*
X187540500Y-85054565D01*
X187540500Y-84805435D01*
X187507982Y-84558435D01*
X187443502Y-84317793D01*
X187348164Y-84087627D01*
X187223599Y-83871873D01*
X187071938Y-83674224D01*
X187071933Y-83674218D01*
X186895781Y-83498066D01*
X186895774Y-83498060D01*
X186887857Y-83491985D01*
X186765992Y-83398475D01*
X188819500Y-83398475D01*
X188819500Y-86461517D01*
X188827749Y-86513599D01*
X188834354Y-86555304D01*
X188891950Y-86668342D01*
X188891952Y-86668344D01*
X188891954Y-86668347D01*
X188981652Y-86758045D01*
X188981654Y-86758046D01*
X188981658Y-86758050D01*
X189094694Y-86815645D01*
X189094698Y-86815647D01*
X189182116Y-86829491D01*
X189188468Y-86830498D01*
X189188475Y-86830499D01*
X189188481Y-86830500D01*
X192251518Y-86830499D01*
X192345304Y-86815646D01*
X192458342Y-86758050D01*
X192548050Y-86668342D01*
X192605646Y-86555304D01*
X192605646Y-86555302D01*
X192605647Y-86555301D01*
X192620499Y-86461524D01*
X192620500Y-86461519D01*
X192620499Y-83398482D01*
X192605646Y-83304696D01*
X192548050Y-83191658D01*
X192548046Y-83191654D01*
X192548045Y-83191652D01*
X192458347Y-83101954D01*
X192458344Y-83101952D01*
X192458342Y-83101950D01*
X192379969Y-83062017D01*
X192345301Y-83044352D01*
X192251524Y-83029500D01*
X189188482Y-83029500D01*
X189107519Y-83042323D01*
X189094696Y-83044354D01*
X188981658Y-83101950D01*
X188981657Y-83101951D01*
X188981652Y-83101954D01*
X188891954Y-83191652D01*
X188891951Y-83191657D01*
X188891950Y-83191658D01*
X188876573Y-83221837D01*
X188834352Y-83304698D01*
X188819500Y-83398475D01*
X186765992Y-83398475D01*
X186698126Y-83346400D01*
X186482376Y-83221837D01*
X186482361Y-83221830D01*
X186252207Y-83126498D01*
X186160608Y-83101954D01*
X186011565Y-83062018D01*
X186011564Y-83062017D01*
X186011561Y-83062017D01*
X185764575Y-83029501D01*
X185764570Y-83029500D01*
X185764565Y-83029500D01*
X185515435Y-83029500D01*
X185515429Y-83029500D01*
X185515424Y-83029501D01*
X185268438Y-83062017D01*
X185027792Y-83126498D01*
X184797638Y-83221830D01*
X184797623Y-83221837D01*
X184581873Y-83346400D01*
X184384225Y-83498060D01*
X184384218Y-83498066D01*
X184208066Y-83674218D01*
X184208060Y-83674225D01*
X184056400Y-83871873D01*
X183931837Y-84087623D01*
X183931830Y-84087638D01*
X183836498Y-84317792D01*
X183772017Y-84558438D01*
X183739501Y-84805424D01*
X183739500Y-84805441D01*
X182460500Y-84805441D01*
X182460500Y-84805435D01*
X182427982Y-84558435D01*
X182363502Y-84317793D01*
X182268164Y-84087627D01*
X182143599Y-83871873D01*
X181991938Y-83674224D01*
X181991933Y-83674218D01*
X181815781Y-83498066D01*
X181815774Y-83498060D01*
X181618126Y-83346400D01*
X181402376Y-83221837D01*
X181402361Y-83221830D01*
X181172207Y-83126498D01*
X181080608Y-83101954D01*
X180931565Y-83062018D01*
X180931564Y-83062017D01*
X180931561Y-83062017D01*
X180684575Y-83029501D01*
X180684570Y-83029500D01*
X180684565Y-83029500D01*
X180435435Y-83029500D01*
X180435429Y-83029500D01*
X180435424Y-83029501D01*
X180188438Y-83062017D01*
X179947792Y-83126498D01*
X179717638Y-83221830D01*
X179717623Y-83221837D01*
X179501873Y-83346400D01*
X179304225Y-83498060D01*
X179304218Y-83498066D01*
X179128066Y-83674218D01*
X179128060Y-83674225D01*
X178976400Y-83871873D01*
X178851837Y-84087623D01*
X178851830Y-84087638D01*
X178756498Y-84317792D01*
X178692017Y-84558438D01*
X178659501Y-84805424D01*
X178659500Y-84805441D01*
X177380500Y-84805441D01*
X177380500Y-84805435D01*
X177347982Y-84558435D01*
X177283502Y-84317793D01*
X177188164Y-84087627D01*
X177063599Y-83871873D01*
X176911938Y-83674224D01*
X176911933Y-83674218D01*
X176735781Y-83498066D01*
X176735774Y-83498060D01*
X176538126Y-83346400D01*
X176322376Y-83221837D01*
X176322361Y-83221830D01*
X176092207Y-83126498D01*
X176000608Y-83101954D01*
X175851565Y-83062018D01*
X175851564Y-83062017D01*
X175851561Y-83062017D01*
X175604575Y-83029501D01*
X175604570Y-83029500D01*
X175604565Y-83029500D01*
X175355435Y-83029500D01*
X175355429Y-83029500D01*
X175355424Y-83029501D01*
X175108438Y-83062017D01*
X174867792Y-83126498D01*
X174637638Y-83221830D01*
X174637623Y-83221837D01*
X174421873Y-83346400D01*
X174224225Y-83498060D01*
X174224218Y-83498066D01*
X174048066Y-83674218D01*
X174048060Y-83674225D01*
X173896400Y-83871873D01*
X173771837Y-84087623D01*
X173771830Y-84087638D01*
X173676498Y-84317792D01*
X173612017Y-84558438D01*
X173579501Y-84805424D01*
X173579500Y-84805441D01*
X163620499Y-84805441D01*
X163620499Y-83398482D01*
X163605646Y-83304696D01*
X163548050Y-83191658D01*
X163548046Y-83191654D01*
X163548045Y-83191652D01*
X163458347Y-83101954D01*
X163458344Y-83101952D01*
X163458342Y-83101950D01*
X163379969Y-83062017D01*
X163345301Y-83044352D01*
X163251524Y-83029500D01*
X160188482Y-83029500D01*
X160107519Y-83042323D01*
X160094696Y-83044354D01*
X159981658Y-83101950D01*
X159981657Y-83101951D01*
X159981652Y-83101954D01*
X159891954Y-83191652D01*
X159891951Y-83191657D01*
X159891950Y-83191658D01*
X159876573Y-83221837D01*
X159834352Y-83304698D01*
X159819500Y-83398475D01*
X157765992Y-83398475D01*
X157698126Y-83346400D01*
X157482376Y-83221837D01*
X157482361Y-83221830D01*
X157252207Y-83126498D01*
X157160608Y-83101954D01*
X157011565Y-83062018D01*
X157011564Y-83062017D01*
X157011561Y-83062017D01*
X156764575Y-83029501D01*
X156764570Y-83029500D01*
X156764565Y-83029500D01*
X156515435Y-83029500D01*
X156515429Y-83029500D01*
X156515424Y-83029501D01*
X156268438Y-83062017D01*
X156027792Y-83126498D01*
X155797638Y-83221830D01*
X155797623Y-83221837D01*
X155581873Y-83346400D01*
X155384225Y-83498060D01*
X155384218Y-83498066D01*
X155208066Y-83674218D01*
X155208060Y-83674225D01*
X155056400Y-83871873D01*
X154931837Y-84087623D01*
X154931830Y-84087638D01*
X154836498Y-84317792D01*
X154772017Y-84558438D01*
X154739501Y-84805424D01*
X154739500Y-84805441D01*
X153460500Y-84805441D01*
X153460500Y-84805435D01*
X153427982Y-84558435D01*
X153363502Y-84317793D01*
X153268164Y-84087627D01*
X153143599Y-83871873D01*
X152991938Y-83674224D01*
X152991933Y-83674218D01*
X152815781Y-83498066D01*
X152815774Y-83498060D01*
X152618126Y-83346400D01*
X152402376Y-83221837D01*
X152402361Y-83221830D01*
X152172207Y-83126498D01*
X152080608Y-83101954D01*
X151931565Y-83062018D01*
X151931564Y-83062017D01*
X151931561Y-83062017D01*
X151684575Y-83029501D01*
X151684570Y-83029500D01*
X151684565Y-83029500D01*
X151435435Y-83029500D01*
X151435429Y-83029500D01*
X151435424Y-83029501D01*
X151188438Y-83062017D01*
X150947792Y-83126498D01*
X150717638Y-83221830D01*
X150717623Y-83221837D01*
X150501873Y-83346400D01*
X150304225Y-83498060D01*
X150304218Y-83498066D01*
X150128066Y-83674218D01*
X150128060Y-83674225D01*
X149976400Y-83871873D01*
X149851837Y-84087623D01*
X149851830Y-84087638D01*
X149756498Y-84317792D01*
X149692017Y-84558438D01*
X149659501Y-84805424D01*
X149659500Y-84805441D01*
X148380500Y-84805441D01*
X148380500Y-84805435D01*
X148347982Y-84558435D01*
X148283502Y-84317793D01*
X148188164Y-84087627D01*
X148063599Y-83871873D01*
X147911938Y-83674224D01*
X147911933Y-83674218D01*
X147735781Y-83498066D01*
X147735774Y-83498060D01*
X147538126Y-83346400D01*
X147322376Y-83221837D01*
X147322361Y-83221830D01*
X147092207Y-83126498D01*
X147000608Y-83101954D01*
X146851565Y-83062018D01*
X146851564Y-83062017D01*
X146851561Y-83062017D01*
X146604575Y-83029501D01*
X146604570Y-83029500D01*
X146604565Y-83029500D01*
X146355435Y-83029500D01*
X146355429Y-83029500D01*
X146355424Y-83029501D01*
X146108438Y-83062017D01*
X145867792Y-83126498D01*
X145637638Y-83221830D01*
X145637623Y-83221837D01*
X145421873Y-83346400D01*
X145224225Y-83498060D01*
X145224218Y-83498066D01*
X145048066Y-83674218D01*
X145048060Y-83674225D01*
X144896400Y-83871873D01*
X144771837Y-84087623D01*
X144771830Y-84087638D01*
X144676498Y-84317792D01*
X144612017Y-84558438D01*
X144579501Y-84805424D01*
X144579500Y-84805441D01*
X134610499Y-84805441D01*
X134610499Y-83398482D01*
X134595646Y-83304696D01*
X134538050Y-83191658D01*
X134538046Y-83191654D01*
X134538045Y-83191652D01*
X134448347Y-83101954D01*
X134448344Y-83101952D01*
X134448342Y-83101950D01*
X134369969Y-83062017D01*
X134335301Y-83044352D01*
X134241524Y-83029500D01*
X131178482Y-83029500D01*
X131097519Y-83042323D01*
X131084696Y-83044354D01*
X130971658Y-83101950D01*
X130971657Y-83101951D01*
X130971652Y-83101954D01*
X130881954Y-83191652D01*
X130881951Y-83191657D01*
X130881950Y-83191658D01*
X130866573Y-83221837D01*
X130824352Y-83304698D01*
X130809500Y-83398475D01*
X128755992Y-83398475D01*
X128688126Y-83346400D01*
X128472376Y-83221837D01*
X128472361Y-83221830D01*
X128242207Y-83126498D01*
X128150608Y-83101954D01*
X128001565Y-83062018D01*
X128001564Y-83062017D01*
X128001561Y-83062017D01*
X127754575Y-83029501D01*
X127754570Y-83029500D01*
X127754565Y-83029500D01*
X127505435Y-83029500D01*
X127505429Y-83029500D01*
X127505424Y-83029501D01*
X127258438Y-83062017D01*
X127017792Y-83126498D01*
X126787638Y-83221830D01*
X126787623Y-83221837D01*
X126571873Y-83346400D01*
X126374225Y-83498060D01*
X126374218Y-83498066D01*
X126198066Y-83674218D01*
X126198060Y-83674225D01*
X126046400Y-83871873D01*
X125921837Y-84087623D01*
X125921830Y-84087638D01*
X125826498Y-84317792D01*
X125762017Y-84558438D01*
X125729501Y-84805424D01*
X125729500Y-84805441D01*
X124450500Y-84805441D01*
X124450500Y-84805435D01*
X124417982Y-84558435D01*
X124353502Y-84317793D01*
X124258164Y-84087627D01*
X124133599Y-83871873D01*
X123981938Y-83674224D01*
X123981933Y-83674218D01*
X123805781Y-83498066D01*
X123805774Y-83498060D01*
X123608126Y-83346400D01*
X123392376Y-83221837D01*
X123392361Y-83221830D01*
X123162207Y-83126498D01*
X123070608Y-83101954D01*
X122921565Y-83062018D01*
X122921564Y-83062017D01*
X122921561Y-83062017D01*
X122674575Y-83029501D01*
X122674570Y-83029500D01*
X122674565Y-83029500D01*
X122425435Y-83029500D01*
X122425429Y-83029500D01*
X122425424Y-83029501D01*
X122178438Y-83062017D01*
X121937792Y-83126498D01*
X121707638Y-83221830D01*
X121707623Y-83221837D01*
X121491873Y-83346400D01*
X121294225Y-83498060D01*
X121294218Y-83498066D01*
X121118066Y-83674218D01*
X121118060Y-83674225D01*
X120966400Y-83871873D01*
X120841837Y-84087623D01*
X120841830Y-84087638D01*
X120746498Y-84317792D01*
X120682017Y-84558438D01*
X120649501Y-84805424D01*
X120649500Y-84805441D01*
X119370500Y-84805441D01*
X119370500Y-84805435D01*
X119337982Y-84558435D01*
X119273502Y-84317793D01*
X119178164Y-84087627D01*
X119053599Y-83871873D01*
X118901938Y-83674224D01*
X118901933Y-83674218D01*
X118725781Y-83498066D01*
X118725774Y-83498060D01*
X118528126Y-83346400D01*
X118312376Y-83221837D01*
X118312361Y-83221830D01*
X118082207Y-83126498D01*
X117990608Y-83101954D01*
X117841565Y-83062018D01*
X117841564Y-83062017D01*
X117841561Y-83062017D01*
X117594575Y-83029501D01*
X117594570Y-83029500D01*
X117594565Y-83029500D01*
X117345435Y-83029500D01*
X117345429Y-83029500D01*
X117345424Y-83029501D01*
X117098438Y-83062017D01*
X116857792Y-83126498D01*
X116627638Y-83221830D01*
X116627623Y-83221837D01*
X116411873Y-83346400D01*
X116214225Y-83498060D01*
X116214218Y-83498066D01*
X116038066Y-83674218D01*
X116038060Y-83674225D01*
X115886400Y-83871873D01*
X115761837Y-84087623D01*
X115761830Y-84087638D01*
X115666498Y-84317792D01*
X115602017Y-84558438D01*
X115569501Y-84805424D01*
X115569500Y-84805441D01*
X106970500Y-84805441D01*
X106970500Y-78984685D01*
X106990185Y-78917646D01*
X107042989Y-78871891D01*
X107101453Y-78860880D01*
X107105347Y-78861098D01*
X108033708Y-77932736D01*
X108130967Y-78066602D01*
X108253398Y-78189033D01*
X108387262Y-78286290D01*
X107458899Y-79214652D01*
X107458900Y-79214653D01*
X107578993Y-79310427D01*
X107578997Y-79310429D01*
X107807247Y-79453847D01*
X108050104Y-79570801D01*
X108050118Y-79570807D01*
X108304536Y-79659832D01*
X108304548Y-79659836D01*
X108567348Y-79719818D01*
X108567366Y-79719821D01*
X108835212Y-79749999D01*
X108835216Y-79750000D01*
X109104784Y-79750000D01*
X109104787Y-79749999D01*
X109372633Y-79719821D01*
X109372651Y-79719818D01*
X109635451Y-79659836D01*
X109635463Y-79659832D01*
X109889881Y-79570807D01*
X109889895Y-79570801D01*
X110132752Y-79453847D01*
X110360999Y-79310431D01*
X110481099Y-79214652D01*
X109552737Y-78286290D01*
X109686602Y-78189033D01*
X109809033Y-78066602D01*
X109906290Y-77932737D01*
X110834652Y-78861099D01*
X110834653Y-78861098D01*
X110930431Y-78740999D01*
X111073847Y-78512752D01*
X111190801Y-78269895D01*
X111190807Y-78269881D01*
X111279832Y-78015463D01*
X111279836Y-78015451D01*
X111339818Y-77752651D01*
X111339821Y-77752633D01*
X111369999Y-77484787D01*
X111370000Y-77484783D01*
X111370000Y-77215216D01*
X111369999Y-77215212D01*
X111339821Y-76947366D01*
X111339818Y-76947348D01*
X111279836Y-76684548D01*
X111279832Y-76684536D01*
X111190807Y-76430118D01*
X111190801Y-76430104D01*
X111073847Y-76187247D01*
X110930429Y-75958997D01*
X110930427Y-75958993D01*
X110834653Y-75838900D01*
X110834652Y-75838899D01*
X109906290Y-76767262D01*
X109809033Y-76633398D01*
X109686602Y-76510967D01*
X109552736Y-76413708D01*
X110499626Y-75466819D01*
X110560949Y-75433334D01*
X110587307Y-75430500D01*
X191335314Y-75430500D01*
X191402353Y-75450185D01*
G37*
%TD.AperFunction*%
%TD*%
M02*
