%TF.GenerationSoftware,KiCad,Pcbnew,9.0.0*%
%TF.CreationDate,2025-05-09T17:06:20-07:00*%
%TF.ProjectId,Motor_Controller_Board_v1,4d6f746f-725f-4436-9f6e-74726f6c6c65,v1*%
%TF.SameCoordinates,Original*%
%TF.FileFunction,Paste,Top*%
%TF.FilePolarity,Positive*%
%FSLAX46Y46*%
G04 Gerber Fmt 4.6, Leading zero omitted, Abs format (unit mm)*
G04 Created by KiCad (PCBNEW 9.0.0) date 2025-05-09 17:06:20*
%MOMM*%
%LPD*%
G01*
G04 APERTURE LIST*
G04 Aperture macros list*
%AMRoundRect*
0 Rectangle with rounded corners*
0 $1 Rounding radius*
0 $2 $3 $4 $5 $6 $7 $8 $9 X,Y pos of 4 corners*
0 Add a 4 corners polygon primitive as box body*
4,1,4,$2,$3,$4,$5,$6,$7,$8,$9,$2,$3,0*
0 Add four circle primitives for the rounded corners*
1,1,$1+$1,$2,$3*
1,1,$1+$1,$4,$5*
1,1,$1+$1,$6,$7*
1,1,$1+$1,$8,$9*
0 Add four rect primitives between the rounded corners*
20,1,$1+$1,$2,$3,$4,$5,0*
20,1,$1+$1,$4,$5,$6,$7,0*
20,1,$1+$1,$6,$7,$8,$9,0*
20,1,$1+$1,$8,$9,$2,$3,0*%
%AMFreePoly0*
4,1,19,0.197042,0.235489,0.244234,0.181026,0.255792,0.127896,0.255792,-0.127896,0.235489,-0.197042,0.181026,-0.244234,0.127896,-0.255792,-0.127896,-0.255792,-0.197042,-0.235489,-0.244234,-0.181026,-0.255792,-0.127896,-0.255792,-0.037322,-0.235489,0.031824,-0.218332,0.053114,-0.053114,0.218332,0.010136,0.252869,0.037322,0.255792,0.127896,0.255792,0.197042,0.235489,0.197042,0.235489,
$1*%
%AMFreePoly1*
4,1,21,0.197042,0.388965,0.244234,0.334502,0.255792,0.281372,0.255792,-0.281372,0.235489,-0.350518,0.181026,-0.397710,0.127896,-0.409268,0.003297,-0.409268,-0.065849,-0.388965,-0.087139,-0.371808,-0.218332,-0.240614,-0.252869,-0.177364,-0.255792,-0.150178,-0.255792,0.150178,-0.235489,0.219324,-0.218332,0.240614,-0.087139,0.371808,-0.023890,0.406345,0.003297,0.409268,0.127896,0.409268,
0.197042,0.388965,0.197042,0.388965,$1*%
%AMFreePoly2*
4,1,19,0.197042,0.235489,0.244234,0.181026,0.255792,0.127896,0.255792,-0.127896,0.235489,-0.197042,0.181026,-0.244234,0.127896,-0.255792,0.037322,-0.255792,-0.031824,-0.235489,-0.053114,-0.218332,-0.218332,-0.053114,-0.252869,0.010136,-0.255792,0.037322,-0.255792,0.127896,-0.235489,0.197042,-0.181026,0.244234,-0.127896,0.255792,0.127896,0.255792,0.197042,0.235489,0.197042,0.235489,
$1*%
%AMFreePoly3*
4,1,21,0.219324,0.235489,0.240614,0.218332,0.371808,0.087139,0.406345,0.023890,0.409268,-0.003297,0.409268,-0.127896,0.388965,-0.197042,0.334502,-0.244234,0.281372,-0.255792,-0.281372,-0.255792,-0.350518,-0.235489,-0.397710,-0.181026,-0.409268,-0.127896,-0.409268,-0.003297,-0.388965,0.065849,-0.371808,0.087139,-0.240614,0.218332,-0.177364,0.252869,-0.150178,0.255792,0.150178,0.255792,
0.219324,0.235489,0.219324,0.235489,$1*%
%AMFreePoly4*
4,1,25,0.252563,0.389951,0.272819,0.373627,0.373627,0.272819,0.406487,0.212641,0.409268,0.186775,0.409268,-0.186775,0.389951,-0.252563,0.373627,-0.272819,0.272819,-0.373627,0.212641,-0.406487,0.186775,-0.409268,-0.186775,-0.409268,-0.252563,-0.389951,-0.272819,-0.373627,-0.373627,-0.272819,-0.406487,-0.212641,-0.409268,-0.186775,-0.409268,0.186775,-0.389951,0.252563,-0.373627,0.272819,
-0.272819,0.373627,-0.212641,0.406487,-0.186775,0.409268,0.186775,0.409268,0.252563,0.389951,0.252563,0.389951,$1*%
%AMFreePoly5*
4,1,21,0.350518,0.235489,0.397710,0.181026,0.409268,0.127896,0.409268,0.003297,0.388965,-0.065849,0.371808,-0.087139,0.240614,-0.218332,0.177364,-0.252869,0.150178,-0.255792,-0.150178,-0.255792,-0.219324,-0.235489,-0.240614,-0.218332,-0.371808,-0.087139,-0.406345,-0.023890,-0.409268,0.003297,-0.409268,0.127896,-0.388965,0.197042,-0.334502,0.244234,-0.281372,0.255792,0.281372,0.255792,
0.350518,0.235489,0.350518,0.235489,$1*%
%AMFreePoly6*
4,1,19,0.031824,0.235489,0.053114,0.218332,0.218332,0.053114,0.252869,-0.010136,0.255792,-0.037322,0.255792,-0.127896,0.235489,-0.197042,0.181026,-0.244234,0.127896,-0.255792,-0.127896,-0.255792,-0.197042,-0.235489,-0.244234,-0.181026,-0.255792,-0.127896,-0.255792,0.127896,-0.235489,0.197042,-0.181026,0.244234,-0.127896,0.255792,-0.037322,0.255792,0.031824,0.235489,0.031824,0.235489,
$1*%
%AMFreePoly7*
4,1,21,0.065849,0.388965,0.087139,0.371808,0.218332,0.240614,0.252869,0.177364,0.255792,0.150178,0.255792,-0.150178,0.235489,-0.219324,0.218332,-0.240614,0.087139,-0.371808,0.023890,-0.406345,-0.003297,-0.409268,-0.127896,-0.409268,-0.197042,-0.388965,-0.244234,-0.334502,-0.255792,-0.281372,-0.255792,0.281372,-0.235489,0.350518,-0.181026,0.397710,-0.127896,0.409268,-0.003297,0.409268,
0.065849,0.388965,0.065849,0.388965,$1*%
%AMFreePoly8*
4,1,19,0.197042,0.235489,0.244234,0.181026,0.255792,0.127896,0.255792,0.037322,0.235489,-0.031824,0.218332,-0.053114,0.053114,-0.218332,-0.010136,-0.252869,-0.037322,-0.255792,-0.127896,-0.255792,-0.197042,-0.235489,-0.244234,-0.181026,-0.255792,-0.127896,-0.255792,0.127896,-0.235489,0.197042,-0.181026,0.244234,-0.127896,0.255792,0.127896,0.255792,0.197042,0.235489,0.197042,0.235489,
$1*%
%AMFreePoly9*
4,1,6,0.725000,-0.725000,-0.725000,-0.725000,-0.725000,0.125000,-0.125000,0.725000,0.725000,0.725000,0.725000,-0.725000,0.725000,-0.725000,$1*%
G04 Aperture macros list end*
%ADD10RoundRect,0.200000X0.200000X0.275000X-0.200000X0.275000X-0.200000X-0.275000X0.200000X-0.275000X0*%
%ADD11RoundRect,0.250000X0.400000X0.750000X-0.400000X0.750000X-0.400000X-0.750000X0.400000X-0.750000X0*%
%ADD12RoundRect,0.250000X0.750000X0.750000X-0.750000X0.750000X-0.750000X-0.750000X0.750000X-0.750000X0*%
%ADD13RoundRect,0.225000X-0.250000X0.225000X-0.250000X-0.225000X0.250000X-0.225000X0.250000X0.225000X0*%
%ADD14RoundRect,0.200000X0.275000X-0.200000X0.275000X0.200000X-0.275000X0.200000X-0.275000X-0.200000X0*%
%ADD15RoundRect,0.250000X-1.000000X-0.650000X1.000000X-0.650000X1.000000X0.650000X-1.000000X0.650000X0*%
%ADD16RoundRect,0.225000X-0.225000X-0.250000X0.225000X-0.250000X0.225000X0.250000X-0.225000X0.250000X0*%
%ADD17RoundRect,0.150000X0.150000X-0.587500X0.150000X0.587500X-0.150000X0.587500X-0.150000X-0.587500X0*%
%ADD18R,0.750000X1.000000*%
%ADD19RoundRect,0.250000X0.550000X-1.500000X0.550000X1.500000X-0.550000X1.500000X-0.550000X-1.500000X0*%
%ADD20RoundRect,0.140000X0.170000X-0.140000X0.170000X0.140000X-0.170000X0.140000X-0.170000X-0.140000X0*%
%ADD21RoundRect,0.250000X-0.750000X0.400000X-0.750000X-0.400000X0.750000X-0.400000X0.750000X0.400000X0*%
%ADD22RoundRect,0.250000X-0.750000X0.750000X-0.750000X-0.750000X0.750000X-0.750000X0.750000X0.750000X0*%
%ADD23RoundRect,0.225000X0.250000X-0.225000X0.250000X0.225000X-0.250000X0.225000X-0.250000X-0.225000X0*%
%ADD24RoundRect,0.225000X0.225000X0.250000X-0.225000X0.250000X-0.225000X-0.250000X0.225000X-0.250000X0*%
%ADD25RoundRect,0.250000X0.250000X0.475000X-0.250000X0.475000X-0.250000X-0.475000X0.250000X-0.475000X0*%
%ADD26RoundRect,0.250000X-0.650000X1.000000X-0.650000X-1.000000X0.650000X-1.000000X0.650000X1.000000X0*%
%ADD27RoundRect,0.250000X0.625000X-0.312500X0.625000X0.312500X-0.625000X0.312500X-0.625000X-0.312500X0*%
%ADD28RoundRect,0.200000X-0.200000X-0.275000X0.200000X-0.275000X0.200000X0.275000X-0.200000X0.275000X0*%
%ADD29RoundRect,0.140000X-0.170000X0.140000X-0.170000X-0.140000X0.170000X-0.140000X0.170000X0.140000X0*%
%ADD30RoundRect,0.200000X-0.275000X0.200000X-0.275000X-0.200000X0.275000X-0.200000X0.275000X0.200000X0*%
%ADD31RoundRect,0.250000X2.450000X-0.650000X2.450000X0.650000X-2.450000X0.650000X-2.450000X-0.650000X0*%
%ADD32RoundRect,0.218750X0.256250X-0.218750X0.256250X0.218750X-0.256250X0.218750X-0.256250X-0.218750X0*%
%ADD33RoundRect,0.250000X0.650000X-1.000000X0.650000X1.000000X-0.650000X1.000000X-0.650000X-1.000000X0*%
%ADD34RoundRect,0.062500X-0.062500X-0.387500X0.062500X-0.387500X0.062500X0.387500X-0.062500X0.387500X0*%
%ADD35RoundRect,0.062500X-0.387500X-0.062500X0.387500X-0.062500X0.387500X0.062500X-0.387500X0.062500X0*%
%ADD36FreePoly0,0.000000*%
%ADD37FreePoly1,0.000000*%
%ADD38FreePoly2,0.000000*%
%ADD39FreePoly3,0.000000*%
%ADD40FreePoly4,0.000000*%
%ADD41FreePoly5,0.000000*%
%ADD42FreePoly6,0.000000*%
%ADD43FreePoly7,0.000000*%
%ADD44FreePoly8,0.000000*%
%ADD45R,2.700000X3.600000*%
%ADD46R,1.500000X1.900000*%
%ADD47R,0.400000X1.350000*%
%ADD48RoundRect,0.375000X-0.375000X0.625000X-0.375000X-0.625000X0.375000X-0.625000X0.375000X0.625000X0*%
%ADD49RoundRect,0.500000X-1.400000X0.500000X-1.400000X-0.500000X1.400000X-0.500000X1.400000X0.500000X0*%
%ADD50RoundRect,0.150000X0.512500X0.150000X-0.512500X0.150000X-0.512500X-0.150000X0.512500X-0.150000X0*%
%ADD51RoundRect,0.150000X-0.150000X0.587500X-0.150000X-0.587500X0.150000X-0.587500X0.150000X0.587500X0*%
%ADD52R,0.700000X0.700000*%
%ADD53R,1.450000X1.450000*%
%ADD54FreePoly9,0.000000*%
%ADD55R,0.400000X0.800000*%
%ADD56R,0.800000X0.400000*%
G04 APERTURE END LIST*
D10*
%TO.C,R417*%
X143820000Y-105930000D03*
X145470000Y-105930000D03*
%TD*%
D11*
%TO.C,RV403*%
X163570000Y-106030000D03*
D12*
X164720000Y-102030000D03*
D11*
X165870000Y-106030000D03*
%TD*%
D13*
%TO.C,C414*%
X129270000Y-103680000D03*
X129270000Y-102130000D03*
%TD*%
%TO.C,C203*%
X126070000Y-125755000D03*
X126070000Y-124205000D03*
%TD*%
D14*
%TO.C,R418*%
X155470000Y-113930000D03*
X155470000Y-115580000D03*
%TD*%
D15*
%TO.C,D303*%
X154820000Y-135130000D03*
X150820000Y-135130000D03*
%TD*%
D16*
%TO.C,C205*%
X146595000Y-120380000D03*
X145045000Y-120380000D03*
%TD*%
D11*
%TO.C,RV402*%
X134020000Y-105530000D03*
D12*
X135170000Y-101530000D03*
D11*
X136320000Y-105530000D03*
%TD*%
D17*
%TO.C,D304*%
X157270000Y-139505000D03*
X158220000Y-141380000D03*
X156320000Y-141380000D03*
%TD*%
D18*
%TO.C,SW301*%
X187920000Y-132930000D03*
X187920000Y-126930000D03*
X191670000Y-132930000D03*
X191670000Y-126930000D03*
%TD*%
D19*
%TO.C,C407*%
X172365000Y-94530000D03*
X172365000Y-99930000D03*
%TD*%
D13*
%TO.C,C424*%
X149270000Y-108705000D03*
X149270000Y-107155000D03*
%TD*%
D20*
%TO.C,C409*%
X129370000Y-110450000D03*
X129370000Y-111410000D03*
%TD*%
D21*
%TO.C,RV401*%
X193170000Y-107980000D03*
D22*
X189170000Y-106830000D03*
D21*
X193170000Y-105680000D03*
%TD*%
D23*
%TO.C,C206*%
X150820000Y-125605000D03*
X150820000Y-127155000D03*
%TD*%
D13*
%TO.C,C413*%
X120000000Y-102850000D03*
X120000000Y-101300000D03*
%TD*%
%TO.C,C418*%
X159720000Y-111930000D03*
X159720000Y-110380000D03*
%TD*%
D24*
%TO.C,C403*%
X176300000Y-110430000D03*
X177850000Y-110430000D03*
%TD*%
D19*
%TO.C,C423*%
X145470000Y-96230000D03*
X145470000Y-101630000D03*
%TD*%
D25*
%TO.C,C420*%
X150320000Y-113180000D03*
X152220000Y-113180000D03*
%TD*%
D26*
%TO.C,D401*%
X169520000Y-108905000D03*
X169520000Y-104905000D03*
%TD*%
D27*
%TO.C,R414*%
X122270000Y-100137500D03*
X122270000Y-103062500D03*
%TD*%
D14*
%TO.C,R415*%
X124970000Y-114280000D03*
X124970000Y-115930000D03*
%TD*%
D28*
%TO.C,R419*%
X158370000Y-117830000D03*
X156720000Y-117830000D03*
%TD*%
D14*
%TO.C,R411*%
X126470000Y-114280000D03*
X126470000Y-115930000D03*
%TD*%
D13*
%TO.C,C402*%
X188350000Y-111980000D03*
X188350000Y-110430000D03*
%TD*%
D10*
%TO.C,R402*%
X172275000Y-104930000D03*
X173925000Y-104930000D03*
%TD*%
D14*
%TO.C,R403*%
X184970000Y-114605000D03*
X184970000Y-116255000D03*
%TD*%
D29*
%TO.C,C304*%
X155242000Y-132340000D03*
X155242000Y-131380000D03*
%TD*%
D19*
%TO.C,C415*%
X115670000Y-95730000D03*
X115670000Y-101130000D03*
%TD*%
D30*
%TO.C,R407*%
X133270000Y-110330000D03*
X133270000Y-108680000D03*
%TD*%
%TO.C,R203*%
X131970000Y-122355000D03*
X131970000Y-120705000D03*
%TD*%
D31*
%TO.C,C204*%
X134670000Y-124430000D03*
X134670000Y-129530000D03*
%TD*%
D30*
%TO.C,R412*%
X164270000Y-109930000D03*
X164270000Y-108280000D03*
%TD*%
D20*
%TO.C,C401*%
X186850000Y-110200000D03*
X186850000Y-111160000D03*
%TD*%
D30*
%TO.C,R201*%
X142170000Y-120790000D03*
X142170000Y-119140000D03*
%TD*%
D32*
%TO.C,D201*%
X140320000Y-119592500D03*
X140320000Y-121167500D03*
%TD*%
D30*
%TO.C,R302*%
X182820000Y-140030000D03*
X182820000Y-138380000D03*
%TD*%
D27*
%TO.C,R421*%
X151970000Y-100005000D03*
X151970000Y-102930000D03*
%TD*%
D25*
%TO.C,C412*%
X120850000Y-112930000D03*
X122750000Y-112930000D03*
%TD*%
D33*
%TO.C,D402*%
X110070000Y-101930000D03*
X110070000Y-105930000D03*
%TD*%
D28*
%TO.C,R202*%
X127870000Y-120680000D03*
X126220000Y-120680000D03*
%TD*%
D31*
%TO.C,C202*%
X122270000Y-120430000D03*
X122270000Y-125530000D03*
%TD*%
D33*
%TO.C,D403*%
X139600000Y-99930000D03*
X139600000Y-103930000D03*
%TD*%
D27*
%TO.C,R404*%
X184850000Y-99717500D03*
X184850000Y-102642500D03*
%TD*%
D13*
%TO.C,C421*%
X149970000Y-102775000D03*
X149970000Y-101225000D03*
%TD*%
D30*
%TO.C,R401*%
X190870000Y-112055000D03*
X190870000Y-110405000D03*
%TD*%
D34*
%TO.C,U401*%
X181350000Y-105930000D03*
X181850000Y-105930000D03*
X182350000Y-105930000D03*
X182850000Y-105930000D03*
X183350000Y-105930000D03*
X183850000Y-105930000D03*
X184350000Y-105930000D03*
D35*
X185250000Y-106830000D03*
X185250000Y-107330000D03*
X185250000Y-107830000D03*
X185250000Y-108330000D03*
X185250000Y-108830000D03*
X185250000Y-109330000D03*
X185250000Y-109830000D03*
D34*
X184350000Y-110730000D03*
X183850000Y-110730000D03*
X183350000Y-110730000D03*
X182850000Y-110730000D03*
X182350000Y-110730000D03*
X181850000Y-110730000D03*
X181350000Y-110730000D03*
D35*
X180450000Y-109830000D03*
X180450000Y-109330000D03*
X180450000Y-108830000D03*
X180450000Y-108330000D03*
X180450000Y-107830000D03*
X180450000Y-107330000D03*
X180450000Y-106830000D03*
D36*
X184162500Y-109642500D03*
D37*
X184162500Y-108830000D03*
X184162500Y-107830000D03*
D38*
X184162500Y-107017500D03*
D39*
X183350000Y-109642500D03*
D40*
X183350000Y-108830000D03*
X183350000Y-107830000D03*
D41*
X183350000Y-107017500D03*
D39*
X182350000Y-109642500D03*
D40*
X182350000Y-108830000D03*
X182350000Y-107830000D03*
D41*
X182350000Y-107017500D03*
D42*
X181537500Y-109642500D03*
D43*
X181537500Y-108830000D03*
X181537500Y-107830000D03*
D44*
X181537500Y-107017500D03*
%TD*%
D30*
%TO.C,R303*%
X180310000Y-140030000D03*
X180310000Y-138380000D03*
%TD*%
D45*
%TO.C,L201*%
X135820000Y-136980000D03*
X127520000Y-136980000D03*
%TD*%
D24*
%TO.C,C411*%
X118595000Y-110930000D03*
X120145000Y-110930000D03*
%TD*%
D27*
%TO.C,R420*%
X156260000Y-100605000D03*
X156260000Y-103530000D03*
%TD*%
D46*
%TO.C,J302*%
X164670000Y-145205000D03*
X162670000Y-145205000D03*
D47*
X164970000Y-142505000D03*
X164320000Y-142505000D03*
X163670000Y-142505000D03*
X163020000Y-142505000D03*
X162370000Y-142505000D03*
%TD*%
D29*
%TO.C,C301*%
X155830000Y-127035000D03*
X155830000Y-126075000D03*
%TD*%
D24*
%TO.C,C419*%
X148470000Y-110430000D03*
X150020000Y-110430000D03*
%TD*%
D25*
%TO.C,C404*%
X179400000Y-112930000D03*
X181300000Y-112930000D03*
%TD*%
D14*
%TO.C,R304*%
X167820000Y-137230000D03*
X167820000Y-138880000D03*
%TD*%
D48*
%TO.C,U202*%
X143520000Y-123380000D03*
D49*
X145820000Y-129680000D03*
D48*
X145820000Y-123380000D03*
X148120000Y-123380000D03*
%TD*%
D16*
%TO.C,C201*%
X129595000Y-128630000D03*
X128045000Y-128630000D03*
%TD*%
D29*
%TO.C,C303*%
X186170000Y-130390000D03*
X186170000Y-129430000D03*
%TD*%
D13*
%TO.C,C405*%
X178400000Y-102475000D03*
X178400000Y-100925000D03*
%TD*%
%TO.C,C416*%
X119850000Y-108930000D03*
X119850000Y-107380000D03*
%TD*%
D29*
%TO.C,C305*%
X186170000Y-139890000D03*
X186170000Y-138930000D03*
%TD*%
D14*
%TO.C,R423*%
X156970000Y-113930000D03*
X156970000Y-115580000D03*
%TD*%
D27*
%TO.C,R413*%
X127270000Y-100442500D03*
X127270000Y-103367500D03*
%TD*%
D13*
%TO.C,C406*%
X186790000Y-102485000D03*
X186790000Y-100935000D03*
%TD*%
D34*
%TO.C,U403*%
X152720000Y-105930000D03*
X153220000Y-105930000D03*
X153720000Y-105930000D03*
X154220000Y-105930000D03*
X154720000Y-105930000D03*
X155220000Y-105930000D03*
X155720000Y-105930000D03*
D35*
X156620000Y-106830000D03*
X156620000Y-107330000D03*
X156620000Y-107830000D03*
X156620000Y-108330000D03*
X156620000Y-108830000D03*
X156620000Y-109330000D03*
X156620000Y-109830000D03*
D34*
X155720000Y-110730000D03*
X155220000Y-110730000D03*
X154720000Y-110730000D03*
X154220000Y-110730000D03*
X153720000Y-110730000D03*
X153220000Y-110730000D03*
X152720000Y-110730000D03*
D35*
X151820000Y-109830000D03*
X151820000Y-109330000D03*
X151820000Y-108830000D03*
X151820000Y-108330000D03*
X151820000Y-107830000D03*
X151820000Y-107330000D03*
X151820000Y-106830000D03*
D36*
X155532500Y-109642500D03*
D37*
X155532500Y-108830000D03*
X155532500Y-107830000D03*
D38*
X155532500Y-107017500D03*
D39*
X154720000Y-109642500D03*
D40*
X154720000Y-108830000D03*
X154720000Y-107830000D03*
D41*
X154720000Y-107017500D03*
D39*
X153720000Y-109642500D03*
D40*
X153720000Y-108830000D03*
X153720000Y-107830000D03*
D41*
X153720000Y-107017500D03*
D42*
X152907500Y-109642500D03*
D43*
X152907500Y-108830000D03*
X152907500Y-107830000D03*
D44*
X152907500Y-107017500D03*
%TD*%
D10*
%TO.C,R409*%
X179970000Y-117830000D03*
X181620000Y-117830000D03*
%TD*%
D34*
%TO.C,U402*%
X123470000Y-106030000D03*
X123970000Y-106030000D03*
X124470000Y-106030000D03*
X124970000Y-106030000D03*
X125470000Y-106030000D03*
X125970000Y-106030000D03*
X126470000Y-106030000D03*
D35*
X127370000Y-106930000D03*
X127370000Y-107430000D03*
X127370000Y-107930000D03*
X127370000Y-108430000D03*
X127370000Y-108930000D03*
X127370000Y-109430000D03*
X127370000Y-109930000D03*
D34*
X126470000Y-110830000D03*
X125970000Y-110830000D03*
X125470000Y-110830000D03*
X124970000Y-110830000D03*
X124470000Y-110830000D03*
X123970000Y-110830000D03*
X123470000Y-110830000D03*
D35*
X122570000Y-109930000D03*
X122570000Y-109430000D03*
X122570000Y-108930000D03*
X122570000Y-108430000D03*
X122570000Y-107930000D03*
X122570000Y-107430000D03*
X122570000Y-106930000D03*
D36*
X126282500Y-109742500D03*
D37*
X126282500Y-108930000D03*
X126282500Y-107930000D03*
D38*
X126282500Y-107117500D03*
D39*
X125470000Y-109742500D03*
D40*
X125470000Y-108930000D03*
X125470000Y-107930000D03*
D41*
X125470000Y-107117500D03*
D39*
X124470000Y-109742500D03*
D40*
X124470000Y-108930000D03*
X124470000Y-107930000D03*
D41*
X124470000Y-107117500D03*
D42*
X123657500Y-109742500D03*
D43*
X123657500Y-108930000D03*
X123657500Y-107930000D03*
D44*
X123657500Y-107117500D03*
%TD*%
D13*
%TO.C,C422*%
X158470000Y-103930000D03*
X158470000Y-102380000D03*
%TD*%
D14*
%TO.C,R422*%
X153970000Y-113930000D03*
X153970000Y-115580000D03*
%TD*%
D50*
%TO.C,U201*%
X127820000Y-126630000D03*
X127820000Y-125680000D03*
X127820000Y-124730000D03*
X130095000Y-124730000D03*
X130095000Y-125680000D03*
X130095000Y-126630000D03*
%TD*%
D51*
%TO.C,D302*%
X165070000Y-139380000D03*
X164120000Y-137505000D03*
X166020000Y-137505000D03*
%TD*%
D28*
%TO.C,R424*%
X134595000Y-116330000D03*
X132945000Y-116330000D03*
%TD*%
D52*
%TO.C,U301*%
X157770000Y-124430000D03*
X157770000Y-134330000D03*
X169670000Y-134330000D03*
X169670000Y-124430000D03*
D53*
X165695000Y-131355000D03*
X165695000Y-129380000D03*
X165695000Y-127405000D03*
X163720000Y-131355000D03*
X163720000Y-129380000D03*
X163720000Y-127405000D03*
X161745000Y-131355000D03*
X161745000Y-129380000D03*
D54*
X161745000Y-127405000D03*
D55*
X158920000Y-124480000D03*
X159720000Y-124480000D03*
X160520000Y-124480000D03*
X161320000Y-124480000D03*
X162120000Y-124480000D03*
X162920000Y-124480000D03*
X163720000Y-124480000D03*
X164520000Y-124480000D03*
X165320000Y-124480000D03*
X166120000Y-124480000D03*
X166920000Y-124480000D03*
X167720000Y-124480000D03*
X168520000Y-124480000D03*
D56*
X169620000Y-125380000D03*
X169620000Y-126180000D03*
X169620000Y-126980000D03*
X169620000Y-127780000D03*
X169620000Y-128580000D03*
X169620000Y-129380000D03*
X169620000Y-130180000D03*
X169620000Y-130980000D03*
X169620000Y-131780000D03*
X169620000Y-132580000D03*
X169620000Y-133380000D03*
D55*
X168520000Y-134280000D03*
X167720000Y-134280000D03*
X166920000Y-134280000D03*
X166120000Y-134280000D03*
X165320000Y-134280000D03*
X164520000Y-134280000D03*
X163720000Y-134280000D03*
X162920000Y-134280000D03*
X162120000Y-134280000D03*
X161320000Y-134280000D03*
X160520000Y-134280000D03*
X159720000Y-134280000D03*
X158920000Y-134280000D03*
D56*
X157820000Y-133380000D03*
X157820000Y-132580000D03*
X157820000Y-131780000D03*
X157820000Y-130980000D03*
X157820000Y-130180000D03*
X157820000Y-129380000D03*
X157820000Y-128580000D03*
X157820000Y-127780000D03*
X157820000Y-126980000D03*
X157820000Y-126180000D03*
X157820000Y-125380000D03*
%TD*%
D23*
%TO.C,C302*%
X153820000Y-125605000D03*
X153820000Y-127155000D03*
%TD*%
D28*
%TO.C,R204*%
X130145000Y-122630000D03*
X128495000Y-122630000D03*
%TD*%
D14*
%TO.C,R301*%
X153742000Y-130880000D03*
X153742000Y-132530000D03*
%TD*%
%TO.C,R416*%
X127970000Y-114280000D03*
X127970000Y-115930000D03*
%TD*%
D27*
%TO.C,R405*%
X180850000Y-99717500D03*
X180850000Y-102642500D03*
%TD*%
D14*
%TO.C,R408*%
X186470000Y-114605000D03*
X186470000Y-116255000D03*
%TD*%
D18*
%TO.C,SW302*%
X187795000Y-142430000D03*
X187795000Y-136430000D03*
X191545000Y-142430000D03*
X191545000Y-136430000D03*
%TD*%
D13*
%TO.C,C410*%
X130850000Y-111930000D03*
X130850000Y-110380000D03*
%TD*%
D20*
%TO.C,C417*%
X158070000Y-110450000D03*
X158070000Y-111410000D03*
%TD*%
D13*
%TO.C,C408*%
X178100000Y-108930000D03*
X178100000Y-107380000D03*
%TD*%
D14*
%TO.C,R406*%
X183490000Y-114605000D03*
X183490000Y-116255000D03*
%TD*%
D10*
%TO.C,R410*%
X114025000Y-105930000D03*
X115675000Y-105930000D03*
%TD*%
D17*
%TO.C,D301*%
X161620000Y-137380000D03*
X162570000Y-139255000D03*
X160670000Y-139255000D03*
%TD*%
M02*
