M48
; DRILL file {KiCad 9.0.0} date 2025-05-09T17:06:20-0700
; FORMAT={-:-/ absolute / metric / decimal}
; #@! TF.CreationDate,2025-05-09T17:06:20-07:00
; #@! TF.GenerationSoftware,Kicad,Pcbnew,9.0.0
; #@! TF.FileFunction,MixedPlating,1,2
FMAT,2
METRIC
; #@! TA.AperFunction,Plated,PTH,ComponentDrill
T1C0.200
; #@! TA.AperFunction,Plated,PTH,ViaDrill
T2C0.300
; #@! TA.AperFunction,Plated,PTH,ComponentDrill
T3C0.600
; #@! TA.AperFunction,Plated,PTH,ComponentDrill
T4C0.850
; #@! TA.AperFunction,Plated,PTH,ComponentDrill
T5C1.000
; #@! TA.AperFunction,Plated,PTH,ComponentDrill
T6C1.520
; #@! TA.AperFunction,Plated,PTH,ComponentDrill
T7C2.200
%
G90
G05
T1
X123.97Y-107.43
X123.97Y-108.43
X123.97Y-109.43
X124.97Y-107.43
X124.97Y-108.43
X124.97Y-109.43
X125.97Y-107.43
X125.97Y-108.43
X125.97Y-109.43
X153.22Y-107.33
X153.22Y-108.33
X153.22Y-109.33
X154.22Y-107.33
X154.22Y-108.33
X154.22Y-109.33
X155.22Y-107.33
X155.22Y-108.33
X155.22Y-109.33
X181.85Y-107.33
X181.85Y-108.33
X181.85Y-109.33
X182.85Y-107.33
X182.85Y-108.33
X182.85Y-109.33
X183.85Y-107.33
X183.85Y-108.33
X183.85Y-109.33
T2
X107.271Y-101.9
X107.925Y-101.93
X108.7Y-85.9
X110.7Y-85.9
X112.6Y-85.9
X115.195Y-103.88
X115.27Y-107.03
X115.27Y-108.23
X115.67Y-93.28
X116.15Y-89.2
X116.22Y-103.855
X116.27Y-107.03
X116.27Y-108.155
X117.67Y-105.73
X118.57Y-135.23
X119.5Y-98.0
X119.72Y-112.93
X120.07Y-89.2
X120.07Y-93.03
X120.3Y-104.1
X120.8Y-98.0
X121.37Y-107.73
X121.67Y-135.03
X124.97Y-97.03
X125.04Y-89.2
X125.07Y-93.23
X126.08Y-123.19
X126.47Y-116.93
X128.97Y-121.43
X129.0Y-97.9
X129.37Y-112.24
X129.47Y-109.43
X129.72Y-107.93
X130.07Y-93.33
X130.12Y-89.2
X130.47Y-101.646
X130.47Y-102.48
X130.85Y-112.95
X130.9Y-97.9
X131.25Y-125.68
X131.32Y-124.43
X132.47Y-106.23
X132.97Y-112.93
X133.37Y-114.63
X135.72Y-108.43
X137.17Y-117.23
X137.27Y-110.73
X137.4Y-86.4
X139.4Y-86.4
X139.47Y-97.93
X140.22Y-122.43
X140.97Y-110.73
X141.3Y-86.4
X143.05Y-101.15
X143.77Y-114.63
X144.05Y-102.1
X145.47Y-93.705
X145.47Y-103.93
X145.614Y-89.454
X145.8Y-134.0
X145.8Y-136.4
X146.72Y-119.18
X147.77Y-117.93
X148.125Y-121.825
X149.8Y-98.0
X150.0Y-89.5
X150.0Y-94.2
X150.05Y-104.05
X150.32Y-114.46
X150.37Y-138.83
X150.47Y-141.83
X150.72Y-124.43
X150.837Y-107.623
X151.3Y-98.0
X151.57Y-116.43
X153.8Y-124.4
X154.2Y-89.7
X154.2Y-93.3
X154.2Y-96.2
X154.81Y-140.02
X155.266Y-133.142
X155.47Y-116.46
X155.785Y-124.495
X156.22Y-122.43
X156.42Y-131.48
X156.47Y-132.63
X157.17Y-142.94
X157.4Y-97.9
X157.72Y-123.43
X157.72Y-135.68
X158.07Y-112.1
X158.314Y-89.454
X158.37Y-116.63
X158.446Y-114.4
X158.47Y-109.43
X158.72Y-107.93
X158.77Y-130.98
X158.9Y-92.3
X158.9Y-95.1
X159.22Y-113.18
X159.22Y-123.18
X159.22Y-125.43
X159.28Y-103.12
X159.5Y-97.9
X159.55Y-138.91
X159.838Y-89.454
X159.838Y-102.662
X160.22Y-123.43
X160.22Y-125.68
X160.47Y-133.18
X160.67Y-140.5
X160.97Y-111.43
X161.4Y-135.8
X161.645Y-121.8
X161.72Y-125.93
X161.72Y-132.68
X162.07Y-106.03
X162.3Y-114.4
X163.72Y-125.93
X163.72Y-132.68
X164.97Y-141.35
X165.42Y-94.23
X165.72Y-125.93
X165.97Y-136.18
X166.23Y-135.18
X166.8Y-86.8
X167.22Y-129.43
X167.22Y-131.43
X168.27Y-94.08
X168.5Y-86.8
X168.82Y-140.0
X169.52Y-111.13
X170.0Y-99.5
X170.3Y-86.8
X170.81Y-94.555
X170.83Y-134.33
X170.95Y-100.3
X171.07Y-130.33
X172.57Y-112.23
X172.965Y-103.38
X173.0Y-88.95
X173.08Y-131.69
X174.47Y-114.83
X175.17Y-126.13
X175.25Y-133.65
X175.47Y-138.03
X177.2Y-103.8
X177.3Y-127.48
X177.6Y-97.7
X178.07Y-117.53
X178.126Y-88.946
X178.17Y-123.03
X178.2Y-92.65
X178.3Y-95.4
X179.0Y-103.8
X179.27Y-107.53
X179.3Y-129.57
X179.4Y-114.12
X179.8Y-97.7
X181.87Y-124.93
X183.07Y-129.63
X183.1Y-89.0
X183.1Y-93.1
X184.95Y-117.17
X185.17Y-141.73
X185.3Y-97.7
X186.16Y-109.43
X186.17Y-128.49
X186.17Y-138.105
X186.67Y-108.63
X186.99Y-117.79
X187.27Y-107.83
X187.47Y-106.63
X187.8Y-88.9
X187.9Y-97.7
X188.0Y-117.86
X188.286Y-101.138
X188.286Y-102.154
X188.3Y-92.8
X189.25Y-88.9
X189.26Y-111.97
X191.47Y-143.68
X191.545Y-135.505
X191.72Y-125.93
X192.545Y-132.93
X193.17Y-109.53
T4
X161.17Y-142.505
X166.17Y-142.505
T5
X115.305Y-145.33
X117.845Y-145.33
X121.53Y-145.33
X124.07Y-145.33
X137.13Y-145.38
X139.67Y-145.38
X145.81Y-145.205
X148.35Y-145.205
X152.81Y-145.205
X155.35Y-145.205
X170.77Y-145.205
X173.31Y-145.205
X177.77Y-145.205
X180.31Y-145.205
X182.85Y-145.205
X185.39Y-145.205
T6
X112.67Y-114.99
X112.67Y-120.07
X112.67Y-125.55
X112.67Y-130.63
X117.47Y-84.93
X122.55Y-84.93
X127.63Y-84.93
X132.71Y-84.93
X146.48Y-84.93
X151.56Y-84.93
X156.64Y-84.93
X161.72Y-84.93
X175.48Y-84.93
X180.56Y-84.93
X185.64Y-84.93
X190.72Y-84.93
T7
X108.97Y-77.35
X108.97Y-146.43
X192.97Y-77.43
X192.97Y-146.43
T3
G00X160.17Y-145.555
M15
G01X160.17Y-144.855
M16
G05
G00X167.17Y-144.855
M15
G01X167.17Y-145.555
M16
G05
M30
