%TF.GenerationSoftware,KiCad,Pcbnew,9.0.0*%
%TF.CreationDate,2025-05-08T17:49:57-07:00*%
%TF.ProjectId,Motor_Controller_Board_v1,4d6f746f-725f-4436-9f6e-74726f6c6c65,v1*%
%TF.SameCoordinates,Original*%
%TF.FileFunction,Soldermask,Top*%
%TF.FilePolarity,Negative*%
%FSLAX46Y46*%
G04 Gerber Fmt 4.6, Leading zero omitted, Abs format (unit mm)*
G04 Created by KiCad (PCBNEW 9.0.0) date 2025-05-08 17:49:57*
%MOMM*%
%LPD*%
G01*
G04 APERTURE LIST*
G04 Aperture macros list*
%AMRoundRect*
0 Rectangle with rounded corners*
0 $1 Rounding radius*
0 $2 $3 $4 $5 $6 $7 $8 $9 X,Y pos of 4 corners*
0 Add a 4 corners polygon primitive as box body*
4,1,4,$2,$3,$4,$5,$6,$7,$8,$9,$2,$3,0*
0 Add four circle primitives for the rounded corners*
1,1,$1+$1,$2,$3*
1,1,$1+$1,$4,$5*
1,1,$1+$1,$6,$7*
1,1,$1+$1,$8,$9*
0 Add four rect primitives between the rounded corners*
20,1,$1+$1,$2,$3,$4,$5,0*
20,1,$1+$1,$4,$5,$6,$7,0*
20,1,$1+$1,$6,$7,$8,$9,0*
20,1,$1+$1,$8,$9,$2,$3,0*%
%AMFreePoly0*
4,1,6,0.725000,-0.725000,-0.725000,-0.725000,-0.725000,0.125000,-0.125000,0.725000,0.725000,0.725000,0.725000,-0.725000,0.725000,-0.725000,$1*%
G04 Aperture macros list end*
%ADD10RoundRect,0.225000X-0.225000X-0.250000X0.225000X-0.250000X0.225000X0.250000X-0.225000X0.250000X0*%
%ADD11RoundRect,0.200000X-0.200000X-0.275000X0.200000X-0.275000X0.200000X0.275000X-0.200000X0.275000X0*%
%ADD12RoundRect,0.250000X-0.400000X-0.750000X0.400000X-0.750000X0.400000X0.750000X-0.400000X0.750000X0*%
%ADD13RoundRect,0.250000X-0.750000X-0.750000X0.750000X-0.750000X0.750000X0.750000X-0.750000X0.750000X0*%
%ADD14RoundRect,0.250000X-0.750000X0.400000X-0.750000X-0.400000X0.750000X-0.400000X0.750000X0.400000X0*%
%ADD15RoundRect,0.250000X-0.750000X0.750000X-0.750000X-0.750000X0.750000X-0.750000X0.750000X0.750000X0*%
%ADD16RoundRect,0.140000X0.140000X0.170000X-0.140000X0.170000X-0.140000X-0.170000X0.140000X-0.170000X0*%
%ADD17RoundRect,0.225000X-0.250000X0.225000X-0.250000X-0.225000X0.250000X-0.225000X0.250000X0.225000X0*%
%ADD18RoundRect,0.250000X-0.475000X0.250000X-0.475000X-0.250000X0.475000X-0.250000X0.475000X0.250000X0*%
%ADD19RoundRect,0.250000X1.500000X0.550000X-1.500000X0.550000X-1.500000X-0.550000X1.500000X-0.550000X0*%
%ADD20RoundRect,0.150000X0.587500X0.150000X-0.587500X0.150000X-0.587500X-0.150000X0.587500X-0.150000X0*%
%ADD21RoundRect,0.150000X-0.587500X-0.150000X0.587500X-0.150000X0.587500X0.150000X-0.587500X0.150000X0*%
%ADD22RoundRect,0.200000X-0.275000X0.200000X-0.275000X-0.200000X0.275000X-0.200000X0.275000X0.200000X0*%
%ADD23RoundRect,0.200000X0.200000X0.275000X-0.200000X0.275000X-0.200000X-0.275000X0.200000X-0.275000X0*%
%ADD24RoundRect,0.250000X0.312500X0.625000X-0.312500X0.625000X-0.312500X-0.625000X0.312500X-0.625000X0*%
%ADD25R,0.400000X0.800000*%
%ADD26R,0.800000X0.400000*%
%ADD27FreePoly0,90.000000*%
%ADD28R,1.450000X1.450000*%
%ADD29R,0.700000X0.700000*%
%ADD30RoundRect,0.062500X0.062500X-0.387500X0.062500X0.387500X-0.062500X0.387500X-0.062500X-0.387500X0*%
%ADD31RoundRect,0.062500X0.387500X-0.062500X0.387500X0.062500X-0.387500X0.062500X-0.387500X-0.062500X0*%
%ADD32R,3.250000X3.250000*%
%ADD33R,1.000000X0.750000*%
%ADD34RoundRect,0.225000X0.225000X0.250000X-0.225000X0.250000X-0.225000X-0.250000X0.225000X-0.250000X0*%
%ADD35R,3.000000X3.000000*%
%ADD36C,3.000000*%
%ADD37RoundRect,0.250000X0.650000X-1.000000X0.650000X1.000000X-0.650000X1.000000X-0.650000X-1.000000X0*%
%ADD38RoundRect,0.225000X0.250000X-0.225000X0.250000X0.225000X-0.250000X0.225000X-0.250000X-0.225000X0*%
%ADD39R,1.700000X1.700000*%
%ADD40O,1.700000X1.700000*%
%ADD41C,3.800000*%
%ADD42RoundRect,0.250000X0.650000X2.450000X-0.650000X2.450000X-0.650000X-2.450000X0.650000X-2.450000X0*%
%ADD43RoundRect,0.218750X0.218750X0.256250X-0.218750X0.256250X-0.218750X-0.256250X0.218750X-0.256250X0*%
%ADD44RoundRect,0.140000X-0.140000X-0.170000X0.140000X-0.170000X0.140000X0.170000X-0.140000X0.170000X0*%
%ADD45RoundRect,0.250000X1.000000X0.650000X-1.000000X0.650000X-1.000000X-0.650000X1.000000X-0.650000X0*%
%ADD46RoundRect,0.200000X0.275000X-0.200000X0.275000X0.200000X-0.275000X0.200000X-0.275000X-0.200000X0*%
%ADD47R,3.600000X2.700000*%
%ADD48R,1.350000X0.400000*%
%ADD49O,1.900000X1.200000*%
%ADD50R,1.900000X1.200000*%
%ADD51C,1.450000*%
%ADD52R,1.900000X1.500000*%
%ADD53RoundRect,0.375000X-0.625000X-0.375000X0.625000X-0.375000X0.625000X0.375000X-0.625000X0.375000X0*%
%ADD54RoundRect,0.500000X-0.500000X-1.400000X0.500000X-1.400000X0.500000X1.400000X-0.500000X1.400000X0*%
%ADD55RoundRect,0.150000X-0.150000X0.512500X-0.150000X-0.512500X0.150000X-0.512500X0.150000X0.512500X0*%
%ADD56RoundRect,0.250000X-1.000000X-0.650000X1.000000X-0.650000X1.000000X0.650000X-1.000000X0.650000X0*%
G04 APERTURE END LIST*
D10*
%TO.C,C424*%
X147775000Y-114200000D03*
X146225000Y-114200000D03*
%TD*%
D11*
%TO.C,R412*%
X146350000Y-66000000D03*
X148000000Y-66000000D03*
%TD*%
%TO.C,R407*%
X147750000Y-130200000D03*
X149400000Y-130200000D03*
%TD*%
D12*
%TO.C,RV403*%
X156325000Y-54400000D03*
D13*
X157475000Y-58400000D03*
D12*
X158625000Y-54400000D03*
%TD*%
D14*
%TO.C,RV402*%
X107400000Y-129350000D03*
D15*
X103400000Y-130500000D03*
D14*
X107400000Y-131650000D03*
%TD*%
%TO.C,RV401*%
X145600000Y-69650000D03*
D15*
X141600000Y-70800000D03*
D14*
X145600000Y-71950000D03*
%TD*%
D11*
%TO.C,R424*%
X139520000Y-63920000D03*
X141170000Y-63920000D03*
%TD*%
%TO.C,R419*%
X139520000Y-61410000D03*
X141170000Y-61410000D03*
%TD*%
%TO.C,R409*%
X139520000Y-56390000D03*
X141170000Y-56390000D03*
%TD*%
D16*
%TO.C,C409*%
X150480000Y-134100000D03*
X149520000Y-134100000D03*
%TD*%
D10*
%TO.C,C410*%
X149450000Y-132620000D03*
X151000000Y-132620000D03*
%TD*%
D17*
%TO.C,C403*%
X149500000Y-85620000D03*
X149500000Y-87170000D03*
%TD*%
%TO.C,C411*%
X150000000Y-143325000D03*
X150000000Y-144875000D03*
%TD*%
D18*
%TO.C,C404*%
X152000000Y-82170000D03*
X152000000Y-84070000D03*
%TD*%
D10*
%TO.C,C405*%
X141450000Y-85370000D03*
X143000000Y-85370000D03*
%TD*%
%TO.C,C406*%
X140005000Y-76680000D03*
X141555000Y-76680000D03*
%TD*%
D19*
%TO.C,C407*%
X139000000Y-89370000D03*
X133600000Y-89370000D03*
%TD*%
D18*
%TO.C,C412*%
X152000000Y-140720000D03*
X152000000Y-142620000D03*
%TD*%
D10*
%TO.C,C408*%
X146450000Y-85370000D03*
X148000000Y-85370000D03*
%TD*%
D20*
%TO.C,D301*%
X178325000Y-102800000D03*
X178325000Y-100900000D03*
X176450000Y-101850000D03*
%TD*%
D21*
%TO.C,D302*%
X176575000Y-97450000D03*
X176575000Y-99350000D03*
X178450000Y-98400000D03*
%TD*%
D20*
%TO.C,D304*%
X180450000Y-107150000D03*
X180450000Y-105250000D03*
X178575000Y-106200000D03*
%TD*%
D11*
%TO.C,R401*%
X147865000Y-73090000D03*
X149515000Y-73090000D03*
%TD*%
D22*
%TO.C,R402*%
X144000000Y-89545000D03*
X144000000Y-91195000D03*
%TD*%
D23*
%TO.C,R403*%
X155325000Y-78500000D03*
X153675000Y-78500000D03*
%TD*%
D22*
%TO.C,R410*%
X145000000Y-147795000D03*
X145000000Y-149445000D03*
%TD*%
D23*
%TO.C,R411*%
X155000000Y-137000000D03*
X153350000Y-137000000D03*
%TD*%
D24*
%TO.C,R404*%
X141712500Y-78620000D03*
X138787500Y-78620000D03*
%TD*%
%TO.C,R405*%
X141712500Y-82620000D03*
X138787500Y-82620000D03*
%TD*%
D23*
%TO.C,R406*%
X155325000Y-79980000D03*
X153675000Y-79980000D03*
%TD*%
D24*
%TO.C,R413*%
X142437500Y-136200000D03*
X139512500Y-136200000D03*
%TD*%
D23*
%TO.C,R408*%
X155325000Y-77000000D03*
X153675000Y-77000000D03*
%TD*%
D22*
%TO.C,R417*%
X145000000Y-118000000D03*
X145000000Y-119650000D03*
%TD*%
D23*
%TO.C,R418*%
X154650000Y-108000000D03*
X153000000Y-108000000D03*
%TD*%
D24*
%TO.C,R420*%
X142000000Y-107210000D03*
X139075000Y-107210000D03*
%TD*%
%TO.C,R421*%
X142000000Y-111500000D03*
X139075000Y-111500000D03*
%TD*%
D23*
%TO.C,R422*%
X154650000Y-109500000D03*
X153000000Y-109500000D03*
%TD*%
%TO.C,R423*%
X154650000Y-106500000D03*
X153000000Y-106500000D03*
%TD*%
D25*
%TO.C,U301*%
X164450000Y-105650000D03*
X165250000Y-105650000D03*
X166050000Y-105650000D03*
X166850000Y-105650000D03*
X167650000Y-105650000D03*
X168450000Y-105650000D03*
X169250000Y-105650000D03*
X170050000Y-105650000D03*
X170850000Y-105650000D03*
X171650000Y-105650000D03*
X172450000Y-105650000D03*
D26*
X173350000Y-104550000D03*
X173350000Y-103750000D03*
X173350000Y-102950000D03*
X173350000Y-102150000D03*
X173350000Y-101350000D03*
X173350000Y-100550000D03*
X173350000Y-99750000D03*
X173350000Y-98950000D03*
X173350000Y-98150000D03*
X173350000Y-97350000D03*
X173350000Y-96550000D03*
X173350000Y-95750000D03*
X173350000Y-94950000D03*
D25*
X172450000Y-93850000D03*
X171650000Y-93850000D03*
X170850000Y-93850000D03*
X170050000Y-93850000D03*
X169250000Y-93850000D03*
X168450000Y-93850000D03*
X167650000Y-93850000D03*
X166850000Y-93850000D03*
X166050000Y-93850000D03*
X165250000Y-93850000D03*
X164450000Y-93850000D03*
D26*
X163550000Y-94950000D03*
X163550000Y-95750000D03*
X163550000Y-96550000D03*
X163550000Y-97350000D03*
X163550000Y-98150000D03*
X163550000Y-98950000D03*
X163550000Y-99750000D03*
X163550000Y-100550000D03*
X163550000Y-101350000D03*
X163550000Y-102150000D03*
X163550000Y-102950000D03*
X163550000Y-103750000D03*
X163550000Y-104550000D03*
D27*
X166475000Y-101725000D03*
D28*
X168450000Y-101725000D03*
X170425000Y-101725000D03*
X166475000Y-99750000D03*
X168450000Y-99750000D03*
X170425000Y-99750000D03*
X166475000Y-97775000D03*
X168450000Y-97775000D03*
X170425000Y-97775000D03*
D29*
X163500000Y-93800000D03*
X173400000Y-93800000D03*
X173400000Y-105700000D03*
X163500000Y-105700000D03*
%TD*%
D30*
%TO.C,U401*%
X145900000Y-83020000D03*
X146400000Y-83020000D03*
X146900000Y-83020000D03*
X147400000Y-83020000D03*
X147900000Y-83020000D03*
X148400000Y-83020000D03*
X148900000Y-83020000D03*
D31*
X149800000Y-82120000D03*
X149800000Y-81620000D03*
X149800000Y-81120000D03*
X149800000Y-80620000D03*
X149800000Y-80120000D03*
X149800000Y-79620000D03*
X149800000Y-79120000D03*
D30*
X148900000Y-78220000D03*
X148400000Y-78220000D03*
X147900000Y-78220000D03*
X147400000Y-78220000D03*
X146900000Y-78220000D03*
X146400000Y-78220000D03*
X145900000Y-78220000D03*
D31*
X145000000Y-79120000D03*
X145000000Y-79620000D03*
X145000000Y-80120000D03*
X145000000Y-80620000D03*
X145000000Y-81120000D03*
X145000000Y-81620000D03*
X145000000Y-82120000D03*
D32*
X147400000Y-80620000D03*
%TD*%
D30*
%TO.C,U402*%
X146000000Y-140900000D03*
X146500000Y-140900000D03*
X147000000Y-140900000D03*
X147500000Y-140900000D03*
X148000000Y-140900000D03*
X148500000Y-140900000D03*
X149000000Y-140900000D03*
D31*
X149900000Y-140000000D03*
X149900000Y-139500000D03*
X149900000Y-139000000D03*
X149900000Y-138500000D03*
X149900000Y-138000000D03*
X149900000Y-137500000D03*
X149900000Y-137000000D03*
D30*
X149000000Y-136100000D03*
X148500000Y-136100000D03*
X148000000Y-136100000D03*
X147500000Y-136100000D03*
X147000000Y-136100000D03*
X146500000Y-136100000D03*
X146000000Y-136100000D03*
D31*
X145100000Y-137000000D03*
X145100000Y-137500000D03*
X145100000Y-138000000D03*
X145100000Y-138500000D03*
X145100000Y-139000000D03*
X145100000Y-139500000D03*
X145100000Y-140000000D03*
D32*
X147500000Y-138500000D03*
%TD*%
D30*
%TO.C,U403*%
X145900000Y-111650000D03*
X146400000Y-111650000D03*
X146900000Y-111650000D03*
X147400000Y-111650000D03*
X147900000Y-111650000D03*
X148400000Y-111650000D03*
X148900000Y-111650000D03*
D31*
X149800000Y-110750000D03*
X149800000Y-110250000D03*
X149800000Y-109750000D03*
X149800000Y-109250000D03*
X149800000Y-108750000D03*
X149800000Y-108250000D03*
X149800000Y-107750000D03*
D30*
X148900000Y-106850000D03*
X148400000Y-106850000D03*
X147900000Y-106850000D03*
X147400000Y-106850000D03*
X146900000Y-106850000D03*
X146400000Y-106850000D03*
X145900000Y-106850000D03*
D31*
X145000000Y-107750000D03*
X145000000Y-108250000D03*
X145000000Y-108750000D03*
X145000000Y-109250000D03*
X145000000Y-109750000D03*
X145000000Y-110250000D03*
X145000000Y-110750000D03*
D32*
X147400000Y-109250000D03*
%TD*%
D19*
%TO.C,C415*%
X140200000Y-147800000D03*
X134800000Y-147800000D03*
%TD*%
D33*
%TO.C,SW301*%
X166000000Y-71800000D03*
X172000000Y-71800000D03*
X166000000Y-75550000D03*
X172000000Y-75550000D03*
%TD*%
D34*
%TO.C,C206*%
X166225000Y-112650000D03*
X164675000Y-112650000D03*
%TD*%
D35*
%TO.C,J401*%
X124000000Y-72750000D03*
D36*
X124000000Y-77830000D03*
X124000000Y-82910000D03*
X124000000Y-87990000D03*
%TD*%
D37*
%TO.C,D303*%
X174200000Y-112650000D03*
X174200000Y-108650000D03*
%TD*%
D38*
%TO.C,C205*%
X159450000Y-118425000D03*
X159450000Y-116875000D03*
%TD*%
D39*
%TO.C,J301*%
X184275000Y-78080000D03*
D40*
X184275000Y-80620000D03*
X184275000Y-83160000D03*
X184275000Y-85700000D03*
%TD*%
D41*
%TO.C,H201*%
X116500000Y-70500000D03*
%TD*%
%TO.C,H204*%
X116420000Y-154500000D03*
%TD*%
D16*
%TO.C,C417*%
X150480000Y-105400000D03*
X149520000Y-105400000D03*
%TD*%
D41*
%TO.C,H203*%
X185500000Y-154500000D03*
%TD*%
D35*
%TO.C,J403*%
X124000000Y-101750000D03*
D36*
X124000000Y-106830000D03*
X124000000Y-111910000D03*
X124000000Y-116990000D03*
%TD*%
D39*
%TO.C,J304*%
X184275000Y-108120000D03*
D40*
X184275000Y-110660000D03*
%TD*%
D39*
%TO.C,J206*%
X184400000Y-139400000D03*
D40*
X184400000Y-141940000D03*
%TD*%
D16*
%TO.C,C401*%
X150230000Y-76620000D03*
X149270000Y-76620000D03*
%TD*%
D11*
%TO.C,R203*%
X159775000Y-131500000D03*
X161425000Y-131500000D03*
%TD*%
%TO.C,R201*%
X158210000Y-121300000D03*
X159860000Y-121300000D03*
%TD*%
D42*
%TO.C,C204*%
X168600000Y-128800000D03*
X163500000Y-128800000D03*
%TD*%
D43*
%TO.C,D201*%
X160237500Y-123150000D03*
X158662500Y-123150000D03*
%TD*%
D11*
%TO.C,R302*%
X177450000Y-80650000D03*
X179100000Y-80650000D03*
%TD*%
D39*
%TO.C,J305*%
X184275000Y-115120000D03*
D40*
X184275000Y-117660000D03*
%TD*%
D44*
%TO.C,C304*%
X170450000Y-108228000D03*
X171410000Y-108228000D03*
%TD*%
D39*
%TO.C,J303*%
X184275000Y-90160000D03*
D40*
X184275000Y-92700000D03*
%TD*%
D44*
%TO.C,C301*%
X165145000Y-107640000D03*
X166105000Y-107640000D03*
%TD*%
D42*
%TO.C,C202*%
X164600000Y-141200000D03*
X159500000Y-141200000D03*
%TD*%
D45*
%TO.C,D403*%
X143000000Y-124000000D03*
X139000000Y-124000000D03*
%TD*%
D10*
%TO.C,C421*%
X140690000Y-113500000D03*
X142240000Y-113500000D03*
%TD*%
D46*
%TO.C,R202*%
X159750000Y-137250000D03*
X159750000Y-135600000D03*
%TD*%
D39*
%TO.C,J207*%
X184400000Y-145625000D03*
D40*
X184400000Y-148165000D03*
%TD*%
D11*
%TO.C,R303*%
X177450000Y-83160000D03*
X179100000Y-83160000D03*
%TD*%
D35*
%TO.C,J203*%
X159140000Y-150800000D03*
D36*
X154060000Y-150800000D03*
%TD*%
D47*
%TO.C,L201*%
X176050000Y-135950000D03*
X176050000Y-127650000D03*
%TD*%
D48*
%TO.C,J302*%
X181575000Y-101100000D03*
X181575000Y-100450000D03*
X181575000Y-99800000D03*
X181575000Y-99150000D03*
X181575000Y-98500000D03*
D49*
X184275000Y-103300000D03*
D50*
X184275000Y-102700000D03*
D51*
X181575000Y-102300000D03*
D52*
X184275000Y-100800000D03*
X184275000Y-98800000D03*
D51*
X181575000Y-97300000D03*
D50*
X184275000Y-96900000D03*
D49*
X184275000Y-96300000D03*
%TD*%
D17*
%TO.C,C419*%
X149500000Y-113450000D03*
X149500000Y-115000000D03*
%TD*%
D45*
%TO.C,D402*%
X145000000Y-153400000D03*
X141000000Y-153400000D03*
%TD*%
D10*
%TO.C,C422*%
X141450000Y-105000000D03*
X143000000Y-105000000D03*
%TD*%
D53*
%TO.C,U202*%
X162450000Y-115350000D03*
X162450000Y-117650000D03*
D54*
X168750000Y-117650000D03*
D53*
X162450000Y-119950000D03*
%TD*%
D55*
%TO.C,U201*%
X165700000Y-133375000D03*
X164750000Y-133375000D03*
X163800000Y-133375000D03*
X163800000Y-135650000D03*
X164750000Y-135650000D03*
X165700000Y-135650000D03*
%TD*%
D44*
%TO.C,C305*%
X178000000Y-77300000D03*
X178960000Y-77300000D03*
%TD*%
D35*
%TO.C,J402*%
X124000000Y-130760000D03*
D36*
X124000000Y-135840000D03*
X124000000Y-140920000D03*
X124000000Y-146000000D03*
%TD*%
D10*
%TO.C,C416*%
X146450000Y-143620000D03*
X148000000Y-143620000D03*
%TD*%
D23*
%TO.C,R304*%
X177950000Y-95650000D03*
X176300000Y-95650000D03*
%TD*%
D38*
%TO.C,C201*%
X167700000Y-135425000D03*
X167700000Y-133875000D03*
%TD*%
D34*
%TO.C,C302*%
X166225000Y-109650000D03*
X164675000Y-109650000D03*
%TD*%
D44*
%TO.C,C303*%
X168500000Y-77300000D03*
X169460000Y-77300000D03*
%TD*%
D46*
%TO.C,R204*%
X161700000Y-134975000D03*
X161700000Y-133325000D03*
%TD*%
D41*
%TO.C,H202*%
X185500000Y-70500000D03*
%TD*%
D23*
%TO.C,R301*%
X171600000Y-109728000D03*
X169950000Y-109728000D03*
%TD*%
%TO.C,R416*%
X155000000Y-135500000D03*
X153350000Y-135500000D03*
%TD*%
D35*
%TO.C,J201*%
X169700000Y-150800000D03*
D36*
X164620000Y-150800000D03*
%TD*%
D33*
%TO.C,SW302*%
X175500000Y-71925000D03*
X181500000Y-71925000D03*
X175500000Y-75675000D03*
X181500000Y-75675000D03*
%TD*%
D10*
%TO.C,C414*%
X141200000Y-134200000D03*
X142750000Y-134200000D03*
%TD*%
%TO.C,C203*%
X163275000Y-137400000D03*
X164825000Y-137400000D03*
%TD*%
%TO.C,C402*%
X149500000Y-75120000D03*
X151050000Y-75120000D03*
%TD*%
D56*
%TO.C,D401*%
X143975000Y-93950000D03*
X147975000Y-93950000D03*
%TD*%
D24*
%TO.C,R414*%
X142462500Y-141200000D03*
X139537500Y-141200000D03*
%TD*%
D23*
%TO.C,R415*%
X155000000Y-138500000D03*
X153350000Y-138500000D03*
%TD*%
D39*
%TO.C,J202*%
X184450000Y-123800000D03*
D40*
X184450000Y-126340000D03*
%TD*%
D10*
%TO.C,C418*%
X149450000Y-103750000D03*
X151000000Y-103750000D03*
%TD*%
D19*
%TO.C,C423*%
X140700000Y-118000000D03*
X135300000Y-118000000D03*
%TD*%
D10*
%TO.C,C413*%
X141225000Y-143200000D03*
X142775000Y-143200000D03*
%TD*%
D18*
%TO.C,C420*%
X152250000Y-111250000D03*
X152250000Y-113150000D03*
%TD*%
M02*
