%TF.GenerationSoftware,KiCad,Pcbnew,9.0.0*%
%TF.CreationDate,2025-05-07T21:56:05-07:00*%
%TF.ProjectId,Motor_Controller_Board_v1,4d6f746f-725f-4436-9f6e-74726f6c6c65,v1*%
%TF.SameCoordinates,Original*%
%TF.FileFunction,Copper,L2,Bot*%
%TF.FilePolarity,Positive*%
%FSLAX46Y46*%
G04 Gerber Fmt 4.6, Leading zero omitted, Abs format (unit mm)*
G04 Created by KiCad (PCBNEW 9.0.0) date 2025-05-07 21:56:05*
%MOMM*%
%LPD*%
G01*
G04 APERTURE LIST*
%TA.AperFunction,ComponentPad*%
%ADD10C,3.800000*%
%TD*%
%TA.AperFunction,HeatsinkPad*%
%ADD11C,0.500000*%
%TD*%
%TA.AperFunction,HeatsinkPad*%
%ADD12R,2.500000X2.500000*%
%TD*%
%TA.AperFunction,ComponentPad*%
%ADD13R,1.700000X1.700000*%
%TD*%
%TA.AperFunction,ComponentPad*%
%ADD14O,1.700000X1.700000*%
%TD*%
%TA.AperFunction,ComponentPad*%
%ADD15R,3.000000X3.000000*%
%TD*%
%TA.AperFunction,ComponentPad*%
%ADD16C,3.000000*%
%TD*%
%TA.AperFunction,HeatsinkPad*%
%ADD17O,1.900000X1.200000*%
%TD*%
%TA.AperFunction,HeatsinkPad*%
%ADD18C,1.450000*%
%TD*%
%TA.AperFunction,ViaPad*%
%ADD19C,0.700000*%
%TD*%
%TA.AperFunction,ViaPad*%
%ADD20C,0.600000*%
%TD*%
%TA.AperFunction,ViaPad*%
%ADD21C,1.000000*%
%TD*%
%TA.AperFunction,Conductor*%
%ADD22C,2.000000*%
%TD*%
%TA.AperFunction,Conductor*%
%ADD23C,1.000000*%
%TD*%
%TA.AperFunction,Conductor*%
%ADD24C,0.250000*%
%TD*%
%TA.AperFunction,Conductor*%
%ADD25C,0.300000*%
%TD*%
%TA.AperFunction,Conductor*%
%ADD26C,0.600000*%
%TD*%
G04 APERTURE END LIST*
D10*
%TO.P,H204,1,1*%
%TO.N,GND*%
X116420000Y-154500000D03*
%TD*%
%TO.P,H203,1,1*%
%TO.N,GND*%
X185500000Y-154500000D03*
%TD*%
%TO.P,H202,1,1*%
%TO.N,GND*%
X185500000Y-70500000D03*
%TD*%
%TO.P,H201,1,1*%
%TO.N,GND*%
X116500000Y-70500000D03*
%TD*%
D11*
%TO.P,U401,29,GND*%
%TO.N,GND*%
X148400000Y-79620000D03*
X147400000Y-79620000D03*
X146400000Y-79620000D03*
X148400000Y-80620000D03*
D12*
X147400000Y-80620000D03*
D11*
X147400000Y-80620000D03*
X146400000Y-80620000D03*
X148400000Y-81620000D03*
X147400000Y-81620000D03*
X146400000Y-81620000D03*
%TD*%
%TO.P,U402,29,GND*%
%TO.N,GND*%
X148500000Y-137500000D03*
X147500000Y-137500000D03*
X146500000Y-137500000D03*
X148500000Y-138500000D03*
D12*
X147500000Y-138500000D03*
D11*
X147500000Y-138500000D03*
X146500000Y-138500000D03*
X148500000Y-139500000D03*
X147500000Y-139500000D03*
X146500000Y-139500000D03*
%TD*%
%TO.P,U403,29,GND*%
%TO.N,GND*%
X148400000Y-108250000D03*
X147400000Y-108250000D03*
X146400000Y-108250000D03*
X148400000Y-109250000D03*
D12*
X147400000Y-109250000D03*
D11*
X147400000Y-109250000D03*
X146400000Y-109250000D03*
X148400000Y-110250000D03*
X147400000Y-110250000D03*
X146400000Y-110250000D03*
%TD*%
D13*
%TO.P,J207,1,Pin_1*%
%TO.N,/Power Supply/DIGITAL_POWER_+24V*%
X184400000Y-145625000D03*
D14*
%TO.P,J207,2,Pin_2*%
%TO.N,GND*%
X184400000Y-148165000D03*
%TD*%
D13*
%TO.P,J206,1,Pin_1*%
%TO.N,/Power Supply/DIGITAL_POWER_+24V*%
X184400000Y-139400000D03*
D14*
%TO.P,J206,2,Pin_2*%
%TO.N,GND*%
X184400000Y-141940000D03*
%TD*%
D15*
%TO.P,J401,1,Pin_1*%
%TO.N,/Stepper Drivers/AGITATE_1B*%
X124000000Y-72750000D03*
D16*
%TO.P,J401,2,Pin_2*%
%TO.N,/Stepper Drivers/AGITATE_1A*%
X124000000Y-77830000D03*
%TO.P,J401,3,Pin_3*%
%TO.N,/Stepper Drivers/AGITATE_2A*%
X124000000Y-82910000D03*
%TO.P,J401,4,Pin_4*%
%TO.N,/Stepper Drivers/AGITATE_2B*%
X124000000Y-87990000D03*
%TD*%
D13*
%TO.P,J301,1,Pin_1*%
%TO.N,unconnected-(J301-Pin_1-Pad1)*%
X184275000Y-78080000D03*
D14*
%TO.P,J301,2,Pin_2*%
%TO.N,/Microcontroller/RXD*%
X184275000Y-80620000D03*
%TO.P,J301,3,Pin_3*%
%TO.N,/Microcontroller/TXD*%
X184275000Y-83160000D03*
%TO.P,J301,4,Pin_4*%
%TO.N,unconnected-(J301-Pin_4-Pad4)*%
X184275000Y-85700000D03*
%TD*%
D15*
%TO.P,J403,1,Pin_1*%
%TO.N,/Stepper Drivers/VERTICAL_1B*%
X124000000Y-101750000D03*
D16*
%TO.P,J403,2,Pin_2*%
%TO.N,/Stepper Drivers/VERTICAL_1A*%
X124000000Y-106830000D03*
%TO.P,J403,3,Pin_3*%
%TO.N,/Stepper Drivers/VERTICAL_2A*%
X124000000Y-111910000D03*
%TO.P,J403,4,Pin_4*%
%TO.N,/Stepper Drivers/VERTICAL_2B*%
X124000000Y-116990000D03*
%TD*%
D13*
%TO.P,J304,1,Pin_1*%
%TO.N,/Microcontroller/VERTICAL_SWITCH*%
X184275000Y-108120000D03*
D14*
%TO.P,J304,2,Pin_2*%
%TO.N,+3.3V*%
X184275000Y-110660000D03*
%TD*%
D13*
%TO.P,J305,1,Pin_1*%
%TO.N,/Microcontroller/HORIZONTAL_SWITCH*%
X184275000Y-115120000D03*
D14*
%TO.P,J305,2,Pin_2*%
%TO.N,+3.3V*%
X184275000Y-117660000D03*
%TD*%
D13*
%TO.P,J303,1,Pin_1*%
%TO.N,+3.3V*%
X184275000Y-90160000D03*
D14*
%TO.P,J303,2,Pin_2*%
%TO.N,/Microcontroller/AGITATION_SWITCH*%
X184275000Y-92700000D03*
%TD*%
D15*
%TO.P,J203,1,Pin_1*%
%TO.N,GND*%
X159140000Y-150800000D03*
D16*
%TO.P,J203,2,Pin_2*%
%TO.N,+24V*%
X154060000Y-150800000D03*
%TD*%
D17*
%TO.P,J302,6,Shield*%
%TO.N,unconnected-(J302-Shield-Pad6)_6*%
X184275000Y-103300000D03*
D18*
%TO.N,unconnected-(J302-Shield-Pad6)_4*%
X181575000Y-102300000D03*
%TO.N,unconnected-(J302-Shield-Pad6)_1*%
X181575000Y-97300000D03*
D17*
%TO.N,unconnected-(J302-Shield-Pad6)*%
X184275000Y-96300000D03*
%TD*%
D15*
%TO.P,J402,1,Pin_1*%
%TO.N,/Stepper Drivers/HORIZONTAL_1B*%
X124000000Y-130760000D03*
D16*
%TO.P,J402,2,Pin_2*%
%TO.N,/Stepper Drivers/HORIZONTAL_1A*%
X124000000Y-135840000D03*
%TO.P,J402,3,Pin_3*%
%TO.N,/Stepper Drivers/HORIZONTAL_2A*%
X124000000Y-140920000D03*
%TO.P,J402,4,Pin_4*%
%TO.N,/Stepper Drivers/HORIZONTAL_2B*%
X124000000Y-146000000D03*
%TD*%
D15*
%TO.P,J201,1,Pin_1*%
%TO.N,GND*%
X169700000Y-150800000D03*
D16*
%TO.P,J201,2,Pin_2*%
%TO.N,/Power Supply/DIGITAL_POWER_+24V*%
X164620000Y-150800000D03*
%TD*%
D13*
%TO.P,J202,1,Pin_1*%
%TO.N,+5V*%
X184450000Y-123800000D03*
D14*
%TO.P,J202,2,Pin_2*%
%TO.N,GND*%
X184450000Y-126340000D03*
%TD*%
D19*
%TO.N,GND*%
X153375000Y-84075000D03*
X152250000Y-114250000D03*
X152000000Y-143700000D03*
X128800000Y-89900000D03*
X128800000Y-88500000D03*
X128800000Y-84900000D03*
X128800000Y-74300000D03*
X128800000Y-75600000D03*
X128800000Y-80200000D03*
X128900000Y-127300000D03*
X128900000Y-128600000D03*
X128800000Y-146800000D03*
X128800000Y-148100000D03*
X128800000Y-142700000D03*
X128800000Y-144000000D03*
X128800000Y-137700000D03*
X128800000Y-139000000D03*
X128900000Y-132600000D03*
X128900000Y-133900000D03*
X128800000Y-116600000D03*
X128800000Y-117900000D03*
X128800000Y-108700000D03*
X128800000Y-110000000D03*
X128800000Y-104600000D03*
X128800000Y-103300000D03*
X151000000Y-77500000D03*
%TO.N,AGITATION_STEP*%
X148550000Y-76580000D03*
%TO.N,GND*%
X139000000Y-121900000D03*
X138300000Y-141200000D03*
X140100000Y-143200000D03*
%TO.N,+24V*%
X147595000Y-147795000D03*
X142950000Y-86500000D03*
%TO.N,GND*%
X160500000Y-134500000D03*
X150200000Y-93950000D03*
X131175000Y-89375000D03*
X172000000Y-70925000D03*
X177175000Y-77300000D03*
X138875000Y-153000000D03*
X133200000Y-147650000D03*
X138850000Y-76675000D03*
X137475000Y-78650000D03*
X137575000Y-82625000D03*
X140250000Y-85375000D03*
%TO.N,+24V*%
X143000000Y-118000000D03*
D20*
X135480000Y-120620000D03*
D19*
X143400000Y-147795000D03*
X143887500Y-141887500D03*
X135250000Y-133000000D03*
D20*
X135380000Y-74800000D03*
D21*
X135250000Y-103500000D03*
D19*
X144375000Y-112875000D03*
D20*
X138170000Y-92160000D03*
%TO.N,GND*%
X162260000Y-137390000D03*
X138070000Y-107210000D03*
D19*
X158250000Y-116750000D03*
X145250000Y-131000000D03*
X173500000Y-92500000D03*
X174750000Y-105750000D03*
X171750000Y-101750000D03*
D21*
X138250000Y-136250000D03*
D20*
X155530000Y-108000000D03*
X151170000Y-105400000D03*
X156240000Y-78520000D03*
D19*
X160750000Y-115000000D03*
X170500000Y-96250000D03*
X171750000Y-99750000D03*
D21*
X140000000Y-134250000D03*
D19*
X165000000Y-99750000D03*
X172250000Y-107000000D03*
D20*
X182010000Y-106300000D03*
D19*
X162500000Y-105750000D03*
D20*
X163500000Y-132150000D03*
X140530000Y-105000000D03*
D19*
X172250000Y-103000000D03*
X165000000Y-101750000D03*
D20*
X180420000Y-98500000D03*
D19*
X182750000Y-72000000D03*
D20*
X138110000Y-111500000D03*
D19*
X163500000Y-109750000D03*
D21*
X132750000Y-118000000D03*
D19*
X174500000Y-72000000D03*
X152000000Y-133130000D03*
X156000000Y-137000000D03*
X165000000Y-97750000D03*
D20*
X164750000Y-132220000D03*
D19*
X163500000Y-112750000D03*
X175250000Y-97500000D03*
X151250000Y-134800000D03*
X168500000Y-96250000D03*
D20*
X145850000Y-102050000D03*
D19*
X167750000Y-77250000D03*
X165000000Y-71750000D03*
X161500000Y-123250000D03*
D20*
X140430000Y-113500000D03*
X151040000Y-74210000D03*
X179570000Y-102800000D03*
D19*
%TO.N,+5V*%
X157000000Y-115700000D03*
X155500000Y-111900000D03*
%TO.N,/Microcontroller/EN*%
X168500000Y-103000000D03*
X166500000Y-92000000D03*
D20*
%TO.N,/Microcontroller/AGITATION_SWITCH*%
X179070000Y-94650000D03*
X174250002Y-97240000D03*
%TO.N,/Microcontroller/VERTICAL_SWITCH*%
X174545000Y-103920000D03*
%TO.N,/Microcontroller/HORIZONTAL_SWITCH*%
X175170000Y-104730000D03*
X179090000Y-108660000D03*
%TO.N,AGITATION_STEP*%
X166550000Y-86170000D03*
X170760000Y-90390000D03*
X156860000Y-76480000D03*
D19*
%TO.N,HORIZONTAL_DIR*%
X147000000Y-133750000D03*
X170500000Y-103750000D03*
X162750000Y-107250000D03*
X147500000Y-127750000D03*
%TO.N,VERTICAL_STEP*%
X162250000Y-104250000D03*
X148500000Y-105000000D03*
X152250000Y-104250000D03*
X164500000Y-104250000D03*
%TO.N,HORIZONTAL_STEP*%
X164000000Y-107250000D03*
X171550000Y-104560806D03*
X148500000Y-134000000D03*
X152000000Y-130500000D03*
%TO.N,VERTICAL_DIR*%
X162500000Y-103250000D03*
X147000000Y-104750000D03*
X150500000Y-102500000D03*
X164750000Y-103250000D03*
D20*
%TO.N,AGITATION_DIR*%
X147300000Y-76840000D03*
X172720000Y-88220000D03*
X168640000Y-84170000D03*
X156930000Y-75470000D03*
%TO.N,+3.3V*%
X171680000Y-117670000D03*
%TO.N,GND*%
X145670000Y-74660000D03*
%TO.N,+24V*%
X142450000Y-89370000D03*
%TD*%
D22*
%TO.N,+24V*%
X140365000Y-147795000D02*
X143400000Y-147795000D01*
X138510000Y-145940000D02*
X140365000Y-147795000D01*
X147595000Y-147795000D02*
X143400000Y-147795000D01*
D23*
X142450000Y-87000000D02*
X142450000Y-89370000D01*
X142950000Y-86500000D02*
X142450000Y-87000000D01*
D24*
%TO.N,/Microcontroller/VERTICAL_SWITCH*%
X182180000Y-108120000D02*
X184275000Y-108120000D01*
D25*
%TO.N,+3.3V*%
X182270000Y-117660000D02*
X184275000Y-117660000D01*
X182260000Y-117670000D02*
X182270000Y-117660000D01*
D26*
%TO.N,+24V*%
X143887500Y-147000000D02*
X143887500Y-147307500D01*
D23*
X144375000Y-116625000D02*
X143000000Y-118000000D01*
D22*
X135250000Y-142650000D02*
X135250000Y-142100000D01*
X135250000Y-84760000D02*
X135250000Y-74980000D01*
D26*
X143887500Y-147307500D02*
X143400000Y-147795000D01*
D22*
X135250000Y-103500000D02*
X135250000Y-92200000D01*
X135250000Y-140500000D02*
X135250000Y-136600000D01*
X135250000Y-128900000D02*
X135250000Y-127200000D01*
X135250000Y-142650000D02*
X138510000Y-145910000D01*
X135250000Y-136600000D02*
X135250000Y-135250000D01*
X135250000Y-92200000D02*
X138200000Y-92200000D01*
X138510000Y-145910000D02*
X138510000Y-145940000D01*
X135250000Y-123400000D02*
X135250000Y-103500000D01*
X135250000Y-135250000D02*
X135250000Y-135100000D01*
X135250000Y-127200000D02*
X135250000Y-125100000D01*
X135250000Y-135100000D02*
X135250000Y-134250000D01*
D26*
X143887500Y-141887500D02*
X143887500Y-147000000D01*
D22*
X135250000Y-125100000D02*
X135250000Y-123400000D01*
X135250000Y-134250000D02*
X135250000Y-133000000D01*
X135250000Y-92200000D02*
X135250000Y-84760000D01*
X135250000Y-142100000D02*
X135250000Y-140500000D01*
X135250000Y-74930000D02*
X135380000Y-74800000D01*
X135250000Y-74980000D02*
X135250000Y-74930000D01*
X135250000Y-133000000D02*
X135250000Y-128900000D01*
D23*
X144375000Y-112875000D02*
X144375000Y-116625000D01*
D24*
%TO.N,+5V*%
X155500000Y-111900000D02*
X155500000Y-114200000D01*
X155500000Y-114200000D02*
X157000000Y-115700000D01*
%TO.N,/Microcontroller/EN*%
X168500000Y-103000000D02*
X166500000Y-101000000D01*
X166500000Y-92000000D02*
X166500000Y-101000000D01*
%TO.N,/Microcontroller/AGITATION_SWITCH*%
X179070000Y-94650000D02*
X176720000Y-94650000D01*
X174130000Y-97240000D02*
X174250002Y-97240000D01*
X176720000Y-94650000D02*
X174130000Y-97240000D01*
%TO.N,/Microcontroller/VERTICAL_SWITCH*%
X177980000Y-103920000D02*
X182180000Y-108120000D01*
X174545000Y-103920000D02*
X177980000Y-103920000D01*
%TO.N,/Microcontroller/HORIZONTAL_SWITCH*%
X179090000Y-108660000D02*
X175170000Y-104740000D01*
X175170000Y-104740000D02*
X175170000Y-104730000D01*
%TO.N,AGITATION_STEP*%
X156760000Y-76580000D02*
X156860000Y-76480000D01*
D25*
X166550000Y-86180000D02*
X170760000Y-90390000D01*
D24*
X148500000Y-76580000D02*
X156760000Y-76580000D01*
D25*
X166550000Y-86170000D02*
X166550000Y-86180000D01*
%TO.N,HORIZONTAL_DIR*%
X147000000Y-133750000D02*
X147000000Y-128250000D01*
X166250000Y-103750000D02*
X162750000Y-107250000D01*
X170500000Y-103750000D02*
X166250000Y-103750000D01*
X147000000Y-128250000D02*
X147500000Y-127750000D01*
D24*
%TO.N,VERTICAL_STEP*%
X152250000Y-104250000D02*
X149250000Y-104250000D01*
X149250000Y-104250000D02*
X148500000Y-105000000D01*
X164500000Y-104250000D02*
X162250000Y-104250000D01*
D25*
%TO.N,HORIZONTAL_STEP*%
X171307402Y-104500000D02*
X166750000Y-104500000D01*
X166750000Y-104500000D02*
X164000000Y-107250000D01*
X148500000Y-134000000D02*
X152000000Y-130500000D01*
D24*
%TO.N,VERTICAL_DIR*%
X150500000Y-102500000D02*
X149250000Y-102500000D01*
X164750000Y-103250000D02*
X162500000Y-103250000D01*
X149250000Y-102500000D02*
X147000000Y-104750000D01*
D25*
%TO.N,AGITATION_DIR*%
X148560000Y-75470000D02*
X156930000Y-75470000D01*
X147300000Y-76840000D02*
X147300000Y-76730000D01*
X147300000Y-76730000D02*
X148560000Y-75470000D01*
X168640000Y-84170000D02*
X168670000Y-84170000D01*
X168670000Y-84170000D02*
X172720000Y-88220000D01*
%TO.N,+3.3V*%
X182260000Y-117670000D02*
X171680000Y-117670000D01*
%TD*%
%TA.AperFunction,Conductor*%
%TO.N,GND*%
G36*
X183932353Y-68520185D02*
G01*
X183978108Y-68572989D01*
X183989119Y-68631453D01*
X183988900Y-68635346D01*
X184917263Y-69563709D01*
X184783398Y-69660967D01*
X184660967Y-69783398D01*
X184563709Y-69917263D01*
X183635345Y-68988899D01*
X183539568Y-69109001D01*
X183396152Y-69337247D01*
X183279198Y-69580104D01*
X183279192Y-69580118D01*
X183190167Y-69834536D01*
X183190163Y-69834548D01*
X183130181Y-70097348D01*
X183130178Y-70097366D01*
X183100000Y-70365212D01*
X183100000Y-70634787D01*
X183130178Y-70902633D01*
X183130181Y-70902651D01*
X183190163Y-71165451D01*
X183190167Y-71165463D01*
X183279192Y-71419881D01*
X183279198Y-71419895D01*
X183396152Y-71662752D01*
X183539568Y-71890998D01*
X183635346Y-72011099D01*
X184563708Y-71082736D01*
X184660967Y-71216602D01*
X184783398Y-71339033D01*
X184917262Y-71436290D01*
X183988899Y-72364652D01*
X183988900Y-72364653D01*
X184108993Y-72460427D01*
X184108997Y-72460429D01*
X184337247Y-72603847D01*
X184580104Y-72720801D01*
X184580118Y-72720807D01*
X184834536Y-72809832D01*
X184834548Y-72809836D01*
X185097348Y-72869818D01*
X185097366Y-72869821D01*
X185365212Y-72899999D01*
X185365216Y-72900000D01*
X185634784Y-72900000D01*
X185634787Y-72899999D01*
X185902633Y-72869821D01*
X185902651Y-72869818D01*
X186165451Y-72809836D01*
X186165463Y-72809832D01*
X186419881Y-72720807D01*
X186419895Y-72720801D01*
X186662752Y-72603847D01*
X186890999Y-72460431D01*
X187011098Y-72364653D01*
X187011099Y-72364652D01*
X186082737Y-71436290D01*
X186216602Y-71339033D01*
X186339033Y-71216602D01*
X186436290Y-71082737D01*
X187364651Y-72011098D01*
X187368547Y-72010880D01*
X187436585Y-72026775D01*
X187485229Y-72076930D01*
X187499500Y-72134685D01*
X187499500Y-152865313D01*
X187479815Y-152932352D01*
X187427011Y-152978107D01*
X187368549Y-152989118D01*
X187364652Y-152988899D01*
X186436290Y-153917262D01*
X186339033Y-153783398D01*
X186216602Y-153660967D01*
X186082736Y-153563709D01*
X187011099Y-152635346D01*
X186890998Y-152539568D01*
X186662752Y-152396152D01*
X186419895Y-152279198D01*
X186419881Y-152279192D01*
X186165463Y-152190167D01*
X186165451Y-152190163D01*
X185902651Y-152130181D01*
X185902633Y-152130178D01*
X185634787Y-152100000D01*
X185365212Y-152100000D01*
X185097366Y-152130178D01*
X185097348Y-152130181D01*
X184834548Y-152190163D01*
X184834536Y-152190167D01*
X184580118Y-152279192D01*
X184580104Y-152279198D01*
X184337247Y-152396152D01*
X184109001Y-152539568D01*
X183988899Y-152635345D01*
X184917263Y-153563709D01*
X184783398Y-153660967D01*
X184660967Y-153783398D01*
X184563709Y-153917263D01*
X183635345Y-152988899D01*
X183539568Y-153109001D01*
X183396152Y-153337247D01*
X183279198Y-153580104D01*
X183279192Y-153580118D01*
X183190167Y-153834536D01*
X183190163Y-153834548D01*
X183130181Y-154097348D01*
X183130178Y-154097366D01*
X183100000Y-154365212D01*
X183100000Y-154634787D01*
X183130178Y-154902633D01*
X183130181Y-154902651D01*
X183190163Y-155165451D01*
X183190167Y-155165463D01*
X183279192Y-155419881D01*
X183279198Y-155419895D01*
X183396152Y-155662752D01*
X183539568Y-155890998D01*
X183635346Y-156011099D01*
X184563708Y-155082736D01*
X184660967Y-155216602D01*
X184783398Y-155339033D01*
X184917262Y-155436290D01*
X183988900Y-156364651D01*
X183989119Y-156368547D01*
X183973224Y-156436585D01*
X183923069Y-156485229D01*
X183865314Y-156499500D01*
X118054685Y-156499500D01*
X117987646Y-156479815D01*
X117941891Y-156427011D01*
X117930880Y-156368547D01*
X117931098Y-156364651D01*
X117002737Y-155436290D01*
X117136602Y-155339033D01*
X117259033Y-155216602D01*
X117356290Y-155082737D01*
X118284652Y-156011099D01*
X118284653Y-156011098D01*
X118380431Y-155890999D01*
X118523847Y-155662752D01*
X118640801Y-155419895D01*
X118640807Y-155419881D01*
X118729832Y-155165463D01*
X118729836Y-155165451D01*
X118789818Y-154902651D01*
X118789821Y-154902633D01*
X118819999Y-154634787D01*
X118820000Y-154634783D01*
X118820000Y-154365216D01*
X118819999Y-154365212D01*
X118789821Y-154097366D01*
X118789818Y-154097348D01*
X118729836Y-153834548D01*
X118729832Y-153834536D01*
X118640807Y-153580118D01*
X118640801Y-153580104D01*
X118523847Y-153337247D01*
X118380429Y-153108997D01*
X118380427Y-153108993D01*
X118284653Y-152988900D01*
X118284652Y-152988899D01*
X117356290Y-153917262D01*
X117259033Y-153783398D01*
X117136602Y-153660967D01*
X117002736Y-153563709D01*
X117931099Y-152635346D01*
X117810998Y-152539568D01*
X117582752Y-152396152D01*
X117339895Y-152279198D01*
X117339881Y-152279192D01*
X117085463Y-152190167D01*
X117085451Y-152190163D01*
X116822651Y-152130181D01*
X116822633Y-152130178D01*
X116554787Y-152100000D01*
X116285212Y-152100000D01*
X116017366Y-152130178D01*
X116017348Y-152130181D01*
X115754548Y-152190163D01*
X115754536Y-152190167D01*
X115500118Y-152279192D01*
X115500104Y-152279198D01*
X115257247Y-152396152D01*
X115029001Y-152539568D01*
X114908899Y-152635345D01*
X115837263Y-153563709D01*
X115703398Y-153660967D01*
X115580967Y-153783398D01*
X115483709Y-153917262D01*
X114536819Y-152970372D01*
X114522115Y-152943444D01*
X114505523Y-152917626D01*
X114504631Y-152911425D01*
X114503334Y-152909049D01*
X114500500Y-152882691D01*
X114500500Y-150668872D01*
X152059500Y-150668872D01*
X152059500Y-150931127D01*
X152071423Y-151021684D01*
X152093730Y-151191116D01*
X152118745Y-151284472D01*
X152161602Y-151444418D01*
X152161605Y-151444428D01*
X152261953Y-151686690D01*
X152261958Y-151686700D01*
X152393075Y-151913803D01*
X152552718Y-152121851D01*
X152552726Y-152121860D01*
X152738140Y-152307274D01*
X152738148Y-152307281D01*
X152946196Y-152466924D01*
X153173299Y-152598041D01*
X153173309Y-152598046D01*
X153316096Y-152657190D01*
X153415581Y-152698398D01*
X153668884Y-152766270D01*
X153917188Y-152798960D01*
X153925074Y-152799999D01*
X153928880Y-152800500D01*
X153928887Y-152800500D01*
X154191113Y-152800500D01*
X154191120Y-152800500D01*
X154451116Y-152766270D01*
X154704419Y-152698398D01*
X154946697Y-152598043D01*
X155173803Y-152466924D01*
X155381851Y-152307282D01*
X155381855Y-152307277D01*
X155381860Y-152307274D01*
X155567274Y-152121860D01*
X155567277Y-152121855D01*
X155567282Y-152121851D01*
X155726924Y-151913803D01*
X155858043Y-151686697D01*
X155958398Y-151444419D01*
X156026270Y-151191116D01*
X156060500Y-150931120D01*
X156060500Y-150668880D01*
X156026270Y-150408884D01*
X155958398Y-150155581D01*
X155910523Y-150040000D01*
X155858046Y-149913309D01*
X155858041Y-149913299D01*
X155726924Y-149686196D01*
X155604424Y-149526554D01*
X155567282Y-149478149D01*
X155567281Y-149478148D01*
X155567274Y-149478140D01*
X155381860Y-149292726D01*
X155381851Y-149292718D01*
X155328989Y-149252155D01*
X157140000Y-149252155D01*
X157140000Y-150550000D01*
X158420936Y-150550000D01*
X158409207Y-150578316D01*
X158380000Y-150725147D01*
X158380000Y-150874853D01*
X158409207Y-151021684D01*
X158420936Y-151050000D01*
X157140000Y-151050000D01*
X157140000Y-152347844D01*
X157146401Y-152407372D01*
X157146403Y-152407379D01*
X157196645Y-152542086D01*
X157196649Y-152542093D01*
X157282809Y-152657187D01*
X157282812Y-152657190D01*
X157397906Y-152743350D01*
X157397913Y-152743354D01*
X157532620Y-152793596D01*
X157532627Y-152793598D01*
X157592155Y-152799999D01*
X157592172Y-152800000D01*
X158890000Y-152800000D01*
X158890000Y-151519064D01*
X158918316Y-151530793D01*
X159065147Y-151560000D01*
X159214853Y-151560000D01*
X159361684Y-151530793D01*
X159390000Y-151519064D01*
X159390000Y-152800000D01*
X160687828Y-152800000D01*
X160687844Y-152799999D01*
X160747372Y-152793598D01*
X160747379Y-152793596D01*
X160882086Y-152743354D01*
X160882093Y-152743350D01*
X160997187Y-152657190D01*
X160997190Y-152657187D01*
X161083350Y-152542093D01*
X161083354Y-152542086D01*
X161133596Y-152407379D01*
X161133598Y-152407372D01*
X161139999Y-152347844D01*
X161140000Y-152347827D01*
X161140000Y-151050000D01*
X159859064Y-151050000D01*
X159870793Y-151021684D01*
X159900000Y-150874853D01*
X159900000Y-150725147D01*
X159888806Y-150668872D01*
X162619500Y-150668872D01*
X162619500Y-150931127D01*
X162631423Y-151021684D01*
X162653730Y-151191116D01*
X162678745Y-151284472D01*
X162721602Y-151444418D01*
X162721605Y-151444428D01*
X162821953Y-151686690D01*
X162821958Y-151686700D01*
X162953075Y-151913803D01*
X163112718Y-152121851D01*
X163112726Y-152121860D01*
X163298140Y-152307274D01*
X163298148Y-152307281D01*
X163506196Y-152466924D01*
X163733299Y-152598041D01*
X163733309Y-152598046D01*
X163876096Y-152657190D01*
X163975581Y-152698398D01*
X164228884Y-152766270D01*
X164477188Y-152798960D01*
X164485074Y-152799999D01*
X164488880Y-152800500D01*
X164488887Y-152800500D01*
X164751113Y-152800500D01*
X164751120Y-152800500D01*
X165011116Y-152766270D01*
X165264419Y-152698398D01*
X165506697Y-152598043D01*
X165733803Y-152466924D01*
X165941851Y-152307282D01*
X165941855Y-152307277D01*
X165941860Y-152307274D01*
X166127274Y-152121860D01*
X166127277Y-152121855D01*
X166127282Y-152121851D01*
X166286924Y-151913803D01*
X166418043Y-151686697D01*
X166518398Y-151444419D01*
X166586270Y-151191116D01*
X166620500Y-150931120D01*
X166620500Y-150668880D01*
X166586270Y-150408884D01*
X166518398Y-150155581D01*
X166470523Y-150040000D01*
X166418046Y-149913309D01*
X166418041Y-149913299D01*
X166286924Y-149686196D01*
X166164424Y-149526554D01*
X166127282Y-149478149D01*
X166127281Y-149478148D01*
X166127274Y-149478140D01*
X165941860Y-149292726D01*
X165941851Y-149292718D01*
X165888989Y-149252155D01*
X167700000Y-149252155D01*
X167700000Y-150550000D01*
X168980936Y-150550000D01*
X168969207Y-150578316D01*
X168940000Y-150725147D01*
X168940000Y-150874853D01*
X168969207Y-151021684D01*
X168980936Y-151050000D01*
X167700000Y-151050000D01*
X167700000Y-152347844D01*
X167706401Y-152407372D01*
X167706403Y-152407379D01*
X167756645Y-152542086D01*
X167756649Y-152542093D01*
X167842809Y-152657187D01*
X167842812Y-152657190D01*
X167957906Y-152743350D01*
X167957913Y-152743354D01*
X168092620Y-152793596D01*
X168092627Y-152793598D01*
X168152155Y-152799999D01*
X168152172Y-152800000D01*
X169450000Y-152800000D01*
X169450000Y-151519064D01*
X169478316Y-151530793D01*
X169625147Y-151560000D01*
X169774853Y-151560000D01*
X169921684Y-151530793D01*
X169950000Y-151519064D01*
X169950000Y-152800000D01*
X171247828Y-152800000D01*
X171247844Y-152799999D01*
X171307372Y-152793598D01*
X171307379Y-152793596D01*
X171442086Y-152743354D01*
X171442093Y-152743350D01*
X171557187Y-152657190D01*
X171592904Y-152609480D01*
X171592905Y-152609478D01*
X171643350Y-152542093D01*
X171643354Y-152542086D01*
X171693596Y-152407379D01*
X171693598Y-152407372D01*
X171699999Y-152347844D01*
X171700000Y-152347827D01*
X171700000Y-151050000D01*
X170419064Y-151050000D01*
X170430793Y-151021684D01*
X170460000Y-150874853D01*
X170460000Y-150725147D01*
X170430793Y-150578316D01*
X170419064Y-150550000D01*
X171700000Y-150550000D01*
X171700000Y-149252172D01*
X171699999Y-149252155D01*
X171693598Y-149192627D01*
X171693596Y-149192620D01*
X171643354Y-149057913D01*
X171643350Y-149057906D01*
X171557190Y-148942812D01*
X171557187Y-148942809D01*
X171442093Y-148856649D01*
X171442086Y-148856645D01*
X171307379Y-148806403D01*
X171307372Y-148806401D01*
X171247844Y-148800000D01*
X169950000Y-148800000D01*
X169950000Y-150080935D01*
X169921684Y-150069207D01*
X169774853Y-150040000D01*
X169625147Y-150040000D01*
X169478316Y-150069207D01*
X169450000Y-150080935D01*
X169450000Y-148800000D01*
X168152155Y-148800000D01*
X168092627Y-148806401D01*
X168092620Y-148806403D01*
X167957913Y-148856645D01*
X167957906Y-148856649D01*
X167842812Y-148942809D01*
X167842809Y-148942812D01*
X167756649Y-149057906D01*
X167756645Y-149057913D01*
X167706403Y-149192620D01*
X167706401Y-149192627D01*
X167700000Y-149252155D01*
X165888989Y-149252155D01*
X165733803Y-149133075D01*
X165506700Y-149001958D01*
X165506690Y-149001953D01*
X165264428Y-148901605D01*
X165264421Y-148901603D01*
X165264419Y-148901602D01*
X165011116Y-148833730D01*
X164953339Y-148826123D01*
X164751127Y-148799500D01*
X164751120Y-148799500D01*
X164488880Y-148799500D01*
X164488872Y-148799500D01*
X164257772Y-148829926D01*
X164228884Y-148833730D01*
X164143364Y-148856645D01*
X163975581Y-148901602D01*
X163975571Y-148901605D01*
X163733309Y-149001953D01*
X163733299Y-149001958D01*
X163506196Y-149133075D01*
X163298148Y-149292718D01*
X163112718Y-149478148D01*
X162953075Y-149686196D01*
X162821958Y-149913299D01*
X162821953Y-149913309D01*
X162721605Y-150155571D01*
X162721602Y-150155581D01*
X162653730Y-150408885D01*
X162619500Y-150668872D01*
X159888806Y-150668872D01*
X159870793Y-150578316D01*
X159859064Y-150550000D01*
X161140000Y-150550000D01*
X161140000Y-149252172D01*
X161139999Y-149252155D01*
X161133598Y-149192627D01*
X161133596Y-149192620D01*
X161083354Y-149057913D01*
X161083350Y-149057906D01*
X160997190Y-148942812D01*
X160997187Y-148942809D01*
X160882093Y-148856649D01*
X160882086Y-148856645D01*
X160747379Y-148806403D01*
X160747372Y-148806401D01*
X160687844Y-148800000D01*
X159390000Y-148800000D01*
X159390000Y-150080935D01*
X159361684Y-150069207D01*
X159214853Y-150040000D01*
X159065147Y-150040000D01*
X158918316Y-150069207D01*
X158890000Y-150080935D01*
X158890000Y-148800000D01*
X157592155Y-148800000D01*
X157532627Y-148806401D01*
X157532620Y-148806403D01*
X157397913Y-148856645D01*
X157397906Y-148856649D01*
X157282812Y-148942809D01*
X157282809Y-148942812D01*
X157196649Y-149057906D01*
X157196645Y-149057913D01*
X157146403Y-149192620D01*
X157146401Y-149192627D01*
X157140000Y-149252155D01*
X155328989Y-149252155D01*
X155173803Y-149133075D01*
X154946700Y-149001958D01*
X154946690Y-149001953D01*
X154704428Y-148901605D01*
X154704421Y-148901603D01*
X154704419Y-148901602D01*
X154451116Y-148833730D01*
X154393339Y-148826123D01*
X154191127Y-148799500D01*
X154191120Y-148799500D01*
X153928880Y-148799500D01*
X153928872Y-148799500D01*
X153697772Y-148829926D01*
X153668884Y-148833730D01*
X153583364Y-148856645D01*
X153415581Y-148901602D01*
X153415571Y-148901605D01*
X153173309Y-149001953D01*
X153173299Y-149001958D01*
X152946196Y-149133075D01*
X152738148Y-149292718D01*
X152552718Y-149478148D01*
X152393075Y-149686196D01*
X152261958Y-149913299D01*
X152261953Y-149913309D01*
X152161605Y-150155571D01*
X152161602Y-150155581D01*
X152093730Y-150408885D01*
X152059500Y-150668872D01*
X114500500Y-150668872D01*
X114500500Y-145868872D01*
X121999500Y-145868872D01*
X121999500Y-146131127D01*
X122021010Y-146294500D01*
X122033730Y-146391116D01*
X122101602Y-146644418D01*
X122101605Y-146644428D01*
X122201953Y-146886690D01*
X122201958Y-146886700D01*
X122333075Y-147113803D01*
X122492718Y-147321851D01*
X122492726Y-147321860D01*
X122678140Y-147507274D01*
X122678148Y-147507281D01*
X122886196Y-147666924D01*
X123113299Y-147798041D01*
X123113309Y-147798046D01*
X123355571Y-147898394D01*
X123355581Y-147898398D01*
X123608884Y-147966270D01*
X123868880Y-148000500D01*
X123868887Y-148000500D01*
X124131113Y-148000500D01*
X124131120Y-148000500D01*
X124391116Y-147966270D01*
X124644419Y-147898398D01*
X124886697Y-147798043D01*
X125113803Y-147666924D01*
X125321851Y-147507282D01*
X125321855Y-147507277D01*
X125321860Y-147507274D01*
X125507274Y-147321860D01*
X125507277Y-147321855D01*
X125507282Y-147321851D01*
X125666924Y-147113803D01*
X125798043Y-146886697D01*
X125898398Y-146644419D01*
X125966270Y-146391116D01*
X126000500Y-146131120D01*
X126000500Y-145868880D01*
X125966270Y-145608884D01*
X125898398Y-145355581D01*
X125898394Y-145355571D01*
X125798046Y-145113309D01*
X125798041Y-145113299D01*
X125666924Y-144886196D01*
X125507281Y-144678148D01*
X125507274Y-144678140D01*
X125321860Y-144492726D01*
X125321851Y-144492718D01*
X125113803Y-144333075D01*
X124886700Y-144201958D01*
X124886690Y-144201953D01*
X124644428Y-144101605D01*
X124644421Y-144101603D01*
X124644419Y-144101602D01*
X124391116Y-144033730D01*
X124333339Y-144026123D01*
X124131127Y-143999500D01*
X124131120Y-143999500D01*
X123868880Y-143999500D01*
X123868872Y-143999500D01*
X123637772Y-144029926D01*
X123608884Y-144033730D01*
X123355581Y-144101602D01*
X123355571Y-144101605D01*
X123113309Y-144201953D01*
X123113299Y-144201958D01*
X122886196Y-144333075D01*
X122678148Y-144492718D01*
X122492718Y-144678148D01*
X122333075Y-144886196D01*
X122201958Y-145113299D01*
X122201953Y-145113309D01*
X122101605Y-145355571D01*
X122101602Y-145355581D01*
X122033730Y-145608885D01*
X121999500Y-145868872D01*
X114500500Y-145868872D01*
X114500500Y-140788872D01*
X121999500Y-140788872D01*
X121999500Y-141051127D01*
X122022639Y-141226873D01*
X122033730Y-141311116D01*
X122101602Y-141564418D01*
X122101605Y-141564428D01*
X122201953Y-141806690D01*
X122201958Y-141806700D01*
X122333075Y-142033803D01*
X122492718Y-142241851D01*
X122492726Y-142241860D01*
X122678140Y-142427274D01*
X122678148Y-142427281D01*
X122886196Y-142586924D01*
X123113299Y-142718041D01*
X123113309Y-142718046D01*
X123355571Y-142818394D01*
X123355581Y-142818398D01*
X123608884Y-142886270D01*
X123868880Y-142920500D01*
X123868887Y-142920500D01*
X124131113Y-142920500D01*
X124131120Y-142920500D01*
X124391116Y-142886270D01*
X124644419Y-142818398D01*
X124886697Y-142718043D01*
X125113803Y-142586924D01*
X125321851Y-142427282D01*
X125321855Y-142427277D01*
X125321860Y-142427274D01*
X125507274Y-142241860D01*
X125507277Y-142241855D01*
X125507282Y-142241851D01*
X125666924Y-142033803D01*
X125798043Y-141806697D01*
X125898398Y-141564419D01*
X125966270Y-141311116D01*
X126000500Y-141051120D01*
X126000500Y-140788880D01*
X125966270Y-140528884D01*
X125898398Y-140275581D01*
X125857804Y-140177578D01*
X125798046Y-140033309D01*
X125798041Y-140033299D01*
X125666924Y-139806196D01*
X125507281Y-139598148D01*
X125507274Y-139598140D01*
X125321860Y-139412726D01*
X125321851Y-139412718D01*
X125113803Y-139253075D01*
X124886700Y-139121958D01*
X124886690Y-139121953D01*
X124644428Y-139021605D01*
X124644421Y-139021603D01*
X124644419Y-139021602D01*
X124391116Y-138953730D01*
X124333339Y-138946123D01*
X124131127Y-138919500D01*
X124131120Y-138919500D01*
X123868880Y-138919500D01*
X123868872Y-138919500D01*
X123637772Y-138949926D01*
X123608884Y-138953730D01*
X123436201Y-139000000D01*
X123355581Y-139021602D01*
X123355571Y-139021605D01*
X123113309Y-139121953D01*
X123113299Y-139121958D01*
X122886196Y-139253075D01*
X122678148Y-139412718D01*
X122492718Y-139598148D01*
X122333075Y-139806196D01*
X122201958Y-140033299D01*
X122201953Y-140033309D01*
X122101605Y-140275571D01*
X122101602Y-140275581D01*
X122043525Y-140492331D01*
X122033730Y-140528885D01*
X121999500Y-140788872D01*
X114500500Y-140788872D01*
X114500500Y-135708872D01*
X121999500Y-135708872D01*
X121999500Y-135971127D01*
X122026123Y-136173339D01*
X122033730Y-136231116D01*
X122100929Y-136481908D01*
X122101602Y-136484418D01*
X122101605Y-136484428D01*
X122201953Y-136726690D01*
X122201958Y-136726700D01*
X122333075Y-136953803D01*
X122492718Y-137161851D01*
X122492726Y-137161860D01*
X122678140Y-137347274D01*
X122678148Y-137347281D01*
X122886196Y-137506924D01*
X123113299Y-137638041D01*
X123113309Y-137638046D01*
X123355571Y-137738394D01*
X123355581Y-137738398D01*
X123608884Y-137806270D01*
X123868880Y-137840500D01*
X123868887Y-137840500D01*
X124131113Y-137840500D01*
X124131120Y-137840500D01*
X124391116Y-137806270D01*
X124644419Y-137738398D01*
X124821340Y-137665114D01*
X124886690Y-137638046D01*
X124886691Y-137638045D01*
X124886697Y-137638043D01*
X125113803Y-137506924D01*
X125321851Y-137347282D01*
X125321855Y-137347277D01*
X125321860Y-137347274D01*
X125507274Y-137161860D01*
X125507277Y-137161855D01*
X125507282Y-137161851D01*
X125666924Y-136953803D01*
X125798043Y-136726697D01*
X125898398Y-136484419D01*
X125966270Y-136231116D01*
X126000500Y-135971120D01*
X126000500Y-135708880D01*
X125966270Y-135448884D01*
X125898398Y-135195581D01*
X125809892Y-134981908D01*
X125798046Y-134953309D01*
X125798041Y-134953299D01*
X125666924Y-134726196D01*
X125507281Y-134518148D01*
X125507274Y-134518140D01*
X125321860Y-134332726D01*
X125321851Y-134332718D01*
X125113803Y-134173075D01*
X124886700Y-134041958D01*
X124886690Y-134041953D01*
X124644428Y-133941605D01*
X124644421Y-133941603D01*
X124644419Y-133941602D01*
X124391116Y-133873730D01*
X124333339Y-133866123D01*
X124131127Y-133839500D01*
X124131120Y-133839500D01*
X123868880Y-133839500D01*
X123868872Y-133839500D01*
X123637772Y-133869926D01*
X123608884Y-133873730D01*
X123355581Y-133941602D01*
X123355571Y-133941605D01*
X123113309Y-134041953D01*
X123113299Y-134041958D01*
X122886196Y-134173075D01*
X122678148Y-134332718D01*
X122492718Y-134518148D01*
X122333075Y-134726196D01*
X122201958Y-134953299D01*
X122201953Y-134953309D01*
X122101605Y-135195571D01*
X122101602Y-135195581D01*
X122033730Y-135448885D01*
X121999500Y-135708872D01*
X114500500Y-135708872D01*
X114500500Y-129212135D01*
X121999500Y-129212135D01*
X121999500Y-132307870D01*
X121999501Y-132307876D01*
X122005908Y-132367483D01*
X122056202Y-132502328D01*
X122056206Y-132502335D01*
X122142452Y-132617544D01*
X122142455Y-132617547D01*
X122257664Y-132703793D01*
X122257671Y-132703797D01*
X122392517Y-132754091D01*
X122392516Y-132754091D01*
X122399444Y-132754835D01*
X122452127Y-132760500D01*
X125547872Y-132760499D01*
X125607483Y-132754091D01*
X125742331Y-132703796D01*
X125857546Y-132617546D01*
X125943796Y-132502331D01*
X125994091Y-132367483D01*
X126000500Y-132307873D01*
X126000499Y-129212128D01*
X125994091Y-129152517D01*
X125943796Y-129017669D01*
X125943795Y-129017668D01*
X125943793Y-129017664D01*
X125857547Y-128902455D01*
X125857544Y-128902452D01*
X125742335Y-128816206D01*
X125742328Y-128816202D01*
X125607482Y-128765908D01*
X125607483Y-128765908D01*
X125547883Y-128759501D01*
X125547881Y-128759500D01*
X125547873Y-128759500D01*
X125547864Y-128759500D01*
X122452129Y-128759500D01*
X122452123Y-128759501D01*
X122392516Y-128765908D01*
X122257671Y-128816202D01*
X122257664Y-128816206D01*
X122142455Y-128902452D01*
X122142452Y-128902455D01*
X122056206Y-129017664D01*
X122056202Y-129017671D01*
X122005908Y-129152517D01*
X121999501Y-129212116D01*
X121999501Y-129212123D01*
X121999500Y-129212135D01*
X114500500Y-129212135D01*
X114500500Y-116858872D01*
X121999500Y-116858872D01*
X121999500Y-117121127D01*
X122018151Y-117262784D01*
X122033730Y-117381116D01*
X122101602Y-117634418D01*
X122101605Y-117634428D01*
X122201953Y-117876690D01*
X122201958Y-117876700D01*
X122333075Y-118103803D01*
X122492718Y-118311851D01*
X122492726Y-118311860D01*
X122678140Y-118497274D01*
X122678148Y-118497281D01*
X122886196Y-118656924D01*
X123113299Y-118788041D01*
X123113309Y-118788046D01*
X123355571Y-118888394D01*
X123355581Y-118888398D01*
X123608884Y-118956270D01*
X123868880Y-118990500D01*
X123868887Y-118990500D01*
X124131113Y-118990500D01*
X124131120Y-118990500D01*
X124391116Y-118956270D01*
X124644419Y-118888398D01*
X124886697Y-118788043D01*
X125113803Y-118656924D01*
X125321851Y-118497282D01*
X125321855Y-118497277D01*
X125321860Y-118497274D01*
X125507274Y-118311860D01*
X125507277Y-118311855D01*
X125507282Y-118311851D01*
X125666924Y-118103803D01*
X125798043Y-117876697D01*
X125898398Y-117634419D01*
X125966270Y-117381116D01*
X126000500Y-117121120D01*
X126000500Y-116858880D01*
X125966270Y-116598884D01*
X125898398Y-116345581D01*
X125857522Y-116246898D01*
X125798046Y-116103309D01*
X125798041Y-116103299D01*
X125666924Y-115876196D01*
X125507281Y-115668148D01*
X125507274Y-115668140D01*
X125321860Y-115482726D01*
X125321851Y-115482718D01*
X125113803Y-115323075D01*
X124886700Y-115191958D01*
X124886690Y-115191953D01*
X124644428Y-115091605D01*
X124644421Y-115091603D01*
X124644419Y-115091602D01*
X124391116Y-115023730D01*
X124333339Y-115016123D01*
X124131127Y-114989500D01*
X124131120Y-114989500D01*
X123868880Y-114989500D01*
X123868872Y-114989500D01*
X123637772Y-115019926D01*
X123608884Y-115023730D01*
X123550500Y-115039374D01*
X123355581Y-115091602D01*
X123355571Y-115091605D01*
X123113309Y-115191953D01*
X123113299Y-115191958D01*
X122886196Y-115323075D01*
X122678148Y-115482718D01*
X122492718Y-115668148D01*
X122333075Y-115876196D01*
X122201958Y-116103299D01*
X122201953Y-116103309D01*
X122101605Y-116345571D01*
X122101602Y-116345581D01*
X122046695Y-116550500D01*
X122033730Y-116598885D01*
X121999500Y-116858872D01*
X114500500Y-116858872D01*
X114500500Y-111778872D01*
X121999500Y-111778872D01*
X121999500Y-112041127D01*
X122013581Y-112148074D01*
X122033730Y-112301116D01*
X122101602Y-112554418D01*
X122101605Y-112554428D01*
X122201953Y-112796690D01*
X122201958Y-112796700D01*
X122333075Y-113023803D01*
X122492718Y-113231851D01*
X122492726Y-113231860D01*
X122678140Y-113417274D01*
X122678148Y-113417281D01*
X122886196Y-113576924D01*
X123113299Y-113708041D01*
X123113309Y-113708046D01*
X123355571Y-113808394D01*
X123355581Y-113808398D01*
X123608884Y-113876270D01*
X123868880Y-113910500D01*
X123868887Y-113910500D01*
X124131113Y-113910500D01*
X124131120Y-113910500D01*
X124391116Y-113876270D01*
X124644419Y-113808398D01*
X124886697Y-113708043D01*
X125113803Y-113576924D01*
X125321851Y-113417282D01*
X125321855Y-113417277D01*
X125321860Y-113417274D01*
X125507274Y-113231860D01*
X125507277Y-113231855D01*
X125507282Y-113231851D01*
X125666924Y-113023803D01*
X125798043Y-112796697D01*
X125898398Y-112554419D01*
X125966270Y-112301116D01*
X126000500Y-112041120D01*
X126000500Y-111778880D01*
X125966270Y-111518884D01*
X125898398Y-111265581D01*
X125862292Y-111178414D01*
X125798046Y-111023309D01*
X125798041Y-111023299D01*
X125666924Y-110796196D01*
X125507281Y-110588148D01*
X125507274Y-110588140D01*
X125321860Y-110402726D01*
X125321851Y-110402718D01*
X125113803Y-110243075D01*
X124886700Y-110111958D01*
X124886690Y-110111953D01*
X124644428Y-110011605D01*
X124644421Y-110011603D01*
X124644419Y-110011602D01*
X124391116Y-109943730D01*
X124333339Y-109936123D01*
X124131127Y-109909500D01*
X124131120Y-109909500D01*
X123868880Y-109909500D01*
X123868872Y-109909500D01*
X123637772Y-109939926D01*
X123608884Y-109943730D01*
X123355581Y-110011602D01*
X123355571Y-110011605D01*
X123113309Y-110111953D01*
X123113299Y-110111958D01*
X122886196Y-110243075D01*
X122678148Y-110402718D01*
X122492718Y-110588148D01*
X122333075Y-110796196D01*
X122201958Y-111023299D01*
X122201953Y-111023309D01*
X122101605Y-111265571D01*
X122101602Y-111265581D01*
X122033730Y-111518885D01*
X121999500Y-111778872D01*
X114500500Y-111778872D01*
X114500500Y-106698872D01*
X121999500Y-106698872D01*
X121999500Y-106961127D01*
X122026015Y-107162516D01*
X122033730Y-107221116D01*
X122091720Y-107437539D01*
X122101602Y-107474418D01*
X122101605Y-107474428D01*
X122201953Y-107716689D01*
X122201958Y-107716700D01*
X122333075Y-107943803D01*
X122492718Y-108151851D01*
X122492726Y-108151860D01*
X122678140Y-108337274D01*
X122678148Y-108337281D01*
X122886196Y-108496924D01*
X123113299Y-108628041D01*
X123113309Y-108628046D01*
X123332397Y-108718795D01*
X123355581Y-108728398D01*
X123608884Y-108796270D01*
X123868880Y-108830500D01*
X123868887Y-108830500D01*
X124131113Y-108830500D01*
X124131120Y-108830500D01*
X124391116Y-108796270D01*
X124644419Y-108728398D01*
X124886697Y-108628043D01*
X125113803Y-108496924D01*
X125321851Y-108337282D01*
X125321855Y-108337277D01*
X125321860Y-108337274D01*
X125507274Y-108151860D01*
X125507277Y-108151855D01*
X125507282Y-108151851D01*
X125666924Y-107943803D01*
X125798043Y-107716697D01*
X125798044Y-107716694D01*
X125798047Y-107716689D01*
X125875863Y-107528823D01*
X125898398Y-107474419D01*
X125966270Y-107221116D01*
X126000500Y-106961120D01*
X126000500Y-106698880D01*
X125966270Y-106438884D01*
X125898398Y-106185581D01*
X125898394Y-106185571D01*
X125798046Y-105943309D01*
X125798041Y-105943299D01*
X125666924Y-105716196D01*
X125544424Y-105556554D01*
X125507282Y-105508149D01*
X125507281Y-105508148D01*
X125507274Y-105508140D01*
X125321860Y-105322726D01*
X125321851Y-105322718D01*
X125113803Y-105163075D01*
X124886700Y-105031958D01*
X124886690Y-105031953D01*
X124644428Y-104931605D01*
X124644421Y-104931603D01*
X124644419Y-104931602D01*
X124391116Y-104863730D01*
X124333339Y-104856123D01*
X124131127Y-104829500D01*
X124131120Y-104829500D01*
X123868880Y-104829500D01*
X123868872Y-104829500D01*
X123637772Y-104859926D01*
X123608884Y-104863730D01*
X123447614Y-104906942D01*
X123355581Y-104931602D01*
X123355571Y-104931605D01*
X123113309Y-105031953D01*
X123113299Y-105031958D01*
X122886196Y-105163075D01*
X122678148Y-105322718D01*
X122492718Y-105508148D01*
X122333075Y-105716196D01*
X122201958Y-105943299D01*
X122201953Y-105943309D01*
X122101605Y-106185571D01*
X122101602Y-106185581D01*
X122035526Y-106432184D01*
X122033730Y-106438885D01*
X121999500Y-106698872D01*
X114500500Y-106698872D01*
X114500500Y-100202135D01*
X121999500Y-100202135D01*
X121999500Y-103297870D01*
X121999501Y-103297876D01*
X122005908Y-103357483D01*
X122056202Y-103492328D01*
X122056206Y-103492335D01*
X122142452Y-103607544D01*
X122142455Y-103607547D01*
X122257664Y-103693793D01*
X122257671Y-103693797D01*
X122392517Y-103744091D01*
X122392516Y-103744091D01*
X122399444Y-103744835D01*
X122452127Y-103750500D01*
X125547872Y-103750499D01*
X125607483Y-103744091D01*
X125742331Y-103693796D01*
X125857546Y-103607546D01*
X125943796Y-103492331D01*
X125994091Y-103357483D01*
X126000500Y-103297873D01*
X126000499Y-100202128D01*
X125994091Y-100142517D01*
X125943796Y-100007669D01*
X125943795Y-100007668D01*
X125943793Y-100007664D01*
X125857547Y-99892455D01*
X125857544Y-99892452D01*
X125742335Y-99806206D01*
X125742328Y-99806202D01*
X125607482Y-99755908D01*
X125607483Y-99755908D01*
X125547883Y-99749501D01*
X125547881Y-99749500D01*
X125547873Y-99749500D01*
X125547864Y-99749500D01*
X122452129Y-99749500D01*
X122452123Y-99749501D01*
X122392516Y-99755908D01*
X122257671Y-99806202D01*
X122257664Y-99806206D01*
X122142455Y-99892452D01*
X122142452Y-99892455D01*
X122056206Y-100007664D01*
X122056202Y-100007671D01*
X122005908Y-100142517D01*
X121999501Y-100202116D01*
X121999501Y-100202123D01*
X121999500Y-100202135D01*
X114500500Y-100202135D01*
X114500500Y-87858872D01*
X121999500Y-87858872D01*
X121999500Y-88121127D01*
X122022898Y-88298842D01*
X122033730Y-88381116D01*
X122092158Y-88599172D01*
X122101602Y-88634418D01*
X122101605Y-88634428D01*
X122201953Y-88876690D01*
X122201958Y-88876700D01*
X122333075Y-89103803D01*
X122492718Y-89311851D01*
X122492726Y-89311860D01*
X122678140Y-89497274D01*
X122678148Y-89497281D01*
X122886196Y-89656924D01*
X123113299Y-89788041D01*
X123113309Y-89788046D01*
X123355571Y-89888394D01*
X123355581Y-89888398D01*
X123608884Y-89956270D01*
X123868880Y-89990500D01*
X123868887Y-89990500D01*
X124131113Y-89990500D01*
X124131120Y-89990500D01*
X124391116Y-89956270D01*
X124644419Y-89888398D01*
X124886697Y-89788043D01*
X125113803Y-89656924D01*
X125321851Y-89497282D01*
X125321855Y-89497277D01*
X125321860Y-89497274D01*
X125507274Y-89311860D01*
X125507277Y-89311855D01*
X125507282Y-89311851D01*
X125666924Y-89103803D01*
X125798043Y-88876697D01*
X125898398Y-88634419D01*
X125966270Y-88381116D01*
X126000500Y-88121120D01*
X126000500Y-87858880D01*
X125966270Y-87598884D01*
X125898398Y-87345581D01*
X125812326Y-87137784D01*
X125798046Y-87103309D01*
X125798041Y-87103299D01*
X125666924Y-86876196D01*
X125516597Y-86680289D01*
X125507282Y-86668149D01*
X125507281Y-86668148D01*
X125507274Y-86668140D01*
X125321860Y-86482726D01*
X125321851Y-86482718D01*
X125113803Y-86323075D01*
X124886700Y-86191958D01*
X124886690Y-86191953D01*
X124644428Y-86091605D01*
X124644421Y-86091603D01*
X124644419Y-86091602D01*
X124391116Y-86023730D01*
X124332850Y-86016059D01*
X124131127Y-85989500D01*
X124131120Y-85989500D01*
X123868880Y-85989500D01*
X123868872Y-85989500D01*
X123637772Y-86019926D01*
X123608884Y-86023730D01*
X123400556Y-86079551D01*
X123355581Y-86091602D01*
X123355571Y-86091605D01*
X123113309Y-86191953D01*
X123113299Y-86191958D01*
X122886196Y-86323075D01*
X122678148Y-86482718D01*
X122492718Y-86668148D01*
X122333075Y-86876196D01*
X122201958Y-87103299D01*
X122201953Y-87103309D01*
X122101605Y-87345571D01*
X122101602Y-87345581D01*
X122033911Y-87598211D01*
X122033730Y-87598885D01*
X121999500Y-87858872D01*
X114500500Y-87858872D01*
X114500500Y-82778872D01*
X121999500Y-82778872D01*
X121999500Y-83041127D01*
X122026123Y-83243339D01*
X122033730Y-83301116D01*
X122099939Y-83548211D01*
X122101602Y-83554418D01*
X122101605Y-83554428D01*
X122201953Y-83796690D01*
X122201958Y-83796700D01*
X122333075Y-84023803D01*
X122492718Y-84231851D01*
X122492726Y-84231860D01*
X122678140Y-84417274D01*
X122678148Y-84417281D01*
X122886196Y-84576924D01*
X123113299Y-84708041D01*
X123113309Y-84708046D01*
X123315476Y-84791786D01*
X123355581Y-84808398D01*
X123608884Y-84876270D01*
X123868880Y-84910500D01*
X123868887Y-84910500D01*
X124131113Y-84910500D01*
X124131120Y-84910500D01*
X124391116Y-84876270D01*
X124644419Y-84808398D01*
X124886697Y-84708043D01*
X125113803Y-84576924D01*
X125321851Y-84417282D01*
X125321855Y-84417277D01*
X125321860Y-84417274D01*
X125507274Y-84231860D01*
X125507277Y-84231855D01*
X125507282Y-84231851D01*
X125666924Y-84023803D01*
X125798043Y-83796697D01*
X125800475Y-83790827D01*
X125825114Y-83731340D01*
X125898398Y-83554419D01*
X125966270Y-83301116D01*
X126000500Y-83041120D01*
X126000500Y-82778880D01*
X125966270Y-82518884D01*
X125898398Y-82265581D01*
X125898394Y-82265571D01*
X125798046Y-82023309D01*
X125798041Y-82023299D01*
X125666924Y-81796196D01*
X125531722Y-81620000D01*
X125507282Y-81588149D01*
X125507281Y-81588148D01*
X125507274Y-81588140D01*
X125321860Y-81402726D01*
X125321851Y-81402718D01*
X125113803Y-81243075D01*
X124886700Y-81111958D01*
X124886690Y-81111953D01*
X124644428Y-81011605D01*
X124644421Y-81011603D01*
X124644419Y-81011602D01*
X124391116Y-80943730D01*
X124333339Y-80936123D01*
X124131127Y-80909500D01*
X124131120Y-80909500D01*
X123868880Y-80909500D01*
X123868872Y-80909500D01*
X123637772Y-80939926D01*
X123608884Y-80943730D01*
X123497579Y-80973554D01*
X123355581Y-81011602D01*
X123355571Y-81011605D01*
X123113309Y-81111953D01*
X123113299Y-81111958D01*
X122886196Y-81243075D01*
X122678148Y-81402718D01*
X122492718Y-81588148D01*
X122333075Y-81796196D01*
X122201958Y-82023299D01*
X122201953Y-82023309D01*
X122101605Y-82265571D01*
X122101602Y-82265581D01*
X122051604Y-82452179D01*
X122033730Y-82518885D01*
X121999500Y-82778872D01*
X114500500Y-82778872D01*
X114500500Y-77698872D01*
X121999500Y-77698872D01*
X121999500Y-77961127D01*
X122026123Y-78163339D01*
X122033730Y-78221116D01*
X122101602Y-78474418D01*
X122101605Y-78474428D01*
X122201953Y-78716690D01*
X122201958Y-78716700D01*
X122333075Y-78943803D01*
X122492718Y-79151851D01*
X122492726Y-79151860D01*
X122678140Y-79337274D01*
X122678148Y-79337281D01*
X122886196Y-79496924D01*
X123113299Y-79628041D01*
X123113309Y-79628046D01*
X123335306Y-79720000D01*
X123355581Y-79728398D01*
X123608884Y-79796270D01*
X123868880Y-79830500D01*
X123868887Y-79830500D01*
X124131113Y-79830500D01*
X124131120Y-79830500D01*
X124391116Y-79796270D01*
X124644419Y-79728398D01*
X124821340Y-79655114D01*
X124886690Y-79628046D01*
X124886691Y-79628045D01*
X124886697Y-79628043D01*
X125113803Y-79496924D01*
X125321851Y-79337282D01*
X125321855Y-79337277D01*
X125321860Y-79337274D01*
X125507274Y-79151860D01*
X125507277Y-79151855D01*
X125507282Y-79151851D01*
X125666924Y-78943803D01*
X125798043Y-78716697D01*
X125898398Y-78474419D01*
X125966270Y-78221116D01*
X126000500Y-77961120D01*
X126000500Y-77698880D01*
X125966270Y-77438884D01*
X125898398Y-77185581D01*
X125851973Y-77073501D01*
X125798046Y-76943309D01*
X125798041Y-76943299D01*
X125666924Y-76716196D01*
X125507281Y-76508148D01*
X125507274Y-76508140D01*
X125321860Y-76322726D01*
X125321851Y-76322718D01*
X125113803Y-76163075D01*
X124886700Y-76031958D01*
X124886690Y-76031953D01*
X124644428Y-75931605D01*
X124644421Y-75931603D01*
X124644419Y-75931602D01*
X124391116Y-75863730D01*
X124333339Y-75856123D01*
X124131127Y-75829500D01*
X124131120Y-75829500D01*
X123868880Y-75829500D01*
X123868872Y-75829500D01*
X123637772Y-75859926D01*
X123608884Y-75863730D01*
X123355581Y-75931602D01*
X123355571Y-75931605D01*
X123113309Y-76031953D01*
X123113299Y-76031958D01*
X122886196Y-76163075D01*
X122678148Y-76322718D01*
X122492718Y-76508148D01*
X122333075Y-76716196D01*
X122201958Y-76943299D01*
X122201953Y-76943309D01*
X122101605Y-77185571D01*
X122101602Y-77185581D01*
X122035977Y-77430500D01*
X122033730Y-77438885D01*
X121999500Y-77698872D01*
X114500500Y-77698872D01*
X114500500Y-74811902D01*
X133749500Y-74811902D01*
X133749500Y-142768097D01*
X133786446Y-143001368D01*
X133859433Y-143225996D01*
X133966657Y-143436434D01*
X134105484Y-143627511D01*
X137278870Y-146800897D01*
X137291506Y-146815692D01*
X137343096Y-146886697D01*
X137365483Y-146917510D01*
X139387490Y-148939517D01*
X139578566Y-149078343D01*
X139789008Y-149185568D01*
X140013631Y-149258553D01*
X140101109Y-149272408D01*
X140246903Y-149295500D01*
X140246908Y-149295500D01*
X147713097Y-149295500D01*
X147946368Y-149258553D01*
X148170992Y-149185568D01*
X148381433Y-149078343D01*
X148572510Y-148939517D01*
X148739517Y-148772510D01*
X148878343Y-148581433D01*
X148985568Y-148370992D01*
X149058553Y-148146368D01*
X149066028Y-148099174D01*
X149095500Y-147913097D01*
X149095500Y-147676902D01*
X149058553Y-147443631D01*
X149007186Y-147285541D01*
X148985568Y-147219008D01*
X148985566Y-147219005D01*
X148985566Y-147219003D01*
X148878342Y-147008566D01*
X148854318Y-146975500D01*
X148739517Y-146817490D01*
X148572510Y-146650483D01*
X148381433Y-146511657D01*
X148170996Y-146404433D01*
X147946368Y-146331446D01*
X147713097Y-146294500D01*
X147713092Y-146294500D01*
X144812000Y-146294500D01*
X144744961Y-146274815D01*
X144699206Y-146222011D01*
X144688000Y-146170500D01*
X144688000Y-144727135D01*
X183049500Y-144727135D01*
X183049500Y-146522870D01*
X183049501Y-146522876D01*
X183055908Y-146582483D01*
X183106202Y-146717328D01*
X183106206Y-146717335D01*
X183192452Y-146832544D01*
X183192455Y-146832547D01*
X183307664Y-146918793D01*
X183307671Y-146918797D01*
X183307674Y-146918798D01*
X183439598Y-146968002D01*
X183495531Y-147009873D01*
X183519949Y-147075337D01*
X183505098Y-147143610D01*
X183483947Y-147171865D01*
X183370271Y-147285541D01*
X183245379Y-147457442D01*
X183148904Y-147646782D01*
X183083242Y-147848870D01*
X183083242Y-147848873D01*
X183072769Y-147915000D01*
X183966988Y-147915000D01*
X183934075Y-147972007D01*
X183900000Y-148099174D01*
X183900000Y-148230826D01*
X183934075Y-148357993D01*
X183966988Y-148415000D01*
X183072769Y-148415000D01*
X183083242Y-148481126D01*
X183083242Y-148481129D01*
X183148904Y-148683217D01*
X183245379Y-148872557D01*
X183370272Y-149044459D01*
X183370276Y-149044464D01*
X183520535Y-149194723D01*
X183520540Y-149194727D01*
X183692442Y-149319620D01*
X183881782Y-149416095D01*
X184083871Y-149481757D01*
X184150000Y-149492231D01*
X184150000Y-148598012D01*
X184207007Y-148630925D01*
X184334174Y-148665000D01*
X184465826Y-148665000D01*
X184592993Y-148630925D01*
X184650000Y-148598012D01*
X184650000Y-149492230D01*
X184716126Y-149481757D01*
X184716129Y-149481757D01*
X184918217Y-149416095D01*
X185107557Y-149319620D01*
X185279459Y-149194727D01*
X185279464Y-149194723D01*
X185429723Y-149044464D01*
X185429727Y-149044459D01*
X185554620Y-148872557D01*
X185651095Y-148683217D01*
X185716757Y-148481129D01*
X185716757Y-148481126D01*
X185727231Y-148415000D01*
X184833012Y-148415000D01*
X184865925Y-148357993D01*
X184900000Y-148230826D01*
X184900000Y-148099174D01*
X184865925Y-147972007D01*
X184833012Y-147915000D01*
X185727231Y-147915000D01*
X185716757Y-147848873D01*
X185716757Y-147848870D01*
X185651095Y-147646782D01*
X185554620Y-147457442D01*
X185429727Y-147285540D01*
X185429723Y-147285535D01*
X185316053Y-147171865D01*
X185282568Y-147110542D01*
X185287552Y-147040850D01*
X185329424Y-146984917D01*
X185360400Y-146968002D01*
X185492331Y-146918796D01*
X185607546Y-146832546D01*
X185693796Y-146717331D01*
X185744091Y-146582483D01*
X185750500Y-146522873D01*
X185750499Y-144727128D01*
X185744091Y-144667517D01*
X185693796Y-144532669D01*
X185693795Y-144532668D01*
X185693793Y-144532664D01*
X185607547Y-144417455D01*
X185607544Y-144417452D01*
X185492335Y-144331206D01*
X185492328Y-144331202D01*
X185357482Y-144280908D01*
X185357483Y-144280908D01*
X185297883Y-144274501D01*
X185297881Y-144274500D01*
X185297873Y-144274500D01*
X185297864Y-144274500D01*
X183502129Y-144274500D01*
X183502123Y-144274501D01*
X183442516Y-144280908D01*
X183307671Y-144331202D01*
X183307664Y-144331206D01*
X183192455Y-144417452D01*
X183192452Y-144417455D01*
X183106206Y-144532664D01*
X183106202Y-144532671D01*
X183055908Y-144667517D01*
X183049501Y-144727116D01*
X183049501Y-144727123D01*
X183049500Y-144727135D01*
X144688000Y-144727135D01*
X144688000Y-142202051D01*
X144688455Y-142199232D01*
X144688075Y-142197748D01*
X144690500Y-142186568D01*
X144694307Y-142163008D01*
X144695719Y-142158749D01*
X144705316Y-142135582D01*
X144738000Y-141971267D01*
X144738000Y-141803733D01*
X144705316Y-141639418D01*
X144641203Y-141484637D01*
X144610037Y-141437994D01*
X144548126Y-141345337D01*
X144429662Y-141226873D01*
X144290360Y-141133795D01*
X144135582Y-141069684D01*
X144135574Y-141069682D01*
X143971271Y-141037000D01*
X143971267Y-141037000D01*
X143803733Y-141037000D01*
X143803728Y-141037000D01*
X143639425Y-141069682D01*
X143639417Y-141069684D01*
X143484639Y-141133795D01*
X143345337Y-141226873D01*
X143226873Y-141345337D01*
X143133795Y-141484639D01*
X143069684Y-141639417D01*
X143069682Y-141639425D01*
X143037000Y-141803728D01*
X143037000Y-141971271D01*
X143069682Y-142135574D01*
X143069684Y-142135582D01*
X143077561Y-142154598D01*
X143087000Y-142202051D01*
X143087000Y-146170500D01*
X143067315Y-146237539D01*
X143014511Y-146283294D01*
X142963000Y-146294500D01*
X141037889Y-146294500D01*
X140970850Y-146274815D01*
X140950208Y-146258181D01*
X139741128Y-145049101D01*
X139728491Y-145034306D01*
X139654517Y-144932490D01*
X136786819Y-142064792D01*
X136753334Y-142003469D01*
X136750500Y-141977111D01*
X136750500Y-140177577D01*
X146175975Y-140177577D01*
X146281236Y-140221178D01*
X146281240Y-140221179D01*
X146426126Y-140249999D01*
X146426129Y-140250000D01*
X146573871Y-140250000D01*
X146573873Y-140249999D01*
X146718760Y-140221179D01*
X146718775Y-140221175D01*
X146824024Y-140177578D01*
X146824024Y-140177577D01*
X147175975Y-140177577D01*
X147281236Y-140221178D01*
X147281240Y-140221179D01*
X147426126Y-140249999D01*
X147426129Y-140250000D01*
X147573871Y-140250000D01*
X147573873Y-140249999D01*
X147718760Y-140221179D01*
X147718775Y-140221175D01*
X147824024Y-140177578D01*
X147824024Y-140177577D01*
X148175975Y-140177577D01*
X148281236Y-140221178D01*
X148281240Y-140221179D01*
X148426126Y-140249999D01*
X148426129Y-140250000D01*
X148573871Y-140250000D01*
X148573873Y-140249999D01*
X148718760Y-140221179D01*
X148718775Y-140221175D01*
X148824024Y-140177578D01*
X148824024Y-140177577D01*
X148500001Y-139853554D01*
X148500000Y-139853554D01*
X148175975Y-140177577D01*
X147824024Y-140177577D01*
X147500001Y-139853554D01*
X147500000Y-139853554D01*
X147175975Y-140177577D01*
X146824024Y-140177577D01*
X146500001Y-139853554D01*
X146500000Y-139853554D01*
X146175975Y-140177577D01*
X136750500Y-140177577D01*
X136750500Y-139426126D01*
X145750000Y-139426126D01*
X145750000Y-139573873D01*
X145778820Y-139718759D01*
X145778822Y-139718767D01*
X145822421Y-139824024D01*
X146146446Y-139500000D01*
X146146446Y-139499999D01*
X146126556Y-139480109D01*
X146400000Y-139480109D01*
X146400000Y-139519891D01*
X146415224Y-139556645D01*
X146443355Y-139584776D01*
X146480109Y-139600000D01*
X146519891Y-139600000D01*
X146556645Y-139584776D01*
X146584776Y-139556645D01*
X146600000Y-139519891D01*
X146600000Y-139500000D01*
X146853554Y-139500000D01*
X147000000Y-139646446D01*
X147146446Y-139500000D01*
X147126555Y-139480109D01*
X147400000Y-139480109D01*
X147400000Y-139519891D01*
X147415224Y-139556645D01*
X147443355Y-139584776D01*
X147480109Y-139600000D01*
X147519891Y-139600000D01*
X147556645Y-139584776D01*
X147584776Y-139556645D01*
X147600000Y-139519891D01*
X147600000Y-139500000D01*
X147853554Y-139500000D01*
X148000000Y-139646446D01*
X148146446Y-139500000D01*
X148126555Y-139480109D01*
X148400000Y-139480109D01*
X148400000Y-139519891D01*
X148415224Y-139556645D01*
X148443355Y-139584776D01*
X148480109Y-139600000D01*
X148519891Y-139600000D01*
X148556645Y-139584776D01*
X148584776Y-139556645D01*
X148600000Y-139519891D01*
X148600000Y-139499999D01*
X148853554Y-139499999D01*
X148853554Y-139500001D01*
X149177577Y-139824024D01*
X149177578Y-139824024D01*
X149221175Y-139718775D01*
X149221179Y-139718760D01*
X149249999Y-139573873D01*
X149250000Y-139573871D01*
X149250000Y-139426128D01*
X149249999Y-139426126D01*
X149221179Y-139281240D01*
X149221178Y-139281236D01*
X149177577Y-139175975D01*
X148853554Y-139499999D01*
X148600000Y-139499999D01*
X148600000Y-139480109D01*
X148584776Y-139443355D01*
X148556645Y-139415224D01*
X148519891Y-139400000D01*
X148480109Y-139400000D01*
X148443355Y-139415224D01*
X148415224Y-139443355D01*
X148400000Y-139480109D01*
X148126555Y-139480109D01*
X148000000Y-139353554D01*
X147853554Y-139500000D01*
X147600000Y-139500000D01*
X147600000Y-139480109D01*
X147584776Y-139443355D01*
X147556645Y-139415224D01*
X147519891Y-139400000D01*
X147480109Y-139400000D01*
X147443355Y-139415224D01*
X147415224Y-139443355D01*
X147400000Y-139480109D01*
X147126555Y-139480109D01*
X147000000Y-139353554D01*
X146853554Y-139500000D01*
X146600000Y-139500000D01*
X146600000Y-139480109D01*
X146584776Y-139443355D01*
X146556645Y-139415224D01*
X146519891Y-139400000D01*
X146480109Y-139400000D01*
X146443355Y-139415224D01*
X146415224Y-139443355D01*
X146400000Y-139480109D01*
X146126556Y-139480109D01*
X145822421Y-139175974D01*
X145822420Y-139175974D01*
X145778823Y-139281228D01*
X145778820Y-139281240D01*
X145750000Y-139426126D01*
X136750500Y-139426126D01*
X136750500Y-139000000D01*
X146353554Y-139000000D01*
X146500000Y-139146446D01*
X146646446Y-139000000D01*
X147353554Y-139000000D01*
X147500000Y-139146446D01*
X147646446Y-139000000D01*
X148353554Y-139000000D01*
X148500000Y-139146446D01*
X148646446Y-139000000D01*
X148500000Y-138853554D01*
X148353554Y-139000000D01*
X147646446Y-139000000D01*
X147500000Y-138853554D01*
X147353554Y-139000000D01*
X146646446Y-139000000D01*
X146500000Y-138853554D01*
X146353554Y-139000000D01*
X136750500Y-139000000D01*
X136750500Y-138426126D01*
X145750000Y-138426126D01*
X145750000Y-138573873D01*
X145778820Y-138718759D01*
X145778822Y-138718767D01*
X145822421Y-138824024D01*
X146146446Y-138500000D01*
X146146446Y-138499999D01*
X146126556Y-138480109D01*
X146400000Y-138480109D01*
X146400000Y-138519891D01*
X146415224Y-138556645D01*
X146443355Y-138584776D01*
X146480109Y-138600000D01*
X146519891Y-138600000D01*
X146556645Y-138584776D01*
X146584776Y-138556645D01*
X146600000Y-138519891D01*
X146600000Y-138500000D01*
X146853554Y-138500000D01*
X147000000Y-138646446D01*
X147146446Y-138500000D01*
X147126555Y-138480109D01*
X147400000Y-138480109D01*
X147400000Y-138519891D01*
X147415224Y-138556645D01*
X147443355Y-138584776D01*
X147480109Y-138600000D01*
X147519891Y-138600000D01*
X147556645Y-138584776D01*
X147584776Y-138556645D01*
X147600000Y-138519891D01*
X147600000Y-138500000D01*
X147853554Y-138500000D01*
X148000000Y-138646446D01*
X148146446Y-138500000D01*
X148126555Y-138480109D01*
X148400000Y-138480109D01*
X148400000Y-138519891D01*
X148415224Y-138556645D01*
X148443355Y-138584776D01*
X148480109Y-138600000D01*
X148519891Y-138600000D01*
X148556645Y-138584776D01*
X148584776Y-138556645D01*
X148600000Y-138519891D01*
X148600000Y-138499999D01*
X148853554Y-138499999D01*
X148853554Y-138500001D01*
X149177577Y-138824024D01*
X149177578Y-138824024D01*
X149221175Y-138718775D01*
X149221179Y-138718760D01*
X149249999Y-138573873D01*
X149250000Y-138573871D01*
X149250000Y-138502135D01*
X183049500Y-138502135D01*
X183049500Y-140297870D01*
X183049501Y-140297876D01*
X183055908Y-140357483D01*
X183106202Y-140492328D01*
X183106206Y-140492335D01*
X183192452Y-140607544D01*
X183192455Y-140607547D01*
X183307664Y-140693793D01*
X183307671Y-140693797D01*
X183307674Y-140693798D01*
X183439598Y-140743002D01*
X183495531Y-140784873D01*
X183519949Y-140850337D01*
X183505098Y-140918610D01*
X183483947Y-140946865D01*
X183370271Y-141060541D01*
X183245379Y-141232442D01*
X183148904Y-141421782D01*
X183083242Y-141623870D01*
X183083242Y-141623873D01*
X183072769Y-141690000D01*
X183966988Y-141690000D01*
X183934075Y-141747007D01*
X183900000Y-141874174D01*
X183900000Y-142005826D01*
X183934075Y-142132993D01*
X183966988Y-142190000D01*
X183072769Y-142190000D01*
X183083242Y-142256126D01*
X183083242Y-142256129D01*
X183148904Y-142458217D01*
X183245379Y-142647557D01*
X183370272Y-142819459D01*
X183370276Y-142819464D01*
X183520535Y-142969723D01*
X183520540Y-142969727D01*
X183692442Y-143094620D01*
X183881782Y-143191095D01*
X184083871Y-143256757D01*
X184150000Y-143267231D01*
X184150000Y-142373012D01*
X184207007Y-142405925D01*
X184334174Y-142440000D01*
X184465826Y-142440000D01*
X184592993Y-142405925D01*
X184650000Y-142373012D01*
X184650000Y-143267230D01*
X184716126Y-143256757D01*
X184716129Y-143256757D01*
X184918217Y-143191095D01*
X185107557Y-143094620D01*
X185279459Y-142969727D01*
X185279464Y-142969723D01*
X185429723Y-142819464D01*
X185429727Y-142819459D01*
X185554620Y-142647557D01*
X185651095Y-142458217D01*
X185716757Y-142256129D01*
X185716757Y-142256126D01*
X185727231Y-142190000D01*
X184833012Y-142190000D01*
X184865925Y-142132993D01*
X184900000Y-142005826D01*
X184900000Y-141874174D01*
X184865925Y-141747007D01*
X184833012Y-141690000D01*
X185727231Y-141690000D01*
X185716757Y-141623873D01*
X185716757Y-141623870D01*
X185651095Y-141421782D01*
X185554620Y-141232442D01*
X185429727Y-141060540D01*
X185429723Y-141060535D01*
X185316053Y-140946865D01*
X185282568Y-140885542D01*
X185287552Y-140815850D01*
X185329424Y-140759917D01*
X185360400Y-140743002D01*
X185492331Y-140693796D01*
X185607546Y-140607546D01*
X185693796Y-140492331D01*
X185744091Y-140357483D01*
X185750500Y-140297873D01*
X185750499Y-138502128D01*
X185744091Y-138442517D01*
X185737978Y-138426128D01*
X185693797Y-138307671D01*
X185693793Y-138307664D01*
X185607547Y-138192455D01*
X185607544Y-138192452D01*
X185492335Y-138106206D01*
X185492328Y-138106202D01*
X185357482Y-138055908D01*
X185357483Y-138055908D01*
X185297883Y-138049501D01*
X185297881Y-138049500D01*
X185297873Y-138049500D01*
X185297864Y-138049500D01*
X183502129Y-138049500D01*
X183502123Y-138049501D01*
X183442516Y-138055908D01*
X183307671Y-138106202D01*
X183307664Y-138106206D01*
X183192455Y-138192452D01*
X183192452Y-138192455D01*
X183106206Y-138307664D01*
X183106202Y-138307671D01*
X183055908Y-138442517D01*
X183049501Y-138502116D01*
X183049501Y-138502123D01*
X183049500Y-138502135D01*
X149250000Y-138502135D01*
X149250000Y-138426128D01*
X149249999Y-138426126D01*
X149221179Y-138281240D01*
X149221178Y-138281236D01*
X149177577Y-138175975D01*
X148853554Y-138499999D01*
X148600000Y-138499999D01*
X148600000Y-138480109D01*
X148584776Y-138443355D01*
X148556645Y-138415224D01*
X148519891Y-138400000D01*
X148480109Y-138400000D01*
X148443355Y-138415224D01*
X148415224Y-138443355D01*
X148400000Y-138480109D01*
X148126555Y-138480109D01*
X148000000Y-138353554D01*
X147853554Y-138500000D01*
X147600000Y-138500000D01*
X147600000Y-138480109D01*
X147584776Y-138443355D01*
X147556645Y-138415224D01*
X147519891Y-138400000D01*
X147480109Y-138400000D01*
X147443355Y-138415224D01*
X147415224Y-138443355D01*
X147400000Y-138480109D01*
X147126555Y-138480109D01*
X147000000Y-138353554D01*
X146853554Y-138500000D01*
X146600000Y-138500000D01*
X146600000Y-138480109D01*
X146584776Y-138443355D01*
X146556645Y-138415224D01*
X146519891Y-138400000D01*
X146480109Y-138400000D01*
X146443355Y-138415224D01*
X146415224Y-138443355D01*
X146400000Y-138480109D01*
X146126556Y-138480109D01*
X145822421Y-138175974D01*
X145822420Y-138175974D01*
X145778823Y-138281228D01*
X145778820Y-138281240D01*
X145750000Y-138426126D01*
X136750500Y-138426126D01*
X136750500Y-138000000D01*
X146353554Y-138000000D01*
X146500000Y-138146446D01*
X146646446Y-138000000D01*
X147353554Y-138000000D01*
X147500000Y-138146446D01*
X147646446Y-138000000D01*
X148353554Y-138000000D01*
X148500000Y-138146446D01*
X148646446Y-138000000D01*
X148500000Y-137853554D01*
X148353554Y-138000000D01*
X147646446Y-138000000D01*
X147500000Y-137853554D01*
X147353554Y-138000000D01*
X146646446Y-138000000D01*
X146500000Y-137853554D01*
X146353554Y-138000000D01*
X136750500Y-138000000D01*
X136750500Y-137426126D01*
X145750000Y-137426126D01*
X145750000Y-137573873D01*
X145778820Y-137718759D01*
X145778822Y-137718767D01*
X145822421Y-137824024D01*
X146146446Y-137500000D01*
X146146446Y-137499999D01*
X146126556Y-137480109D01*
X146400000Y-137480109D01*
X146400000Y-137519891D01*
X146415224Y-137556645D01*
X146443355Y-137584776D01*
X146480109Y-137600000D01*
X146519891Y-137600000D01*
X146556645Y-137584776D01*
X146584776Y-137556645D01*
X146600000Y-137519891D01*
X146600000Y-137500000D01*
X146853554Y-137500000D01*
X147000000Y-137646446D01*
X147146446Y-137500000D01*
X147126555Y-137480109D01*
X147400000Y-137480109D01*
X147400000Y-137519891D01*
X147415224Y-137556645D01*
X147443355Y-137584776D01*
X147480109Y-137600000D01*
X147519891Y-137600000D01*
X147556645Y-137584776D01*
X147584776Y-137556645D01*
X147600000Y-137519891D01*
X147600000Y-137500000D01*
X147853554Y-137500000D01*
X148000000Y-137646446D01*
X148146446Y-137500000D01*
X148126555Y-137480109D01*
X148400000Y-137480109D01*
X148400000Y-137519891D01*
X148415224Y-137556645D01*
X148443355Y-137584776D01*
X148480109Y-137600000D01*
X148519891Y-137600000D01*
X148556645Y-137584776D01*
X148584776Y-137556645D01*
X148600000Y-137519891D01*
X148600000Y-137499999D01*
X148853554Y-137499999D01*
X148853554Y-137500001D01*
X149177577Y-137824024D01*
X149177578Y-137824024D01*
X149221175Y-137718775D01*
X149221179Y-137718760D01*
X149249999Y-137573873D01*
X149250000Y-137573871D01*
X149250000Y-137426128D01*
X149249999Y-137426126D01*
X149221179Y-137281240D01*
X149221178Y-137281236D01*
X149177577Y-137175975D01*
X148853554Y-137499999D01*
X148600000Y-137499999D01*
X148600000Y-137480109D01*
X148584776Y-137443355D01*
X148556645Y-137415224D01*
X148519891Y-137400000D01*
X148480109Y-137400000D01*
X148443355Y-137415224D01*
X148415224Y-137443355D01*
X148400000Y-137480109D01*
X148126555Y-137480109D01*
X148000000Y-137353554D01*
X147853554Y-137500000D01*
X147600000Y-137500000D01*
X147600000Y-137480109D01*
X147584776Y-137443355D01*
X147556645Y-137415224D01*
X147519891Y-137400000D01*
X147480109Y-137400000D01*
X147443355Y-137415224D01*
X147415224Y-137443355D01*
X147400000Y-137480109D01*
X147126555Y-137480109D01*
X147000000Y-137353554D01*
X146853554Y-137500000D01*
X146600000Y-137500000D01*
X146600000Y-137480109D01*
X146584776Y-137443355D01*
X146556645Y-137415224D01*
X146519891Y-137400000D01*
X146480109Y-137400000D01*
X146443355Y-137415224D01*
X146415224Y-137443355D01*
X146400000Y-137480109D01*
X146126556Y-137480109D01*
X145822421Y-137175974D01*
X145822420Y-137175974D01*
X145778823Y-137281228D01*
X145778820Y-137281240D01*
X145750000Y-137426126D01*
X136750500Y-137426126D01*
X136750500Y-136822420D01*
X146175974Y-136822420D01*
X146175974Y-136822421D01*
X146500000Y-137146446D01*
X146500001Y-137146446D01*
X146824024Y-136822421D01*
X146824022Y-136822420D01*
X147175974Y-136822420D01*
X147175974Y-136822421D01*
X147500000Y-137146446D01*
X147500001Y-137146446D01*
X147824024Y-136822421D01*
X147824022Y-136822420D01*
X148175974Y-136822420D01*
X148175974Y-136822421D01*
X148500000Y-137146446D01*
X148500001Y-137146446D01*
X148824024Y-136822421D01*
X148718767Y-136778822D01*
X148718759Y-136778820D01*
X148573872Y-136750000D01*
X148426128Y-136750000D01*
X148281240Y-136778820D01*
X148281228Y-136778823D01*
X148175974Y-136822420D01*
X147824022Y-136822420D01*
X147718767Y-136778822D01*
X147718759Y-136778820D01*
X147573872Y-136750000D01*
X147426128Y-136750000D01*
X147281240Y-136778820D01*
X147281228Y-136778823D01*
X147175974Y-136822420D01*
X146824022Y-136822420D01*
X146718767Y-136778822D01*
X146718759Y-136778820D01*
X146573872Y-136750000D01*
X146426128Y-136750000D01*
X146281240Y-136778820D01*
X146281228Y-136778823D01*
X146175974Y-136822420D01*
X136750500Y-136822420D01*
X136750500Y-133666228D01*
X146149500Y-133666228D01*
X146149500Y-133833771D01*
X146182182Y-133998074D01*
X146182184Y-133998082D01*
X146246295Y-134152860D01*
X146339373Y-134292162D01*
X146457837Y-134410626D01*
X146550494Y-134472537D01*
X146597137Y-134503703D01*
X146751918Y-134567816D01*
X146916228Y-134600499D01*
X146916232Y-134600500D01*
X146916233Y-134600500D01*
X147083768Y-134600500D01*
X147083769Y-134600499D01*
X147248082Y-134567816D01*
X147402863Y-134503703D01*
X147542162Y-134410626D01*
X147560800Y-134391988D01*
X147622122Y-134358501D01*
X147691814Y-134363484D01*
X147747748Y-134405354D01*
X147751585Y-134410777D01*
X147839370Y-134542157D01*
X147839376Y-134542165D01*
X147957837Y-134660626D01*
X148050494Y-134722537D01*
X148097137Y-134753703D01*
X148251918Y-134817816D01*
X148416228Y-134850499D01*
X148416232Y-134850500D01*
X148416233Y-134850500D01*
X148583768Y-134850500D01*
X148583769Y-134850499D01*
X148748082Y-134817816D01*
X148902863Y-134753703D01*
X149042162Y-134660626D01*
X149160626Y-134542162D01*
X149253703Y-134402863D01*
X149317816Y-134248082D01*
X149346718Y-134102781D01*
X149379102Y-134040870D01*
X149380596Y-134039349D01*
X152039293Y-131380652D01*
X152100614Y-131347169D01*
X152102781Y-131346718D01*
X152121360Y-131343022D01*
X152248082Y-131317816D01*
X152402863Y-131253703D01*
X152542162Y-131160626D01*
X152660626Y-131042162D01*
X152753703Y-130902863D01*
X152817816Y-130748082D01*
X152850500Y-130583767D01*
X152850500Y-130416233D01*
X152817816Y-130251918D01*
X152753703Y-130097137D01*
X152722537Y-130050494D01*
X152660626Y-129957837D01*
X152542162Y-129839373D01*
X152402860Y-129746295D01*
X152248082Y-129682184D01*
X152248074Y-129682182D01*
X152083771Y-129649500D01*
X152083767Y-129649500D01*
X151916233Y-129649500D01*
X151916228Y-129649500D01*
X151751925Y-129682182D01*
X151751917Y-129682184D01*
X151597139Y-129746295D01*
X151457837Y-129839373D01*
X151339373Y-129957837D01*
X151246295Y-130097139D01*
X151182184Y-130251917D01*
X151182182Y-130251923D01*
X151153281Y-130397219D01*
X151120896Y-130459130D01*
X151119345Y-130460708D01*
X148460708Y-133119345D01*
X148399385Y-133152830D01*
X148397219Y-133153281D01*
X148251923Y-133182182D01*
X148251917Y-133182184D01*
X148097139Y-133246295D01*
X147957837Y-133339373D01*
X147939195Y-133358015D01*
X147920704Y-133368111D01*
X147905032Y-133382189D01*
X147890655Y-133384518D01*
X147877871Y-133391499D01*
X147856856Y-133389995D01*
X147836062Y-133393365D01*
X147822708Y-133387552D01*
X147808180Y-133386513D01*
X147791314Y-133373887D01*
X147771998Y-133365479D01*
X147755399Y-133347000D01*
X147752247Y-133344640D01*
X147748437Y-133339256D01*
X147671396Y-133223957D01*
X147650520Y-133157281D01*
X147650500Y-133155068D01*
X147650500Y-128688990D01*
X147670185Y-128621951D01*
X147722989Y-128576196D01*
X147742358Y-128569941D01*
X147742250Y-128569585D01*
X147748072Y-128567817D01*
X147748082Y-128567816D01*
X147902863Y-128503703D01*
X148042162Y-128410626D01*
X148160626Y-128292162D01*
X148253703Y-128152863D01*
X148317816Y-127998082D01*
X148350500Y-127833767D01*
X148350500Y-127666233D01*
X148317816Y-127501918D01*
X148253703Y-127347137D01*
X148222537Y-127300494D01*
X148160626Y-127207837D01*
X148042162Y-127089373D01*
X147902860Y-126996295D01*
X147748082Y-126932184D01*
X147748074Y-126932182D01*
X147583771Y-126899500D01*
X147583767Y-126899500D01*
X147416233Y-126899500D01*
X147416228Y-126899500D01*
X147251925Y-126932182D01*
X147251917Y-126932184D01*
X147097139Y-126996295D01*
X146957837Y-127089373D01*
X146839373Y-127207837D01*
X146746295Y-127347139D01*
X146682184Y-127501917D01*
X146682182Y-127501923D01*
X146653281Y-127647219D01*
X146620896Y-127709130D01*
X146619345Y-127710708D01*
X146494727Y-127835325D01*
X146494724Y-127835328D01*
X146436485Y-127922491D01*
X146423535Y-127941871D01*
X146374499Y-128060255D01*
X146374497Y-128060261D01*
X146349500Y-128185928D01*
X146349500Y-133155068D01*
X146329815Y-133222107D01*
X146328602Y-133223959D01*
X146246295Y-133347139D01*
X146182184Y-133501917D01*
X146182182Y-133501925D01*
X146149500Y-133666228D01*
X136750500Y-133666228D01*
X136750500Y-122902135D01*
X183099500Y-122902135D01*
X183099500Y-124697870D01*
X183099501Y-124697876D01*
X183105908Y-124757483D01*
X183156202Y-124892328D01*
X183156206Y-124892335D01*
X183242452Y-125007544D01*
X183242455Y-125007547D01*
X183357664Y-125093793D01*
X183357671Y-125093797D01*
X183357674Y-125093798D01*
X183489598Y-125143002D01*
X183545531Y-125184873D01*
X183569949Y-125250337D01*
X183555098Y-125318610D01*
X183533947Y-125346865D01*
X183420271Y-125460541D01*
X183295379Y-125632442D01*
X183198904Y-125821782D01*
X183133242Y-126023870D01*
X183133242Y-126023873D01*
X183122769Y-126090000D01*
X184016988Y-126090000D01*
X183984075Y-126147007D01*
X183950000Y-126274174D01*
X183950000Y-126405826D01*
X183984075Y-126532993D01*
X184016988Y-126590000D01*
X183122769Y-126590000D01*
X183133242Y-126656126D01*
X183133242Y-126656129D01*
X183198904Y-126858217D01*
X183295379Y-127047557D01*
X183420272Y-127219459D01*
X183420276Y-127219464D01*
X183570535Y-127369723D01*
X183570540Y-127369727D01*
X183742442Y-127494620D01*
X183931782Y-127591095D01*
X184133871Y-127656757D01*
X184200000Y-127667231D01*
X184200000Y-126773012D01*
X184257007Y-126805925D01*
X184384174Y-126840000D01*
X184515826Y-126840000D01*
X184642993Y-126805925D01*
X184700000Y-126773012D01*
X184700000Y-127667230D01*
X184766126Y-127656757D01*
X184766129Y-127656757D01*
X184968217Y-127591095D01*
X185157557Y-127494620D01*
X185329459Y-127369727D01*
X185329464Y-127369723D01*
X185479723Y-127219464D01*
X185479727Y-127219459D01*
X185604620Y-127047557D01*
X185701095Y-126858217D01*
X185766757Y-126656129D01*
X185766757Y-126656126D01*
X185777231Y-126590000D01*
X184883012Y-126590000D01*
X184915925Y-126532993D01*
X184950000Y-126405826D01*
X184950000Y-126274174D01*
X184915925Y-126147007D01*
X184883012Y-126090000D01*
X185777231Y-126090000D01*
X185766757Y-126023873D01*
X185766757Y-126023870D01*
X185701095Y-125821782D01*
X185604620Y-125632442D01*
X185479727Y-125460540D01*
X185479723Y-125460535D01*
X185366053Y-125346865D01*
X185332568Y-125285542D01*
X185337552Y-125215850D01*
X185379424Y-125159917D01*
X185410400Y-125143002D01*
X185542331Y-125093796D01*
X185657546Y-125007546D01*
X185743796Y-124892331D01*
X185794091Y-124757483D01*
X185800500Y-124697873D01*
X185800499Y-122902128D01*
X185794091Y-122842517D01*
X185743796Y-122707669D01*
X185743795Y-122707668D01*
X185743793Y-122707664D01*
X185657547Y-122592455D01*
X185657544Y-122592452D01*
X185542335Y-122506206D01*
X185542328Y-122506202D01*
X185407482Y-122455908D01*
X185407483Y-122455908D01*
X185347883Y-122449501D01*
X185347881Y-122449500D01*
X185347873Y-122449500D01*
X185347864Y-122449500D01*
X183552129Y-122449500D01*
X183552123Y-122449501D01*
X183492516Y-122455908D01*
X183357671Y-122506202D01*
X183357664Y-122506206D01*
X183242455Y-122592452D01*
X183242452Y-122592455D01*
X183156206Y-122707664D01*
X183156202Y-122707671D01*
X183105908Y-122842517D01*
X183099501Y-122902116D01*
X183099501Y-122902123D01*
X183099500Y-122902135D01*
X136750500Y-122902135D01*
X136750500Y-117901455D01*
X141999500Y-117901455D01*
X141999500Y-118098544D01*
X142037947Y-118291828D01*
X142037949Y-118291836D01*
X142113367Y-118473910D01*
X142113372Y-118473920D01*
X142222860Y-118637780D01*
X142222863Y-118637784D01*
X142362215Y-118777136D01*
X142362219Y-118777139D01*
X142526079Y-118886627D01*
X142526083Y-118886629D01*
X142526086Y-118886631D01*
X142708164Y-118962051D01*
X142851182Y-118990499D01*
X142901455Y-119000499D01*
X142901458Y-119000500D01*
X142901460Y-119000500D01*
X143098542Y-119000500D01*
X143098543Y-119000499D01*
X143291836Y-118962051D01*
X143473914Y-118886631D01*
X143637781Y-118777139D01*
X143944421Y-118470499D01*
X144823769Y-117591153D01*
X170879500Y-117591153D01*
X170879500Y-117748846D01*
X170910261Y-117903489D01*
X170910264Y-117903501D01*
X170970602Y-118049172D01*
X170970609Y-118049185D01*
X171058210Y-118180288D01*
X171058213Y-118180292D01*
X171169707Y-118291786D01*
X171169711Y-118291789D01*
X171300814Y-118379390D01*
X171300827Y-118379397D01*
X171446498Y-118439735D01*
X171446503Y-118439737D01*
X171601153Y-118470499D01*
X171601156Y-118470500D01*
X171601158Y-118470500D01*
X171758844Y-118470500D01*
X171758845Y-118470499D01*
X171913497Y-118439737D01*
X172059179Y-118379394D01*
X172116044Y-118341397D01*
X172182721Y-118320520D01*
X172184935Y-118320500D01*
X182324070Y-118320500D01*
X182362361Y-118312883D01*
X182386554Y-118310500D01*
X183015382Y-118310500D01*
X183082421Y-118330185D01*
X183116099Y-118364591D01*
X183117085Y-118363875D01*
X183244890Y-118539786D01*
X183395213Y-118690109D01*
X183567179Y-118815048D01*
X183567181Y-118815049D01*
X183567184Y-118815051D01*
X183756588Y-118911557D01*
X183958757Y-118977246D01*
X184168713Y-119010500D01*
X184168714Y-119010500D01*
X184381286Y-119010500D01*
X184381287Y-119010500D01*
X184591243Y-118977246D01*
X184793412Y-118911557D01*
X184982816Y-118815051D01*
X185004789Y-118799086D01*
X185154786Y-118690109D01*
X185154788Y-118690106D01*
X185154792Y-118690104D01*
X185305104Y-118539792D01*
X185305106Y-118539788D01*
X185305109Y-118539786D01*
X185430048Y-118367820D01*
X185430047Y-118367820D01*
X185430051Y-118367816D01*
X185526557Y-118178412D01*
X185592246Y-117976243D01*
X185625500Y-117766287D01*
X185625500Y-117553713D01*
X185592246Y-117343757D01*
X185526557Y-117141588D01*
X185430051Y-116952184D01*
X185430049Y-116952181D01*
X185430048Y-116952179D01*
X185305109Y-116780213D01*
X185191569Y-116666673D01*
X185158084Y-116605350D01*
X185163068Y-116535658D01*
X185204940Y-116479725D01*
X185235915Y-116462810D01*
X185367331Y-116413796D01*
X185482546Y-116327546D01*
X185568796Y-116212331D01*
X185619091Y-116077483D01*
X185625500Y-116017873D01*
X185625499Y-114222128D01*
X185619091Y-114162517D01*
X185610093Y-114138393D01*
X185568797Y-114027671D01*
X185568793Y-114027664D01*
X185482547Y-113912455D01*
X185482544Y-113912452D01*
X185367335Y-113826206D01*
X185367328Y-113826202D01*
X185232482Y-113775908D01*
X185232483Y-113775908D01*
X185172883Y-113769501D01*
X185172881Y-113769500D01*
X185172873Y-113769500D01*
X185172864Y-113769500D01*
X183377129Y-113769500D01*
X183377123Y-113769501D01*
X183317516Y-113775908D01*
X183182671Y-113826202D01*
X183182664Y-113826206D01*
X183067455Y-113912452D01*
X183067452Y-113912455D01*
X182981206Y-114027664D01*
X182981202Y-114027671D01*
X182930908Y-114162517D01*
X182924501Y-114222116D01*
X182924501Y-114222123D01*
X182924500Y-114222135D01*
X182924500Y-116017870D01*
X182924501Y-116017876D01*
X182930908Y-116077483D01*
X182981202Y-116212328D01*
X182981206Y-116212335D01*
X183067452Y-116327544D01*
X183067455Y-116327547D01*
X183182664Y-116413793D01*
X183182671Y-116413797D01*
X183314082Y-116462810D01*
X183370016Y-116504681D01*
X183394433Y-116570145D01*
X183379582Y-116638418D01*
X183358431Y-116666673D01*
X183244889Y-116780215D01*
X183117085Y-116956125D01*
X183115740Y-116955148D01*
X183069295Y-116997166D01*
X183015382Y-117009500D01*
X182205930Y-117009500D01*
X182167639Y-117017117D01*
X182143446Y-117019500D01*
X172184935Y-117019500D01*
X172117896Y-116999815D01*
X172116090Y-116998633D01*
X172059179Y-116960606D01*
X172059172Y-116960602D01*
X171913501Y-116900264D01*
X171913489Y-116900261D01*
X171758845Y-116869500D01*
X171758842Y-116869500D01*
X171601158Y-116869500D01*
X171601155Y-116869500D01*
X171446510Y-116900261D01*
X171446498Y-116900264D01*
X171300827Y-116960602D01*
X171300814Y-116960609D01*
X171169711Y-117048210D01*
X171169707Y-117048213D01*
X171058213Y-117159707D01*
X171058210Y-117159711D01*
X170970609Y-117290814D01*
X170970602Y-117290827D01*
X170910264Y-117436498D01*
X170910261Y-117436510D01*
X170879500Y-117591153D01*
X144823769Y-117591153D01*
X144917537Y-117497385D01*
X145152137Y-117262784D01*
X145152137Y-117262783D01*
X145152140Y-117262781D01*
X145261632Y-117098914D01*
X145337052Y-116916835D01*
X145375500Y-116723540D01*
X145375500Y-116526459D01*
X145375500Y-112776459D01*
X145375500Y-112776456D01*
X145337052Y-112583170D01*
X145337051Y-112583169D01*
X145337051Y-112583165D01*
X145325144Y-112554418D01*
X145261635Y-112401092D01*
X145261628Y-112401079D01*
X145152139Y-112237218D01*
X145152136Y-112237214D01*
X145012785Y-112097863D01*
X145012781Y-112097860D01*
X144848920Y-111988371D01*
X144848907Y-111988364D01*
X144695210Y-111924702D01*
X144666839Y-111912950D01*
X144666829Y-111912947D01*
X144473543Y-111874500D01*
X144473541Y-111874500D01*
X144276459Y-111874500D01*
X144276457Y-111874500D01*
X144083170Y-111912947D01*
X144083160Y-111912950D01*
X143901092Y-111988364D01*
X143901079Y-111988371D01*
X143737218Y-112097860D01*
X143737214Y-112097863D01*
X143597863Y-112237214D01*
X143597860Y-112237218D01*
X143488371Y-112401079D01*
X143488364Y-112401092D01*
X143412950Y-112583160D01*
X143412947Y-112583170D01*
X143374500Y-112776456D01*
X143374500Y-116159217D01*
X143354815Y-116226256D01*
X143338181Y-116246898D01*
X142222863Y-117362215D01*
X142222860Y-117362219D01*
X142113372Y-117526079D01*
X142113367Y-117526089D01*
X142037949Y-117708163D01*
X142037947Y-117708171D01*
X141999500Y-117901455D01*
X136750500Y-117901455D01*
X136750500Y-111816228D01*
X154649500Y-111816228D01*
X154649500Y-111983771D01*
X154682182Y-112148074D01*
X154682184Y-112148082D01*
X154746295Y-112302860D01*
X154839373Y-112442162D01*
X154843239Y-112446872D01*
X154841968Y-112447914D01*
X154871662Y-112502272D01*
X154874500Y-112528650D01*
X154874500Y-114261611D01*
X154898535Y-114382444D01*
X154898540Y-114382461D01*
X154945685Y-114496280D01*
X154945687Y-114496283D01*
X154945688Y-114496286D01*
X154979915Y-114547509D01*
X155014142Y-114598733D01*
X155101267Y-114685858D01*
X155101269Y-114685859D01*
X155111232Y-114695822D01*
X156113181Y-115697771D01*
X156146666Y-115759094D01*
X156148669Y-115777728D01*
X156148903Y-115777706D01*
X156149500Y-115783771D01*
X156182182Y-115948074D01*
X156182184Y-115948082D01*
X156246295Y-116102860D01*
X156339373Y-116242162D01*
X156457837Y-116360626D01*
X156537408Y-116413793D01*
X156597137Y-116453703D01*
X156597138Y-116453703D01*
X156597139Y-116453704D01*
X156632201Y-116468227D01*
X156751918Y-116517816D01*
X156841617Y-116535658D01*
X156916228Y-116550499D01*
X156916232Y-116550500D01*
X156916233Y-116550500D01*
X157083768Y-116550500D01*
X157083769Y-116550499D01*
X157248082Y-116517816D01*
X157402863Y-116453703D01*
X157542162Y-116360626D01*
X157660626Y-116242162D01*
X157753703Y-116102863D01*
X157817816Y-115948082D01*
X157850500Y-115783767D01*
X157850500Y-115616233D01*
X157817816Y-115451918D01*
X157753703Y-115297137D01*
X157722537Y-115250494D01*
X157660626Y-115157837D01*
X157542162Y-115039373D01*
X157402860Y-114946295D01*
X157248082Y-114882184D01*
X157248074Y-114882182D01*
X157083771Y-114849500D01*
X157077706Y-114848903D01*
X157077866Y-114847272D01*
X157018414Y-114829815D01*
X156997772Y-114813181D01*
X156161819Y-113977228D01*
X156128334Y-113915905D01*
X156125500Y-113889547D01*
X156125500Y-112528650D01*
X156145185Y-112461611D01*
X156156943Y-112447021D01*
X156156761Y-112446872D01*
X156160626Y-112442162D01*
X156188077Y-112401079D01*
X156253703Y-112302863D01*
X156317816Y-112148082D01*
X156350500Y-111983767D01*
X156350500Y-111816233D01*
X156317816Y-111651918D01*
X156253703Y-111497137D01*
X156167296Y-111367820D01*
X156160626Y-111357837D01*
X156042162Y-111239373D01*
X155902860Y-111146295D01*
X155748082Y-111082184D01*
X155748074Y-111082182D01*
X155583771Y-111049500D01*
X155583767Y-111049500D01*
X155416233Y-111049500D01*
X155416228Y-111049500D01*
X155251925Y-111082182D01*
X155251917Y-111082184D01*
X155097139Y-111146295D01*
X154957837Y-111239373D01*
X154839373Y-111357837D01*
X154746295Y-111497139D01*
X154682184Y-111651917D01*
X154682182Y-111651925D01*
X154649500Y-111816228D01*
X136750500Y-111816228D01*
X136750500Y-110927577D01*
X146075975Y-110927577D01*
X146181236Y-110971178D01*
X146181240Y-110971179D01*
X146326126Y-110999999D01*
X146326129Y-111000000D01*
X146473871Y-111000000D01*
X146473873Y-110999999D01*
X146618760Y-110971179D01*
X146618775Y-110971175D01*
X146724024Y-110927578D01*
X146724024Y-110927577D01*
X147075975Y-110927577D01*
X147181236Y-110971178D01*
X147181240Y-110971179D01*
X147326126Y-110999999D01*
X147326129Y-111000000D01*
X147473871Y-111000000D01*
X147473873Y-110999999D01*
X147618760Y-110971179D01*
X147618775Y-110971175D01*
X147724024Y-110927578D01*
X147724024Y-110927577D01*
X148075975Y-110927577D01*
X148181236Y-110971178D01*
X148181240Y-110971179D01*
X148326126Y-110999999D01*
X148326129Y-111000000D01*
X148473871Y-111000000D01*
X148473873Y-110999999D01*
X148618760Y-110971179D01*
X148618775Y-110971175D01*
X148724024Y-110927578D01*
X148724024Y-110927577D01*
X148400001Y-110603554D01*
X148400000Y-110603554D01*
X148075975Y-110927577D01*
X147724024Y-110927577D01*
X147400001Y-110603554D01*
X147400000Y-110603554D01*
X147075975Y-110927577D01*
X146724024Y-110927577D01*
X146400001Y-110603554D01*
X146400000Y-110603554D01*
X146075975Y-110927577D01*
X136750500Y-110927577D01*
X136750500Y-110176126D01*
X145650000Y-110176126D01*
X145650000Y-110323873D01*
X145678820Y-110468759D01*
X145678822Y-110468767D01*
X145722421Y-110574024D01*
X146046446Y-110250000D01*
X146046446Y-110249999D01*
X146026556Y-110230109D01*
X146300000Y-110230109D01*
X146300000Y-110269891D01*
X146315224Y-110306645D01*
X146343355Y-110334776D01*
X146380109Y-110350000D01*
X146419891Y-110350000D01*
X146456645Y-110334776D01*
X146484776Y-110306645D01*
X146500000Y-110269891D01*
X146500000Y-110250000D01*
X146753554Y-110250000D01*
X146900000Y-110396446D01*
X147046446Y-110250000D01*
X147026555Y-110230109D01*
X147300000Y-110230109D01*
X147300000Y-110269891D01*
X147315224Y-110306645D01*
X147343355Y-110334776D01*
X147380109Y-110350000D01*
X147419891Y-110350000D01*
X147456645Y-110334776D01*
X147484776Y-110306645D01*
X147500000Y-110269891D01*
X147500000Y-110250000D01*
X147753554Y-110250000D01*
X147900000Y-110396446D01*
X148046446Y-110250000D01*
X148026555Y-110230109D01*
X148300000Y-110230109D01*
X148300000Y-110269891D01*
X148315224Y-110306645D01*
X148343355Y-110334776D01*
X148380109Y-110350000D01*
X148419891Y-110350000D01*
X148456645Y-110334776D01*
X148484776Y-110306645D01*
X148500000Y-110269891D01*
X148500000Y-110249999D01*
X148753554Y-110249999D01*
X148753554Y-110250001D01*
X149077577Y-110574024D01*
X149077578Y-110574024D01*
X149121175Y-110468775D01*
X149121179Y-110468760D01*
X149149999Y-110323873D01*
X149150000Y-110323871D01*
X149150000Y-110176128D01*
X149149999Y-110176126D01*
X149121179Y-110031240D01*
X149121178Y-110031236D01*
X149077577Y-109925975D01*
X148753554Y-110249999D01*
X148500000Y-110249999D01*
X148500000Y-110230109D01*
X148484776Y-110193355D01*
X148456645Y-110165224D01*
X148419891Y-110150000D01*
X148380109Y-110150000D01*
X148343355Y-110165224D01*
X148315224Y-110193355D01*
X148300000Y-110230109D01*
X148026555Y-110230109D01*
X147900000Y-110103554D01*
X147753554Y-110250000D01*
X147500000Y-110250000D01*
X147500000Y-110230109D01*
X147484776Y-110193355D01*
X147456645Y-110165224D01*
X147419891Y-110150000D01*
X147380109Y-110150000D01*
X147343355Y-110165224D01*
X147315224Y-110193355D01*
X147300000Y-110230109D01*
X147026555Y-110230109D01*
X146900000Y-110103554D01*
X146753554Y-110250000D01*
X146500000Y-110250000D01*
X146500000Y-110230109D01*
X146484776Y-110193355D01*
X146456645Y-110165224D01*
X146419891Y-110150000D01*
X146380109Y-110150000D01*
X146343355Y-110165224D01*
X146315224Y-110193355D01*
X146300000Y-110230109D01*
X146026556Y-110230109D01*
X145722421Y-109925974D01*
X145722420Y-109925974D01*
X145678823Y-110031228D01*
X145678820Y-110031240D01*
X145650000Y-110176126D01*
X136750500Y-110176126D01*
X136750500Y-109750000D01*
X146253554Y-109750000D01*
X146400000Y-109896446D01*
X146546446Y-109750000D01*
X147253554Y-109750000D01*
X147400000Y-109896446D01*
X147546446Y-109750000D01*
X148253554Y-109750000D01*
X148400000Y-109896446D01*
X148546446Y-109750000D01*
X148400000Y-109603554D01*
X148253554Y-109750000D01*
X147546446Y-109750000D01*
X147400000Y-109603554D01*
X147253554Y-109750000D01*
X146546446Y-109750000D01*
X146400000Y-109603554D01*
X146253554Y-109750000D01*
X136750500Y-109750000D01*
X136750500Y-109176126D01*
X145650000Y-109176126D01*
X145650000Y-109323873D01*
X145678820Y-109468759D01*
X145678822Y-109468767D01*
X145722421Y-109574024D01*
X146046446Y-109250000D01*
X146046446Y-109249999D01*
X146026556Y-109230109D01*
X146300000Y-109230109D01*
X146300000Y-109269891D01*
X146315224Y-109306645D01*
X146343355Y-109334776D01*
X146380109Y-109350000D01*
X146419891Y-109350000D01*
X146456645Y-109334776D01*
X146484776Y-109306645D01*
X146500000Y-109269891D01*
X146500000Y-109250000D01*
X146753554Y-109250000D01*
X146900000Y-109396446D01*
X147046446Y-109250000D01*
X147026555Y-109230109D01*
X147300000Y-109230109D01*
X147300000Y-109269891D01*
X147315224Y-109306645D01*
X147343355Y-109334776D01*
X147380109Y-109350000D01*
X147419891Y-109350000D01*
X147456645Y-109334776D01*
X147484776Y-109306645D01*
X147500000Y-109269891D01*
X147500000Y-109250000D01*
X147753554Y-109250000D01*
X147900000Y-109396446D01*
X148046446Y-109250000D01*
X148026555Y-109230109D01*
X148300000Y-109230109D01*
X148300000Y-109269891D01*
X148315224Y-109306645D01*
X148343355Y-109334776D01*
X148380109Y-109350000D01*
X148419891Y-109350000D01*
X148456645Y-109334776D01*
X148484776Y-109306645D01*
X148500000Y-109269891D01*
X148500000Y-109249999D01*
X148753554Y-109249999D01*
X148753554Y-109250001D01*
X149077577Y-109574024D01*
X149077578Y-109574024D01*
X149121175Y-109468775D01*
X149121179Y-109468760D01*
X149149999Y-109323873D01*
X149150000Y-109323871D01*
X149150000Y-109176128D01*
X149149999Y-109176126D01*
X149121179Y-109031240D01*
X149121178Y-109031236D01*
X149077577Y-108925975D01*
X148753554Y-109249999D01*
X148500000Y-109249999D01*
X148500000Y-109230109D01*
X148484776Y-109193355D01*
X148456645Y-109165224D01*
X148419891Y-109150000D01*
X148380109Y-109150000D01*
X148343355Y-109165224D01*
X148315224Y-109193355D01*
X148300000Y-109230109D01*
X148026555Y-109230109D01*
X147900000Y-109103554D01*
X147753554Y-109250000D01*
X147500000Y-109250000D01*
X147500000Y-109230109D01*
X147484776Y-109193355D01*
X147456645Y-109165224D01*
X147419891Y-109150000D01*
X147380109Y-109150000D01*
X147343355Y-109165224D01*
X147315224Y-109193355D01*
X147300000Y-109230109D01*
X147026555Y-109230109D01*
X146900000Y-109103554D01*
X146753554Y-109250000D01*
X146500000Y-109250000D01*
X146500000Y-109230109D01*
X146484776Y-109193355D01*
X146456645Y-109165224D01*
X146419891Y-109150000D01*
X146380109Y-109150000D01*
X146343355Y-109165224D01*
X146315224Y-109193355D01*
X146300000Y-109230109D01*
X146026556Y-109230109D01*
X145722421Y-108925974D01*
X145722420Y-108925974D01*
X145678823Y-109031228D01*
X145678820Y-109031240D01*
X145650000Y-109176126D01*
X136750500Y-109176126D01*
X136750500Y-108750000D01*
X146253554Y-108750000D01*
X146400000Y-108896446D01*
X146546446Y-108750000D01*
X147253554Y-108750000D01*
X147400000Y-108896446D01*
X147546446Y-108750000D01*
X148253554Y-108750000D01*
X148400000Y-108896446D01*
X148546446Y-108750000D01*
X148400000Y-108603554D01*
X148253554Y-108750000D01*
X147546446Y-108750000D01*
X147400000Y-108603554D01*
X147253554Y-108750000D01*
X146546446Y-108750000D01*
X146400000Y-108603554D01*
X146253554Y-108750000D01*
X136750500Y-108750000D01*
X136750500Y-108176126D01*
X145650000Y-108176126D01*
X145650000Y-108323873D01*
X145678820Y-108468759D01*
X145678822Y-108468767D01*
X145722421Y-108574024D01*
X146046446Y-108250000D01*
X146046446Y-108249999D01*
X146026556Y-108230109D01*
X146300000Y-108230109D01*
X146300000Y-108269891D01*
X146315224Y-108306645D01*
X146343355Y-108334776D01*
X146380109Y-108350000D01*
X146419891Y-108350000D01*
X146456645Y-108334776D01*
X146484776Y-108306645D01*
X146500000Y-108269891D01*
X146500000Y-108250000D01*
X146753554Y-108250000D01*
X146900000Y-108396446D01*
X147046446Y-108250000D01*
X147026555Y-108230109D01*
X147300000Y-108230109D01*
X147300000Y-108269891D01*
X147315224Y-108306645D01*
X147343355Y-108334776D01*
X147380109Y-108350000D01*
X147419891Y-108350000D01*
X147456645Y-108334776D01*
X147484776Y-108306645D01*
X147500000Y-108269891D01*
X147500000Y-108250000D01*
X147753554Y-108250000D01*
X147900000Y-108396446D01*
X148046446Y-108250000D01*
X148026555Y-108230109D01*
X148300000Y-108230109D01*
X148300000Y-108269891D01*
X148315224Y-108306645D01*
X148343355Y-108334776D01*
X148380109Y-108350000D01*
X148419891Y-108350000D01*
X148456645Y-108334776D01*
X148484776Y-108306645D01*
X148500000Y-108269891D01*
X148500000Y-108249999D01*
X148753554Y-108249999D01*
X148753554Y-108250001D01*
X149077577Y-108574024D01*
X149077578Y-108574024D01*
X149121175Y-108468775D01*
X149121179Y-108468760D01*
X149149999Y-108323873D01*
X149150000Y-108323871D01*
X149150000Y-108176128D01*
X149149999Y-108176126D01*
X149121179Y-108031240D01*
X149121178Y-108031236D01*
X149077577Y-107925975D01*
X148753554Y-108249999D01*
X148500000Y-108249999D01*
X148500000Y-108230109D01*
X148484776Y-108193355D01*
X148456645Y-108165224D01*
X148419891Y-108150000D01*
X148380109Y-108150000D01*
X148343355Y-108165224D01*
X148315224Y-108193355D01*
X148300000Y-108230109D01*
X148026555Y-108230109D01*
X147900000Y-108103554D01*
X147753554Y-108250000D01*
X147500000Y-108250000D01*
X147500000Y-108230109D01*
X147484776Y-108193355D01*
X147456645Y-108165224D01*
X147419891Y-108150000D01*
X147380109Y-108150000D01*
X147343355Y-108165224D01*
X147315224Y-108193355D01*
X147300000Y-108230109D01*
X147026555Y-108230109D01*
X146900000Y-108103554D01*
X146753554Y-108250000D01*
X146500000Y-108250000D01*
X146500000Y-108230109D01*
X146484776Y-108193355D01*
X146456645Y-108165224D01*
X146419891Y-108150000D01*
X146380109Y-108150000D01*
X146343355Y-108165224D01*
X146315224Y-108193355D01*
X146300000Y-108230109D01*
X146026556Y-108230109D01*
X145722421Y-107925974D01*
X145722420Y-107925974D01*
X145678823Y-108031228D01*
X145678820Y-108031240D01*
X145650000Y-108176126D01*
X136750500Y-108176126D01*
X136750500Y-107572420D01*
X146075974Y-107572420D01*
X146075974Y-107572421D01*
X146400000Y-107896446D01*
X146400001Y-107896446D01*
X146724024Y-107572421D01*
X146724022Y-107572420D01*
X147075974Y-107572420D01*
X147075974Y-107572421D01*
X147400000Y-107896446D01*
X147400001Y-107896446D01*
X147724024Y-107572421D01*
X147724022Y-107572420D01*
X148075974Y-107572420D01*
X148075974Y-107572421D01*
X148400000Y-107896446D01*
X148400001Y-107896446D01*
X148724024Y-107572421D01*
X148618767Y-107528822D01*
X148618759Y-107528820D01*
X148473872Y-107500000D01*
X148326128Y-107500000D01*
X148181240Y-107528820D01*
X148181228Y-107528823D01*
X148075974Y-107572420D01*
X147724022Y-107572420D01*
X147618767Y-107528822D01*
X147618759Y-107528820D01*
X147473872Y-107500000D01*
X147326128Y-107500000D01*
X147181240Y-107528820D01*
X147181228Y-107528823D01*
X147075974Y-107572420D01*
X146724022Y-107572420D01*
X146618767Y-107528822D01*
X146618759Y-107528820D01*
X146473872Y-107500000D01*
X146326128Y-107500000D01*
X146181240Y-107528820D01*
X146181228Y-107528823D01*
X146075974Y-107572420D01*
X136750500Y-107572420D01*
X136750500Y-104666228D01*
X146149500Y-104666228D01*
X146149500Y-104833771D01*
X146182182Y-104998074D01*
X146182184Y-104998082D01*
X146246295Y-105152860D01*
X146339373Y-105292162D01*
X146457837Y-105410626D01*
X146550494Y-105472537D01*
X146597137Y-105503703D01*
X146597138Y-105503703D01*
X146597139Y-105503704D01*
X146607868Y-105508148D01*
X146751918Y-105567816D01*
X146916228Y-105600499D01*
X146916232Y-105600500D01*
X146916233Y-105600500D01*
X147083768Y-105600500D01*
X147083769Y-105600499D01*
X147248082Y-105567816D01*
X147402863Y-105503703D01*
X147542162Y-105410626D01*
X147560800Y-105391988D01*
X147622122Y-105358501D01*
X147691814Y-105363484D01*
X147747748Y-105405354D01*
X147751585Y-105410777D01*
X147839370Y-105542157D01*
X147839376Y-105542165D01*
X147957837Y-105660626D01*
X148050494Y-105722537D01*
X148097137Y-105753703D01*
X148251918Y-105817816D01*
X148416228Y-105850499D01*
X148416232Y-105850500D01*
X148416233Y-105850500D01*
X148583768Y-105850500D01*
X148583769Y-105850499D01*
X148748082Y-105817816D01*
X148902863Y-105753703D01*
X149042162Y-105660626D01*
X149160626Y-105542162D01*
X149253703Y-105402863D01*
X149317816Y-105248082D01*
X149350500Y-105083767D01*
X149350500Y-105083760D01*
X149351097Y-105077706D01*
X149352727Y-105077866D01*
X149359144Y-105056011D01*
X149365668Y-105026025D01*
X149369422Y-105021009D01*
X149370185Y-105018413D01*
X149386819Y-104997771D01*
X149472771Y-104911819D01*
X149534094Y-104878334D01*
X149560452Y-104875500D01*
X151621349Y-104875500D01*
X151688388Y-104895185D01*
X151702978Y-104906942D01*
X151703128Y-104906761D01*
X151707837Y-104910626D01*
X151787222Y-104963669D01*
X151847137Y-105003703D01*
X151847138Y-105003703D01*
X151847139Y-105003704D01*
X151882201Y-105018227D01*
X152001918Y-105067816D01*
X152150613Y-105097393D01*
X152166228Y-105100499D01*
X152166232Y-105100500D01*
X152166233Y-105100500D01*
X152333768Y-105100500D01*
X152333769Y-105100499D01*
X152498082Y-105067816D01*
X152652863Y-105003703D01*
X152792162Y-104910626D01*
X152910626Y-104792162D01*
X153003703Y-104652863D01*
X153067816Y-104498082D01*
X153100500Y-104333767D01*
X153100500Y-104166233D01*
X153100499Y-104166228D01*
X161399500Y-104166228D01*
X161399500Y-104333771D01*
X161432182Y-104498074D01*
X161432184Y-104498082D01*
X161496295Y-104652860D01*
X161589373Y-104792162D01*
X161707837Y-104910626D01*
X161787222Y-104963669D01*
X161847137Y-105003703D01*
X161847138Y-105003703D01*
X161847139Y-105003704D01*
X161882201Y-105018227D01*
X162001918Y-105067816D01*
X162150613Y-105097393D01*
X162166228Y-105100499D01*
X162166232Y-105100500D01*
X162166233Y-105100500D01*
X162333768Y-105100500D01*
X162333769Y-105100499D01*
X162498082Y-105067816D01*
X162652863Y-105003703D01*
X162792162Y-104910626D01*
X162796872Y-104906761D01*
X162797912Y-104908028D01*
X162852293Y-104878334D01*
X162878651Y-104875500D01*
X163871349Y-104875500D01*
X163894428Y-104882276D01*
X163918357Y-104884756D01*
X163930589Y-104892894D01*
X163938388Y-104895185D01*
X163948780Y-104902648D01*
X163954165Y-104906953D01*
X163957838Y-104910626D01*
X163963446Y-104914373D01*
X163967586Y-104917683D01*
X163984704Y-104942135D01*
X164003848Y-104965039D01*
X164004527Y-104970450D01*
X164007657Y-104974920D01*
X164008837Y-105004750D01*
X164012559Y-105034363D01*
X164010205Y-105039283D01*
X164010421Y-105044735D01*
X163995288Y-105070466D01*
X163982408Y-105097393D01*
X163977836Y-105102216D01*
X162710708Y-106369345D01*
X162649385Y-106402830D01*
X162647219Y-106403281D01*
X162501923Y-106432182D01*
X162501917Y-106432184D01*
X162347139Y-106496295D01*
X162207837Y-106589373D01*
X162089373Y-106707837D01*
X161996295Y-106847139D01*
X161932184Y-107001917D01*
X161932182Y-107001925D01*
X161899500Y-107166228D01*
X161899500Y-107333771D01*
X161932182Y-107498074D01*
X161932184Y-107498082D01*
X161996295Y-107652860D01*
X162089373Y-107792162D01*
X162207837Y-107910626D01*
X162300494Y-107972537D01*
X162347137Y-108003703D01*
X162501918Y-108067816D01*
X162666228Y-108100499D01*
X162666232Y-108100500D01*
X162666233Y-108100500D01*
X162833768Y-108100500D01*
X162833769Y-108100499D01*
X162998082Y-108067816D01*
X163152863Y-108003703D01*
X163292162Y-107910626D01*
X163292164Y-107910624D01*
X163296331Y-107907205D01*
X163360639Y-107879888D01*
X163429507Y-107891676D01*
X163453669Y-107907205D01*
X163457835Y-107910624D01*
X163457838Y-107910626D01*
X163597137Y-108003703D01*
X163751918Y-108067816D01*
X163916228Y-108100499D01*
X163916232Y-108100500D01*
X163916233Y-108100500D01*
X164083768Y-108100500D01*
X164083769Y-108100499D01*
X164248082Y-108067816D01*
X164402863Y-108003703D01*
X164542162Y-107910626D01*
X164660626Y-107792162D01*
X164753703Y-107652863D01*
X164817816Y-107498082D01*
X164846718Y-107352781D01*
X164879102Y-107290870D01*
X164880596Y-107289349D01*
X166983127Y-105186819D01*
X167044450Y-105153334D01*
X167070808Y-105150500D01*
X170885544Y-105150500D01*
X170952583Y-105170185D01*
X170973226Y-105186820D01*
X171007834Y-105221429D01*
X171007837Y-105221432D01*
X171100494Y-105283343D01*
X171147137Y-105314509D01*
X171301918Y-105378622D01*
X171423772Y-105402860D01*
X171466228Y-105411305D01*
X171466232Y-105411306D01*
X171466233Y-105411306D01*
X171633768Y-105411306D01*
X171633769Y-105411305D01*
X171798082Y-105378622D01*
X171952863Y-105314509D01*
X172092162Y-105221432D01*
X172210626Y-105102968D01*
X172303703Y-104963669D01*
X172367816Y-104808888D01*
X172400500Y-104644573D01*
X172400500Y-104477039D01*
X172367816Y-104312724D01*
X172307137Y-104166233D01*
X172303704Y-104157945D01*
X172210626Y-104018643D01*
X172092162Y-103900179D01*
X172003823Y-103841153D01*
X173744500Y-103841153D01*
X173744500Y-103998846D01*
X173775261Y-104153489D01*
X173775264Y-104153501D01*
X173835602Y-104299172D01*
X173835609Y-104299185D01*
X173923210Y-104430288D01*
X173923213Y-104430292D01*
X174034707Y-104541786D01*
X174034711Y-104541789D01*
X174165814Y-104629390D01*
X174165821Y-104629394D01*
X174292955Y-104682054D01*
X174347355Y-104725892D01*
X174369421Y-104792186D01*
X174369500Y-104796613D01*
X174369500Y-104808846D01*
X174400261Y-104963489D01*
X174400264Y-104963501D01*
X174460602Y-105109172D01*
X174460609Y-105109185D01*
X174548210Y-105240288D01*
X174548213Y-105240292D01*
X174659707Y-105351786D01*
X174659711Y-105351789D01*
X174790814Y-105439390D01*
X174790827Y-105439397D01*
X174878230Y-105475599D01*
X174936503Y-105499737D01*
X175035233Y-105519375D01*
X175097140Y-105551758D01*
X175098720Y-105553310D01*
X178264205Y-108718795D01*
X178297690Y-108780118D01*
X178298141Y-108782285D01*
X178320261Y-108893489D01*
X178320264Y-108893501D01*
X178380602Y-109039172D01*
X178380609Y-109039185D01*
X178468210Y-109170288D01*
X178468213Y-109170292D01*
X178579707Y-109281786D01*
X178579711Y-109281789D01*
X178710814Y-109369390D01*
X178710827Y-109369397D01*
X178818020Y-109413797D01*
X178856503Y-109429737D01*
X179011153Y-109460499D01*
X179011156Y-109460500D01*
X179011158Y-109460500D01*
X179168844Y-109460500D01*
X179168845Y-109460499D01*
X179323497Y-109429737D01*
X179469179Y-109369394D01*
X179600289Y-109281789D01*
X179711789Y-109170289D01*
X179799394Y-109039179D01*
X179859737Y-108893497D01*
X179890500Y-108738842D01*
X179890500Y-108581158D01*
X179890500Y-108581155D01*
X179890499Y-108581153D01*
X179878082Y-108518729D01*
X179859737Y-108426503D01*
X179822781Y-108337282D01*
X179799397Y-108280827D01*
X179799390Y-108280814D01*
X179711789Y-108149711D01*
X179711786Y-108149707D01*
X179600292Y-108038213D01*
X179600288Y-108038210D01*
X179469185Y-107950609D01*
X179469172Y-107950602D01*
X179323501Y-107890264D01*
X179323489Y-107890261D01*
X179212285Y-107868141D01*
X179150374Y-107835756D01*
X179148795Y-107834205D01*
X176071771Y-104757181D01*
X176038286Y-104695858D01*
X176043270Y-104626166D01*
X176085142Y-104570233D01*
X176150606Y-104545816D01*
X176159452Y-104545500D01*
X177669548Y-104545500D01*
X177736587Y-104565185D01*
X177757229Y-104581819D01*
X181694139Y-108518729D01*
X181694142Y-108518733D01*
X181781267Y-108605858D01*
X181858190Y-108657256D01*
X181863990Y-108661132D01*
X181863993Y-108661134D01*
X181883710Y-108674309D01*
X181883712Y-108674310D01*
X181883715Y-108674312D01*
X181950397Y-108701932D01*
X181997548Y-108721463D01*
X182010650Y-108724069D01*
X182118390Y-108745499D01*
X182118392Y-108745500D01*
X182118393Y-108745500D01*
X182118394Y-108745500D01*
X182800501Y-108745500D01*
X182867540Y-108765185D01*
X182913295Y-108817989D01*
X182924501Y-108869500D01*
X182924501Y-109017876D01*
X182930908Y-109077483D01*
X182981202Y-109212328D01*
X182981206Y-109212335D01*
X183067452Y-109327544D01*
X183067455Y-109327547D01*
X183182664Y-109413793D01*
X183182671Y-109413797D01*
X183314082Y-109462810D01*
X183370016Y-109504681D01*
X183394433Y-109570145D01*
X183379582Y-109638418D01*
X183358431Y-109666673D01*
X183244889Y-109780215D01*
X183119951Y-109952179D01*
X183023444Y-110141585D01*
X182957753Y-110343760D01*
X182924500Y-110553713D01*
X182924500Y-110766286D01*
X182956951Y-110971178D01*
X182957754Y-110976243D01*
X182992176Y-111082184D01*
X183023444Y-111178414D01*
X183119951Y-111367820D01*
X183244890Y-111539786D01*
X183395213Y-111690109D01*
X183567179Y-111815048D01*
X183567181Y-111815049D01*
X183567184Y-111815051D01*
X183756588Y-111911557D01*
X183958757Y-111977246D01*
X184168713Y-112010500D01*
X184168714Y-112010500D01*
X184381286Y-112010500D01*
X184381287Y-112010500D01*
X184591243Y-111977246D01*
X184793412Y-111911557D01*
X184982816Y-111815051D01*
X185032593Y-111778886D01*
X185154786Y-111690109D01*
X185154788Y-111690106D01*
X185154792Y-111690104D01*
X185305104Y-111539792D01*
X185305106Y-111539788D01*
X185305109Y-111539786D01*
X185430048Y-111367820D01*
X185430047Y-111367820D01*
X185430051Y-111367816D01*
X185526557Y-111178412D01*
X185592246Y-110976243D01*
X185625500Y-110766287D01*
X185625500Y-110553713D01*
X185592246Y-110343757D01*
X185526557Y-110141588D01*
X185430051Y-109952184D01*
X185430049Y-109952181D01*
X185430048Y-109952179D01*
X185305109Y-109780213D01*
X185191569Y-109666673D01*
X185158084Y-109605350D01*
X185163068Y-109535658D01*
X185204940Y-109479725D01*
X185235915Y-109462810D01*
X185367331Y-109413796D01*
X185482546Y-109327546D01*
X185568796Y-109212331D01*
X185619091Y-109077483D01*
X185625500Y-109017873D01*
X185625499Y-107222128D01*
X185620299Y-107173757D01*
X185619091Y-107162516D01*
X185568797Y-107027671D01*
X185568793Y-107027664D01*
X185482547Y-106912455D01*
X185482544Y-106912452D01*
X185367335Y-106826206D01*
X185367328Y-106826202D01*
X185232482Y-106775908D01*
X185232483Y-106775908D01*
X185172883Y-106769501D01*
X185172881Y-106769500D01*
X185172873Y-106769500D01*
X185172864Y-106769500D01*
X183377129Y-106769500D01*
X183377123Y-106769501D01*
X183317516Y-106775908D01*
X183182671Y-106826202D01*
X183182664Y-106826206D01*
X183067455Y-106912452D01*
X183067452Y-106912455D01*
X182981206Y-107027664D01*
X182981202Y-107027671D01*
X182930908Y-107162517D01*
X182930509Y-107166233D01*
X182924501Y-107222123D01*
X182924500Y-107222135D01*
X182924500Y-107370500D01*
X182904815Y-107437539D01*
X182852011Y-107483294D01*
X182800500Y-107494500D01*
X182490452Y-107494500D01*
X182423413Y-107474815D01*
X182402771Y-107458181D01*
X178473199Y-103528609D01*
X178465860Y-103521270D01*
X178465858Y-103521267D01*
X178378733Y-103434142D01*
X178325740Y-103398733D01*
X178319143Y-103394325D01*
X178319141Y-103394323D01*
X178292191Y-103376315D01*
X178276286Y-103365688D01*
X178195792Y-103332347D01*
X178162452Y-103318537D01*
X178102029Y-103306518D01*
X178097306Y-103305578D01*
X178097304Y-103305578D01*
X178041610Y-103294500D01*
X178041607Y-103294500D01*
X178041606Y-103294500D01*
X175087350Y-103294500D01*
X175020311Y-103274815D01*
X175018459Y-103273602D01*
X174924184Y-103210609D01*
X174924172Y-103210602D01*
X174778501Y-103150264D01*
X174778489Y-103150261D01*
X174623845Y-103119500D01*
X174623842Y-103119500D01*
X174466158Y-103119500D01*
X174466155Y-103119500D01*
X174311510Y-103150261D01*
X174311498Y-103150264D01*
X174165827Y-103210602D01*
X174165814Y-103210609D01*
X174034711Y-103298210D01*
X174034707Y-103298213D01*
X173923213Y-103409707D01*
X173923210Y-103409711D01*
X173835609Y-103540814D01*
X173835602Y-103540827D01*
X173775264Y-103686498D01*
X173775261Y-103686510D01*
X173744500Y-103841153D01*
X172003823Y-103841153D01*
X171952860Y-103807101D01*
X171798082Y-103742990D01*
X171798074Y-103742988D01*
X171633771Y-103710306D01*
X171633767Y-103710306D01*
X171466233Y-103710306D01*
X171461031Y-103710306D01*
X171393992Y-103690621D01*
X171348237Y-103637817D01*
X171339414Y-103610497D01*
X171322507Y-103525500D01*
X171317816Y-103501918D01*
X171261387Y-103365687D01*
X171253704Y-103347139D01*
X171243820Y-103332347D01*
X171200740Y-103267872D01*
X171160626Y-103207837D01*
X171042162Y-103089373D01*
X170902860Y-102996295D01*
X170748082Y-102932184D01*
X170748074Y-102932182D01*
X170583771Y-102899500D01*
X170583767Y-102899500D01*
X170416233Y-102899500D01*
X170416228Y-102899500D01*
X170251925Y-102932182D01*
X170251917Y-102932184D01*
X170097139Y-102996295D01*
X169973959Y-103078602D01*
X169907281Y-103099480D01*
X169905068Y-103099500D01*
X169474500Y-103099500D01*
X169407461Y-103079815D01*
X169361706Y-103027011D01*
X169350500Y-102975500D01*
X169350500Y-102916232D01*
X169350499Y-102916228D01*
X169343653Y-102881809D01*
X169317816Y-102751918D01*
X169253703Y-102597137D01*
X169186324Y-102496297D01*
X169160626Y-102457837D01*
X169042164Y-102339375D01*
X169020894Y-102325163D01*
X168902863Y-102246297D01*
X168902862Y-102246296D01*
X168902860Y-102246295D01*
X168799667Y-102203551D01*
X180349500Y-102203551D01*
X180349500Y-102396449D01*
X180355160Y-102432182D01*
X180379675Y-102586969D01*
X180379676Y-102586972D01*
X180439285Y-102770429D01*
X180526859Y-102942302D01*
X180640241Y-103098359D01*
X180776641Y-103234759D01*
X180932698Y-103348141D01*
X181104571Y-103435715D01*
X181288028Y-103495324D01*
X181478551Y-103525500D01*
X181478552Y-103525500D01*
X181671448Y-103525500D01*
X181671449Y-103525500D01*
X181861972Y-103495324D01*
X182045429Y-103435715D01*
X182217302Y-103348141D01*
X182373359Y-103234759D01*
X182509759Y-103098359D01*
X182623141Y-102942302D01*
X182628081Y-102932604D01*
X182676050Y-102881809D01*
X182743870Y-102865008D01*
X182810006Y-102887541D01*
X182853462Y-102942253D01*
X182860439Y-103011774D01*
X182856501Y-103027207D01*
X182851597Y-103042299D01*
X182851597Y-103042301D01*
X182831969Y-103166232D01*
X182824500Y-103213389D01*
X182824500Y-103386611D01*
X182828158Y-103409707D01*
X182850696Y-103552011D01*
X182851598Y-103557701D01*
X182905127Y-103722445D01*
X182983768Y-103876788D01*
X183085586Y-104016928D01*
X183208072Y-104139414D01*
X183348212Y-104241232D01*
X183502555Y-104319873D01*
X183667299Y-104373402D01*
X183838389Y-104400500D01*
X183838390Y-104400500D01*
X184711610Y-104400500D01*
X184711611Y-104400500D01*
X184882701Y-104373402D01*
X185047445Y-104319873D01*
X185201788Y-104241232D01*
X185341928Y-104139414D01*
X185464414Y-104016928D01*
X185566232Y-103876788D01*
X185644873Y-103722445D01*
X185698402Y-103557701D01*
X185725500Y-103386611D01*
X185725500Y-103213389D01*
X185698402Y-103042299D01*
X185644873Y-102877555D01*
X185566232Y-102723212D01*
X185464414Y-102583072D01*
X185341928Y-102460586D01*
X185201788Y-102358768D01*
X185047445Y-102280127D01*
X184882701Y-102226598D01*
X184882699Y-102226597D01*
X184882698Y-102226597D01*
X184737188Y-102203551D01*
X184711611Y-102199500D01*
X183838389Y-102199500D01*
X183812812Y-102203551D01*
X183667302Y-102226597D01*
X183502552Y-102280128D01*
X183348211Y-102358768D01*
X183292149Y-102399500D01*
X183208072Y-102460586D01*
X183208070Y-102460588D01*
X183208069Y-102460588D01*
X183085588Y-102583069D01*
X183085588Y-102583070D01*
X183085586Y-102583072D01*
X183075366Y-102597139D01*
X182983759Y-102723223D01*
X182982590Y-102725132D01*
X182981957Y-102725704D01*
X182980904Y-102727154D01*
X182980599Y-102726932D01*
X182930775Y-102772005D01*
X182861845Y-102783423D01*
X182797684Y-102755762D01*
X182758663Y-102697804D01*
X182757171Y-102627950D01*
X182758923Y-102622058D01*
X182770324Y-102586972D01*
X182800500Y-102396449D01*
X182800500Y-102203551D01*
X182770324Y-102013028D01*
X182710715Y-101829571D01*
X182623141Y-101657698D01*
X182509759Y-101501641D01*
X182373359Y-101365241D01*
X182217302Y-101251859D01*
X182045431Y-101164286D01*
X182045430Y-101164285D01*
X182045429Y-101164285D01*
X181861972Y-101104676D01*
X181861970Y-101104675D01*
X181861969Y-101104675D01*
X181715614Y-101081495D01*
X181671449Y-101074500D01*
X181478551Y-101074500D01*
X181442697Y-101080178D01*
X181288030Y-101104675D01*
X181104568Y-101164286D01*
X180932697Y-101251859D01*
X180871549Y-101296286D01*
X180776641Y-101365241D01*
X180776639Y-101365243D01*
X180776638Y-101365243D01*
X180640243Y-101501638D01*
X180640243Y-101501639D01*
X180640241Y-101501641D01*
X180591547Y-101568661D01*
X180526859Y-101657697D01*
X180439286Y-101829568D01*
X180379675Y-102013030D01*
X180352884Y-102182184D01*
X180349500Y-102203551D01*
X168799667Y-102203551D01*
X168748082Y-102182184D01*
X168748074Y-102182182D01*
X168583771Y-102149500D01*
X168577706Y-102148903D01*
X168577866Y-102147272D01*
X168518413Y-102129815D01*
X168497771Y-102113181D01*
X167161819Y-100777229D01*
X167128334Y-100715906D01*
X167125500Y-100689548D01*
X167125500Y-97161153D01*
X173449502Y-97161153D01*
X173449502Y-97318846D01*
X173480263Y-97473489D01*
X173480266Y-97473501D01*
X173540604Y-97619172D01*
X173540611Y-97619185D01*
X173628212Y-97750288D01*
X173628215Y-97750292D01*
X173739709Y-97861786D01*
X173739713Y-97861789D01*
X173870816Y-97949390D01*
X173870829Y-97949397D01*
X174016500Y-98009735D01*
X174016505Y-98009737D01*
X174171155Y-98040499D01*
X174171158Y-98040500D01*
X174171160Y-98040500D01*
X174328846Y-98040500D01*
X174328847Y-98040499D01*
X174483499Y-98009737D01*
X174629181Y-97949394D01*
X174760291Y-97861789D01*
X174871791Y-97750289D01*
X174959396Y-97619179D01*
X175019739Y-97473497D01*
X175050502Y-97318842D01*
X175050502Y-97255450D01*
X175059146Y-97226009D01*
X175064032Y-97203551D01*
X180349500Y-97203551D01*
X180349500Y-97396448D01*
X180379675Y-97586969D01*
X180379676Y-97586972D01*
X180439285Y-97770429D01*
X180526859Y-97942302D01*
X180640241Y-98098359D01*
X180776641Y-98234759D01*
X180932698Y-98348141D01*
X181104571Y-98435715D01*
X181288028Y-98495324D01*
X181478551Y-98525500D01*
X181478552Y-98525500D01*
X181671448Y-98525500D01*
X181671449Y-98525500D01*
X181861972Y-98495324D01*
X182045429Y-98435715D01*
X182217302Y-98348141D01*
X182373359Y-98234759D01*
X182509759Y-98098359D01*
X182623141Y-97942302D01*
X182710715Y-97770429D01*
X182770324Y-97586972D01*
X182800500Y-97396449D01*
X182800500Y-97203551D01*
X182770324Y-97013028D01*
X182758935Y-96977979D01*
X182756941Y-96908140D01*
X182793021Y-96848307D01*
X182855722Y-96817479D01*
X182925136Y-96825443D01*
X182979225Y-96869672D01*
X182982595Y-96874874D01*
X182983766Y-96876786D01*
X183014357Y-96918890D01*
X183085586Y-97016928D01*
X183208072Y-97139414D01*
X183348212Y-97241232D01*
X183502555Y-97319873D01*
X183667299Y-97373402D01*
X183838389Y-97400500D01*
X183838390Y-97400500D01*
X184711610Y-97400500D01*
X184711611Y-97400500D01*
X184882701Y-97373402D01*
X185047445Y-97319873D01*
X185201788Y-97241232D01*
X185341928Y-97139414D01*
X185464414Y-97016928D01*
X185566232Y-96876788D01*
X185644873Y-96722445D01*
X185698402Y-96557701D01*
X185725500Y-96386611D01*
X185725500Y-96213389D01*
X185698402Y-96042299D01*
X185644873Y-95877555D01*
X185566232Y-95723212D01*
X185464414Y-95583072D01*
X185341928Y-95460586D01*
X185201788Y-95358768D01*
X185047445Y-95280127D01*
X184882701Y-95226598D01*
X184882699Y-95226597D01*
X184882698Y-95226597D01*
X184751271Y-95205781D01*
X184711611Y-95199500D01*
X183838389Y-95199500D01*
X183798728Y-95205781D01*
X183667302Y-95226597D01*
X183502552Y-95280128D01*
X183348211Y-95358768D01*
X183268256Y-95416859D01*
X183208072Y-95460586D01*
X183208070Y-95460588D01*
X183208069Y-95460588D01*
X183085588Y-95583069D01*
X183085588Y-95583070D01*
X183085586Y-95583072D01*
X183041859Y-95643256D01*
X182983768Y-95723211D01*
X182905128Y-95877552D01*
X182851597Y-96042302D01*
X182824500Y-96213389D01*
X182824500Y-96386610D01*
X182851597Y-96557698D01*
X182851598Y-96557703D01*
X182856500Y-96572790D01*
X182858493Y-96642631D01*
X182822410Y-96702463D01*
X182759708Y-96733289D01*
X182690294Y-96725322D01*
X182636207Y-96681091D01*
X182628081Y-96667394D01*
X182623141Y-96657698D01*
X182594451Y-96618210D01*
X182509759Y-96501641D01*
X182373359Y-96365241D01*
X182217302Y-96251859D01*
X182045429Y-96164285D01*
X181861972Y-96104676D01*
X181861970Y-96104675D01*
X181861969Y-96104675D01*
X181715614Y-96081495D01*
X181671449Y-96074500D01*
X181478551Y-96074500D01*
X181442697Y-96080178D01*
X181288030Y-96104675D01*
X181104568Y-96164286D01*
X180932697Y-96251859D01*
X180843661Y-96316547D01*
X180776641Y-96365241D01*
X180776639Y-96365243D01*
X180776638Y-96365243D01*
X180640243Y-96501638D01*
X180640243Y-96501639D01*
X180640241Y-96501641D01*
X180619198Y-96530604D01*
X180526859Y-96657697D01*
X180439286Y-96829568D01*
X180379675Y-97013030D01*
X180349500Y-97203551D01*
X175064032Y-97203551D01*
X175065670Y-97196023D01*
X175069424Y-97191007D01*
X175070187Y-97188411D01*
X175086821Y-97167769D01*
X176942771Y-95311819D01*
X177004094Y-95278334D01*
X177030452Y-95275500D01*
X178527650Y-95275500D01*
X178594689Y-95295185D01*
X178596541Y-95296398D01*
X178690821Y-95359394D01*
X178690823Y-95359395D01*
X178690827Y-95359397D01*
X178836498Y-95419735D01*
X178836503Y-95419737D01*
X178991153Y-95450499D01*
X178991156Y-95450500D01*
X178991158Y-95450500D01*
X179148844Y-95450500D01*
X179148845Y-95450499D01*
X179303497Y-95419737D01*
X179449179Y-95359394D01*
X179580289Y-95271789D01*
X179691789Y-95160289D01*
X179779394Y-95029179D01*
X179839737Y-94883497D01*
X179870500Y-94728842D01*
X179870500Y-94571158D01*
X179870500Y-94571155D01*
X179870499Y-94571153D01*
X179839738Y-94416510D01*
X179839737Y-94416503D01*
X179839735Y-94416498D01*
X179779397Y-94270827D01*
X179779390Y-94270814D01*
X179691789Y-94139711D01*
X179691786Y-94139707D01*
X179580292Y-94028213D01*
X179580288Y-94028210D01*
X179449185Y-93940609D01*
X179449172Y-93940602D01*
X179303501Y-93880264D01*
X179303489Y-93880261D01*
X179148845Y-93849500D01*
X179148842Y-93849500D01*
X178991158Y-93849500D01*
X178991155Y-93849500D01*
X178836510Y-93880261D01*
X178836498Y-93880264D01*
X178690827Y-93940602D01*
X178690815Y-93940609D01*
X178596541Y-94003602D01*
X178529864Y-94024480D01*
X178527650Y-94024500D01*
X176658389Y-94024500D01*
X176597971Y-94036518D01*
X176560259Y-94044019D01*
X176537550Y-94048536D01*
X176537548Y-94048537D01*
X176504207Y-94062347D01*
X176423719Y-94095684D01*
X176423705Y-94095692D01*
X176321272Y-94164138D01*
X176321264Y-94164144D01*
X176234139Y-94251270D01*
X174031627Y-96453781D01*
X173991399Y-96480661D01*
X173870826Y-96530604D01*
X173870816Y-96530609D01*
X173739713Y-96618210D01*
X173739709Y-96618213D01*
X173628215Y-96729707D01*
X173628212Y-96729711D01*
X173540611Y-96860814D01*
X173540604Y-96860827D01*
X173480266Y-97006498D01*
X173480263Y-97006510D01*
X173449502Y-97161153D01*
X167125500Y-97161153D01*
X167125500Y-92628650D01*
X167145185Y-92561611D01*
X167156943Y-92547021D01*
X167156761Y-92546872D01*
X167160626Y-92542162D01*
X167253703Y-92402863D01*
X167317816Y-92248082D01*
X167350500Y-92083767D01*
X167350500Y-91916233D01*
X167317816Y-91751918D01*
X167253703Y-91597137D01*
X167195813Y-91510499D01*
X167160626Y-91457837D01*
X167042162Y-91339373D01*
X166902860Y-91246295D01*
X166748082Y-91182184D01*
X166748074Y-91182182D01*
X166583771Y-91149500D01*
X166583767Y-91149500D01*
X166416233Y-91149500D01*
X166416228Y-91149500D01*
X166251925Y-91182182D01*
X166251917Y-91182184D01*
X166097139Y-91246295D01*
X165957837Y-91339373D01*
X165839373Y-91457837D01*
X165746295Y-91597139D01*
X165682184Y-91751917D01*
X165682182Y-91751925D01*
X165649500Y-91916228D01*
X165649500Y-92083771D01*
X165682182Y-92248074D01*
X165682184Y-92248082D01*
X165746295Y-92402860D01*
X165839373Y-92542162D01*
X165843239Y-92546872D01*
X165841968Y-92547914D01*
X165871662Y-92602272D01*
X165874500Y-92628650D01*
X165874500Y-101061606D01*
X165894923Y-101164285D01*
X165898537Y-101182451D01*
X165898538Y-101182455D01*
X165945685Y-101296280D01*
X165945687Y-101296283D01*
X165945688Y-101296286D01*
X165979915Y-101347509D01*
X166014142Y-101398733D01*
X166101267Y-101485858D01*
X166101270Y-101485860D01*
X166108554Y-101493144D01*
X167503229Y-102887819D01*
X167536714Y-102949142D01*
X167531730Y-103018834D01*
X167489858Y-103074767D01*
X167424394Y-103099184D01*
X167415548Y-103099500D01*
X166185929Y-103099500D01*
X166060261Y-103124497D01*
X166060255Y-103124499D01*
X165941870Y-103173535D01*
X165835331Y-103244722D01*
X165835324Y-103244728D01*
X165812181Y-103267872D01*
X165750858Y-103301357D01*
X165681166Y-103296373D01*
X165625233Y-103254501D01*
X165600816Y-103189037D01*
X165600500Y-103180191D01*
X165600500Y-103166232D01*
X165600499Y-103166228D01*
X165587163Y-103099184D01*
X165567816Y-103001918D01*
X165516301Y-102877552D01*
X165503704Y-102847139D01*
X165410626Y-102707837D01*
X165292162Y-102589373D01*
X165152860Y-102496295D01*
X164998082Y-102432184D01*
X164998074Y-102432182D01*
X164833771Y-102399500D01*
X164833767Y-102399500D01*
X164666233Y-102399500D01*
X164666228Y-102399500D01*
X164501925Y-102432182D01*
X164501917Y-102432184D01*
X164347139Y-102496295D01*
X164207837Y-102589373D01*
X164203128Y-102593239D01*
X164202087Y-102591971D01*
X164147707Y-102621666D01*
X164121349Y-102624500D01*
X163128651Y-102624500D01*
X163061612Y-102604815D01*
X163047021Y-102593057D01*
X163046872Y-102593239D01*
X163042162Y-102589373D01*
X162902860Y-102496295D01*
X162748082Y-102432184D01*
X162748074Y-102432182D01*
X162583771Y-102399500D01*
X162583767Y-102399500D01*
X162416233Y-102399500D01*
X162416228Y-102399500D01*
X162251925Y-102432182D01*
X162251917Y-102432184D01*
X162097139Y-102496295D01*
X161957837Y-102589373D01*
X161839373Y-102707837D01*
X161746295Y-102847139D01*
X161682184Y-103001917D01*
X161682182Y-103001925D01*
X161649500Y-103166228D01*
X161649500Y-103333771D01*
X161682182Y-103498074D01*
X161682185Y-103498085D01*
X161684731Y-103504232D01*
X161692197Y-103573701D01*
X161660920Y-103636179D01*
X161657850Y-103639361D01*
X161589373Y-103707838D01*
X161496295Y-103847139D01*
X161432184Y-104001917D01*
X161432182Y-104001925D01*
X161399500Y-104166228D01*
X153100499Y-104166228D01*
X153067816Y-104001918D01*
X153003703Y-103847137D01*
X152939132Y-103750500D01*
X152910626Y-103707837D01*
X152792162Y-103589373D01*
X152652860Y-103496295D01*
X152498082Y-103432184D01*
X152498074Y-103432182D01*
X152333771Y-103399500D01*
X152333767Y-103399500D01*
X152166233Y-103399500D01*
X152166228Y-103399500D01*
X152001925Y-103432182D01*
X152001917Y-103432184D01*
X151847139Y-103496295D01*
X151707837Y-103589373D01*
X151703128Y-103593239D01*
X151702087Y-103591971D01*
X151647707Y-103621666D01*
X151621349Y-103624500D01*
X149309453Y-103624500D01*
X149242414Y-103604815D01*
X149196659Y-103552011D01*
X149186715Y-103482853D01*
X149215740Y-103419297D01*
X149221772Y-103412819D01*
X149472772Y-103161819D01*
X149534095Y-103128334D01*
X149560453Y-103125500D01*
X149871349Y-103125500D01*
X149938388Y-103145185D01*
X149952978Y-103156942D01*
X149953128Y-103156761D01*
X149957837Y-103160626D01*
X150036803Y-103213389D01*
X150097137Y-103253703D01*
X150097138Y-103253703D01*
X150097139Y-103253704D01*
X150131344Y-103267872D01*
X150251918Y-103317816D01*
X150416228Y-103350499D01*
X150416232Y-103350500D01*
X150416233Y-103350500D01*
X150583768Y-103350500D01*
X150583769Y-103350499D01*
X150748082Y-103317816D01*
X150902863Y-103253703D01*
X151042162Y-103160626D01*
X151160626Y-103042162D01*
X151253703Y-102902863D01*
X151317816Y-102748082D01*
X151350500Y-102583767D01*
X151350500Y-102416233D01*
X151317816Y-102251918D01*
X151253703Y-102097137D01*
X151198249Y-102014144D01*
X151160626Y-101957837D01*
X151042162Y-101839373D01*
X150902860Y-101746295D01*
X150748082Y-101682184D01*
X150748074Y-101682182D01*
X150583771Y-101649500D01*
X150583767Y-101649500D01*
X150416233Y-101649500D01*
X150416228Y-101649500D01*
X150251925Y-101682182D01*
X150251917Y-101682184D01*
X150097139Y-101746295D01*
X149957837Y-101839373D01*
X149953128Y-101843239D01*
X149952087Y-101841971D01*
X149897707Y-101871666D01*
X149871349Y-101874500D01*
X149317741Y-101874500D01*
X149317721Y-101874499D01*
X149311607Y-101874499D01*
X149188394Y-101874499D01*
X149087597Y-101894548D01*
X149087592Y-101894548D01*
X149067549Y-101898536D01*
X149067547Y-101898536D01*
X149020397Y-101918067D01*
X148953719Y-101945685D01*
X148953717Y-101945686D01*
X148851266Y-102014141D01*
X148851263Y-102014144D01*
X147002229Y-103863181D01*
X146940906Y-103896666D01*
X146922271Y-103898669D01*
X146922294Y-103898903D01*
X146916228Y-103899500D01*
X146751925Y-103932182D01*
X146751917Y-103932184D01*
X146597139Y-103996295D01*
X146457837Y-104089373D01*
X146339373Y-104207837D01*
X146246295Y-104347139D01*
X146182184Y-104501917D01*
X146182182Y-104501925D01*
X146149500Y-104666228D01*
X136750500Y-104666228D01*
X136750500Y-93824500D01*
X136770185Y-93757461D01*
X136822989Y-93711706D01*
X136874500Y-93700500D01*
X138318097Y-93700500D01*
X138551368Y-93663553D01*
X138775992Y-93590568D01*
X138986433Y-93483343D01*
X139177510Y-93344517D01*
X139344517Y-93177510D01*
X139483343Y-92986433D01*
X139590568Y-92775992D01*
X139663553Y-92551368D01*
X139664100Y-92547914D01*
X139700500Y-92318097D01*
X139700500Y-92081902D01*
X139663553Y-91848631D01*
X139629689Y-91744412D01*
X139590568Y-91624008D01*
X139590566Y-91624005D01*
X139590566Y-91624003D01*
X139505900Y-91457838D01*
X139483343Y-91413567D01*
X139344517Y-91222490D01*
X139177510Y-91055483D01*
X138986433Y-90916657D01*
X138954307Y-90900288D01*
X138775996Y-90809433D01*
X138551368Y-90736446D01*
X138318097Y-90699500D01*
X138318092Y-90699500D01*
X136874500Y-90699500D01*
X136807461Y-90679815D01*
X136761706Y-90627011D01*
X136750500Y-90575500D01*
X136750500Y-89468543D01*
X141449499Y-89468543D01*
X141487947Y-89661829D01*
X141487950Y-89661839D01*
X141563364Y-89843907D01*
X141563371Y-89843920D01*
X141672860Y-90007781D01*
X141672863Y-90007785D01*
X141812214Y-90147136D01*
X141812218Y-90147139D01*
X141976079Y-90256628D01*
X141976092Y-90256635D01*
X142107712Y-90311153D01*
X142158165Y-90332051D01*
X142158169Y-90332051D01*
X142158170Y-90332052D01*
X142351456Y-90370500D01*
X142351459Y-90370500D01*
X142548543Y-90370500D01*
X142678582Y-90344632D01*
X142741835Y-90332051D01*
X142923914Y-90256632D01*
X143087782Y-90147139D01*
X143227139Y-90007782D01*
X143336632Y-89843914D01*
X143412051Y-89661835D01*
X143444783Y-89497282D01*
X143450500Y-89468543D01*
X143450500Y-87465782D01*
X143470185Y-87398743D01*
X143486819Y-87378101D01*
X143727136Y-87137784D01*
X143727139Y-87137781D01*
X143836631Y-86973914D01*
X143912051Y-86791836D01*
X143950500Y-86598540D01*
X143950500Y-86401460D01*
X143950500Y-86401457D01*
X143950499Y-86401455D01*
X143920142Y-86248842D01*
X143912051Y-86208164D01*
X143863583Y-86091153D01*
X165749500Y-86091153D01*
X165749500Y-86248846D01*
X165780261Y-86403489D01*
X165780264Y-86403501D01*
X165840602Y-86549172D01*
X165840609Y-86549185D01*
X165928210Y-86680288D01*
X165928213Y-86680292D01*
X166039707Y-86791786D01*
X166039711Y-86791789D01*
X166170814Y-86879390D01*
X166170827Y-86879397D01*
X166224091Y-86901459D01*
X166316503Y-86939737D01*
X166371097Y-86950596D01*
X166433007Y-86982980D01*
X166434586Y-86984532D01*
X169942984Y-90492930D01*
X169976469Y-90554253D01*
X169976920Y-90556420D01*
X169990261Y-90623489D01*
X169990264Y-90623501D01*
X170050602Y-90769172D01*
X170050609Y-90769185D01*
X170138210Y-90900288D01*
X170138213Y-90900292D01*
X170249707Y-91011786D01*
X170249711Y-91011789D01*
X170380814Y-91099390D01*
X170380827Y-91099397D01*
X170526498Y-91159735D01*
X170526503Y-91159737D01*
X170639341Y-91182182D01*
X170681153Y-91190499D01*
X170681156Y-91190500D01*
X170681158Y-91190500D01*
X170838844Y-91190500D01*
X170838845Y-91190499D01*
X170993497Y-91159737D01*
X171139179Y-91099394D01*
X171270289Y-91011789D01*
X171381789Y-90900289D01*
X171469394Y-90769179D01*
X171529737Y-90623497D01*
X171560500Y-90468842D01*
X171560500Y-90311158D01*
X171560500Y-90311155D01*
X171560499Y-90311153D01*
X171529737Y-90156503D01*
X171525857Y-90147136D01*
X171469397Y-90010827D01*
X171469390Y-90010814D01*
X171381789Y-89879711D01*
X171381786Y-89879707D01*
X171270292Y-89768213D01*
X171270288Y-89768210D01*
X171139185Y-89680609D01*
X171139172Y-89680602D01*
X170993501Y-89620264D01*
X170993489Y-89620261D01*
X170926420Y-89606920D01*
X170864509Y-89574535D01*
X170862930Y-89572984D01*
X170552081Y-89262135D01*
X182924500Y-89262135D01*
X182924500Y-91057870D01*
X182924501Y-91057876D01*
X182930908Y-91117483D01*
X182981202Y-91252328D01*
X182981206Y-91252335D01*
X183067452Y-91367544D01*
X183067455Y-91367547D01*
X183182664Y-91453793D01*
X183182671Y-91453797D01*
X183314082Y-91502810D01*
X183370016Y-91544681D01*
X183394433Y-91610145D01*
X183379582Y-91678418D01*
X183358431Y-91706673D01*
X183244889Y-91820215D01*
X183119951Y-91992179D01*
X183023444Y-92181585D01*
X182957753Y-92383760D01*
X182924500Y-92593713D01*
X182924500Y-92806286D01*
X182953032Y-92986433D01*
X182957754Y-93016243D01*
X183010153Y-93177511D01*
X183023444Y-93218414D01*
X183119951Y-93407820D01*
X183244890Y-93579786D01*
X183395213Y-93730109D01*
X183567179Y-93855048D01*
X183567181Y-93855049D01*
X183567184Y-93855051D01*
X183756588Y-93951557D01*
X183958757Y-94017246D01*
X184168713Y-94050500D01*
X184168714Y-94050500D01*
X184381286Y-94050500D01*
X184381287Y-94050500D01*
X184591243Y-94017246D01*
X184793412Y-93951557D01*
X184982816Y-93855051D01*
X185024866Y-93824500D01*
X185154786Y-93730109D01*
X185154788Y-93730106D01*
X185154792Y-93730104D01*
X185305104Y-93579792D01*
X185305106Y-93579788D01*
X185305109Y-93579786D01*
X185430048Y-93407820D01*
X185430047Y-93407820D01*
X185430051Y-93407816D01*
X185526557Y-93218412D01*
X185592246Y-93016243D01*
X185625500Y-92806287D01*
X185625500Y-92593713D01*
X185592246Y-92383757D01*
X185526557Y-92181588D01*
X185430051Y-91992184D01*
X185430049Y-91992181D01*
X185430048Y-91992179D01*
X185305109Y-91820213D01*
X185191569Y-91706673D01*
X185158084Y-91645350D01*
X185163068Y-91575658D01*
X185204940Y-91519725D01*
X185235915Y-91502810D01*
X185367331Y-91453796D01*
X185482546Y-91367546D01*
X185568796Y-91252331D01*
X185619091Y-91117483D01*
X185625500Y-91057873D01*
X185625499Y-89262128D01*
X185619091Y-89202517D01*
X185568796Y-89067669D01*
X185568795Y-89067668D01*
X185568793Y-89067664D01*
X185482547Y-88952455D01*
X185482544Y-88952452D01*
X185367335Y-88866206D01*
X185367328Y-88866202D01*
X185232482Y-88815908D01*
X185232483Y-88815908D01*
X185172883Y-88809501D01*
X185172881Y-88809500D01*
X185172873Y-88809500D01*
X185172864Y-88809500D01*
X183377129Y-88809500D01*
X183377123Y-88809501D01*
X183317516Y-88815908D01*
X183182671Y-88866202D01*
X183182664Y-88866206D01*
X183067455Y-88952452D01*
X183067452Y-88952455D01*
X182981206Y-89067664D01*
X182981202Y-89067671D01*
X182930908Y-89202517D01*
X182924501Y-89262116D01*
X182924501Y-89262123D01*
X182924500Y-89262135D01*
X170552081Y-89262135D01*
X167369497Y-86079551D01*
X167336012Y-86018228D01*
X167335588Y-86016196D01*
X167319737Y-85936503D01*
X167288966Y-85862215D01*
X167259397Y-85790827D01*
X167259390Y-85790814D01*
X167171789Y-85659711D01*
X167171786Y-85659707D01*
X167060292Y-85548213D01*
X167060288Y-85548210D01*
X166929185Y-85460609D01*
X166929172Y-85460602D01*
X166783501Y-85400264D01*
X166783489Y-85400261D01*
X166628845Y-85369500D01*
X166628842Y-85369500D01*
X166471158Y-85369500D01*
X166471155Y-85369500D01*
X166316510Y-85400261D01*
X166316498Y-85400264D01*
X166170827Y-85460602D01*
X166170814Y-85460609D01*
X166039711Y-85548210D01*
X166039707Y-85548213D01*
X165928213Y-85659707D01*
X165928210Y-85659711D01*
X165840609Y-85790814D01*
X165840602Y-85790827D01*
X165780264Y-85936498D01*
X165780261Y-85936510D01*
X165749500Y-86091153D01*
X143863583Y-86091153D01*
X143836631Y-86026086D01*
X143836630Y-86026085D01*
X143836627Y-86026079D01*
X143727139Y-85862219D01*
X143727136Y-85862215D01*
X143587784Y-85722863D01*
X143587780Y-85722860D01*
X143423920Y-85613372D01*
X143423910Y-85613367D01*
X143241836Y-85537949D01*
X143241828Y-85537947D01*
X143048543Y-85499500D01*
X143048540Y-85499500D01*
X142851460Y-85499500D01*
X142851457Y-85499500D01*
X142658171Y-85537947D01*
X142658163Y-85537949D01*
X142476089Y-85613367D01*
X142476079Y-85613372D01*
X142312219Y-85722860D01*
X142312215Y-85722863D01*
X142045579Y-85989500D01*
X141812221Y-86222858D01*
X141812218Y-86222861D01*
X141742538Y-86292540D01*
X141672859Y-86362219D01*
X141563371Y-86526080D01*
X141563364Y-86526093D01*
X141533357Y-86598539D01*
X141533357Y-86598540D01*
X141499496Y-86680288D01*
X141487949Y-86708164D01*
X141480009Y-86748082D01*
X141449500Y-86901459D01*
X141449500Y-89468541D01*
X141449500Y-89468543D01*
X141449499Y-89468543D01*
X136750500Y-89468543D01*
X136750500Y-84091153D01*
X167839500Y-84091153D01*
X167839500Y-84248846D01*
X167870261Y-84403489D01*
X167870264Y-84403501D01*
X167930602Y-84549172D01*
X167930609Y-84549185D01*
X168018210Y-84680288D01*
X168018213Y-84680292D01*
X168129707Y-84791786D01*
X168129711Y-84791789D01*
X168260814Y-84879390D01*
X168260827Y-84879397D01*
X168335916Y-84910499D01*
X168406503Y-84939737D01*
X168511030Y-84960528D01*
X168572937Y-84992911D01*
X168574517Y-84994463D01*
X171902984Y-88322930D01*
X171936469Y-88384253D01*
X171936920Y-88386420D01*
X171950261Y-88453489D01*
X171950264Y-88453501D01*
X172010602Y-88599172D01*
X172010609Y-88599185D01*
X172098210Y-88730288D01*
X172098213Y-88730292D01*
X172209707Y-88841786D01*
X172209711Y-88841789D01*
X172340814Y-88929390D01*
X172340827Y-88929397D01*
X172486498Y-88989735D01*
X172486503Y-88989737D01*
X172641153Y-89020499D01*
X172641156Y-89020500D01*
X172641158Y-89020500D01*
X172798844Y-89020500D01*
X172798845Y-89020499D01*
X172953497Y-88989737D01*
X173099179Y-88929394D01*
X173230289Y-88841789D01*
X173341789Y-88730289D01*
X173429394Y-88599179D01*
X173489737Y-88453497D01*
X173520500Y-88298842D01*
X173520500Y-88141158D01*
X173520500Y-88141155D01*
X173520499Y-88141153D01*
X173489738Y-87986510D01*
X173489737Y-87986503D01*
X173436877Y-87858886D01*
X173429397Y-87840827D01*
X173429390Y-87840814D01*
X173341789Y-87709711D01*
X173341786Y-87709707D01*
X173230292Y-87598213D01*
X173230288Y-87598210D01*
X173099185Y-87510609D01*
X173099172Y-87510602D01*
X172953501Y-87450264D01*
X172953489Y-87450261D01*
X172886420Y-87436920D01*
X172824509Y-87404535D01*
X172822930Y-87402984D01*
X169449566Y-84029620D01*
X169416081Y-83968297D01*
X169415645Y-83966210D01*
X169409737Y-83936503D01*
X169381286Y-83867816D01*
X169349397Y-83790827D01*
X169349390Y-83790814D01*
X169261789Y-83659711D01*
X169261786Y-83659707D01*
X169150292Y-83548213D01*
X169150288Y-83548210D01*
X169019185Y-83460609D01*
X169019172Y-83460602D01*
X168873501Y-83400264D01*
X168873489Y-83400261D01*
X168718845Y-83369500D01*
X168718842Y-83369500D01*
X168561158Y-83369500D01*
X168561155Y-83369500D01*
X168406510Y-83400261D01*
X168406498Y-83400264D01*
X168260827Y-83460602D01*
X168260814Y-83460609D01*
X168129711Y-83548210D01*
X168129707Y-83548213D01*
X168018213Y-83659707D01*
X168018210Y-83659711D01*
X167930609Y-83790814D01*
X167930602Y-83790827D01*
X167870264Y-83936498D01*
X167870261Y-83936510D01*
X167839500Y-84091153D01*
X136750500Y-84091153D01*
X136750500Y-82297577D01*
X146075975Y-82297577D01*
X146181236Y-82341178D01*
X146181240Y-82341179D01*
X146326126Y-82369999D01*
X146326129Y-82370000D01*
X146473871Y-82370000D01*
X146473873Y-82369999D01*
X146618760Y-82341179D01*
X146618775Y-82341175D01*
X146724024Y-82297578D01*
X146724024Y-82297577D01*
X147075975Y-82297577D01*
X147181236Y-82341178D01*
X147181240Y-82341179D01*
X147326126Y-82369999D01*
X147326129Y-82370000D01*
X147473871Y-82370000D01*
X147473873Y-82369999D01*
X147618760Y-82341179D01*
X147618775Y-82341175D01*
X147724024Y-82297578D01*
X147724024Y-82297577D01*
X148075975Y-82297577D01*
X148181236Y-82341178D01*
X148181240Y-82341179D01*
X148326126Y-82369999D01*
X148326129Y-82370000D01*
X148473871Y-82370000D01*
X148473873Y-82369999D01*
X148618760Y-82341179D01*
X148618775Y-82341175D01*
X148724024Y-82297578D01*
X148724024Y-82297577D01*
X148400001Y-81973554D01*
X148400000Y-81973554D01*
X148075975Y-82297577D01*
X147724024Y-82297577D01*
X147400001Y-81973554D01*
X147400000Y-81973554D01*
X147075975Y-82297577D01*
X146724024Y-82297577D01*
X146400001Y-81973554D01*
X146400000Y-81973554D01*
X146075975Y-82297577D01*
X136750500Y-82297577D01*
X136750500Y-81546126D01*
X145650000Y-81546126D01*
X145650000Y-81693873D01*
X145678820Y-81838759D01*
X145678822Y-81838767D01*
X145722421Y-81944024D01*
X146046446Y-81620000D01*
X146046446Y-81619999D01*
X146026556Y-81600109D01*
X146300000Y-81600109D01*
X146300000Y-81639891D01*
X146315224Y-81676645D01*
X146343355Y-81704776D01*
X146380109Y-81720000D01*
X146419891Y-81720000D01*
X146456645Y-81704776D01*
X146484776Y-81676645D01*
X146500000Y-81639891D01*
X146500000Y-81620000D01*
X146753554Y-81620000D01*
X146900000Y-81766446D01*
X147046446Y-81620000D01*
X147026555Y-81600109D01*
X147300000Y-81600109D01*
X147300000Y-81639891D01*
X147315224Y-81676645D01*
X147343355Y-81704776D01*
X147380109Y-81720000D01*
X147419891Y-81720000D01*
X147456645Y-81704776D01*
X147484776Y-81676645D01*
X147500000Y-81639891D01*
X147500000Y-81620000D01*
X147753554Y-81620000D01*
X147900000Y-81766446D01*
X148046446Y-81620000D01*
X148026555Y-81600109D01*
X148300000Y-81600109D01*
X148300000Y-81639891D01*
X148315224Y-81676645D01*
X148343355Y-81704776D01*
X148380109Y-81720000D01*
X148419891Y-81720000D01*
X148456645Y-81704776D01*
X148484776Y-81676645D01*
X148500000Y-81639891D01*
X148500000Y-81619999D01*
X148753554Y-81619999D01*
X148753554Y-81620001D01*
X149077577Y-81944024D01*
X149077578Y-81944024D01*
X149121175Y-81838775D01*
X149121179Y-81838760D01*
X149149999Y-81693873D01*
X149150000Y-81693871D01*
X149150000Y-81546128D01*
X149149999Y-81546126D01*
X149121179Y-81401240D01*
X149121178Y-81401236D01*
X149077577Y-81295975D01*
X148753554Y-81619999D01*
X148500000Y-81619999D01*
X148500000Y-81600109D01*
X148484776Y-81563355D01*
X148456645Y-81535224D01*
X148419891Y-81520000D01*
X148380109Y-81520000D01*
X148343355Y-81535224D01*
X148315224Y-81563355D01*
X148300000Y-81600109D01*
X148026555Y-81600109D01*
X147900000Y-81473554D01*
X147753554Y-81620000D01*
X147500000Y-81620000D01*
X147500000Y-81600109D01*
X147484776Y-81563355D01*
X147456645Y-81535224D01*
X147419891Y-81520000D01*
X147380109Y-81520000D01*
X147343355Y-81535224D01*
X147315224Y-81563355D01*
X147300000Y-81600109D01*
X147026555Y-81600109D01*
X146900000Y-81473554D01*
X146753554Y-81620000D01*
X146500000Y-81620000D01*
X146500000Y-81600109D01*
X146484776Y-81563355D01*
X146456645Y-81535224D01*
X146419891Y-81520000D01*
X146380109Y-81520000D01*
X146343355Y-81535224D01*
X146315224Y-81563355D01*
X146300000Y-81600109D01*
X146026556Y-81600109D01*
X145722421Y-81295974D01*
X145722420Y-81295974D01*
X145678823Y-81401228D01*
X145678820Y-81401240D01*
X145650000Y-81546126D01*
X136750500Y-81546126D01*
X136750500Y-81120000D01*
X146253554Y-81120000D01*
X146400000Y-81266446D01*
X146546446Y-81120000D01*
X147253554Y-81120000D01*
X147400000Y-81266446D01*
X147546446Y-81120000D01*
X148253554Y-81120000D01*
X148400000Y-81266446D01*
X148546446Y-81120000D01*
X148400000Y-80973554D01*
X148253554Y-81120000D01*
X147546446Y-81120000D01*
X147400000Y-80973554D01*
X147253554Y-81120000D01*
X146546446Y-81120000D01*
X146400000Y-80973554D01*
X146253554Y-81120000D01*
X136750500Y-81120000D01*
X136750500Y-80546126D01*
X145650000Y-80546126D01*
X145650000Y-80693873D01*
X145678820Y-80838759D01*
X145678822Y-80838767D01*
X145722421Y-80944024D01*
X146046446Y-80620000D01*
X146046446Y-80619999D01*
X146026556Y-80600109D01*
X146300000Y-80600109D01*
X146300000Y-80639891D01*
X146315224Y-80676645D01*
X146343355Y-80704776D01*
X146380109Y-80720000D01*
X146419891Y-80720000D01*
X146456645Y-80704776D01*
X146484776Y-80676645D01*
X146500000Y-80639891D01*
X146500000Y-80620000D01*
X146753554Y-80620000D01*
X146900000Y-80766446D01*
X147046446Y-80620000D01*
X147026555Y-80600109D01*
X147300000Y-80600109D01*
X147300000Y-80639891D01*
X147315224Y-80676645D01*
X147343355Y-80704776D01*
X147380109Y-80720000D01*
X147419891Y-80720000D01*
X147456645Y-80704776D01*
X147484776Y-80676645D01*
X147500000Y-80639891D01*
X147500000Y-80620000D01*
X147753554Y-80620000D01*
X147900000Y-80766446D01*
X148046446Y-80620000D01*
X148026555Y-80600109D01*
X148300000Y-80600109D01*
X148300000Y-80639891D01*
X148315224Y-80676645D01*
X148343355Y-80704776D01*
X148380109Y-80720000D01*
X148419891Y-80720000D01*
X148456645Y-80704776D01*
X148484776Y-80676645D01*
X148500000Y-80639891D01*
X148500000Y-80619999D01*
X148753554Y-80619999D01*
X148753554Y-80620001D01*
X149077577Y-80944024D01*
X149077578Y-80944024D01*
X149121175Y-80838775D01*
X149121179Y-80838760D01*
X149149999Y-80693873D01*
X149150000Y-80693871D01*
X149150000Y-80546128D01*
X149149999Y-80546126D01*
X149121179Y-80401240D01*
X149121178Y-80401236D01*
X149077577Y-80295975D01*
X148753554Y-80619999D01*
X148500000Y-80619999D01*
X148500000Y-80600109D01*
X148484776Y-80563355D01*
X148456645Y-80535224D01*
X148419891Y-80520000D01*
X148380109Y-80520000D01*
X148343355Y-80535224D01*
X148315224Y-80563355D01*
X148300000Y-80600109D01*
X148026555Y-80600109D01*
X147900000Y-80473554D01*
X147753554Y-80620000D01*
X147500000Y-80620000D01*
X147500000Y-80600109D01*
X147484776Y-80563355D01*
X147456645Y-80535224D01*
X147419891Y-80520000D01*
X147380109Y-80520000D01*
X147343355Y-80535224D01*
X147315224Y-80563355D01*
X147300000Y-80600109D01*
X147026555Y-80600109D01*
X146900000Y-80473554D01*
X146753554Y-80620000D01*
X146500000Y-80620000D01*
X146500000Y-80600109D01*
X146484776Y-80563355D01*
X146456645Y-80535224D01*
X146419891Y-80520000D01*
X146380109Y-80520000D01*
X146343355Y-80535224D01*
X146315224Y-80563355D01*
X146300000Y-80600109D01*
X146026556Y-80600109D01*
X145722421Y-80295974D01*
X145722420Y-80295974D01*
X145678823Y-80401228D01*
X145678820Y-80401240D01*
X145650000Y-80546126D01*
X136750500Y-80546126D01*
X136750500Y-80120000D01*
X146253554Y-80120000D01*
X146400000Y-80266446D01*
X146546446Y-80120000D01*
X147253554Y-80120000D01*
X147400000Y-80266446D01*
X147546446Y-80120000D01*
X148253554Y-80120000D01*
X148400000Y-80266446D01*
X148546446Y-80120000D01*
X148400000Y-79973554D01*
X148253554Y-80120000D01*
X147546446Y-80120000D01*
X147400000Y-79973554D01*
X147253554Y-80120000D01*
X146546446Y-80120000D01*
X146400000Y-79973554D01*
X146253554Y-80120000D01*
X136750500Y-80120000D01*
X136750500Y-79546126D01*
X145650000Y-79546126D01*
X145650000Y-79693873D01*
X145678820Y-79838759D01*
X145678822Y-79838767D01*
X145722421Y-79944024D01*
X146046446Y-79620000D01*
X146046446Y-79619999D01*
X146026556Y-79600109D01*
X146300000Y-79600109D01*
X146300000Y-79639891D01*
X146315224Y-79676645D01*
X146343355Y-79704776D01*
X146380109Y-79720000D01*
X146419891Y-79720000D01*
X146456645Y-79704776D01*
X146484776Y-79676645D01*
X146500000Y-79639891D01*
X146500000Y-79620000D01*
X146753554Y-79620000D01*
X146900000Y-79766446D01*
X147046446Y-79620000D01*
X147026555Y-79600109D01*
X147300000Y-79600109D01*
X147300000Y-79639891D01*
X147315224Y-79676645D01*
X147343355Y-79704776D01*
X147380109Y-79720000D01*
X147419891Y-79720000D01*
X147456645Y-79704776D01*
X147484776Y-79676645D01*
X147500000Y-79639891D01*
X147500000Y-79620000D01*
X147753554Y-79620000D01*
X147900000Y-79766446D01*
X148046446Y-79620000D01*
X148026555Y-79600109D01*
X148300000Y-79600109D01*
X148300000Y-79639891D01*
X148315224Y-79676645D01*
X148343355Y-79704776D01*
X148380109Y-79720000D01*
X148419891Y-79720000D01*
X148456645Y-79704776D01*
X148484776Y-79676645D01*
X148500000Y-79639891D01*
X148500000Y-79619999D01*
X148753554Y-79619999D01*
X148753554Y-79620001D01*
X149077577Y-79944024D01*
X149077578Y-79944024D01*
X149121175Y-79838775D01*
X149121179Y-79838760D01*
X149149999Y-79693873D01*
X149150000Y-79693871D01*
X149150000Y-79546128D01*
X149149999Y-79546126D01*
X149121179Y-79401240D01*
X149121178Y-79401236D01*
X149077577Y-79295975D01*
X148753554Y-79619999D01*
X148500000Y-79619999D01*
X148500000Y-79600109D01*
X148484776Y-79563355D01*
X148456645Y-79535224D01*
X148419891Y-79520000D01*
X148380109Y-79520000D01*
X148343355Y-79535224D01*
X148315224Y-79563355D01*
X148300000Y-79600109D01*
X148026555Y-79600109D01*
X147900000Y-79473554D01*
X147753554Y-79620000D01*
X147500000Y-79620000D01*
X147500000Y-79600109D01*
X147484776Y-79563355D01*
X147456645Y-79535224D01*
X147419891Y-79520000D01*
X147380109Y-79520000D01*
X147343355Y-79535224D01*
X147315224Y-79563355D01*
X147300000Y-79600109D01*
X147026555Y-79600109D01*
X146900000Y-79473554D01*
X146753554Y-79620000D01*
X146500000Y-79620000D01*
X146500000Y-79600109D01*
X146484776Y-79563355D01*
X146456645Y-79535224D01*
X146419891Y-79520000D01*
X146380109Y-79520000D01*
X146343355Y-79535224D01*
X146315224Y-79563355D01*
X146300000Y-79600109D01*
X146026556Y-79600109D01*
X145722421Y-79295974D01*
X145722420Y-79295974D01*
X145678823Y-79401228D01*
X145678820Y-79401240D01*
X145650000Y-79546126D01*
X136750500Y-79546126D01*
X136750500Y-78942420D01*
X146075974Y-78942420D01*
X146075974Y-78942421D01*
X146400000Y-79266446D01*
X146400001Y-79266446D01*
X146724024Y-78942421D01*
X146724022Y-78942420D01*
X147075974Y-78942420D01*
X147075974Y-78942421D01*
X147400000Y-79266446D01*
X147400001Y-79266446D01*
X147724024Y-78942421D01*
X147724022Y-78942420D01*
X148075974Y-78942420D01*
X148075974Y-78942421D01*
X148400000Y-79266446D01*
X148400001Y-79266446D01*
X148724024Y-78942421D01*
X148618767Y-78898822D01*
X148618759Y-78898820D01*
X148473872Y-78870000D01*
X148326128Y-78870000D01*
X148181240Y-78898820D01*
X148181228Y-78898823D01*
X148075974Y-78942420D01*
X147724022Y-78942420D01*
X147618767Y-78898822D01*
X147618759Y-78898820D01*
X147473872Y-78870000D01*
X147326128Y-78870000D01*
X147181240Y-78898820D01*
X147181228Y-78898823D01*
X147075974Y-78942420D01*
X146724022Y-78942420D01*
X146618767Y-78898822D01*
X146618759Y-78898820D01*
X146473872Y-78870000D01*
X146326128Y-78870000D01*
X146181240Y-78898820D01*
X146181228Y-78898823D01*
X146075974Y-78942420D01*
X136750500Y-78942420D01*
X136750500Y-76761153D01*
X146499500Y-76761153D01*
X146499500Y-76918846D01*
X146530261Y-77073489D01*
X146530264Y-77073501D01*
X146590602Y-77219172D01*
X146590609Y-77219185D01*
X146678210Y-77350288D01*
X146678213Y-77350292D01*
X146789707Y-77461786D01*
X146789711Y-77461789D01*
X146920814Y-77549390D01*
X146920827Y-77549397D01*
X147066498Y-77609735D01*
X147066503Y-77609737D01*
X147221153Y-77640499D01*
X147221156Y-77640500D01*
X147221158Y-77640500D01*
X147378844Y-77640500D01*
X147378845Y-77640499D01*
X147533497Y-77609737D01*
X147679179Y-77549394D01*
X147810289Y-77461789D01*
X147921789Y-77350289D01*
X147930112Y-77337831D01*
X147983719Y-77293025D01*
X148053043Y-77284312D01*
X148102106Y-77303614D01*
X148147137Y-77333703D01*
X148301918Y-77397816D01*
X148466228Y-77430499D01*
X148466232Y-77430500D01*
X148466233Y-77430500D01*
X148633768Y-77430500D01*
X148633769Y-77430499D01*
X148798082Y-77397816D01*
X148952863Y-77333703D01*
X149092162Y-77240626D01*
X149096872Y-77236761D01*
X149097912Y-77238028D01*
X149152293Y-77208334D01*
X149178651Y-77205500D01*
X156495040Y-77205500D01*
X156542492Y-77214939D01*
X156604507Y-77240626D01*
X156626503Y-77249737D01*
X156781153Y-77280499D01*
X156781156Y-77280500D01*
X156781158Y-77280500D01*
X156938844Y-77280500D01*
X156938845Y-77280499D01*
X157093497Y-77249737D01*
X157239179Y-77189394D01*
X157250043Y-77182135D01*
X182924500Y-77182135D01*
X182924500Y-78977870D01*
X182924501Y-78977876D01*
X182930908Y-79037483D01*
X182981202Y-79172328D01*
X182981206Y-79172335D01*
X183067452Y-79287544D01*
X183067455Y-79287547D01*
X183182664Y-79373793D01*
X183182671Y-79373797D01*
X183314082Y-79422810D01*
X183370016Y-79464681D01*
X183394433Y-79530145D01*
X183379582Y-79598418D01*
X183358431Y-79626673D01*
X183244889Y-79740215D01*
X183119951Y-79912179D01*
X183023444Y-80101585D01*
X182957753Y-80303760D01*
X182942314Y-80401240D01*
X182924500Y-80513713D01*
X182924500Y-80726287D01*
X182957754Y-80936243D01*
X183014847Y-81111957D01*
X183023444Y-81138414D01*
X183119951Y-81327820D01*
X183244890Y-81499786D01*
X183395213Y-81650109D01*
X183567182Y-81775050D01*
X183575946Y-81779516D01*
X183626742Y-81827491D01*
X183643536Y-81895312D01*
X183620998Y-81961447D01*
X183575946Y-82000484D01*
X183567182Y-82004949D01*
X183395213Y-82129890D01*
X183244890Y-82280213D01*
X183119951Y-82452179D01*
X183023444Y-82641585D01*
X182957753Y-82843760D01*
X182924500Y-83053713D01*
X182924500Y-83266286D01*
X182955277Y-83460609D01*
X182957754Y-83476243D01*
X183017365Y-83659707D01*
X183023444Y-83678414D01*
X183119951Y-83867820D01*
X183244890Y-84039786D01*
X183395213Y-84190109D01*
X183567182Y-84315050D01*
X183575946Y-84319516D01*
X183626742Y-84367491D01*
X183643536Y-84435312D01*
X183620998Y-84501447D01*
X183575946Y-84540484D01*
X183567182Y-84544949D01*
X183395213Y-84669890D01*
X183244890Y-84820213D01*
X183119951Y-84992179D01*
X183023444Y-85181585D01*
X182957753Y-85383760D01*
X182924500Y-85593713D01*
X182924500Y-85806286D01*
X182957724Y-86016059D01*
X182957754Y-86016243D01*
X183020115Y-86208171D01*
X183023444Y-86218414D01*
X183119951Y-86407820D01*
X183244890Y-86579786D01*
X183395213Y-86730109D01*
X183567179Y-86855048D01*
X183567181Y-86855049D01*
X183567184Y-86855051D01*
X183756588Y-86951557D01*
X183958757Y-87017246D01*
X184168713Y-87050500D01*
X184168714Y-87050500D01*
X184381286Y-87050500D01*
X184381287Y-87050500D01*
X184591243Y-87017246D01*
X184793412Y-86951557D01*
X184982816Y-86855051D01*
X185069836Y-86791828D01*
X185154786Y-86730109D01*
X185154788Y-86730106D01*
X185154792Y-86730104D01*
X185305104Y-86579792D01*
X185305106Y-86579788D01*
X185305109Y-86579786D01*
X185430048Y-86407820D01*
X185430047Y-86407820D01*
X185430051Y-86407816D01*
X185526557Y-86218412D01*
X185592246Y-86016243D01*
X185625500Y-85806287D01*
X185625500Y-85593713D01*
X185592246Y-85383757D01*
X185526557Y-85181588D01*
X185430051Y-84992184D01*
X185430049Y-84992181D01*
X185430048Y-84992179D01*
X185305109Y-84820213D01*
X185154786Y-84669890D01*
X184982820Y-84544951D01*
X184982115Y-84544591D01*
X184974054Y-84540485D01*
X184923259Y-84492512D01*
X184906463Y-84424692D01*
X184928999Y-84358556D01*
X184974054Y-84319515D01*
X184982816Y-84315051D01*
X185073946Y-84248842D01*
X185154786Y-84190109D01*
X185154788Y-84190106D01*
X185154792Y-84190104D01*
X185305104Y-84039792D01*
X185305106Y-84039788D01*
X185305109Y-84039786D01*
X185430048Y-83867820D01*
X185430047Y-83867820D01*
X185430051Y-83867816D01*
X185526557Y-83678412D01*
X185592246Y-83476243D01*
X185625500Y-83266287D01*
X185625500Y-83053713D01*
X185592246Y-82843757D01*
X185526557Y-82641588D01*
X185430051Y-82452184D01*
X185430049Y-82452181D01*
X185430048Y-82452179D01*
X185305109Y-82280213D01*
X185154786Y-82129890D01*
X184982820Y-82004951D01*
X184982115Y-82004591D01*
X184974054Y-82000485D01*
X184923259Y-81952512D01*
X184906463Y-81884692D01*
X184928999Y-81818556D01*
X184974054Y-81779515D01*
X184982816Y-81775051D01*
X185094549Y-81693873D01*
X185154786Y-81650109D01*
X185154788Y-81650106D01*
X185154792Y-81650104D01*
X185305104Y-81499792D01*
X185305106Y-81499788D01*
X185305109Y-81499786D01*
X185430048Y-81327820D01*
X185430047Y-81327820D01*
X185430051Y-81327816D01*
X185526557Y-81138412D01*
X185592246Y-80936243D01*
X185625500Y-80726287D01*
X185625500Y-80513713D01*
X185592246Y-80303757D01*
X185526557Y-80101588D01*
X185430051Y-79912184D01*
X185430049Y-79912181D01*
X185430048Y-79912179D01*
X185305109Y-79740213D01*
X185191569Y-79626673D01*
X185158084Y-79565350D01*
X185163068Y-79495658D01*
X185204940Y-79439725D01*
X185235915Y-79422810D01*
X185367331Y-79373796D01*
X185482546Y-79287546D01*
X185568796Y-79172331D01*
X185619091Y-79037483D01*
X185625500Y-78977873D01*
X185625499Y-77182128D01*
X185619091Y-77122517D01*
X185600809Y-77073501D01*
X185568797Y-76987671D01*
X185568793Y-76987664D01*
X185482547Y-76872455D01*
X185482544Y-76872452D01*
X185367335Y-76786206D01*
X185367328Y-76786202D01*
X185232482Y-76735908D01*
X185232483Y-76735908D01*
X185172883Y-76729501D01*
X185172881Y-76729500D01*
X185172873Y-76729500D01*
X185172864Y-76729500D01*
X183377129Y-76729500D01*
X183377123Y-76729501D01*
X183317516Y-76735908D01*
X183182671Y-76786202D01*
X183182664Y-76786206D01*
X183067455Y-76872452D01*
X183067452Y-76872455D01*
X182981206Y-76987664D01*
X182981202Y-76987671D01*
X182930908Y-77122517D01*
X182924501Y-77182116D01*
X182924501Y-77182123D01*
X182924500Y-77182135D01*
X157250043Y-77182135D01*
X157370289Y-77101789D01*
X157370292Y-77101786D01*
X157380954Y-77091125D01*
X157481786Y-76990292D01*
X157481789Y-76990289D01*
X157569394Y-76859179D01*
X157629737Y-76713497D01*
X157660500Y-76558842D01*
X157660500Y-76401158D01*
X157660500Y-76401155D01*
X157660499Y-76401153D01*
X157629738Y-76246510D01*
X157629737Y-76246503D01*
X157569394Y-76100821D01*
X157566355Y-76096273D01*
X157545476Y-76029598D01*
X157563958Y-75962218D01*
X157566321Y-75958540D01*
X157639394Y-75849179D01*
X157699737Y-75703497D01*
X157730500Y-75548842D01*
X157730500Y-75391158D01*
X157730500Y-75391155D01*
X157730499Y-75391153D01*
X157699738Y-75236510D01*
X157699737Y-75236503D01*
X157699735Y-75236498D01*
X157639397Y-75090827D01*
X157639390Y-75090814D01*
X157551789Y-74959711D01*
X157551786Y-74959707D01*
X157440292Y-74848213D01*
X157440288Y-74848210D01*
X157309185Y-74760609D01*
X157309172Y-74760602D01*
X157163501Y-74700264D01*
X157163489Y-74700261D01*
X157008845Y-74669500D01*
X157008842Y-74669500D01*
X156851158Y-74669500D01*
X156851155Y-74669500D01*
X156696510Y-74700261D01*
X156696498Y-74700264D01*
X156550827Y-74760602D01*
X156550820Y-74760606D01*
X156521928Y-74779911D01*
X156493955Y-74798602D01*
X156427279Y-74819480D01*
X156425065Y-74819500D01*
X148495929Y-74819500D01*
X148370261Y-74844497D01*
X148370255Y-74844499D01*
X148251874Y-74893534D01*
X148145326Y-74964726D01*
X147038344Y-76071708D01*
X146998117Y-76098587D01*
X146920827Y-76130602D01*
X146920818Y-76130607D01*
X146789715Y-76218207D01*
X146789707Y-76218213D01*
X146678213Y-76329707D01*
X146678210Y-76329711D01*
X146590609Y-76460814D01*
X146590602Y-76460827D01*
X146530264Y-76606498D01*
X146530261Y-76606510D01*
X146499500Y-76761153D01*
X136750500Y-76761153D01*
X136750500Y-75445146D01*
X136764016Y-75388850D01*
X136770568Y-75375992D01*
X136843553Y-75151368D01*
X136853144Y-75090814D01*
X136880500Y-74918097D01*
X136880500Y-74681902D01*
X136843553Y-74448634D01*
X136843553Y-74448631D01*
X136770568Y-74224008D01*
X136663343Y-74013566D01*
X136524518Y-73822490D01*
X136357510Y-73655482D01*
X136166434Y-73516657D01*
X135955992Y-73409432D01*
X135731369Y-73336447D01*
X135731367Y-73336446D01*
X135731365Y-73336446D01*
X135498097Y-73299500D01*
X135498092Y-73299500D01*
X135261908Y-73299500D01*
X135261903Y-73299500D01*
X135028631Y-73336446D01*
X134804003Y-73409433D01*
X134593563Y-73516659D01*
X134402496Y-73655476D01*
X134402491Y-73655480D01*
X134105485Y-73952486D01*
X134105484Y-73952488D01*
X133966657Y-74143565D01*
X133925911Y-74223535D01*
X133859433Y-74354003D01*
X133786446Y-74578631D01*
X133749500Y-74811902D01*
X114500500Y-74811902D01*
X114500500Y-72134685D01*
X114520185Y-72067646D01*
X114572989Y-72021891D01*
X114631453Y-72010880D01*
X114635347Y-72011098D01*
X115563708Y-71082736D01*
X115660967Y-71216602D01*
X115783398Y-71339033D01*
X115917262Y-71436290D01*
X114988899Y-72364652D01*
X114988900Y-72364653D01*
X115108993Y-72460427D01*
X115108997Y-72460429D01*
X115337247Y-72603847D01*
X115580104Y-72720801D01*
X115580118Y-72720807D01*
X115834536Y-72809832D01*
X115834548Y-72809836D01*
X116097348Y-72869818D01*
X116097366Y-72869821D01*
X116365212Y-72899999D01*
X116365216Y-72900000D01*
X116634784Y-72900000D01*
X116634787Y-72899999D01*
X116902633Y-72869821D01*
X116902651Y-72869818D01*
X117165451Y-72809836D01*
X117165463Y-72809832D01*
X117419881Y-72720807D01*
X117419895Y-72720801D01*
X117662752Y-72603847D01*
X117890999Y-72460431D01*
X118011098Y-72364653D01*
X118011099Y-72364652D01*
X117082737Y-71436290D01*
X117216602Y-71339033D01*
X117339033Y-71216602D01*
X117436290Y-71082737D01*
X118364652Y-72011099D01*
X118364653Y-72011098D01*
X118460431Y-71890999D01*
X118603847Y-71662752D01*
X118720801Y-71419895D01*
X118720807Y-71419881D01*
X118797000Y-71202135D01*
X121999500Y-71202135D01*
X121999500Y-74297870D01*
X121999501Y-74297876D01*
X122005908Y-74357483D01*
X122056202Y-74492328D01*
X122056206Y-74492335D01*
X122142452Y-74607544D01*
X122142455Y-74607547D01*
X122257664Y-74693793D01*
X122257671Y-74693797D01*
X122392517Y-74744091D01*
X122392516Y-74744091D01*
X122399444Y-74744835D01*
X122452127Y-74750500D01*
X125547872Y-74750499D01*
X125607483Y-74744091D01*
X125742331Y-74693796D01*
X125857546Y-74607546D01*
X125943796Y-74492331D01*
X125994091Y-74357483D01*
X126000500Y-74297873D01*
X126000499Y-71202128D01*
X125994091Y-71142517D01*
X125943796Y-71007669D01*
X125943795Y-71007668D01*
X125943793Y-71007664D01*
X125857547Y-70892455D01*
X125857544Y-70892452D01*
X125742335Y-70806206D01*
X125742328Y-70806202D01*
X125607482Y-70755908D01*
X125607483Y-70755908D01*
X125547883Y-70749501D01*
X125547881Y-70749500D01*
X125547873Y-70749500D01*
X125547864Y-70749500D01*
X122452129Y-70749500D01*
X122452123Y-70749501D01*
X122392516Y-70755908D01*
X122257671Y-70806202D01*
X122257664Y-70806206D01*
X122142455Y-70892452D01*
X122142452Y-70892455D01*
X122056206Y-71007664D01*
X122056202Y-71007671D01*
X122005908Y-71142517D01*
X122003441Y-71165470D01*
X121999501Y-71202123D01*
X121999500Y-71202135D01*
X118797000Y-71202135D01*
X118809830Y-71165470D01*
X118809837Y-71165444D01*
X118869818Y-70902651D01*
X118869821Y-70902633D01*
X118899999Y-70634787D01*
X118900000Y-70634783D01*
X118900000Y-70365216D01*
X118899999Y-70365212D01*
X118869821Y-70097366D01*
X118869818Y-70097348D01*
X118809836Y-69834548D01*
X118809832Y-69834536D01*
X118720807Y-69580118D01*
X118720801Y-69580104D01*
X118603847Y-69337247D01*
X118460429Y-69108997D01*
X118460427Y-69108993D01*
X118364653Y-68988900D01*
X118364652Y-68988899D01*
X117436290Y-69917262D01*
X117339033Y-69783398D01*
X117216602Y-69660967D01*
X117082736Y-69563708D01*
X118011098Y-68635347D01*
X118010880Y-68631453D01*
X118026775Y-68563415D01*
X118076930Y-68514772D01*
X118134685Y-68500500D01*
X183865314Y-68500500D01*
X183932353Y-68520185D01*
G37*
%TD.AperFunction*%
%TD*%
M02*
