M48
; DRILL file {KiCad 9.0.0} date 2025-05-08T18:28:10-0700
; FORMAT={-:-/ absolute / metric / decimal}
; #@! TF.CreationDate,2025-05-08T18:28:10-07:00
; #@! TF.GenerationSoftware,Kicad,Pcbnew,9.0.0
; #@! TF.FileFunction,MixedPlating,1,2
FMAT,2
METRIC
; #@! TA.AperFunction,Plated,PTH,ComponentDrill
T1C0.200
; #@! TA.AperFunction,Plated,PTH,ViaDrill
T2C0.300
; #@! TA.AperFunction,Plated,PTH,ComponentDrill
T3C0.600
; #@! TA.AperFunction,Plated,PTH,ComponentDrill
T4C0.850
; #@! TA.AperFunction,Plated,PTH,ComponentDrill
T5C1.000
; #@! TA.AperFunction,Plated,PTH,ComponentDrill
T6C1.520
; #@! TA.AperFunction,Plated,PTH,ComponentDrill
T7C2.200
%
G90
G05
T1
X146.4Y-79.62
X146.4Y-80.62
X146.4Y-81.62
X146.4Y-108.25
X146.4Y-109.25
X146.4Y-110.25
X146.5Y-137.5
X146.5Y-138.5
X146.5Y-139.5
X147.4Y-79.62
X147.4Y-80.62
X147.4Y-81.62
X147.4Y-108.25
X147.4Y-109.25
X147.4Y-110.25
X147.5Y-137.5
X147.5Y-138.5
X147.5Y-139.5
X148.4Y-79.62
X148.4Y-80.62
X148.4Y-81.62
X148.4Y-108.25
X148.4Y-109.25
X148.4Y-110.25
X148.5Y-137.5
X148.5Y-138.5
X148.5Y-139.5
T2
X128.0Y-74.8
X128.016Y-76.2
X128.016Y-85.344
X128.016Y-88.392
X128.016Y-89.408
X128.27Y-133.35
X128.27Y-138.43
X128.27Y-143.51
X128.27Y-147.32
X128.524Y-103.632
X128.524Y-105.156
X128.524Y-113.792
X128.524Y-117.856
X128.524Y-123.444
X132.35Y-147.8
X132.775Y-118.0
X133.625Y-90.925
X136.975Y-76.675
X136.975Y-82.65
X137.0Y-124.0
X137.025Y-78.6
X137.025Y-85.4
X138.17Y-92.16
X138.2Y-90.932
X140.208Y-75.184
X140.7Y-119.38
X140.716Y-133.0
X140.97Y-120.015
X140.97Y-156.199
X141.0Y-155.545
X141.224Y-75.184
X141.55Y-133.0
X141.732Y-103.632
X142.19Y-104.19
X142.45Y-89.37
X142.95Y-86.5
X143.0Y-118.0
X143.3Y-84.4
X143.4Y-147.795
X143.75Y-113.5
X143.887Y-141.887
X145.1Y-101.4
X145.3Y-131.0
X145.7Y-76.0
X146.6Y-84.2
X146.693Y-112.633
X146.8Y-142.1
X146.9Y-76.2
X147.0Y-104.75
X147.0Y-133.75
X147.5Y-127.75
X147.7Y-76.8
X148.5Y-77.31
X148.5Y-105.0
X148.5Y-134.0
X148.6Y-70.3
X150.2Y-93.95
X150.5Y-102.5
X151.04Y-74.21
X151.17Y-105.4
X151.25Y-134.25
X152.0Y-130.5
X152.0Y-132.75
X152.0Y-143.75
X152.25Y-104.25
X153.19Y-84.07
X153.4Y-101.1
X153.53Y-113.15
X153.7Y-119.7
X153.7Y-130.1
X155.5Y-111.9
X155.53Y-108.0
X155.7Y-105.1
X156.0Y-137.0
X156.24Y-78.52
X156.6Y-85.4
X156.86Y-76.48
X156.93Y-75.47
X157.0Y-115.7
X158.25Y-116.75
X159.512Y-101.092
X160.02Y-130.556
X160.5Y-134.5
X160.75Y-115.0
X161.5Y-107.25
X161.5Y-123.25
X162.25Y-104.25
X162.26Y-137.39
X162.5Y-103.25
X162.5Y-105.75
X163.5Y-109.75
X163.5Y-112.75
X163.5Y-132.15
X163.565Y-107.685
X164.5Y-104.25
X164.75Y-103.25
X164.75Y-132.22
X165.0Y-71.75
X165.0Y-97.75
X165.0Y-99.75
X165.0Y-101.75
X165.2Y-88.3
X165.608Y-129.54
X166.55Y-86.17
X167.75Y-77.25
X168.5Y-96.25
X168.64Y-84.17
X169.4Y-92.4
X170.05Y-104.7
X170.5Y-96.25
X170.76Y-90.39
X171.196Y-107.188
X171.68Y-117.67
X171.75Y-99.75
X171.75Y-101.75
X171.996Y-107.188
X172.0Y-70.925
X172.212Y-108.204
X172.25Y-103.0
X172.72Y-88.22
X173.5Y-92.5
X174.25Y-97.24
X174.5Y-72.0
X174.545Y-103.92
X174.75Y-105.75
X175.17Y-104.73
X175.25Y-97.5
X177.175Y-77.3
X179.07Y-94.65
X179.09Y-108.66
X179.57Y-102.8
X180.42Y-98.5
X182.01Y-106.3
X182.75Y-72.0
T4
X181.575Y-97.3
X181.575Y-102.3
T5
X184.275Y-78.08
X184.275Y-80.62
X184.275Y-83.16
X184.275Y-85.7
X184.275Y-90.16
X184.275Y-92.7
X184.275Y-108.12
X184.275Y-110.66
X184.275Y-115.12
X184.275Y-117.66
X184.4Y-139.4
X184.4Y-141.94
X184.4Y-145.625
X184.4Y-148.165
X184.45Y-123.8
X184.45Y-126.34
T6
X124.0Y-72.75
X124.0Y-77.83
X124.0Y-82.91
X124.0Y-87.99
X124.0Y-101.75
X124.0Y-106.83
X124.0Y-111.91
X124.0Y-116.99
X124.0Y-130.76
X124.0Y-135.84
X124.0Y-140.92
X124.0Y-146.0
X154.06Y-150.8
X159.14Y-150.8
X164.62Y-150.8
X169.7Y-150.8
T7
X116.42Y-154.5
X116.5Y-70.5
X185.5Y-70.5
X185.5Y-154.5
T3
G00X183.925Y-96.3
M15
G01X184.625Y-96.3
M16
G05
G00X184.625Y-103.3
M15
G01X183.925Y-103.3
M16
G05
M30
