%TF.GenerationSoftware,KiCad,Pcbnew,9.0.0*%
%TF.CreationDate,2025-05-08T18:28:11-07:00*%
%TF.ProjectId,Motor_Controller_Board_v1,4d6f746f-725f-4436-9f6e-74726f6c6c65,v1*%
%TF.SameCoordinates,Original*%
%TF.FileFunction,Soldermask,Bot*%
%TF.FilePolarity,Negative*%
%FSLAX46Y46*%
G04 Gerber Fmt 4.6, Leading zero omitted, Abs format (unit mm)*
G04 Created by KiCad (PCBNEW 9.0.0) date 2025-05-08 18:28:11*
%MOMM*%
%LPD*%
G01*
G04 APERTURE LIST*
%ADD10R,3.000000X3.000000*%
%ADD11C,3.000000*%
%ADD12R,1.700000X1.700000*%
%ADD13O,1.700000X1.700000*%
%ADD14C,3.800000*%
%ADD15O,1.900000X1.200000*%
%ADD16C,1.450000*%
G04 APERTURE END LIST*
D10*
%TO.C,J401*%
X124000000Y-72750000D03*
D11*
X124000000Y-77830000D03*
X124000000Y-82910000D03*
X124000000Y-87990000D03*
%TD*%
D12*
%TO.C,J301*%
X184275000Y-78080000D03*
D13*
X184275000Y-80620000D03*
X184275000Y-83160000D03*
X184275000Y-85700000D03*
%TD*%
D14*
%TO.C,H201*%
X116500000Y-70500000D03*
%TD*%
%TO.C,H204*%
X116420000Y-154500000D03*
%TD*%
%TO.C,H203*%
X185500000Y-154500000D03*
%TD*%
D10*
%TO.C,J403*%
X124000000Y-101750000D03*
D11*
X124000000Y-106830000D03*
X124000000Y-111910000D03*
X124000000Y-116990000D03*
%TD*%
D12*
%TO.C,J304*%
X184275000Y-108120000D03*
D13*
X184275000Y-110660000D03*
%TD*%
D12*
%TO.C,J206*%
X184400000Y-139400000D03*
D13*
X184400000Y-141940000D03*
%TD*%
D12*
%TO.C,J305*%
X184275000Y-115120000D03*
D13*
X184275000Y-117660000D03*
%TD*%
D12*
%TO.C,J303*%
X184275000Y-90160000D03*
D13*
X184275000Y-92700000D03*
%TD*%
D12*
%TO.C,J207*%
X184400000Y-145625000D03*
D13*
X184400000Y-148165000D03*
%TD*%
D10*
%TO.C,J203*%
X159140000Y-150800000D03*
D11*
X154060000Y-150800000D03*
%TD*%
D15*
%TO.C,J302*%
X184275000Y-103300000D03*
D16*
X181575000Y-102300000D03*
X181575000Y-97300000D03*
D15*
X184275000Y-96300000D03*
%TD*%
D10*
%TO.C,J402*%
X124000000Y-130760000D03*
D11*
X124000000Y-135840000D03*
X124000000Y-140920000D03*
X124000000Y-146000000D03*
%TD*%
D14*
%TO.C,H202*%
X185500000Y-70500000D03*
%TD*%
D10*
%TO.C,J201*%
X169700000Y-150800000D03*
D11*
X164620000Y-150800000D03*
%TD*%
D12*
%TO.C,J202*%
X184450000Y-123800000D03*
D13*
X184450000Y-126340000D03*
%TD*%
M02*
