M48
; DRILL file {KiCad 9.0.0} date 2025-05-09T16:43:07-0700
; FORMAT={-:-/ absolute / metric / decimal}
; #@! TF.CreationDate,2025-05-09T16:43:07-07:00
; #@! TF.GenerationSoftware,Kicad,Pcbnew,9.0.0
; #@! TF.FileFunction,MixedPlating,1,2
FMAT,2
METRIC
; #@! TA.AperFunction,Plated,PTH,ComponentDrill
T1C0.200
; #@! TA.AperFunction,Plated,PTH,ViaDrill
T2C0.300
; #@! TA.AperFunction,Plated,PTH,ViaDrill
T3C0.508
; #@! TA.AperFunction,Plated,PTH,ComponentDrill
T4C0.600
; #@! TA.AperFunction,Plated,PTH,ComponentDrill
T5C0.850
; #@! TA.AperFunction,Plated,PTH,ComponentDrill
T6C1.000
; #@! TA.AperFunction,Plated,PTH,ComponentDrill
T7C1.016
; #@! TA.AperFunction,Plated,PTH,ComponentDrill
T8C1.190
; #@! TA.AperFunction,Plated,PTH,ComponentDrill
T9C1.300
; #@! TA.AperFunction,Plated,PTH,ComponentDrill
T10C1.520
; #@! TA.AperFunction,Plated,PTH,ComponentDrill
T11C1.600
; #@! TA.AperFunction,Plated,PTH,ComponentDrill
T12C2.200
%
G90
G05
T1
X67.64Y-107.34
X67.64Y-108.34
X67.64Y-109.34
X68.64Y-107.34
X68.64Y-108.34
X68.64Y-109.34
X69.64Y-107.34
X69.64Y-108.34
X69.64Y-109.34
X96.89Y-107.24
X96.89Y-108.24
X96.89Y-109.24
X97.89Y-107.24
X97.89Y-108.24
X97.89Y-109.24
X98.89Y-107.24
X98.89Y-108.24
X98.89Y-109.24
X125.52Y-107.24
X125.52Y-108.24
X125.52Y-109.24
X126.52Y-107.24
X126.52Y-108.24
X126.52Y-109.24
X127.52Y-107.24
X127.52Y-108.24
X127.52Y-109.24
T2
X50.941Y-101.81
X51.595Y-101.84
X52.37Y-85.81
X54.37Y-85.81
X56.27Y-85.81
X58.865Y-103.79
X58.94Y-106.94
X58.94Y-108.14
X59.34Y-93.19
X59.82Y-89.11
X59.89Y-103.765
X59.94Y-106.94
X59.94Y-108.065
X61.34Y-105.64
X62.24Y-135.14
X63.17Y-97.91
X63.39Y-112.84
X63.74Y-89.11
X63.74Y-92.94
X63.97Y-104.01
X64.47Y-97.91
X65.04Y-107.64
X65.34Y-134.94
X68.64Y-96.94
X68.71Y-89.11
X68.74Y-93.14
X69.75Y-123.1
X70.14Y-116.84
X72.64Y-121.34
X72.67Y-97.81
X73.04Y-112.15
X73.14Y-109.34
X73.39Y-107.84
X73.74Y-93.24
X73.79Y-89.11
X74.14Y-101.556
X74.14Y-102.39
X74.52Y-112.86
X74.57Y-97.81
X74.92Y-125.59
X74.99Y-124.34
X76.14Y-106.14
X76.64Y-112.84
X77.04Y-114.54
X79.39Y-108.34
X80.84Y-117.14
X80.94Y-110.64
X81.07Y-86.31
X83.07Y-86.31
X83.14Y-97.84
X83.89Y-122.34
X84.64Y-110.64
X84.97Y-86.31
X86.72Y-101.06
X87.44Y-114.54
X87.72Y-102.01
X89.14Y-93.615
X89.14Y-103.84
X89.284Y-89.364
X89.47Y-133.91
X89.47Y-136.31
X90.39Y-119.09
X91.44Y-117.84
X91.795Y-121.735
X93.47Y-97.91
X93.67Y-89.41
X93.67Y-94.11
X93.72Y-103.96
X93.99Y-114.37
X94.04Y-138.74
X94.14Y-141.74
X94.39Y-124.34
X94.507Y-107.533
X94.97Y-97.91
X95.24Y-116.34
X97.47Y-124.31
X97.87Y-89.61
X97.87Y-93.21
X97.87Y-96.11
X98.48Y-139.93
X98.936Y-133.052
X99.14Y-116.37
X99.455Y-124.405
X99.89Y-122.34
X100.09Y-131.39
X100.14Y-132.54
X100.84Y-142.85
X101.07Y-97.81
X101.39Y-123.34
X101.39Y-135.59
X101.74Y-112.01
X101.984Y-89.364
X102.04Y-116.54
X102.116Y-114.31
X102.14Y-109.34
X102.39Y-107.84
X102.44Y-130.89
X102.57Y-92.21
X102.57Y-95.01
X102.89Y-113.09
X102.89Y-123.09
X102.89Y-125.34
X102.95Y-103.03
X103.17Y-97.81
X103.22Y-138.82
X103.508Y-89.364
X103.508Y-102.572
X103.89Y-123.34
X103.89Y-125.59
X104.14Y-133.09
X104.34Y-140.41
X104.64Y-111.34
X105.07Y-135.71
X105.315Y-121.71
X105.39Y-125.84
X105.39Y-132.59
X105.74Y-105.94
X105.97Y-114.31
X107.39Y-125.84
X107.39Y-132.59
X108.64Y-141.26
X109.09Y-94.14
X109.39Y-125.84
X109.64Y-136.09
X109.9Y-135.09
X110.47Y-86.71
X110.89Y-129.34
X110.89Y-131.34
X111.94Y-93.99
X112.17Y-86.71
X112.49Y-139.91
X113.19Y-111.04
X113.67Y-99.41
X113.97Y-86.71
X114.48Y-94.465
X114.5Y-134.24
X114.62Y-100.21
X114.74Y-130.24
X116.24Y-112.14
X116.635Y-103.29
X116.67Y-88.86
X116.75Y-131.6
X118.14Y-114.74
X118.84Y-126.04
X118.92Y-133.56
X119.14Y-137.94
X120.87Y-103.71
X120.97Y-127.39
X121.27Y-97.61
X121.74Y-117.44
X121.796Y-88.856
X121.84Y-122.94
X121.87Y-92.56
X121.97Y-95.31
X122.67Y-103.71
X122.94Y-107.44
X122.97Y-129.48
X123.07Y-114.03
X123.47Y-97.61
X125.54Y-124.84
X126.74Y-129.54
X126.77Y-88.91
X126.77Y-93.01
X128.62Y-117.08
X128.84Y-141.64
X128.97Y-97.61
X129.83Y-109.34
X129.84Y-128.4
X129.84Y-138.015
X130.34Y-108.54
X130.66Y-117.7
X130.94Y-107.74
X131.14Y-106.54
X131.47Y-88.81
X131.57Y-97.61
X131.67Y-117.77
X131.956Y-101.048
X131.956Y-102.064
X131.97Y-92.71
X132.92Y-88.81
X132.93Y-111.88
X135.14Y-143.59
X135.215Y-135.415
X135.39Y-125.84
X136.215Y-132.84
X136.84Y-109.44
X170.623Y-102.257
X174.123Y-102.257
X175.242Y-62.157
X175.242Y-71.028
X177.873Y-62.258
X177.873Y-68.257
X190.522Y-74.858
X197.123Y-81.657
X199.922Y-144.9
X209.623Y-77.757
X211.123Y-81.757
X212.623Y-102.757
X213.183Y-79.697
X216.123Y-111.757
X217.623Y-111.757
X220.623Y-134.757
T3
X201.343Y-144.917
T5
X104.84Y-142.415
X109.84Y-142.415
T6
X58.975Y-145.24
X61.515Y-145.24
X65.2Y-145.24
X67.74Y-145.24
X80.8Y-145.29
X83.34Y-145.29
X89.48Y-145.115
X92.02Y-145.115
X96.48Y-145.115
X99.02Y-145.115
X114.44Y-145.115
X116.98Y-145.115
X121.44Y-145.115
X123.98Y-145.115
X126.52Y-145.115
X129.06Y-145.115
X192.922Y-60.927
X192.922Y-63.467
X192.922Y-66.007
X192.922Y-68.547
X192.922Y-71.087
X192.922Y-73.627
X192.922Y-76.167
X192.922Y-78.707
X195.482Y-86.007
X195.482Y-88.547
X195.482Y-91.087
X195.482Y-93.627
X195.482Y-96.167
X195.482Y-98.707
X195.482Y-101.248
X195.482Y-103.787
X203.57Y-117.653
X203.57Y-120.194
X203.57Y-122.733
X203.57Y-125.273
X203.57Y-127.813
X203.57Y-130.353
X203.57Y-132.893
X203.57Y-135.433
X205.472Y-60.947
X205.472Y-63.487
X205.472Y-66.028
X205.472Y-68.567
X205.472Y-71.108
X205.472Y-73.647
X205.472Y-76.188
X205.472Y-78.727
X208.032Y-86.027
X208.032Y-88.567
X208.032Y-91.108
X208.032Y-93.647
X208.032Y-96.188
X208.032Y-98.727
X208.032Y-101.267
X208.032Y-103.807
X212.417Y-60.892
X213.312Y-65.843
X213.312Y-68.343
X213.312Y-70.843
X213.312Y-73.343
X214.358Y-54.661
X215.762Y-91.237
X215.762Y-93.737
X215.762Y-96.237
X215.762Y-98.737
X216.12Y-117.673
X216.12Y-120.213
X216.12Y-122.753
X216.12Y-125.293
X216.12Y-127.834
X216.12Y-130.374
X216.12Y-132.913
X216.12Y-135.453
X216.641Y-79.697
X216.722Y-86.017
X220.682Y-117.653
X220.706Y-111.757
X227.657Y-60.892
X229.358Y-54.661
X229.88Y-122.771
X229.88Y-125.271
X229.88Y-127.771
X229.88Y-130.271
X231.641Y-79.697
X231.962Y-86.017
X235.706Y-111.757
X235.922Y-117.653
T7
X165.403Y-66.017
X165.403Y-68.557
X165.403Y-71.097
X165.403Y-73.638
X165.403Y-76.177
X165.403Y-78.718
X165.403Y-81.257
X165.403Y-83.797
X165.403Y-86.337
X165.403Y-88.877
X165.403Y-91.417
X165.403Y-93.957
X165.403Y-96.498
X165.403Y-99.037
X165.403Y-101.578
X165.403Y-104.117
X188.262Y-66.017
X188.262Y-68.557
X188.262Y-71.097
X188.262Y-73.638
X188.262Y-76.177
X188.262Y-78.718
X188.262Y-81.257
X188.262Y-83.797
X188.262Y-86.337
X188.262Y-88.877
X188.262Y-91.417
X188.262Y-93.957
X188.262Y-96.498
X188.262Y-99.037
X188.262Y-101.578
X188.262Y-104.117
T8
X159.572Y-71.218
X159.572Y-78.718
X159.572Y-87.218
X162.112Y-71.218
X162.112Y-78.718
X162.112Y-87.218
X172.582Y-51.105
X175.123Y-51.105
X177.662Y-51.105
X180.202Y-51.105
X202.046Y-49.073
X204.587Y-49.073
X208.397Y-49.073
X210.936Y-49.073
X239.922Y-138.118
X239.922Y-140.657
T9
X150.067Y-133.15
X150.067Y-138.15
X192.177Y-54.578
X197.177Y-54.578
T10
X56.34Y-114.9
X56.34Y-119.98
X56.34Y-125.46
X56.34Y-130.54
X61.14Y-84.84
X66.22Y-84.84
X71.3Y-84.84
X76.38Y-84.84
X90.15Y-84.84
X95.23Y-84.84
X100.31Y-84.84
X105.39Y-84.84
X119.15Y-84.84
X124.23Y-84.84
X129.31Y-84.84
X134.39Y-84.84
T11
X231.932Y-90.367
X231.932Y-105.608
X236.123Y-60.867
X236.123Y-76.108
X239.607Y-117.653
X239.607Y-132.893
T12
X52.64Y-77.26
X52.64Y-146.34
X136.64Y-77.34
X136.64Y-146.34
X147.222Y-146.137
X147.433Y-47.237
X242.123Y-47.227
X242.123Y-146.227
T4
G00X103.84Y-145.465
M15
G01X103.84Y-144.765
M16
G05
G00X110.84Y-144.765
M15
G01X110.84Y-145.465
M16
G05
M30
