%TF.GenerationSoftware,KiCad,Pcbnew,9.0.0*%
%TF.CreationDate,2025-05-09T16:43:11-07:00*%
%TF.ProjectId,Motor_Controller_Board_v1,4d6f746f-725f-4436-9f6e-74726f6c6c65,v1*%
%TF.SameCoordinates,Original*%
%TF.FileFunction,Soldermask,Bot*%
%TF.FilePolarity,Negative*%
%FSLAX46Y46*%
G04 Gerber Fmt 4.6, Leading zero omitted, Abs format (unit mm)*
G04 Created by KiCad (PCBNEW 9.0.0) date 2025-05-09 16:43:11*
%MOMM*%
%LPD*%
G01*
G04 APERTURE LIST*
G04 Aperture macros list*
%AMRoundRect*
0 Rectangle with rounded corners*
0 $1 Rounding radius*
0 $2 $3 $4 $5 $6 $7 $8 $9 X,Y pos of 4 corners*
0 Add a 4 corners polygon primitive as box body*
4,1,4,$2,$3,$4,$5,$6,$7,$8,$9,$2,$3,0*
0 Add four circle primitives for the rounded corners*
1,1,$1+$1,$2,$3*
1,1,$1+$1,$4,$5*
1,1,$1+$1,$6,$7*
1,1,$1+$1,$8,$9*
0 Add four rect primitives between the rounded corners*
20,1,$1+$1,$2,$3,$4,$5,0*
20,1,$1+$1,$4,$5,$6,$7,0*
20,1,$1+$1,$6,$7,$8,$9,0*
20,1,$1+$1,$8,$9,$2,$3,0*%
G04 Aperture macros list end*
%ADD10R,3.000000X3.000000*%
%ADD11C,3.000000*%
%ADD12R,1.700000X1.700000*%
%ADD13O,1.700000X1.700000*%
%ADD14O,1.200000X1.900000*%
%ADD15C,1.450000*%
%ADD16C,3.800000*%
%ADD17O,2.286000X2.286000*%
%ADD18RoundRect,0.250000X0.845000X-0.620000X0.845000X0.620000X-0.845000X0.620000X-0.845000X-0.620000X0*%
%ADD19O,2.190000X1.740000*%
%ADD20RoundRect,0.250001X-1.149999X-1.149999X1.149999X-1.149999X1.149999X1.149999X-1.149999X1.149999X0*%
%ADD21C,2.800000*%
%ADD22RoundRect,0.250000X-0.620000X-0.845000X0.620000X-0.845000X0.620000X0.845000X-0.620000X0.845000X0*%
%ADD23O,1.740000X2.190000*%
%ADD24R,2.286000X2.286000*%
%ADD25RoundRect,0.250001X1.149999X-1.149999X1.149999X1.149999X-1.149999X1.149999X-1.149999X-1.149999X0*%
%ADD26R,3.200000X3.200000*%
%ADD27O,3.200000X3.200000*%
%ADD28R,2.000000X2.000000*%
%ADD29O,2.000000X2.000000*%
%ADD30RoundRect,0.286494X-0.710506X-0.935506X0.710506X-0.935506X0.710506X0.935506X-0.710506X0.935506X0*%
%ADD31O,1.994000X2.444000*%
%ADD32R,1.524000X1.524000*%
%ADD33C,1.524000*%
G04 APERTURE END LIST*
D10*
%TO.C,J401*%
X134390000Y-84840000D03*
D11*
X129310000Y-84840000D03*
X124230000Y-84840000D03*
X119150000Y-84840000D03*
%TD*%
D12*
%TO.C,J202*%
X83340000Y-145290000D03*
D13*
X80800000Y-145290000D03*
%TD*%
D12*
%TO.C,J304*%
X99020000Y-145115000D03*
D13*
X96480000Y-145115000D03*
%TD*%
D12*
%TO.C,J206*%
X67740000Y-145240000D03*
D13*
X65200000Y-145240000D03*
%TD*%
D12*
%TO.C,J305*%
X92020000Y-145115000D03*
D13*
X89480000Y-145115000D03*
%TD*%
D12*
%TO.C,J303*%
X116980000Y-145115000D03*
D13*
X114440000Y-145115000D03*
%TD*%
D12*
%TO.C,J207*%
X61515000Y-145240000D03*
D13*
X58975000Y-145240000D03*
%TD*%
D14*
%TO.C,J302*%
X103840000Y-145115000D03*
D15*
X104840000Y-142415000D03*
X109840000Y-142415000D03*
D14*
X110840000Y-145115000D03*
%TD*%
D10*
%TO.C,J203*%
X56340000Y-119980000D03*
D11*
X56340000Y-114900000D03*
%TD*%
D10*
%TO.C,J402*%
X76380000Y-84840000D03*
D11*
X71300000Y-84840000D03*
X66220000Y-84840000D03*
X61140000Y-84840000D03*
%TD*%
D16*
%TO.C,H202*%
X136640000Y-146340000D03*
%TD*%
D10*
%TO.C,J201*%
X56340000Y-130540000D03*
D11*
X56340000Y-125460000D03*
%TD*%
D16*
%TO.C,H201*%
X136640000Y-77340000D03*
%TD*%
%TO.C,H204*%
X52640000Y-77260000D03*
%TD*%
%TO.C,H203*%
X52640000Y-146340000D03*
%TD*%
D10*
%TO.C,J403*%
X105390000Y-84840000D03*
D11*
X100310000Y-84840000D03*
X95230000Y-84840000D03*
X90150000Y-84840000D03*
%TD*%
D12*
%TO.C,J301*%
X129060000Y-145115000D03*
D13*
X126520000Y-145115000D03*
X123980000Y-145115000D03*
X121440000Y-145115000D03*
%TD*%
D17*
%TO.C,J26*%
X215762500Y-91237500D03*
X215762500Y-93737500D03*
X215762500Y-96237500D03*
X215762500Y-98737500D03*
%TD*%
D18*
%TO.C,J4*%
X239922500Y-140657500D03*
D19*
X239922500Y-138117500D03*
%TD*%
D20*
%TO.C,J6*%
X192176500Y-54577500D03*
D21*
X197176500Y-54577500D03*
%TD*%
D22*
%TO.C,J2*%
X172582500Y-51105500D03*
D23*
X175122500Y-51105500D03*
X177662500Y-51105500D03*
X180202500Y-51105500D03*
%TD*%
D17*
%TO.C,U1*%
X208032500Y-96187500D03*
X208032500Y-98727500D03*
X208032500Y-93647500D03*
X208032500Y-91107500D03*
X195482500Y-88547500D03*
X195482500Y-91087500D03*
X195482500Y-93627500D03*
X195482500Y-103787500D03*
D24*
X195482500Y-86007500D03*
D17*
X208032500Y-103807500D03*
X208032500Y-88567500D03*
X195482500Y-96167500D03*
X195482500Y-98707500D03*
X195482500Y-101247500D03*
X208032500Y-101267500D03*
X208032500Y-86027500D03*
%TD*%
D25*
%TO.C,J1*%
X150067500Y-138150000D03*
D21*
X150067500Y-133150000D03*
%TD*%
D26*
%TO.C,D3*%
X236122500Y-60867500D03*
D27*
X236122500Y-76107500D03*
%TD*%
D28*
%TO.C,C4*%
X220705750Y-111757500D03*
D29*
X235705750Y-111757500D03*
%TD*%
D28*
%TO.C,C3*%
X216640500Y-79697500D03*
D29*
X231640500Y-79697500D03*
%TD*%
D30*
%TO.C,J15*%
X159572500Y-78717500D03*
D31*
X162112500Y-78717500D03*
%TD*%
D17*
%TO.C,U3*%
X216120500Y-127833500D03*
X216120500Y-130373500D03*
X216120500Y-125293500D03*
X216120500Y-122753500D03*
X203570500Y-120193500D03*
X203570500Y-122733500D03*
X203570500Y-125273500D03*
X203570500Y-135433500D03*
X203570500Y-117653500D03*
X216120500Y-135453500D03*
X216120500Y-120213500D03*
X203570500Y-127813500D03*
X203570500Y-130353500D03*
X203570500Y-132893500D03*
X216120500Y-132913500D03*
X216120500Y-117673500D03*
%TD*%
D30*
%TO.C,J14*%
X159572500Y-71217500D03*
D31*
X162112500Y-71217500D03*
%TD*%
D16*
%TO.C,REF\u002A\u002A*%
X242122500Y-146227500D03*
%TD*%
%TO.C,REF\u002A\u002A*%
X242122500Y-47227500D03*
%TD*%
D26*
%TO.C,D1*%
X239606750Y-117653500D03*
D27*
X239606750Y-132893500D03*
%TD*%
D28*
%TO.C,C2*%
X214358500Y-54661500D03*
D29*
X229358500Y-54661500D03*
%TD*%
D16*
%TO.C,REF\u002A\u002A*%
X147222500Y-146137500D03*
%TD*%
D22*
%TO.C,J7*%
X208396500Y-49073500D03*
D23*
X210936500Y-49073500D03*
%TD*%
D17*
%TO.C,J10*%
X229880500Y-122771000D03*
X229880500Y-125271000D03*
X229880500Y-127771000D03*
X229880500Y-130271000D03*
%TD*%
D16*
%TO.C,REF\u002A\u002A*%
X147432500Y-47237500D03*
%TD*%
D17*
%TO.C,R8*%
X220681750Y-117653500D03*
X235921750Y-117653500D03*
%TD*%
D32*
%TO.C,U2*%
X165402500Y-66017500D03*
D33*
X165402500Y-68557500D03*
X165402500Y-71097500D03*
X165402500Y-73637500D03*
X165402500Y-76177500D03*
X165402500Y-78717500D03*
X165402500Y-81257500D03*
X165402500Y-83797500D03*
X165402500Y-86337500D03*
X165402500Y-88877500D03*
X165402500Y-91417500D03*
X165402500Y-93957500D03*
X165402500Y-96497500D03*
X165402500Y-99037500D03*
X165402500Y-101577500D03*
X165402500Y-104117500D03*
X188262500Y-66017500D03*
X188262500Y-68557500D03*
X188262500Y-71097500D03*
X188262500Y-73637500D03*
X188262500Y-76177500D03*
X188262500Y-78717500D03*
X188262500Y-81257500D03*
X188262500Y-83797500D03*
X188262500Y-86337500D03*
X188262500Y-88877500D03*
X188262500Y-91417500D03*
X188262500Y-93957500D03*
X188262500Y-96497500D03*
X188262500Y-99037500D03*
X188262500Y-101577500D03*
X188262500Y-104117500D03*
%TD*%
D26*
%TO.C,D2*%
X231932500Y-90367500D03*
D27*
X231932500Y-105607500D03*
%TD*%
D17*
%TO.C,J5*%
X213312500Y-65842500D03*
X213312500Y-68342500D03*
X213312500Y-70842500D03*
X213312500Y-73342500D03*
%TD*%
D22*
%TO.C,J8*%
X202046500Y-49073500D03*
D23*
X204586500Y-49073500D03*
%TD*%
D17*
%TO.C,R10*%
X212417500Y-60892500D03*
X227657500Y-60892500D03*
%TD*%
%TO.C,R9*%
X216722500Y-86017500D03*
X231962500Y-86017500D03*
%TD*%
D30*
%TO.C,J21*%
X159572500Y-87217500D03*
D31*
X162112500Y-87217500D03*
%TD*%
D13*
%TO.C,U5*%
X205472500Y-71107500D03*
X205472500Y-73647500D03*
X205472500Y-68567500D03*
X205472500Y-66027500D03*
X192922500Y-63467500D03*
X192922500Y-66007500D03*
X192922500Y-68547500D03*
X192922500Y-78707500D03*
D12*
X192922500Y-60927500D03*
D13*
X205472500Y-78727500D03*
X205472500Y-63487500D03*
X192922500Y-71087500D03*
X192922500Y-73627500D03*
X192922500Y-76167500D03*
X205472500Y-76187500D03*
D12*
X205472500Y-60947500D03*
%TD*%
M02*
