%TF.GenerationSoftware,Altium Limited,Altium Designer,25.5.2 (35)*%
G04 Layer_Color=65535*
%FSLAX45Y45*%
%MOMM*%
%TF.SameCoordinates,B6F2B0AA-6BD2-4F7B-97A5-C3F0DAB7D88F*%
%TF.FilePolarity,Positive*%
%TF.FileFunction,Legend,Top*%
%TF.Part,Single*%
G01*
G75*
%TA.AperFunction,NonConductor*%
%ADD48C,0.60000*%
%ADD49C,0.25000*%
%ADD50C,0.20000*%
%ADD51C,0.12700*%
%ADD52C,0.25400*%
G36*
X9208984Y6475117D02*
X9219141D01*
Y6474102D01*
X9224219D01*
Y6473086D01*
X9228281D01*
Y6472070D01*
X9231328D01*
Y6471055D01*
X9233359D01*
Y6470039D01*
X9236406D01*
Y6469023D01*
X9238437D01*
Y6468008D01*
X9240469D01*
Y6466992D01*
X9242500D01*
Y6465976D01*
X9244531D01*
Y6464961D01*
X9245547D01*
Y6463945D01*
X9247578D01*
Y6462930D01*
X9248594D01*
Y6461914D01*
X9250625D01*
Y6460898D01*
X9251641D01*
Y6459883D01*
X9252656D01*
Y6458867D01*
X9254687D01*
Y6457851D01*
X9255703D01*
Y6456836D01*
X9256719D01*
Y6455820D01*
X9257734D01*
Y6454805D01*
X9258750D01*
Y6453789D01*
X9259766D01*
Y6452773D01*
X9260781D01*
Y6451758D01*
X9261797D01*
Y6450742D01*
X9262813D01*
Y6448711D01*
X9263828D01*
Y6447695D01*
X9264844D01*
Y6446680D01*
X9263828D01*
Y6445664D01*
X9262813D01*
Y6444648D01*
X9260781D01*
Y6443633D01*
X9259766D01*
Y6442617D01*
X9258750D01*
Y6441602D01*
X9257734D01*
Y6440586D01*
X9255703D01*
Y6439570D01*
X9254687D01*
Y6438555D01*
X9253672D01*
Y6437539D01*
X9251641D01*
Y6436523D01*
X9250625D01*
Y6435508D01*
X9249609D01*
Y6434492D01*
X9248594D01*
Y6433477D01*
X9246562D01*
Y6432461D01*
X9245547D01*
Y6431445D01*
X9244531D01*
Y6430430D01*
X9242500D01*
Y6429414D01*
X9241484D01*
Y6428398D01*
X9240469D01*
Y6427383D01*
X9238437D01*
Y6428398D01*
X9237422D01*
Y6429414D01*
X9236406D01*
Y6430430D01*
X9235390D01*
Y6431445D01*
X9234375D01*
Y6432461D01*
X9233359D01*
Y6433477D01*
X9232344D01*
Y6434492D01*
X9231328D01*
Y6435508D01*
X9229297D01*
Y6436523D01*
X9228281D01*
Y6437539D01*
X9226250D01*
Y6438555D01*
X9224219D01*
Y6439570D01*
X9221172D01*
Y6440586D01*
X9218125D01*
Y6441602D01*
X9213047D01*
Y6442617D01*
X9174453D01*
Y6441602D01*
X9169375D01*
Y6440586D01*
X9166328D01*
Y6439570D01*
X9164297D01*
Y6438555D01*
X9162266D01*
Y6437539D01*
X9160234D01*
Y6436523D01*
X9159219D01*
Y6435508D01*
X9158203D01*
Y6434492D01*
X9157187D01*
Y6433477D01*
X9156172D01*
Y6432461D01*
X9155156D01*
Y6431445D01*
X9154141D01*
Y6430430D01*
X9153125D01*
Y6428398D01*
X9152109D01*
Y6427383D01*
X9151094D01*
Y6424336D01*
X9150078D01*
Y6422305D01*
X9149062D01*
Y6418242D01*
X9148047D01*
Y6404024D01*
X9149062D01*
Y6400977D01*
X9150078D01*
Y6398945D01*
X9151094D01*
Y6397930D01*
X9152109D01*
Y6395898D01*
X9153125D01*
Y6394883D01*
X9154141D01*
Y6393867D01*
X9156172D01*
Y6392852D01*
X9157187D01*
Y6391836D01*
X9158203D01*
Y6390820D01*
X9160234D01*
Y6389805D01*
X9162266D01*
Y6388789D01*
X9164297D01*
Y6387773D01*
X9167344D01*
Y6386758D01*
X9170391D01*
Y6385742D01*
X9173438D01*
Y6384727D01*
X9176484D01*
Y6383711D01*
X9179531D01*
Y6382695D01*
X9182578D01*
Y6381680D01*
X9185625D01*
Y6380664D01*
X9188672D01*
Y6379648D01*
X9192734D01*
Y6378633D01*
X9195781D01*
Y6377617D01*
X9198828D01*
Y6376601D01*
X9201875D01*
Y6375586D01*
X9204922D01*
Y6374570D01*
X9207969D01*
Y6373555D01*
X9211016D01*
Y6372539D01*
X9214063D01*
Y6371523D01*
X9217109D01*
Y6370508D01*
X9220156D01*
Y6369492D01*
X9223203D01*
Y6368476D01*
X9225234D01*
Y6367461D01*
X9228281D01*
Y6366445D01*
X9231328D01*
Y6365430D01*
X9233359D01*
Y6364414D01*
X9235390D01*
Y6363398D01*
X9237422D01*
Y6362383D01*
X9239453D01*
Y6361367D01*
X9241484D01*
Y6360352D01*
X9242500D01*
Y6359336D01*
X9244531D01*
Y6358320D01*
X9246562D01*
Y6357305D01*
X9247578D01*
Y6356289D01*
X9248594D01*
Y6355273D01*
X9249609D01*
Y6354258D01*
X9251641D01*
Y6353242D01*
X9252656D01*
Y6352227D01*
X9253672D01*
Y6351211D01*
X9254687D01*
Y6350195D01*
X9255703D01*
Y6348164D01*
X9256719D01*
Y6347148D01*
D01*
D01*
X9257734D01*
Y6346133D01*
X9258750D01*
Y6345117D01*
X9259766D01*
Y6343086D01*
X9260781D01*
Y6342070D01*
X9261797D01*
Y6340039D01*
X9262813D01*
Y6338008D01*
X9263828D01*
Y6335976D01*
X9264844D01*
Y6332930D01*
X9265859D01*
Y6329883D01*
X9266875D01*
Y6326836D01*
X9267891D01*
Y6320742D01*
X9268906D01*
Y6304492D01*
X9267891D01*
Y6298398D01*
X9266875D01*
Y6293320D01*
X9265859D01*
Y6290273D01*
X9264844D01*
Y6287226D01*
X9263828D01*
Y6285195D01*
X9262813D01*
Y6288242D01*
X9263828D01*
Y6291289D01*
X9264844D01*
Y6294336D01*
X9265859D01*
Y6299414D01*
X9266875D01*
Y6305508D01*
X9267891D01*
Y6318711D01*
X9266875D01*
Y6324805D01*
X9265859D01*
Y6328867D01*
X9264844D01*
Y6331914D01*
X9263828D01*
Y6329883D01*
X9261797D01*
Y6330898D01*
X9262813D01*
Y6331914D01*
X9261797D01*
Y6332930D01*
X9260781D01*
Y6333945D01*
X9262813D01*
Y6332930D01*
X9263828D01*
Y6334961D01*
X9262813D01*
Y6336992D01*
X9261797D01*
Y6339023D01*
X9260781D01*
Y6336992D01*
X9261797D01*
Y6334961D01*
X9259766D01*
Y6332930D01*
X9257734D01*
Y6331914D01*
X9254687D01*
Y6330898D01*
X9253672D01*
Y6329883D01*
X9252656D01*
Y6330898D01*
X9251641D01*
Y6329883D01*
X9252656D01*
Y6328867D01*
X9255703D01*
Y6326836D01*
X9256719D01*
Y6325820D01*
X9255703D01*
Y6326836D01*
X9253672D01*
Y6325820D01*
X9252656D01*
Y6326836D01*
X9251641D01*
Y6327851D01*
X9249609D01*
Y6324805D01*
X9248594D01*
Y6323789D01*
X9247578D01*
Y6322773D01*
X9246562D01*
Y6321758D01*
X9243516D01*
Y6316680D01*
X9242500D01*
Y6317695D01*
X9241484D01*
Y6316680D01*
X9242500D01*
Y6314648D01*
X9241484D01*
Y6315664D01*
X9240469D01*
Y6314648D01*
X9239453D01*
Y6315664D01*
X9238437D01*
Y6314648D01*
X9239453D01*
Y6313633D01*
X9238437D01*
Y6314648D01*
X9237422D01*
Y6313633D01*
X9238437D01*
Y6310586D01*
X9237422D01*
Y6308555D01*
X9236406D01*
Y6315664D01*
X9235390D01*
Y6318711D01*
X9234375D01*
Y6315664D01*
X9235390D01*
Y6304492D01*
X9237422D01*
Y6305508D01*
X9236406D01*
Y6307539D01*
X9237422D01*
Y6306523D01*
X9238437D01*
Y6303477D01*
X9236406D01*
Y6301445D01*
X9235390D01*
Y6304492D01*
X9234375D01*
Y6300430D01*
X9233359D01*
Y6297383D01*
X9232344D01*
Y6295351D01*
X9231328D01*
Y6293320D01*
X9230313D01*
Y6292305D01*
X9229297D01*
Y6294336D01*
X9230313D01*
Y6296367D01*
X9231328D01*
Y6298398D01*
X9232344D01*
Y6301445D01*
X9233359D01*
Y6307539D01*
X9234375D01*
Y6313633D01*
X9233359D01*
Y6317695D01*
X9232344D01*
Y6320742D01*
X9231328D01*
Y6322773D01*
X9230313D01*
Y6323789D01*
X9229297D01*
Y6325820D01*
X9228281D01*
Y6326836D01*
X9227266D01*
Y6327851D01*
X9225234D01*
Y6328867D01*
X9224219D01*
Y6329883D01*
X9222188D01*
Y6330898D01*
X9221172D01*
Y6331914D01*
X9218125D01*
Y6332930D01*
X9216094D01*
Y6333945D01*
X9213047D01*
Y6334961D01*
X9210000D01*
Y6335976D01*
X9206953D01*
Y6336992D01*
X9203906D01*
Y6338008D01*
X9200859D01*
Y6339023D01*
X9197812D01*
Y6340039D01*
X9194766D01*
Y6341055D01*
X9191719D01*
Y6342070D01*
X9188672D01*
Y6343086D01*
X9185625D01*
Y6344102D01*
X9182578D01*
Y6345117D01*
X9179531D01*
Y6346133D01*
X9175469D01*
Y6347148D01*
X9172422D01*
Y6348164D01*
X9169375D01*
Y6349180D01*
X9167344D01*
Y6350195D01*
X9164297D01*
Y6351211D01*
X9161250D01*
Y6352227D01*
X9158203D01*
Y6353242D01*
X9156172D01*
Y6354258D01*
X9153125D01*
Y6355273D01*
X9151094D01*
Y6356289D01*
X9148047D01*
Y6357305D01*
X9146015D01*
Y6358320D01*
X9143984D01*
Y6359336D01*
X9141953D01*
Y6360352D01*
X9140938D01*
Y6361367D01*
X9138906D01*
Y6362383D01*
X9136875D01*
Y6363398D01*
X9135859D01*
Y6364414D01*
X9133828D01*
Y6365430D01*
X9132813D01*
Y6366445D01*
X9130781D01*
Y6367461D01*
X9129766D01*
Y6368476D01*
X9128750D01*
Y6369492D01*
X9127734D01*
Y6370508D01*
X9126719D01*
Y6371523D01*
X9125703D01*
Y6372539D01*
X9124687D01*
Y6373555D01*
X9123672D01*
Y6374570D01*
X9122656D01*
Y6375586D01*
X9121641D01*
Y6377617D01*
X9120625D01*
Y6378633D01*
X9119609D01*
Y6380664D01*
X9118594D01*
Y6381680D01*
X9117578D01*
Y6383711D01*
X9116562D01*
Y6385742D01*
X9115547D01*
Y6388789D01*
X9114531D01*
Y6390820D01*
X9113516D01*
Y6394883D01*
X9112500D01*
Y6400977D01*
X9111484D01*
Y6417226D01*
X9112500D01*
Y6423320D01*
X9113516D01*
Y6428398D01*
X9114531D01*
Y6431445D01*
X9115547D01*
Y6434492D01*
X9116562D01*
Y6437539D01*
X9117578D01*
Y6439570D01*
X9118594D01*
Y6441602D01*
X9071875D01*
Y6242539D01*
X9049531D01*
Y6245586D01*
X9048516D01*
Y6247617D01*
X9047500D01*
Y6249648D01*
X9046484D01*
Y6251680D01*
X9045469D01*
Y6253711D01*
X9044453D01*
Y6255742D01*
X9043438D01*
Y6257773D01*
X9042422D01*
Y6260820D01*
X9041406D01*
Y6262852D01*
X9040391D01*
Y6265898D01*
X9039375D01*
Y6269961D01*
X9038359D01*
Y6275039D01*
X9037344D01*
Y6303477D01*
Y6304492D01*
Y6441602D01*
X8967266D01*
Y6443633D01*
X8966250D01*
Y6445664D01*
X8965234D01*
Y6447695D01*
X8964219D01*
Y6449726D01*
X8963203D01*
Y6451758D01*
X8962188D01*
Y6453789D01*
X8961172D01*
Y6455820D01*
X8960156D01*
Y6457851D01*
X8959141D01*
Y6459883D01*
X8958125D01*
Y6462930D01*
X8957109D01*
Y6464961D01*
X8956094D01*
Y6466992D01*
X8955078D01*
Y6469023D01*
X8954063D01*
Y6470039D01*
X8953047D01*
Y6472070D01*
X8952031D01*
Y6474102D01*
X8951016D01*
Y6475117D01*
X8950000D01*
Y6476133D01*
X9208984D01*
Y6475117D01*
D02*
G37*
G36*
X9260781Y6330898D02*
X9258750D01*
Y6331914D01*
X9260781D01*
Y6330898D01*
D02*
G37*
G36*
X9256719Y6329883D02*
X9255703D01*
Y6330898D01*
X9256719D01*
Y6329883D01*
D02*
G37*
G36*
X9264844Y6327851D02*
Y6326836D01*
X9262813D01*
Y6327851D01*
X9263828D01*
Y6328867D01*
X9264844D01*
Y6327851D01*
D02*
G37*
G36*
X9251641Y6325820D02*
Y6324805D01*
Y6322773D01*
X9250625D01*
Y6326836D01*
X9251641D01*
Y6325820D01*
D02*
G37*
G36*
X9265859Y6321758D02*
X9264844D01*
Y6322773D01*
X9265859D01*
Y6321758D01*
D02*
G37*
G36*
X9250625D02*
X9249609D01*
Y6322773D01*
X9250625D01*
Y6321758D01*
D02*
G37*
G36*
X9249609Y6320742D02*
X9248594D01*
Y6321758D01*
X9249609D01*
Y6320742D01*
D02*
G37*
G36*
X9247578Y6319727D02*
X9246562D01*
Y6318711D01*
X9245547D01*
Y6319727D01*
X9244531D01*
Y6320742D01*
X9247578D01*
Y6319727D01*
D02*
G37*
G36*
X9249609Y6317695D02*
X9248594D01*
Y6318711D01*
X9249609D01*
Y6317695D01*
D02*
G37*
G36*
X9247578Y6316680D02*
X9246562D01*
Y6317695D01*
X9247578D01*
Y6316680D01*
D02*
G37*
G36*
X9240469Y6307539D02*
X9239453D01*
Y6308555D01*
X9240469D01*
Y6307539D01*
D02*
G37*
G36*
X9229297Y6290273D02*
X9228281D01*
Y6289258D01*
X9227266D01*
Y6288242D01*
X9226250D01*
Y6290273D01*
X9227266D01*
Y6291289D01*
X9228281D01*
Y6292305D01*
X9229297D01*
Y6290273D01*
D02*
G37*
G36*
X9226250Y6287226D02*
X9225234D01*
Y6288242D01*
X9226250D01*
Y6287226D01*
D02*
G37*
G36*
X9225234Y6286211D02*
X9224219D01*
Y6287226D01*
X9225234D01*
Y6286211D01*
D02*
G37*
G36*
X9262813Y6283164D02*
X9261797D01*
Y6285195D01*
X9262813D01*
Y6283164D01*
D02*
G37*
G36*
X9261797Y6281133D02*
X9260781D01*
Y6283164D01*
X9261797D01*
Y6281133D01*
D02*
G37*
G36*
X9224219Y6285195D02*
X9223203D01*
Y6284180D01*
X9222188D01*
Y6283164D01*
X9221172D01*
Y6282148D01*
X9219141D01*
Y6281133D01*
X9220156D01*
Y6280117D01*
X9219141D01*
Y6281133D01*
X9217109D01*
Y6282148D01*
X9218125D01*
Y6283164D01*
X9220156D01*
Y6284180D01*
X9221172D01*
Y6285195D01*
X9222188D01*
Y6286211D01*
X9224219D01*
Y6285195D01*
D02*
G37*
G36*
X9217109Y6280117D02*
X9215078D01*
Y6281133D01*
X9217109D01*
Y6280117D01*
D02*
G37*
G36*
X9260781Y6279101D02*
X9259766D01*
Y6281133D01*
X9260781D01*
Y6279101D01*
D02*
G37*
G36*
X9215078D02*
X9213047D01*
Y6280117D01*
X9215078D01*
Y6279101D01*
D02*
G37*
G36*
X8915469Y6475117D02*
X8920547D01*
Y6474102D01*
X8923594D01*
Y6473086D01*
X8925625D01*
Y6472070D01*
X8927656D01*
Y6471055D01*
X8928672D01*
Y6470039D01*
X8930703D01*
Y6469023D01*
X8931719D01*
Y6468008D01*
X8932734D01*
Y6466992D01*
X8933750D01*
Y6465976D01*
X8934766D01*
Y6464961D01*
X8935781D01*
Y6463945D01*
X8936797D01*
Y6462930D01*
X8937812D01*
Y6461914D01*
X8938828D01*
Y6460898D01*
X8939844D01*
Y6458867D01*
X8940859D01*
Y6456836D01*
X8941875D01*
Y6454805D01*
X8942891D01*
Y6452773D01*
X8943906D01*
Y6450742D01*
X8944922D01*
Y6447695D01*
X8945937D01*
Y6445664D01*
X8946953D01*
Y6443633D01*
X8947969D01*
Y6441602D01*
X8948984D01*
Y6438555D01*
X8950000D01*
Y6436523D01*
X8951016D01*
Y6434492D01*
X8952031D01*
Y6432461D01*
X8953047D01*
Y6429414D01*
X8954063D01*
Y6427383D01*
X8955078D01*
Y6425351D01*
X8956094D01*
Y6422305D01*
X8957109D01*
Y6420273D01*
X8958125D01*
Y6418242D01*
X8959141D01*
Y6416211D01*
X8960156D01*
Y6413164D01*
X8961172D01*
Y6411133D01*
X8962188D01*
Y6409101D01*
X8963203D01*
Y6407070D01*
X8964219D01*
Y6404024D01*
X8965234D01*
Y6401992D01*
X8966250D01*
Y6399961D01*
X8967266D01*
Y6397930D01*
X8968281D01*
Y6394883D01*
X8969297D01*
Y6392852D01*
X8970313D01*
Y6390820D01*
X8971328D01*
Y6388789D01*
X8972344D01*
Y6385742D01*
X8973359D01*
Y6383711D01*
X8974375D01*
Y6381680D01*
X8975390D01*
Y6379648D01*
X8976406D01*
Y6376601D01*
X8977422D01*
Y6374570D01*
X8978437D01*
Y6372539D01*
X8979453D01*
Y6370508D01*
X8980469D01*
Y6367461D01*
X8981484D01*
Y6365430D01*
X8982500D01*
Y6363398D01*
X8983516D01*
Y6360352D01*
X8984531D01*
Y6358320D01*
X8985547D01*
Y6356289D01*
X8986562D01*
Y6354258D01*
X8987578D01*
Y6352227D01*
X8988594D01*
Y6349180D01*
X8989609D01*
Y6347148D01*
X8990625D01*
Y6345117D01*
X8991641D01*
Y6342070D01*
X8992656D01*
Y6340039D01*
X8993672D01*
Y6338008D01*
X8994687D01*
Y6335976D01*
X8995703D01*
Y6332930D01*
X8996719D01*
Y6330898D01*
X8997734D01*
Y6328867D01*
X8998750D01*
Y6326836D01*
X8999766D01*
Y6323789D01*
X9000781D01*
Y6321758D01*
X9001797D01*
Y6319727D01*
X9002813D01*
Y6317695D01*
X9003828D01*
Y6314648D01*
X9004844D01*
Y6312617D01*
X9005859D01*
Y6310586D01*
X9006875D01*
Y6308555D01*
X9007891D01*
Y6305508D01*
X9008906D01*
Y6303477D01*
X9009922D01*
Y6301445D01*
X9010938D01*
Y6299414D01*
X9011953D01*
Y6296367D01*
X9012969D01*
Y6294336D01*
X9013984D01*
Y6292305D01*
X9015000D01*
Y6289258D01*
X9016015D01*
Y6287226D01*
X9017031D01*
Y6285195D01*
X9018047D01*
Y6283164D01*
X9019062D01*
Y6280117D01*
X9020078D01*
Y6278086D01*
X9021094D01*
Y6276055D01*
X9022109D01*
Y6274024D01*
X9023125D01*
Y6270977D01*
X9024141D01*
Y6268945D01*
X9025156D01*
Y6266914D01*
X9026172D01*
Y6263867D01*
X9027187D01*
Y6261836D01*
X9028203D01*
Y6259805D01*
X9029219D01*
Y6257773D01*
X9030234D01*
Y6254727D01*
X9031250D01*
Y6252695D01*
X9032266D01*
Y6250664D01*
X9033281D01*
Y6248633D01*
X9034297D01*
Y6245586D01*
X9035312D01*
Y6243555D01*
X9036328D01*
Y6241523D01*
X9037344D01*
Y6238476D01*
X9038359D01*
Y6236445D01*
X9039375D01*
Y6234414D01*
X9040391D01*
Y6232383D01*
X9041406D01*
Y6229336D01*
X9042422D01*
Y6227305D01*
X9043438D01*
Y6225273D01*
X9044453D01*
Y6223242D01*
X9045469D01*
Y6220195D01*
X9046484D01*
Y6218164D01*
X9047500D01*
Y6216133D01*
X9048516D01*
Y6214102D01*
X9049531D01*
Y6211055D01*
X9050547D01*
Y6209023D01*
X9051563D01*
Y6206992D01*
X9048516D01*
Y6208008D01*
X9044453D01*
Y6209023D01*
X9041406D01*
Y6210039D01*
X9038359D01*
Y6211055D01*
X9035312D01*
Y6212070D01*
X9033281D01*
Y6213086D01*
X9030234D01*
Y6214102D01*
X9028203D01*
Y6215117D01*
X9026172D01*
Y6216133D01*
X9024141D01*
Y6217148D01*
X9023125D01*
Y6218164D01*
X9021094D01*
Y6219180D01*
X9020078D01*
Y6220195D01*
X9018047D01*
Y6221211D01*
X9017031D01*
Y6222227D01*
X9015000D01*
Y6223242D01*
X9013984D01*
Y6224258D01*
X9012969D01*
Y6225273D01*
X9011953D01*
Y6226289D01*
X9010938D01*
Y6227305D01*
X9009922D01*
Y6228320D01*
X9008906D01*
Y6229336D01*
X9007891D01*
Y6231367D01*
X9006875D01*
Y6232383D01*
X9005859D01*
Y6234414D01*
X9004844D01*
Y6235430D01*
X9003828D01*
Y6237461D01*
X9002813D01*
Y6239492D01*
X9001797D01*
Y6242539D01*
X9000781D01*
Y6244570D01*
X8999766D01*
Y6246601D01*
X8998750D01*
Y6248633D01*
X8997734D01*
Y6251680D01*
X8996719D01*
Y6253711D01*
X8995703D01*
Y6255742D01*
X8994687D01*
Y6257773D01*
X8993672D01*
Y6260820D01*
X8992656D01*
Y6262852D01*
X8991641D01*
Y6264883D01*
X8990625D01*
Y6266914D01*
X8989609D01*
Y6269961D01*
X8988594D01*
Y6271992D01*
X8987578D01*
Y6274024D01*
X8986562D01*
Y6276055D01*
X8985547D01*
Y6278086D01*
X8984531D01*
Y6281133D01*
X8983516D01*
Y6283164D01*
X8982500D01*
Y6285195D01*
X8981484D01*
Y6287226D01*
X8980469D01*
Y6290273D01*
X8979453D01*
Y6292305D01*
X8978437D01*
Y6294336D01*
X8977422D01*
Y6296367D01*
X8976406D01*
Y6299414D01*
X8975390D01*
Y6301445D01*
X8974375D01*
Y6303477D01*
X8973359D01*
Y6305508D01*
X8972344D01*
Y6308555D01*
X8877891D01*
Y6306523D01*
X8876875D01*
Y6305508D01*
X8875859D01*
Y6303477D01*
X8874844D01*
Y6302461D01*
X8873828D01*
Y6300430D01*
X8872813D01*
Y6299414D01*
X8871797D01*
Y6297383D01*
X8870781D01*
Y6296367D01*
X8869766D01*
Y6294336D01*
X8868750D01*
Y6292305D01*
X8867734D01*
Y6297383D01*
X8868750D01*
Y6318711D01*
X8867734D01*
Y6325820D01*
X8866719D01*
Y6329883D01*
X8865703D01*
Y6333945D01*
X8864687D01*
Y6336992D01*
X8863672D01*
Y6340039D01*
X8862656D01*
Y6342070D01*
X8861641D01*
Y6345117D01*
X8860625D01*
Y6347148D01*
X8859609D01*
Y6349180D01*
X8858594D01*
Y6351211D01*
X8859609D01*
Y6354258D01*
X8860625D01*
Y6356289D01*
X8861641D01*
Y6358320D01*
X8862656D01*
Y6361367D01*
X8863672D01*
Y6363398D01*
X8864687D01*
Y6365430D01*
X8865703D01*
Y6368476D01*
X8866719D01*
Y6370508D01*
X8867734D01*
Y6372539D01*
X8868750D01*
Y6375586D01*
X8869766D01*
Y6377617D01*
X8870781D01*
Y6379648D01*
X8871797D01*
Y6382695D01*
X8872813D01*
Y6384727D01*
X8873828D01*
Y6386758D01*
X8874844D01*
Y6389805D01*
X8875859D01*
Y6391836D01*
X8876875D01*
Y6393867D01*
X8877891D01*
Y6396914D01*
X8878906D01*
Y6398945D01*
X8879922D01*
Y6400977D01*
X8880938D01*
Y6404024D01*
X8881953D01*
Y6406055D01*
X8882969D01*
Y6408086D01*
X8883984D01*
Y6411133D01*
X8885000D01*
Y6413164D01*
X8886016D01*
Y6415195D01*
X8887031D01*
Y6418242D01*
X8888047D01*
Y6420273D01*
X8889062D01*
Y6422305D01*
X8890078D01*
Y6425351D01*
X8891094D01*
Y6427383D01*
X8892109D01*
Y6429414D01*
X8893125D01*
Y6432461D01*
X8894141D01*
Y6434492D01*
X8895156D01*
Y6436523D01*
X8896172D01*
Y6440586D01*
X8895156D01*
Y6441602D01*
X8767187D01*
Y6440586D01*
X8762109D01*
Y6439570D01*
X8759062D01*
Y6438555D01*
X8757031D01*
Y6437539D01*
X8755000D01*
Y6436523D01*
X8752969D01*
Y6435508D01*
X8751953D01*
Y6434492D01*
X8750938D01*
Y6433477D01*
X8749922D01*
Y6432461D01*
X8748906D01*
Y6431445D01*
X8747891D01*
Y6430430D01*
X8746875D01*
Y6429414D01*
X8745859D01*
Y6427383D01*
X8744844D01*
Y6425351D01*
X8743828D01*
Y6423320D01*
X8742813D01*
Y6421289D01*
X8741797D01*
Y6417226D01*
X8740781D01*
Y6412148D01*
X8741797D01*
Y6407070D01*
X8742813D01*
Y6405039D01*
X8743828D01*
Y6403008D01*
X8744844D01*
Y6400977D01*
X8745859D01*
Y6399961D01*
X8746875D01*
Y6398945D01*
X8747891D01*
Y6397930D01*
X8748906D01*
Y6396914D01*
X8749922D01*
Y6395898D01*
X8750938D01*
Y6394883D01*
X8752969D01*
Y6393867D01*
X8753984D01*
Y6392852D01*
X8756016D01*
Y6391836D01*
X8759062D01*
Y6390820D01*
X8762109D01*
Y6389805D01*
X8765156D01*
Y6388789D01*
X8768203D01*
Y6387773D01*
X8771250D01*
Y6386758D01*
X8774297D01*
Y6385742D01*
X8777344D01*
Y6384727D01*
X8780391D01*
Y6383711D01*
X8783438D01*
Y6382695D01*
X8786484D01*
Y6381680D01*
X8789531D01*
Y6380664D01*
X8792578D01*
Y6379648D01*
X8795625D01*
Y6378633D01*
X8798672D01*
Y6377617D01*
X8801719D01*
Y6376601D01*
X8803750D01*
Y6375586D01*
X8806797D01*
Y6374570D01*
X8809844D01*
Y6373555D01*
X8811875D01*
Y6372539D01*
X8814922D01*
Y6371523D01*
X8816953D01*
Y6370508D01*
X8820000D01*
Y6369492D01*
X8822031D01*
Y6368476D01*
X8824063D01*
Y6367461D01*
X8826094D01*
Y6366445D01*
X8828125D01*
Y6365430D01*
X8829141D01*
Y6364414D01*
X8831172D01*
Y6363398D01*
X8832188D01*
Y6362383D01*
X8834219D01*
Y6361367D01*
X8835234D01*
Y6360352D01*
X8837266D01*
Y6359336D01*
X8838281D01*
Y6358320D01*
X8839297D01*
Y6357305D01*
X8840313D01*
Y6356289D01*
X8841328D01*
Y6355273D01*
X8842344D01*
Y6354258D01*
X8843359D01*
Y6353242D01*
X8844375D01*
Y6351211D01*
X8845390D01*
Y6350195D01*
X8846406D01*
Y6349180D01*
X8847422D01*
Y6347148D01*
X8848437D01*
Y6346133D01*
X8849453D01*
Y6344102D01*
X8850469D01*
Y6342070D01*
X8851484D01*
Y6340039D01*
X8852500D01*
Y6336992D01*
X8853516D01*
Y6333945D01*
X8854531D01*
Y6330898D01*
X8855547D01*
Y6327851D01*
X8856562D01*
Y6322773D01*
X8857578D01*
Y6315664D01*
X8858594D01*
Y6300430D01*
X8857578D01*
Y6294336D01*
X8856562D01*
Y6290273D01*
X8855547D01*
Y6286211D01*
X8854531D01*
Y6284180D01*
X8853516D01*
Y6281133D01*
X8852500D01*
Y6279101D01*
X8851484D01*
Y6277070D01*
X8850469D01*
Y6276055D01*
X8849453D01*
Y6274024D01*
X8848437D01*
Y6271992D01*
X8847422D01*
Y6270977D01*
X8846406D01*
Y6269961D01*
X8845390D01*
Y6267930D01*
X8844375D01*
Y6266914D01*
X8843359D01*
Y6265898D01*
X8842344D01*
Y6264883D01*
X8841328D01*
Y6263867D01*
X8840313D01*
Y6262852D01*
X8839297D01*
Y6261836D01*
X8838281D01*
Y6260820D01*
X8837266D01*
Y6259805D01*
X8836250D01*
Y6258789D01*
X8835234D01*
Y6257773D01*
X8833203D01*
Y6256758D01*
X8832188D01*
Y6255742D01*
X8830156D01*
Y6254727D01*
X8829141D01*
Y6253711D01*
X8827109D01*
Y6252695D01*
X8825078D01*
Y6251680D01*
X8823047D01*
Y6250664D01*
X8821016D01*
Y6249648D01*
X8818984D01*
Y6248633D01*
X8815937D01*
Y6247617D01*
X8813906D01*
Y6246601D01*
X8809844D01*
Y6245586D01*
X8805781D01*
Y6244570D01*
X8800703D01*
Y6243555D01*
X8793594D01*
Y6242539D01*
X8723516D01*
Y6243555D01*
X8722500D01*
Y6244570D01*
X8721484D01*
Y6245586D01*
X8720469D01*
Y6248633D01*
X8719453D01*
Y6250664D01*
X8718437D01*
Y6252695D01*
X8717422D01*
Y6255742D01*
X8716406D01*
Y6257773D01*
X8715390D01*
Y6259805D01*
X8714375D01*
Y6262852D01*
X8713359D01*
Y6264883D01*
X8712344D01*
Y6266914D01*
X8711328D01*
Y6268945D01*
X8710313D01*
Y6271992D01*
X8709297D01*
Y6274024D01*
X8708281D01*
Y6276055D01*
X8707266D01*
Y6279101D01*
X8706250D01*
Y6281133D01*
X8705234D01*
Y6283164D01*
X8704219D01*
Y6285195D01*
X8703203D01*
Y6288242D01*
X8702188D01*
Y6290273D01*
X8701172D01*
Y6292305D01*
X8700156D01*
Y6295351D01*
X8699141D01*
Y6297383D01*
X8698125D01*
Y6299414D01*
X8697109D01*
Y6302461D01*
X8696094D01*
Y6304492D01*
X8695078D01*
Y6306523D01*
X8694063D01*
Y6308555D01*
X8693047D01*
Y6311602D01*
X8692031D01*
Y6313633D01*
X8691016D01*
Y6315664D01*
X8690000D01*
Y6318711D01*
X8688984D01*
Y6320742D01*
X8687969D01*
Y6322773D01*
X8686953D01*
Y6324805D01*
X8685937D01*
Y6327851D01*
X8684922D01*
Y6329883D01*
X8683906D01*
Y6331914D01*
X8682891D01*
Y6334961D01*
X8681875D01*
Y6336992D01*
X8680859D01*
Y6339023D01*
X8679844D01*
Y6342070D01*
X8678828D01*
Y6344102D01*
X8677812D01*
Y6346133D01*
X8676797D01*
Y6348164D01*
X8675781D01*
Y6351211D01*
X8674766D01*
Y6353242D01*
X8673750D01*
Y6355273D01*
X8672734D01*
Y6358320D01*
X8671719D01*
Y6360352D01*
X8670703D01*
Y6362383D01*
X8669688D01*
Y6365430D01*
X8668672D01*
Y6367461D01*
X8667656D01*
Y6369492D01*
X8666641D01*
Y6372539D01*
X8665625D01*
Y6374570D01*
X8664609D01*
Y6376601D01*
X8663594D01*
Y6379648D01*
X8662578D01*
Y6381680D01*
X8661563D01*
Y6383711D01*
X8660547D01*
Y6385742D01*
X8659531D01*
Y6388789D01*
X8658516D01*
Y6390820D01*
X8657500D01*
Y6392852D01*
X8656484D01*
Y6395898D01*
X8655469D01*
Y6397930D01*
X8654453D01*
Y6399961D01*
X8653438D01*
Y6403008D01*
X8652422D01*
Y6405039D01*
X8651406D01*
Y6407070D01*
X8650391D01*
Y6410117D01*
X8649375D01*
Y6412148D01*
X8648359D01*
Y6414180D01*
X8647344D01*
Y6417226D01*
X8646328D01*
Y6419258D01*
X8645312D01*
Y6421289D01*
X8644297D01*
Y6423320D01*
X8643281D01*
Y6426367D01*
X8641250D01*
Y6424336D01*
X8640234D01*
Y6422305D01*
X8639219D01*
Y6419258D01*
X8638203D01*
Y6417226D01*
X8637187D01*
Y6415195D01*
X8636172D01*
Y6412148D01*
X8635156D01*
Y6410117D01*
X8634141D01*
Y6408086D01*
X8633125D01*
Y6405039D01*
X8632109D01*
Y6403008D01*
X8631094D01*
Y6399961D01*
X8630078D01*
Y6397930D01*
X8629062D01*
Y6395898D01*
X8628047D01*
Y6392852D01*
X8627031D01*
Y6390820D01*
X8626016D01*
Y6388789D01*
X8625000D01*
Y6385742D01*
X8623984D01*
Y6383711D01*
X8622969D01*
Y6381680D01*
X8621953D01*
Y6378633D01*
X8620938D01*
Y6376601D01*
X8619922D01*
Y6373555D01*
X8618906D01*
Y6371523D01*
X8617891D01*
Y6369492D01*
X8616875D01*
Y6366445D01*
X8615859D01*
Y6364414D01*
X8614844D01*
Y6362383D01*
X8613828D01*
Y6359336D01*
X8612813D01*
Y6357305D01*
X8611797D01*
Y6354258D01*
X8610781D01*
Y6352227D01*
X8609766D01*
Y6350195D01*
X8608750D01*
Y6347148D01*
X8607734D01*
Y6345117D01*
X8606719D01*
Y6343086D01*
X8605703D01*
Y6342070D01*
X8658516D01*
Y6341055D01*
X8659531D01*
Y6340039D01*
X8660547D01*
Y6338008D01*
X8661563D01*
Y6335976D01*
X8662578D01*
Y6333945D01*
X8663594D01*
Y6330898D01*
X8664609D01*
Y6328867D01*
X8665625D01*
Y6326836D01*
X8666641D01*
Y6323789D01*
X8667656D01*
Y6321758D01*
X8668672D01*
Y6319727D01*
X8669688D01*
Y6317695D01*
X8670703D01*
Y6314648D01*
X8671719D01*
Y6312617D01*
X8672734D01*
Y6310586D01*
X8673750D01*
Y6308555D01*
X8592500D01*
Y6307539D01*
X8591484D01*
Y6304492D01*
X8590469D01*
Y6302461D01*
X8589453D01*
Y6300430D01*
X8588437D01*
Y6297383D01*
X8587422D01*
Y6295351D01*
X8586406D01*
Y6292305D01*
X8585390D01*
Y6290273D01*
X8584375D01*
Y6287226D01*
X8583359D01*
Y6285195D01*
X8582344D01*
Y6283164D01*
X8581328D01*
Y6280117D01*
X8580313D01*
Y6278086D01*
X8579297D01*
Y6276055D01*
X8578281D01*
Y6273008D01*
X8577266D01*
Y6270977D01*
X8576250D01*
Y6268945D01*
X8575234D01*
Y6265898D01*
X8574219D01*
Y6263867D01*
X8573203D01*
Y6260820D01*
X8572188D01*
Y6258789D01*
X8571172D01*
Y6256758D01*
X8570156D01*
Y6253711D01*
X8569141D01*
Y6251680D01*
X8568125D01*
Y6249648D01*
X8567109D01*
Y6246601D01*
X8566094D01*
Y6244570D01*
X8565078D01*
Y6242539D01*
X8527500D01*
Y6244570D01*
X8528516D01*
Y6246601D01*
X8529531D01*
Y6248633D01*
X8530547D01*
Y6251680D01*
X8531563D01*
Y6253711D01*
X8532578D01*
Y6255742D01*
X8533594D01*
Y6258789D01*
X8534609D01*
Y6260820D01*
X8535625D01*
Y6262852D01*
X8536641D01*
Y6265898D01*
X8537656D01*
Y6267930D01*
X8538672D01*
Y6269961D01*
X8539688D01*
Y6273008D01*
X8540703D01*
Y6275039D01*
X8541719D01*
Y6277070D01*
X8542735D01*
Y6280117D01*
X8543750D01*
Y6282148D01*
X8544766D01*
Y6284180D01*
X8545781D01*
Y6287226D01*
X8546797D01*
Y6289258D01*
X8547812D01*
Y6291289D01*
X8548828D01*
Y6294336D01*
X8549844D01*
Y6296367D01*
X8550859D01*
Y6298398D01*
X8551875D01*
Y6301445D01*
X8552891D01*
Y6303477D01*
X8553906D01*
Y6305508D01*
X8554922D01*
Y6308555D01*
X8555937D01*
Y6310586D01*
X8556953D01*
Y6313633D01*
X8557969D01*
Y6315664D01*
X8558984D01*
Y6317695D01*
X8560000D01*
Y6320742D01*
X8561016D01*
Y6322773D01*
X8562031D01*
Y6324805D01*
X8563047D01*
Y6327851D01*
X8564063D01*
Y6329883D01*
X8565078D01*
Y6331914D01*
X8566094D01*
Y6334961D01*
X8567109D01*
Y6336992D01*
X8568125D01*
Y6339023D01*
X8569141D01*
Y6342070D01*
X8570156D01*
Y6344102D01*
X8571172D01*
Y6346133D01*
X8572188D01*
Y6349180D01*
X8573203D01*
Y6351211D01*
X8574219D01*
Y6353242D01*
X8575234D01*
Y6356289D01*
X8576250D01*
Y6358320D01*
X8577266D01*
Y6360352D01*
X8578281D01*
Y6363398D01*
X8579297D01*
Y6365430D01*
X8580313D01*
Y6367461D01*
X8581328D01*
Y6370508D01*
X8582344D01*
Y6372539D01*
X8583359D01*
Y6375586D01*
X8584375D01*
Y6377617D01*
X8585390D01*
Y6379648D01*
X8586406D01*
Y6382695D01*
X8587422D01*
Y6384727D01*
X8588437D01*
Y6386758D01*
X8589453D01*
Y6389805D01*
X8590469D01*
Y6391836D01*
X8591484D01*
Y6393867D01*
X8592500D01*
Y6396914D01*
X8593516D01*
Y6398945D01*
X8594531D01*
Y6400977D01*
X8595547D01*
Y6404024D01*
X8596562D01*
Y6406055D01*
X8597578D01*
Y6408086D01*
X8598594D01*
Y6411133D01*
X8599609D01*
Y6413164D01*
X8600625D01*
Y6415195D01*
X8601641D01*
Y6418242D01*
X8602656D01*
Y6420273D01*
X8603672D01*
Y6422305D01*
X8604687D01*
Y6425351D01*
X8605703D01*
Y6427383D01*
X8606719D01*
Y6430430D01*
X8607734D01*
Y6432461D01*
X8608750D01*
Y6434492D01*
X8609766D01*
Y6437539D01*
X8610781D01*
Y6439570D01*
X8611797D01*
Y6441602D01*
X8612813D01*
Y6444648D01*
X8613828D01*
Y6446680D01*
X8614844D01*
Y6448711D01*
X8615859D01*
Y6451758D01*
X8616875D01*
Y6453789D01*
X8617891D01*
Y6455820D01*
X8618906D01*
Y6458867D01*
X8619922D01*
Y6460898D01*
X8620938D01*
Y6462930D01*
X8621953D01*
Y6465976D01*
X8622969D01*
Y6468008D01*
X8623984D01*
Y6470039D01*
X8625000D01*
Y6473086D01*
X8626016D01*
Y6475117D01*
X8627031D01*
Y6476133D01*
X8651406D01*
Y6475117D01*
X8653438D01*
Y6474102D01*
X8655469D01*
Y6473086D01*
X8656484D01*
Y6472070D01*
X8657500D01*
Y6470039D01*
X8658516D01*
Y6469023D01*
X8659531D01*
Y6466992D01*
X8660547D01*
Y6464961D01*
X8661563D01*
Y6462930D01*
X8662578D01*
Y6459883D01*
X8663594D01*
Y6457851D01*
X8664609D01*
Y6455820D01*
X8665625D01*
Y6452773D01*
X8666641D01*
Y6450742D01*
X8667656D01*
Y6448711D01*
X8668672D01*
Y6446680D01*
X8669688D01*
Y6443633D01*
X8670703D01*
Y6441602D01*
X8671719D01*
Y6439570D01*
X8672734D01*
Y6437539D01*
X8673750D01*
Y6434492D01*
X8674766D01*
Y6432461D01*
X8675781D01*
Y6430430D01*
X8676797D01*
Y6428398D01*
X8677812D01*
Y6425351D01*
X8678828D01*
Y6423320D01*
X8679844D01*
Y6421289D01*
X8680859D01*
Y6419258D01*
X8681875D01*
Y6416211D01*
X8682891D01*
Y6414180D01*
X8683906D01*
Y6412148D01*
X8684922D01*
Y6409101D01*
X8685937D01*
Y6407070D01*
X8686953D01*
Y6405039D01*
X8687969D01*
Y6403008D01*
X8688984D01*
Y6399961D01*
X8690000D01*
Y6397930D01*
X8691016D01*
Y6395898D01*
X8692031D01*
Y6393867D01*
X8693047D01*
Y6390820D01*
X8694063D01*
Y6388789D01*
X8695078D01*
Y6386758D01*
X8696094D01*
Y6384727D01*
X8697109D01*
Y6381680D01*
X8698125D01*
Y6379648D01*
X8699141D01*
Y6377617D01*
X8700156D01*
Y6375586D01*
X8701172D01*
Y6372539D01*
X8702188D01*
Y6370508D01*
X8703203D01*
Y6368476D01*
X8704219D01*
Y6366445D01*
X8705234D01*
Y6363398D01*
X8706250D01*
Y6361367D01*
X8707266D01*
Y6359336D01*
X8708281D01*
Y6356289D01*
X8709297D01*
Y6354258D01*
X8710313D01*
Y6352227D01*
X8711328D01*
Y6350195D01*
X8712344D01*
Y6347148D01*
X8713359D01*
Y6345117D01*
X8714375D01*
Y6343086D01*
X8715390D01*
Y6341055D01*
X8716406D01*
Y6338008D01*
X8717422D01*
Y6335976D01*
X8718437D01*
Y6333945D01*
X8719453D01*
Y6331914D01*
X8720469D01*
Y6328867D01*
X8721484D01*
Y6326836D01*
X8722500D01*
Y6324805D01*
X8723516D01*
Y6322773D01*
X8724531D01*
Y6319727D01*
X8725547D01*
Y6317695D01*
X8726562D01*
Y6315664D01*
X8727578D01*
Y6312617D01*
X8728594D01*
Y6310586D01*
X8729609D01*
Y6308555D01*
X8730625D01*
Y6306523D01*
X8731641D01*
Y6303477D01*
X8732656D01*
Y6301445D01*
X8733672D01*
Y6299414D01*
X8734687D01*
Y6297383D01*
X8735703D01*
Y6294336D01*
X8736719D01*
Y6292305D01*
X8737734D01*
Y6290273D01*
X8738750D01*
Y6288242D01*
X8739766D01*
Y6285195D01*
X8740781D01*
Y6283164D01*
X8741797D01*
Y6281133D01*
X8742813D01*
Y6278086D01*
X8743828D01*
Y6276055D01*
X8794609D01*
Y6277070D01*
X8799688D01*
Y6278086D01*
X8802734D01*
Y6279101D01*
X8805781D01*
Y6280117D01*
X8807812D01*
Y6281133D01*
X8808828D01*
Y6282148D01*
X8810859D01*
Y6283164D01*
X8811875D01*
Y6284180D01*
X8812891D01*
Y6285195D01*
X8813906D01*
Y6286211D01*
X8814922D01*
Y6287226D01*
X8815937D01*
Y6288242D01*
X8816953D01*
Y6289258D01*
X8817969D01*
Y6291289D01*
X8818984D01*
Y6292305D01*
X8820000D01*
Y6294336D01*
X8821016D01*
Y6297383D01*
X8822031D01*
Y6301445D01*
X8823047D01*
Y6308555D01*
X8824063D01*
Y6312617D01*
X8823047D01*
Y6319727D01*
X8822031D01*
Y6322773D01*
X8821016D01*
Y6324805D01*
X8820000D01*
Y6326836D01*
X8818984D01*
Y6327851D01*
X8817969D01*
Y6329883D01*
X8816953D01*
Y6330898D01*
X8815937D01*
Y6331914D01*
X8814922D01*
Y6332930D01*
X8812891D01*
Y6333945D01*
X8811875D01*
Y6334961D01*
X8809844D01*
Y6335976D01*
X8807812D01*
Y6336992D01*
X8805781D01*
Y6338008D01*
X8803750D01*
Y6339023D01*
X8801719D01*
Y6340039D01*
X8798672D01*
Y6341055D01*
X8795625D01*
Y6342070D01*
X8793594D01*
Y6343086D01*
X8790547D01*
Y6344102D01*
X8787500D01*
Y6345117D01*
X8784453D01*
Y6346133D01*
X8781406D01*
Y6347148D01*
X8778359D01*
Y6348164D01*
X8776328D01*
Y6349180D01*
X8773281D01*
Y6350195D01*
X8770234D01*
Y6351211D01*
X8766172D01*
Y6352227D01*
X8763125D01*
Y6353242D01*
X8761094D01*
Y6354258D01*
X8758047D01*
Y6355273D01*
X8755000D01*
Y6356289D01*
X8751953D01*
Y6357305D01*
X8748906D01*
Y6358320D01*
X8746875D01*
Y6359336D01*
X8743828D01*
Y6360352D01*
X8741797D01*
Y6361367D01*
X8739766D01*
Y6362383D01*
X8737734D01*
Y6363398D01*
X8735703D01*
Y6364414D01*
X8733672D01*
Y6365430D01*
X8731641D01*
Y6366445D01*
X8730625D01*
Y6367461D01*
X8728594D01*
Y6368476D01*
X8727578D01*
Y6369492D01*
X8726562D01*
Y6370508D01*
X8724531D01*
Y6371523D01*
X8723516D01*
Y6372539D01*
X8722500D01*
Y6373555D01*
X8721484D01*
Y6374570D01*
X8720469D01*
Y6375586D01*
X8719453D01*
Y6376601D01*
X8718437D01*
Y6377617D01*
X8717422D01*
Y6378633D01*
X8716406D01*
Y6379648D01*
X8715390D01*
Y6381680D01*
X8714375D01*
Y6382695D01*
X8713359D01*
Y6384727D01*
X8712344D01*
Y6386758D01*
X8711328D01*
Y6388789D01*
X8710313D01*
Y6390820D01*
X8709297D01*
Y6393867D01*
X8708281D01*
Y6397930D01*
X8707266D01*
Y6401992D01*
X8706250D01*
Y6425351D01*
X8707266D01*
Y6429414D01*
X8708281D01*
Y6433477D01*
X8709297D01*
Y6435508D01*
X8710313D01*
Y6438555D01*
X8711328D01*
Y6440586D01*
X8712344D01*
Y6442617D01*
X8713359D01*
Y6444648D01*
X8714375D01*
Y6445664D01*
X8715390D01*
Y6447695D01*
X8716406D01*
Y6448711D01*
X8717422D01*
Y6450742D01*
X8718437D01*
Y6451758D01*
X8719453D01*
Y6452773D01*
X8720469D01*
Y6453789D01*
X8721484D01*
Y6454805D01*
X8722500D01*
Y6455820D01*
X8723516D01*
Y6457851D01*
X8725547D01*
Y6458867D01*
X8726562D01*
Y6459883D01*
X8727578D01*
Y6460898D01*
X8728594D01*
Y6461914D01*
X8729609D01*
Y6462930D01*
X8731641D01*
Y6463945D01*
X8732656D01*
Y6464961D01*
X8734687D01*
Y6465976D01*
X8735703D01*
Y6466992D01*
X8737734D01*
Y6468008D01*
X8739766D01*
Y6469023D01*
X8741797D01*
Y6470039D01*
X8743828D01*
Y6471055D01*
X8745859D01*
Y6472070D01*
X8748906D01*
Y6473086D01*
X8751953D01*
Y6474102D01*
X8756016D01*
Y6475117D01*
X8763125D01*
Y6476133D01*
X8915469D01*
Y6475117D01*
D02*
G37*
G36*
X9259766Y6277070D02*
X9258750D01*
Y6275039D01*
X9257734D01*
Y6274024D01*
X9256719D01*
Y6276055D01*
X9257734D01*
Y6278086D01*
X9258750D01*
Y6279101D01*
X9259766D01*
Y6277070D01*
D02*
G37*
G36*
X9210000Y6274024D02*
X9208984D01*
Y6275039D01*
X9210000D01*
Y6274024D01*
D02*
G37*
G36*
X9256719Y6273008D02*
X9255703D01*
Y6274024D01*
X9256719D01*
Y6273008D01*
D02*
G37*
G36*
X9131797Y6294336D02*
X9133828D01*
Y6293320D01*
X9134844D01*
Y6292305D01*
X9135859D01*
Y6291289D01*
X9136875D01*
Y6290273D01*
X9138906D01*
Y6289258D01*
X9139922D01*
Y6288242D01*
X9140938D01*
Y6287226D01*
X9142969D01*
Y6286211D01*
X9143984D01*
Y6285195D01*
X9146015D01*
Y6284180D01*
X9148047D01*
Y6283164D01*
X9150078D01*
Y6282148D01*
X9152109D01*
Y6281133D01*
X9154141D01*
Y6280117D01*
X9157187D01*
Y6279101D01*
X9160234D01*
Y6278086D01*
X9163281D01*
Y6277070D01*
X9167344D01*
Y6276055D01*
X9172422D01*
Y6275039D01*
X9197812D01*
Y6276055D01*
X9203906D01*
Y6277070D01*
X9206953D01*
Y6278086D01*
X9210000D01*
Y6279101D01*
X9213047D01*
Y6278086D01*
X9211016D01*
Y6277070D01*
X9207969D01*
Y6276055D01*
X9204922D01*
Y6275039D01*
X9199844D01*
Y6274024D01*
X9191719D01*
Y6273008D01*
X9177500D01*
Y6274024D01*
X9170391D01*
Y6275039D01*
X9165312D01*
Y6276055D01*
X9162266D01*
Y6275039D01*
X9165312D01*
Y6274024D01*
X9170391D01*
Y6273008D01*
X9177500D01*
Y6271992D01*
X9176484D01*
Y6269961D01*
X9175469D01*
Y6268945D01*
X9176484D01*
Y6267930D01*
X9177500D01*
Y6265898D01*
X9175469D01*
Y6266914D01*
X9174453D01*
Y6269961D01*
X9173438D01*
Y6270977D01*
X9175469D01*
Y6271992D01*
X9172422D01*
Y6268945D01*
X9173438D01*
Y6267930D01*
X9171406D01*
Y6266914D01*
X9174453D01*
Y6265898D01*
X9173438D01*
Y6264883D01*
X9172422D01*
Y6265898D01*
X9171406D01*
Y6264883D01*
X9170391D01*
Y6265898D01*
X9169375D01*
Y6263867D01*
X9168359D01*
Y6262852D01*
X9167344D01*
Y6263867D01*
X9166328D01*
Y6261836D01*
X9165312D01*
Y6263867D01*
X9164297D01*
Y6264883D01*
X9163281D01*
Y6263867D01*
X9164297D01*
Y6261836D01*
X9163281D01*
Y6262852D01*
X9161250D01*
Y6261836D01*
X9163281D01*
Y6260820D01*
X9162266D01*
Y6259805D01*
X9163281D01*
Y6258789D01*
X9161250D01*
Y6259805D01*
X9160234D01*
Y6256758D01*
X9159219D01*
Y6257773D01*
X9158203D01*
Y6256758D01*
X9156172D01*
Y6257773D01*
X9155156D01*
Y6255742D01*
X9156172D01*
Y6254727D01*
X9155156D01*
Y6253711D01*
X9154141D01*
Y6254727D01*
X9153125D01*
Y6253711D01*
X9154141D01*
Y6252695D01*
X9153125D01*
Y6253711D01*
X9151094D01*
Y6254727D01*
X9150078D01*
Y6253711D01*
X9151094D01*
Y6251680D01*
X9152109D01*
Y6249648D01*
X9153125D01*
Y6248633D01*
X9152109D01*
Y6249648D01*
X9150078D01*
Y6251680D01*
X9148047D01*
Y6252695D01*
X9146015D01*
Y6251680D01*
X9147031D01*
Y6250664D01*
X9146015D01*
Y6251680D01*
X9145000D01*
Y6252695D01*
X9140938D01*
Y6251680D01*
X9142969D01*
Y6250664D01*
X9146015D01*
Y6249648D01*
X9149062D01*
Y6248633D01*
X9152109D01*
Y6247617D01*
X9156172D01*
Y6246601D01*
X9160234D01*
Y6245586D01*
X9165312D01*
Y6244570D01*
X9174453D01*
Y6243555D01*
X9196797D01*
Y6244570D01*
X9204922D01*
Y6245586D01*
X9211016D01*
Y6244570D01*
X9205937D01*
Y6243555D01*
X9198828D01*
Y6242539D01*
X9172422D01*
Y6243555D01*
X9164297D01*
Y6244570D01*
X9159219D01*
Y6245586D01*
X9154141D01*
Y6246601D01*
X9151094D01*
Y6247617D01*
X9147031D01*
Y6248633D01*
X9145000D01*
Y6249648D01*
X9141953D01*
Y6250664D01*
X9139922D01*
Y6251680D01*
X9136875D01*
Y6252695D01*
X9134844D01*
Y6253711D01*
X9133828D01*
Y6254727D01*
X9131797D01*
Y6255742D01*
X9129766D01*
Y6256758D01*
X9127734D01*
Y6257773D01*
X9126719D01*
Y6258789D01*
X9124687D01*
Y6259805D01*
X9123672D01*
Y6260820D01*
X9121641D01*
Y6261836D01*
X9120625D01*
Y6262852D01*
X9119609D01*
Y6263867D01*
X9118594D01*
Y6264883D01*
X9116562D01*
Y6265898D01*
X9115547D01*
Y6266914D01*
X9114531D01*
Y6267930D01*
X9113516D01*
Y6268945D01*
X9112500D01*
Y6269961D01*
X9111484D01*
Y6270977D01*
X9110469D01*
Y6271992D01*
X9109453D01*
Y6273008D01*
X9108437D01*
Y6275039D01*
X9107422D01*
Y6276055D01*
X9108437D01*
Y6277070D01*
X9109453D01*
Y6278086D01*
X9110469D01*
Y6279101D01*
X9111484D01*
Y6280117D01*
X9112500D01*
Y6281133D01*
X9113516D01*
Y6282148D01*
X9115547D01*
Y6283164D01*
X9116562D01*
Y6284180D01*
X9117578D01*
Y6285195D01*
X9118594D01*
Y6286211D01*
X9119609D01*
Y6287226D01*
X9120625D01*
Y6288242D01*
X9122656D01*
Y6289258D01*
X9123672D01*
Y6290273D01*
X9124687D01*
Y6291289D01*
X9125703D01*
Y6292305D01*
X9126719D01*
Y6293320D01*
X9128750D01*
Y6294336D01*
X9129766D01*
Y6295351D01*
X9130781D01*
Y6296367D01*
X9131797D01*
Y6294336D01*
D02*
G37*
G36*
X9180547Y6270977D02*
X9179531D01*
Y6271992D01*
X9180547D01*
Y6270977D01*
D02*
G37*
G36*
X9255703D02*
X9254687D01*
Y6269961D01*
X9253672D01*
Y6271992D01*
X9254687D01*
Y6273008D01*
X9255703D01*
Y6270977D01*
D02*
G37*
G36*
X9253672Y6268945D02*
X9252656D01*
Y6269961D01*
X9253672D01*
Y6268945D01*
D02*
G37*
G36*
X9182578D02*
X9181563D01*
Y6269961D01*
X9182578D01*
Y6268945D01*
D02*
G37*
G36*
X9252656Y6267930D02*
X9251641D01*
Y6268945D01*
X9252656D01*
Y6267930D01*
D02*
G37*
G36*
X9180547D02*
X9179531D01*
Y6268945D01*
X9180547D01*
Y6267930D01*
D02*
G37*
G36*
X9178516D02*
X9177500D01*
Y6268945D01*
X9178516D01*
Y6267930D01*
D02*
G37*
G36*
X9251641Y6266914D02*
X9250625D01*
Y6267930D01*
X9251641D01*
Y6266914D01*
D02*
G37*
G36*
X9250625Y6265898D02*
X9249609D01*
Y6266914D01*
X9250625D01*
Y6265898D01*
D02*
G37*
G36*
X9180547D02*
X9179531D01*
Y6266914D01*
X9180547D01*
Y6265898D01*
D02*
G37*
G36*
X9249609Y6263867D02*
X9248594D01*
Y6262852D01*
X9246562D01*
Y6263867D01*
X9247578D01*
Y6264883D01*
X9248594D01*
Y6265898D01*
X9249609D01*
Y6263867D01*
D02*
G37*
G36*
X9171406Y6262852D02*
X9170391D01*
Y6263867D01*
X9171406D01*
Y6262852D01*
D02*
G37*
G36*
X9246562Y6261836D02*
X9245547D01*
Y6262852D01*
X9246562D01*
Y6261836D01*
D02*
G37*
G36*
X9245547Y6260820D02*
X9244531D01*
Y6261836D01*
X9245547D01*
Y6260820D01*
D02*
G37*
G36*
X9244531Y6259805D02*
X9243516D01*
Y6258789D01*
X9241484D01*
Y6259805D01*
X9242500D01*
Y6260820D01*
X9244531D01*
Y6259805D01*
D02*
G37*
G36*
X9166328Y6258789D02*
X9165312D01*
Y6259805D01*
X9166328D01*
Y6258789D01*
D02*
G37*
G36*
X9241484Y6257773D02*
X9240469D01*
Y6258789D01*
X9241484D01*
Y6257773D01*
D02*
G37*
G36*
X9240469Y6256758D02*
X9238437D01*
Y6257773D01*
X9240469D01*
Y6256758D01*
D02*
G37*
G36*
X9238437Y6255742D02*
X9237422D01*
Y6256758D01*
X9238437D01*
Y6255742D01*
D02*
G37*
G36*
X9237422Y6254727D02*
X9235390D01*
Y6255742D01*
X9237422D01*
Y6254727D01*
D02*
G37*
G36*
X9235390Y6253711D02*
X9234375D01*
Y6252695D01*
X9232344D01*
Y6251680D01*
X9230313D01*
Y6250664D01*
X9227266D01*
Y6251680D01*
X9229297D01*
Y6252695D01*
X9231328D01*
Y6253711D01*
X9233359D01*
Y6254727D01*
X9235390D01*
Y6253711D01*
D02*
G37*
G36*
X9227266Y6249648D02*
X9225234D01*
Y6250664D01*
X9227266D01*
Y6249648D01*
D02*
G37*
G36*
X9225234Y6248633D02*
X9222188D01*
Y6249648D01*
X9225234D01*
Y6248633D01*
D02*
G37*
G36*
X9161250D02*
X9160234D01*
Y6249648D01*
X9161250D01*
Y6248633D01*
D02*
G37*
G36*
X9155156D02*
X9154141D01*
Y6249648D01*
X9155156D01*
Y6248633D01*
D02*
G37*
G36*
X9222188Y6247617D02*
X9219141D01*
Y6248633D01*
X9222188D01*
Y6247617D01*
D02*
G37*
G36*
X9219141Y6246601D02*
X9216094D01*
Y6247617D01*
X9219141D01*
Y6246601D01*
D02*
G37*
G36*
X9163281D02*
X9162266D01*
Y6247617D01*
X9163281D01*
Y6246601D01*
D02*
G37*
G36*
X9216094Y6245586D02*
X9211016D01*
Y6246601D01*
X9216094D01*
Y6245586D01*
D02*
G37*
G36*
X9166328D02*
X9165312D01*
Y6246601D01*
X9166328D01*
Y6245586D01*
D02*
G37*
%LPC*%
G36*
X9245547Y6357305D02*
X9244531D01*
Y6356289D01*
X9245547D01*
Y6357305D01*
D02*
G37*
G36*
X9254687Y6349180D02*
X9253672D01*
Y6348164D01*
X9254687D01*
Y6349180D01*
D02*
G37*
G36*
X9256719Y6347148D02*
X9255703D01*
Y6345117D01*
X9256719D01*
Y6344102D01*
X9257734D01*
Y6342070D01*
X9258750D01*
Y6341055D01*
X9259766D01*
Y6342070D01*
X9258750D01*
Y6344102D01*
X9257734D01*
Y6345117D01*
X9256719D01*
Y6347148D01*
D01*
D01*
D02*
G37*
G36*
X9197812Y6342070D02*
X9196797D01*
Y6341055D01*
X9197812D01*
Y6342070D01*
D02*
G37*
G36*
X9251641Y6336992D02*
X9250625D01*
Y6335976D01*
X9251641D01*
Y6336992D01*
D02*
G37*
G36*
X9216094Y6335976D02*
X9215078D01*
Y6334961D01*
X9216094D01*
Y6335976D01*
D02*
G37*
G36*
X9218125Y6334961D02*
X9217109D01*
Y6333945D01*
X9218125D01*
Y6334961D01*
D02*
G37*
G36*
X9255703Y6333945D02*
X9254687D01*
Y6332930D01*
X9255703D01*
Y6333945D01*
D02*
G37*
G36*
X9253672Y6332930D02*
X9252656D01*
Y6331914D01*
X9253672D01*
Y6332930D01*
D02*
G37*
G36*
X9223203D02*
X9222188D01*
Y6331914D01*
X9223203D01*
Y6332930D01*
D02*
G37*
G36*
X9248594Y6330898D02*
X9247578D01*
Y6329883D01*
X9248594D01*
Y6330898D01*
D02*
G37*
G36*
X9226250D02*
X9225234D01*
Y6329883D01*
X9226250D01*
Y6330898D01*
D02*
G37*
G36*
X9251641Y6329883D02*
X9249609D01*
Y6328867D01*
X9251641D01*
Y6327851D01*
X9252656D01*
Y6328867D01*
X9251641D01*
Y6329883D01*
D02*
G37*
G36*
X9245547Y6327851D02*
X9244531D01*
Y6326836D01*
X9245547D01*
Y6327851D01*
D02*
G37*
G36*
X9230313Y6326836D02*
X9229297D01*
Y6325820D01*
X9230313D01*
Y6326836D01*
D02*
G37*
G36*
X9245547Y6324805D02*
X9244531D01*
Y6323789D01*
X9245547D01*
Y6324805D01*
D02*
G37*
G36*
X9240469Y6322773D02*
X9239453D01*
Y6321758D01*
X9240469D01*
Y6322773D01*
D02*
G37*
G36*
X9233359D02*
X9232344D01*
Y6321758D01*
X9233359D01*
Y6322773D01*
D02*
G37*
G36*
X9234375Y6320742D02*
X9233359D01*
Y6319727D01*
X9234375D01*
Y6320742D01*
D02*
G37*
G36*
X8923594Y6417226D02*
X8922578D01*
Y6415195D01*
X8921563D01*
Y6413164D01*
X8920547D01*
Y6411133D01*
X8919531D01*
Y6408086D01*
X8918516D01*
Y6406055D01*
X8917500D01*
Y6404023D01*
X8916484D01*
Y6400977D01*
X8915469D01*
Y6398945D01*
X8914453D01*
Y6395898D01*
X8913438D01*
Y6393867D01*
X8912422D01*
Y6391836D01*
X8911406D01*
Y6388789D01*
X8910391D01*
Y6386758D01*
X8909375D01*
Y6383711D01*
X8908359D01*
Y6381680D01*
X8907344D01*
Y6378633D01*
X8906328D01*
Y6376601D01*
X8905312D01*
Y6374570D01*
X8904297D01*
Y6371523D01*
X8903281D01*
Y6369492D01*
X8902266D01*
Y6366445D01*
X8901250D01*
Y6364414D01*
X8900234D01*
Y6362383D01*
X8899219D01*
Y6359336D01*
X8898203D01*
Y6357305D01*
X8897187D01*
Y6354258D01*
X8896172D01*
Y6352227D01*
X8895156D01*
Y6350195D01*
X8894141D01*
Y6347148D01*
X8893125D01*
Y6345117D01*
X8892109D01*
Y6343086D01*
X8891094D01*
Y6342070D01*
X8957109D01*
Y6343086D01*
X8956094D01*
Y6345117D01*
X8955078D01*
Y6347148D01*
X8954062D01*
Y6349180D01*
X8953047D01*
Y6351211D01*
X8952031D01*
Y6354258D01*
X8951016D01*
Y6356289D01*
X8950000D01*
Y6358320D01*
X8948984D01*
Y6361367D01*
X8947969D01*
Y6363398D01*
X8946953D01*
Y6365430D01*
X8945937D01*
Y6367461D01*
X8944922D01*
Y6370508D01*
X8943906D01*
Y6372539D01*
X8942891D01*
Y6374570D01*
X8941875D01*
Y6376601D01*
X8940859D01*
Y6379648D01*
X8939844D01*
Y6381680D01*
X8938828D01*
Y6383711D01*
X8937812D01*
Y6385742D01*
Y6386758D01*
X8936797D01*
Y6388789D01*
X8935781D01*
Y6390820D01*
X8934766D01*
Y6392852D01*
X8933750D01*
Y6395898D01*
X8932734D01*
Y6397930D01*
X8931719D01*
Y6399961D01*
X8930703D01*
Y6401992D01*
X8929688D01*
Y6405039D01*
X8928672D01*
Y6407070D01*
X8927656D01*
Y6409101D01*
X8926641D01*
Y6411133D01*
X8925625D01*
Y6414180D01*
X8924609D01*
Y6416211D01*
X8923594D01*
Y6417226D01*
D02*
G37*
G36*
X9153125Y6280117D02*
X9152109D01*
Y6279101D01*
X9153125D01*
Y6280117D01*
D02*
G37*
G36*
X9155156Y6279101D02*
X9154141D01*
Y6278086D01*
X9155156D01*
Y6279101D01*
D02*
G37*
G36*
X9157187Y6278086D02*
X9156172D01*
Y6277070D01*
X9157187D01*
Y6278086D01*
D02*
G37*
G36*
X9161250Y6277070D02*
X9159219D01*
Y6276055D01*
X9161250D01*
Y6277070D01*
D02*
G37*
G36*
X9168359Y6265898D02*
X9167344D01*
Y6264883D01*
X9168359D01*
Y6265898D01*
D02*
G37*
G36*
X9162266Y6264883D02*
X9161250D01*
Y6263867D01*
X9162266D01*
Y6264883D01*
D02*
G37*
G36*
X9158203D02*
X9157187D01*
Y6263867D01*
X9158203D01*
Y6264883D01*
D02*
G37*
G36*
X9150078Y6256758D02*
X9149062D01*
Y6255742D01*
X9150078D01*
Y6256758D01*
D02*
G37*
G36*
X9126719Y6260820D02*
X9125703D01*
Y6259805D01*
X9126719D01*
Y6258789D01*
X9128750D01*
Y6257773D01*
X9130781D01*
Y6256758D01*
X9131797D01*
Y6255742D01*
X9133828D01*
Y6254727D01*
X9134844D01*
Y6255742D01*
X9133828D01*
Y6256758D01*
X9131797D01*
Y6257773D01*
X9130781D01*
Y6258789D01*
X9128750D01*
Y6259805D01*
X9126719D01*
Y6260820D01*
D02*
G37*
G36*
X9137891Y6254727D02*
X9135859D01*
Y6253711D01*
X9136875D01*
X9137891Y6252695D01*
X9139922D01*
Y6253711D01*
X9137891D01*
Y6254727D01*
D02*
G37*
%LPD*%
D48*
X8841100Y8571100D02*
G03*
X8841100Y8571100I-30000J0D01*
G01*
D49*
X8593600Y8716100D02*
G03*
X8593600Y8716100I-12500J0D01*
G01*
X7632500Y9489500D02*
G03*
X7632500Y9489500I-12500J0D01*
G01*
X7282500Y8502500D02*
G03*
X7282500Y8502500I-12500J0D01*
G01*
X6382500Y7410000D02*
G03*
X6382500Y7410000I-12500J0D01*
G01*
X7635000Y10400000D02*
G03*
X7635000Y10400000I-12500J0D01*
G01*
X6375000Y9747500D02*
G03*
X6375000Y9747500I-12500J0D01*
G01*
X6728500Y7190500D02*
G03*
X6728500Y7190500I-12500J0D01*
G01*
X8447500Y9592500D02*
G03*
X8447500Y9592500I-12500J0D01*
G01*
X7949500Y5710000D02*
G03*
X7949500Y5710000I-12500J0D01*
G01*
X10445000Y10235000D02*
G03*
X10445000Y10235000I-12500J0D01*
G01*
D50*
X7725000Y5690000D02*
G03*
X7725000Y5690000I-10000J0D01*
G01*
X8711100Y7421100D02*
X9961100D01*
X8711100Y8671100D02*
X9961100D01*
Y7421100D02*
Y8671100D01*
X8711100Y7421100D02*
Y8671100D01*
X11580500Y5921500D02*
Y10290500D01*
X11085500D02*
X11580500D01*
X11085500Y5921500D02*
Y10290500D01*
Y5921500D02*
X11580500D01*
X7595250Y8984750D02*
Y9335250D01*
X6944750Y8984750D02*
X7595250D01*
X6944750D02*
Y9335250D01*
X7595250D01*
X7505000Y7695000D02*
Y8435000D01*
X6930000Y7695000D02*
X7505000D01*
X6930000D02*
Y8435000D01*
X7505000D01*
X6030000Y6115000D02*
Y7355000D01*
X6605000D01*
Y6115000D02*
Y7355000D01*
X6030000Y6115000D02*
X6605000D01*
X7555000Y10165000D02*
Y10740000D01*
X6815000D02*
X7555000D01*
X6815000Y10165000D02*
Y10740000D01*
Y10165000D02*
X7555000D01*
X6022500Y9680000D02*
X6597500D01*
X6022500Y8940000D02*
Y9680000D01*
Y8940000D02*
X6597500D01*
Y9680000D01*
X7830715Y8200000D02*
Y8323073D01*
X7920000D01*
X6014991Y7709981D02*
X6014993Y8709987D01*
X6177493Y8769987D02*
X6262493D01*
X6254993Y8709987D02*
X6262493Y8769987D01*
X6177493D02*
X6184993Y8709987D01*
X6014993D02*
X6184993D01*
X6764991Y7709981D02*
Y8709987D01*
X6254993D02*
X6764991D01*
X6579991Y7649981D02*
X6674991D01*
X6669991Y7709981D02*
X6674991Y7649981D01*
X6579991D02*
X6584991Y7709981D01*
X6669991D02*
X6764991D01*
X6014991D02*
X6584991D01*
X6816000Y6963000D02*
X7716000D01*
X7786000Y7418000D01*
X6746000D02*
X6816000Y6963000D01*
X6746000Y7418000D02*
X7786000D01*
X8182500Y9840000D02*
X8217500D01*
X8112500Y9662500D02*
Y9717500D01*
X8182500Y9540000D02*
X8217500D01*
X7960000Y9290000D02*
X8120000D01*
X7960000Y9220000D02*
Y9290000D01*
X8120000Y9220000D02*
Y9290000D01*
X7982000Y5575500D02*
X9536000D01*
X7982000D02*
Y5844500D01*
X9536000D01*
Y5575500D02*
Y5844500D01*
X10704500Y10285000D02*
Y10552500D01*
X9895500Y10285000D02*
Y10552500D01*
Y10285000D02*
X9942500D01*
X10657500D02*
X10704500D01*
D51*
X7035000Y5759500D02*
Y5995500D01*
X7545000Y5759500D02*
Y5995500D01*
X7065000Y5622500D02*
X7515000D01*
X7065000Y6132500D02*
X7515000D01*
X9171250Y10023750D02*
Y10456250D01*
X8808750Y10023750D02*
Y10456250D01*
Y10023750D02*
X8852000D01*
X9128000D02*
X9171250D01*
X8808750Y10456250D02*
X8852000D01*
X9128000D02*
X9171250D01*
X9723750Y10201250D02*
X10156250D01*
X9723750Y9838750D02*
X10156250D01*
Y9882000D01*
Y10158000D02*
Y10201250D01*
X9723750Y9838750D02*
Y9882000D01*
Y10158000D02*
Y10201250D01*
X10786250Y9388750D02*
Y9432000D01*
Y9708000D02*
Y9751250D01*
X10353750Y9388750D02*
Y9432000D01*
Y9708000D02*
Y9751250D01*
X10786250D01*
X10353750Y9388750D02*
X10786250D01*
D52*
X6695400Y6395368D02*
Y6312061D01*
X6712062Y6295400D01*
X6745384D01*
X6762045Y6312061D01*
Y6395368D01*
X6795368Y6295400D02*
Y6362045D01*
X6828690Y6395368D01*
X6862013Y6362045D01*
Y6295400D01*
Y6345384D01*
X6795368D01*
X6895336Y6295400D02*
Y6395368D01*
X6945320D01*
X6961981Y6378706D01*
Y6345384D01*
X6945320Y6328722D01*
X6895336D01*
X6928658D02*
X6961981Y6295400D01*
X6995304Y6395368D02*
X7061949D01*
X7028626D01*
Y6295400D01*
X8135400Y9058723D02*
X8202045D01*
X8168723Y9092045D02*
Y9025400D01*
X9786694Y9059984D02*
Y8976677D01*
X9803355Y8960016D01*
X9836678D01*
X9853339Y8976677D01*
Y9059984D01*
X9953306Y8960016D02*
X9886661D01*
X9953306Y9026661D01*
Y9043323D01*
X9936645Y9059984D01*
X9903323D01*
X9886661Y9043323D01*
X7965400Y5956183D02*
X8066967D01*
X8016184Y6006967D02*
Y5905400D01*
X8135400D02*
Y6005368D01*
X8185384D01*
X8202045Y5988706D01*
Y5955384D01*
X8185384Y5938722D01*
X8135400D01*
X8168723D02*
X8202045Y5905400D01*
X8302013Y5988706D02*
X8285352Y6005368D01*
X8252029D01*
X8235368Y5988706D01*
Y5972045D01*
X8252029Y5955384D01*
X8285352D01*
X8302013Y5938722D01*
Y5922061D01*
X8285352Y5905400D01*
X8252029D01*
X8235368Y5922061D01*
X8335336Y6005368D02*
X8401981D01*
X8368658D01*
Y5905400D01*
X8542045Y5988706D02*
X8525384Y6005368D01*
X8492062D01*
X8475400Y5988706D01*
Y5922061D01*
X8492062Y5905400D01*
X8525384D01*
X8542045Y5922061D01*
X8575368Y6005368D02*
Y5905400D01*
X8642013D01*
X8675336Y6005368D02*
Y5905400D01*
Y5938722D01*
X8741981Y6005368D01*
X8691997Y5955384D01*
X8741981Y5905400D01*
X8815400Y6005368D02*
Y5905400D01*
X8865384D01*
X8882045Y5922061D01*
Y5988706D01*
X8865384Y6005368D01*
X8815400D01*
X8915368D02*
X8948690D01*
X8932029D01*
Y5905400D01*
X8915368D01*
X8948690D01*
X9048658Y6005368D02*
X9015336D01*
X8998674Y5988706D01*
Y5922061D01*
X9015336Y5905400D01*
X9048658D01*
X9065319Y5922061D01*
Y5988706D01*
X9048658Y6005368D01*
X9192045Y5988706D02*
X9175384Y6005368D01*
X9142061D01*
X9125400Y5988706D01*
Y5972045D01*
X9142061Y5955384D01*
X9175384D01*
X9192045Y5938722D01*
Y5922061D01*
X9175384Y5905400D01*
X9142061D01*
X9125400Y5922061D01*
X9225368Y6005368D02*
Y5905400D01*
X9258690Y5938722D01*
X9292013Y5905400D01*
Y6005368D01*
X9375319D02*
X9341997D01*
X9325335Y5988706D01*
Y5922061D01*
X9341997Y5905400D01*
X9375319D01*
X9391980Y5922061D01*
Y5988706D01*
X9375319Y6005368D01*
X9455400Y5945400D02*
X9556967D01*
X9736967Y5762359D02*
X9711575Y5787751D01*
X9660792D01*
X9635400Y5762359D01*
Y5736967D01*
X9660792Y5711575D01*
X9711575D01*
X9736967Y5686183D01*
Y5660792D01*
X9711575Y5635400D01*
X9660792D01*
X9635400Y5660792D01*
X9787751Y5787751D02*
Y5635400D01*
X9838534Y5686183D01*
X9889318Y5635400D01*
Y5787751D01*
X9940102D02*
Y5635400D01*
X10016277D01*
X10041669Y5660792D01*
Y5762359D01*
X10016277Y5787751D01*
X9940102D01*
X10992045Y5725368D02*
X10925400D01*
Y5675384D01*
X10958723Y5692045D01*
X10975384D01*
X10992045Y5675384D01*
Y5642061D01*
X10975384Y5625400D01*
X10942061D01*
X10925400Y5642061D01*
X11025368Y5625400D02*
X11092013Y5692045D01*
X11191981Y5625400D02*
X11125336D01*
X11191981Y5692045D01*
Y5708706D01*
X11175320Y5725368D01*
X11141997D01*
X11125336Y5708706D01*
X11225303Y5642061D02*
X11241965Y5625400D01*
X11275287D01*
X11291948Y5642061D01*
Y5708706D01*
X11275287Y5725368D01*
X11241965D01*
X11225303Y5708706D01*
Y5692045D01*
X11241965Y5675384D01*
X11291948D01*
X11325271Y5625400D02*
X11391916Y5692045D01*
X11491884Y5625400D02*
X11425239D01*
X11491884Y5692045D01*
Y5708706D01*
X11475223Y5725368D01*
X11441900D01*
X11425239Y5708706D01*
X11591852Y5725368D02*
X11525207D01*
Y5675384D01*
X11558529Y5692045D01*
X11575191D01*
X11591852Y5675384D01*
Y5642061D01*
X11575191Y5625400D01*
X11541868D01*
X11525207Y5642061D01*
X6185400Y7535384D02*
X6252045D01*
X6218723Y7568706D02*
Y7502061D01*
X6352013Y7485400D02*
X6285368D01*
X6352013Y7552045D01*
Y7568706D01*
X6335352Y7585368D01*
X6302029D01*
X6285368Y7568706D01*
X6435320Y7485400D02*
Y7585368D01*
X6385336Y7535384D01*
X6451981D01*
X6485304Y7585368D02*
Y7518723D01*
X6518626Y7485400D01*
X6551949Y7518723D01*
Y7585368D01*
X6665400Y9168723D02*
X6732045D01*
X6698722Y9202045D02*
Y9135400D01*
X7565400Y7898723D02*
X7632045D01*
X7598722Y7932045D02*
Y7865400D01*
X7032045Y8655368D02*
X6965400D01*
Y8605384D01*
X6998723D01*
X6965400D01*
Y8555400D01*
X7065368D02*
Y8622045D01*
X7098690Y8655368D01*
X7132013Y8622045D01*
Y8555400D01*
Y8605384D01*
X7065368D01*
X7165336Y8555400D02*
Y8655368D01*
X7231981Y8555400D01*
Y8655368D01*
X7431916Y8555400D02*
X7365271D01*
X7431916Y8622045D01*
Y8638706D01*
X7415255Y8655368D01*
X7381933D01*
X7365271Y8638706D01*
X6162045Y9915368D02*
X6095400D01*
Y9865384D01*
X6128723D01*
X6095400D01*
Y9815400D01*
X6195368D02*
Y9882045D01*
X6228690Y9915368D01*
X6262013Y9882045D01*
Y9815400D01*
Y9865384D01*
X6195368D01*
X6295336Y9815400D02*
Y9915368D01*
X6361981Y9815400D01*
Y9915368D01*
X6495271Y9815400D02*
X6528594D01*
X6511933D01*
Y9915368D01*
X6495271Y9898706D01*
X7445400Y6285400D02*
Y6385368D01*
X7495384D01*
X7512045Y6368706D01*
Y6335384D01*
X7495384Y6318722D01*
X7445400D01*
X7478722D02*
X7512045Y6285400D01*
X7612013Y6385368D02*
X7545368D01*
Y6285400D01*
X7612013D01*
X7545368Y6335384D02*
X7578690D01*
X7711981Y6368706D02*
X7695319Y6385368D01*
X7661997D01*
X7645335Y6368706D01*
Y6352045D01*
X7661997Y6335384D01*
X7695319D01*
X7711981Y6318722D01*
Y6302061D01*
X7695319Y6285400D01*
X7661997D01*
X7645335Y6302061D01*
X7811948Y6385368D02*
X7745303D01*
Y6285400D01*
X7811948D01*
X7745303Y6335384D02*
X7778626D01*
X7845271Y6385368D02*
X7911916D01*
X7878594D01*
Y6285400D01*
X10915400Y6125368D02*
X10982045Y6025400D01*
Y6125368D02*
X10915400Y6025400D01*
X9385400Y10567751D02*
Y10440792D01*
X9410792Y10415400D01*
X9461575D01*
X9486967Y10440792D01*
Y10567751D01*
X9639318Y10542359D02*
X9613926Y10567751D01*
X9563143D01*
X9537751Y10542359D01*
Y10516967D01*
X9563143Y10491575D01*
X9613926D01*
X9639318Y10466184D01*
Y10440792D01*
X9613926Y10415400D01*
X9563143D01*
X9537751Y10440792D01*
X9690102Y10567751D02*
Y10415400D01*
X9766277D01*
X9791669Y10440792D01*
Y10466184D01*
X9766277Y10491575D01*
X9690102D01*
X9766277D01*
X9791669Y10516967D01*
Y10542359D01*
X9766277Y10567751D01*
X9690102D01*
X7675400Y10461575D02*
X7776967D01*
X7726183Y10512359D02*
Y10410792D01*
X7929318Y10537751D02*
X7827751D01*
Y10461575D01*
X7878534Y10486967D01*
X7903926D01*
X7929318Y10461575D01*
Y10410792D01*
X7903926Y10385400D01*
X7853143D01*
X7827751Y10410792D01*
X7980101Y10537751D02*
Y10436184D01*
X8030885Y10385400D01*
X8081669Y10436184D01*
Y10537751D01*
X6795400Y6535400D02*
Y6635368D01*
X6845384D01*
X6862045Y6618706D01*
Y6585384D01*
X6845384Y6568722D01*
X6795400D01*
X6828722D02*
X6862045Y6535400D01*
X6895368Y6635368D02*
X6962013Y6535400D01*
Y6635368D02*
X6895368Y6535400D01*
X6785400Y6865368D02*
X6852045D01*
X6818722D01*
Y6765400D01*
X6885368Y6865368D02*
X6952013Y6765400D01*
Y6865368D02*
X6885368Y6765400D01*
X10745400Y10185368D02*
Y10118722D01*
X10778722Y10085400D01*
X10812045Y10118722D01*
Y10185368D01*
X10912013Y10168706D02*
X10895352Y10185368D01*
X10862029D01*
X10845368Y10168706D01*
Y10102061D01*
X10862029Y10085400D01*
X10895352D01*
X10912013Y10102061D01*
X11011981Y10168706D02*
X10995319Y10185368D01*
X10961997D01*
X10945335Y10168706D01*
Y10102061D01*
X10961997Y10085400D01*
X10995319D01*
X11011981Y10102061D01*
X10845400Y6375368D02*
Y6275400D01*
X10895384D01*
X10912045Y6292061D01*
Y6358706D01*
X10895384Y6375368D01*
X10845400D01*
X10945368Y6358706D02*
X10962029Y6375368D01*
X10995352D01*
X11012013Y6358706D01*
Y6292061D01*
X10995352Y6275400D01*
X10962029D01*
X10945368Y6292061D01*
Y6358706D01*
X8206694Y9989984D02*
Y9906677D01*
X8223355Y9890016D01*
X8256677D01*
X8273339Y9906677D01*
Y9989984D01*
X8306661Y9973322D02*
X8323323Y9989984D01*
X8356645D01*
X8373306Y9973322D01*
Y9956661D01*
X8356645Y9940000D01*
X8339984D01*
X8356645D01*
X8373306Y9923339D01*
Y9906677D01*
X8356645Y9890016D01*
X8323323D01*
X8306661Y9906677D01*
X6863355Y9689984D02*
Y9606678D01*
X6880016Y9590016D01*
X6913339D01*
X6930000Y9606678D01*
Y9689984D01*
X6963323Y9590016D02*
X6996645D01*
X6979984D01*
Y9689984D01*
X6963323Y9673323D01*
%TF.MD5,6f43407e9513f96138cf3e4a001ab580*%
M02*
