M48
; DRILL file {KiCad 9.0.0} date 2025-05-07T21:56:00-0700
; FORMAT={-:-/ absolute / metric / decimal}
; #@! TF.CreationDate,2025-05-07T21:56:00-07:00
; #@! TF.GenerationSoftware,Kicad,Pcbnew,9.0.0
; #@! TF.FileFunction,MixedPlating,1,2
FMAT,2
METRIC
; #@! TA.AperFunction,Plated,PTH,ComponentDrill
T1C0.200
; #@! TA.AperFunction,Plated,PTH,ViaDrill
T2C0.300
; #@! TA.AperFunction,Plated,PTH,ViaDrill
T3C0.400
; #@! TA.AperFunction,Plated,PTH,ViaDrill
T4C0.500
; #@! TA.AperFunction,Plated,PTH,ComponentDrill
T5C0.600
; #@! TA.AperFunction,Plated,PTH,ComponentDrill
T6C0.850
; #@! TA.AperFunction,Plated,PTH,ComponentDrill
T7C1.000
; #@! TA.AperFunction,Plated,PTH,ComponentDrill
T8C1.520
; #@! TA.AperFunction,Plated,PTH,ComponentDrill
T9C2.200
%
G90
G05
T1
X146.4Y-79.62
X146.4Y-80.62
X146.4Y-81.62
X146.4Y-108.25
X146.4Y-109.25
X146.4Y-110.25
X146.5Y-137.5
X146.5Y-138.5
X146.5Y-139.5
X147.4Y-79.62
X147.4Y-80.62
X147.4Y-81.62
X147.4Y-108.25
X147.4Y-109.25
X147.4Y-110.25
X147.5Y-137.5
X147.5Y-138.5
X147.5Y-139.5
X148.4Y-79.62
X148.4Y-80.62
X148.4Y-81.62
X148.4Y-108.25
X148.4Y-109.25
X148.4Y-110.25
X148.5Y-137.5
X148.5Y-138.5
X148.5Y-139.5
T2
X128.8Y-74.3
X128.8Y-75.6
X128.8Y-80.2
X128.8Y-84.9
X128.8Y-88.5
X128.8Y-89.9
X128.8Y-103.3
X128.8Y-104.6
X128.8Y-108.7
X128.8Y-110.0
X128.8Y-116.6
X128.8Y-117.9
X128.8Y-137.7
X128.8Y-139.0
X128.8Y-142.7
X128.8Y-144.0
X128.8Y-146.8
X128.8Y-148.1
X128.9Y-127.3
X128.9Y-128.6
X128.9Y-132.6
X128.9Y-133.9
X131.175Y-89.375
X133.2Y-147.65
X135.25Y-133.0
X135.38Y-74.8
X135.48Y-120.62
X137.475Y-78.65
X137.575Y-82.625
X138.07Y-107.21
X138.11Y-111.5
X138.17Y-92.16
X138.3Y-141.2
X138.85Y-76.675
X138.875Y-153.0
X139.0Y-121.9
X140.1Y-143.2
X140.25Y-85.375
X140.43Y-113.5
X140.53Y-105.0
X142.45Y-89.37
X142.95Y-86.5
X143.0Y-118.0
X143.4Y-147.795
X143.887Y-141.887
X144.375Y-112.875
X145.25Y-131.0
X145.67Y-74.66
X145.85Y-102.05
X147.0Y-104.75
X147.0Y-133.75
X147.3Y-76.84
X147.5Y-127.75
X147.595Y-147.795
X148.5Y-105.0
X148.5Y-134.0
X148.55Y-76.58
X150.2Y-93.95
X150.5Y-102.5
X151.0Y-77.5
X151.04Y-74.21
X151.17Y-105.4
X151.25Y-134.8
X152.0Y-130.5
X152.0Y-133.13
X152.0Y-143.7
X152.25Y-104.25
X152.25Y-114.25
X153.375Y-84.075
X155.5Y-111.9
X155.53Y-108.0
X156.0Y-137.0
X156.24Y-78.52
X156.86Y-76.48
X156.93Y-75.47
X157.0Y-115.7
X158.25Y-116.75
X160.5Y-134.5
X160.75Y-115.0
X161.5Y-123.25
X162.25Y-104.25
X162.26Y-137.39
X162.5Y-103.25
X162.5Y-105.75
X162.75Y-107.25
X163.5Y-109.75
X163.5Y-112.75
X163.5Y-132.15
X164.0Y-107.25
X164.5Y-104.25
X164.75Y-103.25
X164.75Y-132.22
X165.0Y-71.75
X165.0Y-97.75
X165.0Y-99.75
X165.0Y-101.75
X166.5Y-92.0
X166.55Y-86.17
X167.75Y-77.25
X168.5Y-96.25
X168.5Y-103.0
X168.64Y-84.17
X170.5Y-96.25
X170.5Y-103.75
X170.76Y-90.39
X171.55Y-104.561
X171.68Y-117.67
X171.75Y-99.75
X171.75Y-101.75
X172.0Y-70.925
X172.25Y-103.0
X172.25Y-107.0
X172.72Y-88.22
X173.5Y-92.5
X174.25Y-97.24
X174.5Y-72.0
X174.545Y-103.92
X174.75Y-105.75
X175.17Y-104.73
X175.25Y-97.5
X177.175Y-77.3
X179.07Y-94.65
X179.09Y-108.66
X179.57Y-102.8
X180.42Y-98.5
X182.01Y-106.3
X182.75Y-72.0
T3
X135.25Y-103.5
X138.25Y-136.25
X140.0Y-134.25
T4
X132.75Y-118.0
T6
X181.575Y-97.3
X181.575Y-102.3
T7
X184.275Y-78.08
X184.275Y-80.62
X184.275Y-83.16
X184.275Y-85.7
X184.275Y-90.16
X184.275Y-92.7
X184.275Y-108.12
X184.275Y-110.66
X184.275Y-115.12
X184.275Y-117.66
X184.4Y-139.4
X184.4Y-141.94
X184.4Y-145.625
X184.4Y-148.165
X184.45Y-123.8
X184.45Y-126.34
T8
X124.0Y-72.75
X124.0Y-77.83
X124.0Y-82.91
X124.0Y-87.99
X124.0Y-101.75
X124.0Y-106.83
X124.0Y-111.91
X124.0Y-116.99
X124.0Y-130.76
X124.0Y-135.84
X124.0Y-140.92
X124.0Y-146.0
X154.06Y-150.8
X159.14Y-150.8
X164.62Y-150.8
X169.7Y-150.8
T9
X116.42Y-154.5
X116.5Y-70.5
X185.5Y-70.5
X185.5Y-154.5
T5
G00X183.925Y-96.3
M15
G01X184.625Y-96.3
M16
G05
G00X184.625Y-103.3
M15
G01X183.925Y-103.3
M16
G05
M30
