%TF.GenerationSoftware,Altium Limited,Altium Designer,25.5.2 (35)*%
G04 Layer_Color=16711935*
%FSLAX45Y45*%
%MOMM*%
%TF.SameCoordinates,99CC5E96-0F24-47E5-947C-7A4A978C6F15*%
%TF.FilePolarity,Negative*%
%TF.FileFunction,Soldermask,Bot*%
%TF.Part,Single*%
G01*
G75*
%TA.AperFunction,ComponentPad*%
%ADD38C,1.85000*%
%ADD40C,1.55000*%
%ADD41R,1.55000X1.55000*%
%ADD44C,1.40000*%
%ADD45R,1.40000X1.40000*%
%ADD46R,1.55000X1.55000*%
%ADD47R,1.85000X1.85000*%
%ADD64C,1.80320*%
%TA.AperFunction,ViaPad*%
%ADD65C,1.72720*%
%TA.AperFunction,ComponentPad*%
G04:AMPARAMS|DCode=66|XSize=2.1532mm|YSize=2.1532mm|CornerRadius=0.5891mm|HoleSize=0mm|Usage=FLASHONLY|Rotation=270.000|XOffset=0mm|YOffset=0mm|HoleType=Round|Shape=RoundedRectangle|*
%AMROUNDEDRECTD66*
21,1,2.15320,0.97500,0,0,270.0*
21,1,0.97500,2.15320,0,0,270.0*
1,1,1.17820,-0.48750,-0.48750*
1,1,1.17820,-0.48750,0.48750*
1,1,1.17820,0.48750,0.48750*
1,1,1.17820,0.48750,-0.48750*
%
%ADD66ROUNDEDRECTD66*%
%ADD67C,1.75320*%
%ADD68R,1.75320X1.75320*%
G04:AMPARAMS|DCode=69|XSize=1.8032mm|YSize=1.8032mm|CornerRadius=0.5016mm|HoleSize=0mm|Usage=FLASHONLY|Rotation=0.000|XOffset=0mm|YOffset=0mm|HoleType=Round|Shape=RoundedRectangle|*
%AMROUNDEDRECTD69*
21,1,1.80320,0.80000,0,0,0.0*
21,1,0.80000,1.80320,0,0,0.0*
1,1,1.00320,0.40000,-0.40000*
1,1,1.00320,-0.40000,-0.40000*
1,1,1.00320,-0.40000,0.40000*
1,1,1.00320,0.40000,0.40000*
%
%ADD69ROUNDEDRECTD69*%
%ADD70C,2.15320*%
%TA.AperFunction,ViaPad*%
%ADD71C,0.90320*%
D38*
X7520000Y7120000D02*
D03*
X7266000D02*
D03*
D40*
X7060000Y10400000D02*
D03*
X7270000Y7940000D02*
D03*
X6362500Y9185000D02*
D03*
D41*
X7270000Y8190000D02*
D03*
X6362500Y9435000D02*
D03*
D44*
X6370000Y6360000D02*
D03*
Y6610000D02*
D03*
Y6860000D02*
D03*
D45*
Y7110000D02*
D03*
D46*
X7310000Y10400000D02*
D03*
D47*
X7012000Y7120000D02*
D03*
D64*
X8886000Y5710000D02*
D03*
X8378000D02*
D03*
X9394000D02*
D03*
X8632000D02*
D03*
X9140000D02*
D03*
D65*
X6300000Y10400000D02*
D03*
Y5800000D02*
D03*
X10300000Y6100000D02*
D03*
D66*
X6344998Y8460000D02*
D03*
D67*
X11460000Y9122000D02*
D03*
X11206000D02*
D03*
Y10138000D02*
D03*
Y8106000D02*
D03*
Y7344000D02*
D03*
Y7852000D02*
D03*
X11460000Y8106000D02*
D03*
Y7344000D02*
D03*
X11206000Y6582000D02*
D03*
X11460000Y8360000D02*
D03*
Y7852000D02*
D03*
X11206000Y6074000D02*
D03*
X11460000D02*
D03*
Y8868000D02*
D03*
Y7598000D02*
D03*
Y6328000D02*
D03*
X11206000D02*
D03*
Y7598000D02*
D03*
Y8868000D02*
D03*
X11460000Y6836000D02*
D03*
Y8614000D02*
D03*
Y9884000D02*
D03*
Y9376000D02*
D03*
X11206000Y9884000D02*
D03*
X11460000Y9630000D02*
D03*
X11206000Y6836000D02*
D03*
X11460000Y7090000D02*
D03*
X11206000Y9376000D02*
D03*
X11460000Y6582000D02*
D03*
X11206000Y7090000D02*
D03*
Y8360000D02*
D03*
Y9630000D02*
D03*
Y8614000D02*
D03*
D68*
X11460000Y10138000D02*
D03*
D69*
X8124000Y5710000D02*
D03*
D70*
X6344998Y7960001D02*
D03*
D71*
X10820000Y8810000D02*
D03*
X10830000Y9000000D02*
D03*
X10820000Y9150000D02*
D03*
X10430000Y8930000D02*
D03*
X10720000Y9260000D02*
D03*
X10660000Y9380000D02*
D03*
X10580000Y9510000D02*
D03*
X10690000Y9640000D02*
D03*
X10210000Y9150000D02*
D03*
X10320000Y9040000D02*
D03*
X10580000Y9760000D02*
D03*
X10680000Y9900000D02*
D03*
X10850000Y8620000D02*
D03*
X10960000Y8250000D02*
D03*
X10090000Y9260000D02*
D03*
X10190000Y9380000D02*
D03*
Y9640000D02*
D03*
X10100000Y9760000D02*
D03*
X10190000Y9900000D02*
D03*
X10080000Y9510000D02*
D03*
X10430000Y8700000D02*
D03*
X10750000Y10400000D02*
D03*
X10170000Y10220000D02*
D03*
X10150000Y7080000D02*
D03*
X8070000Y8480000D02*
D03*
X10400000Y7240000D02*
D03*
X9610000Y8130000D02*
D03*
X9850000Y8380000D02*
D03*
X9240000Y7110000D02*
D03*
X9200000Y7500000D02*
D03*
X7480000Y7530000D02*
D03*
X7040000D02*
D03*
X6990000Y6190000D02*
D03*
X7590000D02*
D03*
X7800000Y6040000D02*
D03*
X7780000Y7980000D02*
D03*
X7860000Y7830000D02*
D03*
X8180000Y7430000D02*
D03*
X8200000Y7120000D02*
D03*
X7770000Y9290000D02*
D03*
X7040000Y9940000D02*
D03*
X7110000Y10070000D02*
D03*
X8190000Y8360000D02*
D03*
X8415000Y9210000D02*
D03*
X8766100Y7610000D02*
D03*
X8760000Y8220000D02*
D03*
X8810000Y9010000D02*
D03*
X8650000Y9690000D02*
D03*
X9450000Y9540000D02*
D03*
X8663827Y6803827D02*
D03*
X7910000Y7330000D02*
D03*
X9380000Y10690000D02*
D03*
X10970000Y10680000D02*
D03*
X9860000Y8530000D02*
D03*
X9170000Y8510000D02*
D03*
X10920000Y7390000D02*
D03*
X9510000Y8250000D02*
D03*
X9730000Y8470000D02*
D03*
X9030000Y7510000D02*
D03*
Y7110000D02*
D03*
X9840000Y8110000D02*
D03*
X9020000Y9400000D02*
D03*
X8410000Y8780000D02*
D03*
X9630000Y7590000D02*
D03*
X10300000Y7570000D02*
D03*
X10490000Y6540000D02*
D03*
X10480000Y8000000D02*
D03*
X10170000Y6550000D02*
D03*
X10320000Y6720000D02*
D03*
X9050000Y8620000D02*
D03*
X9120000Y9050000D02*
D03*
X10600000Y8080000D02*
D03*
X10650000Y6550000D02*
D03*
X9750000Y7510000D02*
D03*
X10390000Y7460000D02*
D03*
X10050000Y6870000D02*
D03*
X10290000Y7040000D02*
D03*
X9380000Y7490000D02*
D03*
Y7670000D02*
D03*
Y6850000D02*
D03*
X9280000Y8160000D02*
D03*
X8270000Y8780000D02*
D03*
X8990000Y9560000D02*
D03*
X9840000Y8240000D02*
D03*
X9900000Y7670000D02*
D03*
X10400000D02*
D03*
X8910000Y8500000D02*
D03*
X9050000Y9260000D02*
D03*
X9470000Y8620000D02*
D03*
X10160000Y6710000D02*
D03*
X10300000Y6870000D02*
D03*
X8170000Y6970000D02*
D03*
X9130000Y6910000D02*
D03*
X8770000Y9810000D02*
D03*
X7730000Y9730000D02*
D03*
X7830000Y9460000D02*
D03*
X8660000Y9400000D02*
D03*
%TF.MD5,c173a79790ae80276df600892bd7c62e*%
M02*
