%TF.GenerationSoftware,Altium Limited,Altium Designer,25.5.2 (35)*%
G04 Layer_Color=8388736*
%FSLAX45Y45*%
%MOMM*%
%TF.SameCoordinates,99CC5E96-0F24-47E5-947C-7A4A978C6F15*%
%TF.FilePolarity,Negative*%
%TF.FileFunction,Soldermask,Top*%
%TF.Part,Single*%
G01*
G75*
%TA.AperFunction,SMDPad,CuDef*%
%ADD19R,0.87213X1.00429*%
%ADD23R,1.20000X0.60000*%
%TA.AperFunction,ConnectorPad*%
%ADD24R,0.45000X1.38000*%
%TA.AperFunction,SMDPad,CuDef*%
G04:AMPARAMS|DCode=25|XSize=1.00429mm|YSize=0.87213mm|CornerRadius=0.43606mm|HoleSize=0mm|Usage=FLASHONLY|Rotation=270.000|XOffset=0mm|YOffset=0mm|HoleType=Round|Shape=RoundedRectangle|*
%AMROUNDEDRECTD25*
21,1,1.00429,0.00000,0,0,270.0*
21,1,0.13216,0.87213,0,0,270.0*
1,1,0.87213,0.00000,-0.06608*
1,1,0.87213,0.00000,0.06608*
1,1,0.87213,0.00000,0.06608*
1,1,0.87213,0.00000,-0.06608*
%
%ADD25ROUNDEDRECTD25*%
G04:AMPARAMS|DCode=26|XSize=1.00429mm|YSize=3.18213mm|CornerRadius=0.43687mm|HoleSize=0mm|Usage=FLASHONLY|Rotation=270.000|XOffset=0mm|YOffset=0mm|HoleType=Round|Shape=RoundedRectangle|*
%AMROUNDEDRECTD26*
21,1,1.00429,2.30840,0,0,270.0*
21,1,0.13056,3.18213,0,0,270.0*
1,1,0.87373,-1.15420,-0.06528*
1,1,0.87373,-1.15420,0.06528*
1,1,0.87373,1.15420,0.06528*
1,1,0.87373,1.15420,-0.06528*
%
%ADD26ROUNDEDRECTD26*%
%TA.AperFunction,ConnectorPad*%
%ADD27R,1.42500X1.55000*%
%ADD28R,1.00000X1.90000*%
%ADD29R,1.80000X1.90000*%
%ADD30R,1.65000X1.30000*%
%TA.AperFunction,ComponentPad*%
%ADD38C,1.85000*%
%ADD40C,1.55000*%
%ADD41R,1.55000X1.55000*%
%ADD44C,1.40000*%
%ADD45R,1.40000X1.40000*%
%ADD46R,1.55000X1.55000*%
%ADD47R,1.85000X1.85000*%
%TA.AperFunction,SMDPad,CuDef*%
%ADD54O,0.50320X2.00320*%
%ADD55O,2.00320X0.50320*%
G04:AMPARAMS|DCode=56|XSize=1.5032mm|YSize=1.3032mm|CornerRadius=0.1566mm|HoleSize=0mm|Usage=FLASHONLY|Rotation=270.000|XOffset=0mm|YOffset=0mm|HoleType=Round|Shape=RoundedRectangle|*
%AMROUNDEDRECTD56*
21,1,1.50320,0.99000,0,0,270.0*
21,1,1.19000,1.30320,0,0,270.0*
1,1,0.31320,-0.49500,-0.59500*
1,1,0.31320,-0.49500,0.59500*
1,1,0.31320,0.49500,0.59500*
1,1,0.31320,0.49500,-0.59500*
%
%ADD56ROUNDEDRECTD56*%
G04:AMPARAMS|DCode=57|XSize=0.8032mm|YSize=0.9032mm|CornerRadius=0.1766mm|HoleSize=0mm|Usage=FLASHONLY|Rotation=180.000|XOffset=0mm|YOffset=0mm|HoleType=Round|Shape=RoundedRectangle|*
%AMROUNDEDRECTD57*
21,1,0.80320,0.55000,0,0,180.0*
21,1,0.45000,0.90320,0,0,180.0*
1,1,0.35320,-0.22500,0.27500*
1,1,0.35320,0.22500,0.27500*
1,1,0.35320,0.22500,-0.27500*
1,1,0.35320,-0.22500,-0.27500*
%
%ADD57ROUNDEDRECTD57*%
%ADD58R,1.20320X0.95320*%
G04:AMPARAMS|DCode=59|XSize=0.8032mm|YSize=0.9032mm|CornerRadius=0.1766mm|HoleSize=0mm|Usage=FLASHONLY|Rotation=270.000|XOffset=0mm|YOffset=0mm|HoleType=Round|Shape=RoundedRectangle|*
%AMROUNDEDRECTD59*
21,1,0.80320,0.55000,0,0,270.0*
21,1,0.45000,0.90320,0,0,270.0*
1,1,0.35320,-0.27500,-0.22500*
1,1,0.35320,-0.27500,0.22500*
1,1,0.35320,0.27500,0.22500*
1,1,0.35320,0.27500,-0.22500*
%
%ADD59ROUNDEDRECTD59*%
G04:AMPARAMS|DCode=60|XSize=1.0032mm|YSize=1.2032mm|CornerRadius=0.2016mm|HoleSize=0mm|Usage=FLASHONLY|Rotation=90.000|XOffset=0mm|YOffset=0mm|HoleType=Round|Shape=RoundedRectangle|*
%AMROUNDEDRECTD60*
21,1,1.00320,0.80000,0,0,90.0*
21,1,0.60000,1.20320,0,0,90.0*
1,1,0.40320,0.40000,0.30000*
1,1,0.40320,0.40000,-0.30000*
1,1,0.40320,-0.40000,-0.30000*
1,1,0.40320,-0.40000,0.30000*
%
%ADD60ROUNDEDRECTD60*%
G04:AMPARAMS|DCode=61|XSize=1.0032mm|YSize=1.2032mm|CornerRadius=0.2016mm|HoleSize=0mm|Usage=FLASHONLY|Rotation=0.000|XOffset=0mm|YOffset=0mm|HoleType=Round|Shape=RoundedRectangle|*
%AMROUNDEDRECTD61*
21,1,1.00320,0.80000,0,0,0.0*
21,1,0.60000,1.20320,0,0,0.0*
1,1,0.40320,0.30000,-0.40000*
1,1,0.40320,-0.30000,-0.40000*
1,1,0.40320,-0.30000,0.40000*
1,1,0.40320,0.30000,0.40000*
%
%ADD61ROUNDEDRECTD61*%
G04:AMPARAMS|DCode=62|XSize=1.6032mm|YSize=1.9032mm|CornerRadius=0.2766mm|HoleSize=0mm|Usage=FLASHONLY|Rotation=180.000|XOffset=0mm|YOffset=0mm|HoleType=Round|Shape=RoundedRectangle|*
%AMROUNDEDRECTD62*
21,1,1.60320,1.35000,0,0,180.0*
21,1,1.05000,1.90320,0,0,180.0*
1,1,0.55320,-0.52500,0.67500*
1,1,0.55320,0.52500,0.67500*
1,1,0.55320,0.52500,-0.67500*
1,1,0.55320,-0.52500,-0.67500*
%
%ADD62ROUNDEDRECTD62*%
G04:AMPARAMS|DCode=63|XSize=1.6032mm|YSize=1.9032mm|CornerRadius=0.2766mm|HoleSize=0mm|Usage=FLASHONLY|Rotation=270.000|XOffset=0mm|YOffset=0mm|HoleType=Round|Shape=RoundedRectangle|*
%AMROUNDEDRECTD63*
21,1,1.60320,1.35000,0,0,270.0*
21,1,1.05000,1.90320,0,0,270.0*
1,1,0.55320,-0.67500,-0.52500*
1,1,0.55320,-0.67500,0.52500*
1,1,0.55320,0.67500,0.52500*
1,1,0.55320,0.67500,-0.52500*
%
%ADD63ROUNDEDRECTD63*%
%TA.AperFunction,ComponentPad*%
%ADD64C,1.80320*%
%TA.AperFunction,ViaPad*%
%ADD65C,1.72720*%
%TA.AperFunction,ComponentPad*%
G04:AMPARAMS|DCode=66|XSize=2.1532mm|YSize=2.1532mm|CornerRadius=0.5891mm|HoleSize=0mm|Usage=FLASHONLY|Rotation=270.000|XOffset=0mm|YOffset=0mm|HoleType=Round|Shape=RoundedRectangle|*
%AMROUNDEDRECTD66*
21,1,2.15320,0.97500,0,0,270.0*
21,1,0.97500,2.15320,0,0,270.0*
1,1,1.17820,-0.48750,-0.48750*
1,1,1.17820,-0.48750,0.48750*
1,1,1.17820,0.48750,0.48750*
1,1,1.17820,0.48750,-0.48750*
%
%ADD66ROUNDEDRECTD66*%
%ADD67C,1.75320*%
%ADD68R,1.75320X1.75320*%
G04:AMPARAMS|DCode=69|XSize=1.8032mm|YSize=1.8032mm|CornerRadius=0.5016mm|HoleSize=0mm|Usage=FLASHONLY|Rotation=0.000|XOffset=0mm|YOffset=0mm|HoleType=Round|Shape=RoundedRectangle|*
%AMROUNDEDRECTD69*
21,1,1.80320,0.80000,0,0,0.0*
21,1,0.80000,1.80320,0,0,0.0*
1,1,1.00320,0.40000,-0.40000*
1,1,1.00320,-0.40000,-0.40000*
1,1,1.00320,-0.40000,0.40000*
1,1,1.00320,0.40000,0.40000*
%
%ADD69ROUNDEDRECTD69*%
%ADD70C,2.15320*%
%TA.AperFunction,ViaPad*%
%ADD71C,0.90320*%
D19*
X7499000Y9489500D02*
D03*
D23*
X8315000Y9690000D02*
D03*
Y9595000D02*
D03*
Y9785000D02*
D03*
X8085000Y9595000D02*
D03*
Y9785000D02*
D03*
D24*
X10170000Y10389000D02*
D03*
X10365000D02*
D03*
X10300000D02*
D03*
X10430000D02*
D03*
X10235000D02*
D03*
D25*
X7270000Y9489500D02*
D03*
X7041000D02*
D03*
D26*
X7270000Y8830500D02*
D03*
D27*
X10051250Y10397500D02*
D03*
X10548750D02*
D03*
D28*
X10145000Y10655000D02*
D03*
D29*
X10415000D02*
D03*
D30*
X9962500D02*
D03*
X10637500D02*
D03*
D38*
X7520000Y7120000D02*
D03*
X7266000D02*
D03*
D40*
X7060000Y10400000D02*
D03*
X7270000Y7940000D02*
D03*
X6362500Y9185000D02*
D03*
D41*
X7270000Y8190000D02*
D03*
X6362500Y9435000D02*
D03*
D44*
X6370000Y6360000D02*
D03*
Y6610000D02*
D03*
Y6860000D02*
D03*
D45*
Y7110000D02*
D03*
D46*
X7310000Y10400000D02*
D03*
D47*
X7012000Y7120000D02*
D03*
D54*
X8836100Y8801100D02*
D03*
X8886100D02*
D03*
X8936100D02*
D03*
X9036100D02*
D03*
X9086100D02*
D03*
X9136100D02*
D03*
X9186100D02*
D03*
X9236100D02*
D03*
X9286100D02*
D03*
X9336100D02*
D03*
X9386100D02*
D03*
X9436100D02*
D03*
X9486100D02*
D03*
X9536100D02*
D03*
X9586100D02*
D03*
X9636100D02*
D03*
X9686100D02*
D03*
X9736100D02*
D03*
X9786100D02*
D03*
X9836100D02*
D03*
X9886100D02*
D03*
X9936100D02*
D03*
X9886100Y7291100D02*
D03*
X9836100D02*
D03*
X9786100D02*
D03*
X9736100D02*
D03*
X9686100D02*
D03*
X9636100D02*
D03*
X9586100D02*
D03*
X9536100D02*
D03*
X9486100D02*
D03*
X9436100D02*
D03*
X9386100D02*
D03*
X9336100D02*
D03*
X9286100D02*
D03*
X9236100D02*
D03*
X9186100D02*
D03*
X9136100D02*
D03*
X9086100D02*
D03*
X9036100D02*
D03*
X8986100D02*
D03*
X8936100D02*
D03*
X8886100D02*
D03*
X8736100D02*
D03*
X8836100D02*
D03*
X9936100D02*
D03*
X8736100Y8801100D02*
D03*
X8986100D02*
D03*
X8786100Y7291100D02*
D03*
Y8801100D02*
D03*
D55*
X10091100Y8546100D02*
D03*
Y8496100D02*
D03*
Y8446100D02*
D03*
Y8396100D02*
D03*
Y8346100D02*
D03*
Y8246100D02*
D03*
Y8196100D02*
D03*
Y8146100D02*
D03*
Y8096100D02*
D03*
Y8046100D02*
D03*
Y7996100D02*
D03*
Y7946100D02*
D03*
Y7896100D02*
D03*
Y7846100D02*
D03*
Y7796100D02*
D03*
Y7746100D02*
D03*
Y7696100D02*
D03*
Y7646100D02*
D03*
Y7596100D02*
D03*
Y7546100D02*
D03*
Y7496100D02*
D03*
Y7446100D02*
D03*
X8581100D02*
D03*
Y7496100D02*
D03*
Y7546100D02*
D03*
Y7596100D02*
D03*
Y7646100D02*
D03*
Y7796100D02*
D03*
Y7846100D02*
D03*
Y7896100D02*
D03*
Y7946100D02*
D03*
Y7996100D02*
D03*
Y8046100D02*
D03*
Y8246100D02*
D03*
Y8296100D02*
D03*
Y8346100D02*
D03*
Y8446100D02*
D03*
Y8496100D02*
D03*
Y8546100D02*
D03*
Y8596100D02*
D03*
Y8646100D02*
D03*
X10091100Y8296100D02*
D03*
X8581100Y8396100D02*
D03*
Y8146100D02*
D03*
Y7746100D02*
D03*
X10091100Y8646100D02*
D03*
X8581100Y8096100D02*
D03*
Y7696100D02*
D03*
Y8196100D02*
D03*
X10091100Y8596100D02*
D03*
D56*
X7925000Y8215000D02*
D03*
Y7985000D02*
D03*
X8115000Y8215000D02*
D03*
Y7985000D02*
D03*
D57*
X7970000Y8370000D02*
D03*
X8280000Y7430000D02*
D03*
Y7560000D02*
D03*
X7970000Y7830000D02*
D03*
X8290000Y8190000D02*
D03*
X7210000Y10070000D02*
D03*
X8290000Y8330000D02*
D03*
X8315000Y9210000D02*
D03*
X8810000Y7080000D02*
D03*
X8700000Y9010000D02*
D03*
X8070000Y8370000D02*
D03*
X8390000Y8190000D02*
D03*
Y8330000D02*
D03*
X8910000Y7080000D02*
D03*
X8600000Y9010000D02*
D03*
X7310000Y6860000D02*
D03*
X7210000D02*
D03*
Y6610000D02*
D03*
X8380000Y7560000D02*
D03*
X7910000Y6970000D02*
D03*
X8010000D02*
D03*
X8070000Y7830000D02*
D03*
X7310000Y6610000D02*
D03*
X7680000Y9860000D02*
D03*
X8380000Y7430000D02*
D03*
X7310000Y10070000D02*
D03*
X7780000Y9860000D02*
D03*
X8215000Y9210000D02*
D03*
D58*
X7590000Y5690000D02*
D03*
X6990000D02*
D03*
X7590000Y6065000D02*
D03*
X6990000D02*
D03*
D59*
X7800000Y5840000D02*
D03*
Y5940000D02*
D03*
X7910000Y7220000D02*
D03*
X8380000Y7670000D02*
D03*
X10290000Y7240000D02*
D03*
Y8700000D02*
D03*
X9340000Y9490000D02*
D03*
X8380000Y7770000D02*
D03*
X7910000Y9890000D02*
D03*
X8510000Y9930000D02*
D03*
X10290000Y8800000D02*
D03*
Y7340000D02*
D03*
X7910000Y7120000D02*
D03*
X9340000Y9390000D02*
D03*
X8510000Y9830000D02*
D03*
X7910000Y9790000D02*
D03*
D60*
X8060000Y7125000D02*
D03*
X8530000Y9685000D02*
D03*
X8060000Y7275000D02*
D03*
X8040000Y9065000D02*
D03*
X8530000Y9535000D02*
D03*
X8040000Y9215000D02*
D03*
D61*
X7155000Y9930000D02*
D03*
X8760000Y6930000D02*
D03*
X10035000Y7080000D02*
D03*
X10435000Y8550000D02*
D03*
X8225000Y7270000D02*
D03*
X8910000Y6930000D02*
D03*
X10285000Y8550000D02*
D03*
X8375000Y7270000D02*
D03*
X9885000Y7080000D02*
D03*
X7305000Y9930000D02*
D03*
D62*
X7374300Y9720000D02*
D03*
X7145700D02*
D03*
D63*
X7770000Y9144300D02*
D03*
Y8915700D02*
D03*
D64*
X8886000Y5710000D02*
D03*
X8378000D02*
D03*
X9394000D02*
D03*
X8632000D02*
D03*
X9140000D02*
D03*
D65*
X6300000Y10400000D02*
D03*
Y5800000D02*
D03*
X10300000Y6100000D02*
D03*
D66*
X6344998Y8460000D02*
D03*
D67*
X11460000Y9122000D02*
D03*
X11206000D02*
D03*
Y10138000D02*
D03*
Y8106000D02*
D03*
Y7344000D02*
D03*
Y7852000D02*
D03*
X11460000Y8106000D02*
D03*
Y7344000D02*
D03*
X11206000Y6582000D02*
D03*
X11460000Y8360000D02*
D03*
Y7852000D02*
D03*
X11206000Y6074000D02*
D03*
X11460000D02*
D03*
Y8868000D02*
D03*
Y7598000D02*
D03*
Y6328000D02*
D03*
X11206000D02*
D03*
Y7598000D02*
D03*
Y8868000D02*
D03*
X11460000Y6836000D02*
D03*
Y8614000D02*
D03*
Y9884000D02*
D03*
Y9376000D02*
D03*
X11206000Y9884000D02*
D03*
X11460000Y9630000D02*
D03*
X11206000Y6836000D02*
D03*
X11460000Y7090000D02*
D03*
X11206000Y9376000D02*
D03*
X11460000Y6582000D02*
D03*
X11206000Y7090000D02*
D03*
Y8360000D02*
D03*
Y9630000D02*
D03*
Y8614000D02*
D03*
D68*
X11460000Y10138000D02*
D03*
D69*
X8124000Y5710000D02*
D03*
D70*
X6344998Y7960001D02*
D03*
D71*
X10820000Y8810000D02*
D03*
X10830000Y9000000D02*
D03*
X10820000Y9150000D02*
D03*
X10430000Y8930000D02*
D03*
X10720000Y9260000D02*
D03*
X10660000Y9380000D02*
D03*
X10580000Y9510000D02*
D03*
X10690000Y9640000D02*
D03*
X10210000Y9150000D02*
D03*
X10320000Y9040000D02*
D03*
X10580000Y9760000D02*
D03*
X10680000Y9900000D02*
D03*
X10850000Y8620000D02*
D03*
X10960000Y8250000D02*
D03*
X10090000Y9260000D02*
D03*
X10190000Y9380000D02*
D03*
Y9640000D02*
D03*
X10100000Y9760000D02*
D03*
X10190000Y9900000D02*
D03*
X10080000Y9510000D02*
D03*
X10430000Y8700000D02*
D03*
X10750000Y10400000D02*
D03*
X10170000Y10220000D02*
D03*
X10150000Y7080000D02*
D03*
X8070000Y8480000D02*
D03*
X10400000Y7240000D02*
D03*
X9610000Y8130000D02*
D03*
X9850000Y8380000D02*
D03*
X9240000Y7110000D02*
D03*
X9200000Y7500000D02*
D03*
X7480000Y7530000D02*
D03*
X7040000D02*
D03*
X6990000Y6190000D02*
D03*
X7590000D02*
D03*
X7800000Y6040000D02*
D03*
X7780000Y7980000D02*
D03*
X7860000Y7830000D02*
D03*
X8180000Y7430000D02*
D03*
X8200000Y7120000D02*
D03*
X7770000Y9290000D02*
D03*
X7040000Y9940000D02*
D03*
X7110000Y10070000D02*
D03*
X8190000Y8360000D02*
D03*
X8415000Y9210000D02*
D03*
X8766100Y7610000D02*
D03*
X8760000Y8220000D02*
D03*
X8810000Y9010000D02*
D03*
X8650000Y9690000D02*
D03*
X9450000Y9540000D02*
D03*
X8663827Y6803827D02*
D03*
X7910000Y7330000D02*
D03*
X9380000Y10690000D02*
D03*
X10970000Y10680000D02*
D03*
X9860000Y8530000D02*
D03*
X9170000Y8510000D02*
D03*
X10920000Y7390000D02*
D03*
X9510000Y8250000D02*
D03*
X9730000Y8470000D02*
D03*
X9030000Y7510000D02*
D03*
Y7110000D02*
D03*
X9840000Y8110000D02*
D03*
X9020000Y9400000D02*
D03*
X8410000Y8780000D02*
D03*
X9630000Y7590000D02*
D03*
X10300000Y7570000D02*
D03*
X10490000Y6540000D02*
D03*
X10480000Y8000000D02*
D03*
X10170000Y6550000D02*
D03*
X10320000Y6720000D02*
D03*
X9050000Y8620000D02*
D03*
X9120000Y9050000D02*
D03*
X10600000Y8080000D02*
D03*
X10650000Y6550000D02*
D03*
X9750000Y7510000D02*
D03*
X10390000Y7460000D02*
D03*
X10050000Y6870000D02*
D03*
X10290000Y7040000D02*
D03*
X9380000Y7490000D02*
D03*
Y7670000D02*
D03*
Y6850000D02*
D03*
X9280000Y8160000D02*
D03*
X8270000Y8780000D02*
D03*
X8990000Y9560000D02*
D03*
X9840000Y8240000D02*
D03*
X9900000Y7670000D02*
D03*
X10400000D02*
D03*
X8910000Y8500000D02*
D03*
X9050000Y9260000D02*
D03*
X9470000Y8620000D02*
D03*
X10160000Y6710000D02*
D03*
X10300000Y6870000D02*
D03*
X8170000Y6970000D02*
D03*
X9130000Y6910000D02*
D03*
X8770000Y9810000D02*
D03*
X7730000Y9730000D02*
D03*
X7830000Y9460000D02*
D03*
X8660000Y9400000D02*
D03*
%TF.MD5,aaa888703f72d65e434689645277670b*%
M02*
