M48
; DRILL file {KiCad 9.0.0} date 2025-05-09T16:36:05-0700
; FORMAT={-:-/ absolute / metric / decimal}
; #@! TF.CreationDate,2025-05-09T16:36:05-07:00
; #@! TF.GenerationSoftware,Kicad,Pcbnew,9.0.0
; #@! TF.FileFunction,MixedPlating,1,2
FMAT,2
METRIC
; #@! TA.AperFunction,Plated,PTH,ComponentDrill
T1C0.200
; #@! TA.AperFunction,Plated,PTH,ViaDrill
T2C0.300
; #@! TA.AperFunction,Plated,PTH,ViaDrill
T3C0.508
; #@! TA.AperFunction,Plated,PTH,ComponentDrill
T4C0.600
; #@! TA.AperFunction,Plated,PTH,ComponentDrill
T5C0.850
; #@! TA.AperFunction,Plated,PTH,ComponentDrill
T6C1.000
; #@! TA.AperFunction,Plated,PTH,ComponentDrill
T7C1.016
; #@! TA.AperFunction,Plated,PTH,ComponentDrill
T8C1.190
; #@! TA.AperFunction,Plated,PTH,ComponentDrill
T9C1.300
; #@! TA.AperFunction,Plated,PTH,ComponentDrill
T10C1.520
; #@! TA.AperFunction,Plated,PTH,ComponentDrill
T11C1.600
; #@! TA.AperFunction,Plated,PTH,ComponentDrill
T12C2.200
%
G90
G05
T1
X63.48Y-102.0
X63.48Y-103.0
X63.48Y-104.0
X64.48Y-102.0
X64.48Y-103.0
X64.48Y-104.0
X65.48Y-102.0
X65.48Y-103.0
X65.48Y-104.0
X92.73Y-101.9
X92.73Y-102.9
X92.73Y-103.9
X93.73Y-101.9
X93.73Y-102.9
X93.73Y-103.9
X94.73Y-101.9
X94.73Y-102.9
X94.73Y-103.9
X121.36Y-101.9
X121.36Y-102.9
X121.36Y-103.9
X122.36Y-101.9
X122.36Y-102.9
X122.36Y-103.9
X123.36Y-101.9
X123.36Y-102.9
X123.36Y-103.9
T2
X46.781Y-96.47
X47.435Y-96.5
X48.21Y-80.47
X50.21Y-80.47
X52.11Y-80.47
X54.705Y-98.45
X54.78Y-101.6
X54.78Y-102.8
X55.18Y-87.85
X55.66Y-83.77
X55.73Y-98.425
X55.78Y-101.6
X55.78Y-102.725
X57.18Y-100.3
X58.08Y-129.8
X59.01Y-92.57
X59.23Y-107.5
X59.58Y-83.77
X59.58Y-87.6
X59.81Y-98.67
X60.31Y-92.57
X60.88Y-102.3
X61.18Y-129.6
X64.48Y-91.6
X64.55Y-83.77
X64.58Y-87.8
X65.59Y-117.76
X65.98Y-111.5
X68.48Y-116.0
X68.51Y-92.47
X68.88Y-106.81
X68.98Y-104.0
X69.23Y-102.5
X69.58Y-87.9
X69.63Y-83.77
X69.98Y-96.216
X69.98Y-97.05
X70.36Y-107.52
X70.41Y-92.47
X70.76Y-120.25
X70.83Y-119.0
X71.98Y-100.8
X72.48Y-107.5
X72.88Y-109.2
X75.23Y-103.0
X76.68Y-111.8
X76.78Y-105.3
X76.91Y-80.97
X78.91Y-80.97
X78.98Y-92.5
X79.73Y-117.0
X80.48Y-105.3
X80.81Y-80.97
X82.56Y-95.72
X83.28Y-109.2
X83.56Y-96.67
X84.98Y-88.275
X84.98Y-98.5
X85.124Y-84.024
X85.31Y-128.57
X85.31Y-130.97
X86.23Y-113.75
X87.28Y-112.5
X87.635Y-116.395
X89.31Y-92.57
X89.51Y-84.07
X89.51Y-88.77
X89.56Y-98.62
X89.83Y-109.03
X89.88Y-133.4
X89.98Y-136.4
X90.23Y-119.0
X90.347Y-102.193
X90.81Y-92.57
X91.08Y-111.0
X93.31Y-118.97
X93.71Y-84.27
X93.71Y-87.87
X93.71Y-90.77
X94.32Y-134.59
X94.776Y-127.712
X94.98Y-111.03
X95.295Y-119.065
X95.73Y-117.0
X95.93Y-126.05
X95.98Y-127.2
X96.68Y-137.51
X96.91Y-92.47
X97.23Y-118.0
X97.23Y-130.25
X97.58Y-106.67
X97.824Y-84.024
X97.88Y-111.2
X97.956Y-108.97
X97.98Y-104.0
X98.23Y-102.5
X98.28Y-125.55
X98.41Y-86.87
X98.41Y-89.67
X98.73Y-107.75
X98.73Y-117.75
X98.73Y-120.0
X98.79Y-97.69
X99.01Y-92.47
X99.06Y-133.48
X99.348Y-84.024
X99.348Y-97.232
X99.73Y-118.0
X99.73Y-120.25
X99.98Y-127.75
X100.18Y-135.07
X100.48Y-106.0
X100.91Y-130.37
X101.155Y-116.37
X101.23Y-120.5
X101.23Y-127.25
X101.58Y-100.6
X101.81Y-108.97
X103.23Y-120.5
X103.23Y-127.25
X104.48Y-135.92
X104.93Y-88.8
X105.23Y-120.5
X105.48Y-130.75
X105.74Y-129.75
X106.31Y-81.37
X106.73Y-124.0
X106.73Y-126.0
X107.78Y-88.65
X108.01Y-81.37
X108.33Y-134.57
X109.03Y-105.7
X109.51Y-94.07
X109.81Y-81.37
X110.32Y-89.125
X110.34Y-128.9
X110.46Y-94.87
X110.58Y-124.9
X112.08Y-106.8
X112.475Y-97.95
X112.51Y-83.52
X112.59Y-126.26
X113.98Y-109.4
X114.68Y-120.7
X114.76Y-128.22
X114.98Y-132.6
X116.71Y-98.37
X116.81Y-122.05
X117.11Y-92.27
X117.58Y-112.1
X117.636Y-83.516
X117.68Y-117.6
X117.71Y-87.22
X117.81Y-89.97
X118.51Y-98.37
X118.78Y-102.1
X118.81Y-124.14
X118.91Y-108.69
X119.31Y-92.27
X121.38Y-119.5
X122.58Y-124.2
X122.61Y-83.57
X122.61Y-87.67
X124.46Y-111.74
X124.68Y-136.3
X124.81Y-92.27
X125.67Y-104.0
X125.68Y-123.06
X125.68Y-132.675
X126.18Y-103.2
X126.5Y-112.36
X126.78Y-102.4
X126.98Y-101.2
X127.31Y-83.47
X127.41Y-92.27
X127.51Y-112.43
X127.796Y-95.708
X127.796Y-96.724
X127.81Y-87.37
X128.76Y-83.47
X128.77Y-106.54
X130.98Y-138.25
X131.055Y-130.075
X131.23Y-120.5
X132.055Y-127.5
X132.68Y-104.1
X164.839Y-96.909
X168.339Y-96.909
X169.459Y-56.809
X169.459Y-65.679
X172.089Y-56.909
X172.089Y-62.909
X184.739Y-69.509
X191.339Y-76.309
X194.139Y-139.552
X203.839Y-72.409
X205.339Y-76.409
X206.839Y-97.409
X207.399Y-74.349
X210.339Y-106.409
X211.839Y-106.409
X214.839Y-129.409
T3
X195.559Y-139.569
T5
X100.68Y-137.075
X105.68Y-137.075
T6
X54.815Y-139.9
X57.355Y-139.9
X61.04Y-139.9
X63.58Y-139.9
X76.64Y-139.95
X79.18Y-139.95
X85.32Y-139.775
X87.86Y-139.775
X92.32Y-139.775
X94.86Y-139.775
X110.28Y-139.775
X112.82Y-139.775
X117.28Y-139.775
X119.82Y-139.775
X122.36Y-139.775
X124.9Y-139.775
X187.139Y-55.579
X187.139Y-58.119
X187.139Y-60.659
X187.139Y-63.199
X187.139Y-65.739
X187.139Y-68.279
X187.139Y-70.819
X187.139Y-73.359
X189.699Y-80.659
X189.699Y-83.199
X189.699Y-85.739
X189.699Y-88.279
X189.699Y-90.819
X189.699Y-93.359
X189.699Y-95.899
X189.699Y-98.439
X197.787Y-112.305
X197.787Y-114.845
X197.787Y-117.385
X197.787Y-119.925
X197.787Y-122.465
X197.787Y-125.005
X197.787Y-127.545
X197.787Y-130.085
X199.689Y-55.599
X199.689Y-58.139
X199.689Y-60.679
X199.689Y-63.219
X199.689Y-65.759
X199.689Y-68.299
X199.689Y-70.839
X199.689Y-73.379
X202.249Y-80.679
X202.249Y-83.219
X202.249Y-85.759
X202.249Y-88.299
X202.249Y-90.839
X202.249Y-93.379
X202.249Y-95.919
X202.249Y-98.459
X206.634Y-55.544
X207.529Y-60.494
X207.529Y-62.994
X207.529Y-65.494
X207.529Y-67.994
X208.575Y-49.313
X209.979Y-85.889
X209.979Y-88.389
X209.979Y-90.889
X209.979Y-93.389
X210.337Y-112.325
X210.337Y-114.865
X210.337Y-117.405
X210.337Y-119.945
X210.337Y-122.485
X210.337Y-125.025
X210.337Y-127.565
X210.337Y-130.105
X210.857Y-74.349
X210.939Y-80.669
X214.899Y-112.305
X214.923Y-106.409
X221.874Y-55.544
X223.575Y-49.313
X224.097Y-117.423
X224.097Y-119.923
X224.097Y-122.423
X224.097Y-124.923
X225.857Y-74.349
X226.179Y-80.669
X229.923Y-106.409
X230.139Y-112.305
T7
X159.619Y-60.669
X159.619Y-63.209
X159.619Y-65.749
X159.619Y-68.289
X159.619Y-70.829
X159.619Y-73.369
X159.619Y-75.909
X159.619Y-78.449
X159.619Y-80.989
X159.619Y-83.529
X159.619Y-86.069
X159.619Y-88.609
X159.619Y-91.149
X159.619Y-93.689
X159.619Y-96.229
X159.619Y-98.769
X182.479Y-60.669
X182.479Y-63.209
X182.479Y-65.749
X182.479Y-68.289
X182.479Y-70.829
X182.479Y-73.369
X182.479Y-75.909
X182.479Y-78.449
X182.479Y-80.989
X182.479Y-83.529
X182.479Y-86.069
X182.479Y-88.609
X182.479Y-91.149
X182.479Y-93.689
X182.479Y-96.229
X182.479Y-98.769
T8
X153.789Y-65.869
X153.789Y-73.369
X153.789Y-81.869
X156.329Y-65.869
X156.329Y-73.369
X156.329Y-81.869
X166.799Y-45.757
X169.339Y-45.757
X171.879Y-45.757
X174.419Y-45.757
X196.263Y-43.725
X198.803Y-43.725
X202.613Y-43.725
X205.153Y-43.725
X234.139Y-132.769
X234.139Y-135.309
T9
X144.284Y-127.802
X144.284Y-132.802
X186.393Y-49.229
X191.393Y-49.229
T10
X52.18Y-109.56
X52.18Y-114.64
X52.18Y-120.12
X52.18Y-125.2
X56.98Y-79.5
X62.06Y-79.5
X67.14Y-79.5
X72.22Y-79.5
X85.99Y-79.5
X91.07Y-79.5
X96.15Y-79.5
X101.23Y-79.5
X114.99Y-79.5
X120.07Y-79.5
X125.15Y-79.5
X130.23Y-79.5
T11
X226.149Y-85.019
X226.149Y-100.259
X230.339Y-55.519
X230.339Y-70.759
X233.824Y-112.305
X233.824Y-127.545
T12
X48.48Y-71.92
X48.48Y-141.0
X132.48Y-72.0
X132.48Y-141.0
X141.439Y-140.789
X141.649Y-41.889
X236.339Y-41.879
X236.339Y-140.879
T4
G00X99.68Y-140.125
M15
G01X99.68Y-139.425
M16
G05
G00X106.68Y-139.425
M15
G01X106.68Y-140.125
M16
G05
M30
