M48
; DRILL file {KiCad 9.0.0} date 2025-03-28T00:35:06-0700
; FORMAT={-:-/ absolute / metric / decimal}
; #@! TF.CreationDate,2025-03-28T00:35:06-07:00
; #@! TF.GenerationSoftware,Kicad,Pcbnew,9.0.0
; #@! TF.FileFunction,MixedPlating,1,4
FMAT,2
METRIC
; #@! TA.AperFunction,Plated,PTH,ViaDrill
T1C0.300
; #@! TA.AperFunction,Plated,PTH,ViaDrill
T2C0.400
; #@! TA.AperFunction,Plated,PTH,ComponentDrill
T3C0.600
; #@! TA.AperFunction,Plated,PTH,ComponentDrill
T4C0.850
; #@! TA.AperFunction,Plated,PTH,ComponentDrill
T5C1.000
; #@! TA.AperFunction,NonPlated,NPTH,ComponentDrill
T6C2.200
%
G90
G05
T1
X169.3Y-92.2
X169.3Y-95.0
X170.75Y-75.0
X171.0Y-76.2
X172.6Y-85.7
X172.8Y-76.4
X172.9Y-75.0
X173.2Y-83.1
X173.875Y-81.8
X174.25Y-90.5
X174.6Y-94.3
X174.9Y-92.4
X175.0Y-67.7
X175.5Y-89.4
X176.0Y-67.8
X176.4Y-102.1
X176.7Y-81.6
X176.9Y-77.25
X176.9Y-78.8
X177.0Y-72.1
X177.15Y-79.95
X177.5Y-91.8
X177.8Y-72.9
X177.8Y-76.45
X177.9Y-70.1
X178.35Y-78.5
X178.7Y-89.05
X178.95Y-74.1
X179.0Y-79.5
X179.2Y-97.2
X179.434Y-76.755
X179.75Y-89.75
X180.0Y-73.8
X180.45Y-75.85
X181.25Y-71.45
X182.2Y-89.7
X182.3Y-88.1
X182.7Y-101.1
X183.4Y-102.1
X184.2Y-81.6
X184.2Y-89.1
X184.6Y-72.3
X185.3Y-88.5
X187.46Y-85.4
X187.8Y-88.1
X188.0Y-82.1
X188.8Y-75.0
X189.0Y-78.75
X189.2Y-65.65
X189.2Y-72.1
X189.2Y-77.7
X189.3Y-80.9
X189.65Y-90.45
X190.9Y-90.65
X191.7Y-86.75
X192.8Y-88.2
X193.145Y-79.655
X193.9Y-81.55
X194.04Y-72.9
X194.5Y-79.55
X195.2Y-71.4
X195.5Y-99.6
X195.7Y-80.67
X196.94Y-72.8
X198.15Y-81.15
X198.4Y-74.95
X198.8Y-70.2
X201.95Y-82.65
X201.95Y-88.65
T2
X157.0Y-59.0
X157.0Y-62.0
X157.0Y-65.0
X157.0Y-68.0
X157.0Y-71.0
X157.0Y-74.0
X157.0Y-77.0
X157.0Y-80.0
X157.0Y-83.0
X157.0Y-89.0
X157.0Y-92.0
X157.0Y-95.0
X157.0Y-98.0
X160.0Y-56.0
X160.0Y-59.0
X163.0Y-56.0
X163.0Y-59.0
X166.0Y-56.0
X166.0Y-59.0
X166.0Y-62.0
X167.0Y-86.0
X169.0Y-56.0
X169.0Y-59.0
X169.0Y-62.0
X172.0Y-56.0
X172.0Y-59.0
X175.0Y-56.0
X175.0Y-59.0
X178.0Y-56.0
X179.0Y-104.0
X181.0Y-56.0
X182.0Y-104.0
X183.0Y-70.0
X183.5Y-62.25
X184.0Y-56.0
X185.5Y-91.0
X186.0Y-78.0
X187.0Y-55.0
X188.0Y-104.0
X190.0Y-55.0
X192.0Y-95.0
X192.0Y-98.0
X193.0Y-55.0
X195.0Y-84.0
X195.0Y-87.0
X195.0Y-90.0
X195.0Y-95.0
X195.0Y-98.0
X196.0Y-56.0
X201.0Y-91.0
X203.0Y-66.0
X203.0Y-69.0
X203.0Y-72.0
X203.0Y-75.0
X203.0Y-78.0
X203.0Y-81.0
X203.0Y-84.0
X203.0Y-87.0
T4
X169.05Y-101.287
X174.05Y-101.287
X191.67Y-101.04
X196.67Y-101.04
T5
X160.46Y-63.97
X160.46Y-66.51
X160.46Y-69.05
X160.46Y-71.59
X160.46Y-74.13
X160.46Y-76.67
X160.46Y-79.21
X160.46Y-81.75
X160.46Y-84.29
X160.46Y-86.83
X160.46Y-89.37
X160.46Y-91.91
X160.46Y-94.45
X160.46Y-96.99
X160.46Y-99.53
X160.46Y-102.07
X160.46Y-104.61
X163.0Y-63.97
X163.0Y-66.51
X163.0Y-69.05
X163.0Y-71.59
X163.0Y-74.13
X163.0Y-76.67
X163.0Y-79.21
X163.0Y-81.75
X163.0Y-84.29
X163.0Y-86.83
X163.0Y-89.37
X163.0Y-91.91
X163.0Y-94.45
X163.0Y-96.99
X163.0Y-99.53
X163.0Y-102.07
X163.0Y-104.61
X182.1Y-59.75
X184.64Y-59.75
X187.18Y-59.75
X189.72Y-59.75
X192.26Y-59.75
X194.8Y-59.75
X198.3Y-93.235
X198.3Y-95.775
X198.9Y-59.73
X198.9Y-62.27
X198.9Y-64.81
X198.9Y-67.35
T6
X156.0Y-55.0
X156.0Y-104.0
X202.0Y-55.0
X202.0Y-104.0
T3
G00X168.05Y-104.337
M15
G01X168.05Y-103.637
M16
G05
G00X175.05Y-103.637
M15
G01X175.05Y-104.337
M16
G05
G00X190.67Y-104.09
M15
G01X190.67Y-103.39
M16
G05
G00X197.67Y-103.39
M15
G01X197.67Y-104.09
M16
G05
M30
