%TF.GenerationSoftware,KiCad,Pcbnew,9.0.0*%
%TF.CreationDate,2025-03-28T00:35:08-07:00*%
%TF.ProjectId,stm32f429vit6_v1,73746d33-3266-4343-9239-766974365f76,rev?*%
%TF.SameCoordinates,Original*%
%TF.FileFunction,Legend,Bot*%
%TF.FilePolarity,Positive*%
%FSLAX46Y46*%
G04 Gerber Fmt 4.6, Leading zero omitted, Abs format (unit mm)*
G04 Created by KiCad (PCBNEW 9.0.0) date 2025-03-28 00:35:08*
%MOMM*%
%LPD*%
G01*
G04 APERTURE LIST*
%ADD10C,0.100000*%
%ADD11C,0.200000*%
%ADD12C,0.150000*%
%ADD13C,0.120000*%
G04 APERTURE END LIST*
D10*
X158238972Y-98772419D02*
X157667544Y-98772419D01*
X157953258Y-99772419D02*
X157953258Y-98772419D01*
X157334210Y-99772419D02*
X157334210Y-98772419D01*
X157334210Y-98772419D02*
X156953258Y-98772419D01*
X156953258Y-98772419D02*
X156858020Y-98820038D01*
X156858020Y-98820038D02*
X156810401Y-98867657D01*
X156810401Y-98867657D02*
X156762782Y-98962895D01*
X156762782Y-98962895D02*
X156762782Y-99105752D01*
X156762782Y-99105752D02*
X156810401Y-99200990D01*
X156810401Y-99200990D02*
X156858020Y-99248609D01*
X156858020Y-99248609D02*
X156953258Y-99296228D01*
X156953258Y-99296228D02*
X157334210Y-99296228D01*
X156572306Y-99867657D02*
X155810401Y-99867657D01*
X155000877Y-99677180D02*
X155048496Y-99724800D01*
X155048496Y-99724800D02*
X155191353Y-99772419D01*
X155191353Y-99772419D02*
X155286591Y-99772419D01*
X155286591Y-99772419D02*
X155429448Y-99724800D01*
X155429448Y-99724800D02*
X155524686Y-99629561D01*
X155524686Y-99629561D02*
X155572305Y-99534323D01*
X155572305Y-99534323D02*
X155619924Y-99343847D01*
X155619924Y-99343847D02*
X155619924Y-99200990D01*
X155619924Y-99200990D02*
X155572305Y-99010514D01*
X155572305Y-99010514D02*
X155524686Y-98915276D01*
X155524686Y-98915276D02*
X155429448Y-98820038D01*
X155429448Y-98820038D02*
X155286591Y-98772419D01*
X155286591Y-98772419D02*
X155191353Y-98772419D01*
X155191353Y-98772419D02*
X155048496Y-98820038D01*
X155048496Y-98820038D02*
X155000877Y-98867657D01*
X154619924Y-99724800D02*
X154477067Y-99772419D01*
X154477067Y-99772419D02*
X154238972Y-99772419D01*
X154238972Y-99772419D02*
X154143734Y-99724800D01*
X154143734Y-99724800D02*
X154096115Y-99677180D01*
X154096115Y-99677180D02*
X154048496Y-99581942D01*
X154048496Y-99581942D02*
X154048496Y-99486704D01*
X154048496Y-99486704D02*
X154096115Y-99391466D01*
X154096115Y-99391466D02*
X154143734Y-99343847D01*
X154143734Y-99343847D02*
X154238972Y-99296228D01*
X154238972Y-99296228D02*
X154429448Y-99248609D01*
X154429448Y-99248609D02*
X154524686Y-99200990D01*
X154524686Y-99200990D02*
X154572305Y-99153371D01*
X154572305Y-99153371D02*
X154619924Y-99058133D01*
X154619924Y-99058133D02*
X154619924Y-98962895D01*
X154619924Y-98962895D02*
X154572305Y-98867657D01*
X154572305Y-98867657D02*
X154524686Y-98820038D01*
X154524686Y-98820038D02*
X154429448Y-98772419D01*
X154429448Y-98772419D02*
X154191353Y-98772419D01*
X154191353Y-98772419D02*
X154048496Y-98820038D01*
X203088972Y-61622419D02*
X202517544Y-61622419D01*
X202803258Y-62622419D02*
X202803258Y-61622419D01*
X202279448Y-61622419D02*
X201612782Y-62622419D01*
X201612782Y-61622419D02*
X202279448Y-62622419D01*
X157696115Y-67172419D02*
X157696115Y-66172419D01*
X157696115Y-66172419D02*
X157458020Y-66172419D01*
X157458020Y-66172419D02*
X157315163Y-66220038D01*
X157315163Y-66220038D02*
X157219925Y-66315276D01*
X157219925Y-66315276D02*
X157172306Y-66410514D01*
X157172306Y-66410514D02*
X157124687Y-66600990D01*
X157124687Y-66600990D02*
X157124687Y-66743847D01*
X157124687Y-66743847D02*
X157172306Y-66934323D01*
X157172306Y-66934323D02*
X157219925Y-67029561D01*
X157219925Y-67029561D02*
X157315163Y-67124800D01*
X157315163Y-67124800D02*
X157458020Y-67172419D01*
X157458020Y-67172419D02*
X157696115Y-67172419D01*
X156505639Y-66172419D02*
X156410401Y-66172419D01*
X156410401Y-66172419D02*
X156315163Y-66220038D01*
X156315163Y-66220038D02*
X156267544Y-66267657D01*
X156267544Y-66267657D02*
X156219925Y-66362895D01*
X156219925Y-66362895D02*
X156172306Y-66553371D01*
X156172306Y-66553371D02*
X156172306Y-66791466D01*
X156172306Y-66791466D02*
X156219925Y-66981942D01*
X156219925Y-66981942D02*
X156267544Y-67077180D01*
X156267544Y-67077180D02*
X156315163Y-67124800D01*
X156315163Y-67124800D02*
X156410401Y-67172419D01*
X156410401Y-67172419D02*
X156505639Y-67172419D01*
X156505639Y-67172419D02*
X156600877Y-67124800D01*
X156600877Y-67124800D02*
X156648496Y-67077180D01*
X156648496Y-67077180D02*
X156696115Y-66981942D01*
X156696115Y-66981942D02*
X156743734Y-66791466D01*
X156743734Y-66791466D02*
X156743734Y-66553371D01*
X156743734Y-66553371D02*
X156696115Y-66362895D01*
X156696115Y-66362895D02*
X156648496Y-66267657D01*
X156648496Y-66267657D02*
X156600877Y-66220038D01*
X156600877Y-66220038D02*
X156505639Y-66172419D01*
X193874687Y-57372419D02*
X194208020Y-56896228D01*
X194446115Y-57372419D02*
X194446115Y-56372419D01*
X194446115Y-56372419D02*
X194065163Y-56372419D01*
X194065163Y-56372419D02*
X193969925Y-56420038D01*
X193969925Y-56420038D02*
X193922306Y-56467657D01*
X193922306Y-56467657D02*
X193874687Y-56562895D01*
X193874687Y-56562895D02*
X193874687Y-56705752D01*
X193874687Y-56705752D02*
X193922306Y-56800990D01*
X193922306Y-56800990D02*
X193969925Y-56848609D01*
X193969925Y-56848609D02*
X194065163Y-56896228D01*
X194065163Y-56896228D02*
X194446115Y-56896228D01*
X193493734Y-57324800D02*
X193350877Y-57372419D01*
X193350877Y-57372419D02*
X193112782Y-57372419D01*
X193112782Y-57372419D02*
X193017544Y-57324800D01*
X193017544Y-57324800D02*
X192969925Y-57277180D01*
X192969925Y-57277180D02*
X192922306Y-57181942D01*
X192922306Y-57181942D02*
X192922306Y-57086704D01*
X192922306Y-57086704D02*
X192969925Y-56991466D01*
X192969925Y-56991466D02*
X193017544Y-56943847D01*
X193017544Y-56943847D02*
X193112782Y-56896228D01*
X193112782Y-56896228D02*
X193303258Y-56848609D01*
X193303258Y-56848609D02*
X193398496Y-56800990D01*
X193398496Y-56800990D02*
X193446115Y-56753371D01*
X193446115Y-56753371D02*
X193493734Y-56658133D01*
X193493734Y-56658133D02*
X193493734Y-56562895D01*
X193493734Y-56562895D02*
X193446115Y-56467657D01*
X193446115Y-56467657D02*
X193398496Y-56420038D01*
X193398496Y-56420038D02*
X193303258Y-56372419D01*
X193303258Y-56372419D02*
X193065163Y-56372419D01*
X193065163Y-56372419D02*
X192922306Y-56420038D01*
X192636591Y-56372419D02*
X192065163Y-56372419D01*
X192350877Y-57372419D02*
X192350877Y-56372419D01*
X202624687Y-65122419D02*
X202958020Y-64646228D01*
X203196115Y-65122419D02*
X203196115Y-64122419D01*
X203196115Y-64122419D02*
X202815163Y-64122419D01*
X202815163Y-64122419D02*
X202719925Y-64170038D01*
X202719925Y-64170038D02*
X202672306Y-64217657D01*
X202672306Y-64217657D02*
X202624687Y-64312895D01*
X202624687Y-64312895D02*
X202624687Y-64455752D01*
X202624687Y-64455752D02*
X202672306Y-64550990D01*
X202672306Y-64550990D02*
X202719925Y-64598609D01*
X202719925Y-64598609D02*
X202815163Y-64646228D01*
X202815163Y-64646228D02*
X203196115Y-64646228D01*
X202291353Y-64122419D02*
X201624687Y-65122419D01*
X201624687Y-64122419D02*
X202291353Y-65122419D01*
D11*
X160864136Y-61267219D02*
X161340326Y-61267219D01*
X161340326Y-61267219D02*
X161340326Y-60267219D01*
X159959374Y-61171980D02*
X160006993Y-61219600D01*
X160006993Y-61219600D02*
X160149850Y-61267219D01*
X160149850Y-61267219D02*
X160245088Y-61267219D01*
X160245088Y-61267219D02*
X160387945Y-61219600D01*
X160387945Y-61219600D02*
X160483183Y-61124361D01*
X160483183Y-61124361D02*
X160530802Y-61029123D01*
X160530802Y-61029123D02*
X160578421Y-60838647D01*
X160578421Y-60838647D02*
X160578421Y-60695790D01*
X160578421Y-60695790D02*
X160530802Y-60505314D01*
X160530802Y-60505314D02*
X160483183Y-60410076D01*
X160483183Y-60410076D02*
X160387945Y-60314838D01*
X160387945Y-60314838D02*
X160245088Y-60267219D01*
X160245088Y-60267219D02*
X160149850Y-60267219D01*
X160149850Y-60267219D02*
X160006993Y-60314838D01*
X160006993Y-60314838D02*
X159959374Y-60362457D01*
X159530802Y-61267219D02*
X159530802Y-60267219D01*
X159530802Y-60267219D02*
X159292707Y-60267219D01*
X159292707Y-60267219D02*
X159149850Y-60314838D01*
X159149850Y-60314838D02*
X159054612Y-60410076D01*
X159054612Y-60410076D02*
X159006993Y-60505314D01*
X159006993Y-60505314D02*
X158959374Y-60695790D01*
X158959374Y-60695790D02*
X158959374Y-60838647D01*
X158959374Y-60838647D02*
X159006993Y-61029123D01*
X159006993Y-61029123D02*
X159054612Y-61124361D01*
X159054612Y-61124361D02*
X159149850Y-61219600D01*
X159149850Y-61219600D02*
X159292707Y-61267219D01*
X159292707Y-61267219D02*
X159530802Y-61267219D01*
D10*
X191196115Y-57372419D02*
X191196115Y-56372419D01*
X191196115Y-56372419D02*
X190958020Y-56372419D01*
X190958020Y-56372419D02*
X190815163Y-56420038D01*
X190815163Y-56420038D02*
X190719925Y-56515276D01*
X190719925Y-56515276D02*
X190672306Y-56610514D01*
X190672306Y-56610514D02*
X190624687Y-56800990D01*
X190624687Y-56800990D02*
X190624687Y-56943847D01*
X190624687Y-56943847D02*
X190672306Y-57134323D01*
X190672306Y-57134323D02*
X190719925Y-57229561D01*
X190719925Y-57229561D02*
X190815163Y-57324800D01*
X190815163Y-57324800D02*
X190958020Y-57372419D01*
X190958020Y-57372419D02*
X191196115Y-57372419D01*
X190196115Y-57372419D02*
X190196115Y-56372419D01*
X189529449Y-56372419D02*
X189338973Y-56372419D01*
X189338973Y-56372419D02*
X189243735Y-56420038D01*
X189243735Y-56420038D02*
X189148497Y-56515276D01*
X189148497Y-56515276D02*
X189100878Y-56705752D01*
X189100878Y-56705752D02*
X189100878Y-57039085D01*
X189100878Y-57039085D02*
X189148497Y-57229561D01*
X189148497Y-57229561D02*
X189243735Y-57324800D01*
X189243735Y-57324800D02*
X189338973Y-57372419D01*
X189338973Y-57372419D02*
X189529449Y-57372419D01*
X189529449Y-57372419D02*
X189624687Y-57324800D01*
X189624687Y-57324800D02*
X189719925Y-57229561D01*
X189719925Y-57229561D02*
X189767544Y-57039085D01*
X189767544Y-57039085D02*
X189767544Y-56705752D01*
X189767544Y-56705752D02*
X189719925Y-56515276D01*
X189719925Y-56515276D02*
X189624687Y-56420038D01*
X189624687Y-56420038D02*
X189529449Y-56372419D01*
X187124687Y-57277180D02*
X187172306Y-57324800D01*
X187172306Y-57324800D02*
X187315163Y-57372419D01*
X187315163Y-57372419D02*
X187410401Y-57372419D01*
X187410401Y-57372419D02*
X187553258Y-57324800D01*
X187553258Y-57324800D02*
X187648496Y-57229561D01*
X187648496Y-57229561D02*
X187696115Y-57134323D01*
X187696115Y-57134323D02*
X187743734Y-56943847D01*
X187743734Y-56943847D02*
X187743734Y-56800990D01*
X187743734Y-56800990D02*
X187696115Y-56610514D01*
X187696115Y-56610514D02*
X187648496Y-56515276D01*
X187648496Y-56515276D02*
X187553258Y-56420038D01*
X187553258Y-56420038D02*
X187410401Y-56372419D01*
X187410401Y-56372419D02*
X187315163Y-56372419D01*
X187315163Y-56372419D02*
X187172306Y-56420038D01*
X187172306Y-56420038D02*
X187124687Y-56467657D01*
X186219925Y-57372419D02*
X186696115Y-57372419D01*
X186696115Y-57372419D02*
X186696115Y-56372419D01*
X185886591Y-57372419D02*
X185886591Y-56372419D01*
X185315163Y-57372419D02*
X185743734Y-56800990D01*
X185315163Y-56372419D02*
X185886591Y-56943847D01*
X157896115Y-87172419D02*
X157896115Y-86172419D01*
X157896115Y-86172419D02*
X157324687Y-87172419D01*
X157324687Y-87172419D02*
X157324687Y-86172419D01*
X156848496Y-86648609D02*
X156515163Y-86648609D01*
X156372306Y-87172419D02*
X156848496Y-87172419D01*
X156848496Y-87172419D02*
X156848496Y-86172419D01*
X156848496Y-86172419D02*
X156372306Y-86172419D01*
X155419925Y-87172419D02*
X155991353Y-87172419D01*
X155705639Y-87172419D02*
X155705639Y-86172419D01*
X155705639Y-86172419D02*
X155800877Y-86315276D01*
X155800877Y-86315276D02*
X155896115Y-86410514D01*
X155896115Y-86410514D02*
X155991353Y-86458133D01*
X184743734Y-70967657D02*
X184696115Y-70920038D01*
X184696115Y-70920038D02*
X184600877Y-70872419D01*
X184600877Y-70872419D02*
X184362782Y-70872419D01*
X184362782Y-70872419D02*
X184267544Y-70920038D01*
X184267544Y-70920038D02*
X184219925Y-70967657D01*
X184219925Y-70967657D02*
X184172306Y-71062895D01*
X184172306Y-71062895D02*
X184172306Y-71158133D01*
X184172306Y-71158133D02*
X184219925Y-71300990D01*
X184219925Y-71300990D02*
X184791353Y-71872419D01*
X184791353Y-71872419D02*
X184172306Y-71872419D01*
X183315163Y-71205752D02*
X183315163Y-71872419D01*
X183743734Y-71205752D02*
X183743734Y-71729561D01*
X183743734Y-71729561D02*
X183696115Y-71824800D01*
X183696115Y-71824800D02*
X183600877Y-71872419D01*
X183600877Y-71872419D02*
X183458020Y-71872419D01*
X183458020Y-71872419D02*
X183362782Y-71824800D01*
X183362782Y-71824800D02*
X183315163Y-71777180D01*
X182886591Y-70967657D02*
X182838972Y-70920038D01*
X182838972Y-70920038D02*
X182743734Y-70872419D01*
X182743734Y-70872419D02*
X182505639Y-70872419D01*
X182505639Y-70872419D02*
X182410401Y-70920038D01*
X182410401Y-70920038D02*
X182362782Y-70967657D01*
X182362782Y-70967657D02*
X182315163Y-71062895D01*
X182315163Y-71062895D02*
X182315163Y-71158133D01*
X182315163Y-71158133D02*
X182362782Y-71300990D01*
X182362782Y-71300990D02*
X182934210Y-71872419D01*
X182934210Y-71872419D02*
X182315163Y-71872419D01*
D12*
X175779166Y-64979580D02*
X175826785Y-65027200D01*
X175826785Y-65027200D02*
X175969642Y-65074819D01*
X175969642Y-65074819D02*
X176064880Y-65074819D01*
X176064880Y-65074819D02*
X176207737Y-65027200D01*
X176207737Y-65027200D02*
X176302975Y-64931961D01*
X176302975Y-64931961D02*
X176350594Y-64836723D01*
X176350594Y-64836723D02*
X176398213Y-64646247D01*
X176398213Y-64646247D02*
X176398213Y-64503390D01*
X176398213Y-64503390D02*
X176350594Y-64312914D01*
X176350594Y-64312914D02*
X176302975Y-64217676D01*
X176302975Y-64217676D02*
X176207737Y-64122438D01*
X176207737Y-64122438D02*
X176064880Y-64074819D01*
X176064880Y-64074819D02*
X175969642Y-64074819D01*
X175969642Y-64074819D02*
X175826785Y-64122438D01*
X175826785Y-64122438D02*
X175779166Y-64170057D01*
X174874404Y-64074819D02*
X175350594Y-64074819D01*
X175350594Y-64074819D02*
X175398213Y-64551009D01*
X175398213Y-64551009D02*
X175350594Y-64503390D01*
X175350594Y-64503390D02*
X175255356Y-64455771D01*
X175255356Y-64455771D02*
X175017261Y-64455771D01*
X175017261Y-64455771D02*
X174922023Y-64503390D01*
X174922023Y-64503390D02*
X174874404Y-64551009D01*
X174874404Y-64551009D02*
X174826785Y-64646247D01*
X174826785Y-64646247D02*
X174826785Y-64884342D01*
X174826785Y-64884342D02*
X174874404Y-64979580D01*
X174874404Y-64979580D02*
X174922023Y-65027200D01*
X174922023Y-65027200D02*
X175017261Y-65074819D01*
X175017261Y-65074819D02*
X175255356Y-65074819D01*
X175255356Y-65074819D02*
X175350594Y-65027200D01*
X175350594Y-65027200D02*
X175398213Y-64979580D01*
X192466666Y-83809580D02*
X192514285Y-83857200D01*
X192514285Y-83857200D02*
X192657142Y-83904819D01*
X192657142Y-83904819D02*
X192752380Y-83904819D01*
X192752380Y-83904819D02*
X192895237Y-83857200D01*
X192895237Y-83857200D02*
X192990475Y-83761961D01*
X192990475Y-83761961D02*
X193038094Y-83666723D01*
X193038094Y-83666723D02*
X193085713Y-83476247D01*
X193085713Y-83476247D02*
X193085713Y-83333390D01*
X193085713Y-83333390D02*
X193038094Y-83142914D01*
X193038094Y-83142914D02*
X192990475Y-83047676D01*
X192990475Y-83047676D02*
X192895237Y-82952438D01*
X192895237Y-82952438D02*
X192752380Y-82904819D01*
X192752380Y-82904819D02*
X192657142Y-82904819D01*
X192657142Y-82904819D02*
X192514285Y-82952438D01*
X192514285Y-82952438D02*
X192466666Y-83000057D01*
X191895237Y-83333390D02*
X191990475Y-83285771D01*
X191990475Y-83285771D02*
X192038094Y-83238152D01*
X192038094Y-83238152D02*
X192085713Y-83142914D01*
X192085713Y-83142914D02*
X192085713Y-83095295D01*
X192085713Y-83095295D02*
X192038094Y-83000057D01*
X192038094Y-83000057D02*
X191990475Y-82952438D01*
X191990475Y-82952438D02*
X191895237Y-82904819D01*
X191895237Y-82904819D02*
X191704761Y-82904819D01*
X191704761Y-82904819D02*
X191609523Y-82952438D01*
X191609523Y-82952438D02*
X191561904Y-83000057D01*
X191561904Y-83000057D02*
X191514285Y-83095295D01*
X191514285Y-83095295D02*
X191514285Y-83142914D01*
X191514285Y-83142914D02*
X191561904Y-83238152D01*
X191561904Y-83238152D02*
X191609523Y-83285771D01*
X191609523Y-83285771D02*
X191704761Y-83333390D01*
X191704761Y-83333390D02*
X191895237Y-83333390D01*
X191895237Y-83333390D02*
X191990475Y-83381009D01*
X191990475Y-83381009D02*
X192038094Y-83428628D01*
X192038094Y-83428628D02*
X192085713Y-83523866D01*
X192085713Y-83523866D02*
X192085713Y-83714342D01*
X192085713Y-83714342D02*
X192038094Y-83809580D01*
X192038094Y-83809580D02*
X191990475Y-83857200D01*
X191990475Y-83857200D02*
X191895237Y-83904819D01*
X191895237Y-83904819D02*
X191704761Y-83904819D01*
X191704761Y-83904819D02*
X191609523Y-83857200D01*
X191609523Y-83857200D02*
X191561904Y-83809580D01*
X191561904Y-83809580D02*
X191514285Y-83714342D01*
X191514285Y-83714342D02*
X191514285Y-83523866D01*
X191514285Y-83523866D02*
X191561904Y-83428628D01*
X191561904Y-83428628D02*
X191609523Y-83381009D01*
X191609523Y-83381009D02*
X191704761Y-83333390D01*
X180792857Y-73009580D02*
X180840476Y-73057200D01*
X180840476Y-73057200D02*
X180983333Y-73104819D01*
X180983333Y-73104819D02*
X181078571Y-73104819D01*
X181078571Y-73104819D02*
X181221428Y-73057200D01*
X181221428Y-73057200D02*
X181316666Y-72961961D01*
X181316666Y-72961961D02*
X181364285Y-72866723D01*
X181364285Y-72866723D02*
X181411904Y-72676247D01*
X181411904Y-72676247D02*
X181411904Y-72533390D01*
X181411904Y-72533390D02*
X181364285Y-72342914D01*
X181364285Y-72342914D02*
X181316666Y-72247676D01*
X181316666Y-72247676D02*
X181221428Y-72152438D01*
X181221428Y-72152438D02*
X181078571Y-72104819D01*
X181078571Y-72104819D02*
X180983333Y-72104819D01*
X180983333Y-72104819D02*
X180840476Y-72152438D01*
X180840476Y-72152438D02*
X180792857Y-72200057D01*
X179840476Y-73104819D02*
X180411904Y-73104819D01*
X180126190Y-73104819D02*
X180126190Y-72104819D01*
X180126190Y-72104819D02*
X180221428Y-72247676D01*
X180221428Y-72247676D02*
X180316666Y-72342914D01*
X180316666Y-72342914D02*
X180411904Y-72390533D01*
X179507142Y-72104819D02*
X178840476Y-72104819D01*
X178840476Y-72104819D02*
X179269047Y-73104819D01*
D13*
%TO.C,J6*%
X159130000Y-62640000D02*
X164330000Y-62640000D01*
X159130000Y-105940000D02*
X159130000Y-62640000D01*
X159130000Y-105940000D02*
X161730000Y-105940000D01*
X161730000Y-103340000D02*
X164330000Y-103340000D01*
X161730000Y-105940000D02*
X161730000Y-103340000D01*
X163000000Y-105940000D02*
X164330000Y-105940000D01*
X164330000Y-103340000D02*
X164330000Y-62640000D01*
X164330000Y-105940000D02*
X164330000Y-104610000D01*
%TO.C,C5*%
X175873752Y-65565000D02*
X175351248Y-65565000D01*
X175873752Y-67035000D02*
X175351248Y-67035000D01*
%TO.C,C8*%
X192585000Y-80961252D02*
X192585000Y-80438748D01*
X191115000Y-80961252D02*
X191115000Y-80438748D01*
%TO.C,C17*%
X179888748Y-70935000D02*
X180411252Y-70935000D01*
X179888748Y-69465000D02*
X180411252Y-69465000D01*
%TD*%
M02*
