%TF.GenerationSoftware,KiCad,Pcbnew,9.0.0*%
%TF.CreationDate,2025-03-28T00:35:08-07:00*%
%TF.ProjectId,stm32f429vit6_v1,73746d33-3266-4343-9239-766974365f76,rev?*%
%TF.SameCoordinates,Original*%
%TF.FileFunction,Legend,Top*%
%TF.FilePolarity,Positive*%
%FSLAX46Y46*%
G04 Gerber Fmt 4.6, Leading zero omitted, Abs format (unit mm)*
G04 Created by KiCad (PCBNEW 9.0.0) date 2025-03-28 00:35:08*
%MOMM*%
%LPD*%
G01*
G04 APERTURE LIST*
%ADD10C,0.100000*%
%ADD11C,0.200000*%
%ADD12C,0.150000*%
%ADD13C,0.120000*%
G04 APERTURE END LIST*
D10*
X173703884Y-88091466D02*
X174465789Y-88091466D01*
X174084836Y-88472419D02*
X174084836Y-87710514D01*
D11*
X197069673Y-98467219D02*
X197069673Y-99276742D01*
X197069673Y-99276742D02*
X197117292Y-99371980D01*
X197117292Y-99371980D02*
X197164911Y-99419600D01*
X197164911Y-99419600D02*
X197260149Y-99467219D01*
X197260149Y-99467219D02*
X197450625Y-99467219D01*
X197450625Y-99467219D02*
X197545863Y-99419600D01*
X197545863Y-99419600D02*
X197593482Y-99371980D01*
X197593482Y-99371980D02*
X197641101Y-99276742D01*
X197641101Y-99276742D02*
X197641101Y-98467219D01*
X198069673Y-99419600D02*
X198212530Y-99467219D01*
X198212530Y-99467219D02*
X198450625Y-99467219D01*
X198450625Y-99467219D02*
X198545863Y-99419600D01*
X198545863Y-99419600D02*
X198593482Y-99371980D01*
X198593482Y-99371980D02*
X198641101Y-99276742D01*
X198641101Y-99276742D02*
X198641101Y-99181504D01*
X198641101Y-99181504D02*
X198593482Y-99086266D01*
X198593482Y-99086266D02*
X198545863Y-99038647D01*
X198545863Y-99038647D02*
X198450625Y-98991028D01*
X198450625Y-98991028D02*
X198260149Y-98943409D01*
X198260149Y-98943409D02*
X198164911Y-98895790D01*
X198164911Y-98895790D02*
X198117292Y-98848171D01*
X198117292Y-98848171D02*
X198069673Y-98752933D01*
X198069673Y-98752933D02*
X198069673Y-98657695D01*
X198069673Y-98657695D02*
X198117292Y-98562457D01*
X198117292Y-98562457D02*
X198164911Y-98514838D01*
X198164911Y-98514838D02*
X198260149Y-98467219D01*
X198260149Y-98467219D02*
X198498244Y-98467219D01*
X198498244Y-98467219D02*
X198641101Y-98514838D01*
X199403006Y-98943409D02*
X199545863Y-98991028D01*
X199545863Y-98991028D02*
X199593482Y-99038647D01*
X199593482Y-99038647D02*
X199641101Y-99133885D01*
X199641101Y-99133885D02*
X199641101Y-99276742D01*
X199641101Y-99276742D02*
X199593482Y-99371980D01*
X199593482Y-99371980D02*
X199545863Y-99419600D01*
X199545863Y-99419600D02*
X199450625Y-99467219D01*
X199450625Y-99467219D02*
X199069673Y-99467219D01*
X199069673Y-99467219D02*
X199069673Y-98467219D01*
X199069673Y-98467219D02*
X199403006Y-98467219D01*
X199403006Y-98467219D02*
X199498244Y-98514838D01*
X199498244Y-98514838D02*
X199545863Y-98562457D01*
X199545863Y-98562457D02*
X199593482Y-98657695D01*
X199593482Y-98657695D02*
X199593482Y-98752933D01*
X199593482Y-98752933D02*
X199545863Y-98848171D01*
X199545863Y-98848171D02*
X199498244Y-98895790D01*
X199498244Y-98895790D02*
X199403006Y-98943409D01*
X199403006Y-98943409D02*
X199069673Y-98943409D01*
X200831578Y-99467219D02*
X200831578Y-98467219D01*
X200831578Y-98467219D02*
X201212530Y-98467219D01*
X201212530Y-98467219D02*
X201307768Y-98514838D01*
X201307768Y-98514838D02*
X201355387Y-98562457D01*
X201355387Y-98562457D02*
X201403006Y-98657695D01*
X201403006Y-98657695D02*
X201403006Y-98800552D01*
X201403006Y-98800552D02*
X201355387Y-98895790D01*
X201355387Y-98895790D02*
X201307768Y-98943409D01*
X201307768Y-98943409D02*
X201212530Y-98991028D01*
X201212530Y-98991028D02*
X200831578Y-98991028D01*
X201736340Y-98467219D02*
X201974435Y-99467219D01*
X201974435Y-99467219D02*
X202164911Y-98752933D01*
X202164911Y-98752933D02*
X202355387Y-99467219D01*
X202355387Y-99467219D02*
X202593483Y-98467219D01*
X203545863Y-99467219D02*
X203212530Y-98991028D01*
X202974435Y-99467219D02*
X202974435Y-98467219D01*
X202974435Y-98467219D02*
X203355387Y-98467219D01*
X203355387Y-98467219D02*
X203450625Y-98514838D01*
X203450625Y-98514838D02*
X203498244Y-98562457D01*
X203498244Y-98562457D02*
X203545863Y-98657695D01*
X203545863Y-98657695D02*
X203545863Y-98800552D01*
X203545863Y-98800552D02*
X203498244Y-98895790D01*
X203498244Y-98895790D02*
X203450625Y-98943409D01*
X203450625Y-98943409D02*
X203355387Y-98991028D01*
X203355387Y-98991028D02*
X202974435Y-98991028D01*
X176822054Y-59519600D02*
X176964911Y-59567219D01*
X176964911Y-59567219D02*
X177203006Y-59567219D01*
X177203006Y-59567219D02*
X177298244Y-59519600D01*
X177298244Y-59519600D02*
X177345863Y-59471980D01*
X177345863Y-59471980D02*
X177393482Y-59376742D01*
X177393482Y-59376742D02*
X177393482Y-59281504D01*
X177393482Y-59281504D02*
X177345863Y-59186266D01*
X177345863Y-59186266D02*
X177298244Y-59138647D01*
X177298244Y-59138647D02*
X177203006Y-59091028D01*
X177203006Y-59091028D02*
X177012530Y-59043409D01*
X177012530Y-59043409D02*
X176917292Y-58995790D01*
X176917292Y-58995790D02*
X176869673Y-58948171D01*
X176869673Y-58948171D02*
X176822054Y-58852933D01*
X176822054Y-58852933D02*
X176822054Y-58757695D01*
X176822054Y-58757695D02*
X176869673Y-58662457D01*
X176869673Y-58662457D02*
X176917292Y-58614838D01*
X176917292Y-58614838D02*
X177012530Y-58567219D01*
X177012530Y-58567219D02*
X177250625Y-58567219D01*
X177250625Y-58567219D02*
X177393482Y-58614838D01*
X177726816Y-58567219D02*
X177964911Y-59567219D01*
X177964911Y-59567219D02*
X178155387Y-58852933D01*
X178155387Y-58852933D02*
X178345863Y-59567219D01*
X178345863Y-59567219D02*
X178583959Y-58567219D01*
X178964911Y-59567219D02*
X178964911Y-58567219D01*
X178964911Y-58567219D02*
X179203006Y-58567219D01*
X179203006Y-58567219D02*
X179345863Y-58614838D01*
X179345863Y-58614838D02*
X179441101Y-58710076D01*
X179441101Y-58710076D02*
X179488720Y-58805314D01*
X179488720Y-58805314D02*
X179536339Y-58995790D01*
X179536339Y-58995790D02*
X179536339Y-59138647D01*
X179536339Y-59138647D02*
X179488720Y-59329123D01*
X179488720Y-59329123D02*
X179441101Y-59424361D01*
X179441101Y-59424361D02*
X179345863Y-59519600D01*
X179345863Y-59519600D02*
X179203006Y-59567219D01*
X179203006Y-59567219D02*
X178964911Y-59567219D01*
D10*
X189203884Y-57472419D02*
X189203884Y-56472419D01*
X189203884Y-56472419D02*
X189441979Y-56472419D01*
X189441979Y-56472419D02*
X189584836Y-56520038D01*
X189584836Y-56520038D02*
X189680074Y-56615276D01*
X189680074Y-56615276D02*
X189727693Y-56710514D01*
X189727693Y-56710514D02*
X189775312Y-56900990D01*
X189775312Y-56900990D02*
X189775312Y-57043847D01*
X189775312Y-57043847D02*
X189727693Y-57234323D01*
X189727693Y-57234323D02*
X189680074Y-57329561D01*
X189680074Y-57329561D02*
X189584836Y-57424800D01*
X189584836Y-57424800D02*
X189441979Y-57472419D01*
X189441979Y-57472419D02*
X189203884Y-57472419D01*
X190203884Y-57472419D02*
X190203884Y-56472419D01*
X190870550Y-56472419D02*
X191061026Y-56472419D01*
X191061026Y-56472419D02*
X191156264Y-56520038D01*
X191156264Y-56520038D02*
X191251502Y-56615276D01*
X191251502Y-56615276D02*
X191299121Y-56805752D01*
X191299121Y-56805752D02*
X191299121Y-57139085D01*
X191299121Y-57139085D02*
X191251502Y-57329561D01*
X191251502Y-57329561D02*
X191156264Y-57424800D01*
X191156264Y-57424800D02*
X191061026Y-57472419D01*
X191061026Y-57472419D02*
X190870550Y-57472419D01*
X190870550Y-57472419D02*
X190775312Y-57424800D01*
X190775312Y-57424800D02*
X190680074Y-57329561D01*
X190680074Y-57329561D02*
X190632455Y-57139085D01*
X190632455Y-57139085D02*
X190632455Y-56805752D01*
X190632455Y-56805752D02*
X190680074Y-56615276D01*
X190680074Y-56615276D02*
X190775312Y-56520038D01*
X190775312Y-56520038D02*
X190870550Y-56472419D01*
D11*
X200469673Y-93986266D02*
X201231578Y-93986266D01*
X200850625Y-94367219D02*
X200850625Y-93605314D01*
X202183958Y-93367219D02*
X201707768Y-93367219D01*
X201707768Y-93367219D02*
X201660149Y-93843409D01*
X201660149Y-93843409D02*
X201707768Y-93795790D01*
X201707768Y-93795790D02*
X201803006Y-93748171D01*
X201803006Y-93748171D02*
X202041101Y-93748171D01*
X202041101Y-93748171D02*
X202136339Y-93795790D01*
X202136339Y-93795790D02*
X202183958Y-93843409D01*
X202183958Y-93843409D02*
X202231577Y-93938647D01*
X202231577Y-93938647D02*
X202231577Y-94176742D01*
X202231577Y-94176742D02*
X202183958Y-94271980D01*
X202183958Y-94271980D02*
X202136339Y-94319600D01*
X202136339Y-94319600D02*
X202041101Y-94367219D01*
X202041101Y-94367219D02*
X201803006Y-94367219D01*
X201803006Y-94367219D02*
X201707768Y-94319600D01*
X201707768Y-94319600D02*
X201660149Y-94271980D01*
X202517292Y-93367219D02*
X202850625Y-94367219D01*
X202850625Y-94367219D02*
X203183958Y-93367219D01*
X160222054Y-54181504D02*
X160698244Y-54181504D01*
X160126816Y-54467219D02*
X160460149Y-53467219D01*
X160460149Y-53467219D02*
X160793482Y-54467219D01*
X161079197Y-54419600D02*
X161222054Y-54467219D01*
X161222054Y-54467219D02*
X161460149Y-54467219D01*
X161460149Y-54467219D02*
X161555387Y-54419600D01*
X161555387Y-54419600D02*
X161603006Y-54371980D01*
X161603006Y-54371980D02*
X161650625Y-54276742D01*
X161650625Y-54276742D02*
X161650625Y-54181504D01*
X161650625Y-54181504D02*
X161603006Y-54086266D01*
X161603006Y-54086266D02*
X161555387Y-54038647D01*
X161555387Y-54038647D02*
X161460149Y-53991028D01*
X161460149Y-53991028D02*
X161269673Y-53943409D01*
X161269673Y-53943409D02*
X161174435Y-53895790D01*
X161174435Y-53895790D02*
X161126816Y-53848171D01*
X161126816Y-53848171D02*
X161079197Y-53752933D01*
X161079197Y-53752933D02*
X161079197Y-53657695D01*
X161079197Y-53657695D02*
X161126816Y-53562457D01*
X161126816Y-53562457D02*
X161174435Y-53514838D01*
X161174435Y-53514838D02*
X161269673Y-53467219D01*
X161269673Y-53467219D02*
X161507768Y-53467219D01*
X161507768Y-53467219D02*
X161650625Y-53514838D01*
X162031578Y-54181504D02*
X162507768Y-54181504D01*
X161936340Y-54467219D02*
X162269673Y-53467219D01*
X162269673Y-53467219D02*
X162603006Y-54467219D01*
X162793483Y-53467219D02*
X163364911Y-53467219D01*
X163079197Y-54467219D02*
X163079197Y-53467219D01*
X163650626Y-54419600D02*
X163793483Y-54467219D01*
X163793483Y-54467219D02*
X164031578Y-54467219D01*
X164031578Y-54467219D02*
X164126816Y-54419600D01*
X164126816Y-54419600D02*
X164174435Y-54371980D01*
X164174435Y-54371980D02*
X164222054Y-54276742D01*
X164222054Y-54276742D02*
X164222054Y-54181504D01*
X164222054Y-54181504D02*
X164174435Y-54086266D01*
X164174435Y-54086266D02*
X164126816Y-54038647D01*
X164126816Y-54038647D02*
X164031578Y-53991028D01*
X164031578Y-53991028D02*
X163841102Y-53943409D01*
X163841102Y-53943409D02*
X163745864Y-53895790D01*
X163745864Y-53895790D02*
X163698245Y-53848171D01*
X163698245Y-53848171D02*
X163650626Y-53752933D01*
X163650626Y-53752933D02*
X163650626Y-53657695D01*
X163650626Y-53657695D02*
X163698245Y-53562457D01*
X163698245Y-53562457D02*
X163745864Y-53514838D01*
X163745864Y-53514838D02*
X163841102Y-53467219D01*
X163841102Y-53467219D02*
X164079197Y-53467219D01*
X164079197Y-53467219D02*
X164222054Y-53514838D01*
X165269674Y-53467219D02*
X165841102Y-53467219D01*
X165555388Y-54467219D02*
X165555388Y-53467219D01*
X166317293Y-54467219D02*
X166222055Y-54419600D01*
X166222055Y-54419600D02*
X166174436Y-54371980D01*
X166174436Y-54371980D02*
X166126817Y-54276742D01*
X166126817Y-54276742D02*
X166126817Y-53991028D01*
X166126817Y-53991028D02*
X166174436Y-53895790D01*
X166174436Y-53895790D02*
X166222055Y-53848171D01*
X166222055Y-53848171D02*
X166317293Y-53800552D01*
X166317293Y-53800552D02*
X166460150Y-53800552D01*
X166460150Y-53800552D02*
X166555388Y-53848171D01*
X166555388Y-53848171D02*
X166603007Y-53895790D01*
X166603007Y-53895790D02*
X166650626Y-53991028D01*
X166650626Y-53991028D02*
X166650626Y-54276742D01*
X166650626Y-54276742D02*
X166603007Y-54371980D01*
X166603007Y-54371980D02*
X166555388Y-54419600D01*
X166555388Y-54419600D02*
X166460150Y-54467219D01*
X166460150Y-54467219D02*
X166317293Y-54467219D01*
X167507769Y-53800552D02*
X167507769Y-54467219D01*
X167079198Y-53800552D02*
X167079198Y-54324361D01*
X167079198Y-54324361D02*
X167126817Y-54419600D01*
X167126817Y-54419600D02*
X167222055Y-54467219D01*
X167222055Y-54467219D02*
X167364912Y-54467219D01*
X167364912Y-54467219D02*
X167460150Y-54419600D01*
X167460150Y-54419600D02*
X167507769Y-54371980D01*
X168412531Y-54419600D02*
X168317293Y-54467219D01*
X168317293Y-54467219D02*
X168126817Y-54467219D01*
X168126817Y-54467219D02*
X168031579Y-54419600D01*
X168031579Y-54419600D02*
X167983960Y-54371980D01*
X167983960Y-54371980D02*
X167936341Y-54276742D01*
X167936341Y-54276742D02*
X167936341Y-53991028D01*
X167936341Y-53991028D02*
X167983960Y-53895790D01*
X167983960Y-53895790D02*
X168031579Y-53848171D01*
X168031579Y-53848171D02*
X168126817Y-53800552D01*
X168126817Y-53800552D02*
X168317293Y-53800552D01*
X168317293Y-53800552D02*
X168412531Y-53848171D01*
X168841103Y-54467219D02*
X168841103Y-53467219D01*
X169269674Y-54467219D02*
X169269674Y-53943409D01*
X169269674Y-53943409D02*
X169222055Y-53848171D01*
X169222055Y-53848171D02*
X169126817Y-53800552D01*
X169126817Y-53800552D02*
X168983960Y-53800552D01*
X168983960Y-53800552D02*
X168888722Y-53848171D01*
X168888722Y-53848171D02*
X168841103Y-53895790D01*
X169698246Y-54419600D02*
X169793484Y-54467219D01*
X169793484Y-54467219D02*
X169983960Y-54467219D01*
X169983960Y-54467219D02*
X170079198Y-54419600D01*
X170079198Y-54419600D02*
X170126817Y-54324361D01*
X170126817Y-54324361D02*
X170126817Y-54276742D01*
X170126817Y-54276742D02*
X170079198Y-54181504D01*
X170079198Y-54181504D02*
X169983960Y-54133885D01*
X169983960Y-54133885D02*
X169841103Y-54133885D01*
X169841103Y-54133885D02*
X169745865Y-54086266D01*
X169745865Y-54086266D02*
X169698246Y-53991028D01*
X169698246Y-53991028D02*
X169698246Y-53943409D01*
X169698246Y-53943409D02*
X169745865Y-53848171D01*
X169745865Y-53848171D02*
X169841103Y-53800552D01*
X169841103Y-53800552D02*
X169983960Y-53800552D01*
X169983960Y-53800552D02*
X170079198Y-53848171D01*
X170983960Y-54419600D02*
X170888722Y-54467219D01*
X170888722Y-54467219D02*
X170698246Y-54467219D01*
X170698246Y-54467219D02*
X170603008Y-54419600D01*
X170603008Y-54419600D02*
X170555389Y-54371980D01*
X170555389Y-54371980D02*
X170507770Y-54276742D01*
X170507770Y-54276742D02*
X170507770Y-53991028D01*
X170507770Y-53991028D02*
X170555389Y-53895790D01*
X170555389Y-53895790D02*
X170603008Y-53848171D01*
X170603008Y-53848171D02*
X170698246Y-53800552D01*
X170698246Y-53800552D02*
X170888722Y-53800552D01*
X170888722Y-53800552D02*
X170983960Y-53848171D01*
X171412532Y-54467219D02*
X171412532Y-53800552D01*
X171412532Y-53991028D02*
X171460151Y-53895790D01*
X171460151Y-53895790D02*
X171507770Y-53848171D01*
X171507770Y-53848171D02*
X171603008Y-53800552D01*
X171603008Y-53800552D02*
X171698246Y-53800552D01*
X172412532Y-54419600D02*
X172317294Y-54467219D01*
X172317294Y-54467219D02*
X172126818Y-54467219D01*
X172126818Y-54467219D02*
X172031580Y-54419600D01*
X172031580Y-54419600D02*
X171983961Y-54324361D01*
X171983961Y-54324361D02*
X171983961Y-53943409D01*
X171983961Y-53943409D02*
X172031580Y-53848171D01*
X172031580Y-53848171D02*
X172126818Y-53800552D01*
X172126818Y-53800552D02*
X172317294Y-53800552D01*
X172317294Y-53800552D02*
X172412532Y-53848171D01*
X172412532Y-53848171D02*
X172460151Y-53943409D01*
X172460151Y-53943409D02*
X172460151Y-54038647D01*
X172460151Y-54038647D02*
X171983961Y-54133885D01*
X173269675Y-54419600D02*
X173174437Y-54467219D01*
X173174437Y-54467219D02*
X172983961Y-54467219D01*
X172983961Y-54467219D02*
X172888723Y-54419600D01*
X172888723Y-54419600D02*
X172841104Y-54324361D01*
X172841104Y-54324361D02*
X172841104Y-53943409D01*
X172841104Y-53943409D02*
X172888723Y-53848171D01*
X172888723Y-53848171D02*
X172983961Y-53800552D01*
X172983961Y-53800552D02*
X173174437Y-53800552D01*
X173174437Y-53800552D02*
X173269675Y-53848171D01*
X173269675Y-53848171D02*
X173317294Y-53943409D01*
X173317294Y-53943409D02*
X173317294Y-54038647D01*
X173317294Y-54038647D02*
X172841104Y-54133885D01*
X173745866Y-53800552D02*
X173745866Y-54467219D01*
X173745866Y-53895790D02*
X173793485Y-53848171D01*
X173793485Y-53848171D02*
X173888723Y-53800552D01*
X173888723Y-53800552D02*
X174031580Y-53800552D01*
X174031580Y-53800552D02*
X174126818Y-53848171D01*
X174126818Y-53848171D02*
X174174437Y-53943409D01*
X174174437Y-53943409D02*
X174174437Y-54467219D01*
X175412533Y-54467219D02*
X175412533Y-53467219D01*
X175412533Y-53467219D02*
X175793485Y-53467219D01*
X175793485Y-53467219D02*
X175888723Y-53514838D01*
X175888723Y-53514838D02*
X175936342Y-53562457D01*
X175936342Y-53562457D02*
X175983961Y-53657695D01*
X175983961Y-53657695D02*
X175983961Y-53800552D01*
X175983961Y-53800552D02*
X175936342Y-53895790D01*
X175936342Y-53895790D02*
X175888723Y-53943409D01*
X175888723Y-53943409D02*
X175793485Y-53991028D01*
X175793485Y-53991028D02*
X175412533Y-53991028D01*
X176983961Y-54371980D02*
X176936342Y-54419600D01*
X176936342Y-54419600D02*
X176793485Y-54467219D01*
X176793485Y-54467219D02*
X176698247Y-54467219D01*
X176698247Y-54467219D02*
X176555390Y-54419600D01*
X176555390Y-54419600D02*
X176460152Y-54324361D01*
X176460152Y-54324361D02*
X176412533Y-54229123D01*
X176412533Y-54229123D02*
X176364914Y-54038647D01*
X176364914Y-54038647D02*
X176364914Y-53895790D01*
X176364914Y-53895790D02*
X176412533Y-53705314D01*
X176412533Y-53705314D02*
X176460152Y-53610076D01*
X176460152Y-53610076D02*
X176555390Y-53514838D01*
X176555390Y-53514838D02*
X176698247Y-53467219D01*
X176698247Y-53467219D02*
X176793485Y-53467219D01*
X176793485Y-53467219D02*
X176936342Y-53514838D01*
X176936342Y-53514838D02*
X176983961Y-53562457D01*
X177745866Y-53943409D02*
X177888723Y-53991028D01*
X177888723Y-53991028D02*
X177936342Y-54038647D01*
X177936342Y-54038647D02*
X177983961Y-54133885D01*
X177983961Y-54133885D02*
X177983961Y-54276742D01*
X177983961Y-54276742D02*
X177936342Y-54371980D01*
X177936342Y-54371980D02*
X177888723Y-54419600D01*
X177888723Y-54419600D02*
X177793485Y-54467219D01*
X177793485Y-54467219D02*
X177412533Y-54467219D01*
X177412533Y-54467219D02*
X177412533Y-53467219D01*
X177412533Y-53467219D02*
X177745866Y-53467219D01*
X177745866Y-53467219D02*
X177841104Y-53514838D01*
X177841104Y-53514838D02*
X177888723Y-53562457D01*
X177888723Y-53562457D02*
X177936342Y-53657695D01*
X177936342Y-53657695D02*
X177936342Y-53752933D01*
X177936342Y-53752933D02*
X177888723Y-53848171D01*
X177888723Y-53848171D02*
X177841104Y-53895790D01*
X177841104Y-53895790D02*
X177745866Y-53943409D01*
X177745866Y-53943409D02*
X177412533Y-53943409D01*
X179079200Y-53800552D02*
X179317295Y-54467219D01*
X179317295Y-54467219D02*
X179555390Y-53800552D01*
X180460152Y-54467219D02*
X179888724Y-54467219D01*
X180174438Y-54467219D02*
X180174438Y-53467219D01*
X180174438Y-53467219D02*
X180079200Y-53610076D01*
X180079200Y-53610076D02*
X179983962Y-53705314D01*
X179983962Y-53705314D02*
X179888724Y-53752933D01*
X201169673Y-59067219D02*
X201169673Y-59876742D01*
X201169673Y-59876742D02*
X201217292Y-59971980D01*
X201217292Y-59971980D02*
X201264911Y-60019600D01*
X201264911Y-60019600D02*
X201360149Y-60067219D01*
X201360149Y-60067219D02*
X201550625Y-60067219D01*
X201550625Y-60067219D02*
X201645863Y-60019600D01*
X201645863Y-60019600D02*
X201693482Y-59971980D01*
X201693482Y-59971980D02*
X201741101Y-59876742D01*
X201741101Y-59876742D02*
X201741101Y-59067219D01*
X202169673Y-59781504D02*
X202645863Y-59781504D01*
X202074435Y-60067219D02*
X202407768Y-59067219D01*
X202407768Y-59067219D02*
X202741101Y-60067219D01*
X203645863Y-60067219D02*
X203312530Y-59591028D01*
X203074435Y-60067219D02*
X203074435Y-59067219D01*
X203074435Y-59067219D02*
X203455387Y-59067219D01*
X203455387Y-59067219D02*
X203550625Y-59114838D01*
X203550625Y-59114838D02*
X203598244Y-59162457D01*
X203598244Y-59162457D02*
X203645863Y-59257695D01*
X203645863Y-59257695D02*
X203645863Y-59400552D01*
X203645863Y-59400552D02*
X203598244Y-59495790D01*
X203598244Y-59495790D02*
X203550625Y-59543409D01*
X203550625Y-59543409D02*
X203455387Y-59591028D01*
X203455387Y-59591028D02*
X203074435Y-59591028D01*
X203931578Y-59067219D02*
X204503006Y-59067219D01*
X204217292Y-60067219D02*
X204217292Y-59067219D01*
D10*
X198553884Y-85848609D02*
X198887217Y-85848609D01*
X199030074Y-86372419D02*
X198553884Y-86372419D01*
X198553884Y-86372419D02*
X198553884Y-85372419D01*
X198553884Y-85372419D02*
X199030074Y-85372419D01*
X199458646Y-86372419D02*
X199458646Y-85372419D01*
X199458646Y-85372419D02*
X200030074Y-86372419D01*
X200030074Y-86372419D02*
X200030074Y-85372419D01*
X155803884Y-87272419D02*
X155803884Y-86272419D01*
X155803884Y-86272419D02*
X156375312Y-87272419D01*
X156375312Y-87272419D02*
X156375312Y-86272419D01*
X156851503Y-86748609D02*
X157184836Y-86748609D01*
X157327693Y-87272419D02*
X156851503Y-87272419D01*
X156851503Y-87272419D02*
X156851503Y-86272419D01*
X156851503Y-86272419D02*
X157327693Y-86272419D01*
X158280074Y-87272419D02*
X157708646Y-87272419D01*
X157994360Y-87272419D02*
X157994360Y-86272419D01*
X157994360Y-86272419D02*
X157899122Y-86415276D01*
X157899122Y-86415276D02*
X157803884Y-86510514D01*
X157803884Y-86510514D02*
X157708646Y-86558133D01*
X192975312Y-57472419D02*
X192641979Y-56996228D01*
X192403884Y-57472419D02*
X192403884Y-56472419D01*
X192403884Y-56472419D02*
X192784836Y-56472419D01*
X192784836Y-56472419D02*
X192880074Y-56520038D01*
X192880074Y-56520038D02*
X192927693Y-56567657D01*
X192927693Y-56567657D02*
X192975312Y-56662895D01*
X192975312Y-56662895D02*
X192975312Y-56805752D01*
X192975312Y-56805752D02*
X192927693Y-56900990D01*
X192927693Y-56900990D02*
X192880074Y-56948609D01*
X192880074Y-56948609D02*
X192784836Y-56996228D01*
X192784836Y-56996228D02*
X192403884Y-56996228D01*
X193356265Y-57424800D02*
X193499122Y-57472419D01*
X193499122Y-57472419D02*
X193737217Y-57472419D01*
X193737217Y-57472419D02*
X193832455Y-57424800D01*
X193832455Y-57424800D02*
X193880074Y-57377180D01*
X193880074Y-57377180D02*
X193927693Y-57281942D01*
X193927693Y-57281942D02*
X193927693Y-57186704D01*
X193927693Y-57186704D02*
X193880074Y-57091466D01*
X193880074Y-57091466D02*
X193832455Y-57043847D01*
X193832455Y-57043847D02*
X193737217Y-56996228D01*
X193737217Y-56996228D02*
X193546741Y-56948609D01*
X193546741Y-56948609D02*
X193451503Y-56900990D01*
X193451503Y-56900990D02*
X193403884Y-56853371D01*
X193403884Y-56853371D02*
X193356265Y-56758133D01*
X193356265Y-56758133D02*
X193356265Y-56662895D01*
X193356265Y-56662895D02*
X193403884Y-56567657D01*
X193403884Y-56567657D02*
X193451503Y-56520038D01*
X193451503Y-56520038D02*
X193546741Y-56472419D01*
X193546741Y-56472419D02*
X193784836Y-56472419D01*
X193784836Y-56472419D02*
X193927693Y-56520038D01*
X194213408Y-56472419D02*
X194784836Y-56472419D01*
X194499122Y-57472419D02*
X194499122Y-56472419D01*
X202175312Y-65172419D02*
X201841979Y-64696228D01*
X201603884Y-65172419D02*
X201603884Y-64172419D01*
X201603884Y-64172419D02*
X201984836Y-64172419D01*
X201984836Y-64172419D02*
X202080074Y-64220038D01*
X202080074Y-64220038D02*
X202127693Y-64267657D01*
X202127693Y-64267657D02*
X202175312Y-64362895D01*
X202175312Y-64362895D02*
X202175312Y-64505752D01*
X202175312Y-64505752D02*
X202127693Y-64600990D01*
X202127693Y-64600990D02*
X202080074Y-64648609D01*
X202080074Y-64648609D02*
X201984836Y-64696228D01*
X201984836Y-64696228D02*
X201603884Y-64696228D01*
X202508646Y-64172419D02*
X203175312Y-65172419D01*
X203175312Y-64172419D02*
X202508646Y-65172419D01*
D11*
X161245863Y-61267219D02*
X160769673Y-61267219D01*
X160769673Y-61267219D02*
X160769673Y-60267219D01*
X162150625Y-61171980D02*
X162103006Y-61219600D01*
X162103006Y-61219600D02*
X161960149Y-61267219D01*
X161960149Y-61267219D02*
X161864911Y-61267219D01*
X161864911Y-61267219D02*
X161722054Y-61219600D01*
X161722054Y-61219600D02*
X161626816Y-61124361D01*
X161626816Y-61124361D02*
X161579197Y-61029123D01*
X161579197Y-61029123D02*
X161531578Y-60838647D01*
X161531578Y-60838647D02*
X161531578Y-60695790D01*
X161531578Y-60695790D02*
X161579197Y-60505314D01*
X161579197Y-60505314D02*
X161626816Y-60410076D01*
X161626816Y-60410076D02*
X161722054Y-60314838D01*
X161722054Y-60314838D02*
X161864911Y-60267219D01*
X161864911Y-60267219D02*
X161960149Y-60267219D01*
X161960149Y-60267219D02*
X162103006Y-60314838D01*
X162103006Y-60314838D02*
X162150625Y-60362457D01*
X162579197Y-61267219D02*
X162579197Y-60267219D01*
X162579197Y-60267219D02*
X162817292Y-60267219D01*
X162817292Y-60267219D02*
X162960149Y-60314838D01*
X162960149Y-60314838D02*
X163055387Y-60410076D01*
X163055387Y-60410076D02*
X163103006Y-60505314D01*
X163103006Y-60505314D02*
X163150625Y-60695790D01*
X163150625Y-60695790D02*
X163150625Y-60838647D01*
X163150625Y-60838647D02*
X163103006Y-61029123D01*
X163103006Y-61029123D02*
X163055387Y-61124361D01*
X163055387Y-61124361D02*
X162960149Y-61219600D01*
X162960149Y-61219600D02*
X162817292Y-61267219D01*
X162817292Y-61267219D02*
X162579197Y-61267219D01*
D10*
X156603884Y-67172419D02*
X156603884Y-66172419D01*
X156603884Y-66172419D02*
X156841979Y-66172419D01*
X156841979Y-66172419D02*
X156984836Y-66220038D01*
X156984836Y-66220038D02*
X157080074Y-66315276D01*
X157080074Y-66315276D02*
X157127693Y-66410514D01*
X157127693Y-66410514D02*
X157175312Y-66600990D01*
X157175312Y-66600990D02*
X157175312Y-66743847D01*
X157175312Y-66743847D02*
X157127693Y-66934323D01*
X157127693Y-66934323D02*
X157080074Y-67029561D01*
X157080074Y-67029561D02*
X156984836Y-67124800D01*
X156984836Y-67124800D02*
X156841979Y-67172419D01*
X156841979Y-67172419D02*
X156603884Y-67172419D01*
X157794360Y-66172419D02*
X157889598Y-66172419D01*
X157889598Y-66172419D02*
X157984836Y-66220038D01*
X157984836Y-66220038D02*
X158032455Y-66267657D01*
X158032455Y-66267657D02*
X158080074Y-66362895D01*
X158080074Y-66362895D02*
X158127693Y-66553371D01*
X158127693Y-66553371D02*
X158127693Y-66791466D01*
X158127693Y-66791466D02*
X158080074Y-66981942D01*
X158080074Y-66981942D02*
X158032455Y-67077180D01*
X158032455Y-67077180D02*
X157984836Y-67124800D01*
X157984836Y-67124800D02*
X157889598Y-67172419D01*
X157889598Y-67172419D02*
X157794360Y-67172419D01*
X157794360Y-67172419D02*
X157699122Y-67124800D01*
X157699122Y-67124800D02*
X157651503Y-67077180D01*
X157651503Y-67077180D02*
X157603884Y-66981942D01*
X157603884Y-66981942D02*
X157556265Y-66791466D01*
X157556265Y-66791466D02*
X157556265Y-66553371D01*
X157556265Y-66553371D02*
X157603884Y-66362895D01*
X157603884Y-66362895D02*
X157651503Y-66267657D01*
X157651503Y-66267657D02*
X157699122Y-66220038D01*
X157699122Y-66220038D02*
X157794360Y-66172419D01*
D11*
X176319673Y-105257219D02*
X176319673Y-106066742D01*
X176319673Y-106066742D02*
X176367292Y-106161980D01*
X176367292Y-106161980D02*
X176414911Y-106209600D01*
X176414911Y-106209600D02*
X176510149Y-106257219D01*
X176510149Y-106257219D02*
X176700625Y-106257219D01*
X176700625Y-106257219D02*
X176795863Y-106209600D01*
X176795863Y-106209600D02*
X176843482Y-106161980D01*
X176843482Y-106161980D02*
X176891101Y-106066742D01*
X176891101Y-106066742D02*
X176891101Y-105257219D01*
X177319673Y-106209600D02*
X177462530Y-106257219D01*
X177462530Y-106257219D02*
X177700625Y-106257219D01*
X177700625Y-106257219D02*
X177795863Y-106209600D01*
X177795863Y-106209600D02*
X177843482Y-106161980D01*
X177843482Y-106161980D02*
X177891101Y-106066742D01*
X177891101Y-106066742D02*
X177891101Y-105971504D01*
X177891101Y-105971504D02*
X177843482Y-105876266D01*
X177843482Y-105876266D02*
X177795863Y-105828647D01*
X177795863Y-105828647D02*
X177700625Y-105781028D01*
X177700625Y-105781028D02*
X177510149Y-105733409D01*
X177510149Y-105733409D02*
X177414911Y-105685790D01*
X177414911Y-105685790D02*
X177367292Y-105638171D01*
X177367292Y-105638171D02*
X177319673Y-105542933D01*
X177319673Y-105542933D02*
X177319673Y-105447695D01*
X177319673Y-105447695D02*
X177367292Y-105352457D01*
X177367292Y-105352457D02*
X177414911Y-105304838D01*
X177414911Y-105304838D02*
X177510149Y-105257219D01*
X177510149Y-105257219D02*
X177748244Y-105257219D01*
X177748244Y-105257219D02*
X177891101Y-105304838D01*
X178653006Y-105733409D02*
X178795863Y-105781028D01*
X178795863Y-105781028D02*
X178843482Y-105828647D01*
X178843482Y-105828647D02*
X178891101Y-105923885D01*
X178891101Y-105923885D02*
X178891101Y-106066742D01*
X178891101Y-106066742D02*
X178843482Y-106161980D01*
X178843482Y-106161980D02*
X178795863Y-106209600D01*
X178795863Y-106209600D02*
X178700625Y-106257219D01*
X178700625Y-106257219D02*
X178319673Y-106257219D01*
X178319673Y-106257219D02*
X178319673Y-105257219D01*
X178319673Y-105257219D02*
X178653006Y-105257219D01*
X178653006Y-105257219D02*
X178748244Y-105304838D01*
X178748244Y-105304838D02*
X178795863Y-105352457D01*
X178795863Y-105352457D02*
X178843482Y-105447695D01*
X178843482Y-105447695D02*
X178843482Y-105542933D01*
X178843482Y-105542933D02*
X178795863Y-105638171D01*
X178795863Y-105638171D02*
X178748244Y-105685790D01*
X178748244Y-105685790D02*
X178653006Y-105733409D01*
X178653006Y-105733409D02*
X178319673Y-105733409D01*
X180081578Y-105257219D02*
X180081578Y-106066742D01*
X180081578Y-106066742D02*
X180129197Y-106161980D01*
X180129197Y-106161980D02*
X180176816Y-106209600D01*
X180176816Y-106209600D02*
X180272054Y-106257219D01*
X180272054Y-106257219D02*
X180462530Y-106257219D01*
X180462530Y-106257219D02*
X180557768Y-106209600D01*
X180557768Y-106209600D02*
X180605387Y-106161980D01*
X180605387Y-106161980D02*
X180653006Y-106066742D01*
X180653006Y-106066742D02*
X180653006Y-105257219D01*
X181081578Y-106209600D02*
X181224435Y-106257219D01*
X181224435Y-106257219D02*
X181462530Y-106257219D01*
X181462530Y-106257219D02*
X181557768Y-106209600D01*
X181557768Y-106209600D02*
X181605387Y-106161980D01*
X181605387Y-106161980D02*
X181653006Y-106066742D01*
X181653006Y-106066742D02*
X181653006Y-105971504D01*
X181653006Y-105971504D02*
X181605387Y-105876266D01*
X181605387Y-105876266D02*
X181557768Y-105828647D01*
X181557768Y-105828647D02*
X181462530Y-105781028D01*
X181462530Y-105781028D02*
X181272054Y-105733409D01*
X181272054Y-105733409D02*
X181176816Y-105685790D01*
X181176816Y-105685790D02*
X181129197Y-105638171D01*
X181129197Y-105638171D02*
X181081578Y-105542933D01*
X181081578Y-105542933D02*
X181081578Y-105447695D01*
X181081578Y-105447695D02*
X181129197Y-105352457D01*
X181129197Y-105352457D02*
X181176816Y-105304838D01*
X181176816Y-105304838D02*
X181272054Y-105257219D01*
X181272054Y-105257219D02*
X181510149Y-105257219D01*
X181510149Y-105257219D02*
X181653006Y-105304838D01*
X182081578Y-105733409D02*
X182414911Y-105733409D01*
X182557768Y-106257219D02*
X182081578Y-106257219D01*
X182081578Y-106257219D02*
X182081578Y-105257219D01*
X182081578Y-105257219D02*
X182557768Y-105257219D01*
X183557768Y-106257219D02*
X183224435Y-105781028D01*
X182986340Y-106257219D02*
X182986340Y-105257219D01*
X182986340Y-105257219D02*
X183367292Y-105257219D01*
X183367292Y-105257219D02*
X183462530Y-105304838D01*
X183462530Y-105304838D02*
X183510149Y-105352457D01*
X183510149Y-105352457D02*
X183557768Y-105447695D01*
X183557768Y-105447695D02*
X183557768Y-105590552D01*
X183557768Y-105590552D02*
X183510149Y-105685790D01*
X183510149Y-105685790D02*
X183462530Y-105733409D01*
X183462530Y-105733409D02*
X183367292Y-105781028D01*
X183367292Y-105781028D02*
X182986340Y-105781028D01*
D10*
X186175312Y-57377180D02*
X186127693Y-57424800D01*
X186127693Y-57424800D02*
X185984836Y-57472419D01*
X185984836Y-57472419D02*
X185889598Y-57472419D01*
X185889598Y-57472419D02*
X185746741Y-57424800D01*
X185746741Y-57424800D02*
X185651503Y-57329561D01*
X185651503Y-57329561D02*
X185603884Y-57234323D01*
X185603884Y-57234323D02*
X185556265Y-57043847D01*
X185556265Y-57043847D02*
X185556265Y-56900990D01*
X185556265Y-56900990D02*
X185603884Y-56710514D01*
X185603884Y-56710514D02*
X185651503Y-56615276D01*
X185651503Y-56615276D02*
X185746741Y-56520038D01*
X185746741Y-56520038D02*
X185889598Y-56472419D01*
X185889598Y-56472419D02*
X185984836Y-56472419D01*
X185984836Y-56472419D02*
X186127693Y-56520038D01*
X186127693Y-56520038D02*
X186175312Y-56567657D01*
X187080074Y-57472419D02*
X186603884Y-57472419D01*
X186603884Y-57472419D02*
X186603884Y-56472419D01*
X187413408Y-57472419D02*
X187413408Y-56472419D01*
X187984836Y-57472419D02*
X187556265Y-56900990D01*
X187984836Y-56472419D02*
X187413408Y-57043847D01*
X154161027Y-98872419D02*
X154732455Y-98872419D01*
X154446741Y-99872419D02*
X154446741Y-98872419D01*
X155065789Y-99872419D02*
X155065789Y-98872419D01*
X155065789Y-98872419D02*
X155446741Y-98872419D01*
X155446741Y-98872419D02*
X155541979Y-98920038D01*
X155541979Y-98920038D02*
X155589598Y-98967657D01*
X155589598Y-98967657D02*
X155637217Y-99062895D01*
X155637217Y-99062895D02*
X155637217Y-99205752D01*
X155637217Y-99205752D02*
X155589598Y-99300990D01*
X155589598Y-99300990D02*
X155541979Y-99348609D01*
X155541979Y-99348609D02*
X155446741Y-99396228D01*
X155446741Y-99396228D02*
X155065789Y-99396228D01*
X155827694Y-99967657D02*
X156589598Y-99967657D01*
X157399122Y-99777180D02*
X157351503Y-99824800D01*
X157351503Y-99824800D02*
X157208646Y-99872419D01*
X157208646Y-99872419D02*
X157113408Y-99872419D01*
X157113408Y-99872419D02*
X156970551Y-99824800D01*
X156970551Y-99824800D02*
X156875313Y-99729561D01*
X156875313Y-99729561D02*
X156827694Y-99634323D01*
X156827694Y-99634323D02*
X156780075Y-99443847D01*
X156780075Y-99443847D02*
X156780075Y-99300990D01*
X156780075Y-99300990D02*
X156827694Y-99110514D01*
X156827694Y-99110514D02*
X156875313Y-99015276D01*
X156875313Y-99015276D02*
X156970551Y-98920038D01*
X156970551Y-98920038D02*
X157113408Y-98872419D01*
X157113408Y-98872419D02*
X157208646Y-98872419D01*
X157208646Y-98872419D02*
X157351503Y-98920038D01*
X157351503Y-98920038D02*
X157399122Y-98967657D01*
X157780075Y-99824800D02*
X157922932Y-99872419D01*
X157922932Y-99872419D02*
X158161027Y-99872419D01*
X158161027Y-99872419D02*
X158256265Y-99824800D01*
X158256265Y-99824800D02*
X158303884Y-99777180D01*
X158303884Y-99777180D02*
X158351503Y-99681942D01*
X158351503Y-99681942D02*
X158351503Y-99586704D01*
X158351503Y-99586704D02*
X158303884Y-99491466D01*
X158303884Y-99491466D02*
X158256265Y-99443847D01*
X158256265Y-99443847D02*
X158161027Y-99396228D01*
X158161027Y-99396228D02*
X157970551Y-99348609D01*
X157970551Y-99348609D02*
X157875313Y-99300990D01*
X157875313Y-99300990D02*
X157827694Y-99253371D01*
X157827694Y-99253371D02*
X157780075Y-99158133D01*
X157780075Y-99158133D02*
X157780075Y-99062895D01*
X157780075Y-99062895D02*
X157827694Y-98967657D01*
X157827694Y-98967657D02*
X157875313Y-98920038D01*
X157875313Y-98920038D02*
X157970551Y-98872419D01*
X157970551Y-98872419D02*
X158208646Y-98872419D01*
X158208646Y-98872419D02*
X158351503Y-98920038D01*
X201461027Y-61572419D02*
X202032455Y-61572419D01*
X201746741Y-62572419D02*
X201746741Y-61572419D01*
X202270551Y-61572419D02*
X202937217Y-62572419D01*
X202937217Y-61572419D02*
X202270551Y-62572419D01*
X178403884Y-92541466D02*
X179165789Y-92541466D01*
X178784836Y-92922419D02*
X178784836Y-92160514D01*
D12*
X172061905Y-90954819D02*
X172061905Y-89954819D01*
X172061905Y-89954819D02*
X172300000Y-89954819D01*
X172300000Y-89954819D02*
X172442857Y-90002438D01*
X172442857Y-90002438D02*
X172538095Y-90097676D01*
X172538095Y-90097676D02*
X172585714Y-90192914D01*
X172585714Y-90192914D02*
X172633333Y-90383390D01*
X172633333Y-90383390D02*
X172633333Y-90526247D01*
X172633333Y-90526247D02*
X172585714Y-90716723D01*
X172585714Y-90716723D02*
X172538095Y-90811961D01*
X172538095Y-90811961D02*
X172442857Y-90907200D01*
X172442857Y-90907200D02*
X172300000Y-90954819D01*
X172300000Y-90954819D02*
X172061905Y-90954819D01*
X173490476Y-90288152D02*
X173490476Y-90954819D01*
X173252381Y-89907200D02*
X173014286Y-90621485D01*
X173014286Y-90621485D02*
X173633333Y-90621485D01*
X166161905Y-97854819D02*
X166161905Y-96854819D01*
X166161905Y-96854819D02*
X166400000Y-96854819D01*
X166400000Y-96854819D02*
X166542857Y-96902438D01*
X166542857Y-96902438D02*
X166638095Y-96997676D01*
X166638095Y-96997676D02*
X166685714Y-97092914D01*
X166685714Y-97092914D02*
X166733333Y-97283390D01*
X166733333Y-97283390D02*
X166733333Y-97426247D01*
X166733333Y-97426247D02*
X166685714Y-97616723D01*
X166685714Y-97616723D02*
X166638095Y-97711961D01*
X166638095Y-97711961D02*
X166542857Y-97807200D01*
X166542857Y-97807200D02*
X166400000Y-97854819D01*
X166400000Y-97854819D02*
X166161905Y-97854819D01*
X167066667Y-96854819D02*
X167685714Y-96854819D01*
X167685714Y-96854819D02*
X167352381Y-97235771D01*
X167352381Y-97235771D02*
X167495238Y-97235771D01*
X167495238Y-97235771D02*
X167590476Y-97283390D01*
X167590476Y-97283390D02*
X167638095Y-97331009D01*
X167638095Y-97331009D02*
X167685714Y-97426247D01*
X167685714Y-97426247D02*
X167685714Y-97664342D01*
X167685714Y-97664342D02*
X167638095Y-97759580D01*
X167638095Y-97759580D02*
X167590476Y-97807200D01*
X167590476Y-97807200D02*
X167495238Y-97854819D01*
X167495238Y-97854819D02*
X167209524Y-97854819D01*
X167209524Y-97854819D02*
X167114286Y-97807200D01*
X167114286Y-97807200D02*
X167066667Y-97759580D01*
X166061905Y-90454819D02*
X166061905Y-89454819D01*
X166061905Y-89454819D02*
X166300000Y-89454819D01*
X166300000Y-89454819D02*
X166442857Y-89502438D01*
X166442857Y-89502438D02*
X166538095Y-89597676D01*
X166538095Y-89597676D02*
X166585714Y-89692914D01*
X166585714Y-89692914D02*
X166633333Y-89883390D01*
X166633333Y-89883390D02*
X166633333Y-90026247D01*
X166633333Y-90026247D02*
X166585714Y-90216723D01*
X166585714Y-90216723D02*
X166538095Y-90311961D01*
X166538095Y-90311961D02*
X166442857Y-90407200D01*
X166442857Y-90407200D02*
X166300000Y-90454819D01*
X166300000Y-90454819D02*
X166061905Y-90454819D01*
X167014286Y-89550057D02*
X167061905Y-89502438D01*
X167061905Y-89502438D02*
X167157143Y-89454819D01*
X167157143Y-89454819D02*
X167395238Y-89454819D01*
X167395238Y-89454819D02*
X167490476Y-89502438D01*
X167490476Y-89502438D02*
X167538095Y-89550057D01*
X167538095Y-89550057D02*
X167585714Y-89645295D01*
X167585714Y-89645295D02*
X167585714Y-89740533D01*
X167585714Y-89740533D02*
X167538095Y-89883390D01*
X167538095Y-89883390D02*
X166966667Y-90454819D01*
X166966667Y-90454819D02*
X167585714Y-90454819D01*
X169961905Y-87354819D02*
X169961905Y-86354819D01*
X169961905Y-86354819D02*
X170200000Y-86354819D01*
X170200000Y-86354819D02*
X170342857Y-86402438D01*
X170342857Y-86402438D02*
X170438095Y-86497676D01*
X170438095Y-86497676D02*
X170485714Y-86592914D01*
X170485714Y-86592914D02*
X170533333Y-86783390D01*
X170533333Y-86783390D02*
X170533333Y-86926247D01*
X170533333Y-86926247D02*
X170485714Y-87116723D01*
X170485714Y-87116723D02*
X170438095Y-87211961D01*
X170438095Y-87211961D02*
X170342857Y-87307200D01*
X170342857Y-87307200D02*
X170200000Y-87354819D01*
X170200000Y-87354819D02*
X169961905Y-87354819D01*
X171438095Y-86354819D02*
X170961905Y-86354819D01*
X170961905Y-86354819D02*
X170914286Y-86831009D01*
X170914286Y-86831009D02*
X170961905Y-86783390D01*
X170961905Y-86783390D02*
X171057143Y-86735771D01*
X171057143Y-86735771D02*
X171295238Y-86735771D01*
X171295238Y-86735771D02*
X171390476Y-86783390D01*
X171390476Y-86783390D02*
X171438095Y-86831009D01*
X171438095Y-86831009D02*
X171485714Y-86926247D01*
X171485714Y-86926247D02*
X171485714Y-87164342D01*
X171485714Y-87164342D02*
X171438095Y-87259580D01*
X171438095Y-87259580D02*
X171390476Y-87307200D01*
X171390476Y-87307200D02*
X171295238Y-87354819D01*
X171295238Y-87354819D02*
X171057143Y-87354819D01*
X171057143Y-87354819D02*
X170961905Y-87307200D01*
X170961905Y-87307200D02*
X170914286Y-87259580D01*
X178657142Y-99959580D02*
X178609523Y-100007200D01*
X178609523Y-100007200D02*
X178466666Y-100054819D01*
X178466666Y-100054819D02*
X178371428Y-100054819D01*
X178371428Y-100054819D02*
X178228571Y-100007200D01*
X178228571Y-100007200D02*
X178133333Y-99911961D01*
X178133333Y-99911961D02*
X178085714Y-99816723D01*
X178085714Y-99816723D02*
X178038095Y-99626247D01*
X178038095Y-99626247D02*
X178038095Y-99483390D01*
X178038095Y-99483390D02*
X178085714Y-99292914D01*
X178085714Y-99292914D02*
X178133333Y-99197676D01*
X178133333Y-99197676D02*
X178228571Y-99102438D01*
X178228571Y-99102438D02*
X178371428Y-99054819D01*
X178371428Y-99054819D02*
X178466666Y-99054819D01*
X178466666Y-99054819D02*
X178609523Y-99102438D01*
X178609523Y-99102438D02*
X178657142Y-99150057D01*
X179609523Y-100054819D02*
X179038095Y-100054819D01*
X179323809Y-100054819D02*
X179323809Y-99054819D01*
X179323809Y-99054819D02*
X179228571Y-99197676D01*
X179228571Y-99197676D02*
X179133333Y-99292914D01*
X179133333Y-99292914D02*
X179038095Y-99340533D01*
X179942857Y-99054819D02*
X180561904Y-99054819D01*
X180561904Y-99054819D02*
X180228571Y-99435771D01*
X180228571Y-99435771D02*
X180371428Y-99435771D01*
X180371428Y-99435771D02*
X180466666Y-99483390D01*
X180466666Y-99483390D02*
X180514285Y-99531009D01*
X180514285Y-99531009D02*
X180561904Y-99626247D01*
X180561904Y-99626247D02*
X180561904Y-99864342D01*
X180561904Y-99864342D02*
X180514285Y-99959580D01*
X180514285Y-99959580D02*
X180466666Y-100007200D01*
X180466666Y-100007200D02*
X180371428Y-100054819D01*
X180371428Y-100054819D02*
X180085714Y-100054819D01*
X180085714Y-100054819D02*
X179990476Y-100007200D01*
X179990476Y-100007200D02*
X179942857Y-99959580D01*
X194933333Y-64954819D02*
X194600000Y-64478628D01*
X194361905Y-64954819D02*
X194361905Y-63954819D01*
X194361905Y-63954819D02*
X194742857Y-63954819D01*
X194742857Y-63954819D02*
X194838095Y-64002438D01*
X194838095Y-64002438D02*
X194885714Y-64050057D01*
X194885714Y-64050057D02*
X194933333Y-64145295D01*
X194933333Y-64145295D02*
X194933333Y-64288152D01*
X194933333Y-64288152D02*
X194885714Y-64383390D01*
X194885714Y-64383390D02*
X194838095Y-64431009D01*
X194838095Y-64431009D02*
X194742857Y-64478628D01*
X194742857Y-64478628D02*
X194361905Y-64478628D01*
X195266667Y-63954819D02*
X195885714Y-63954819D01*
X195885714Y-63954819D02*
X195552381Y-64335771D01*
X195552381Y-64335771D02*
X195695238Y-64335771D01*
X195695238Y-64335771D02*
X195790476Y-64383390D01*
X195790476Y-64383390D02*
X195838095Y-64431009D01*
X195838095Y-64431009D02*
X195885714Y-64526247D01*
X195885714Y-64526247D02*
X195885714Y-64764342D01*
X195885714Y-64764342D02*
X195838095Y-64859580D01*
X195838095Y-64859580D02*
X195790476Y-64907200D01*
X195790476Y-64907200D02*
X195695238Y-64954819D01*
X195695238Y-64954819D02*
X195409524Y-64954819D01*
X195409524Y-64954819D02*
X195314286Y-64907200D01*
X195314286Y-64907200D02*
X195266667Y-64859580D01*
X198057142Y-80259580D02*
X198009523Y-80307200D01*
X198009523Y-80307200D02*
X197866666Y-80354819D01*
X197866666Y-80354819D02*
X197771428Y-80354819D01*
X197771428Y-80354819D02*
X197628571Y-80307200D01*
X197628571Y-80307200D02*
X197533333Y-80211961D01*
X197533333Y-80211961D02*
X197485714Y-80116723D01*
X197485714Y-80116723D02*
X197438095Y-79926247D01*
X197438095Y-79926247D02*
X197438095Y-79783390D01*
X197438095Y-79783390D02*
X197485714Y-79592914D01*
X197485714Y-79592914D02*
X197533333Y-79497676D01*
X197533333Y-79497676D02*
X197628571Y-79402438D01*
X197628571Y-79402438D02*
X197771428Y-79354819D01*
X197771428Y-79354819D02*
X197866666Y-79354819D01*
X197866666Y-79354819D02*
X198009523Y-79402438D01*
X198009523Y-79402438D02*
X198057142Y-79450057D01*
X199009523Y-80354819D02*
X198438095Y-80354819D01*
X198723809Y-80354819D02*
X198723809Y-79354819D01*
X198723809Y-79354819D02*
X198628571Y-79497676D01*
X198628571Y-79497676D02*
X198533333Y-79592914D01*
X198533333Y-79592914D02*
X198438095Y-79640533D01*
X199914285Y-79354819D02*
X199438095Y-79354819D01*
X199438095Y-79354819D02*
X199390476Y-79831009D01*
X199390476Y-79831009D02*
X199438095Y-79783390D01*
X199438095Y-79783390D02*
X199533333Y-79735771D01*
X199533333Y-79735771D02*
X199771428Y-79735771D01*
X199771428Y-79735771D02*
X199866666Y-79783390D01*
X199866666Y-79783390D02*
X199914285Y-79831009D01*
X199914285Y-79831009D02*
X199961904Y-79926247D01*
X199961904Y-79926247D02*
X199961904Y-80164342D01*
X199961904Y-80164342D02*
X199914285Y-80259580D01*
X199914285Y-80259580D02*
X199866666Y-80307200D01*
X199866666Y-80307200D02*
X199771428Y-80354819D01*
X199771428Y-80354819D02*
X199533333Y-80354819D01*
X199533333Y-80354819D02*
X199438095Y-80307200D01*
X199438095Y-80307200D02*
X199390476Y-80259580D01*
X183733333Y-87354819D02*
X183400000Y-86878628D01*
X183161905Y-87354819D02*
X183161905Y-86354819D01*
X183161905Y-86354819D02*
X183542857Y-86354819D01*
X183542857Y-86354819D02*
X183638095Y-86402438D01*
X183638095Y-86402438D02*
X183685714Y-86450057D01*
X183685714Y-86450057D02*
X183733333Y-86545295D01*
X183733333Y-86545295D02*
X183733333Y-86688152D01*
X183733333Y-86688152D02*
X183685714Y-86783390D01*
X183685714Y-86783390D02*
X183638095Y-86831009D01*
X183638095Y-86831009D02*
X183542857Y-86878628D01*
X183542857Y-86878628D02*
X183161905Y-86878628D01*
X184114286Y-86450057D02*
X184161905Y-86402438D01*
X184161905Y-86402438D02*
X184257143Y-86354819D01*
X184257143Y-86354819D02*
X184495238Y-86354819D01*
X184495238Y-86354819D02*
X184590476Y-86402438D01*
X184590476Y-86402438D02*
X184638095Y-86450057D01*
X184638095Y-86450057D02*
X184685714Y-86545295D01*
X184685714Y-86545295D02*
X184685714Y-86640533D01*
X184685714Y-86640533D02*
X184638095Y-86783390D01*
X184638095Y-86783390D02*
X184066667Y-87354819D01*
X184066667Y-87354819D02*
X184685714Y-87354819D01*
X179133333Y-87154819D02*
X178800000Y-86678628D01*
X178561905Y-87154819D02*
X178561905Y-86154819D01*
X178561905Y-86154819D02*
X178942857Y-86154819D01*
X178942857Y-86154819D02*
X179038095Y-86202438D01*
X179038095Y-86202438D02*
X179085714Y-86250057D01*
X179085714Y-86250057D02*
X179133333Y-86345295D01*
X179133333Y-86345295D02*
X179133333Y-86488152D01*
X179133333Y-86488152D02*
X179085714Y-86583390D01*
X179085714Y-86583390D02*
X179038095Y-86631009D01*
X179038095Y-86631009D02*
X178942857Y-86678628D01*
X178942857Y-86678628D02*
X178561905Y-86678628D01*
X180038095Y-86154819D02*
X179561905Y-86154819D01*
X179561905Y-86154819D02*
X179514286Y-86631009D01*
X179514286Y-86631009D02*
X179561905Y-86583390D01*
X179561905Y-86583390D02*
X179657143Y-86535771D01*
X179657143Y-86535771D02*
X179895238Y-86535771D01*
X179895238Y-86535771D02*
X179990476Y-86583390D01*
X179990476Y-86583390D02*
X180038095Y-86631009D01*
X180038095Y-86631009D02*
X180085714Y-86726247D01*
X180085714Y-86726247D02*
X180085714Y-86964342D01*
X180085714Y-86964342D02*
X180038095Y-87059580D01*
X180038095Y-87059580D02*
X179990476Y-87107200D01*
X179990476Y-87107200D02*
X179895238Y-87154819D01*
X179895238Y-87154819D02*
X179657143Y-87154819D01*
X179657143Y-87154819D02*
X179561905Y-87107200D01*
X179561905Y-87107200D02*
X179514286Y-87059580D01*
X198523809Y-77928628D02*
X198523809Y-78404819D01*
X198190476Y-77404819D02*
X198523809Y-77928628D01*
X198523809Y-77928628D02*
X198857142Y-77404819D01*
X199714285Y-78404819D02*
X199142857Y-78404819D01*
X199428571Y-78404819D02*
X199428571Y-77404819D01*
X199428571Y-77404819D02*
X199333333Y-77547676D01*
X199333333Y-77547676D02*
X199238095Y-77642914D01*
X199238095Y-77642914D02*
X199142857Y-77690533D01*
X184557142Y-103839580D02*
X184509523Y-103887200D01*
X184509523Y-103887200D02*
X184366666Y-103934819D01*
X184366666Y-103934819D02*
X184271428Y-103934819D01*
X184271428Y-103934819D02*
X184128571Y-103887200D01*
X184128571Y-103887200D02*
X184033333Y-103791961D01*
X184033333Y-103791961D02*
X183985714Y-103696723D01*
X183985714Y-103696723D02*
X183938095Y-103506247D01*
X183938095Y-103506247D02*
X183938095Y-103363390D01*
X183938095Y-103363390D02*
X183985714Y-103172914D01*
X183985714Y-103172914D02*
X184033333Y-103077676D01*
X184033333Y-103077676D02*
X184128571Y-102982438D01*
X184128571Y-102982438D02*
X184271428Y-102934819D01*
X184271428Y-102934819D02*
X184366666Y-102934819D01*
X184366666Y-102934819D02*
X184509523Y-102982438D01*
X184509523Y-102982438D02*
X184557142Y-103030057D01*
X185509523Y-103934819D02*
X184938095Y-103934819D01*
X185223809Y-103934819D02*
X185223809Y-102934819D01*
X185223809Y-102934819D02*
X185128571Y-103077676D01*
X185128571Y-103077676D02*
X185033333Y-103172914D01*
X185033333Y-103172914D02*
X184938095Y-103220533D01*
X185890476Y-103030057D02*
X185938095Y-102982438D01*
X185938095Y-102982438D02*
X186033333Y-102934819D01*
X186033333Y-102934819D02*
X186271428Y-102934819D01*
X186271428Y-102934819D02*
X186366666Y-102982438D01*
X186366666Y-102982438D02*
X186414285Y-103030057D01*
X186414285Y-103030057D02*
X186461904Y-103125295D01*
X186461904Y-103125295D02*
X186461904Y-103220533D01*
X186461904Y-103220533D02*
X186414285Y-103363390D01*
X186414285Y-103363390D02*
X185842857Y-103934819D01*
X185842857Y-103934819D02*
X186461904Y-103934819D01*
X179261905Y-91654819D02*
X179261905Y-90654819D01*
X179261905Y-90654819D02*
X179500000Y-90654819D01*
X179500000Y-90654819D02*
X179642857Y-90702438D01*
X179642857Y-90702438D02*
X179738095Y-90797676D01*
X179738095Y-90797676D02*
X179785714Y-90892914D01*
X179785714Y-90892914D02*
X179833333Y-91083390D01*
X179833333Y-91083390D02*
X179833333Y-91226247D01*
X179833333Y-91226247D02*
X179785714Y-91416723D01*
X179785714Y-91416723D02*
X179738095Y-91511961D01*
X179738095Y-91511961D02*
X179642857Y-91607200D01*
X179642857Y-91607200D02*
X179500000Y-91654819D01*
X179500000Y-91654819D02*
X179261905Y-91654819D01*
X180785714Y-91654819D02*
X180214286Y-91654819D01*
X180500000Y-91654819D02*
X180500000Y-90654819D01*
X180500000Y-90654819D02*
X180404762Y-90797676D01*
X180404762Y-90797676D02*
X180309524Y-90892914D01*
X180309524Y-90892914D02*
X180214286Y-90940533D01*
X198157142Y-72959580D02*
X198109523Y-73007200D01*
X198109523Y-73007200D02*
X197966666Y-73054819D01*
X197966666Y-73054819D02*
X197871428Y-73054819D01*
X197871428Y-73054819D02*
X197728571Y-73007200D01*
X197728571Y-73007200D02*
X197633333Y-72911961D01*
X197633333Y-72911961D02*
X197585714Y-72816723D01*
X197585714Y-72816723D02*
X197538095Y-72626247D01*
X197538095Y-72626247D02*
X197538095Y-72483390D01*
X197538095Y-72483390D02*
X197585714Y-72292914D01*
X197585714Y-72292914D02*
X197633333Y-72197676D01*
X197633333Y-72197676D02*
X197728571Y-72102438D01*
X197728571Y-72102438D02*
X197871428Y-72054819D01*
X197871428Y-72054819D02*
X197966666Y-72054819D01*
X197966666Y-72054819D02*
X198109523Y-72102438D01*
X198109523Y-72102438D02*
X198157142Y-72150057D01*
X199109523Y-73054819D02*
X198538095Y-73054819D01*
X198823809Y-73054819D02*
X198823809Y-72054819D01*
X198823809Y-72054819D02*
X198728571Y-72197676D01*
X198728571Y-72197676D02*
X198633333Y-72292914D01*
X198633333Y-72292914D02*
X198538095Y-72340533D01*
X199966666Y-72054819D02*
X199776190Y-72054819D01*
X199776190Y-72054819D02*
X199680952Y-72102438D01*
X199680952Y-72102438D02*
X199633333Y-72150057D01*
X199633333Y-72150057D02*
X199538095Y-72292914D01*
X199538095Y-72292914D02*
X199490476Y-72483390D01*
X199490476Y-72483390D02*
X199490476Y-72864342D01*
X199490476Y-72864342D02*
X199538095Y-72959580D01*
X199538095Y-72959580D02*
X199585714Y-73007200D01*
X199585714Y-73007200D02*
X199680952Y-73054819D01*
X199680952Y-73054819D02*
X199871428Y-73054819D01*
X199871428Y-73054819D02*
X199966666Y-73007200D01*
X199966666Y-73007200D02*
X200014285Y-72959580D01*
X200014285Y-72959580D02*
X200061904Y-72864342D01*
X200061904Y-72864342D02*
X200061904Y-72626247D01*
X200061904Y-72626247D02*
X200014285Y-72531009D01*
X200014285Y-72531009D02*
X199966666Y-72483390D01*
X199966666Y-72483390D02*
X199871428Y-72435771D01*
X199871428Y-72435771D02*
X199680952Y-72435771D01*
X199680952Y-72435771D02*
X199585714Y-72483390D01*
X199585714Y-72483390D02*
X199538095Y-72531009D01*
X199538095Y-72531009D02*
X199490476Y-72626247D01*
X170907142Y-84959580D02*
X170859523Y-85007200D01*
X170859523Y-85007200D02*
X170716666Y-85054819D01*
X170716666Y-85054819D02*
X170621428Y-85054819D01*
X170621428Y-85054819D02*
X170478571Y-85007200D01*
X170478571Y-85007200D02*
X170383333Y-84911961D01*
X170383333Y-84911961D02*
X170335714Y-84816723D01*
X170335714Y-84816723D02*
X170288095Y-84626247D01*
X170288095Y-84626247D02*
X170288095Y-84483390D01*
X170288095Y-84483390D02*
X170335714Y-84292914D01*
X170335714Y-84292914D02*
X170383333Y-84197676D01*
X170383333Y-84197676D02*
X170478571Y-84102438D01*
X170478571Y-84102438D02*
X170621428Y-84054819D01*
X170621428Y-84054819D02*
X170716666Y-84054819D01*
X170716666Y-84054819D02*
X170859523Y-84102438D01*
X170859523Y-84102438D02*
X170907142Y-84150057D01*
X171859523Y-85054819D02*
X171288095Y-85054819D01*
X171573809Y-85054819D02*
X171573809Y-84054819D01*
X171573809Y-84054819D02*
X171478571Y-84197676D01*
X171478571Y-84197676D02*
X171383333Y-84292914D01*
X171383333Y-84292914D02*
X171288095Y-84340533D01*
X172430952Y-84483390D02*
X172335714Y-84435771D01*
X172335714Y-84435771D02*
X172288095Y-84388152D01*
X172288095Y-84388152D02*
X172240476Y-84292914D01*
X172240476Y-84292914D02*
X172240476Y-84245295D01*
X172240476Y-84245295D02*
X172288095Y-84150057D01*
X172288095Y-84150057D02*
X172335714Y-84102438D01*
X172335714Y-84102438D02*
X172430952Y-84054819D01*
X172430952Y-84054819D02*
X172621428Y-84054819D01*
X172621428Y-84054819D02*
X172716666Y-84102438D01*
X172716666Y-84102438D02*
X172764285Y-84150057D01*
X172764285Y-84150057D02*
X172811904Y-84245295D01*
X172811904Y-84245295D02*
X172811904Y-84292914D01*
X172811904Y-84292914D02*
X172764285Y-84388152D01*
X172764285Y-84388152D02*
X172716666Y-84435771D01*
X172716666Y-84435771D02*
X172621428Y-84483390D01*
X172621428Y-84483390D02*
X172430952Y-84483390D01*
X172430952Y-84483390D02*
X172335714Y-84531009D01*
X172335714Y-84531009D02*
X172288095Y-84578628D01*
X172288095Y-84578628D02*
X172240476Y-84673866D01*
X172240476Y-84673866D02*
X172240476Y-84864342D01*
X172240476Y-84864342D02*
X172288095Y-84959580D01*
X172288095Y-84959580D02*
X172335714Y-85007200D01*
X172335714Y-85007200D02*
X172430952Y-85054819D01*
X172430952Y-85054819D02*
X172621428Y-85054819D01*
X172621428Y-85054819D02*
X172716666Y-85007200D01*
X172716666Y-85007200D02*
X172764285Y-84959580D01*
X172764285Y-84959580D02*
X172811904Y-84864342D01*
X172811904Y-84864342D02*
X172811904Y-84673866D01*
X172811904Y-84673866D02*
X172764285Y-84578628D01*
X172764285Y-84578628D02*
X172716666Y-84531009D01*
X172716666Y-84531009D02*
X172621428Y-84483390D01*
X186938095Y-90454819D02*
X186938095Y-91264342D01*
X186938095Y-91264342D02*
X186985714Y-91359580D01*
X186985714Y-91359580D02*
X187033333Y-91407200D01*
X187033333Y-91407200D02*
X187128571Y-91454819D01*
X187128571Y-91454819D02*
X187319047Y-91454819D01*
X187319047Y-91454819D02*
X187414285Y-91407200D01*
X187414285Y-91407200D02*
X187461904Y-91359580D01*
X187461904Y-91359580D02*
X187509523Y-91264342D01*
X187509523Y-91264342D02*
X187509523Y-90454819D01*
X188509523Y-91454819D02*
X187938095Y-91454819D01*
X188223809Y-91454819D02*
X188223809Y-90454819D01*
X188223809Y-90454819D02*
X188128571Y-90597676D01*
X188128571Y-90597676D02*
X188033333Y-90692914D01*
X188033333Y-90692914D02*
X187938095Y-90740533D01*
X186433333Y-66659580D02*
X186385714Y-66707200D01*
X186385714Y-66707200D02*
X186242857Y-66754819D01*
X186242857Y-66754819D02*
X186147619Y-66754819D01*
X186147619Y-66754819D02*
X186004762Y-66707200D01*
X186004762Y-66707200D02*
X185909524Y-66611961D01*
X185909524Y-66611961D02*
X185861905Y-66516723D01*
X185861905Y-66516723D02*
X185814286Y-66326247D01*
X185814286Y-66326247D02*
X185814286Y-66183390D01*
X185814286Y-66183390D02*
X185861905Y-65992914D01*
X185861905Y-65992914D02*
X185909524Y-65897676D01*
X185909524Y-65897676D02*
X186004762Y-65802438D01*
X186004762Y-65802438D02*
X186147619Y-65754819D01*
X186147619Y-65754819D02*
X186242857Y-65754819D01*
X186242857Y-65754819D02*
X186385714Y-65802438D01*
X186385714Y-65802438D02*
X186433333Y-65850057D01*
X187290476Y-66088152D02*
X187290476Y-66754819D01*
X187052381Y-65707200D02*
X186814286Y-66421485D01*
X186814286Y-66421485D02*
X187433333Y-66421485D01*
X192383333Y-69959580D02*
X192335714Y-70007200D01*
X192335714Y-70007200D02*
X192192857Y-70054819D01*
X192192857Y-70054819D02*
X192097619Y-70054819D01*
X192097619Y-70054819D02*
X191954762Y-70007200D01*
X191954762Y-70007200D02*
X191859524Y-69911961D01*
X191859524Y-69911961D02*
X191811905Y-69816723D01*
X191811905Y-69816723D02*
X191764286Y-69626247D01*
X191764286Y-69626247D02*
X191764286Y-69483390D01*
X191764286Y-69483390D02*
X191811905Y-69292914D01*
X191811905Y-69292914D02*
X191859524Y-69197676D01*
X191859524Y-69197676D02*
X191954762Y-69102438D01*
X191954762Y-69102438D02*
X192097619Y-69054819D01*
X192097619Y-69054819D02*
X192192857Y-69054819D01*
X192192857Y-69054819D02*
X192335714Y-69102438D01*
X192335714Y-69102438D02*
X192383333Y-69150057D01*
X193335714Y-70054819D02*
X192764286Y-70054819D01*
X193050000Y-70054819D02*
X193050000Y-69054819D01*
X193050000Y-69054819D02*
X192954762Y-69197676D01*
X192954762Y-69197676D02*
X192859524Y-69292914D01*
X192859524Y-69292914D02*
X192764286Y-69340533D01*
X190633333Y-85609580D02*
X190585714Y-85657200D01*
X190585714Y-85657200D02*
X190442857Y-85704819D01*
X190442857Y-85704819D02*
X190347619Y-85704819D01*
X190347619Y-85704819D02*
X190204762Y-85657200D01*
X190204762Y-85657200D02*
X190109524Y-85561961D01*
X190109524Y-85561961D02*
X190061905Y-85466723D01*
X190061905Y-85466723D02*
X190014286Y-85276247D01*
X190014286Y-85276247D02*
X190014286Y-85133390D01*
X190014286Y-85133390D02*
X190061905Y-84942914D01*
X190061905Y-84942914D02*
X190109524Y-84847676D01*
X190109524Y-84847676D02*
X190204762Y-84752438D01*
X190204762Y-84752438D02*
X190347619Y-84704819D01*
X190347619Y-84704819D02*
X190442857Y-84704819D01*
X190442857Y-84704819D02*
X190585714Y-84752438D01*
X190585714Y-84752438D02*
X190633333Y-84800057D01*
X190966667Y-84704819D02*
X191633333Y-84704819D01*
X191633333Y-84704819D02*
X191204762Y-85704819D01*
X171633333Y-83459580D02*
X171585714Y-83507200D01*
X171585714Y-83507200D02*
X171442857Y-83554819D01*
X171442857Y-83554819D02*
X171347619Y-83554819D01*
X171347619Y-83554819D02*
X171204762Y-83507200D01*
X171204762Y-83507200D02*
X171109524Y-83411961D01*
X171109524Y-83411961D02*
X171061905Y-83316723D01*
X171061905Y-83316723D02*
X171014286Y-83126247D01*
X171014286Y-83126247D02*
X171014286Y-82983390D01*
X171014286Y-82983390D02*
X171061905Y-82792914D01*
X171061905Y-82792914D02*
X171109524Y-82697676D01*
X171109524Y-82697676D02*
X171204762Y-82602438D01*
X171204762Y-82602438D02*
X171347619Y-82554819D01*
X171347619Y-82554819D02*
X171442857Y-82554819D01*
X171442857Y-82554819D02*
X171585714Y-82602438D01*
X171585714Y-82602438D02*
X171633333Y-82650057D01*
X172490476Y-82554819D02*
X172300000Y-82554819D01*
X172300000Y-82554819D02*
X172204762Y-82602438D01*
X172204762Y-82602438D02*
X172157143Y-82650057D01*
X172157143Y-82650057D02*
X172061905Y-82792914D01*
X172061905Y-82792914D02*
X172014286Y-82983390D01*
X172014286Y-82983390D02*
X172014286Y-83364342D01*
X172014286Y-83364342D02*
X172061905Y-83459580D01*
X172061905Y-83459580D02*
X172109524Y-83507200D01*
X172109524Y-83507200D02*
X172204762Y-83554819D01*
X172204762Y-83554819D02*
X172395238Y-83554819D01*
X172395238Y-83554819D02*
X172490476Y-83507200D01*
X172490476Y-83507200D02*
X172538095Y-83459580D01*
X172538095Y-83459580D02*
X172585714Y-83364342D01*
X172585714Y-83364342D02*
X172585714Y-83126247D01*
X172585714Y-83126247D02*
X172538095Y-83031009D01*
X172538095Y-83031009D02*
X172490476Y-82983390D01*
X172490476Y-82983390D02*
X172395238Y-82935771D01*
X172395238Y-82935771D02*
X172204762Y-82935771D01*
X172204762Y-82935771D02*
X172109524Y-82983390D01*
X172109524Y-82983390D02*
X172061905Y-83031009D01*
X172061905Y-83031009D02*
X172014286Y-83126247D01*
X200233333Y-70759580D02*
X200185714Y-70807200D01*
X200185714Y-70807200D02*
X200042857Y-70854819D01*
X200042857Y-70854819D02*
X199947619Y-70854819D01*
X199947619Y-70854819D02*
X199804762Y-70807200D01*
X199804762Y-70807200D02*
X199709524Y-70711961D01*
X199709524Y-70711961D02*
X199661905Y-70616723D01*
X199661905Y-70616723D02*
X199614286Y-70426247D01*
X199614286Y-70426247D02*
X199614286Y-70283390D01*
X199614286Y-70283390D02*
X199661905Y-70092914D01*
X199661905Y-70092914D02*
X199709524Y-69997676D01*
X199709524Y-69997676D02*
X199804762Y-69902438D01*
X199804762Y-69902438D02*
X199947619Y-69854819D01*
X199947619Y-69854819D02*
X200042857Y-69854819D01*
X200042857Y-69854819D02*
X200185714Y-69902438D01*
X200185714Y-69902438D02*
X200233333Y-69950057D01*
X200566667Y-69854819D02*
X201185714Y-69854819D01*
X201185714Y-69854819D02*
X200852381Y-70235771D01*
X200852381Y-70235771D02*
X200995238Y-70235771D01*
X200995238Y-70235771D02*
X201090476Y-70283390D01*
X201090476Y-70283390D02*
X201138095Y-70331009D01*
X201138095Y-70331009D02*
X201185714Y-70426247D01*
X201185714Y-70426247D02*
X201185714Y-70664342D01*
X201185714Y-70664342D02*
X201138095Y-70759580D01*
X201138095Y-70759580D02*
X201090476Y-70807200D01*
X201090476Y-70807200D02*
X200995238Y-70854819D01*
X200995238Y-70854819D02*
X200709524Y-70854819D01*
X200709524Y-70854819D02*
X200614286Y-70807200D01*
X200614286Y-70807200D02*
X200566667Y-70759580D01*
X194666666Y-66431009D02*
X194333333Y-66431009D01*
X194333333Y-66954819D02*
X194333333Y-65954819D01*
X194333333Y-65954819D02*
X194809523Y-65954819D01*
X195523809Y-66431009D02*
X195666666Y-66478628D01*
X195666666Y-66478628D02*
X195714285Y-66526247D01*
X195714285Y-66526247D02*
X195761904Y-66621485D01*
X195761904Y-66621485D02*
X195761904Y-66764342D01*
X195761904Y-66764342D02*
X195714285Y-66859580D01*
X195714285Y-66859580D02*
X195666666Y-66907200D01*
X195666666Y-66907200D02*
X195571428Y-66954819D01*
X195571428Y-66954819D02*
X195190476Y-66954819D01*
X195190476Y-66954819D02*
X195190476Y-65954819D01*
X195190476Y-65954819D02*
X195523809Y-65954819D01*
X195523809Y-65954819D02*
X195619047Y-66002438D01*
X195619047Y-66002438D02*
X195666666Y-66050057D01*
X195666666Y-66050057D02*
X195714285Y-66145295D01*
X195714285Y-66145295D02*
X195714285Y-66240533D01*
X195714285Y-66240533D02*
X195666666Y-66335771D01*
X195666666Y-66335771D02*
X195619047Y-66383390D01*
X195619047Y-66383390D02*
X195523809Y-66431009D01*
X195523809Y-66431009D02*
X195190476Y-66431009D01*
X196714285Y-66954819D02*
X196142857Y-66954819D01*
X196428571Y-66954819D02*
X196428571Y-65954819D01*
X196428571Y-65954819D02*
X196333333Y-66097676D01*
X196333333Y-66097676D02*
X196238095Y-66192914D01*
X196238095Y-66192914D02*
X196142857Y-66240533D01*
X189157142Y-88959580D02*
X189109523Y-89007200D01*
X189109523Y-89007200D02*
X188966666Y-89054819D01*
X188966666Y-89054819D02*
X188871428Y-89054819D01*
X188871428Y-89054819D02*
X188728571Y-89007200D01*
X188728571Y-89007200D02*
X188633333Y-88911961D01*
X188633333Y-88911961D02*
X188585714Y-88816723D01*
X188585714Y-88816723D02*
X188538095Y-88626247D01*
X188538095Y-88626247D02*
X188538095Y-88483390D01*
X188538095Y-88483390D02*
X188585714Y-88292914D01*
X188585714Y-88292914D02*
X188633333Y-88197676D01*
X188633333Y-88197676D02*
X188728571Y-88102438D01*
X188728571Y-88102438D02*
X188871428Y-88054819D01*
X188871428Y-88054819D02*
X188966666Y-88054819D01*
X188966666Y-88054819D02*
X189109523Y-88102438D01*
X189109523Y-88102438D02*
X189157142Y-88150057D01*
X190109523Y-89054819D02*
X189538095Y-89054819D01*
X189823809Y-89054819D02*
X189823809Y-88054819D01*
X189823809Y-88054819D02*
X189728571Y-88197676D01*
X189728571Y-88197676D02*
X189633333Y-88292914D01*
X189633333Y-88292914D02*
X189538095Y-88340533D01*
X191061904Y-89054819D02*
X190490476Y-89054819D01*
X190776190Y-89054819D02*
X190776190Y-88054819D01*
X190776190Y-88054819D02*
X190680952Y-88197676D01*
X190680952Y-88197676D02*
X190585714Y-88292914D01*
X190585714Y-88292914D02*
X190490476Y-88340533D01*
X190433333Y-64354819D02*
X190100000Y-63878628D01*
X189861905Y-64354819D02*
X189861905Y-63354819D01*
X189861905Y-63354819D02*
X190242857Y-63354819D01*
X190242857Y-63354819D02*
X190338095Y-63402438D01*
X190338095Y-63402438D02*
X190385714Y-63450057D01*
X190385714Y-63450057D02*
X190433333Y-63545295D01*
X190433333Y-63545295D02*
X190433333Y-63688152D01*
X190433333Y-63688152D02*
X190385714Y-63783390D01*
X190385714Y-63783390D02*
X190338095Y-63831009D01*
X190338095Y-63831009D02*
X190242857Y-63878628D01*
X190242857Y-63878628D02*
X189861905Y-63878628D01*
X191290476Y-63688152D02*
X191290476Y-64354819D01*
X191052381Y-63307200D02*
X190814286Y-64021485D01*
X190814286Y-64021485D02*
X191433333Y-64021485D01*
X176445833Y-96404819D02*
X176112500Y-95928628D01*
X175874405Y-96404819D02*
X175874405Y-95404819D01*
X175874405Y-95404819D02*
X176255357Y-95404819D01*
X176255357Y-95404819D02*
X176350595Y-95452438D01*
X176350595Y-95452438D02*
X176398214Y-95500057D01*
X176398214Y-95500057D02*
X176445833Y-95595295D01*
X176445833Y-95595295D02*
X176445833Y-95738152D01*
X176445833Y-95738152D02*
X176398214Y-95833390D01*
X176398214Y-95833390D02*
X176350595Y-95881009D01*
X176350595Y-95881009D02*
X176255357Y-95928628D01*
X176255357Y-95928628D02*
X175874405Y-95928628D01*
X177398214Y-96404819D02*
X176826786Y-96404819D01*
X177112500Y-96404819D02*
X177112500Y-95404819D01*
X177112500Y-95404819D02*
X177017262Y-95547676D01*
X177017262Y-95547676D02*
X176922024Y-95642914D01*
X176922024Y-95642914D02*
X176826786Y-95690533D01*
X176838095Y-65854819D02*
X176838095Y-66664342D01*
X176838095Y-66664342D02*
X176885714Y-66759580D01*
X176885714Y-66759580D02*
X176933333Y-66807200D01*
X176933333Y-66807200D02*
X177028571Y-66854819D01*
X177028571Y-66854819D02*
X177219047Y-66854819D01*
X177219047Y-66854819D02*
X177314285Y-66807200D01*
X177314285Y-66807200D02*
X177361904Y-66759580D01*
X177361904Y-66759580D02*
X177409523Y-66664342D01*
X177409523Y-66664342D02*
X177409523Y-65854819D01*
X177838095Y-65950057D02*
X177885714Y-65902438D01*
X177885714Y-65902438D02*
X177980952Y-65854819D01*
X177980952Y-65854819D02*
X178219047Y-65854819D01*
X178219047Y-65854819D02*
X178314285Y-65902438D01*
X178314285Y-65902438D02*
X178361904Y-65950057D01*
X178361904Y-65950057D02*
X178409523Y-66045295D01*
X178409523Y-66045295D02*
X178409523Y-66140533D01*
X178409523Y-66140533D02*
X178361904Y-66283390D01*
X178361904Y-66283390D02*
X177790476Y-66854819D01*
X177790476Y-66854819D02*
X178409523Y-66854819D01*
D13*
%TO.C,D4*%
X174440000Y-92290000D02*
X174110000Y-92050000D01*
X174440000Y-91810000D01*
X174440000Y-92290000D01*
G36*
X174440000Y-92290000D02*
G01*
X174110000Y-92050000D01*
X174440000Y-91810000D01*
X174440000Y-92290000D01*
G37*
X174160000Y-93212500D02*
X174160000Y-93862500D01*
X174160000Y-93212500D02*
X174160000Y-92562500D01*
X171040000Y-93212500D02*
X171040000Y-93862500D01*
X171040000Y-93212500D02*
X171040000Y-92562500D01*
%TO.C,D3*%
X168290000Y-98625000D02*
X167960000Y-98865000D01*
X167960000Y-98385000D01*
X168290000Y-98625000D01*
G36*
X168290000Y-98625000D02*
G01*
X167960000Y-98865000D01*
X167960000Y-98385000D01*
X168290000Y-98625000D01*
G37*
X171360000Y-97462500D02*
X171360000Y-98112500D01*
X171360000Y-97462500D02*
X171360000Y-96812500D01*
X168240000Y-97462500D02*
X168240000Y-98112500D01*
X168240000Y-97462500D02*
X168240000Y-96812500D01*
%TO.C,D2*%
X168840000Y-91940000D02*
X168510000Y-91700000D01*
X168840000Y-91460000D01*
X168840000Y-91940000D01*
G36*
X168840000Y-91940000D02*
G01*
X168510000Y-91700000D01*
X168840000Y-91460000D01*
X168840000Y-91940000D01*
G37*
X168560000Y-92862500D02*
X168560000Y-93512500D01*
X168560000Y-92862500D02*
X168560000Y-92212500D01*
X165440000Y-92862500D02*
X165440000Y-93512500D01*
X165440000Y-92862500D02*
X165440000Y-92212500D01*
%TO.C,D5*%
X174012500Y-86015000D02*
X171727500Y-86015000D01*
X171727500Y-87485000D02*
X174012500Y-87485000D01*
X171727500Y-86015000D02*
X171727500Y-87485000D01*
%TO.C,C9*%
X192140000Y-77392164D02*
X192140000Y-77607836D01*
X192860000Y-77392164D02*
X192860000Y-77607836D01*
%TO.C,C13*%
X179740000Y-96834420D02*
X179740000Y-97115580D01*
X180760000Y-96834420D02*
X180760000Y-97115580D01*
%TO.C,SW1*%
X201600000Y-84350000D02*
X201600000Y-86950000D01*
X201150000Y-87400000D02*
X201600000Y-86950000D01*
X201150000Y-83900000D02*
X201600000Y-84350000D01*
X199850000Y-88400000D02*
X197850000Y-88400000D01*
X199850000Y-82900000D02*
X197850000Y-82900000D01*
X196550000Y-87400000D02*
X196100000Y-86950000D01*
X196550000Y-83900000D02*
X196100000Y-84350000D01*
X196100000Y-84350000D02*
X196100000Y-86950000D01*
%TO.C,R3*%
X192265000Y-65127064D02*
X192265000Y-64672936D01*
X193735000Y-65127064D02*
X193735000Y-64672936D01*
%TO.C,J2*%
X167650000Y-100987500D02*
X168100000Y-100987500D01*
X167650000Y-102837500D02*
X167650000Y-100987500D01*
X167650000Y-105387500D02*
X167650000Y-105137500D01*
X169850000Y-100437500D02*
X169850000Y-100887500D01*
X169850000Y-100437500D02*
X170300000Y-100437500D01*
X175450000Y-100987500D02*
X175000000Y-100987500D01*
X175450000Y-102837500D02*
X175450000Y-100987500D01*
X175450000Y-105387500D02*
X175450000Y-105137500D01*
%TO.C,C15*%
X196327836Y-79570000D02*
X196112164Y-79570000D01*
X196327836Y-80290000D02*
X196112164Y-80290000D01*
%TO.C,R2*%
X185115000Y-86777064D02*
X185115000Y-86322936D01*
X186585000Y-86777064D02*
X186585000Y-86322936D01*
%TO.C,R5*%
X176435436Y-86015000D02*
X176889564Y-86015000D01*
X176435436Y-87485000D02*
X176889564Y-87485000D01*
%TO.C,Y1*%
X193450000Y-79050000D02*
X197950000Y-79050000D01*
X197950000Y-79050000D02*
X197950000Y-73650000D01*
%TO.C,C2*%
X193690000Y-70484420D02*
X193690000Y-70765580D01*
X194710000Y-70484420D02*
X194710000Y-70765580D01*
%TO.C,C12*%
X185340580Y-101540000D02*
X185059420Y-101540000D01*
X185340580Y-102560000D02*
X185059420Y-102560000D01*
%TO.C,D1*%
X179315000Y-92600000D02*
X179315000Y-94885000D01*
X179315000Y-94885000D02*
X180785000Y-94885000D01*
X180785000Y-94885000D02*
X180785000Y-92600000D01*
%TO.C,C14*%
X192040000Y-74492164D02*
X192040000Y-74707836D01*
X192760000Y-74492164D02*
X192760000Y-74707836D01*
%TO.C,C16*%
X195612164Y-72440000D02*
X195827836Y-72440000D01*
X195612164Y-73160000D02*
X195827836Y-73160000D01*
%TO.C,C18*%
X174459420Y-84190000D02*
X174740580Y-84190000D01*
X174459420Y-85210000D02*
X174740580Y-85210000D01*
%TO.C,J4*%
X190270000Y-100740000D02*
X190720000Y-100740000D01*
X190270000Y-102590000D02*
X190270000Y-100740000D01*
X190270000Y-105140000D02*
X190270000Y-104890000D01*
X192470000Y-100190000D02*
X192470000Y-100640000D01*
X192470000Y-100190000D02*
X192920000Y-100190000D01*
X198070000Y-100740000D02*
X197620000Y-100740000D01*
X198070000Y-102590000D02*
X198070000Y-100740000D01*
X198070000Y-105140000D02*
X198070000Y-104890000D01*
%TO.C,U1*%
X181740000Y-94440000D02*
X183000000Y-94440000D01*
X181740000Y-98200000D02*
X181740000Y-94440000D01*
X188560000Y-94440000D02*
X187300000Y-94440000D01*
X188560000Y-98200000D02*
X188560000Y-94440000D01*
X181840000Y-99480000D02*
X181510000Y-99720000D01*
X181510000Y-99240000D01*
X181840000Y-99480000D01*
G36*
X181840000Y-99480000D02*
G01*
X181510000Y-99720000D01*
X181510000Y-99240000D01*
X181840000Y-99480000D01*
G37*
%TO.C,C4*%
X188492164Y-66040000D02*
X188707836Y-66040000D01*
X188492164Y-66760000D02*
X188707836Y-66760000D01*
%TO.C,C1*%
X192040000Y-71192164D02*
X192040000Y-71407836D01*
X192760000Y-71192164D02*
X192760000Y-71407836D01*
%TO.C,J5*%
X199630000Y-97105000D02*
X198300000Y-97105000D01*
X199630000Y-95775000D02*
X199630000Y-97105000D01*
X196970000Y-94505000D02*
X196970000Y-91905000D01*
X199630000Y-94505000D02*
X196970000Y-94505000D01*
X199630000Y-94505000D02*
X199630000Y-91905000D01*
X199630000Y-91905000D02*
X196970000Y-91905000D01*
%TO.C,C7*%
X188787836Y-85040000D02*
X188572164Y-85040000D01*
X188787836Y-85760000D02*
X188572164Y-85760000D01*
%TO.C,J3*%
X180770000Y-58420000D02*
X180770000Y-61080000D01*
X193530000Y-58420000D02*
X180770000Y-58420000D01*
X193530000Y-58420000D02*
X193530000Y-61080000D01*
X193530000Y-61080000D02*
X180770000Y-61080000D01*
X194800000Y-58420000D02*
X196130000Y-58420000D01*
X196130000Y-58420000D02*
X196130000Y-59750000D01*
%TO.C,J1*%
X197570000Y-66080000D02*
X197570000Y-58400000D01*
X200230000Y-58400000D02*
X197570000Y-58400000D01*
X200230000Y-66080000D02*
X197570000Y-66080000D01*
X200230000Y-66080000D02*
X200230000Y-58400000D01*
X200230000Y-67350000D02*
X200230000Y-68680000D01*
X200230000Y-68680000D02*
X198900000Y-68680000D01*
%TO.C,C6*%
X174527836Y-82740000D02*
X174312164Y-82740000D01*
X174527836Y-83460000D02*
X174312164Y-83460000D01*
%TO.C,C10*%
X192692164Y-72540000D02*
X192907836Y-72540000D01*
X192692164Y-73260000D02*
X192907836Y-73260000D01*
%TO.C,C3*%
X196859420Y-70710000D02*
X197140580Y-70710000D01*
X196859420Y-69690000D02*
X197140580Y-69690000D01*
%TO.C,FB1*%
X194639758Y-67490000D02*
X195460242Y-67490000D01*
X194639758Y-68610000D02*
X195460242Y-68610000D01*
%TO.C,C11*%
X188665580Y-86540000D02*
X188384420Y-86540000D01*
X188665580Y-87560000D02*
X188384420Y-87560000D01*
%TO.C,R4*%
X190065000Y-66614564D02*
X190065000Y-66160436D01*
X191535000Y-66614564D02*
X191535000Y-66160436D01*
%TO.C,R1*%
X176839564Y-93565000D02*
X176385436Y-93565000D01*
X176839564Y-95035000D02*
X176385436Y-95035000D01*
%TO.C,U2*%
X175790000Y-68780000D02*
X175790000Y-69480000D01*
X175790000Y-83000000D02*
X175790000Y-82300000D01*
X176490000Y-68780000D02*
X175790000Y-68780000D01*
X176490000Y-83000000D02*
X175790000Y-83000000D01*
X189310000Y-68780000D02*
X190010000Y-68780000D01*
X189310000Y-83000000D02*
X190010000Y-83000000D01*
X190010000Y-68780000D02*
X190010000Y-69480000D01*
X190010000Y-83000000D02*
X190010000Y-82300000D01*
X190977500Y-82770000D02*
X190297500Y-82770000D01*
X190637500Y-82300000D01*
X190977500Y-82770000D01*
G36*
X190977500Y-82770000D02*
G01*
X190297500Y-82770000D01*
X190637500Y-82300000D01*
X190977500Y-82770000D01*
G37*
%TD*%
M02*
