%TF.GenerationSoftware,KiCad,Pcbnew,9.0.0*%
%TF.CreationDate,2025-03-28T00:35:08-07:00*%
%TF.ProjectId,stm32f429vit6_v1,73746d33-3266-4343-9239-766974365f76,rev?*%
%TF.SameCoordinates,Original*%
%TF.FileFunction,Copper,L1,Top*%
%TF.FilePolarity,Positive*%
%FSLAX46Y46*%
G04 Gerber Fmt 4.6, Leading zero omitted, Abs format (unit mm)*
G04 Created by KiCad (PCBNEW 9.0.0) date 2025-03-28 00:35:08*
%MOMM*%
%LPD*%
G01*
G04 APERTURE LIST*
G04 Aperture macros list*
%AMRoundRect*
0 Rectangle with rounded corners*
0 $1 Rounding radius*
0 $2 $3 $4 $5 $6 $7 $8 $9 X,Y pos of 4 corners*
0 Add a 4 corners polygon primitive as box body*
4,1,4,$2,$3,$4,$5,$6,$7,$8,$9,$2,$3,0*
0 Add four circle primitives for the rounded corners*
1,1,$1+$1,$2,$3*
1,1,$1+$1,$4,$5*
1,1,$1+$1,$6,$7*
1,1,$1+$1,$8,$9*
0 Add four rect primitives between the rounded corners*
20,1,$1+$1,$2,$3,$4,$5,0*
20,1,$1+$1,$4,$5,$6,$7,0*
20,1,$1+$1,$6,$7,$8,$9,0*
20,1,$1+$1,$8,$9,$2,$3,0*%
G04 Aperture macros list end*
%TA.AperFunction,ComponentPad*%
%ADD10R,1.700000X1.700000*%
%TD*%
%TA.AperFunction,ComponentPad*%
%ADD11O,1.700000X1.700000*%
%TD*%
%TA.AperFunction,SMDPad,CuDef*%
%ADD12RoundRect,0.150000X-0.150000X0.587500X-0.150000X-0.587500X0.150000X-0.587500X0.150000X0.587500X0*%
%TD*%
%TA.AperFunction,SMDPad,CuDef*%
%ADD13RoundRect,0.150000X0.150000X-0.587500X0.150000X0.587500X-0.150000X0.587500X-0.150000X-0.587500X0*%
%TD*%
%TA.AperFunction,SMDPad,CuDef*%
%ADD14RoundRect,0.218750X-0.218750X-0.256250X0.218750X-0.256250X0.218750X0.256250X-0.218750X0.256250X0*%
%TD*%
%TA.AperFunction,SMDPad,CuDef*%
%ADD15RoundRect,0.140000X-0.170000X0.140000X-0.170000X-0.140000X0.170000X-0.140000X0.170000X0.140000X0*%
%TD*%
%TA.AperFunction,SMDPad,CuDef*%
%ADD16RoundRect,0.225000X-0.250000X0.225000X-0.250000X-0.225000X0.250000X-0.225000X0.250000X0.225000X0*%
%TD*%
%TA.AperFunction,SMDPad,CuDef*%
%ADD17R,0.750000X1.000000*%
%TD*%
%TA.AperFunction,SMDPad,CuDef*%
%ADD18RoundRect,0.250000X0.450000X-0.262500X0.450000X0.262500X-0.450000X0.262500X-0.450000X-0.262500X0*%
%TD*%
%TA.AperFunction,SMDPad,CuDef*%
%ADD19R,0.400000X1.350000*%
%TD*%
%TA.AperFunction,HeatsinkPad*%
%ADD20O,1.200000X1.900000*%
%TD*%
%TA.AperFunction,SMDPad,CuDef*%
%ADD21R,1.200000X1.900000*%
%TD*%
%TA.AperFunction,HeatsinkPad*%
%ADD22C,1.450000*%
%TD*%
%TA.AperFunction,SMDPad,CuDef*%
%ADD23R,1.500000X1.900000*%
%TD*%
%TA.AperFunction,SMDPad,CuDef*%
%ADD24RoundRect,0.140000X0.140000X0.170000X-0.140000X0.170000X-0.140000X-0.170000X0.140000X-0.170000X0*%
%TD*%
%TA.AperFunction,SMDPad,CuDef*%
%ADD25RoundRect,0.250000X-0.262500X-0.450000X0.262500X-0.450000X0.262500X0.450000X-0.262500X0.450000X0*%
%TD*%
%TA.AperFunction,SMDPad,CuDef*%
%ADD26R,1.800000X2.100000*%
%TD*%
%TA.AperFunction,SMDPad,CuDef*%
%ADD27RoundRect,0.225000X0.225000X0.250000X-0.225000X0.250000X-0.225000X-0.250000X0.225000X-0.250000X0*%
%TD*%
%TA.AperFunction,SMDPad,CuDef*%
%ADD28RoundRect,0.218750X0.256250X-0.218750X0.256250X0.218750X-0.256250X0.218750X-0.256250X-0.218750X0*%
%TD*%
%TA.AperFunction,SMDPad,CuDef*%
%ADD29RoundRect,0.140000X-0.140000X-0.170000X0.140000X-0.170000X0.140000X0.170000X-0.140000X0.170000X0*%
%TD*%
%TA.AperFunction,SMDPad,CuDef*%
%ADD30RoundRect,0.225000X-0.225000X-0.250000X0.225000X-0.250000X0.225000X0.250000X-0.225000X0.250000X0*%
%TD*%
%TA.AperFunction,SMDPad,CuDef*%
%ADD31RoundRect,0.375000X0.375000X-0.625000X0.375000X0.625000X-0.375000X0.625000X-0.375000X-0.625000X0*%
%TD*%
%TA.AperFunction,SMDPad,CuDef*%
%ADD32RoundRect,0.500000X1.400000X-0.500000X1.400000X0.500000X-1.400000X0.500000X-1.400000X-0.500000X0*%
%TD*%
%TA.AperFunction,SMDPad,CuDef*%
%ADD33RoundRect,0.250000X-0.275000X-0.350000X0.275000X-0.350000X0.275000X0.350000X-0.275000X0.350000X0*%
%TD*%
%TA.AperFunction,SMDPad,CuDef*%
%ADD34RoundRect,0.250000X0.262500X0.450000X-0.262500X0.450000X-0.262500X-0.450000X0.262500X-0.450000X0*%
%TD*%
%TA.AperFunction,SMDPad,CuDef*%
%ADD35RoundRect,0.075000X0.725000X0.075000X-0.725000X0.075000X-0.725000X-0.075000X0.725000X-0.075000X0*%
%TD*%
%TA.AperFunction,SMDPad,CuDef*%
%ADD36RoundRect,0.075000X0.075000X0.725000X-0.075000X0.725000X-0.075000X-0.725000X0.075000X-0.725000X0*%
%TD*%
%TA.AperFunction,ViaPad*%
%ADD37C,0.700000*%
%TD*%
%TA.AperFunction,ViaPad*%
%ADD38C,0.900000*%
%TD*%
%TA.AperFunction,Conductor*%
%ADD39C,0.300000*%
%TD*%
%TA.AperFunction,Conductor*%
%ADD40C,0.500000*%
%TD*%
G04 APERTURE END LIST*
D10*
%TO.P,J6,1,Pin_1*%
%TO.N,GND*%
X163000000Y-104610000D03*
D11*
%TO.P,J6,2,Pin_2*%
%TO.N,+3.3V*%
X160460000Y-104610000D03*
%TO.P,J6,3,Pin_3*%
%TO.N,/TP_SDO*%
X163000000Y-102070000D03*
%TO.P,J6,4,Pin_4*%
%TO.N,/TP_SDI*%
X160460000Y-102070000D03*
%TO.P,J6,5,Pin_5*%
%TO.N,/TP_SCK*%
X163000000Y-99530000D03*
%TO.P,J6,6,Pin_6*%
%TO.N,/TP_CS*%
X160460000Y-99530000D03*
%TO.P,J6,7,Pin_7*%
%TO.N,/TP_IRQ*%
X163000000Y-96990000D03*
%TO.P,J6,8,Pin_8*%
%TO.N,/BL_PWM*%
X160460000Y-96990000D03*
%TO.P,J6,9,Pin_9*%
%TO.N,GND*%
X163000000Y-94450000D03*
%TO.P,J6,10,Pin_10*%
%TO.N,+3.3V*%
X160460000Y-94450000D03*
%TO.P,J6,11,Pin_11*%
%TO.N,unconnected-(J6-Pin_11-Pad11)*%
X163000000Y-91910000D03*
%TO.P,J6,12,Pin_12*%
%TO.N,/LCD_NRST*%
X160460000Y-91910000D03*
%TO.P,J6,13,Pin_13*%
%TO.N,/FMC_NOE*%
X163000000Y-89370000D03*
%TO.P,J6,14,Pin_14*%
%TO.N,/FMC_NWE*%
X160460000Y-89370000D03*
%TO.P,J6,15,Pin_15*%
%TO.N,/FMC_A16*%
X163000000Y-86830000D03*
%TO.P,J6,16,Pin_16*%
%TO.N,/FMC_NE1*%
X160460000Y-86830000D03*
%TO.P,J6,17,Pin_17*%
%TO.N,/FMC_D15*%
X163000000Y-84290000D03*
%TO.P,J6,18,Pin_18*%
%TO.N,/FMC_D14*%
X160460000Y-84290000D03*
%TO.P,J6,19,Pin_19*%
%TO.N,/FMC_D13*%
X163000000Y-81750000D03*
%TO.P,J6,20,Pin_20*%
%TO.N,/FMC_D12*%
X160460000Y-81750000D03*
%TO.P,J6,21,Pin_21*%
%TO.N,/FMC_D11*%
X163000000Y-79210000D03*
%TO.P,J6,22,Pin_22*%
%TO.N,/FMC_D10*%
X160460000Y-79210000D03*
%TO.P,J6,23,Pin_23*%
%TO.N,/FMC_D9*%
X163000000Y-76670000D03*
%TO.P,J6,24,Pin_24*%
%TO.N,/FMC_D8*%
X160460000Y-76670000D03*
%TO.P,J6,25,Pin_25*%
%TO.N,/FMC_D7*%
X163000000Y-74130000D03*
%TO.P,J6,26,Pin_26*%
%TO.N,/FMC_D6*%
X160460000Y-74130000D03*
%TO.P,J6,27,Pin_27*%
%TO.N,/FMC_D5*%
X163000000Y-71590000D03*
%TO.P,J6,28,Pin_28*%
%TO.N,/FMC_D4*%
X160460000Y-71590000D03*
%TO.P,J6,29,Pin_29*%
%TO.N,/FMC_D3*%
X163000000Y-69050000D03*
%TO.P,J6,30,Pin_30*%
%TO.N,/FMC_D2*%
X160460000Y-69050000D03*
%TO.P,J6,31,Pin_31*%
%TO.N,/FMC_D1*%
X163000000Y-66510000D03*
%TO.P,J6,32,Pin_32*%
%TO.N,/FMC_D0*%
X160460000Y-66510000D03*
%TO.P,J6,33,Pin_33*%
%TO.N,unconnected-(J6-Pin_33-Pad33)*%
X163000000Y-63970000D03*
%TO.P,J6,34,Pin_34*%
%TO.N,unconnected-(J6-Pin_34-Pad34)*%
X160460000Y-63970000D03*
%TD*%
D12*
%TO.P,D4,3*%
%TO.N,N/C*%
X172600000Y-94150000D03*
%TO.P,D4,2,A2*%
%TO.N,/USB_OTG_FS_D+*%
X171650000Y-92275000D03*
%TO.P,D4,1,A1*%
%TO.N,GND*%
X173550000Y-92275000D03*
%TD*%
D13*
%TO.P,D3,3*%
%TO.N,N/C*%
X169800000Y-96525000D03*
%TO.P,D3,2,A2*%
%TO.N,/USB_OTG_FS_D-*%
X170750000Y-98400000D03*
%TO.P,D3,1,A1*%
%TO.N,GND*%
X168850000Y-98400000D03*
%TD*%
D12*
%TO.P,D2,3*%
%TO.N,N/C*%
X167000000Y-93800000D03*
%TO.P,D2,2,A2*%
%TO.N,/USB_OTG_FS_VBUS*%
X166050000Y-91925000D03*
%TO.P,D2,1,A1*%
%TO.N,GND*%
X167950000Y-91925000D03*
%TD*%
D14*
%TO.P,D5,2,A*%
%TO.N,Net-(D5-A)*%
X174000000Y-86750000D03*
%TO.P,D5,1,K*%
%TO.N,GND*%
X172425000Y-86750000D03*
%TD*%
D15*
%TO.P,C9,1*%
%TO.N,+3.3V*%
X192500000Y-77020000D03*
%TO.P,C9,2*%
%TO.N,GND*%
X192500000Y-77980000D03*
%TD*%
D16*
%TO.P,C13,1*%
%TO.N,+3.3V*%
X180250000Y-96200000D03*
%TO.P,C13,2*%
%TO.N,GND*%
X180250000Y-97750000D03*
%TD*%
D17*
%TO.P,SW1,2,2*%
%TO.N,/SWD_NRST*%
X196975000Y-88650000D03*
X196975000Y-82650000D03*
%TO.P,SW1,1,1*%
%TO.N,GND*%
X200725000Y-88650000D03*
X200725000Y-82650000D03*
%TD*%
D18*
%TO.P,R3,1*%
%TO.N,/USART2_TX*%
X193000000Y-65812500D03*
%TO.P,R3,2*%
%TO.N,Net-(J1-Pin_2)*%
X193000000Y-63987500D03*
%TD*%
D19*
%TO.P,J2,1,VBUS*%
%TO.N,/USB_OTG_FS_VBUS*%
X170250000Y-101287500D03*
%TO.P,J2,2,D-*%
%TO.N,/USB_OTG_FS_D-*%
X170900000Y-101287500D03*
%TO.P,J2,3,D+*%
%TO.N,/USB_OTG_FS_D+*%
X171550000Y-101287500D03*
%TO.P,J2,4,ID*%
%TO.N,unconnected-(J2-ID-Pad4)*%
X172200000Y-101287500D03*
%TO.P,J2,5,GND*%
%TO.N,GND*%
X172850000Y-101287500D03*
D20*
%TO.P,J2,6,Shield*%
%TO.N,unconnected-(J2-Shield-Pad6)_5*%
X168050000Y-103987500D03*
D21*
%TO.N,unconnected-(J2-Shield-Pad6)_1*%
X168650000Y-103987500D03*
D22*
%TO.N,unconnected-(J2-Shield-Pad6)*%
X169050000Y-101287500D03*
D23*
%TO.N,unconnected-(J2-Shield-Pad6)_7*%
X170550000Y-103987500D03*
%TO.N,unconnected-(J2-Shield-Pad6)_6*%
X172550000Y-103987500D03*
D22*
%TO.N,unconnected-(J2-Shield-Pad6)_4*%
X174050000Y-101287500D03*
D21*
%TO.N,unconnected-(J2-Shield-Pad6)_2*%
X174450000Y-103987500D03*
D20*
%TO.N,unconnected-(J2-Shield-Pad6)_3*%
X175050000Y-103987500D03*
%TD*%
D24*
%TO.P,C15,1*%
%TO.N,/HSE_IN*%
X196700000Y-79930000D03*
%TO.P,C15,2*%
%TO.N,GND*%
X195740000Y-79930000D03*
%TD*%
D18*
%TO.P,R2,1*%
%TO.N,GND*%
X185850000Y-87462500D03*
%TO.P,R2,2*%
%TO.N,/BOOT0*%
X185850000Y-85637500D03*
%TD*%
D25*
%TO.P,R5,1*%
%TO.N,Net-(D5-A)*%
X175750000Y-86750000D03*
%TO.P,R5,2*%
%TO.N,/DEBUG_LED*%
X177575000Y-86750000D03*
%TD*%
D26*
%TO.P,Y1,1,1*%
%TO.N,/HSE_IN*%
X196850000Y-77800000D03*
%TO.P,Y1,2,2*%
%TO.N,GND*%
X196850000Y-74900000D03*
%TO.P,Y1,3,3*%
%TO.N,/HSE_OUT*%
X194550000Y-74900000D03*
%TO.P,Y1,4,4*%
%TO.N,GND*%
X194550000Y-77800000D03*
%TD*%
D16*
%TO.P,C2,1*%
%TO.N,+3.3VA*%
X194200000Y-69850000D03*
%TO.P,C2,2*%
%TO.N,GND*%
X194200000Y-71400000D03*
%TD*%
D27*
%TO.P,C12,1*%
%TO.N,+5V*%
X185975000Y-102050000D03*
%TO.P,C12,2*%
%TO.N,GND*%
X184425000Y-102050000D03*
%TD*%
D28*
%TO.P,D1,1,K*%
%TO.N,Net-(D1-K)*%
X180050000Y-94187500D03*
%TO.P,D1,2,A*%
%TO.N,+3.3V*%
X180050000Y-92612500D03*
%TD*%
D15*
%TO.P,C14,1*%
%TO.N,GND*%
X192400000Y-74120000D03*
%TO.P,C14,2*%
%TO.N,/SWD_NRST*%
X192400000Y-75080000D03*
%TD*%
D29*
%TO.P,C16,1*%
%TO.N,/HSE_OUT*%
X195240000Y-72800000D03*
%TO.P,C16,2*%
%TO.N,GND*%
X196200000Y-72800000D03*
%TD*%
D30*
%TO.P,C18,1*%
%TO.N,/VCAP2*%
X173825000Y-84700000D03*
%TO.P,C18,2*%
%TO.N,GND*%
X175375000Y-84700000D03*
%TD*%
D19*
%TO.P,J4,1,VBUS*%
%TO.N,+5V*%
X192870000Y-101040000D03*
%TO.P,J4,2,D-*%
%TO.N,unconnected-(J4-D--Pad2)*%
X193520000Y-101040000D03*
%TO.P,J4,3,D+*%
%TO.N,unconnected-(J4-D+-Pad3)*%
X194170000Y-101040000D03*
%TO.P,J4,4,ID*%
%TO.N,unconnected-(J4-ID-Pad4)*%
X194820000Y-101040000D03*
%TO.P,J4,5,GND*%
%TO.N,GND*%
X195470000Y-101040000D03*
D20*
%TO.P,J4,6,Shield*%
%TO.N,unconnected-(J4-Shield-Pad6)_4*%
X190670000Y-103740000D03*
D21*
%TO.N,unconnected-(J4-Shield-Pad6)_7*%
X191270000Y-103740000D03*
D22*
%TO.N,unconnected-(J4-Shield-Pad6)_3*%
X191670000Y-101040000D03*
D23*
%TO.N,unconnected-(J4-Shield-Pad6)_6*%
X193170000Y-103740000D03*
%TO.N,unconnected-(J4-Shield-Pad6)*%
X195170000Y-103740000D03*
D22*
%TO.N,unconnected-(J4-Shield-Pad6)_5*%
X196670000Y-101040000D03*
D21*
%TO.N,unconnected-(J4-Shield-Pad6)_1*%
X197070000Y-103740000D03*
D20*
%TO.N,unconnected-(J4-Shield-Pad6)_2*%
X197670000Y-103740000D03*
%TD*%
D31*
%TO.P,U1,1,GND*%
%TO.N,GND*%
X182850000Y-99500000D03*
%TO.P,U1,2,VO*%
%TO.N,+3.3V*%
X185150000Y-99500000D03*
D32*
X185150000Y-93200000D03*
D31*
%TO.P,U1,3,VI*%
%TO.N,+5V*%
X187450000Y-99500000D03*
%TD*%
D29*
%TO.P,C4,1*%
%TO.N,+3.3V*%
X188120000Y-66400000D03*
%TO.P,C4,2*%
%TO.N,GND*%
X189080000Y-66400000D03*
%TD*%
D15*
%TO.P,C1,1*%
%TO.N,+3.3VA*%
X192400000Y-70820000D03*
%TO.P,C1,2*%
%TO.N,GND*%
X192400000Y-71780000D03*
%TD*%
D10*
%TO.P,J5,1,Pin_1*%
%TO.N,+5V*%
X198300000Y-95775000D03*
D11*
%TO.P,J5,2,Pin_2*%
%TO.N,GND*%
X198300000Y-93235000D03*
%TD*%
D24*
%TO.P,C7,1*%
%TO.N,+3.3V*%
X189160000Y-85400000D03*
%TO.P,C7,2*%
%TO.N,GND*%
X188200000Y-85400000D03*
%TD*%
D10*
%TO.P,J3,1,Pin_1*%
%TO.N,+3.3V*%
X194800000Y-59750000D03*
D11*
%TO.P,J3,2,Pin_2*%
%TO.N,/SWD_NRST*%
X192260000Y-59750000D03*
%TO.P,J3,3,Pin_3*%
%TO.N,/SWDIO*%
X189720000Y-59750000D03*
%TO.P,J3,4,Pin_4*%
%TO.N,/SWDCLK*%
X187180000Y-59750000D03*
%TO.P,J3,5,Pin_5*%
%TO.N,/SWDO*%
X184640000Y-59750000D03*
%TO.P,J3,6,Pin_6*%
%TO.N,GND*%
X182100000Y-59750000D03*
%TD*%
D10*
%TO.P,J1,1,Pin_1*%
%TO.N,+3.3V*%
X198900000Y-67350000D03*
D11*
%TO.P,J1,2,Pin_2*%
%TO.N,Net-(J1-Pin_2)*%
X198900000Y-64810000D03*
%TO.P,J1,3,Pin_3*%
%TO.N,Net-(J1-Pin_3)*%
X198900000Y-62270000D03*
%TO.P,J1,4,Pin_4*%
%TO.N,GND*%
X198900000Y-59730000D03*
%TD*%
D24*
%TO.P,C6,1*%
%TO.N,+3.3V*%
X174900000Y-83100000D03*
%TO.P,C6,2*%
%TO.N,GND*%
X173940000Y-83100000D03*
%TD*%
D29*
%TO.P,C10,1*%
%TO.N,+3.3V*%
X192320000Y-72900000D03*
%TO.P,C10,2*%
%TO.N,GND*%
X193280000Y-72900000D03*
%TD*%
D30*
%TO.P,C3,1*%
%TO.N,+3.3V*%
X196225000Y-70200000D03*
%TO.P,C3,2*%
%TO.N,GND*%
X197775000Y-70200000D03*
%TD*%
D33*
%TO.P,FB1,1*%
%TO.N,+3.3VA*%
X193900000Y-68050000D03*
%TO.P,FB1,2*%
%TO.N,+3.3V*%
X196200000Y-68050000D03*
%TD*%
D27*
%TO.P,C11,1*%
%TO.N,+3.3V*%
X189300000Y-87050000D03*
%TO.P,C11,2*%
%TO.N,GND*%
X187750000Y-87050000D03*
%TD*%
D18*
%TO.P,R4,1*%
%TO.N,/USART2_RX*%
X190800000Y-67300000D03*
%TO.P,R4,2*%
%TO.N,Net-(J1-Pin_3)*%
X190800000Y-65475000D03*
%TD*%
D34*
%TO.P,R1,1*%
%TO.N,Net-(D1-K)*%
X177525000Y-94300000D03*
%TO.P,R1,2*%
%TO.N,GND*%
X175700000Y-94300000D03*
%TD*%
D35*
%TO.P,U2,1,PE2*%
%TO.N,/TP_SCK*%
X190575000Y-81890000D03*
%TO.P,U2,2,PE3*%
%TO.N,unconnected-(U2-PE3-Pad2)*%
X190575000Y-81390000D03*
%TO.P,U2,3,PE4*%
%TO.N,/TP_CS*%
X190575000Y-80890000D03*
%TO.P,U2,4,PE5*%
%TO.N,/TP_SDO*%
X190575000Y-80390000D03*
%TO.P,U2,5,PE6*%
%TO.N,/TP_SDI*%
X190575000Y-79890000D03*
%TO.P,U2,6,VBAT*%
%TO.N,+3.3V*%
X190575000Y-79390000D03*
%TO.P,U2,7,PC13*%
%TO.N,unconnected-(U2-PC13-Pad7)*%
X190575000Y-78890000D03*
%TO.P,U2,8,PC14*%
%TO.N,unconnected-(U2-PC14-Pad8)*%
X190575000Y-78390000D03*
%TO.P,U2,9,PC15*%
%TO.N,unconnected-(U2-PC15-Pad9)*%
X190575000Y-77890000D03*
%TO.P,U2,10,VSS*%
%TO.N,GND*%
X190575000Y-77390000D03*
%TO.P,U2,11,VDD*%
%TO.N,+3.3V*%
X190575000Y-76890000D03*
%TO.P,U2,12,PH0*%
%TO.N,/HSE_IN*%
X190575000Y-76390000D03*
%TO.P,U2,13,PH1*%
%TO.N,/HSE_OUT*%
X190575000Y-75890000D03*
%TO.P,U2,14,NRST*%
%TO.N,/SWD_NRST*%
X190575000Y-75390000D03*
%TO.P,U2,15,PC0*%
%TO.N,unconnected-(U2-PC0-Pad15)*%
X190575000Y-74890000D03*
%TO.P,U2,16,PC1*%
%TO.N,unconnected-(U2-PC1-Pad16)*%
X190575000Y-74390000D03*
%TO.P,U2,17,PC2*%
%TO.N,unconnected-(U2-PC2-Pad17)*%
X190575000Y-73890000D03*
%TO.P,U2,18,PC3*%
%TO.N,unconnected-(U2-PC3-Pad18)*%
X190575000Y-73390000D03*
%TO.P,U2,19,VDD*%
%TO.N,+3.3V*%
X190575000Y-72890000D03*
%TO.P,U2,20,VSSA*%
%TO.N,GND*%
X190575000Y-72390000D03*
%TO.P,U2,21,VREF+*%
%TO.N,+3.3VA*%
X190575000Y-71890000D03*
%TO.P,U2,22,VDDA*%
X190575000Y-71390000D03*
%TO.P,U2,23,PA0*%
%TO.N,unconnected-(U2-PA0-Pad23)*%
X190575000Y-70890000D03*
%TO.P,U2,24,PA1*%
%TO.N,unconnected-(U2-PA1-Pad24)*%
X190575000Y-70390000D03*
%TO.P,U2,25,PA2*%
%TO.N,/USART2_TX*%
X190575000Y-69890000D03*
D36*
%TO.P,U2,26,PA3*%
%TO.N,/USART2_RX*%
X188900000Y-68215000D03*
%TO.P,U2,27,VSS*%
%TO.N,GND*%
X188400000Y-68215000D03*
%TO.P,U2,28,VDD*%
%TO.N,+3.3V*%
X187900000Y-68215000D03*
%TO.P,U2,29,PA4*%
%TO.N,unconnected-(U2-PA4-Pad29)*%
X187400000Y-68215000D03*
%TO.P,U2,30,PA5*%
%TO.N,unconnected-(U2-PA5-Pad30)*%
X186900000Y-68215000D03*
%TO.P,U2,31,PA6*%
%TO.N,unconnected-(U2-PA6-Pad31)*%
X186400000Y-68215000D03*
%TO.P,U2,32,PA7*%
%TO.N,unconnected-(U2-PA7-Pad32)*%
X185900000Y-68215000D03*
%TO.P,U2,33,PC4*%
%TO.N,unconnected-(U2-PC4-Pad33)*%
X185400000Y-68215000D03*
%TO.P,U2,34,PC5*%
%TO.N,unconnected-(U2-PC5-Pad34)*%
X184900000Y-68215000D03*
%TO.P,U2,35,PB0*%
%TO.N,unconnected-(U2-PB0-Pad35)*%
X184400000Y-68215000D03*
%TO.P,U2,36,PB1*%
%TO.N,unconnected-(U2-PB1-Pad36)*%
X183900000Y-68215000D03*
%TO.P,U2,37,PB2*%
%TO.N,unconnected-(U2-PB2-Pad37)*%
X183400000Y-68215000D03*
%TO.P,U2,38,PE7*%
%TO.N,/FMC_D4*%
X182900000Y-68215000D03*
%TO.P,U2,39,PE8*%
%TO.N,/FMC_D5*%
X182400000Y-68215000D03*
%TO.P,U2,40,PE9*%
%TO.N,/FMC_D6*%
X181900000Y-68215000D03*
%TO.P,U2,41,PE10*%
%TO.N,/FMC_D7*%
X181400000Y-68215000D03*
%TO.P,U2,42,PE11*%
%TO.N,/FMC_D8*%
X180900000Y-68215000D03*
%TO.P,U2,43,PE12*%
%TO.N,/FMC_D9*%
X180400000Y-68215000D03*
%TO.P,U2,44,PE13*%
%TO.N,/FMC_D10*%
X179900000Y-68215000D03*
%TO.P,U2,45,PE14*%
%TO.N,/FMC_D11*%
X179400000Y-68215000D03*
%TO.P,U2,46,PE15*%
%TO.N,/FMC_D12*%
X178900000Y-68215000D03*
%TO.P,U2,47,PB10*%
%TO.N,unconnected-(U2-PB10-Pad47)*%
X178400000Y-68215000D03*
%TO.P,U2,48,PB11*%
%TO.N,unconnected-(U2-PB11-Pad48)*%
X177900000Y-68215000D03*
%TO.P,U2,49,VCAP_1*%
%TO.N,/VCAP1*%
X177400000Y-68215000D03*
%TO.P,U2,50,VDD*%
%TO.N,+3.3V*%
X176900000Y-68215000D03*
D35*
%TO.P,U2,51,PB12*%
%TO.N,unconnected-(U2-PB12-Pad51)*%
X175225000Y-69890000D03*
%TO.P,U2,52,PB13*%
%TO.N,unconnected-(U2-PB13-Pad52)*%
X175225000Y-70390000D03*
%TO.P,U2,53,PB14*%
%TO.N,unconnected-(U2-PB14-Pad53)*%
X175225000Y-70890000D03*
%TO.P,U2,54,PB15*%
%TO.N,unconnected-(U2-PB15-Pad54)*%
X175225000Y-71390000D03*
%TO.P,U2,55,PD8*%
%TO.N,/FMC_D13*%
X175225000Y-71890000D03*
%TO.P,U2,56,PD9*%
%TO.N,/FMC_D14*%
X175225000Y-72390000D03*
%TO.P,U2,57,PD10*%
%TO.N,/FMC_D15*%
X175225000Y-72890000D03*
%TO.P,U2,58,PD11*%
%TO.N,/FMC_A16*%
X175225000Y-73390000D03*
%TO.P,U2,59,PD12*%
%TO.N,unconnected-(U2-PD12-Pad59)*%
X175225000Y-73890000D03*
%TO.P,U2,60,PD13*%
%TO.N,unconnected-(U2-PD13-Pad60)*%
X175225000Y-74390000D03*
%TO.P,U2,61,PD14*%
%TO.N,/FMC_D0*%
X175225000Y-74890000D03*
%TO.P,U2,62,PD15*%
%TO.N,/FMC_D1*%
X175225000Y-75390000D03*
%TO.P,U2,63,PC6*%
%TO.N,unconnected-(U2-PC6-Pad63)*%
X175225000Y-75890000D03*
%TO.P,U2,64,PC7*%
%TO.N,unconnected-(U2-PC7-Pad64)*%
X175225000Y-76390000D03*
%TO.P,U2,65,PC8*%
%TO.N,unconnected-(U2-PC8-Pad65)*%
X175225000Y-76890000D03*
%TO.P,U2,66,PC9*%
%TO.N,unconnected-(U2-PC9-Pad66)*%
X175225000Y-77390000D03*
%TO.P,U2,67,PA8*%
%TO.N,unconnected-(U2-PA8-Pad67)*%
X175225000Y-77890000D03*
%TO.P,U2,68,PA9*%
%TO.N,/USB_OTG_FS_VBUS*%
X175225000Y-78390000D03*
%TO.P,U2,69,PA10*%
%TO.N,unconnected-(U2-PA10-Pad69)*%
X175225000Y-78890000D03*
%TO.P,U2,70,PA11*%
%TO.N,/USB_OTG_FS_D-*%
X175225000Y-79390000D03*
%TO.P,U2,71,PA12*%
%TO.N,/USB_OTG_FS_D+*%
X175225000Y-79890000D03*
%TO.P,U2,72,PA13*%
%TO.N,/SWDIO*%
X175225000Y-80390000D03*
%TO.P,U2,73,VCAP_2*%
%TO.N,/VCAP2*%
X175225000Y-80890000D03*
%TO.P,U2,74,VSS*%
%TO.N,GND*%
X175225000Y-81390000D03*
%TO.P,U2,75,VDD*%
%TO.N,+3.3V*%
X175225000Y-81890000D03*
D36*
%TO.P,U2,76,PA14*%
%TO.N,/SWDCLK*%
X176900000Y-83565000D03*
%TO.P,U2,77,PA15*%
%TO.N,unconnected-(U2-PA15-Pad77)*%
X177400000Y-83565000D03*
%TO.P,U2,78,PC10*%
%TO.N,/DEBUG_LED*%
X177900000Y-83565000D03*
%TO.P,U2,79,PC11*%
%TO.N,unconnected-(U2-PC11-Pad79)*%
X178400000Y-83565000D03*
%TO.P,U2,80,PC12*%
%TO.N,unconnected-(U2-PC12-Pad80)*%
X178900000Y-83565000D03*
%TO.P,U2,81,PD0*%
%TO.N,/FMC_D2*%
X179400000Y-83565000D03*
%TO.P,U2,82,PD1*%
%TO.N,/FMC_D3*%
X179900000Y-83565000D03*
%TO.P,U2,83,PD2*%
%TO.N,unconnected-(U2-PD2-Pad83)*%
X180400000Y-83565000D03*
%TO.P,U2,84,PD3*%
%TO.N,unconnected-(U2-PD3-Pad84)*%
X180900000Y-83565000D03*
%TO.P,U2,85,PD4*%
%TO.N,/FMC_NOE*%
X181400000Y-83565000D03*
%TO.P,U2,86,PD5*%
%TO.N,/FMC_NWE*%
X181900000Y-83565000D03*
%TO.P,U2,87,PD6*%
%TO.N,/LCD_NRST*%
X182400000Y-83565000D03*
%TO.P,U2,88,PD7*%
%TO.N,/FMC_NE1*%
X182900000Y-83565000D03*
%TO.P,U2,89,PB3*%
%TO.N,/SWDO*%
X183400000Y-83565000D03*
%TO.P,U2,90,PB4*%
%TO.N,/BL_PWM*%
X183900000Y-83565000D03*
%TO.P,U2,91,PB5*%
%TO.N,/TP_IRQ*%
X184400000Y-83565000D03*
%TO.P,U2,92,PB6*%
%TO.N,unconnected-(U2-PB6-Pad92)*%
X184900000Y-83565000D03*
%TO.P,U2,93,PB7*%
%TO.N,unconnected-(U2-PB7-Pad93)*%
X185400000Y-83565000D03*
%TO.P,U2,94,BOOT0*%
%TO.N,/BOOT0*%
X185900000Y-83565000D03*
%TO.P,U2,95,PB8*%
%TO.N,unconnected-(U2-PB8-Pad95)*%
X186400000Y-83565000D03*
%TO.P,U2,96,PB9*%
%TO.N,unconnected-(U2-PB9-Pad96)*%
X186900000Y-83565000D03*
%TO.P,U2,97,PE0*%
%TO.N,unconnected-(U2-PE0-Pad97)*%
X187400000Y-83565000D03*
%TO.P,U2,98,PE1*%
%TO.N,unconnected-(U2-PE1-Pad98)*%
X187900000Y-83565000D03*
%TO.P,U2,99,VSS*%
%TO.N,GND*%
X188400000Y-83565000D03*
%TO.P,U2,100,VDD*%
%TO.N,+3.3V*%
X188900000Y-83565000D03*
%TD*%
D37*
%TO.N,GND*%
X181250000Y-71450000D03*
X174250000Y-90500000D03*
X179750000Y-89750000D03*
D38*
X185500000Y-91000000D03*
X183500000Y-62250000D03*
X183000000Y-70000000D03*
X167000000Y-86000000D03*
X186000000Y-78000000D03*
X195000000Y-90000000D03*
X195000000Y-87000000D03*
X195000000Y-84000000D03*
X203000000Y-66000000D03*
X203000000Y-69000000D03*
X203000000Y-72000000D03*
X203000000Y-75000000D03*
X203000000Y-78000000D03*
X203000000Y-81000000D03*
X203000000Y-84000000D03*
X203000000Y-87000000D03*
X201000000Y-91000000D03*
X195000000Y-95000000D03*
X192000000Y-95000000D03*
X195000000Y-98000000D03*
X192000000Y-98000000D03*
X188000000Y-104000000D03*
X182000000Y-104000000D03*
X179000000Y-104000000D03*
X157000000Y-98000000D03*
X157000000Y-95000000D03*
X157000000Y-92000000D03*
X157000000Y-89000000D03*
X157000000Y-83000000D03*
X157000000Y-80000000D03*
X157000000Y-77000000D03*
X157000000Y-74000000D03*
X157000000Y-71000000D03*
X157000000Y-68000000D03*
X157000000Y-65000000D03*
X157000000Y-62000000D03*
X157000000Y-59000000D03*
X166000000Y-62000000D03*
X169000000Y-62000000D03*
X175000000Y-59000000D03*
X172000000Y-59000000D03*
X169000000Y-59000000D03*
X166000000Y-59000000D03*
X163000000Y-59000000D03*
X160000000Y-59000000D03*
X196000000Y-56000000D03*
X193000000Y-55000000D03*
X190000000Y-55000000D03*
X187000000Y-55000000D03*
X184000000Y-56000000D03*
X181000000Y-56000000D03*
X178000000Y-56000000D03*
X175000000Y-56000000D03*
X172000000Y-56000000D03*
X169000000Y-56000000D03*
X166000000Y-56000000D03*
X163000000Y-56000000D03*
X160000000Y-56000000D03*
D37*
%TO.N,/FMC_NWE*%
X178700000Y-89050000D03*
%TO.N,/BL_PWM*%
X182200000Y-89700000D03*
%TO.N,/SWD_NRST*%
X198150000Y-81150000D03*
%TO.N,/TP_SDI*%
X193900000Y-81550000D03*
%TO.N,/SWDIO*%
X177150000Y-79950000D03*
%TO.N,GND*%
X178350000Y-78500000D03*
X176900000Y-78800000D03*
%TO.N,/SWDCLK*%
X179000000Y-79500000D03*
%TO.N,/FMC_D2*%
X177800000Y-76450000D03*
%TO.N,/FMC_D3*%
X179434052Y-76755407D03*
%TO.N,/TP_SDO*%
X192800000Y-88200000D03*
%TO.N,GND*%
X191700000Y-86750000D03*
X190900000Y-90650000D03*
X176900000Y-77250000D03*
X180450000Y-75850000D03*
X180000000Y-73800000D03*
%TO.N,/FMC_D1*%
X178950000Y-74100000D03*
%TO.N,GND*%
X177800000Y-72900000D03*
X172800000Y-76400000D03*
X171000000Y-76200000D03*
X198800000Y-70200000D03*
X195200000Y-71400000D03*
%TO.N,+3.3V*%
X184200000Y-81600000D03*
%TO.N,GND*%
X195700000Y-80670000D03*
X183400000Y-102100000D03*
X185300000Y-88500000D03*
X176400000Y-102100000D03*
X194500000Y-79550000D03*
X198400000Y-74950000D03*
X174600000Y-94300000D03*
X201950000Y-82650000D03*
X187800000Y-88100000D03*
X189200000Y-65650000D03*
X169300000Y-92200000D03*
X182700000Y-101100000D03*
X201950000Y-88650000D03*
X188000000Y-82100000D03*
X179200000Y-97200000D03*
X173875057Y-81799638D03*
X189200000Y-72100000D03*
X169300000Y-95000000D03*
X189200000Y-77700000D03*
X173200000Y-83100000D03*
X195500000Y-99600000D03*
X174900000Y-92400000D03*
X187460000Y-85400000D03*
X172600000Y-85700000D03*
X175000000Y-67700000D03*
X196940000Y-72800000D03*
X194040000Y-72900000D03*
%TO.N,+3.3V*%
X176000000Y-67800000D03*
X176700000Y-81600000D03*
X189000000Y-78750000D03*
%TO.N,/SWD_NRST*%
X188800000Y-75000000D03*
%TO.N,/VCAP1*%
X177900000Y-70100000D03*
%TO.N,/FMC_NOE*%
X175500000Y-89400000D03*
%TO.N,/LCD_NRST*%
X177500000Y-91800000D03*
%TO.N,/FMC_D13*%
X170750000Y-75000000D03*
%TO.N,/TP_IRQ*%
X184200000Y-89100000D03*
%TO.N,/FMC_NE1*%
X182300000Y-88100000D03*
%TO.N,/FMC_D15*%
X172900000Y-75000000D03*
%TO.N,/TP_SCK*%
X189650000Y-90450000D03*
%TO.N,/TP_CS*%
X189300000Y-80900000D03*
%TO.N,/FMC_D0*%
X177000000Y-72100000D03*
%TO.N,/SWDO*%
X184600000Y-72300000D03*
%TO.N,GND*%
X193144975Y-79655025D03*
%TD*%
D39*
%TO.N,/LCD_NRST*%
X179000000Y-91750000D02*
X177550000Y-91750000D01*
X181000000Y-89750000D02*
X179000000Y-91750000D01*
X181000000Y-88050000D02*
X181000000Y-89750000D01*
X182400000Y-86650000D02*
X181000000Y-88050000D01*
X182400000Y-83565000D02*
X182400000Y-86650000D01*
X177550000Y-91750000D02*
X177500000Y-91800000D01*
%TO.N,/FMC_NWE*%
X178700000Y-89000000D02*
X178700000Y-89050000D01*
X181800000Y-85900000D02*
X178700000Y-89000000D01*
%TO.N,/FMC_D12*%
X166665734Y-77922131D02*
X166771800Y-78028197D01*
X168150665Y-76861470D02*
X168044599Y-76755404D01*
X178900000Y-67150000D02*
X178500000Y-66750000D01*
X167726399Y-77497867D02*
X167514266Y-77710001D01*
X167196068Y-77603935D02*
X167196066Y-77603934D01*
X168893128Y-75906872D02*
X168787061Y-75800805D01*
X168574930Y-76649336D02*
X168362797Y-76861470D01*
X173400000Y-70508472D02*
X169600000Y-74308472D01*
X166771801Y-78028199D02*
X166877868Y-78134266D01*
X165817203Y-78982794D02*
X165605072Y-79194927D01*
X165104065Y-79695935D02*
X164300000Y-80500000D01*
X168468862Y-76331135D02*
X168468863Y-76331137D01*
X166877868Y-78346398D02*
X166665735Y-78558532D01*
X169600000Y-74308472D02*
X169600000Y-75200000D01*
X167620331Y-77179666D02*
X167620332Y-77179668D01*
X178500000Y-66750000D02*
X174400000Y-66750000D01*
X167514265Y-77073600D02*
X167620331Y-77179666D01*
X166453603Y-78558532D02*
X166347537Y-78452466D01*
X166347535Y-78452465D02*
X166241468Y-78346398D01*
X168044597Y-76755403D02*
X167938530Y-76649336D01*
X166029336Y-78346398D02*
X165817203Y-78558530D01*
X168468863Y-76331137D02*
X168574930Y-76437204D01*
X167726398Y-76649336D02*
X167514265Y-76861468D01*
X168362796Y-76225069D02*
X168468862Y-76331135D01*
X167302134Y-77710001D02*
X167196068Y-77603935D01*
X161710000Y-80500000D02*
X160460000Y-81750000D01*
X169600000Y-75200000D02*
X169423461Y-75376539D01*
X165605072Y-79194927D02*
X165104065Y-79695935D01*
X164300000Y-80500000D02*
X161710000Y-80500000D01*
X168044599Y-76755404D02*
X168044597Y-76755403D01*
X178900000Y-68215000D02*
X178900000Y-67150000D01*
X166771800Y-78028197D02*
X166771801Y-78028199D01*
X167620332Y-77179668D02*
X167726399Y-77285735D01*
X169423461Y-75800805D02*
X169211328Y-76012939D01*
X168893130Y-75906873D02*
X168893128Y-75906872D01*
X166877867Y-77497867D02*
X166665734Y-77709999D01*
X168574929Y-75800805D02*
X168362796Y-76012937D01*
X174400000Y-66750000D02*
X173400000Y-67750000D01*
X173400000Y-67750000D02*
X173400000Y-70508472D01*
X168999196Y-76012939D02*
X168893130Y-75906873D01*
X167196066Y-77603934D02*
X167089999Y-77497867D01*
X166347537Y-78452466D02*
X166347535Y-78452465D01*
X165817203Y-78558530D02*
G75*
G03*
X165817199Y-78770666I106097J-106070D01*
G01*
X167514266Y-77710001D02*
G75*
G02*
X167302134Y-77710001I-106066J106066D01*
G01*
X167514265Y-76861468D02*
G75*
G03*
X167514299Y-77073566I106035J-106032D01*
G01*
X166665735Y-78558532D02*
G75*
G02*
X166453603Y-78558532I-106066J106066D01*
G01*
X167089999Y-77497867D02*
G75*
G03*
X166877867Y-77497867I-106066J-106066D01*
G01*
X169211328Y-76012939D02*
G75*
G02*
X168999196Y-76012939I-106066J106066D01*
G01*
X166665734Y-77709999D02*
G75*
G03*
X166665699Y-77922166I106066J-106101D01*
G01*
X168362797Y-76861470D02*
G75*
G02*
X168150665Y-76861470I-106066J106066D01*
G01*
X169423461Y-75376539D02*
G75*
G03*
X169423466Y-75588666I106039J-106061D01*
G01*
X166241468Y-78346398D02*
G75*
G03*
X166029336Y-78346398I-106066J-106066D01*
G01*
X167726399Y-77285735D02*
G75*
G02*
X167726398Y-77497866I-106099J-106065D01*
G01*
X168362796Y-76012937D02*
G75*
G03*
X168362799Y-76225066I106104J-106063D01*
G01*
X168574930Y-76437204D02*
G75*
G02*
X168574960Y-76649366I-106030J-106096D01*
G01*
X167938530Y-76649336D02*
G75*
G03*
X167726398Y-76649336I-106066J-106066D01*
G01*
X169423460Y-75588673D02*
G75*
G02*
X169423422Y-75800765I-106060J-106027D01*
G01*
X168787061Y-75800805D02*
G75*
G03*
X168574929Y-75800805I-106066J-106066D01*
G01*
X165817203Y-78770662D02*
G75*
G02*
X165817175Y-78982766I-106103J-106038D01*
G01*
X166877868Y-78134266D02*
G75*
G02*
X166877836Y-78346366I-106068J-106034D01*
G01*
%TO.N,/BL_PWM*%
X182200000Y-89650000D02*
X182200000Y-89700000D01*
X183550000Y-88300000D02*
X182200000Y-89650000D01*
%TO.N,/SWD_NRST*%
X196975000Y-82325000D02*
X198150000Y-81150000D01*
X196975000Y-82650000D02*
X196975000Y-82325000D01*
%TO.N,/TP_SDI*%
X193900000Y-81400000D02*
X193900000Y-81550000D01*
X192390000Y-79890000D02*
X193900000Y-81400000D01*
%TO.N,/LCD_NRST*%
X177500000Y-91650000D02*
X177500000Y-91800000D01*
D40*
%TO.N,+3.3V*%
X199350000Y-73325000D02*
X196225000Y-70200000D01*
X199350000Y-88300000D02*
X199350000Y-73325000D01*
X194450000Y-93200000D02*
X199350000Y-88300000D01*
X185150000Y-93200000D02*
X194450000Y-93200000D01*
D39*
%TO.N,/SWDIO*%
X176390000Y-80390000D02*
X176710000Y-80390000D01*
X176710000Y-80390000D02*
X177150000Y-79950000D01*
%TO.N,/SWDCLK*%
X179000000Y-80500000D02*
X179000000Y-79500000D01*
X177900000Y-81600000D02*
X179000000Y-80500000D01*
%TO.N,/FMC_D2*%
X180750000Y-79450000D02*
X177800000Y-76500000D01*
X180800000Y-80450000D02*
X180800000Y-79500000D01*
X177800000Y-76500000D02*
X177800000Y-76450000D01*
X179400000Y-81850000D02*
X180800000Y-80450000D01*
X180800000Y-79500000D02*
X180750000Y-79450000D01*
X179400000Y-82350000D02*
X179400000Y-81850000D01*
%TO.N,/FMC_D3*%
X181950000Y-79271355D02*
X179434052Y-76755407D01*
X181950000Y-80150000D02*
X181950000Y-79271355D01*
X179900000Y-82200000D02*
X181950000Y-80150000D01*
X179900000Y-82650000D02*
X179900000Y-82200000D01*
%TO.N,/TP_SDO*%
X192800000Y-81700000D02*
X192800000Y-88200000D01*
X191490000Y-80390000D02*
X192800000Y-81700000D01*
X190575000Y-80390000D02*
X191490000Y-80390000D01*
%TO.N,/FMC_D1*%
X178950000Y-74600000D02*
X178950000Y-74100000D01*
X178750000Y-74800000D02*
X178950000Y-74600000D01*
X178160000Y-75390000D02*
X178750000Y-74800000D01*
X177310000Y-75390000D02*
X178160000Y-75390000D01*
%TO.N,/FMC_D14*%
X164979527Y-81852777D02*
G75*
G03*
X164640115Y-81852777I-169706J-169704D01*
G01*
X164569404Y-82291183D02*
G75*
G02*
X164569416Y-82630605I-169704J-169717D01*
G01*
X165686636Y-82220473D02*
G75*
G02*
X165347224Y-82220473I-169706J169708D01*
G01*
X165403793Y-81089098D02*
G75*
G03*
X165403797Y-81428506I169707J-169702D01*
G01*
X167383698Y-80523411D02*
G75*
G02*
X167044286Y-80523411I-169706J169708D01*
G01*
X167949386Y-78543505D02*
G75*
G03*
X167949397Y-78882906I169714J-169695D01*
G01*
X165828058Y-81004246D02*
G75*
G03*
X165488646Y-81004246I-169706J-169704D01*
G01*
X166535167Y-81371942D02*
G75*
G02*
X166195755Y-81371942I-169706J169708D01*
G01*
X166252324Y-80240567D02*
G75*
G03*
X166252297Y-80580006I169676J-169733D01*
G01*
X169222182Y-77610122D02*
G75*
G03*
X168882770Y-77610122I-169706J-169704D01*
G01*
X170000000Y-77200000D02*
G75*
G03*
X170000006Y-77539406I169700J-169700D01*
G01*
X167525120Y-79307184D02*
G75*
G03*
X167185708Y-79307184I-169706J-169704D01*
G01*
X168317082Y-79250614D02*
G75*
G02*
X168317062Y-79590006I-169682J-169686D01*
G01*
X165771489Y-81796207D02*
G75*
G02*
X165771476Y-82135606I-169689J-169693D01*
G01*
X167100855Y-79392036D02*
G75*
G03*
X167100897Y-79731406I169745J-169664D01*
G01*
X167468551Y-80099145D02*
G75*
G02*
X167468600Y-80438606I-169751J-169755D01*
G01*
X166676589Y-80155715D02*
G75*
G03*
X166337177Y-80155715I-169706J-169704D01*
G01*
X168797917Y-77694974D02*
G75*
G03*
X168797897Y-78034406I169683J-169726D01*
G01*
X166620020Y-80947676D02*
G75*
G02*
X166620038Y-81287106I-169720J-169724D01*
G01*
X168232229Y-79674880D02*
G75*
G02*
X167892817Y-79674880I-169706J169708D01*
G01*
X169080760Y-78826349D02*
G75*
G02*
X168741348Y-78826349I-169706J169708D01*
G01*
X170014143Y-77553555D02*
G75*
G02*
X170014182Y-77893006I-169743J-169745D01*
G01*
X164555262Y-81937629D02*
G75*
G03*
X164555297Y-82277006I169738J-169671D01*
G01*
X168373651Y-78458653D02*
G75*
G03*
X168034239Y-78458653I-169706J-169704D01*
G01*
X169929291Y-77977819D02*
G75*
G02*
X169589879Y-77977819I-169706J169701D01*
G01*
X169165613Y-78402083D02*
G75*
G02*
X169165624Y-78741506I-169713J-169717D01*
G01*
X165587640Y-81612357D02*
X165587641Y-81612359D01*
X166011908Y-81188095D02*
X166011906Y-81188094D01*
X168882770Y-77610122D02*
X168797917Y-77694974D01*
X165403793Y-81428510D02*
X165587640Y-81612357D01*
X166860439Y-80339564D02*
X166860437Y-80339563D01*
X161750000Y-83000000D02*
X160460000Y-84290000D01*
X164484552Y-82715447D02*
X164266698Y-82933302D01*
X166195755Y-81371942D02*
X166011908Y-81188095D01*
X164640115Y-81852777D02*
X164555262Y-81937629D01*
X168981764Y-78218233D02*
X168981765Y-78218235D01*
X164993669Y-81866919D02*
X164979527Y-81852777D01*
X166436172Y-80763828D02*
X166620020Y-80947676D01*
X167468551Y-80438557D02*
X167383698Y-80523411D01*
X165587641Y-81612359D02*
X165771489Y-81796207D01*
X166011906Y-81188094D02*
X165828058Y-81004246D01*
X168133234Y-79066766D02*
X168317082Y-79250614D01*
X169575737Y-77963677D02*
X169406030Y-77793970D01*
X166620020Y-81287088D02*
X166535167Y-81371942D01*
X167284703Y-79915297D02*
X167468551Y-80099145D01*
X165771489Y-82135619D02*
X165686636Y-82220473D01*
X166252324Y-80579979D02*
X166436171Y-80763826D01*
X168981765Y-78218235D02*
X169165613Y-78402083D01*
X168797917Y-78034386D02*
X168981764Y-78218233D01*
X168741348Y-78826349D02*
X168557501Y-78642502D01*
X165163377Y-82036626D02*
X164993669Y-81866919D01*
X165488646Y-81004246D02*
X165403793Y-81089098D01*
X168317082Y-79590026D02*
X168232229Y-79674880D01*
X167949386Y-78882917D02*
X168133233Y-79066764D01*
X164200000Y-83000000D02*
X161750000Y-83000000D01*
X168557499Y-78642501D02*
X168373651Y-78458653D01*
X168557501Y-78642502D02*
X168557499Y-78642501D01*
X164266698Y-82933302D02*
X164200000Y-83000000D01*
X164555262Y-82277041D02*
X164569404Y-82291183D01*
X165347224Y-82220473D02*
X165163377Y-82036626D01*
X167708970Y-79491033D02*
X167708968Y-79491032D01*
X164569404Y-82630594D02*
X164484552Y-82715447D01*
X169589879Y-77977819D02*
X169575737Y-77963677D01*
X175225000Y-72390000D02*
X173310000Y-72390000D01*
X167284702Y-79915295D02*
X167284703Y-79915297D01*
X170000000Y-77539412D02*
X170014143Y-77553555D01*
X167044286Y-80523411D02*
X166860439Y-80339564D01*
X167892817Y-79674880D02*
X167708970Y-79491033D01*
X167185708Y-79307184D02*
X167100855Y-79392036D01*
X166337177Y-80155715D02*
X166252324Y-80240567D01*
X172000000Y-76600000D02*
X171400000Y-77200000D01*
X170014142Y-77892967D02*
X169929291Y-77977819D01*
X171400000Y-77200000D02*
X170000000Y-77200000D01*
X172000000Y-73700000D02*
X172000000Y-76600000D01*
X173310000Y-72390000D02*
X172000000Y-73700000D01*
X169406030Y-77793970D02*
X169222182Y-77610122D01*
X167708968Y-79491032D02*
X167525120Y-79307184D01*
X168133233Y-79066764D02*
X168133234Y-79066766D01*
X167100855Y-79731448D02*
X167284702Y-79915295D01*
X169165613Y-78741495D02*
X169080760Y-78826349D01*
X166436171Y-80763826D02*
X166436172Y-80763828D01*
X168034239Y-78458653D02*
X167949386Y-78543505D01*
X166860437Y-80339563D02*
X166676589Y-80155715D01*
%TO.N,/FMC_A16*%
X163000000Y-86800000D02*
X163000000Y-86830000D01*
X172400000Y-77400000D02*
X163000000Y-86800000D01*
X173750000Y-76850000D02*
X173200000Y-77400000D01*
X173200000Y-77400000D02*
X172400000Y-77400000D01*
X173750000Y-73950000D02*
X173750000Y-76850000D01*
X174310000Y-73390000D02*
X173750000Y-73950000D01*
X175225000Y-73390000D02*
X174310000Y-73390000D01*
D40*
%TO.N,GND*%
X197775000Y-70200000D02*
X198800000Y-70200000D01*
%TO.N,+3.3V*%
X196200000Y-70175000D02*
X196225000Y-70200000D01*
X196200000Y-68050000D02*
X196200000Y-70175000D01*
%TO.N,GND*%
X194200000Y-71400000D02*
X195200000Y-71400000D01*
%TO.N,+5V*%
X190650000Y-96300000D02*
X187450000Y-99500000D01*
X197775000Y-96300000D02*
X190650000Y-96300000D01*
X198300000Y-95775000D02*
X197775000Y-96300000D01*
%TO.N,+3.3V*%
X186000000Y-79800000D02*
X187800000Y-79800000D01*
X184200000Y-81600000D02*
X186000000Y-79800000D01*
%TO.N,GND*%
X197300000Y-75250000D02*
X197200000Y-75250000D01*
X167950000Y-91925000D02*
X169025000Y-91925000D01*
X196850000Y-74900000D02*
X198350000Y-74900000D01*
X189080000Y-66400000D02*
X189080000Y-65770000D01*
X174775000Y-92275000D02*
X174900000Y-92400000D01*
X172425000Y-86750000D02*
X172425000Y-85875000D01*
X168850000Y-95450000D02*
X169300000Y-95000000D01*
X193820000Y-71780000D02*
X194200000Y-71400000D01*
X195700000Y-79930000D02*
X195700000Y-80670000D01*
X187750000Y-87050000D02*
X187750000Y-88050000D01*
D39*
X188400000Y-67300000D02*
X189080000Y-66620000D01*
D40*
X173940000Y-83340000D02*
X175300000Y-84700000D01*
D39*
X189510000Y-77390000D02*
X189200000Y-77700000D01*
D40*
X182850000Y-99500000D02*
X182850000Y-100950000D01*
X185850000Y-87462500D02*
X185850000Y-87950000D01*
X180250000Y-97750000D02*
X179750000Y-97750000D01*
X194550000Y-79500000D02*
X194500000Y-79550000D01*
D39*
X190575000Y-77390000D02*
X189510000Y-77390000D01*
X193280000Y-73240000D02*
X193280000Y-72900000D01*
D40*
X200725000Y-82650000D02*
X201950000Y-82650000D01*
D39*
X172850000Y-101287500D02*
X172850000Y-101750616D01*
D40*
X185850000Y-87950000D02*
X185300000Y-88500000D01*
D39*
X192080000Y-77980000D02*
X192500000Y-77980000D01*
D40*
X192400000Y-71780000D02*
X193820000Y-71780000D01*
D39*
X188400000Y-68215000D02*
X188400000Y-67300000D01*
D40*
X168850000Y-98400000D02*
X168850000Y-95450000D01*
X194550000Y-77800000D02*
X194550000Y-79500000D01*
D39*
X189080000Y-66620000D02*
X189080000Y-66400000D01*
D40*
X195470000Y-101040000D02*
X195470000Y-99630000D01*
X196850000Y-74900000D02*
X197200000Y-75250000D01*
X173562884Y-102463500D02*
X176036500Y-102463500D01*
D39*
X189490000Y-72390000D02*
X189200000Y-72100000D01*
X172850000Y-101750616D02*
X173562884Y-102463500D01*
D40*
X189080000Y-65770000D02*
X189200000Y-65650000D01*
X188200000Y-85400000D02*
X187460000Y-85400000D01*
X187750000Y-88050000D02*
X187800000Y-88100000D01*
X183450000Y-102050000D02*
X183400000Y-102100000D01*
X175700000Y-94300000D02*
X174600000Y-94300000D01*
X179750000Y-97750000D02*
X179200000Y-97200000D01*
X173550000Y-92275000D02*
X174775000Y-92275000D01*
D39*
X188400000Y-82500000D02*
X188000000Y-82100000D01*
D40*
X198350000Y-74900000D02*
X198400000Y-74950000D01*
D39*
X190575000Y-77390000D02*
X191490000Y-77390000D01*
D40*
X175300000Y-84700000D02*
X175375000Y-84700000D01*
X195470000Y-99630000D02*
X195500000Y-99600000D01*
D39*
X192400000Y-74120000D02*
X193280000Y-73240000D01*
D40*
X184425000Y-102050000D02*
X183450000Y-102050000D01*
X173940000Y-83100000D02*
X173200000Y-83100000D01*
X173940000Y-83100000D02*
X173940000Y-83340000D01*
D39*
X190575000Y-72390000D02*
X189490000Y-72390000D01*
X188400000Y-83565000D02*
X188400000Y-82500000D01*
D40*
X194550000Y-77800000D02*
X194100000Y-78250000D01*
D39*
X174284695Y-81390000D02*
X173875057Y-81799638D01*
D40*
X182850000Y-100950000D02*
X182700000Y-101100000D01*
X169025000Y-91925000D02*
X169300000Y-92200000D01*
X200725000Y-88650000D02*
X201950000Y-88650000D01*
X193300000Y-72900000D02*
X194040000Y-72900000D01*
D39*
X191490000Y-77390000D02*
X192080000Y-77980000D01*
D40*
X172425000Y-85875000D02*
X172600000Y-85700000D01*
X196200000Y-72800000D02*
X196940000Y-72800000D01*
X176036500Y-102463500D02*
X176400000Y-102100000D01*
D39*
X175225000Y-81390000D02*
X174284695Y-81390000D01*
%TO.N,+3.3VA*%
X193900000Y-68050000D02*
X194200000Y-68350000D01*
X194200000Y-68350000D02*
X194200000Y-69850000D01*
X192400000Y-70820000D02*
X193370000Y-69850000D01*
X190575000Y-71390000D02*
X191781740Y-71390000D01*
X192351740Y-70820000D02*
X192400000Y-70820000D01*
X190575000Y-71890000D02*
X190575000Y-71390000D01*
X191781740Y-71390000D02*
X192351740Y-70820000D01*
X193370000Y-69850000D02*
X194200000Y-69850000D01*
D40*
%TO.N,+3.3V*%
X198900000Y-67350000D02*
X198200000Y-68050000D01*
X182500000Y-72700000D02*
X184100000Y-71100000D01*
X187800000Y-72100000D02*
X187800000Y-71100000D01*
D39*
X189000000Y-78780000D02*
X189610000Y-79390000D01*
X190575000Y-72890000D02*
X188590000Y-72890000D01*
D40*
X160460000Y-94450000D02*
X159159000Y-95751000D01*
D39*
X187900000Y-68215000D02*
X187900000Y-69300000D01*
X187900000Y-69300000D02*
X187800000Y-69400000D01*
D40*
X198200000Y-68050000D02*
X196200000Y-68050000D01*
D39*
X175225000Y-81890000D02*
X176410000Y-81890000D01*
D40*
X179067214Y-96200000D02*
X180250000Y-96200000D01*
X180250000Y-96200000D02*
X182150000Y-96200000D01*
D39*
X190575000Y-72890000D02*
X192310000Y-72890000D01*
X174900000Y-82215000D02*
X174900000Y-83100000D01*
D40*
X159159000Y-95751000D02*
X159159000Y-103309000D01*
X187800000Y-71100000D02*
X187800000Y-69400000D01*
X196550000Y-58000000D02*
X199600000Y-58000000D01*
D39*
X190575000Y-79390000D02*
X189610000Y-79390000D01*
X188590000Y-72890000D02*
X187800000Y-72100000D01*
X188190000Y-76890000D02*
X187800000Y-76500000D01*
X189200000Y-79800000D02*
X187800000Y-79800000D01*
X188900000Y-83565000D02*
X189160000Y-83825000D01*
D40*
X178100000Y-102773838D02*
X178100000Y-97167214D01*
X159159000Y-103309000D02*
X160460000Y-104610000D01*
X185150000Y-99500000D02*
X185150000Y-93200000D01*
X182150000Y-96200000D02*
X185150000Y-93200000D01*
X179100000Y-72700000D02*
X182500000Y-72700000D01*
X189300000Y-87050000D02*
X189300000Y-85540000D01*
D39*
X176415000Y-68215000D02*
X176900000Y-68215000D01*
D40*
X201000000Y-59400000D02*
X201000000Y-65250000D01*
D39*
X176000000Y-67800000D02*
X176415000Y-68215000D01*
X189610000Y-79390000D02*
X189200000Y-79800000D01*
D40*
X187800000Y-78800000D02*
X187800000Y-76500000D01*
X199600000Y-58000000D02*
X201000000Y-59400000D01*
X184100000Y-71100000D02*
X187800000Y-71100000D01*
X187800000Y-79800000D02*
X187800000Y-78800000D01*
X160460000Y-104610000D02*
X161761000Y-105911000D01*
X184562500Y-92612500D02*
X180050000Y-92612500D01*
D39*
X188900000Y-83565000D02*
X188900000Y-81491364D01*
X189160000Y-83825000D02*
X189160000Y-85400000D01*
D40*
X176900000Y-70500000D02*
X179100000Y-72700000D01*
X187800000Y-76500000D02*
X187800000Y-72100000D01*
X201000000Y-65250000D02*
X198900000Y-67350000D01*
D39*
X190575000Y-76890000D02*
X188190000Y-76890000D01*
D40*
X161761000Y-105911000D02*
X174962838Y-105911000D01*
D39*
X192370000Y-76890000D02*
X192500000Y-77020000D01*
X188900000Y-81491364D02*
X187800000Y-80391364D01*
X190575000Y-76890000D02*
X192370000Y-76890000D01*
X175225000Y-81890000D02*
X174900000Y-82215000D01*
X187900000Y-68215000D02*
X187900000Y-66620000D01*
X189000000Y-78750000D02*
X189000000Y-78780000D01*
X192310000Y-72890000D02*
X192320000Y-72900000D01*
D40*
X174962838Y-105911000D02*
X178100000Y-102773838D01*
X185150000Y-93200000D02*
X189300000Y-89050000D01*
D39*
X176900000Y-68215000D02*
X176900000Y-70500000D01*
D40*
X189300000Y-85540000D02*
X189160000Y-85400000D01*
X178100000Y-97167214D02*
X179067214Y-96200000D01*
X189300000Y-89050000D02*
X189300000Y-87050000D01*
D39*
X176410000Y-81890000D02*
X176700000Y-81600000D01*
D40*
X194800000Y-59750000D02*
X196550000Y-58000000D01*
D39*
X187900000Y-66620000D02*
X188120000Y-66400000D01*
X187800000Y-80391364D02*
X187800000Y-79800000D01*
D40*
X185150000Y-93200000D02*
X184562500Y-92612500D01*
%TO.N,+5V*%
X192870000Y-100570000D02*
X191800000Y-99500000D01*
X191800000Y-99500000D02*
X187450000Y-99500000D01*
X192870000Y-101040000D02*
X192870000Y-100570000D01*
X187450000Y-100575000D02*
X185975000Y-102050000D01*
X187450000Y-99500000D02*
X187450000Y-100575000D01*
D39*
%TO.N,/SWD_NRST*%
X196975000Y-82650000D02*
X196975000Y-88650000D01*
X190575000Y-75390000D02*
X192090000Y-75390000D01*
X189190000Y-75390000D02*
X188800000Y-75000000D01*
X190575000Y-75390000D02*
X189190000Y-75390000D01*
X192090000Y-75390000D02*
X192400000Y-75080000D01*
%TO.N,/HSE_IN*%
X196850000Y-79780000D02*
X196700000Y-79930000D01*
X196850000Y-77650000D02*
X196850000Y-77800000D01*
X196850000Y-77800000D02*
X196850000Y-79780000D01*
X195590000Y-76390000D02*
X196850000Y-77650000D01*
X190575000Y-76390000D02*
X195590000Y-76390000D01*
%TO.N,/HSE_OUT*%
X193560000Y-75890000D02*
X194550000Y-74900000D01*
X190575000Y-75890000D02*
X193560000Y-75890000D01*
X194550000Y-73490000D02*
X195240000Y-72800000D01*
X194550000Y-74900000D02*
X194550000Y-73490000D01*
%TO.N,/VCAP1*%
X177400000Y-68215000D02*
X177400000Y-67900000D01*
X177400000Y-69600000D02*
X177900000Y-70100000D01*
X177400000Y-68215000D02*
X177400000Y-69600000D01*
%TO.N,/VCAP2*%
X173375000Y-84700000D02*
X173825000Y-84700000D01*
X172499000Y-81901000D02*
X172499000Y-83824000D01*
X173510000Y-80890000D02*
X172499000Y-81901000D01*
X175225000Y-80890000D02*
X173510000Y-80890000D01*
X172499000Y-83824000D02*
X173375000Y-84700000D01*
D40*
%TO.N,Net-(D1-K)*%
X177637500Y-94187500D02*
X177525000Y-94300000D01*
X180050000Y-94187500D02*
X177637500Y-94187500D01*
D39*
%TO.N,/USB_OTG_FS_VBUS*%
X168200000Y-99900000D02*
X166050000Y-97750000D01*
X166050000Y-91925000D02*
X168671024Y-89303976D01*
X169900000Y-99900000D02*
X168200000Y-99900000D01*
X170250000Y-100250000D02*
X169900000Y-99900000D01*
X172710000Y-78390000D02*
X175225000Y-78390000D01*
X169750000Y-88225000D02*
X169750000Y-81350000D01*
X166050000Y-97750000D02*
X166050000Y-91925000D01*
X170250000Y-101287500D02*
X170250000Y-100250000D01*
X168671024Y-89303976D02*
X168691272Y-89283728D01*
X168691272Y-89283728D02*
X169750000Y-88225000D01*
X169750000Y-81350000D02*
X172710000Y-78390000D01*
%TO.N,/USB_OTG_FS_D-*%
X170975000Y-100199999D02*
X170975000Y-81371446D01*
X170975000Y-81371446D02*
X172956446Y-79390000D01*
X170900000Y-101287500D02*
X170900000Y-100274999D01*
X172956446Y-79390000D02*
X175225000Y-79390000D01*
X170900000Y-100274999D02*
X170975000Y-100199999D01*
%TO.N,/USB_OTG_FS_D+*%
X171550000Y-101287500D02*
X171550000Y-100274999D01*
X171550000Y-100274999D02*
X171475000Y-100199999D01*
X171475000Y-81578554D02*
X173163554Y-79890000D01*
X173163554Y-79890000D02*
X175225000Y-79890000D01*
X171475000Y-100199999D02*
X171475000Y-81578554D01*
%TO.N,Net-(D5-A)*%
X175750000Y-86750000D02*
X174000000Y-86750000D01*
%TO.N,/USART2_RX*%
X189885000Y-68215000D02*
X188900000Y-68215000D01*
X190800000Y-67300000D02*
X189885000Y-68215000D01*
%TO.N,/USART2_TX*%
X193000000Y-65812500D02*
X193000000Y-66500000D01*
X190575000Y-69330033D02*
X190575000Y-69890000D01*
X193000000Y-66500000D02*
X192500000Y-67000000D01*
X192500000Y-67000000D02*
X192500000Y-67405033D01*
X192500000Y-67405033D02*
X190575000Y-69330033D01*
%TO.N,/SWDIO*%
X175225000Y-80390000D02*
X176390000Y-80390000D01*
%TO.N,/FMC_NOE*%
X181400000Y-83565000D02*
X181400000Y-84700000D01*
X181400000Y-84700000D02*
X180400000Y-85700000D01*
X180400000Y-85700000D02*
X176700000Y-89400000D01*
X176700000Y-89400000D02*
X175500000Y-89400000D01*
%TO.N,/FMC_D13*%
X170750000Y-74100000D02*
X170750000Y-75000000D01*
X172960000Y-71890000D02*
X170750000Y-74100000D01*
X175225000Y-71890000D02*
X172960000Y-71890000D01*
%TO.N,/FMC_D9*%
X166546871Y-73603129D02*
X166652938Y-73709196D01*
X167925735Y-72436400D02*
X167819669Y-72330334D01*
X166122605Y-74027395D02*
X166016538Y-73921328D01*
X167501468Y-72224266D02*
X167289335Y-72436398D01*
X171100000Y-66800000D02*
X171100000Y-69050000D01*
X166440804Y-73497061D02*
X166546870Y-73603127D01*
X166122607Y-74027396D02*
X166122605Y-74027395D01*
X166546870Y-73603127D02*
X166546871Y-73603129D01*
X165274076Y-74875927D02*
X165274074Y-74875926D01*
X165804406Y-73921328D02*
X165592273Y-74133460D01*
X167819669Y-72330334D02*
X167819667Y-72330333D01*
X171100000Y-69050000D02*
X168350000Y-71800000D01*
X167395402Y-72754598D02*
X167501469Y-72860665D01*
X167077204Y-73284931D02*
X166971138Y-73178865D01*
X165592273Y-74345592D02*
X165698339Y-74451658D01*
X173200000Y-64700000D02*
X171100000Y-66800000D01*
X165698339Y-74451658D02*
X165698340Y-74451660D01*
X166971136Y-73178864D02*
X166865069Y-73072797D01*
X164391792Y-75758208D02*
X163480000Y-76670000D01*
X164955875Y-74769859D02*
X164743742Y-74981991D01*
X165804407Y-74769859D02*
X165592274Y-74981993D01*
X165274074Y-74875926D02*
X165168007Y-74769859D01*
X168350000Y-72224266D02*
X168137867Y-72436400D01*
X166228673Y-74133462D02*
X166122607Y-74027396D01*
X166652938Y-73921328D02*
X166440805Y-74133462D01*
X164531611Y-75618388D02*
X164391792Y-75758208D01*
X180400000Y-68215000D02*
X180400000Y-65700000D01*
X167289335Y-72648530D02*
X167395401Y-72754596D01*
X167501469Y-73072797D02*
X167289336Y-73284931D01*
X167395401Y-72754596D02*
X167395402Y-72754598D01*
X164743742Y-75406255D02*
X164531611Y-75618388D01*
X167819667Y-72330333D02*
X167713600Y-72224266D01*
X163480000Y-76670000D02*
X163000000Y-76670000D01*
X166652937Y-73072797D02*
X166440804Y-73284929D01*
X166971138Y-73178865D02*
X166971136Y-73178864D01*
X165380142Y-74981993D02*
X165274076Y-74875927D01*
X179400000Y-64700000D02*
X173200000Y-64700000D01*
X165698340Y-74451660D02*
X165804407Y-74557727D01*
X180400000Y-65700000D02*
X179400000Y-64700000D01*
X166652938Y-73709196D02*
G75*
G02*
X166652976Y-73921366I-106038J-106104D01*
G01*
X168137867Y-72436400D02*
G75*
G02*
X167925735Y-72436400I-106066J106066D01*
G01*
X166865069Y-73072797D02*
G75*
G03*
X166652937Y-73072797I-106066J-106066D01*
G01*
X164743742Y-75194123D02*
G75*
G02*
X164743753Y-75406266I-106042J-106077D01*
G01*
X166440804Y-73284929D02*
G75*
G03*
X166440799Y-73497066I106096J-106071D01*
G01*
X168350000Y-71800000D02*
G75*
G03*
X168349966Y-72012166I106100J-106100D01*
G01*
X164743742Y-74981991D02*
G75*
G03*
X164743699Y-75194166I106058J-106109D01*
G01*
X165168007Y-74769859D02*
G75*
G03*
X164955875Y-74769859I-106066J-106066D01*
G01*
X166440805Y-74133462D02*
G75*
G02*
X166228673Y-74133462I-106066J106066D01*
G01*
X165804407Y-74557727D02*
G75*
G02*
X165804414Y-74769866I-106107J-106073D01*
G01*
X165592273Y-74133460D02*
G75*
G03*
X165592299Y-74345566I106027J-106040D01*
G01*
X167289336Y-73284931D02*
G75*
G02*
X167077204Y-73284931I-106066J106066D01*
G01*
X167289335Y-72436398D02*
G75*
G03*
X167289299Y-72648566I106065J-106102D01*
G01*
X166016538Y-73921328D02*
G75*
G03*
X165804406Y-73921328I-106066J-106066D01*
G01*
X167713600Y-72224266D02*
G75*
G03*
X167501468Y-72224266I-106066J-106066D01*
G01*
X168349999Y-72012134D02*
G75*
G02*
X168349999Y-72224266I-106099J-106066D01*
G01*
X167501469Y-72860665D02*
G75*
G02*
X167501438Y-73072766I-106069J-106035D01*
G01*
X165592274Y-74981993D02*
G75*
G02*
X165380142Y-74981993I-106066J106066D01*
G01*
%TO.N,/FMC_D6*%
X168850000Y-66250000D02*
X168850000Y-67600000D01*
X180500000Y-62800000D02*
X172300000Y-62800000D01*
X181900000Y-68215000D02*
X181900000Y-64200000D01*
X168850000Y-67600000D02*
X163600000Y-72850000D01*
X181900000Y-64200000D02*
X180500000Y-62800000D01*
X163600000Y-72850000D02*
X161740000Y-72850000D01*
X161740000Y-72850000D02*
X160460000Y-74130000D01*
X172300000Y-62800000D02*
X168850000Y-66250000D01*
%TO.N,/TP_SDI*%
X190575000Y-79890000D02*
X192390000Y-79890000D01*
%TO.N,/FMC_D8*%
X170300000Y-68528471D02*
X163478471Y-75350000D01*
X180900000Y-68215000D02*
X180900000Y-65250000D01*
X170300000Y-66600000D02*
X170300000Y-68528471D01*
X172850000Y-64050000D02*
X170300000Y-66600000D01*
X161780000Y-75350000D02*
X160460000Y-76670000D01*
X179700000Y-64050000D02*
X172850000Y-64050000D01*
X163478471Y-75350000D02*
X161780000Y-75350000D01*
X180900000Y-65250000D02*
X179700000Y-64050000D01*
%TO.N,/TP_IRQ*%
X184400000Y-83565000D02*
X184400000Y-88900000D01*
X184400000Y-88900000D02*
X184200000Y-89100000D01*
%TO.N,/FMC_NE1*%
X182900000Y-83565000D02*
X182900000Y-87500000D01*
X182900000Y-87500000D02*
X182300000Y-88100000D01*
%TO.N,/FMC_D7*%
X166418014Y-71481983D02*
X166205884Y-71694115D01*
X165781618Y-71694116D02*
X165569485Y-71906248D01*
X180050000Y-63450000D02*
X172550000Y-63450000D01*
X168327205Y-69148529D02*
X168115072Y-69360661D01*
X168751471Y-69148528D02*
X168751471Y-69148529D01*
X164720956Y-73179041D02*
X164508826Y-73391173D01*
X165569485Y-72330512D02*
X165357355Y-72542644D01*
X166205884Y-71694115D02*
X166205884Y-71694116D01*
X164508826Y-73391173D02*
X164086813Y-73813187D01*
X163770000Y-74130000D02*
X163000000Y-74130000D01*
X172550000Y-63450000D02*
X169600000Y-66400000D01*
X167902942Y-69997057D02*
X167902942Y-69997058D01*
X181400000Y-64800000D02*
X180050000Y-63450000D01*
X169600000Y-66400000D02*
X169600000Y-68300000D01*
X181400000Y-68215000D02*
X181400000Y-64800000D01*
X167478676Y-69997058D02*
X167266543Y-70209190D01*
X164933089Y-72542645D02*
X164720956Y-72754777D01*
X167054413Y-70845586D02*
X167054413Y-70845587D01*
X166630147Y-70845587D02*
X166418014Y-71057719D01*
X169175734Y-68300000D02*
X168963601Y-68512132D01*
X168115072Y-69784925D02*
X167902942Y-69997057D01*
X165357355Y-72542644D02*
X165357355Y-72542645D01*
X168963601Y-68936396D02*
X168751471Y-69148528D01*
X164086813Y-73813187D02*
X163770000Y-74130000D01*
X167266543Y-70633454D02*
X167054413Y-70845586D01*
X167266543Y-70421322D02*
G75*
G02*
X167266555Y-70633466I-106043J-106078D01*
G01*
X165569485Y-71906248D02*
G75*
G03*
X165569499Y-72118366I106115J-106052D01*
G01*
X168539338Y-69148529D02*
G75*
G03*
X168327206Y-69148529I-106066J-106064D01*
G01*
X168963601Y-68724264D02*
G75*
G02*
X168963571Y-68936366I-106101J-106036D01*
G01*
X166418014Y-71057719D02*
G75*
G03*
X166417999Y-71269866I106086J-106081D01*
G01*
X164720956Y-72754777D02*
G75*
G03*
X164720999Y-72966866I106044J-106023D01*
G01*
X167054413Y-70845587D02*
G75*
G02*
X166842280Y-70845588I-106067J106067D01*
G01*
X167690809Y-69997058D02*
G75*
G03*
X167478677Y-69997058I-106066J-106064D01*
G01*
X166205884Y-71694116D02*
G75*
G02*
X165993751Y-71694116I-106066J106067D01*
G01*
X165145222Y-72542645D02*
G75*
G03*
X164933090Y-72542645I-106066J-106064D01*
G01*
X167266543Y-70209190D02*
G75*
G03*
X167266499Y-70421366I106057J-106110D01*
G01*
X169600000Y-68300000D02*
G75*
G02*
X169387867Y-68300000I-106066J106067D01*
G01*
X167902942Y-69997058D02*
G75*
G02*
X167690809Y-69997058I-106066J106067D01*
G01*
X164720956Y-72966909D02*
G75*
G02*
X164720981Y-73179066I-106056J-106091D01*
G01*
X168115072Y-69360661D02*
G75*
G03*
X168115099Y-69572766I106028J-106039D01*
G01*
X168963601Y-68512132D02*
G75*
G03*
X168963599Y-68724266I106099J-106068D01*
G01*
X168751471Y-69148529D02*
G75*
G02*
X168539338Y-69148529I-106066J106067D01*
G01*
X165993751Y-71694116D02*
G75*
G03*
X165781619Y-71694116I-106066J-106064D01*
G01*
X168115072Y-69572793D02*
G75*
G02*
X168115113Y-69784966I-106072J-106107D01*
G01*
X169387867Y-68300000D02*
G75*
G03*
X169175735Y-68300000I-106066J-106064D01*
G01*
X166418014Y-71269851D02*
G75*
G02*
X166417997Y-71481966I-106114J-106049D01*
G01*
X165569485Y-72118380D02*
G75*
G02*
X165569439Y-72330466I-106085J-106020D01*
G01*
X166842280Y-70845587D02*
G75*
G03*
X166630148Y-70845587I-106066J-106064D01*
G01*
X165357355Y-72542645D02*
G75*
G02*
X165145222Y-72542645I-106066J106067D01*
G01*
%TO.N,/FMC_D15*%
X173960000Y-72890000D02*
X175225000Y-72890000D01*
X172900000Y-73950000D02*
X173960000Y-72890000D01*
X172900000Y-75000000D02*
X172900000Y-73950000D01*
%TO.N,/TP_SCK*%
X190575000Y-89525000D02*
X189650000Y-90450000D01*
X190575000Y-81890000D02*
X190575000Y-89525000D01*
%TO.N,/TP_CS*%
X189310000Y-80890000D02*
X189300000Y-80900000D01*
X190575000Y-80890000D02*
X189310000Y-80890000D01*
%TO.N,/FMC_D5*%
X163785000Y-71590000D02*
X163000000Y-71590000D01*
X180900000Y-62100000D02*
X172150000Y-62100000D01*
X172150000Y-62100000D02*
X168050000Y-66200000D01*
X168050000Y-67325000D02*
X163785000Y-71590000D01*
X168050000Y-66200000D02*
X168050000Y-67325000D01*
X182400000Y-68215000D02*
X182400000Y-63600000D01*
X182400000Y-63600000D02*
X180900000Y-62100000D01*
%TO.N,/BL_PWM*%
X183550000Y-85050000D02*
X183550000Y-88300000D01*
X183900000Y-83565000D02*
X183900000Y-84700000D01*
X183900000Y-84700000D02*
X183550000Y-85050000D01*
%TO.N,/FMC_D1*%
X175225000Y-75390000D02*
X177310000Y-75390000D01*
%TO.N,/FMC_D4*%
X172000000Y-61400000D02*
X167200000Y-66200000D01*
X161750000Y-70300000D02*
X160460000Y-71590000D01*
X181200000Y-61400000D02*
X172000000Y-61400000D01*
X182900000Y-63100000D02*
X181200000Y-61400000D01*
X167200000Y-67050000D02*
X163950000Y-70300000D01*
X163950000Y-70300000D02*
X161750000Y-70300000D01*
X167200000Y-66200000D02*
X167200000Y-67050000D01*
X182900000Y-68215000D02*
X182900000Y-63100000D01*
%TO.N,/FMC_D11*%
X166848340Y-75851660D02*
X166954407Y-75957727D01*
X165893742Y-76594123D02*
X165999808Y-76700189D01*
X169500000Y-73624266D02*
X169287867Y-73836400D01*
X172650000Y-70050000D02*
X169500000Y-73200000D01*
X168651468Y-73624266D02*
X168439335Y-73836398D01*
X166954407Y-76169859D02*
X166742274Y-76381993D01*
X166424076Y-76275927D02*
X166424074Y-76275926D01*
X178850000Y-66100000D02*
X174000000Y-66100000D01*
X166742273Y-75745592D02*
X166848339Y-75851658D01*
X167696871Y-75003129D02*
X167802938Y-75109196D01*
X168651469Y-74472797D02*
X168439336Y-74684931D01*
X167378673Y-75533462D02*
X167272607Y-75427396D01*
X168121138Y-74578865D02*
X168121136Y-74578864D01*
X167696870Y-75003127D02*
X167696871Y-75003129D01*
X167272605Y-75427395D02*
X167166538Y-75321328D01*
X168545402Y-74154598D02*
X168651469Y-74260665D01*
X179400000Y-68215000D02*
X179400000Y-66650000D01*
X168227204Y-74684931D02*
X168121138Y-74578865D01*
X165575545Y-77124458D02*
X165575543Y-77124457D01*
X165045211Y-77654786D02*
X164833080Y-77866919D01*
X167272607Y-75427396D02*
X167272605Y-75427395D01*
X163490000Y-79210000D02*
X163000000Y-79210000D01*
X166105876Y-77018390D02*
X165893743Y-77230524D01*
X167802937Y-74472797D02*
X167590804Y-74684929D01*
X165257344Y-77018390D02*
X165045211Y-77230522D01*
X169075735Y-73836400D02*
X168969669Y-73730334D01*
X165999808Y-76700189D02*
X165999809Y-76700191D01*
X168969669Y-73730334D02*
X168969667Y-73730333D01*
X166848339Y-75851658D02*
X166848340Y-75851660D01*
X164502565Y-78197435D02*
X163490000Y-79210000D01*
X166530142Y-76381993D02*
X166424076Y-76275927D01*
X166954406Y-75321328D02*
X166742273Y-75533460D01*
X168121136Y-74578864D02*
X168015069Y-74472797D01*
X168439335Y-74048530D02*
X168545401Y-74154596D01*
X165681611Y-77230524D02*
X165575545Y-77124458D01*
X168545401Y-74154596D02*
X168545402Y-74154598D01*
X168969667Y-73730333D02*
X168863600Y-73624266D01*
X165999809Y-76700191D02*
X166105876Y-76806258D01*
X174000000Y-66100000D02*
X172650000Y-67450000D01*
X166105875Y-76169859D02*
X165893742Y-76381991D01*
X165575543Y-77124457D02*
X165469476Y-77018390D01*
X179400000Y-66650000D02*
X178850000Y-66100000D01*
X167802938Y-75321328D02*
X167590805Y-75533462D01*
X166424074Y-76275926D02*
X166318007Y-76169859D01*
X167590804Y-74897061D02*
X167696870Y-75003127D01*
X172650000Y-67450000D02*
X172650000Y-70050000D01*
X164833080Y-77866919D02*
X164502565Y-78197435D01*
X169287867Y-73836400D02*
G75*
G02*
X169075735Y-73836400I-106066J106066D01*
G01*
X167590805Y-75533462D02*
G75*
G02*
X167378673Y-75533462I-106066J106066D01*
G01*
X169499999Y-73412134D02*
G75*
G02*
X169499999Y-73624266I-106099J-106066D01*
G01*
X168015069Y-74472797D02*
G75*
G03*
X167802937Y-74472797I-106066J-106066D01*
G01*
X166954407Y-75957727D02*
G75*
G02*
X166954414Y-76169866I-106107J-106073D01*
G01*
X165893743Y-77230524D02*
G75*
G02*
X165681611Y-77230524I-106066J106066D01*
G01*
X168651469Y-74260665D02*
G75*
G02*
X168651438Y-74472766I-106069J-106035D01*
G01*
X168439336Y-74684931D02*
G75*
G02*
X168227204Y-74684931I-106066J106066D01*
G01*
X165045211Y-77442654D02*
G75*
G02*
X165045191Y-77654766I-106111J-106046D01*
G01*
X165045211Y-77230522D02*
G75*
G03*
X165045199Y-77442666I106089J-106078D01*
G01*
X166742273Y-75533460D02*
G75*
G03*
X166742299Y-75745566I106027J-106040D01*
G01*
X168863600Y-73624266D02*
G75*
G03*
X168651468Y-73624266I-106066J-106066D01*
G01*
X168439335Y-73836398D02*
G75*
G03*
X168439299Y-74048566I106065J-106102D01*
G01*
X167590804Y-74684929D02*
G75*
G03*
X167590799Y-74897066I106096J-106071D01*
G01*
X166318007Y-76169859D02*
G75*
G03*
X166105875Y-76169859I-106066J-106066D01*
G01*
X166742274Y-76381993D02*
G75*
G02*
X166530142Y-76381993I-106066J106066D01*
G01*
X165469476Y-77018390D02*
G75*
G03*
X165257344Y-77018390I-106066J-106066D01*
G01*
X166105876Y-76806258D02*
G75*
G02*
X166105852Y-77018366I-106076J-106042D01*
G01*
X169500000Y-73200000D02*
G75*
G03*
X169499966Y-73412166I106100J-106100D01*
G01*
X167802938Y-75109196D02*
G75*
G02*
X167802976Y-75321366I-106038J-106104D01*
G01*
X167166538Y-75321328D02*
G75*
G03*
X166954406Y-75321328I-106066J-106066D01*
G01*
X165893742Y-76381991D02*
G75*
G03*
X165893699Y-76594166I106058J-106109D01*
G01*
%TO.N,/FMC_D10*%
X171251529Y-70198474D02*
X171251527Y-70198473D01*
X171251527Y-70198473D02*
X171145460Y-70092406D01*
X169931835Y-71518165D02*
X169785939Y-71664061D01*
X179900000Y-66150000D02*
X179150000Y-65400000D01*
X170933328Y-70092406D02*
X170721195Y-70304538D01*
X170721195Y-70516670D02*
X170827261Y-70622736D01*
X170933329Y-70940937D02*
X170721196Y-71153071D01*
X173650000Y-65400000D02*
X171950000Y-67100000D01*
X167672225Y-73777773D02*
X169401237Y-72048763D01*
X179150000Y-65400000D02*
X173650000Y-65400000D01*
X166752987Y-74697013D02*
X167672225Y-73777773D01*
X171950000Y-67100000D02*
X171950000Y-69500000D01*
X161720000Y-77950000D02*
X163500000Y-77950000D01*
X170084799Y-71365202D02*
X169938584Y-71511416D01*
X171950000Y-69500000D02*
X171781860Y-69668140D01*
X169775815Y-71674185D02*
X169785939Y-71664061D01*
X179900000Y-68215000D02*
X179900000Y-66150000D01*
X160460000Y-79210000D02*
X161720000Y-77950000D01*
X163500000Y-77950000D02*
X166752987Y-74697013D01*
X171357595Y-70304540D02*
X171251529Y-70198474D01*
X170296932Y-71153071D02*
X170084799Y-71365202D01*
X170827261Y-70622736D02*
X170827262Y-70622738D01*
X171781860Y-70092406D02*
X171569727Y-70304540D01*
X169401237Y-72048763D02*
X169775815Y-71674185D01*
X170827262Y-70622738D02*
X170933329Y-70728805D01*
X169938584Y-71511416D02*
X169931835Y-71518165D01*
X171145460Y-70092406D02*
G75*
G03*
X170933328Y-70092406I-106066J-106066D01*
G01*
X170721195Y-70304538D02*
G75*
G03*
X170721199Y-70516666I106105J-106062D01*
G01*
X171569727Y-70304540D02*
G75*
G02*
X171357595Y-70304540I-106066J106066D01*
G01*
X170721196Y-71153071D02*
G75*
G02*
X170509064Y-71153071I-106066J106066D01*
G01*
X171781859Y-69880274D02*
G75*
G02*
X171781820Y-70092365I-106059J-106026D01*
G01*
X171781860Y-69668140D02*
G75*
G03*
X171781866Y-69880266I106040J-106060D01*
G01*
X170509064Y-71153071D02*
G75*
G03*
X170296932Y-71153071I-106066J-106066D01*
G01*
X170933329Y-70728805D02*
G75*
G02*
X170933358Y-70940966I-106029J-106095D01*
G01*
%TO.N,/FMC_NWE*%
X181900000Y-83565000D02*
X181900000Y-85800000D01*
X181900000Y-85800000D02*
X181800000Y-85900000D01*
%TO.N,/FMC_D0*%
X177000000Y-74500000D02*
X177000000Y-72100000D01*
X176610000Y-74890000D02*
X177000000Y-74500000D01*
X175225000Y-74890000D02*
X176610000Y-74890000D01*
%TO.N,/BOOT0*%
X185900000Y-85587500D02*
X185850000Y-85637500D01*
X185900000Y-83565000D02*
X185900000Y-85587500D01*
%TO.N,/SWDO*%
X183400000Y-73500000D02*
X184600000Y-72300000D01*
X183400000Y-83565000D02*
X183400000Y-73500000D01*
X183400000Y-83565000D02*
X183400000Y-83600000D01*
%TO.N,/SWDCLK*%
X176900000Y-83565000D02*
X176900000Y-82600000D01*
X176900000Y-82600000D02*
X177900000Y-81600000D01*
%TO.N,Net-(J1-Pin_3)*%
X198900000Y-62270000D02*
X192680000Y-62270000D01*
X190800000Y-64150000D02*
X190800000Y-65475000D01*
X192680000Y-62270000D02*
X190800000Y-64150000D01*
%TO.N,Net-(J1-Pin_2)*%
X198900000Y-64810000D02*
X198077500Y-63987500D01*
X198077500Y-63987500D02*
X193000000Y-63987500D01*
%TO.N,/DEBUG_LED*%
X177900000Y-84500000D02*
X177575000Y-84825000D01*
X177900000Y-83565000D02*
X177900000Y-84500000D01*
X177575000Y-84825000D02*
X177575000Y-86750000D01*
%TO.N,/FMC_D3*%
X179900000Y-83565000D02*
X179900000Y-82650000D01*
%TO.N,/FMC_D2*%
X179400000Y-83565000D02*
X179400000Y-82350000D01*
%TD*%
M02*
