%TF.GenerationSoftware,KiCad,Pcbnew,9.0.0*%
%TF.CreationDate,2025-03-28T00:35:08-07:00*%
%TF.ProjectId,stm32f429vit6_v1,73746d33-3266-4343-9239-766974365f76,rev?*%
%TF.SameCoordinates,Original*%
%TF.FileFunction,Soldermask,Top*%
%TF.FilePolarity,Negative*%
%FSLAX46Y46*%
G04 Gerber Fmt 4.6, Leading zero omitted, Abs format (unit mm)*
G04 Created by KiCad (PCBNEW 9.0.0) date 2025-03-28 00:35:08*
%MOMM*%
%LPD*%
G01*
G04 APERTURE LIST*
G04 Aperture macros list*
%AMRoundRect*
0 Rectangle with rounded corners*
0 $1 Rounding radius*
0 $2 $3 $4 $5 $6 $7 $8 $9 X,Y pos of 4 corners*
0 Add a 4 corners polygon primitive as box body*
4,1,4,$2,$3,$4,$5,$6,$7,$8,$9,$2,$3,0*
0 Add four circle primitives for the rounded corners*
1,1,$1+$1,$2,$3*
1,1,$1+$1,$4,$5*
1,1,$1+$1,$6,$7*
1,1,$1+$1,$8,$9*
0 Add four rect primitives between the rounded corners*
20,1,$1+$1,$2,$3,$4,$5,0*
20,1,$1+$1,$4,$5,$6,$7,0*
20,1,$1+$1,$6,$7,$8,$9,0*
20,1,$1+$1,$8,$9,$2,$3,0*%
G04 Aperture macros list end*
%ADD10R,1.700000X1.700000*%
%ADD11O,1.700000X1.700000*%
%ADD12C,2.200000*%
%ADD13RoundRect,0.150000X-0.150000X0.587500X-0.150000X-0.587500X0.150000X-0.587500X0.150000X0.587500X0*%
%ADD14RoundRect,0.150000X0.150000X-0.587500X0.150000X0.587500X-0.150000X0.587500X-0.150000X-0.587500X0*%
%ADD15RoundRect,0.218750X-0.218750X-0.256250X0.218750X-0.256250X0.218750X0.256250X-0.218750X0.256250X0*%
%ADD16RoundRect,0.140000X-0.170000X0.140000X-0.170000X-0.140000X0.170000X-0.140000X0.170000X0.140000X0*%
%ADD17RoundRect,0.225000X-0.250000X0.225000X-0.250000X-0.225000X0.250000X-0.225000X0.250000X0.225000X0*%
%ADD18R,0.750000X1.000000*%
%ADD19RoundRect,0.250000X0.450000X-0.262500X0.450000X0.262500X-0.450000X0.262500X-0.450000X-0.262500X0*%
%ADD20R,0.400000X1.350000*%
%ADD21O,1.200000X1.900000*%
%ADD22R,1.200000X1.900000*%
%ADD23C,1.450000*%
%ADD24R,1.500000X1.900000*%
%ADD25RoundRect,0.140000X0.140000X0.170000X-0.140000X0.170000X-0.140000X-0.170000X0.140000X-0.170000X0*%
%ADD26RoundRect,0.250000X-0.262500X-0.450000X0.262500X-0.450000X0.262500X0.450000X-0.262500X0.450000X0*%
%ADD27R,1.800000X2.100000*%
%ADD28RoundRect,0.225000X0.225000X0.250000X-0.225000X0.250000X-0.225000X-0.250000X0.225000X-0.250000X0*%
%ADD29RoundRect,0.218750X0.256250X-0.218750X0.256250X0.218750X-0.256250X0.218750X-0.256250X-0.218750X0*%
%ADD30RoundRect,0.140000X-0.140000X-0.170000X0.140000X-0.170000X0.140000X0.170000X-0.140000X0.170000X0*%
%ADD31RoundRect,0.225000X-0.225000X-0.250000X0.225000X-0.250000X0.225000X0.250000X-0.225000X0.250000X0*%
%ADD32RoundRect,0.375000X0.375000X-0.625000X0.375000X0.625000X-0.375000X0.625000X-0.375000X-0.625000X0*%
%ADD33RoundRect,0.500000X1.400000X-0.500000X1.400000X0.500000X-1.400000X0.500000X-1.400000X-0.500000X0*%
%ADD34RoundRect,0.250000X-0.275000X-0.350000X0.275000X-0.350000X0.275000X0.350000X-0.275000X0.350000X0*%
%ADD35RoundRect,0.250000X0.262500X0.450000X-0.262500X0.450000X-0.262500X-0.450000X0.262500X-0.450000X0*%
%ADD36RoundRect,0.075000X0.725000X0.075000X-0.725000X0.075000X-0.725000X-0.075000X0.725000X-0.075000X0*%
%ADD37RoundRect,0.075000X0.075000X0.725000X-0.075000X0.725000X-0.075000X-0.725000X0.075000X-0.725000X0*%
G04 APERTURE END LIST*
D10*
%TO.C,J6*%
X163000000Y-104610000D03*
D11*
X160460000Y-104610000D03*
X163000000Y-102070000D03*
X160460000Y-102070000D03*
X163000000Y-99530000D03*
X160460000Y-99530000D03*
X163000000Y-96990000D03*
X160460000Y-96990000D03*
X163000000Y-94450000D03*
X160460000Y-94450000D03*
X163000000Y-91910000D03*
X160460000Y-91910000D03*
X163000000Y-89370000D03*
X160460000Y-89370000D03*
X163000000Y-86830000D03*
X160460000Y-86830000D03*
X163000000Y-84290000D03*
X160460000Y-84290000D03*
X163000000Y-81750000D03*
X160460000Y-81750000D03*
X163000000Y-79210000D03*
X160460000Y-79210000D03*
X163000000Y-76670000D03*
X160460000Y-76670000D03*
X163000000Y-74130000D03*
X160460000Y-74130000D03*
X163000000Y-71590000D03*
X160460000Y-71590000D03*
X163000000Y-69050000D03*
X160460000Y-69050000D03*
X163000000Y-66510000D03*
X160460000Y-66510000D03*
X163000000Y-63970000D03*
X160460000Y-63970000D03*
%TD*%
D12*
%TO.C,H4*%
X156000000Y-104000000D03*
%TD*%
%TO.C,H3*%
X156000000Y-55000000D03*
%TD*%
%TO.C,H2*%
X202000000Y-104000000D03*
%TD*%
%TO.C,H1*%
X202000000Y-55000000D03*
%TD*%
D13*
%TO.C,D4*%
X172600000Y-94150000D03*
X171650000Y-92275000D03*
X173550000Y-92275000D03*
%TD*%
D14*
%TO.C,D3*%
X169800000Y-96525000D03*
X170750000Y-98400000D03*
X168850000Y-98400000D03*
%TD*%
D13*
%TO.C,D2*%
X167000000Y-93800000D03*
X166050000Y-91925000D03*
X167950000Y-91925000D03*
%TD*%
D15*
%TO.C,D5*%
X174000000Y-86750000D03*
X172425000Y-86750000D03*
%TD*%
D16*
%TO.C,C9*%
X192500000Y-77020000D03*
X192500000Y-77980000D03*
%TD*%
D17*
%TO.C,C13*%
X180250000Y-96200000D03*
X180250000Y-97750000D03*
%TD*%
D18*
%TO.C,SW1*%
X196975000Y-88650000D03*
X196975000Y-82650000D03*
X200725000Y-88650000D03*
X200725000Y-82650000D03*
%TD*%
D19*
%TO.C,R3*%
X193000000Y-65812500D03*
X193000000Y-63987500D03*
%TD*%
D20*
%TO.C,J2*%
X170250000Y-101287500D03*
X170900000Y-101287500D03*
X171550000Y-101287500D03*
X172200000Y-101287500D03*
X172850000Y-101287500D03*
D21*
X168050000Y-103987500D03*
D22*
X168650000Y-103987500D03*
D23*
X169050000Y-101287500D03*
D24*
X170550000Y-103987500D03*
X172550000Y-103987500D03*
D23*
X174050000Y-101287500D03*
D22*
X174450000Y-103987500D03*
D21*
X175050000Y-103987500D03*
%TD*%
D25*
%TO.C,C15*%
X196700000Y-79930000D03*
X195740000Y-79930000D03*
%TD*%
D19*
%TO.C,R2*%
X185850000Y-87462500D03*
X185850000Y-85637500D03*
%TD*%
D26*
%TO.C,R5*%
X175750000Y-86750000D03*
X177575000Y-86750000D03*
%TD*%
D27*
%TO.C,Y1*%
X196850000Y-77800000D03*
X196850000Y-74900000D03*
X194550000Y-74900000D03*
X194550000Y-77800000D03*
%TD*%
D17*
%TO.C,C2*%
X194200000Y-69850000D03*
X194200000Y-71400000D03*
%TD*%
D28*
%TO.C,C12*%
X185975000Y-102050000D03*
X184425000Y-102050000D03*
%TD*%
D29*
%TO.C,D1*%
X180050000Y-94187500D03*
X180050000Y-92612500D03*
%TD*%
D16*
%TO.C,C14*%
X192400000Y-74120000D03*
X192400000Y-75080000D03*
%TD*%
D30*
%TO.C,C16*%
X195240000Y-72800000D03*
X196200000Y-72800000D03*
%TD*%
D31*
%TO.C,C18*%
X173825000Y-84700000D03*
X175375000Y-84700000D03*
%TD*%
D20*
%TO.C,J4*%
X192870000Y-101040000D03*
X193520000Y-101040000D03*
X194170000Y-101040000D03*
X194820000Y-101040000D03*
X195470000Y-101040000D03*
D21*
X190670000Y-103740000D03*
D22*
X191270000Y-103740000D03*
D23*
X191670000Y-101040000D03*
D24*
X193170000Y-103740000D03*
X195170000Y-103740000D03*
D23*
X196670000Y-101040000D03*
D22*
X197070000Y-103740000D03*
D21*
X197670000Y-103740000D03*
%TD*%
D32*
%TO.C,U1*%
X182850000Y-99500000D03*
X185150000Y-99500000D03*
D33*
X185150000Y-93200000D03*
D32*
X187450000Y-99500000D03*
%TD*%
D30*
%TO.C,C4*%
X188120000Y-66400000D03*
X189080000Y-66400000D03*
%TD*%
D16*
%TO.C,C1*%
X192400000Y-70820000D03*
X192400000Y-71780000D03*
%TD*%
D10*
%TO.C,J5*%
X198300000Y-95775000D03*
D11*
X198300000Y-93235000D03*
%TD*%
D25*
%TO.C,C7*%
X189160000Y-85400000D03*
X188200000Y-85400000D03*
%TD*%
D10*
%TO.C,J3*%
X194800000Y-59750000D03*
D11*
X192260000Y-59750000D03*
X189720000Y-59750000D03*
X187180000Y-59750000D03*
X184640000Y-59750000D03*
X182100000Y-59750000D03*
%TD*%
D10*
%TO.C,J1*%
X198900000Y-67350000D03*
D11*
X198900000Y-64810000D03*
X198900000Y-62270000D03*
X198900000Y-59730000D03*
%TD*%
D25*
%TO.C,C6*%
X174900000Y-83100000D03*
X173940000Y-83100000D03*
%TD*%
D30*
%TO.C,C10*%
X192320000Y-72900000D03*
X193280000Y-72900000D03*
%TD*%
D31*
%TO.C,C3*%
X196225000Y-70200000D03*
X197775000Y-70200000D03*
%TD*%
D34*
%TO.C,FB1*%
X193900000Y-68050000D03*
X196200000Y-68050000D03*
%TD*%
D28*
%TO.C,C11*%
X189300000Y-87050000D03*
X187750000Y-87050000D03*
%TD*%
D19*
%TO.C,R4*%
X190800000Y-67300000D03*
X190800000Y-65475000D03*
%TD*%
D35*
%TO.C,R1*%
X177525000Y-94300000D03*
X175700000Y-94300000D03*
%TD*%
D36*
%TO.C,U2*%
X190575000Y-81890000D03*
X190575000Y-81390000D03*
X190575000Y-80890000D03*
X190575000Y-80390000D03*
X190575000Y-79890000D03*
X190575000Y-79390000D03*
X190575000Y-78890000D03*
X190575000Y-78390000D03*
X190575000Y-77890000D03*
X190575000Y-77390000D03*
X190575000Y-76890000D03*
X190575000Y-76390000D03*
X190575000Y-75890000D03*
X190575000Y-75390000D03*
X190575000Y-74890000D03*
X190575000Y-74390000D03*
X190575000Y-73890000D03*
X190575000Y-73390000D03*
X190575000Y-72890000D03*
X190575000Y-72390000D03*
X190575000Y-71890000D03*
X190575000Y-71390000D03*
X190575000Y-70890000D03*
X190575000Y-70390000D03*
X190575000Y-69890000D03*
D37*
X188900000Y-68215000D03*
X188400000Y-68215000D03*
X187900000Y-68215000D03*
X187400000Y-68215000D03*
X186900000Y-68215000D03*
X186400000Y-68215000D03*
X185900000Y-68215000D03*
X185400000Y-68215000D03*
X184900000Y-68215000D03*
X184400000Y-68215000D03*
X183900000Y-68215000D03*
X183400000Y-68215000D03*
X182900000Y-68215000D03*
X182400000Y-68215000D03*
X181900000Y-68215000D03*
X181400000Y-68215000D03*
X180900000Y-68215000D03*
X180400000Y-68215000D03*
X179900000Y-68215000D03*
X179400000Y-68215000D03*
X178900000Y-68215000D03*
X178400000Y-68215000D03*
X177900000Y-68215000D03*
X177400000Y-68215000D03*
X176900000Y-68215000D03*
D36*
X175225000Y-69890000D03*
X175225000Y-70390000D03*
X175225000Y-70890000D03*
X175225000Y-71390000D03*
X175225000Y-71890000D03*
X175225000Y-72390000D03*
X175225000Y-72890000D03*
X175225000Y-73390000D03*
X175225000Y-73890000D03*
X175225000Y-74390000D03*
X175225000Y-74890000D03*
X175225000Y-75390000D03*
X175225000Y-75890000D03*
X175225000Y-76390000D03*
X175225000Y-76890000D03*
X175225000Y-77390000D03*
X175225000Y-77890000D03*
X175225000Y-78390000D03*
X175225000Y-78890000D03*
X175225000Y-79390000D03*
X175225000Y-79890000D03*
X175225000Y-80390000D03*
X175225000Y-80890000D03*
X175225000Y-81390000D03*
X175225000Y-81890000D03*
D37*
X176900000Y-83565000D03*
X177400000Y-83565000D03*
X177900000Y-83565000D03*
X178400000Y-83565000D03*
X178900000Y-83565000D03*
X179400000Y-83565000D03*
X179900000Y-83565000D03*
X180400000Y-83565000D03*
X180900000Y-83565000D03*
X181400000Y-83565000D03*
X181900000Y-83565000D03*
X182400000Y-83565000D03*
X182900000Y-83565000D03*
X183400000Y-83565000D03*
X183900000Y-83565000D03*
X184400000Y-83565000D03*
X184900000Y-83565000D03*
X185400000Y-83565000D03*
X185900000Y-83565000D03*
X186400000Y-83565000D03*
X186900000Y-83565000D03*
X187400000Y-83565000D03*
X187900000Y-83565000D03*
X188400000Y-83565000D03*
X188900000Y-83565000D03*
%TD*%
M02*
